<svg width="880" height="576" viewBox="0 0 880 576" fill="none" xmlns="http://www.w3.org/2000/svg">
<path d="M376.507 444.975H287.875V273.296C287.875 248.809 307.715 228.959 332.191 228.959C356.667 228.959 376.507 248.809 376.507 273.296V444.975Z" fill="white" stroke="#E42E3B" stroke-width="10" stroke-miterlimit="10" stroke-linecap="round" stroke-linejoin="round"/>
<path d="M332.191 228.959C307.715 228.959 287.875 248.809 287.875 273.296V309.506H376.507V273.296C376.507 248.811 356.667 228.959 332.191 228.959Z" fill="#E42E3B" stroke="#E42E3B" stroke-width="10" stroke-miterlimit="10" stroke-linecap="round" stroke-linejoin="round"/>
<path d="M468.957 554.581L412.534 520.084C396.214 510.107 386.263 492.35 386.263 473.217V383.564C386.263 378.571 382.217 374.523 377.226 374.523H354.293C350.268 374.523 347.004 377.789 347.004 381.816V396.497C347.004 404.874 340.217 411.664 331.845 411.664H309.592C301.219 411.664 294.433 404.874 294.433 396.497V380.407C294.433 377.159 291.8 374.525 288.553 374.525H284.521C279.53 374.525 275.484 378.573 275.484 383.566V571H313.383V509.859L351.869 571H477.221V569.323C477.218 563.302 474.089 557.719 468.957 554.581Z" fill="#E42E3B" stroke="#E42E3B" stroke-width="10" stroke-miterlimit="10" stroke-linecap="round" stroke-linejoin="round"/>
<path d="M281.961 506.82H305.866" stroke="white" stroke-width="10" stroke-miterlimit="10" stroke-linecap="round" stroke-linejoin="round"/>
<path d="M355.625 562.899H471.069" stroke="white" stroke-width="10" stroke-miterlimit="10" stroke-linecap="round" stroke-linejoin="round"/>
<path d="M593.39 444.975H504.758V273.296C504.758 248.809 524.598 228.959 549.074 228.959C573.55 228.959 593.39 248.809 593.39 273.296V444.975Z" fill="white" stroke="#E42E3B" stroke-width="10" stroke-miterlimit="10" stroke-linecap="round" stroke-linejoin="round"/>
<path d="M549.074 228.959C524.598 228.959 504.758 248.809 504.758 273.296V309.506H593.39V273.296C593.39 248.809 573.55 228.959 549.074 228.959Z" fill="#E42E3B" stroke="#E42E3B" stroke-width="10" stroke-miterlimit="10" stroke-linecap="round" stroke-linejoin="round"/>
<path d="M685.998 554.581L629.575 520.084C613.255 510.107 603.304 492.352 603.304 473.217V383.564C603.304 378.571 599.258 374.523 594.267 374.523H571.178C567.153 374.523 563.889 377.789 563.889 381.816V396.497C563.889 404.874 557.102 411.664 548.729 411.664H526.477C518.104 411.664 511.318 404.874 511.318 396.497V380.407C511.318 377.159 508.685 374.525 505.438 374.525H501.56C496.569 374.525 492.523 378.573 492.523 383.566V571H530.422V509.859L568.909 571H694.26V569.323C694.26 563.302 691.13 557.719 685.998 554.581Z" fill="#E42E3B" stroke="#E42E3B" stroke-width="10" stroke-miterlimit="10" stroke-linecap="round" stroke-linejoin="round"/>
<path d="M498.961 505.507H522.866" stroke="white" stroke-width="10" stroke-miterlimit="10" stroke-linecap="round" stroke-linejoin="round"/>
<path d="M572.625 563.111H688.069" stroke="white" stroke-width="10" stroke-miterlimit="10" stroke-linecap="round" stroke-linejoin="round"/>
<path d="M670.853 98.9632C657.356 98.9632 644.603 102.134 633.284 107.761C633.284 107.698 633.286 107.637 633.286 107.576C633.286 73.8458 605.955 46.5001 572.239 46.5001C557.247 46.5001 543.52 51.9102 532.895 60.8809C518.289 27.9613 485.335 5 447.016 5C409.064 5 376.372 27.5255 361.56 59.9389C351.101 51.5335 337.819 46.4982 323.359 46.4982C289.645 46.4982 262.312 73.842 262.312 107.574C262.312 107.637 262.314 107.698 262.314 107.759C250.997 102.13 238.242 98.9613 224.745 98.9613C178.062 98.9613 140.219 136.823 140.219 183.528C140.219 230.232 178.062 268.094 224.745 268.094C241.688 268.094 257.466 263.102 270.693 254.514C275.427 283.531 300.593 305.68 330.935 305.68C345.674 305.68 359.194 300.452 369.743 291.75C386.692 316.249 414.978 332.3 447.014 332.3C479.154 332.3 507.517 316.144 524.449 291.512C535.04 300.355 548.667 305.678 563.539 305.678C594.113 305.678 619.437 283.19 623.89 253.846C637.322 262.844 653.472 268.092 670.85 268.092C717.532 268.092 755.376 230.23 755.376 183.526C755.379 136.825 717.536 98.9632 670.853 98.9632Z" fill="white" stroke="#101111" stroke-width="10" stroke-miterlimit="10" stroke-linecap="round" stroke-linejoin="round"/>
<path d="M541.085 181.975C541.085 191.926 535.246 192.883 528.042 192.883C520.839 192.883 515 191.926 515 181.975C515 168.652 520.839 168.652 528.042 168.652C535.246 168.652 541.085 168.814 541.085 181.975Z" fill="#101111"/>
<path d="M490.156 189.638C490.156 189.638 506.864 160.85 549.906 170.707C549.906 170.707 573.735 176.616 586.211 168.652" stroke="#101111" stroke-width="10" stroke-miterlimit="10" stroke-linecap="round" stroke-linejoin="round"/>
<path d="M372.781 181.975C372.781 191.926 378.621 192.883 385.824 192.883C393.027 192.883 398.866 191.926 398.866 181.975C398.866 168.652 393.027 168.652 385.824 168.652C378.619 168.652 372.781 168.814 372.781 181.975Z" fill="#101111"/>
<path d="M423.703 189.638C423.703 189.638 406.995 160.85 363.953 170.707C363.953 170.707 340.124 176.616 327.648 168.652" stroke="#101111" stroke-width="10" stroke-miterlimit="10" stroke-linecap="round" stroke-linejoin="round"/>
<path d="M5 518.168V462.087L133.353 278.404H210.935V458.024H244.242V518.168H210.935V570.996H141.477V518.168H5ZM146.352 354.803L78.1135 458.024H146.352V354.803Z" fill="#101111" stroke="#101111" stroke-width="10" stroke-miterlimit="10" stroke-linecap="round" stroke-linejoin="round"/>
<path d="M635.758 518.168V462.087L764.111 278.404H841.693V458.024H875V518.168H841.693V570.996H772.235V518.168H635.758ZM777.11 354.803L708.871 458.024H777.11V354.803Z" fill="#101111" stroke="#101111" stroke-width="10" stroke-miterlimit="10" stroke-linecap="round" stroke-linejoin="round"/>
</svg>
