<svg width="192" height="24" viewBox="0 0 192 24" fill="none" xmlns="http://www.w3.org/2000/svg">
<path d="M81.9829 12.5841C82.8322 13.9696 84.7079 14.2913 86.1445 13.7416C88.4329 12.8812 89.2775 9.7982 87.6722 7.92583C85.525 5.33287 81.3823 5.86567 79.5878 8.59071C78.1914 10.5893 78.3066 13.3827 79.7191 15.3498C81.5896 18.1287 85.3457 19.0824 88.5108 18.2979C92.8937 17.2644 95.4445 12.8309 94.3912 8.48474C92.9806 2.26519 87.0028 0.690348 81.4021 0.494408C68.314 0.368048 49.3211 0.441809 36.1705 0.328817C24.1134 0.254333 12.0566 0.159664 0 -0.000659943V1.73003C23.3273 1.41707 48.922 1.3209 72.3412 1.28394C74.9495 1.31656 78.7936 1.22443 81.3641 1.33458C87.0379 1.59457 92.8744 2.92073 92.7901 9.77533C92.74 12.7738 90.9759 15.6721 88.024 16.5636C85.4497 17.4231 82.2507 16.9917 80.4437 14.8083C78.4869 12.5291 78.9721 8.9799 81.5187 7.34662C83.9773 5.65966 88.0144 6.87247 88.2714 10.0801C88.3486 11.5288 87.4684 13.0535 86.0748 13.5515C84.7298 14.0578 82.9545 13.7664 82.1964 12.4524L81.9829 12.5841Z" fill="#E42E3B"/>
<path d="M109.486 12.4523C108.728 13.766 106.952 14.058 105.607 13.5514C104.214 13.0534 103.334 11.5289 103.411 10.0801C103.665 6.87446 107.71 5.65913 110.164 7.34666C112.711 8.97958 113.195 12.5308 111.238 14.8083C109.432 16.9915 106.233 17.4231 103.658 16.5636C100.336 15.5563 98.5865 12.0809 98.928 8.75241C99.4178 2.64358 105.22 1.57721 110.318 1.33456C123.389 1.181 142.378 1.37989 155.512 1.40033C167.569 1.47497 179.626 1.56968 191.682 1.72996V-0.000728607C179.626 0.159595 167.569 0.254263 155.512 0.32885C142.324 0.444885 123.396 0.367918 110.28 0.494175C104.683 0.688824 98.6982 2.2676 97.2911 8.48477C96.2393 12.8298 98.7856 17.2636 103.172 18.2979C106.336 19.0825 110.093 18.1288 111.963 15.3497C113.376 13.3824 113.491 10.5895 112.094 8.59064C110.302 5.86555 106.154 5.33353 104.01 7.92581C101.771 10.7178 104.342 14.7116 107.822 13.8972C108.577 13.7213 109.284 13.258 109.699 12.584L109.486 12.4523Z" fill="#E42E3B"/>
<path d="M95.8413 2.84274C96.6943 2.84274 97.3858 3.53422 97.3858 4.38719C97.3858 5.24017 96.6943 5.93164 95.8413 5.93164C94.9883 5.93164 94.2969 5.24017 94.2969 4.38719C94.2969 3.53422 94.9883 2.84274 95.8413 2.84274Z" fill="#E42E3B"/>
<path d="M100.533 19.3078C99.3089 19.3078 95.8407 15.8396 95.8407 14.6155C95.8407 15.8396 92.3725 19.3078 91.1484 19.3078C92.3725 19.3078 95.8407 22.7759 95.8407 24C95.8407 22.7759 99.3088 19.3078 100.533 19.3078Z" fill="#E42E3B"/>
</svg>
