<svg width="162" height="147" viewBox="0 0 162 147" fill="none" xmlns="http://www.w3.org/2000/svg">
<path d="M136.5 97.4453C127.1 119.245 105.3 134.545 80.1003 134.545C54.9003 134.545 33.1004 119.245 23.7004 97.4453H19.4004C29.1004 121.545 52.6003 138.545 80.1003 138.545C107.6 138.545 131.1 121.545 140.8 97.4453H136.5Z" fill="#89503B"/>
<path d="M24.1011 48.1461C33.7011 26.7461 55.2011 11.7461 80.1011 11.7461C105.001 11.7461 126.501 26.7461 136.101 48.1461H140.501C130.701 24.4461 107.301 7.74609 80.1011 7.74609C52.9011 7.74609 29.5012 24.4461 19.7012 48.1461H24.1011Z" fill="#89503B"/>
<path d="M43.8004 48.1469L35.4004 42.5469L34.9004 43.4469L42.0004 48.1469H43.8004Z" fill="white"/>
<path d="M79 46.8473V48.0473H80V46.4473C79.7 46.7473 79.4 46.8473 79 46.8473Z" fill="white"/>
<path d="M69.9996 48.1469L59.4996 23.0469L58.5996 23.4469L68.8997 48.1469H69.9996Z" fill="white"/>
<path d="M56 48.1476L42.3 34.3477L41.5 35.0477L54.6 48.1476H56Z" fill="white"/>
<path d="M63.9 48.1476L50.3 27.8477L49.5 28.4477L62.7 48.1476H63.9Z" fill="white"/>
<path d="M70.4 24.7465L69.5 20.1465L68.5 20.3465L69.8 26.5465C69.9 25.8465 70.1 25.3465 70.4 24.7465Z" fill="white"/>
<path d="M73.3008 44.1465L74.1008 48.1465H75.1008L74.5008 45.1465C74.1008 44.8465 73.7008 44.5465 73.3008 44.1465Z" fill="white"/>
<path d="M104.5 48.1476L117.5 35.0477L116.8 34.3477L103.1 48.1476H104.5Z" fill="white"/>
<path d="M96.2 48.1461L109.4 28.2461L108.5 27.7461L95 48.1461H96.2Z" fill="white"/>
<path d="M90 48.1472L100.2 23.3473L99.3 22.9473L89 48.1472H90Z" fill="white"/>
<path d="M116.7 48.1476L124.1 43.1476L123.5 42.3477L114.9 48.1476H116.7Z" fill="white"/>
<path d="M94.9004 110.547L99.6003 121.647L100.5 121.347L96.0004 110.547H94.9004Z" fill="white"/>
<path d="M104.5 110.547L108.8 116.847L109.6 116.347L105.7 110.547H104.5Z" fill="white"/>
<path d="M42.6 97.4473H41.2L35 101.547L35.6 102.447L42.6 97.7473V97.4473Z" fill="white"/>
<path d="M116.5 97.4473L123.7 102.147L124.2 101.347L118.3 97.4473H116.5Z" fill="white"/>
<path d="M86.8008 110.547L89.7008 124.647L90.6008 124.447L87.8008 110.547H86.8008Z" fill="white"/>
<path d="M113.701 107.247L116.801 110.347L117.501 109.647L114.301 106.447C114.201 106.747 114.001 107.047 113.701 107.247Z" fill="white"/>
<path d="M53.7012 110.547L49.7012 116.447L50.6011 117.047L54.9012 110.547H53.7012Z" fill="white"/>
<path d="M80 110.547H79V125.647H80V110.547Z" fill="white"/>
<path d="M44.6996 106.547L41.5996 109.647L42.2996 110.347L45.2996 107.347C45.0996 107.047 44.8996 106.847 44.6996 106.547Z" fill="white"/>
<path d="M71.5012 110.547L68.7012 124.547L69.7012 124.747L72.5012 110.547H71.5012Z" fill="white"/>
<path d="M63.4004 110.547L58.9004 121.447L59.8004 121.847L64.4004 110.547H63.4004Z" fill="white"/>
<path d="M89.7004 23.7469L90.4004 20.2469L89.4004 20.0469L88.9004 22.4469C89.2004 22.8469 89.4004 23.3469 89.7004 23.7469Z" fill="white"/>
<path d="M84.2008 46.2465L83.8008 48.1465H84.8008L85.3008 45.6465C85.0008 45.8465 84.6008 46.0465 84.2008 46.2465Z" fill="white"/>
<path d="M14.6003 48.1469C24.7003 21.8469 50.2003 3.04688 80.1003 3.04688C110 3.04688 135.5 21.8469 145.6 48.1469H148.8C138.6 20.1469 111.6 0.046875 80.1003 0.046875C48.6003 0.046875 21.6004 20.1469 11.4004 48.1469H14.6003Z" fill="white"/>
<path d="M145.9 97.4473C136 124.147 110.2 143.247 80.0996 143.247C49.9996 143.247 24.1996 124.147 14.2996 97.4473H11.0996C21.0996 125.847 48.2996 146.247 80.0996 146.247C111.9 146.247 139 125.847 149.1 97.4473H145.9Z" fill="white"/>
<path d="M55.9088 98.0421L55.0294 98.291C54.9741 98.1444 54.8926 98.002 54.7847 97.8638C54.6796 97.7227 54.5358 97.6066 54.3533 97.5153C54.1708 97.4241 53.9372 97.3785 53.6524 97.3785C53.2625 97.3785 52.9375 97.4683 52.6776 97.6481C52.4204 97.825 52.2919 98.0504 52.2919 98.3242C52.2919 98.5675 52.3804 98.7597 52.5573 98.9007C52.7343 99.0417 53.0108 99.1593 53.3869 99.2533L54.3326 99.4856C54.9022 99.6238 55.3267 99.8354 55.606 100.12C55.8853 100.402 56.0249 100.766 56.0249 101.211C56.0249 101.576 55.9198 101.902 55.7097 102.19C55.5023 102.478 55.2119 102.704 54.8386 102.87C54.4653 103.036 54.0312 103.119 53.5362 103.119C52.8864 103.119 52.3486 102.978 51.9227 102.696C51.4969 102.414 51.2273 102.002 51.1139 101.46L52.043 101.228C52.1315 101.571 52.2988 101.828 52.5449 101.999C52.7938 102.171 53.1187 102.256 53.5196 102.256C53.9759 102.256 54.3381 102.16 54.6064 101.966C54.8773 101.77 55.0128 101.535 55.0128 101.261C55.0128 101.04 54.9354 100.854 54.7806 100.705C54.6257 100.553 54.3879 100.44 54.0671 100.365L53.0053 100.116C52.4218 99.9778 51.9932 99.7635 51.7195 99.4731C51.4485 99.18 51.313 98.8136 51.313 98.3739C51.313 98.0145 51.4139 97.6965 51.6158 97.4199C51.8204 97.1434 52.0983 96.9263 52.4495 96.7687C52.8034 96.6111 53.2044 96.5323 53.6524 96.5323C54.2828 96.5323 54.7778 96.6706 55.1373 96.9471C55.4995 97.2236 55.7567 97.5886 55.9088 98.0421ZM57.4984 102.986V96.6153H58.4773V102.986H57.4984ZM57.9962 95.5534C57.8054 95.5534 57.6408 95.4884 57.5026 95.3585C57.3671 95.2285 57.2993 95.0723 57.2993 94.8898C57.2993 94.7073 57.3671 94.551 57.5026 94.4211C57.6408 94.2911 57.8054 94.2261 57.9962 94.2261C58.187 94.2261 58.3501 94.2911 58.4856 94.4211C58.6239 94.551 58.693 94.7073 58.693 94.8898C58.693 95.0723 58.6239 95.2285 58.4856 95.3585C58.3501 95.4884 58.187 95.5534 57.9962 95.5534ZM61.2491 99.1537V102.986H60.2702V96.6153H61.2159V97.6107H61.2989C61.4482 97.2872 61.675 97.0273 61.9791 96.8309C62.2833 96.6318 62.676 96.5323 63.1571 96.5323C63.5885 96.5323 63.9659 96.6208 64.2895 96.7978C64.613 96.972 64.8646 97.2374 65.0444 97.5941C65.2241 97.9481 65.314 98.3961 65.314 98.938V102.986H64.3351V99.0044C64.3351 98.5039 64.2051 98.114 63.9452 97.8347C63.6853 97.5527 63.3286 97.4116 62.8751 97.4116C62.5626 97.4116 62.2833 97.4794 62.0372 97.6149C61.7939 97.7504 61.6017 97.9481 61.4607 98.208C61.3196 98.468 61.2491 98.7832 61.2491 99.1537ZM69.691 103.119C69.0937 103.119 68.5794 102.978 68.148 102.696C67.7166 102.414 67.3848 102.025 67.1525 101.53C66.9202 101.035 66.8041 100.47 66.8041 99.834C66.8041 99.1869 66.923 98.6159 67.1608 98.1209C67.4014 97.6232 67.736 97.2347 68.1646 96.9554C68.596 96.6733 69.0992 96.5323 69.6744 96.5323C70.1224 96.5323 70.5261 96.6153 70.8856 96.7812C71.245 96.9471 71.5395 97.1794 71.7691 97.478C71.9986 97.7766 72.141 98.1251 72.1963 98.5233H71.2174C71.1427 98.2329 70.9768 97.9757 70.7197 97.7518C70.4653 97.525 70.1224 97.4116 69.691 97.4116C69.3094 97.4116 68.9748 97.5112 68.6872 97.7103C68.4024 97.9066 68.1798 98.1845 68.0194 98.544C67.8618 98.9007 67.783 99.3196 67.783 99.8008C67.783 100.293 67.8604 100.722 68.0153 101.087C68.1729 101.452 68.3941 101.735 68.6789 101.937C68.9665 102.139 69.3039 102.24 69.691 102.24C69.9454 102.24 70.1763 102.195 70.3837 102.107C70.5911 102.019 70.7667 101.891 70.9105 101.725C71.0542 101.559 71.1566 101.36 71.2174 101.128H72.1963C72.141 101.504 72.0041 101.843 71.7856 102.144C71.57 102.443 71.2838 102.681 70.927 102.858C70.5731 103.032 70.1611 103.119 69.691 103.119ZM76.2985 103.119C75.6846 103.119 75.1551 102.984 74.7099 102.713C74.2674 102.439 73.9259 102.057 73.6854 101.568C73.4475 101.076 73.3286 100.503 73.3286 99.8506C73.3286 99.198 73.4475 98.6228 73.6854 98.1251C73.9259 97.6246 74.2605 97.2347 74.6891 96.9554C75.1205 96.6733 75.6238 96.5323 76.1989 96.5323C76.5308 96.5323 76.8584 96.5876 77.182 96.6982C77.5055 96.8088 77.8 96.9886 78.0655 97.2374C78.3309 97.4835 78.5425 97.8098 78.7001 98.2163C78.8577 98.6228 78.9365 99.1233 78.9365 99.7178V100.133H74.0255V99.2865H77.941C77.941 98.927 77.8691 98.6062 77.7253 98.3242C77.5843 98.0421 77.3825 97.8195 77.1198 97.6564C76.8598 97.4932 76.5529 97.4116 76.1989 97.4116C75.809 97.4116 75.4717 97.5084 75.1869 97.702C74.9048 97.8928 74.6877 98.1417 74.5357 98.4486C74.3836 98.7555 74.3075 99.0846 74.3075 99.4358V99.9999C74.3075 100.481 74.3905 100.889 74.5564 101.223C74.7251 101.555 74.9587 101.808 75.2574 101.983C75.556 102.154 75.9031 102.24 76.2985 102.24C76.5557 102.24 76.7879 102.204 76.9953 102.132C77.2055 102.057 77.3866 101.947 77.5387 101.8C77.6908 101.651 77.8083 101.465 77.8913 101.244L78.837 101.51C78.7374 101.83 78.5701 102.113 78.3351 102.356C78.1 102.596 77.8097 102.784 77.464 102.92C77.1184 103.053 76.7299 103.119 76.2985 103.119ZM86.6805 94.4916V102.986H85.6519V95.57H85.6021L83.5282 96.9471V95.9018L85.6519 94.4916H86.6805ZM91.828 94.3754C92.1764 94.3782 92.5248 94.4446 92.8732 94.5745C93.2217 94.7045 93.5397 94.9202 93.8272 95.2216C94.1148 95.5202 94.3457 95.9281 94.5199 96.4452C94.6941 96.9623 94.7812 97.6107 94.7812 98.3905C94.7812 99.1454 94.7093 99.816 94.5655 100.402C94.4245 100.986 94.2199 101.478 93.9517 101.879C93.6862 102.28 93.3627 102.584 92.9811 102.791C92.6022 102.999 92.1736 103.102 91.6952 103.102C91.2196 103.102 90.7952 103.008 90.4219 102.82C90.0513 102.63 89.7471 102.366 89.5093 102.028C89.2743 101.688 89.1236 101.294 89.0572 100.846H90.0693C90.1606 101.236 90.3417 101.558 90.6127 101.812C90.8864 102.064 91.2473 102.19 91.6952 102.19C92.3506 102.19 92.8677 101.904 93.2465 101.331C93.6281 100.759 93.8189 99.9501 93.8189 98.9049H93.7526C93.5977 99.1371 93.4138 99.3376 93.2009 99.5063C92.988 99.675 92.7516 99.8049 92.4916 99.8962C92.2317 99.9874 91.9552 100.033 91.6621 100.033C91.1754 100.033 90.7288 99.9128 90.3223 99.6722C89.9186 99.4289 89.5951 99.0957 89.3517 98.6726C89.1111 98.2467 88.9909 97.7601 88.9909 97.2125C88.9909 96.6927 89.107 96.2171 89.3393 95.7857C89.5743 95.3515 89.9034 95.0059 90.3265 94.7487C90.7523 94.4916 91.2528 94.3671 91.828 94.3754ZM91.828 95.2879C91.4796 95.2879 91.1657 95.3751 90.8864 95.5493C90.6099 95.7207 90.3901 95.953 90.2269 96.2461C90.0665 96.5364 89.9863 96.8586 89.9863 97.2125C89.9863 97.5665 90.0638 97.8886 90.2186 98.179C90.3762 98.4666 90.5905 98.6961 90.8615 98.8675C91.1353 99.0362 91.4464 99.1205 91.7948 99.1205C92.0575 99.1205 92.3022 99.0694 92.529 98.9671C92.7557 98.862 92.9534 98.7196 93.1221 98.5399C93.2935 98.3573 93.4277 98.1513 93.5244 97.9218C93.6212 97.6895 93.6696 97.4476 93.6696 97.196C93.6696 96.8641 93.5894 96.553 93.429 96.2627C93.2714 95.9723 93.053 95.7373 92.7737 95.5576C92.4972 95.3778 92.1819 95.2879 91.828 95.2879ZM99.067 103.102C98.5803 103.102 98.142 103.006 97.7521 102.812C97.3622 102.619 97.0498 102.353 96.8147 102.016C96.5797 101.678 96.4511 101.294 96.429 100.863H97.4244C97.4632 101.247 97.6374 101.565 97.9471 101.817C98.2595 102.066 98.6328 102.19 99.067 102.19C99.4154 102.19 99.7251 102.108 99.9961 101.945C100.27 101.782 100.484 101.558 100.639 101.273C100.797 100.986 100.875 100.661 100.875 100.299C100.875 99.928 100.794 99.5975 100.631 99.3072C100.47 99.0141 100.249 98.7832 99.9671 98.6145C99.685 98.4458 99.3629 98.3601 99.0006 98.3573C98.7407 98.3546 98.4738 98.3947 98.2001 98.4776C97.9263 98.5578 97.701 98.6615 97.524 98.7887L96.5617 98.6726L97.076 94.4916H101.489V95.4041H97.9388L97.6401 97.9094H97.6899C97.8641 97.7711 98.0826 97.6564 98.3453 97.5651C98.608 97.4739 98.8817 97.4282 99.1665 97.4282C99.6864 97.4282 100.15 97.5527 100.556 97.8015C100.965 98.0476 101.286 98.385 101.518 98.8136C101.753 99.2422 101.871 99.7317 101.871 100.282C101.871 100.824 101.749 101.308 101.506 101.734C101.265 102.157 100.934 102.491 100.51 102.737C100.087 102.981 99.6062 103.102 99.067 103.102ZM103.32 101.244V100.398L107.053 94.4916H107.666V95.8023H107.252L104.431 100.265V100.332H109.458V101.244H103.32ZM107.318 102.986V100.987V100.593V94.4916H108.297V102.986H107.318Z" fill="#89503B"/>
<path d="M8.41105 59.0644C12.8843 59.0644 14.9553 61.9637 14.9553 66.3541V68.9635H11.8903V66.1884C11.8903 63.579 10.8548 62.0051 8.49389 62.0051C6.17442 62.0051 5.09752 63.579 5.09752 66.1884V81.5135C5.09752 84.1229 6.17442 85.6968 8.49389 85.6968C10.8548 85.6968 11.8903 84.1229 11.8903 81.5135V77.7444H14.9553V81.3478C14.9553 85.7383 12.8843 88.6376 8.41105 88.6376C3.9792 88.6376 1.90825 85.7383 1.90825 81.3478V66.3541C1.90825 61.9637 3.9792 59.0644 8.41105 59.0644ZM17.6427 66.3541C17.6427 61.9223 19.8379 59.0644 24.2697 59.0644C28.743 59.0644 30.9382 61.9223 30.9382 66.3541V81.3478C30.9382 85.7383 28.743 88.6376 24.2697 88.6376C19.8379 88.6376 17.6427 85.7383 17.6427 81.3478V66.3541ZM20.8319 81.5135C20.8319 84.1643 21.9502 85.6968 24.2697 85.6968C26.6306 85.6968 27.7075 84.1643 27.7075 81.5135V66.1884C27.7075 63.579 26.6306 62.0051 24.2697 62.0051C21.9502 62.0051 20.8319 63.579 20.8319 66.1884V81.5135ZM43.8888 72.8569V75.7977H37.2203V88.3477H33.9896V59.3543H45.5041V62.295H37.2203V72.8569H43.8888ZM57.9648 72.8569V75.7977H51.2963V88.3477H48.0656V59.3543H59.5801V62.295H51.2963V72.8569H57.9648ZM72.455 72.1942V75.0935H65.3723V85.4069H74.0704V88.3477H62.1417V59.3543H74.0704V62.295H65.3723V72.1942H72.455ZM87.3805 72.1942V75.0935H80.2978V85.4069H88.9958V88.3477H77.0671V59.3543H88.9958V62.295H80.2978V72.1942H87.3805ZM104.512 59.0644C108.903 59.0644 110.974 61.9223 110.974 66.3127V67.0997H107.909V66.147C107.909 63.5376 106.915 62.0051 104.595 62.0051C102.276 62.0051 101.282 63.5376 101.282 66.1056C101.282 72.6084 111.015 73.2297 111.015 81.3892C111.015 85.7797 108.903 88.6376 104.471 88.6376C100.039 88.6376 97.9682 85.7797 97.9682 81.3892V79.7325H100.992V81.5549C100.992 84.1643 102.069 85.6968 104.388 85.6968C106.708 85.6968 107.785 84.1643 107.785 81.5549C107.785 75.0935 98.0925 74.4723 98.0925 66.3127C98.0925 61.8394 100.163 59.0644 104.512 59.0644ZM117.065 75.3006V88.3477H113.835V59.3543H117.065V72.4013H124.189V59.3543H127.42V88.3477H124.189V75.3006H117.065ZM130.494 66.3541C130.494 61.9223 132.689 59.0644 137.121 59.0644C141.594 59.0644 143.789 61.9223 143.789 66.3541V81.3478C143.789 85.7383 141.594 88.6376 137.121 88.6376C132.689 88.6376 130.494 85.7383 130.494 81.3478V66.3541ZM133.683 81.5135C133.683 84.1643 134.801 85.6968 137.121 85.6968C139.481 85.6968 140.558 84.1643 140.558 81.5135V66.1884C140.558 63.579 139.481 62.0051 137.121 62.0051C134.801 62.0051 133.683 63.579 133.683 66.1884V81.5135ZM153.178 59.3543C157.734 59.3543 159.68 62.0465 159.68 66.4369V69.9162C159.68 74.5137 157.527 76.916 152.929 76.916H150.071V88.3477H146.84V59.3543H153.178ZM152.929 74.0166C155.331 74.0166 156.491 72.8983 156.491 70.1233V66.2713C156.491 63.6205 155.538 62.295 153.178 62.295H150.071V74.0166H152.929Z" fill="white"/>
<path d="M78.8989 32.4477C77.6989 29.2477 76.4988 25.7477 78.0988 20.8477C74.4988 22.2477 71.7988 26.8477 71.7988 32.2477C71.7988 37.9477 74.6988 42.7477 78.5988 43.8477C81.2988 39.0477 80.1989 35.9477 78.8989 32.4477Z" fill="#89503B"/>
<path d="M81.3988 20.5469C79.4988 25.0469 80.4987 28.0469 81.6987 31.3469C82.8987 34.7469 84.2988 38.5469 81.8988 43.8469C85.6988 42.7469 88.5987 37.9469 88.5987 32.2469C88.7987 26.3469 85.5988 21.3469 81.3988 20.5469Z" fill="#89503B"/>
</svg>
