<svg width="174" height="152" viewBox="0 0 174 152" fill="none" xmlns="http://www.w3.org/2000/svg">
<path d="M163.313 41.9465L96.9132 3.64648C90.8132 0.146484 83.3132 0.146484 77.2132 3.64648L10.9132 42.0465C4.81324 45.5465 1.01325 52.1465 1.11325 59.1465L1.21323 93.2465C1.21323 100.246 5.01325 106.746 11.1133 110.346L77.5133 148.646C83.6133 152.146 91.1132 152.146 97.2132 148.646L163.513 110.246C169.613 106.746 173.413 100.146 173.313 93.1465L173.213 59.0465C173.213 51.9465 169.413 45.4465 163.313 41.9465Z" stroke="white" stroke-miterlimit="10"/>
<path d="M87.0125 7.94727C89.3125 7.94727 91.5125 8.54727 93.4125 9.64727L159.812 47.9473C163.812 50.2473 166.212 54.5473 166.312 59.0473L166.412 93.1473C166.412 97.7473 163.913 102.047 160.013 104.347L93.7125 142.747C91.7125 143.847 89.5125 144.447 87.2125 144.447C84.9125 144.447 82.7125 143.847 80.8125 142.747L14.4125 104.447C10.4125 102.147 8.01248 97.8473 7.91248 93.3473L7.8125 59.2473C7.8125 54.6473 10.3125 50.3473 14.2125 48.0473L80.6125 9.64727C82.5125 8.54727 84.8125 7.94727 87.0125 7.94727ZM87.0125 3.94727C84.0125 3.94727 81.1125 4.74727 78.5125 6.24727L12.2125 44.6473C7.01246 47.6473 3.8125 53.2473 3.8125 59.2473L3.91248 93.3473C3.91248 99.3473 7.21248 104.947 12.4125 107.947L78.8125 146.247C81.4125 147.747 84.3125 148.547 87.2125 148.547C90.2125 148.547 93.1125 147.747 95.7125 146.247L162.013 107.847C167.213 104.847 170.412 99.2473 170.412 93.2473L170.312 59.1473C170.312 53.1473 167.012 47.5473 161.812 44.5473L95.4125 6.24727C92.9125 4.64727 90.0125 3.94727 87.0125 3.94727Z" fill="#89503B"/>
<path d="M76.5133 54.0469L73.6133 71.8469H98.1133L95.2133 54.0469H76.5133Z" fill="white"/>
<path d="M105.413 35.3469L103.513 33.4469C103.213 33.1469 102.813 33.0469 102.413 33.0469H97.1129H88.2129H74.5129H70.2129L75.2129 39.9469L76.4129 50.8469H95.1129L96.7129 36.1469H99.9129C100.313 36.1469 100.713 36.3469 101.013 36.5469L102.113 37.6469C102.413 37.9469 102.613 38.3469 102.613 38.7469V43.2469C102.613 43.6469 102.413 44.0469 102.113 44.3469L100.813 45.6469C100.213 46.2469 100.213 47.2469 100.813 47.8469L101.013 48.0469C101.613 48.6469 102.613 48.6469 103.213 48.0469L105.413 45.8469C105.713 45.5469 105.913 45.1469 105.913 44.7469V36.5469C105.913 35.9469 105.713 35.6469 105.413 35.3469Z" fill="white"/>
<path d="M86.0137 24.5469L75.5137 29.7469H96.7136L86.0137 24.5469Z" fill="white"/>
<path d="M40.8713 80.3828C43.8444 80.3828 45.2208 82.3099 45.2208 85.2279V86.9622H43.1837V85.1178C43.1837 83.3835 42.4955 82.3374 40.9263 82.3374C39.3847 82.3374 38.669 83.3835 38.669 85.1178V95.3035C38.669 97.0378 39.3847 98.0839 40.9263 98.0839C42.4955 98.0839 43.1837 97.0378 43.1837 95.3035V92.7983H45.2208V95.1933C45.2208 98.1114 43.8444 100.038 40.8713 100.038C37.9257 100.038 36.5493 98.1114 36.5493 95.1933V85.2279C36.5493 82.3099 37.9257 80.3828 40.8713 80.3828ZM47.007 85.2279C47.007 82.2823 48.466 80.3828 51.4116 80.3828C54.3847 80.3828 55.8437 82.2823 55.8437 85.2279V95.1933C55.8437 98.1114 54.3847 100.038 51.4116 100.038C48.466 100.038 47.007 98.1114 47.007 95.1933V85.2279ZM49.1267 95.3035C49.1267 97.0653 49.87 98.0839 51.4116 98.0839C52.9807 98.0839 53.6965 97.0653 53.6965 95.3035V85.1178C53.6965 83.3835 52.9807 82.3374 51.4116 82.3374C49.87 82.3374 49.1267 83.3835 49.1267 85.1178V95.3035ZM64.4512 89.5499V91.5045H60.0191V99.8457H57.8718V80.5755H65.5248V82.5301H60.0191V89.5499H64.4512ZM73.8067 89.5499V91.5045H69.3746V99.8457H67.2273V80.5755H74.8803V82.5301H69.3746V89.5499H73.8067ZM83.4375 89.1095V91.0365H78.73V97.8912H84.5111V99.8457H76.5828V80.5755H84.5111V82.5301H78.73V89.1095H83.4375ZM93.3575 89.1095V91.0365H88.6501V97.8912H94.4311V99.8457H86.5028V80.5755H94.4311V82.5301H88.6501V89.1095H93.3575ZM104.744 80.3828C107.662 80.3828 109.039 82.2823 109.039 85.2004V85.7234H107.001V85.0903C107.001 83.356 106.341 82.3374 104.799 82.3374C103.258 82.3374 102.597 83.356 102.597 85.0627C102.597 89.3848 109.066 89.7977 109.066 95.2209C109.066 98.1389 107.662 100.038 104.717 100.038C101.771 100.038 100.395 98.1389 100.395 95.2209V94.1197H102.404V95.331C102.404 97.0653 103.12 98.0839 104.662 98.0839C106.203 98.0839 106.919 97.0653 106.919 95.331C106.919 91.0365 100.477 90.6236 100.477 85.2004C100.477 82.2273 101.854 80.3828 104.744 80.3828ZM113.087 91.1741V99.8457H110.94V80.5755H113.087V89.2471H117.822V80.5755H119.969V99.8457H117.822V91.1741H113.087ZM122.012 85.2279C122.012 82.2823 123.471 80.3828 126.417 80.3828C129.39 80.3828 130.849 82.2823 130.849 85.2279V95.1933C130.849 98.1114 129.39 100.038 126.417 100.038C123.471 100.038 122.012 98.1114 122.012 95.1933V85.2279ZM124.132 95.3035C124.132 97.0653 124.875 98.0839 126.417 98.0839C127.986 98.0839 128.702 97.0653 128.702 95.3035V85.1178C128.702 83.3835 127.986 82.3374 126.417 82.3374C124.875 82.3374 124.132 83.3835 124.132 85.1178V95.3035ZM137.089 80.5755C140.117 80.5755 141.411 82.3649 141.411 85.283V87.5954C141.411 90.6511 139.979 92.2478 136.924 92.2478H135.024V99.8457H132.877V80.5755H137.089ZM136.924 90.3207C138.52 90.3207 139.291 89.5775 139.291 87.733V85.1729C139.291 83.411 138.658 82.5301 137.089 82.5301H135.024V90.3207H136.924Z" fill="white"/>
<path d="M17.4141 110.846L78.8141 146.246C81.4141 147.746 84.314 148.546 87.2141 148.546C90.2141 148.546 93.1141 147.746 95.7141 146.246L156.814 110.846H17.4141Z" fill="#89503B"/>
<path d="M62.5133 71.7461H23.1133" stroke="#89503B" stroke-miterlimit="10"/>
<path d="M62.5133 66.6465H23.1133" stroke="#89503B" stroke-miterlimit="10"/>
<path d="M62.5133 61.5469H23.1133" stroke="#89503B" stroke-miterlimit="10"/>
<path d="M62.5133 56.4453H23.1133" stroke="#89503B" stroke-miterlimit="10"/>
<path d="M62.5133 51.2461H23.1133" stroke="#89503B" stroke-miterlimit="10"/>
<path d="M148.013 71.7461H108.613" stroke="#89503B" stroke-miterlimit="10"/>
<path d="M148.013 66.6465H108.613" stroke="#89503B" stroke-miterlimit="10"/>
<path d="M148.013 61.5469H108.613" stroke="#89503B" stroke-miterlimit="10"/>
<path d="M148.013 56.4453H108.613" stroke="#89503B" stroke-miterlimit="10"/>
<path d="M148.013 51.2461H108.613" stroke="#89503B" stroke-miterlimit="10"/>
<path d="M68.6547 127.619C67.9592 127.619 67.3593 127.466 66.8549 127.159C66.3536 126.848 65.9667 126.416 65.6941 125.862C65.4247 125.304 65.29 124.655 65.29 123.916C65.29 123.177 65.4247 122.525 65.6941 121.961C65.9667 121.394 66.3458 120.952 66.8314 120.636C67.3201 120.316 67.8903 120.157 68.5419 120.157C68.9179 120.157 69.2891 120.219 69.6557 120.345C70.0222 120.47 70.3559 120.673 70.6567 120.955C70.9574 121.234 71.1971 121.604 71.3757 122.064C71.5542 122.525 71.6435 123.092 71.6435 123.766V124.236H66.0795V123.277H70.5157C70.5157 122.87 70.4342 122.506 70.2713 122.187C70.1115 121.867 69.8828 121.615 69.5852 121.43C69.2907 121.245 68.943 121.153 68.5419 121.153C68.1002 121.153 67.718 121.262 67.3953 121.482C67.0757 121.698 66.8298 121.98 66.6575 122.328C66.4852 122.675 66.399 123.048 66.399 123.446V124.085C66.399 124.63 66.493 125.092 66.681 125.472C66.8721 125.847 67.1368 126.134 67.4752 126.332C67.8135 126.526 68.2067 126.623 68.6547 126.623C68.9461 126.623 69.2093 126.582 69.4442 126.501C69.6823 126.416 69.8875 126.291 70.0598 126.125C70.2322 125.956 70.3653 125.746 70.4593 125.495L71.5307 125.796C71.418 126.159 71.2284 126.479 70.9621 126.754C70.6958 127.027 70.3669 127.24 69.9753 127.394C69.5836 127.544 69.1435 127.619 68.6547 127.619ZM78.4435 121.867L77.4472 122.149C77.3846 121.983 77.2922 121.822 77.17 121.665C77.0509 121.505 76.888 121.374 76.6812 121.27C76.4745 121.167 76.2097 121.115 75.887 121.115C75.4453 121.115 75.0772 121.217 74.7827 121.421C74.4913 121.621 74.3457 121.877 74.3457 122.187C74.3457 122.462 74.4459 122.68 74.6464 122.84C74.8469 123 75.1602 123.133 75.5863 123.239L76.6577 123.502C77.3031 123.659 77.784 123.899 78.1004 124.221C78.4169 124.541 78.5751 124.953 78.5751 125.457C78.5751 125.871 78.456 126.241 78.2179 126.566C77.983 126.892 77.654 127.149 77.2311 127.337C76.8081 127.525 76.3163 127.619 75.7555 127.619C75.0192 127.619 74.4099 127.459 73.9274 127.14C73.4449 126.82 73.1395 126.353 73.011 125.739L74.0637 125.476C74.1639 125.865 74.3535 126.156 74.6323 126.35C74.9143 126.545 75.2824 126.642 75.7367 126.642C76.2536 126.642 76.664 126.532 76.9679 126.313C77.2749 126.09 77.4284 125.824 77.4284 125.514C77.4284 125.263 77.3407 125.053 77.1653 124.884C76.9898 124.712 76.7204 124.583 76.357 124.499L75.1539 124.217C74.4929 124.06 74.0073 123.817 73.6971 123.488C73.3901 123.156 73.2366 122.741 73.2366 122.243C73.2366 121.836 73.351 121.475 73.5797 121.162C73.8115 120.849 74.1264 120.603 74.5242 120.424C74.9252 120.246 75.3795 120.157 75.887 120.157C76.6014 120.157 77.1621 120.313 77.5694 120.626C77.9798 120.94 78.2712 121.353 78.4435 121.867ZM83.3837 120.251V121.19H79.643V120.251H83.3837ZM80.7333 118.521H81.8423V125.401C81.8423 125.714 81.8877 125.949 81.9786 126.106C82.0726 126.259 82.1916 126.363 82.3357 126.416C82.483 126.466 82.6381 126.491 82.801 126.491C82.9232 126.491 83.0234 126.485 83.1017 126.472C83.1801 126.457 83.2427 126.444 83.2897 126.435L83.5153 127.431C83.4401 127.459 83.3351 127.488 83.2004 127.516C83.0657 127.547 82.895 127.563 82.6882 127.563C82.3749 127.563 82.0679 127.495 81.7671 127.361C81.4695 127.226 81.222 127.021 81.0246 126.745C80.8304 126.469 80.7333 126.122 80.7333 125.702V118.521ZM92.1386 117.844V127.469H90.9732V119.066H90.9168L88.5671 120.626V119.442L90.9732 117.844H92.1386ZM97.9705 117.713C98.3653 117.716 98.76 117.791 99.1548 117.938C99.5495 118.086 99.9098 118.33 100.236 118.672C100.561 119.01 100.823 119.472 101.02 120.058C101.218 120.644 101.316 121.378 101.316 122.262C101.316 123.117 101.235 123.877 101.072 124.541C100.912 125.202 100.68 125.76 100.377 126.214C100.076 126.668 99.7093 127.013 99.2769 127.248C98.8477 127.483 98.3621 127.6 97.8201 127.6C97.2813 127.6 96.8004 127.494 96.3774 127.281C95.9576 127.065 95.613 126.765 95.3436 126.383C95.0773 125.998 94.9065 125.551 94.8313 125.044H95.978C96.0814 125.486 96.2866 125.851 96.5936 126.139C96.9038 126.424 97.3126 126.566 97.8201 126.566C98.5626 126.566 99.1485 126.242 99.5777 125.594C100.01 124.945 100.226 124.029 100.226 122.845H100.151C99.9756 123.108 99.7672 123.335 99.526 123.526C99.2848 123.717 99.0169 123.864 98.7224 123.968C98.4279 124.071 98.1146 124.123 97.7825 124.123C97.2312 124.123 96.7252 123.987 96.2647 123.714C95.8072 123.438 95.4407 123.061 95.165 122.581C94.8924 122.099 94.7562 121.548 94.7562 120.927C94.7562 120.338 94.8877 119.799 95.1509 119.311C95.4172 118.819 95.79 118.427 96.2693 118.136C96.7518 117.844 97.3189 117.703 97.9705 117.713ZM97.9705 118.747C97.5758 118.747 97.2202 118.845 96.9038 119.043C96.5905 119.237 96.3414 119.5 96.1566 119.832C95.9749 120.161 95.884 120.526 95.884 120.927C95.884 121.328 95.9717 121.693 96.1472 122.022C96.3257 122.348 96.5685 122.608 96.8756 122.802C97.1857 122.993 97.5382 123.089 97.9329 123.089C98.2306 123.089 98.5078 123.031 98.7647 122.915C99.0216 122.796 99.2456 122.635 99.4367 122.431C99.631 122.224 99.7829 121.991 99.8926 121.731C100.002 121.468 100.057 121.194 100.057 120.908C100.057 120.532 99.9662 120.18 99.7845 119.851C99.6059 119.522 99.3584 119.256 99.042 119.052C98.7287 118.849 98.3715 118.747 97.9705 118.747ZM106.247 127.6C105.602 127.6 105.032 127.486 104.537 127.257C104.045 127.025 103.661 126.707 103.385 126.303C103.11 125.896 102.973 125.432 102.977 124.912C102.973 124.505 103.053 124.129 103.216 123.784C103.379 123.437 103.602 123.147 103.883 122.915C104.169 122.68 104.487 122.531 104.837 122.469V122.412C104.377 122.293 104.01 122.035 103.738 121.637C103.465 121.236 103.331 120.78 103.334 120.269C103.331 119.781 103.454 119.344 103.705 118.958C103.956 118.573 104.3 118.269 104.739 118.047C105.181 117.824 105.683 117.713 106.247 117.713C106.805 117.713 107.303 117.824 107.742 118.047C108.18 118.269 108.525 118.573 108.776 118.958C109.029 119.344 109.158 119.781 109.161 120.269C109.158 120.78 109.018 121.236 108.743 121.637C108.47 122.035 108.108 122.293 107.657 122.412V122.469C108.005 122.531 108.318 122.68 108.597 122.915C108.876 123.147 109.098 123.437 109.264 123.784C109.43 124.129 109.515 124.505 109.518 124.912C109.515 125.432 109.374 125.896 109.095 126.303C108.819 126.707 108.436 127.025 107.944 127.257C107.455 127.486 106.89 127.6 106.247 127.6ZM106.247 126.566C106.683 126.566 107.059 126.496 107.375 126.355C107.692 126.214 107.936 126.015 108.108 125.758C108.281 125.501 108.368 125.201 108.371 124.856C108.368 124.492 108.274 124.171 108.089 123.893C107.905 123.614 107.652 123.394 107.333 123.235C107.016 123.075 106.655 122.995 106.247 122.995C105.837 122.995 105.47 123.075 105.148 123.235C104.828 123.394 104.576 123.614 104.391 123.893C104.209 124.171 104.12 124.492 104.123 124.856C104.12 125.201 104.203 125.501 104.372 125.758C104.545 126.015 104.79 126.214 105.11 126.355C105.43 126.496 105.809 126.566 106.247 126.566ZM106.247 121.999C106.592 121.999 106.897 121.93 107.164 121.792C107.433 121.654 107.645 121.461 107.798 121.214C107.952 120.966 108.03 120.677 108.033 120.345C108.03 120.019 107.953 119.735 107.803 119.494C107.652 119.25 107.444 119.062 107.178 118.93C106.911 118.795 106.601 118.728 106.247 118.728C105.887 118.728 105.572 118.795 105.303 118.93C105.033 119.062 104.825 119.25 104.678 119.494C104.53 119.735 104.458 120.019 104.462 120.345C104.458 120.677 104.532 120.966 104.682 121.214C104.836 121.461 105.047 121.654 105.317 121.792C105.586 121.93 105.896 121.999 106.247 121.999ZM114.383 117.713C114.778 117.716 115.173 117.791 115.567 117.938C115.962 118.086 116.322 118.33 116.648 118.672C116.974 119.01 117.236 119.472 117.433 120.058C117.63 120.644 117.729 121.378 117.729 122.262C117.729 123.117 117.648 123.877 117.485 124.541C117.325 125.202 117.093 125.76 116.789 126.214C116.488 126.668 116.122 127.013 115.689 127.248C115.26 127.483 114.775 127.6 114.233 127.6C113.694 127.6 113.213 127.494 112.79 127.281C112.37 127.065 112.026 126.765 111.756 126.383C111.49 125.998 111.319 125.551 111.244 125.044H112.391C112.494 125.486 112.699 125.851 113.006 126.139C113.316 126.424 113.725 126.566 114.233 126.566C114.975 126.566 115.561 126.242 115.99 125.594C116.423 124.945 116.639 124.029 116.639 122.845H116.564C116.388 123.108 116.18 123.335 115.939 123.526C115.697 123.717 115.429 123.864 115.135 123.968C114.84 124.071 114.527 124.123 114.195 124.123C113.644 124.123 113.138 123.987 112.677 123.714C112.22 123.438 111.853 123.061 111.578 122.581C111.305 122.099 111.169 121.548 111.169 120.927C111.169 120.338 111.3 119.799 111.563 119.311C111.83 118.819 112.203 118.427 112.682 118.136C113.164 117.844 113.731 117.703 114.383 117.713ZM114.383 118.747C113.988 118.747 113.633 118.845 113.316 119.043C113.003 119.237 112.754 119.5 112.569 119.832C112.387 120.161 112.297 120.526 112.297 120.927C112.297 121.328 112.384 121.693 112.56 122.022C112.738 122.348 112.981 122.608 113.288 122.802C113.598 122.993 113.951 123.089 114.345 123.089C114.643 123.089 114.92 123.031 115.177 122.915C115.434 122.796 115.658 122.635 115.849 122.431C116.043 122.224 116.195 121.991 116.305 121.731C116.415 121.468 116.47 121.194 116.47 120.908C116.47 120.532 116.379 120.18 116.197 119.851C116.018 119.522 115.771 119.256 115.454 119.052C115.141 118.849 114.784 118.747 114.383 118.747Z" fill="#0E1728"/>
</svg>
