<svg width="173" height="195" viewBox="0 0 173 195" fill="none" xmlns="http://www.w3.org/2000/svg">
<path d="M2.18097 79.8887V66.0071H10.5587V67.4983H3.86193V72.1888H10.1249V73.6799H3.86193V78.3975H10.6671V79.8887H2.18097ZM21.18 69.4775C21.0986 68.7907 20.7687 68.2575 20.1903 67.8779C19.612 67.4983 18.9025 67.3085 18.062 67.3085C17.4475 67.3085 16.9098 67.4079 16.4488 67.6068C15.9925 67.8056 15.6355 68.079 15.3779 68.4269C15.1249 68.7749 14.9983 69.1703 14.9983 69.6131C14.9983 69.9836 15.0864 70.3022 15.2627 70.5688C15.4434 70.8309 15.6739 71.05 15.954 71.2263C16.2342 71.398 16.5279 71.5403 16.8352 71.6533C17.1425 71.7617 17.4249 71.8499 17.6825 71.9176L19.0923 72.2972C19.4538 72.3921 19.856 72.5231 20.2988 72.6903C20.7462 72.8575 21.1732 73.0857 21.5799 73.3749C21.9911 73.6596 22.33 74.0256 22.5966 74.473C22.8632 74.9203 22.9965 75.4694 22.9965 76.1201C22.9965 76.8702 22.7999 77.548 22.4068 78.1535C22.0182 78.759 21.4488 79.2402 20.6987 79.5972C19.9531 79.9542 19.0471 80.1327 17.9807 80.1327C16.9866 80.1327 16.1258 79.9723 15.3982 79.6514C14.6752 79.3306 14.1059 78.8833 13.6902 78.3094C13.279 77.7355 13.0462 77.069 12.992 76.3098H14.7272C14.7724 76.834 14.9486 77.2678 15.2559 77.6112C15.5677 77.9501 15.9608 78.2032 16.4353 78.3704C16.9143 78.5331 17.4294 78.6144 17.9807 78.6144C18.6224 78.6144 19.1985 78.5105 19.7091 78.3026C20.2197 78.0902 20.6241 77.7965 20.9224 77.4214C21.2206 77.0419 21.3697 76.599 21.3697 76.0929C21.3697 75.632 21.241 75.257 20.9834 74.9678C20.7258 74.6786 20.3869 74.4436 19.9667 74.2629C19.5464 74.0821 19.0923 73.924 18.6043 73.7884L16.8962 73.3004C15.8117 72.9886 14.9531 72.5435 14.3205 71.9651C13.6879 71.3867 13.3716 70.6298 13.3716 69.6944C13.3716 68.9172 13.5817 68.2394 14.002 67.661C14.4267 67.0781 14.9961 66.6262 15.71 66.3054C16.4285 65.98 17.2306 65.8174 18.1163 65.8174C19.011 65.8174 19.8063 65.9778 20.5021 66.2986C21.198 66.6149 21.7493 67.0487 22.156 67.6C22.5672 68.1513 22.7841 68.7771 22.8067 69.4775H21.18ZM25.0011 67.4983V66.0071H35.4122V67.4983H31.0472V79.8887H29.3662V67.4983H25.0011Z" fill="white"/>
<path d="M133.829 66.0071V79.8887H132.148V67.7694H132.067L128.678 70.0198V68.3117L132.148 66.0071H133.829ZM142.241 65.8174C142.81 65.8219 143.379 65.9303 143.949 66.1427C144.518 66.3551 145.038 66.7075 145.508 67.2001C145.977 67.6881 146.355 68.3546 146.639 69.1996C146.924 70.0446 147.067 71.1043 147.067 72.3785C147.067 73.6122 146.949 74.708 146.714 75.6659C146.484 76.6194 146.149 77.4237 145.711 78.0789C145.277 78.7341 144.748 79.2312 144.125 79.5701C143.506 79.909 142.805 80.0785 142.024 80.0785C141.246 80.0785 140.553 79.9248 139.943 79.6175C139.337 79.3058 138.84 78.8742 138.452 78.3229C138.067 77.7671 137.821 77.1232 137.713 76.3912H139.367C139.516 77.0283 139.812 77.5547 140.255 77.9705C140.702 78.3817 141.292 78.5873 142.024 78.5873C143.095 78.5873 143.94 78.1196 144.559 77.1842C145.182 76.2488 145.494 74.9271 145.494 73.219H145.386C145.132 73.5986 144.832 73.9262 144.484 74.2019C144.136 74.4775 143.75 74.6899 143.325 74.839C142.9 74.9881 142.448 75.0627 141.969 75.0627C141.174 75.0627 140.444 74.8661 139.78 74.473C139.12 74.0753 138.592 73.5308 138.194 72.8395C137.801 72.1436 137.604 71.3483 137.604 70.4536C137.604 69.6041 137.794 68.8268 138.174 68.1219C138.558 67.4125 139.095 66.8476 139.787 66.4274C140.483 66.0071 141.301 65.8038 142.241 65.8174ZM142.241 67.3085C141.671 67.3085 141.158 67.4509 140.702 67.7356C140.25 68.0157 139.891 68.3953 139.624 68.8743C139.362 69.3487 139.231 69.8752 139.231 70.4536C139.231 71.032 139.358 71.5584 139.611 72.0329C139.868 72.5028 140.218 72.8779 140.661 73.158C141.109 73.4337 141.617 73.5715 142.186 73.5715C142.616 73.5715 143.015 73.4879 143.386 73.3207C143.757 73.149 144.08 72.9163 144.355 72.6226C144.635 72.3243 144.855 71.9877 145.013 71.6126C145.171 71.2331 145.25 70.8377 145.25 70.4265C145.25 69.8842 145.119 69.3759 144.857 68.9014C144.599 68.4269 144.242 68.0428 143.786 67.7491C143.334 67.4554 142.819 67.3085 142.241 67.3085ZM154.151 65.8174C154.721 65.8219 155.29 65.9303 155.859 66.1427C156.429 66.3551 156.948 66.7075 157.418 67.2001C157.888 67.6881 158.266 68.3546 158.55 69.1996C158.835 70.0446 158.977 71.1043 158.977 72.3785C158.977 73.6122 158.86 74.708 158.625 75.6659C158.394 76.6194 158.06 77.4237 157.622 78.0789C157.188 78.7341 156.659 79.2312 156.036 79.5701C155.417 79.909 154.716 80.0785 153.934 80.0785C153.157 80.0785 152.464 79.9248 151.854 79.6175C151.248 79.3058 150.751 78.8742 150.362 78.3229C149.978 77.7671 149.732 77.1232 149.624 76.3912H151.277C151.427 77.0283 151.722 77.5547 152.165 77.9705C152.613 78.3817 153.202 78.5873 153.934 78.5873C155.005 78.5873 155.85 78.1196 156.469 77.1842C157.093 76.2488 157.405 74.9271 157.405 73.219H157.296C157.043 73.5986 156.743 73.9262 156.395 74.2019C156.047 74.4775 155.661 74.6899 155.236 74.839C154.811 74.9881 154.359 75.0627 153.88 75.0627C153.085 75.0627 152.355 74.8661 151.691 74.473C151.031 74.0753 150.502 73.5308 150.105 72.8395C149.712 72.1436 149.515 71.3483 149.515 70.4536C149.515 69.6041 149.705 68.8268 150.084 68.1219C150.469 67.4125 151.006 66.8476 151.698 66.4274C152.394 66.0071 153.211 65.8038 154.151 65.8174ZM154.151 67.3085C153.582 67.3085 153.069 67.4509 152.613 67.7356C152.161 68.0157 151.802 68.3953 151.535 68.8743C151.273 69.3487 151.142 69.8752 151.142 70.4536C151.142 71.032 151.268 71.5584 151.521 72.0329C151.779 72.5028 152.129 72.8779 152.572 73.158C153.019 73.4337 153.528 73.5715 154.097 73.5715C154.526 73.5715 154.926 73.4879 155.297 73.3207C155.667 73.149 155.99 72.9163 156.266 72.6226C156.546 72.3243 156.765 71.9877 156.924 71.6126C157.082 71.2331 157.161 70.8377 157.161 70.4265C157.161 69.8842 157.03 69.3759 156.768 68.9014C156.51 68.4269 156.153 68.0428 155.697 67.7491C155.245 67.4554 154.73 67.3085 154.151 67.3085ZM166.089 80.0785C165.158 80.0785 164.336 79.9135 163.622 79.5837C162.913 79.2493 162.359 78.7906 161.961 78.2077C161.564 77.6203 161.367 76.9515 161.372 76.2014C161.367 75.614 161.482 75.0717 161.717 74.5746C161.952 74.0731 162.273 73.6551 162.68 73.3207C163.091 72.9818 163.55 72.7672 164.056 72.6768V72.5954C163.392 72.4237 162.863 72.0509 162.47 71.4771C162.077 70.8987 161.882 70.2412 161.887 69.5046C161.882 68.7997 162.061 68.1694 162.422 67.6136C162.784 67.0577 163.281 66.6194 163.913 66.2986C164.551 65.9778 165.276 65.8174 166.089 65.8174C166.894 65.8174 167.612 65.9778 168.245 66.2986C168.877 66.6194 169.374 67.0577 169.736 67.6136C170.102 68.1694 170.287 68.7997 170.292 69.5046C170.287 70.2412 170.086 70.8987 169.688 71.4771C169.295 72.0509 168.773 72.4237 168.123 72.5954V72.6768C168.624 72.7672 169.076 72.9818 169.478 73.3207C169.88 73.6551 170.201 74.0731 170.441 74.5746C170.68 75.0717 170.802 75.614 170.807 76.2014C170.802 76.9515 170.599 77.6203 170.197 78.2077C169.799 78.7906 169.246 79.2493 168.536 79.5837C167.831 79.9135 167.016 80.0785 166.089 80.0785ZM166.089 78.5873C166.717 78.5873 167.26 78.4856 167.716 78.2823C168.172 78.0789 168.525 77.792 168.773 77.4214C169.022 77.0509 169.148 76.6171 169.153 76.1201C169.148 75.5959 169.013 75.1327 168.746 74.7305C168.48 74.3284 168.116 74.0121 167.655 73.7816C167.199 73.5512 166.677 73.4359 166.089 73.4359C165.497 73.4359 164.969 73.5512 164.503 73.7816C164.042 74.0121 163.678 74.3284 163.412 74.7305C163.15 75.1327 163.021 75.5959 163.026 76.1201C163.021 76.6171 163.141 77.0509 163.385 77.4214C163.633 77.792 163.988 78.0789 164.449 78.2823C164.91 78.4856 165.457 78.5873 166.089 78.5873ZM166.089 71.999C166.586 71.999 167.027 71.8996 167.411 71.7007C167.8 71.5019 168.105 71.224 168.326 70.867C168.547 70.5101 168.66 70.0921 168.665 69.6131C168.66 69.1431 168.55 68.7342 168.333 68.3863C168.116 68.0338 167.815 67.7627 167.431 67.5729C167.047 67.3786 166.6 67.2814 166.089 67.2814C165.57 67.2814 165.115 67.3786 164.727 67.5729C164.338 67.7627 164.038 68.0338 163.825 68.3863C163.613 68.7342 163.509 69.1431 163.514 69.6131C163.509 70.0921 163.615 70.5101 163.832 70.867C164.054 71.224 164.359 71.5019 164.747 71.7007C165.136 71.8996 165.583 71.999 166.089 71.999Z" fill="white"/>
<path d="M100.798 54.0012L101.398 42.7012H70.998L71.698 54.0012H100.798Z" fill="white"/>
<path d="M72.7988 75.6016L73.2988 84.5016C73.4988 87.8016 76.0988 90.3016 79.2988 90.3016H93.0988C96.2988 90.3016 98.8988 87.7016 99.0988 84.5016L99.5988 75.6016H72.7988Z" fill="white"/>
<path d="M103.998 40.2012H67.898C67.098 40.2012 66.498 39.6012 66.498 38.8012V38.6012C66.498 37.8012 67.098 37.2012 67.898 37.2012H103.998C104.798 37.2012 105.398 37.8012 105.398 38.6012V38.8012C105.398 39.5012 104.798 40.2012 103.998 40.2012Z" fill="white"/>
<path d="M70.6973 34.6004H101.597V33.0005C101.597 31.7005 100.597 30.7004 99.3973 30.6004L73.3973 28.5005C71.9973 28.4005 70.7973 29.5005 70.7973 30.9005C70.6973 32.7005 70.6973 34.7004 70.6973 34.6004Z" fill="white"/>
<path d="M85.8973 71.2008C89.5976 71.2008 92.5973 68.2011 92.5973 64.5008C92.5973 60.8005 89.5976 57.8008 85.8973 57.8008C82.197 57.8008 79.1973 60.8005 79.1973 64.5008C79.1973 68.2011 82.197 71.2008 85.8973 71.2008Z" fill="white"/>
<path d="M153.298 93.5C144.598 122.3 117.798 143.3 86.1981 143.3C54.5981 143.3 27.798 122.3 19.098 93.5H15.998C24.798 123.9 52.9981 146.3 86.1981 146.3C119.498 146.3 147.598 124 156.398 93.5H153.298Z" fill="white"/>
<path d="M18.9984 53.1C27.5984 24.1 54.4984 3 86.1984 3C117.898 3 144.798 24.2 153.398 53.1H156.498C147.798 22.5 119.598 0 86.1984 0C52.7984 0 24.5984 22.5 15.8984 53.1H18.9984Z" fill="white"/>
<path d="M144.1 93.502C135.7 117.402 112.9 134.502 86.1996 134.502C59.4996 134.502 36.6996 117.302 28.2996 93.502H24.0996C32.6996 119.602 57.2996 138.502 86.1996 138.502C115.2 138.502 139.8 119.602 148.3 93.502H144.1Z" fill="#89503B"/>
<path d="M28.1988 53.1012C36.4988 29.0012 59.3988 11.7012 86.1988 11.7012C113.099 11.7012 135.899 29.0012 144.199 53.1012H148.399C139.899 26.8012 115.199 7.70117 86.0988 7.70117C56.9988 7.70117 32.2988 26.8012 23.7988 53.1012H28.1988Z" fill="#89503B"/>
<path d="M137.598 154.2C136.998 154.2 136.398 154 135.898 153.7C122.298 144.2 104.498 138.9 85.6977 138.9C66.8977 138.9 49.0977 144.2 35.4977 153.7C34.9977 154.1 34.3977 154.2 33.7977 154.2C32.9977 154.2 32.2977 153.9 31.6977 153.3L27.3977 149C25.6977 150 23.6977 150.5 21.6977 150.5C15.2977 150.5 10.0977 145.3 10.0977 138.9C10.0977 136.9 10.5977 134.9 11.5977 133.2L7.99766 129.6C7.39766 129 7.09766 128.2 7.09766 127.3C7.19766 126.4 7.59766 125.7 8.19766 125.1C29.0977 108.6 56.5977 99.5 85.5977 99.5C114.598 99.5 142.098 108.6 162.998 125.1C163.698 125.6 164.098 126.4 164.098 127.3C164.198 128.2 163.798 129 163.198 129.6L159.498 133.3C160.498 135 160.998 137 160.998 139C160.998 145.4 155.798 150.6 149.398 150.6C147.398 150.6 145.398 150.1 143.698 149.1L139.498 153.3C139.098 153.9 138.398 154.2 137.598 154.2Z" fill="#0E1728"/>
<path d="M161.298 127.5C140.898 111.4 114.098 102.6 85.6977 102.6C57.2977 102.6 30.4977 111.5 10.0977 127.5L15.5977 133C14.0977 134.5 13.0977 136.7 13.0977 139C13.0977 143.7 16.8977 147.6 21.6977 147.6C23.9977 147.6 26.1977 146.7 27.6977 145.1L33.7977 151.2C62.8977 130.7 108.498 130.7 137.598 151.2L143.698 145.1C145.198 146.6 147.398 147.5 149.698 147.5C154.398 147.5 158.298 143.7 158.298 138.9C158.298 136.6 157.398 134.5 155.898 132.9L161.298 127.5ZM21.6977 141.3C20.3977 141.3 19.3977 140.3 19.3977 139C19.3977 137.7 20.3977 136.7 21.6977 136.7C22.9977 136.7 23.9977 137.7 23.9977 139C23.9977 140.3 22.8977 141.3 21.6977 141.3ZM149.598 141.3C148.298 141.3 147.298 140.3 147.298 139C147.298 137.7 148.298 136.7 149.598 136.7C150.898 136.7 151.898 137.7 151.898 139C151.998 140.3 150.898 141.3 149.598 141.3Z" fill="#89503B"/>
<path d="M31.2984 63.0016H6.59844C5.89844 63.0016 5.39844 62.5016 5.39844 61.8016C5.39844 61.1016 5.89844 60.6016 6.59844 60.6016H31.2984C31.9984 60.6016 32.4984 61.1016 32.4984 61.8016C32.4984 62.5016 31.9984 63.0016 31.2984 63.0016Z" fill="#89503B"/>
<path d="M31.2984 88.4H6.59844C5.89844 88.4 5.39844 87.9 5.39844 87.2C5.39844 86.5 5.89844 86 6.59844 86H31.2984C31.9984 86 32.4984 86.5 32.4984 87.2C32.4984 87.8 31.9984 88.4 31.2984 88.4Z" fill="#89503B"/>
<path d="M161.998 63.0016H137.298C136.598 63.0016 136.098 62.5016 136.098 61.8016C136.098 61.1016 136.598 60.6016 137.298 60.6016H161.998C162.698 60.6016 163.198 61.1016 163.198 61.8016C163.198 62.5016 162.698 63.0016 161.998 63.0016Z" fill="#89503B"/>
<path d="M161.998 88.4H137.298C136.598 88.4 136.098 87.9 136.098 87.2C136.098 86.5 136.598 86 137.298 86H161.998C162.698 86 163.198 86.5 163.198 87.2C163.198 87.8 162.698 88.4 161.998 88.4Z" fill="#89503B"/>
<path d="M40.1616 133.039C40.907 134.149 41.207 135.189 41.0617 136.158C40.9077 137.114 40.3081 137.943 39.2631 138.644C38.218 139.346 37.2239 139.587 36.2806 139.367C35.3286 139.135 34.4799 138.463 33.7346 137.353L28.9467 130.22C28.2014 129.11 27.9057 128.077 28.0598 127.121C28.2051 126.151 28.8002 125.316 29.8453 124.615C30.8903 123.913 31.8889 123.679 32.8409 123.911C33.7841 124.131 34.6284 124.796 35.3738 125.906L36.2682 127.239L34.2304 128.606L33.2439 127.137C32.6388 126.236 31.964 126.035 31.2194 126.535C30.4748 127.034 30.405 127.735 31.0101 128.636L35.982 136.043C36.5783 136.931 37.2488 137.126 37.9934 136.626C38.738 136.126 38.8121 135.432 38.2158 134.544L36.9005 132.584L38.9383 131.216L40.1616 133.039Z" fill="white"/>
<path d="M38.557 124.05C37.9688 122.867 37.8165 121.8 38.1002 120.851C38.384 119.902 39.0964 119.144 40.2377 118.577C41.3789 118.009 42.4135 117.899 43.3414 118.246C44.2694 118.593 45.0274 119.358 45.6156 120.542L49.439 128.235C50.0272 129.418 50.1794 130.484 49.8957 131.434C49.612 132.383 48.8995 133.141 47.7583 133.708C46.617 134.275 45.5825 134.386 44.6545 134.039C43.7266 133.692 42.9685 132.926 42.3803 131.743L38.557 124.05ZM44.7785 130.735C45.2617 131.708 45.9048 131.994 46.7079 131.595C47.511 131.196 47.6709 130.51 47.1878 129.538L43.2174 121.549C42.7342 120.577 42.0911 120.291 41.288 120.69C40.4849 121.089 40.325 121.775 40.8082 122.747L44.7785 130.735Z" fill="white"/>
<path d="M56.1387 120.22L56.9169 122.448L53.7532 123.553L56.0023 129.992L53.5515 130.848L48.1038 115.252L54.5873 112.987L55.3655 115.215L51.3329 116.624L52.9749 121.325L56.1387 120.22Z" fill="white"/>
<path d="M65.6534 117.838L66.1709 120.141L62.9012 120.875L64.3967 127.53L61.8639 128.099L58.2416 111.981L64.9421 110.475L65.4596 112.778L61.2919 113.714L62.3838 118.573L65.6534 117.838Z" fill="white"/>
<path d="M75.6219 116.164L75.8648 118.512L72.3201 118.879L72.8178 123.691L77.278 123.23L77.5208 125.577L70.4784 126.305L68.7788 109.873L75.8212 109.145L76.064 111.492L71.6038 111.953L72.0773 116.531L75.6219 116.164Z" fill="white"/>
<path d="M86.0203 116.058L85.9793 118.418L82.4163 118.356L82.3322 123.193L86.8156 123.271L86.7746 125.631L79.6956 125.508L79.9826 108.99L87.0615 109.113L87.0205 111.473L82.5372 111.395L82.4573 115.996L86.0203 116.058Z" fill="white"/>
<path d="M95.0755 113.925C95.3306 112.612 95.8422 111.67 96.6105 111.098C97.3818 110.51 98.3852 110.337 99.6208 110.577C100.856 110.817 101.722 111.354 102.217 112.187C102.715 113.005 102.837 114.071 102.581 115.383L102.482 115.893L100.073 115.425L100.204 114.753C100.312 114.197 100.282 113.774 100.113 113.485C99.9482 113.181 99.6571 112.988 99.2401 112.907C98.8231 112.826 98.481 112.896 98.2137 113.116C97.9495 113.321 97.7634 113.702 97.6553 114.258C97.5233 114.937 97.5853 115.566 97.8415 116.145C98.1132 116.727 98.5489 117.413 99.1487 118.202C99.643 118.875 100.034 119.464 100.32 119.969C100.61 120.458 100.827 121.029 100.973 121.682C101.118 122.335 101.116 123.048 100.966 123.82C100.711 125.133 100.19 126.082 99.4033 126.666C98.6196 127.235 97.61 127.4 96.3744 127.16C95.1389 126.919 94.2643 126.389 93.7507 125.568C93.24 124.731 93.1123 123.657 93.3674 122.344L93.5609 121.348L95.9703 121.816L95.7452 122.974C95.5411 124.024 95.8793 124.635 96.7596 124.806C97.6399 124.977 98.1821 124.538 98.3862 123.487C98.5183 122.808 98.4485 122.177 98.1768 121.596C97.9206 121.017 97.4926 120.333 96.8928 119.543C96.3985 118.87 96.0065 118.289 95.7169 117.8C95.4302 117.295 95.2142 116.716 95.0687 116.063C94.9231 115.41 94.9254 114.697 95.0755 113.925Z" fill="white"/>
<path d="M102.341 128.264L107.589 112.6L110.051 113.424L107.801 120.138L110.599 121.075L112.848 114.361L115.354 115.201L110.106 130.865L107.6 130.026L109.849 123.313L107.052 122.375L104.803 129.089L102.341 128.264Z" fill="white"/>
<path d="M117.787 120.499C118.373 119.315 119.13 118.548 120.057 118.2C120.985 117.851 122.019 117.96 123.162 118.525C124.304 119.091 125.017 119.848 125.302 120.797C125.588 121.746 125.437 122.812 124.851 123.997L121.039 131.695C120.452 132.879 119.696 133.646 118.768 133.994C117.841 134.343 116.806 134.234 115.664 133.669C114.522 133.103 113.808 132.346 113.523 131.397C113.238 130.448 113.388 129.382 113.975 128.197L117.787 120.499ZM116.228 129.497C115.746 130.47 115.907 131.156 116.711 131.554C117.515 131.952 118.157 131.664 118.639 130.691L122.597 122.697C123.079 121.724 122.918 121.038 122.114 120.64C121.311 120.242 120.668 120.53 120.186 121.503L116.228 129.497Z" fill="white"/>
<path d="M133.828 124.941C134.9 125.66 135.51 126.486 135.66 127.421C135.809 128.355 135.512 129.377 134.766 130.488L133.569 132.271C132.824 133.381 131.99 134.044 131.069 134.259C130.147 134.474 129.151 134.222 128.08 133.503L127.061 132.819L123.602 137.972L121.446 136.525L130.654 122.81L133.828 124.941ZM128.377 130.86L129.395 131.544C129.748 131.781 130.075 131.858 130.377 131.776C130.691 131.703 131.006 131.431 131.322 130.961L132.703 128.904C133.019 128.433 133.151 128.039 133.099 127.72C133.061 127.41 132.866 127.137 132.513 126.9L131.494 126.216L128.377 130.86Z" fill="white"/>
<path d="M140.466 139.027L138.914 140.806L136.229 138.463L133.048 142.109L136.427 145.057L134.876 146.835L129.541 142.181L140.401 129.732L145.736 134.386L144.184 136.165L140.805 133.217L137.78 136.685L140.466 139.027Z" fill="white"/>
</svg>
