<svg width="166" height="159" viewBox="0 0 166 159" fill="none" xmlns="http://www.w3.org/2000/svg">
<path d="M69.4597 105.596C69.0821 106.445 68.5913 107.201 67.9871 107.861C67.3829 108.503 66.7127 109.051 65.9764 109.504C65.2401 109.957 64.4471 110.297 63.5975 110.523C62.7479 110.75 61.8889 110.863 61.0204 110.863C59.1702 110.863 57.7353 110.316 56.7158 109.221C55.6963 108.107 55.1865 106.342 55.1865 103.925C55.1865 103.075 55.2526 102.122 55.3847 101.065C55.5358 99.9884 55.7718 98.9123 56.0927 97.8361C56.4137 96.7411 56.8291 95.6744 57.3388 94.636C57.8486 93.5976 58.4716 92.6725 59.2079 91.8606C59.9442 91.0488 60.8033 90.3974 61.785 89.9065C62.7857 89.4157 63.9185 89.1702 65.1834 89.1702C65.8065 89.1702 66.4012 89.2457 66.9676 89.3968C67.534 89.5289 68.0249 89.7461 68.4402 90.0481C68.8556 90.3502 69.186 90.7467 69.4314 91.2376C69.6769 91.7285 69.7996 92.3232 69.7996 93.0217C69.7996 93.7392 69.6485 94.3433 69.3465 94.8342C69.0444 95.3251 68.5346 95.5705 67.8172 95.5705C67.5906 95.5705 67.3263 95.5328 67.0242 95.4572C66.741 95.3628 66.4673 95.1552 66.2029 94.8342C66.5428 94.6643 66.8449 94.3245 67.1092 93.8147C67.3735 93.2861 67.5057 92.7669 67.5057 92.2571C67.5057 91.7851 67.3735 91.3792 67.1092 91.0393C66.8449 90.6806 66.4389 90.5013 65.8914 90.5013C65.3439 90.5013 64.8153 90.6995 64.3055 91.096C63.7958 91.4736 63.3143 91.9928 62.8612 92.6536C62.427 93.2955 62.021 94.0601 61.6434 94.9475C61.2847 95.816 60.9732 96.7411 60.7089 97.7228C60.4446 98.6857 60.2369 99.6769 60.0858 100.696C59.9537 101.716 59.8876 102.698 59.8876 103.642C59.8876 104.321 59.9348 104.944 60.0292 105.511C60.1236 106.077 60.2935 106.568 60.539 106.983C60.7844 107.399 61.1242 107.72 61.5585 107.946C62.0116 108.173 62.578 108.286 63.2577 108.286C64.3338 108.286 65.3628 108.022 66.3445 107.493C67.3263 106.946 68.1476 106.219 68.8084 105.313L69.4597 105.596ZM76.1103 96.1086C78.4891 96.1086 79.6975 97.5907 79.7352 100.555C79.8107 100.574 79.9146 100.583 80.0467 100.583C80.3677 100.583 80.717 100.536 81.0946 100.442C81.491 100.347 81.8781 100.224 82.2557 100.073C82.6522 99.9035 83.0298 99.7147 83.3885 99.507C83.7661 99.2993 84.1059 99.0916 84.408 98.884L84.6629 99.6486C84.1154 100.234 83.3979 100.734 82.5106 101.15C81.6421 101.546 80.6981 101.829 79.6786 101.999C79.5653 103.321 79.3104 104.51 78.9139 105.567C78.5175 106.625 78.0171 107.531 77.413 108.286C76.8088 109.022 76.1197 109.589 75.3456 109.985C74.5716 110.382 73.7503 110.58 72.8818 110.58C72.221 110.58 71.6074 110.505 71.041 110.354C70.4935 110.184 70.0215 109.919 69.625 109.561C69.2285 109.202 68.917 108.739 68.6905 108.173C68.4639 107.606 68.3506 106.917 68.3506 106.106C68.3506 105.558 68.4073 104.935 68.5205 104.236C68.6338 103.538 68.8132 102.82 69.0586 102.084C69.3229 101.329 69.6533 100.602 70.0498 99.9035C70.4463 99.186 70.9277 98.5441 71.4941 97.9777C72.0794 97.4113 72.7496 96.9582 73.5048 96.6184C74.26 96.2785 75.1285 96.1086 76.1103 96.1086ZM74.0146 107.918C74.3544 107.918 74.6943 107.776 75.0341 107.493C75.3928 107.191 75.7138 106.785 75.997 106.275C76.2991 105.747 76.5634 105.124 76.7899 104.406C77.0165 103.689 77.1864 102.915 77.2997 102.084C76.9976 102.009 76.7899 101.867 76.6767 101.659C76.5823 101.433 76.5351 101.178 76.5351 100.895C76.5351 100.498 76.6106 100.177 76.7616 99.9318C76.9315 99.6675 77.1487 99.4881 77.413 99.3937C77.3752 98.8084 77.2714 98.4025 77.1015 98.176C76.9504 97.9305 76.6955 97.8078 76.3368 97.8078C75.8271 97.8078 75.3456 98.091 74.8925 98.6574C74.4394 99.2049 74.0429 99.8846 73.7031 100.696C73.3632 101.489 73.0895 102.339 72.8818 103.245C72.6741 104.133 72.5703 104.926 72.5703 105.624C72.5703 106.096 72.5892 106.483 72.6269 106.785C72.6836 107.068 72.7685 107.295 72.8818 107.465C72.9951 107.635 73.1461 107.758 73.3349 107.833C73.5237 107.89 73.7503 107.918 74.0146 107.918ZM78.6436 117.49C78.2093 117.49 77.794 117.415 77.3975 117.264C77.001 117.131 76.6517 116.924 76.3497 116.641C76.0287 116.376 75.7738 116.055 75.585 115.678C75.3962 115.3 75.3018 114.885 75.3018 114.432C75.3018 113.79 75.434 113.242 75.6983 112.789C75.9437 112.336 76.293 111.949 76.7461 111.628C77.1804 111.326 77.6996 111.062 78.3037 110.835C78.889 110.608 79.5215 110.391 80.2012 110.184L83.5996 94.0129C83.8072 92.9934 84.0999 92.1721 84.4775 91.5491C84.8739 90.9261 85.3082 90.4446 85.7802 90.1048C86.2711 89.7461 86.7714 89.5101 87.2811 89.3968C87.7909 89.2646 88.2818 89.1986 88.7538 89.1986C89.3957 89.1986 89.9904 89.359 90.5379 89.68C91.1043 90.0009 91.5197 90.4352 91.784 90.9827C92.3504 90.2653 92.9829 89.7933 93.6814 89.5667C94.38 89.3213 95.0408 89.1986 95.6638 89.1986C96.0981 89.1986 96.5134 89.2741 96.9099 89.4251C97.3064 89.5573 97.6557 89.7649 97.9577 90.0481C98.2787 90.3125 98.5336 90.6334 98.7224 91.011C98.9112 91.3886 99.0056 91.804 99.0056 92.2571C99.0056 92.6913 98.9773 93.0784 98.9206 93.4182H97.5896C97.6085 93.2672 97.6179 93.135 97.6179 93.0217C97.6368 92.9085 97.6462 92.7857 97.6462 92.6536C97.6462 92.3326 97.5329 92.0966 97.3064 91.9456C97.0987 91.7757 96.8533 91.6907 96.5701 91.6907C96.419 91.6907 96.2491 91.719 96.0603 91.7757C95.8904 91.8323 95.711 91.9456 95.5222 92.1155C95.3523 92.2665 95.1918 92.4931 95.0408 92.7952C94.8898 93.0784 94.7576 93.456 94.6443 93.928L94.1346 96.2502H96.9665L96.7117 97.383H93.908L90.7078 112.676C90.5002 113.695 90.1981 114.517 89.8016 115.14C89.424 115.763 88.9898 116.244 88.4989 116.584C88.0269 116.943 87.536 117.179 87.0263 117.292C86.5165 117.424 86.0256 117.49 85.5536 117.49C84.7418 117.49 84.081 117.33 83.5712 117.009C83.0804 116.688 82.7216 116.253 82.4951 115.706C81.9476 116.423 81.3245 116.895 80.626 117.122C79.9274 117.367 79.2666 117.49 78.6436 117.49ZM84.4775 109.362L87.3944 108.853L89.8016 97.383H86.9979L84.4775 109.362ZM83.2597 114.403C83.3919 114.63 83.5996 114.781 83.8828 114.856C84.1848 114.932 84.5247 114.97 84.9023 114.97C85.2043 114.97 85.5064 114.809 85.8085 114.488C86.1295 114.186 86.3843 113.61 86.5731 112.761L87.2528 109.532L84.3359 110.07L83.7978 112.676C83.7223 112.997 83.6373 113.299 83.5429 113.582C83.4485 113.884 83.3541 114.158 83.2597 114.403ZM90.7362 92.6536C90.7362 92.3326 90.6229 92.0966 90.3963 91.9456C90.1886 91.7757 89.9432 91.6907 89.66 91.6907C89.509 91.6907 89.3391 91.719 89.1503 91.7757C88.9803 91.8323 88.801 91.9456 88.6122 92.1155C88.4423 92.2665 88.2818 92.4931 88.1307 92.7952C87.9797 93.0784 87.8475 93.456 87.7343 93.928L87.2245 96.2502H90.0282L90.6795 93.2766C90.7173 93.1633 90.7362 93.0595 90.7362 92.9651C90.7362 92.8707 90.7362 92.7669 90.7362 92.6536ZM77.0293 114.035C77.0293 114.243 77.1426 114.45 77.3692 114.658C77.5769 114.866 77.8412 114.97 78.1621 114.97C78.4642 114.97 78.7757 114.809 79.0967 114.488C79.3988 114.186 79.6442 113.61 79.833 112.761L80.1728 111.118C79.7197 111.269 79.3044 111.43 78.9268 111.6C78.5492 111.788 78.2188 111.996 77.9356 112.223C77.6524 112.449 77.4353 112.714 77.2842 113.016C77.1143 113.318 77.0293 113.658 77.0293 114.035ZM99.5074 105.822C99.5074 106.785 99.6773 107.427 100.017 107.748C100.357 108.05 100.867 108.201 101.546 108.201C102.113 108.201 102.623 108.126 103.076 107.975C103.529 107.824 103.954 107.625 104.35 107.38C104.747 107.116 105.124 106.814 105.483 106.474C105.842 106.115 106.2 105.737 106.559 105.341H107.522C107.125 106.002 106.672 106.644 106.163 107.267C105.653 107.89 105.077 108.447 104.435 108.938C103.793 109.428 103.085 109.825 102.311 110.127C101.537 110.429 100.678 110.58 99.7339 110.58C98.3935 110.58 97.3173 110.231 96.5055 109.532C95.7125 108.834 95.316 107.682 95.316 106.077C95.316 105.53 95.3727 104.907 95.4859 104.208C95.5992 103.51 95.7691 102.792 95.9957 102.056C96.2411 101.319 96.5621 100.602 96.9586 99.9035C97.3551 99.186 97.8365 98.5441 98.4029 97.9777C98.9693 97.4113 99.6301 96.9582 100.385 96.6184C101.14 96.2785 102 96.1086 102.962 96.1086C103.585 96.1086 104.095 96.1841 104.492 96.3352C104.907 96.4862 105.228 96.6939 105.455 96.9582C105.7 97.2036 105.86 97.4868 105.936 97.8078C106.03 98.1288 106.078 98.4686 106.078 98.8273C106.078 99.6203 105.898 100.366 105.54 101.065C105.181 101.763 104.699 102.377 104.095 102.905C103.491 103.415 102.792 103.83 102 104.151C101.225 104.454 100.414 104.633 99.564 104.69C99.5451 104.897 99.5262 105.095 99.5074 105.284C99.5074 105.473 99.5074 105.652 99.5074 105.822ZM103.897 98.7707C103.897 98.412 103.84 98.1288 103.727 97.9211C103.633 97.7134 103.453 97.6096 103.189 97.6096C102.83 97.6096 102.481 97.7795 102.141 98.1193C101.801 98.4592 101.48 98.9028 101.178 99.4504C100.876 99.979 100.602 100.583 100.357 101.263C100.13 101.943 99.9416 102.632 99.7906 103.33C100.338 103.292 100.857 103.141 101.348 102.877C101.858 102.613 102.302 102.273 102.679 101.858C103.057 101.442 103.349 100.97 103.557 100.442C103.784 99.894 103.897 99.3371 103.897 98.7707ZM110.405 104.69C110.386 104.841 110.367 104.992 110.348 105.143C110.348 105.275 110.348 105.416 110.348 105.567C110.348 105.851 110.367 106.134 110.405 106.417C110.461 106.681 110.556 106.927 110.688 107.153C110.82 107.38 110.999 107.559 111.226 107.691C111.452 107.824 111.745 107.89 112.104 107.89C112.651 107.89 113.227 107.739 113.831 107.437C114.454 107.134 114.992 106.785 115.446 106.389C115.294 107.201 115.058 107.88 114.738 108.428C114.435 108.956 114.067 109.381 113.633 109.702C113.199 110.023 112.717 110.25 112.189 110.382C111.66 110.514 111.113 110.58 110.546 110.58C109.225 110.58 108.158 110.231 107.346 109.532C106.553 108.834 106.157 107.682 106.157 106.077C106.157 105.53 106.213 104.907 106.326 104.208C106.44 103.51 106.61 102.792 106.836 102.056C107.082 101.319 107.403 100.602 107.799 99.9035C108.196 99.186 108.677 98.5441 109.243 97.9777C109.81 97.4113 110.471 96.9582 111.226 96.6184C111.981 96.2785 112.84 96.1086 113.803 96.1086C114.426 96.1086 114.936 96.1841 115.332 96.3352C115.748 96.4862 116.069 96.6939 116.295 96.9582C116.541 97.2036 116.701 97.4868 116.777 97.8078C116.871 98.1288 116.918 98.4686 116.918 98.8273C116.918 99.6392 116.739 100.394 116.38 101.093C116.021 101.773 115.54 102.377 114.936 102.905C114.332 103.415 113.633 103.83 112.84 104.151C112.066 104.454 111.254 104.633 110.405 104.69ZM114.738 98.7707C114.738 98.412 114.681 98.1288 114.568 97.9211C114.473 97.7134 114.294 97.6096 114.03 97.6096C113.671 97.6096 113.322 97.7889 112.982 98.1476C112.642 98.4875 112.321 98.9312 112.019 99.4787C111.717 100.026 111.443 100.64 111.198 101.319C110.952 101.999 110.754 102.669 110.603 103.33C111.15 103.311 111.67 103.17 112.16 102.905C112.67 102.641 113.114 102.301 113.491 101.886C113.869 101.471 114.171 100.999 114.398 100.47C114.624 99.9224 114.738 99.356 114.738 98.7707Z" fill="white"/>
<path d="M82.9109 140.447C120.024 140.447 150.111 110.36 150.111 73.2469C150.111 36.1333 120.024 6.04688 82.9109 6.04688C45.7974 6.04688 15.7109 36.1333 15.7109 73.2469C15.7109 110.36 45.7974 140.447 82.9109 140.447Z" stroke="#89503B" stroke-miterlimit="10"/>
<path d="M82.9106 144.846C122.454 144.846 154.511 112.79 154.511 73.2465C154.511 33.7029 122.454 1.64648 82.9106 1.64648C43.367 1.64648 11.3105 33.7029 11.3105 73.2465C11.3105 112.79 43.367 144.846 82.9106 144.846Z" stroke="white" stroke-width="3" stroke-miterlimit="10"/>
<path fill-rule="evenodd" clip-rule="evenodd" d="M147.111 75.7469C146.611 75.7469 146.311 75.3469 146.311 74.8469C146.311 74.3469 146.711 74.0469 147.211 74.0469C147.711 74.0469 148.011 74.4469 148.011 74.9469C148.011 75.4469 147.611 75.7469 147.111 75.7469Z" fill="white"/>
<path fill-rule="evenodd" clip-rule="evenodd" d="M146.911 79.0457C146.411 79.0457 146.111 78.5457 146.111 78.1457C146.111 77.6457 146.511 77.3457 147.011 77.3457C147.511 77.3457 147.811 77.7457 147.811 78.2457C147.811 78.6457 147.411 79.0457 146.911 79.0457Z" fill="white"/>
<path fill-rule="evenodd" clip-rule="evenodd" d="M146.612 82.2465C146.112 82.1465 145.812 81.7465 145.912 81.2465C146.012 80.7465 146.412 80.4465 146.912 80.5465C147.412 80.6465 147.712 81.0465 147.612 81.5465C147.412 81.9465 147.012 82.3465 146.612 82.2465Z" fill="white"/>
<path fill-rule="evenodd" clip-rule="evenodd" d="M146.01 85.4457C145.51 85.3457 145.21 84.9457 145.31 84.4457C145.41 83.9457 145.81 83.6457 146.31 83.7457C146.81 83.8457 147.11 84.2457 147.01 84.7457C146.91 85.2457 146.51 85.5457 146.01 85.4457Z" fill="white"/>
<path fill-rule="evenodd" clip-rule="evenodd" d="M145.311 88.6465C144.811 88.5465 144.611 88.0465 144.711 87.6465C144.811 87.1465 145.311 86.9465 145.711 87.0465C146.211 87.1465 146.411 87.6465 146.311 88.0465C146.211 88.4465 145.811 88.7465 145.311 88.6465Z" fill="white"/>
<path fill-rule="evenodd" clip-rule="evenodd" d="M144.512 91.7467C144.012 91.6467 143.812 91.1467 143.912 90.6467C144.012 90.2467 144.512 89.9467 145.012 90.0467C145.512 90.1467 145.712 90.6467 145.612 91.1467C145.412 91.6467 144.912 91.9467 144.512 91.7467Z" fill="white"/>
<path fill-rule="evenodd" clip-rule="evenodd" d="M143.511 94.8473C143.111 94.6473 142.811 94.2473 143.011 93.7473C143.111 93.3473 143.611 93.0473 144.111 93.2473C144.511 93.3473 144.811 93.8473 144.611 94.3473C144.411 94.7473 143.911 95.0473 143.511 94.8473Z" fill="white"/>
<path fill-rule="evenodd" clip-rule="evenodd" d="M142.311 97.9477C141.911 97.7477 141.711 97.2477 141.811 96.8477C142.011 96.4477 142.511 96.2477 142.911 96.3477C143.311 96.5477 143.611 97.0477 143.411 97.4477C143.211 97.8477 142.711 98.0477 142.311 97.9477Z" fill="white"/>
<path fill-rule="evenodd" clip-rule="evenodd" d="M141.012 100.848C140.612 100.648 140.412 100.148 140.612 99.748C140.812 99.348 141.312 99.148 141.712 99.348C142.112 99.548 142.312 100.048 142.112 100.448C141.912 100.948 141.412 101.048 141.012 100.848Z" fill="white"/>
<path fill-rule="evenodd" clip-rule="evenodd" d="M139.512 103.745C139.112 103.545 138.912 103.045 139.112 102.545C139.312 102.145 139.812 101.945 140.212 102.145C140.612 102.345 140.812 102.845 140.612 103.345C140.412 103.845 139.912 104.045 139.512 103.745Z" fill="white"/>
<path fill-rule="evenodd" clip-rule="evenodd" d="M137.912 106.647C137.512 106.447 137.412 105.847 137.612 105.447C137.812 105.047 138.412 104.947 138.812 105.147C139.212 105.347 139.312 105.947 139.112 106.347C138.812 106.747 138.312 106.847 137.912 106.647Z" fill="white"/>
<path fill-rule="evenodd" clip-rule="evenodd" d="M136.111 109.348C135.711 109.048 135.611 108.548 135.911 108.148C136.211 107.748 136.711 107.648 137.111 107.948C137.511 108.248 137.611 108.748 137.411 109.148C137.011 109.548 136.511 109.648 136.111 109.348Z" fill="white"/>
<path fill-rule="evenodd" clip-rule="evenodd" d="M134.21 112.047C133.81 111.747 133.81 111.247 134.01 110.847C134.31 110.447 134.81 110.347 135.21 110.647C135.61 110.947 135.71 111.447 135.41 111.847C135.11 112.247 134.61 112.247 134.21 112.047Z" fill="white"/>
<path fill-rule="evenodd" clip-rule="evenodd" d="M132.21 114.547C131.81 114.247 131.81 113.747 132.11 113.347C132.41 112.947 132.91 112.947 133.31 113.247C133.71 113.547 133.71 114.047 133.41 114.447C133.11 114.847 132.51 114.847 132.21 114.547Z" fill="white"/>
<path fill-rule="evenodd" clip-rule="evenodd" d="M130.01 116.947C129.71 116.647 129.61 116.147 130.01 115.747C130.31 115.347 130.81 115.347 131.21 115.647C131.61 115.947 131.61 116.547 131.31 116.847C130.91 117.247 130.41 117.347 130.01 116.947Z" fill="white"/>
<path fill-rule="evenodd" clip-rule="evenodd" d="M127.711 119.347C127.411 119.047 127.411 118.447 127.711 118.147C128.011 117.847 128.611 117.847 128.911 118.147C129.211 118.447 129.211 119.047 128.911 119.347C128.611 119.647 128.111 119.647 127.711 119.347Z" fill="white"/>
<path fill-rule="evenodd" clip-rule="evenodd" d="M125.311 121.546C125.011 121.146 125.012 120.646 125.412 120.346C125.712 120.046 126.312 120.046 126.612 120.346C126.912 120.646 126.912 121.246 126.512 121.546C126.212 121.946 125.711 121.846 125.311 121.546Z" fill="white"/>
<path fill-rule="evenodd" clip-rule="evenodd" d="M122.81 123.646C122.51 123.246 122.61 122.746 122.91 122.446C123.31 122.146 123.81 122.146 124.11 122.546C124.41 122.946 124.41 123.446 124.01 123.746C123.71 124.046 123.11 123.946 122.81 123.646Z" fill="white"/>
<path fill-rule="evenodd" clip-rule="evenodd" d="M120.212 125.546C119.912 125.146 120.012 124.646 120.412 124.346C120.812 124.046 121.312 124.146 121.612 124.546C121.912 124.946 121.812 125.446 121.412 125.746C121.112 126.046 120.512 125.946 120.212 125.546Z" fill="white"/>
<path fill-rule="evenodd" clip-rule="evenodd" d="M117.611 127.447C117.311 127.047 117.511 126.547 117.811 126.247C118.211 126.047 118.711 126.147 119.011 126.447C119.311 126.847 119.211 127.347 118.811 127.647C118.311 127.947 117.811 127.847 117.611 127.447Z" fill="white"/>
<path fill-rule="evenodd" clip-rule="evenodd" d="M114.811 129.046C114.611 128.646 114.711 128.146 115.111 127.846C115.511 127.646 116.011 127.746 116.311 128.146C116.511 128.546 116.411 129.046 116.011 129.346C115.511 129.646 115.011 129.546 114.811 129.046Z" fill="white"/>
<path fill-rule="evenodd" clip-rule="evenodd" d="M111.91 130.647C111.71 130.247 111.91 129.747 112.31 129.547C112.71 129.347 113.21 129.547 113.51 129.947C113.71 130.347 113.611 130.847 113.111 131.047C112.611 131.247 112.11 131.047 111.91 130.647Z" fill="white"/>
<path fill-rule="evenodd" clip-rule="evenodd" d="M109.012 132.048C108.812 131.648 109.012 131.148 109.412 130.948C109.812 130.748 110.312 130.948 110.512 131.348C110.712 131.748 110.512 132.248 110.112 132.448C109.712 132.648 109.212 132.448 109.012 132.048Z" fill="white"/>
<path fill-rule="evenodd" clip-rule="evenodd" d="M106.012 133.245C105.812 132.845 106.012 132.345 106.512 132.145C106.912 131.945 107.412 132.145 107.612 132.645C107.812 133.045 107.612 133.545 107.112 133.745C106.612 133.945 106.112 133.745 106.012 133.245Z" fill="white"/>
<path fill-rule="evenodd" clip-rule="evenodd" d="M102.912 134.346C102.812 133.946 103.012 133.446 103.412 133.246C103.812 133.146 104.312 133.346 104.512 133.746C104.712 134.146 104.412 134.646 104.012 134.846C103.512 135.046 103.012 134.846 102.912 134.346Z" fill="white"/>
<path fill-rule="evenodd" clip-rule="evenodd" d="M99.8102 135.348C99.7102 134.848 99.9102 134.448 100.41 134.248C100.81 134.148 101.31 134.348 101.51 134.848C101.61 135.248 101.41 135.748 100.91 135.948C100.41 136.048 99.9102 135.748 99.8102 135.348Z" fill="white"/>
<path fill-rule="evenodd" clip-rule="evenodd" d="M96.6092 136.045C96.5092 135.545 96.8092 135.145 97.2092 135.045C97.7092 134.945 98.1092 135.245 98.2092 135.645C98.3092 136.145 98.0092 136.545 97.6092 136.645C97.2092 136.845 96.7092 136.545 96.6092 136.045Z" fill="white"/>
<path fill-rule="evenodd" clip-rule="evenodd" d="M93.4098 136.646C93.3098 136.146 93.6098 135.746 94.1098 135.646C94.6098 135.546 95.0098 135.846 95.1098 136.346C95.2098 136.846 94.9098 137.246 94.4098 137.346C93.9098 137.446 93.5098 137.146 93.4098 136.646Z" fill="white"/>
<path fill-rule="evenodd" clip-rule="evenodd" d="M90.2109 137.146C90.1109 136.646 90.5109 136.246 90.9109 136.146C91.4109 136.046 91.8109 136.446 91.9109 136.846C92.0109 137.346 91.6109 137.746 91.2109 137.846C90.7109 137.946 90.2109 137.646 90.2109 137.146Z" fill="white"/>
<path fill-rule="evenodd" clip-rule="evenodd" d="M86.9102 137.447C86.9102 136.947 87.2101 136.547 87.7101 136.547C88.2101 136.547 88.6102 136.847 88.6102 137.347C88.6102 137.847 88.3102 138.247 87.8102 138.247C87.4102 138.247 87.0102 137.847 86.9102 137.447Z" fill="white"/>
<path fill-rule="evenodd" clip-rule="evenodd" d="M83.7109 137.546C83.7109 137.046 84.111 136.646 84.511 136.646C85.011 136.646 85.4109 137.046 85.4109 137.446C85.4109 137.946 85.011 138.346 84.611 138.346C84.111 138.346 83.7109 138.046 83.7109 137.546Z" fill="white"/>
<path fill-rule="evenodd" clip-rule="evenodd" d="M80.4102 137.446C80.4102 136.946 80.8102 136.646 81.3102 136.646C81.8102 136.646 82.1102 137.046 82.1102 137.546C82.1102 138.046 81.7101 138.346 81.2101 138.346C80.8101 138.346 80.4102 137.946 80.4102 137.446Z" fill="white"/>
<path fill-rule="evenodd" clip-rule="evenodd" d="M77.2107 137.247C77.2107 136.747 77.7108 136.447 78.1108 136.447C78.6108 136.447 78.9108 136.847 78.9108 137.347C78.9108 137.847 78.5108 138.147 78.0108 138.147C77.5108 138.147 77.1107 137.747 77.2107 137.247Z" fill="white"/>
<path fill-rule="evenodd" clip-rule="evenodd" d="M73.9102 136.948C74.0102 136.448 74.4102 136.148 74.9102 136.248C75.4102 136.348 75.7102 136.748 75.6102 137.248C75.5102 137.748 75.1102 138.048 74.6102 137.948C74.2102 137.848 73.9102 137.348 73.9102 136.948Z" fill="white"/>
<path fill-rule="evenodd" clip-rule="evenodd" d="M70.7106 136.346C70.8106 135.846 71.2106 135.546 71.7106 135.646C72.2106 135.746 72.5106 136.146 72.4106 136.646C72.3106 137.146 71.9106 137.446 71.4106 137.346C70.9106 137.246 70.6106 136.846 70.7106 136.346Z" fill="white"/>
<path fill-rule="evenodd" clip-rule="evenodd" d="M67.5096 135.646C67.6096 135.146 68.1096 134.946 68.5096 135.046C69.0096 135.146 69.2096 135.646 69.1096 136.046C69.0096 136.546 68.5096 136.746 68.1096 136.646C67.7096 136.646 67.4096 136.146 67.5096 135.646Z" fill="white"/>
<path fill-rule="evenodd" clip-rule="evenodd" d="M64.4117 134.848C64.5117 134.348 65.0117 134.148 65.5117 134.248C65.9117 134.348 66.2117 134.848 66.1117 135.348C66.0117 135.848 65.5117 136.048 65.0117 135.948C64.5117 135.748 64.3117 135.248 64.4117 134.848Z" fill="white"/>
<path fill-rule="evenodd" clip-rule="evenodd" d="M61.3098 133.847C61.5098 133.447 61.9098 133.147 62.4098 133.347C62.8098 133.447 63.1098 133.947 62.9098 134.447C62.8098 134.847 62.3098 135.147 61.8098 134.947C61.4098 134.747 61.1098 134.247 61.3098 133.847Z" fill="white"/>
<path fill-rule="evenodd" clip-rule="evenodd" d="M58.311 132.647C58.511 132.247 59.011 132.047 59.411 132.147C59.811 132.347 60.011 132.847 59.911 133.247C59.711 133.647 59.211 133.947 58.811 133.747C58.311 133.547 58.111 133.047 58.311 132.647Z" fill="white"/>
<path fill-rule="evenodd" clip-rule="evenodd" d="M55.3109 131.348C55.5109 130.948 56.0109 130.748 56.4109 130.948C56.8109 131.148 57.0109 131.648 56.8109 132.048C56.6109 132.448 56.1109 132.648 55.7109 132.448C55.3109 132.248 55.1109 131.748 55.3109 131.348Z" fill="white"/>
<path fill-rule="evenodd" clip-rule="evenodd" d="M52.4091 129.846C52.6091 129.446 53.1091 129.246 53.6091 129.446C54.0091 129.646 54.2091 130.146 54.0091 130.546C53.8091 130.946 53.3091 131.146 52.8091 130.946C52.3091 130.746 52.2091 130.246 52.4091 129.846Z" fill="white"/>
<path fill-rule="evenodd" clip-rule="evenodd" d="M49.6121 128.248C49.8121 127.848 50.4121 127.748 50.8121 127.948C51.2121 128.148 51.3121 128.748 51.1121 129.148C50.9121 129.548 50.3121 129.648 49.9121 129.448C49.4121 129.148 49.3121 128.648 49.6121 128.248Z" fill="white"/>
<path fill-rule="evenodd" clip-rule="evenodd" d="M46.8105 126.447C47.1105 126.047 47.6105 125.947 48.0105 126.247C48.4105 126.547 48.5105 127.047 48.2105 127.447C47.9105 127.847 47.4105 127.947 47.0105 127.747C46.7105 127.447 46.5105 126.847 46.8105 126.447Z" fill="white"/>
<path fill-rule="evenodd" clip-rule="evenodd" d="M44.2115 124.546C44.5115 124.146 45.0116 124.146 45.4116 124.346C45.8116 124.646 45.9116 125.146 45.6116 125.546C45.3116 125.946 44.8116 126.046 44.4116 125.746C44.0116 125.446 43.9115 124.946 44.2115 124.546Z" fill="white"/>
<path fill-rule="evenodd" clip-rule="evenodd" d="M41.6108 122.546C41.9108 122.146 42.4108 122.146 42.8108 122.446C43.2108 122.746 43.2108 123.246 42.9108 123.646C42.6108 124.046 42.1108 124.046 41.7108 123.746C41.4108 123.446 41.3108 122.846 41.6108 122.546Z" fill="white"/>
<path fill-rule="evenodd" clip-rule="evenodd" d="M39.2099 120.346C39.5099 120.046 40.0099 119.946 40.4099 120.346C40.8099 120.646 40.81 121.146 40.51 121.546C40.21 121.946 39.6099 121.946 39.3099 121.646C38.9099 121.246 38.9099 120.746 39.2099 120.346Z" fill="white"/>
<path fill-rule="evenodd" clip-rule="evenodd" d="M36.9113 118.147C37.2113 117.847 37.8113 117.847 38.1113 118.147C38.4113 118.447 38.4113 119.047 38.1113 119.347C37.8113 119.647 37.2113 119.647 36.9113 119.347C36.5113 118.947 36.5113 118.447 36.9113 118.147Z" fill="white"/>
<path fill-rule="evenodd" clip-rule="evenodd" d="M34.6098 115.747C35.0098 115.447 35.5097 115.447 35.8097 115.847C36.1097 116.147 36.1097 116.747 35.8097 117.047C35.5097 117.347 34.9098 117.347 34.6098 116.947C34.3098 116.547 34.3098 116.047 34.6098 115.747Z" fill="white"/>
<path fill-rule="evenodd" clip-rule="evenodd" d="M32.6105 113.246C33.0105 112.946 33.5105 113.046 33.8105 113.346C34.1105 113.746 34.1105 114.246 33.7105 114.546C33.3105 114.846 32.8105 114.846 32.5105 114.446C32.1105 114.046 32.2105 113.546 32.6105 113.246Z" fill="white"/>
<path fill-rule="evenodd" clip-rule="evenodd" d="M30.6108 110.647C31.0108 110.347 31.5108 110.447 31.8108 110.847C32.1108 111.247 32.0108 111.747 31.6108 112.047C31.2108 112.347 30.7108 112.247 30.4108 111.847C30.1108 111.447 30.2108 110.847 30.6108 110.647Z" fill="white"/>
<path fill-rule="evenodd" clip-rule="evenodd" d="M28.8119 107.947C29.2119 107.647 29.7119 107.847 30.0119 108.147C30.2119 108.547 30.1119 109.047 29.8119 109.347C29.4119 109.647 28.9119 109.547 28.6119 109.147C28.3119 108.747 28.4119 108.147 28.8119 107.947Z" fill="white"/>
<path fill-rule="evenodd" clip-rule="evenodd" d="M27.1105 105.147C27.5105 104.947 28.0105 105.047 28.3105 105.447C28.5105 105.847 28.4105 106.347 28.0105 106.647C27.6105 106.847 27.1105 106.747 26.8105 106.347C26.5105 105.847 26.7105 105.347 27.1105 105.147Z" fill="white"/>
<path fill-rule="evenodd" clip-rule="evenodd" d="M25.5097 102.246C25.9097 102.046 26.4097 102.246 26.6097 102.646C26.8097 103.046 26.6097 103.546 26.2097 103.846C25.8097 104.046 25.3097 103.946 25.1097 103.446C24.9097 102.946 25.1097 102.446 25.5097 102.246Z" fill="white"/>
<path fill-rule="evenodd" clip-rule="evenodd" d="M24.1093 99.348C24.5093 99.148 25.0093 99.348 25.2093 99.748C25.4093 100.148 25.2093 100.648 24.8093 100.848C24.4093 101.048 23.9093 100.848 23.7093 100.448C23.5093 100.048 23.7093 99.548 24.1093 99.348Z" fill="white"/>
<path fill-rule="evenodd" clip-rule="evenodd" d="M22.9113 96.3462C23.3113 96.1462 23.8113 96.3462 24.0113 96.8462C24.2113 97.2462 24.0113 97.7462 23.5113 97.9462C23.1113 98.1462 22.6113 97.9462 22.4113 97.4462C22.2113 96.9462 22.5113 96.4462 22.9113 96.3462Z" fill="white"/>
<path fill-rule="evenodd" clip-rule="evenodd" d="M21.8098 93.2481C22.2098 93.1481 22.7098 93.3481 22.9098 93.7481C23.0098 94.1481 22.8098 94.6481 22.4098 94.8481C22.0098 95.0481 21.5098 94.7481 21.3098 94.3481C21.1098 93.8481 21.4098 93.3481 21.8098 93.2481Z" fill="white"/>
<path fill-rule="evenodd" clip-rule="evenodd" d="M20.9107 90.148C21.4107 90.048 21.8107 90.2481 22.0107 90.7481C22.1107 91.1481 21.9107 91.6481 21.4107 91.8481C21.0107 91.9481 20.5107 91.7481 20.3107 91.2481C20.1107 90.7481 20.4107 90.248 20.9107 90.148Z" fill="white"/>
<path fill-rule="evenodd" clip-rule="evenodd" d="M20.1099 86.9452C20.6099 86.8452 21.0099 87.1452 21.1099 87.5452C21.2099 88.0452 20.9099 88.4452 20.5099 88.5452C20.0099 88.6452 19.6099 88.3452 19.5099 87.9452C19.3099 87.5452 19.6099 87.0452 20.1099 86.9452Z" fill="white"/>
<path fill-rule="evenodd" clip-rule="evenodd" d="M19.5121 83.7457C20.0121 83.6457 20.4121 83.9457 20.5121 84.4457C20.6121 84.9457 20.3121 85.3457 19.8121 85.4457C19.3121 85.5457 18.9121 85.2457 18.8121 84.7457C18.7121 84.2457 19.0121 83.8457 19.5121 83.7457Z" fill="white"/>
<path fill-rule="evenodd" clip-rule="evenodd" d="M19.0105 80.5468C19.5105 80.4468 19.9105 80.8468 20.0105 81.2468C20.1105 81.7468 19.7105 82.1468 19.3105 82.2468C18.8105 82.3468 18.4105 81.9468 18.3105 81.5468C18.2105 81.0468 18.6105 80.5468 19.0105 80.5468Z" fill="white"/>
<path fill-rule="evenodd" clip-rule="evenodd" d="M18.8096 77.3457C19.3096 77.3457 19.7095 77.6457 19.7095 78.1457C19.7095 78.6457 19.4096 79.0457 18.9096 79.0457C18.4096 79.0457 18.0096 78.7457 18.0096 78.2457C17.9096 77.7457 18.3096 77.3457 18.8096 77.3457Z" fill="white"/>
<path fill-rule="evenodd" clip-rule="evenodd" d="M18.6106 74.0469C19.1106 74.0469 19.5106 74.4469 19.5106 74.8469C19.5106 75.3469 19.1105 75.7469 18.7105 75.7469C18.2105 75.7469 17.8105 75.3469 17.8105 74.9469C17.8105 74.4469 18.2106 74.0469 18.6106 74.0469Z" fill="white"/>
<path fill-rule="evenodd" clip-rule="evenodd" d="M18.7105 70.7461C19.2105 70.7461 19.5106 71.1461 19.5106 71.6461C19.5106 72.1461 19.1106 72.4461 18.6106 72.4461C18.1106 72.4461 17.8105 72.0461 17.8105 71.5461C17.8105 71.1461 18.2105 70.7461 18.7105 70.7461Z" fill="white"/>
<path fill-rule="evenodd" clip-rule="evenodd" d="M18.9098 67.5467C19.4098 67.5467 19.7097 68.0467 19.7097 68.4467C19.7097 68.9467 19.3098 69.2467 18.8098 69.2467C18.3098 69.2467 18.0098 68.8467 18.0098 68.3467C18.0098 67.8467 18.4098 67.4467 18.9098 67.5467Z" fill="white"/>
<path fill-rule="evenodd" clip-rule="evenodd" d="M19.3102 64.3473C19.8102 64.4473 20.1102 64.8473 20.0102 65.3473C19.9102 65.8473 19.5102 66.1473 19.0102 66.0473C18.5102 65.9473 18.2102 65.5473 18.3102 65.0473C18.4102 64.5473 18.8102 64.2473 19.3102 64.3473Z" fill="white"/>
<path fill-rule="evenodd" clip-rule="evenodd" d="M19.8121 61.0469C20.3121 61.1469 20.6121 61.5469 20.5121 62.0469C20.4121 62.5469 20.0121 62.8469 19.5121 62.7469C19.0121 62.6469 18.7121 62.2469 18.8121 61.7469C18.9121 61.3469 19.3121 61.0469 19.8121 61.0469Z" fill="white"/>
<path fill-rule="evenodd" clip-rule="evenodd" d="M20.5113 57.9455C21.0113 58.0455 21.2113 58.5455 21.1113 58.9455C21.0113 59.4455 20.5113 59.6455 20.1113 59.5455C19.6113 59.4455 19.4113 58.9455 19.5113 58.5455C19.6113 58.0455 20.0113 57.7455 20.5113 57.9455Z" fill="white"/>
<path fill-rule="evenodd" clip-rule="evenodd" d="M21.3106 54.7477C21.8106 54.8477 22.0106 55.3477 21.9106 55.8477C21.8106 56.2477 21.3106 56.5477 20.8106 56.4477C20.3106 56.3477 20.1105 55.8477 20.2105 55.3477C20.4105 54.8477 20.9106 54.6477 21.3106 54.7477Z" fill="white"/>
<path fill-rule="evenodd" clip-rule="evenodd" d="M22.3102 51.6466C22.7102 51.8466 23.0102 52.2466 22.8102 52.7466C22.7102 53.1466 22.2101 53.4466 21.7101 53.2466C21.3101 53.1466 21.0101 52.6466 21.2101 52.1466C21.4101 51.7466 21.9102 51.5466 22.3102 51.6466Z" fill="white"/>
<path fill-rule="evenodd" clip-rule="evenodd" d="M23.5113 48.6457C23.9113 48.8457 24.1113 49.3457 24.0113 49.7457C23.8113 50.1457 23.3113 50.3457 22.9113 50.2457C22.5113 50.0457 22.2113 49.5457 22.4113 49.1457C22.6113 48.7457 23.1113 48.4457 23.5113 48.6457Z" fill="white"/>
<path fill-rule="evenodd" clip-rule="evenodd" d="M24.8093 45.6468C25.2093 45.8468 25.4093 46.3468 25.2093 46.7468C25.0093 47.1468 24.5093 47.3468 24.1093 47.1468C23.7093 46.9468 23.5093 46.4468 23.7093 46.0468C23.9093 45.6468 24.4093 45.4468 24.8093 45.6468Z" fill="white"/>
<path fill-rule="evenodd" clip-rule="evenodd" d="M26.3113 42.745C26.7113 42.945 26.9113 43.445 26.7113 43.945C26.5113 44.345 26.0113 44.545 25.6113 44.345C25.2113 44.145 25.0113 43.645 25.2113 43.145C25.4113 42.645 25.9113 42.545 26.3113 42.745Z" fill="white"/>
<path fill-rule="evenodd" clip-rule="evenodd" d="M27.9113 39.9472C28.3113 40.1472 28.4113 40.7472 28.2113 41.1472C28.0113 41.5472 27.4113 41.6472 27.0113 41.4472C26.6113 41.2472 26.5113 40.6472 26.7113 40.2472C27.0113 39.8472 27.5113 39.6472 27.9113 39.9472Z" fill="white"/>
<path fill-rule="evenodd" clip-rule="evenodd" d="M29.7105 37.147C30.1105 37.447 30.2106 37.947 29.9105 38.347C29.6105 38.747 29.1105 38.847 28.7105 38.547C28.3105 38.247 28.2106 37.747 28.4106 37.347C28.8106 37.047 29.3105 36.947 29.7105 37.147Z" fill="white"/>
<path fill-rule="evenodd" clip-rule="evenodd" d="M31.6108 34.5475C32.0108 34.8475 32.0108 35.3475 31.8108 35.7475C31.5108 36.1475 31.0108 36.2475 30.6108 35.9475C30.2108 35.6475 30.1108 35.1475 30.4108 34.7475C30.7108 34.3475 31.2108 34.2475 31.6108 34.5475Z" fill="white"/>
<path fill-rule="evenodd" clip-rule="evenodd" d="M33.6111 31.9468C34.0111 32.2468 34.0111 32.7468 33.7111 33.1468C33.4111 33.5468 32.9111 33.5468 32.5111 33.2468C32.1111 32.9468 32.1111 32.4468 32.4111 32.0468C32.7111 31.7468 33.3111 31.6468 33.6111 31.9468Z" fill="white"/>
<path fill-rule="evenodd" clip-rule="evenodd" d="M35.8107 29.5459C36.1107 29.8459 36.2107 30.3459 35.8107 30.7459C35.5107 31.1459 35.0107 31.1459 34.6107 30.8459C34.2107 30.5459 34.2107 29.9459 34.5107 29.6459C34.9107 29.2459 35.4107 29.2459 35.8107 29.5459Z" fill="white"/>
<path fill-rule="evenodd" clip-rule="evenodd" d="M38.1106 27.2473C38.4106 27.5473 38.4106 28.1473 38.1106 28.4473C37.8106 28.7473 37.2105 28.7473 36.9105 28.4473C36.6105 28.1473 36.6105 27.5473 36.9105 27.2473C37.2105 26.8473 37.7106 26.8473 38.1106 27.2473Z" fill="white"/>
<path fill-rule="evenodd" clip-rule="evenodd" d="M40.5119 25.0461C40.8119 25.4461 40.8119 25.9461 40.4119 26.2461C40.1119 26.5461 39.5119 26.5461 39.2119 26.2461C38.9119 25.9461 38.9119 25.3461 39.3119 25.0461C39.6119 24.6461 40.1119 24.6461 40.5119 25.0461Z" fill="white"/>
<path fill-rule="evenodd" clip-rule="evenodd" d="M43.0119 22.9464C43.3119 23.3464 43.2119 23.8464 42.9119 24.1464C42.5119 24.4464 42.0119 24.4464 41.7119 24.0464C41.4119 23.6464 41.4119 23.1464 41.8119 22.8464C42.1119 22.4464 42.7119 22.5464 43.0119 22.9464Z" fill="white"/>
<path fill-rule="evenodd" clip-rule="evenodd" d="M45.6116 20.9467C45.9116 21.3467 45.8116 21.8467 45.4116 22.1467C45.0116 22.4467 44.5115 22.3467 44.2115 21.9467C43.9115 21.5467 44.0116 21.0467 44.4116 20.7467C44.7116 20.4467 45.3116 20.5467 45.6116 20.9467Z" fill="white"/>
<path fill-rule="evenodd" clip-rule="evenodd" d="M48.2111 19.1479C48.5111 19.5479 48.3112 20.0479 48.0112 20.3479C47.6112 20.5479 47.1111 20.4479 46.8111 20.1479C46.5111 19.7479 46.6112 19.2479 47.0112 18.9479C47.5112 18.6479 48.0111 18.7479 48.2111 19.1479Z" fill="white"/>
<path fill-rule="evenodd" clip-rule="evenodd" d="M51.0121 17.4469C51.2121 17.8469 51.1121 18.3469 50.7121 18.6469C50.3121 18.8469 49.8121 18.7469 49.5121 18.3469C49.3121 17.9469 49.4121 17.4469 49.8121 17.1469C50.3121 16.9469 50.8121 17.0469 51.0121 17.4469Z" fill="white"/>
<path fill-rule="evenodd" clip-rule="evenodd" d="M53.9095 15.9458C54.1095 16.3458 53.9095 16.8458 53.5095 17.0458C53.1095 17.2458 52.6095 17.0458 52.3095 16.6458C52.1095 16.2458 52.2095 15.7458 52.7095 15.5458C53.2095 15.3458 53.7095 15.4458 53.9095 15.9458Z" fill="white"/>
<path fill-rule="evenodd" clip-rule="evenodd" d="M56.8109 14.5468C57.0109 14.9468 56.8109 15.4468 56.4109 15.6468C56.0109 15.8468 55.5109 15.6468 55.3109 15.2468C55.1109 14.8468 55.3109 14.3468 55.7109 14.1468C56.1109 13.8468 56.7109 14.0468 56.8109 14.5468Z" fill="white"/>
<path fill-rule="evenodd" clip-rule="evenodd" d="M59.911 13.2481C60.111 13.6481 59.911 14.1481 59.411 14.3481C59.011 14.5481 58.511 14.3481 58.311 13.8481C58.111 13.4481 58.311 12.9481 58.811 12.7481C59.211 12.6481 59.711 12.8481 59.911 13.2481Z" fill="white"/>
<path fill-rule="evenodd" clip-rule="evenodd" d="M62.9098 12.1457C63.0098 12.5457 62.8098 13.0457 62.4098 13.2457C62.0098 13.3457 61.5098 13.1457 61.3098 12.7457C61.1098 12.3457 61.4098 11.8457 61.8098 11.6457C62.3098 11.4457 62.8098 11.7457 62.9098 12.1457Z" fill="white"/>
<path fill-rule="evenodd" clip-rule="evenodd" d="M66.0121 11.248C66.1121 11.748 65.9121 12.148 65.4121 12.348C65.0121 12.448 64.5121 12.248 64.3121 11.748C64.2121 11.248 64.4121 10.848 64.9121 10.648C65.4121 10.548 65.9121 10.748 66.0121 11.248Z" fill="white"/>
<path fill-rule="evenodd" clip-rule="evenodd" d="M69.2112 10.4456C69.3112 10.9456 69.0112 11.3456 68.6112 11.4456C68.1112 11.5456 67.7112 11.2456 67.6112 10.8456C67.5112 10.3456 67.8112 9.94555 68.2112 9.84555C68.6112 9.74555 69.1112 10.0456 69.2112 10.4456Z" fill="white"/>
<path fill-rule="evenodd" clip-rule="evenodd" d="M72.4106 9.84611C72.5106 10.3461 72.2106 10.7461 71.7106 10.8461C71.2106 10.9461 70.8106 10.6461 70.7106 10.1461C70.6106 9.64611 70.9106 9.24611 71.4106 9.14611C71.9106 9.04611 72.3106 9.34611 72.4106 9.84611Z" fill="white"/>
<path fill-rule="evenodd" clip-rule="evenodd" d="M75.6101 9.44767C75.7101 9.94767 75.3101 10.3477 74.9101 10.4477C74.4101 10.5477 74.0101 10.1477 73.9101 9.74768C73.8101 9.24768 74.2101 8.84768 74.6101 8.74768C75.1101 8.64768 75.6101 8.94767 75.6101 9.44767Z" fill="white"/>
<path fill-rule="evenodd" clip-rule="evenodd" d="M78.9109 9.14571C78.9109 9.64571 78.611 10.0457 78.111 10.0457C77.611 10.0457 77.2109 9.7457 77.2109 9.2457C77.2109 8.7457 77.511 8.3457 78.011 8.3457C78.411 8.3457 78.8109 8.64571 78.9109 9.14571Z" fill="white"/>
<path fill-rule="evenodd" clip-rule="evenodd" d="M82.1102 9.0459C82.1102 9.5459 81.7102 9.94589 81.3102 9.94589C80.8102 9.94589 80.4102 9.5459 80.4102 9.1459C80.4102 8.6459 80.8101 8.24589 81.2101 8.24589C81.7101 8.14589 82.1102 8.5459 82.1102 9.0459Z" fill="white"/>
<path fill-rule="evenodd" clip-rule="evenodd" d="M85.4109 9.04649C85.4109 9.54649 85.011 9.84648 84.511 9.84648C84.011 9.84648 83.7109 9.44648 83.7109 8.94648C83.7109 8.44648 84.111 8.14648 84.611 8.14648C85.011 8.14648 85.4109 8.54649 85.4109 9.04649Z" fill="white"/>
<path fill-rule="evenodd" clip-rule="evenodd" d="M88.6102 9.2457C88.6102 9.7457 88.1101 10.0457 87.7101 10.0457C87.2101 10.0457 86.9102 9.64571 86.9102 9.14571C86.9102 8.64571 87.3102 8.3457 87.8102 8.3457C88.3102 8.3457 88.7102 8.7457 88.6102 9.2457Z" fill="white"/>
<path fill-rule="evenodd" clip-rule="evenodd" d="M91.9106 9.64611C91.8106 10.1461 91.4106 10.4461 90.9106 10.3461C90.4106 10.2461 90.1106 9.84611 90.2106 9.34611C90.3106 8.84611 90.7106 8.54611 91.2106 8.64611C91.6106 8.74611 91.9106 9.14611 91.9106 9.64611Z" fill="white"/>
<path fill-rule="evenodd" clip-rule="evenodd" d="M95.1098 10.1461C95.0098 10.6461 94.6098 10.9461 94.1098 10.8461C93.6098 10.7461 93.3098 10.3461 93.4098 9.84611C93.5098 9.34611 93.9098 9.04611 94.4098 9.14611C94.9098 9.24611 95.2098 9.64611 95.1098 10.1461Z" fill="white"/>
<path fill-rule="evenodd" clip-rule="evenodd" d="M98.3106 10.8473C98.2106 11.3473 97.7106 11.5473 97.3106 11.4473C96.8106 11.3473 96.6105 10.8473 96.7105 10.4473C96.8105 9.94726 97.3105 9.74727 97.7105 9.84727C98.1105 9.94727 98.4106 10.3473 98.3106 10.8473Z" fill="white"/>
<path fill-rule="evenodd" clip-rule="evenodd" d="M101.409 11.748C101.309 12.248 100.809 12.448 100.309 12.348C99.9088 12.248 99.6088 11.748 99.7088 11.248C99.8088 10.748 100.309 10.548 100.809 10.648C101.309 10.748 101.509 11.248 101.409 11.748Z" fill="white"/>
<path fill-rule="evenodd" clip-rule="evenodd" d="M104.511 12.7457C104.311 13.1457 103.911 13.4457 103.411 13.2457C103.011 13.1457 102.711 12.6457 102.911 12.1457C103.011 11.7457 103.511 11.4457 104.011 11.6457C104.411 11.7457 104.711 12.2457 104.511 12.7457Z" fill="white"/>
<path fill-rule="evenodd" clip-rule="evenodd" d="M107.512 13.8473C107.312 14.2473 106.812 14.4473 106.412 14.3473C106.012 14.1473 105.812 13.6473 105.912 13.2473C106.112 12.8473 106.612 12.5473 107.012 12.7473C107.512 12.9473 107.712 13.4473 107.512 13.8473Z" fill="white"/>
<path fill-rule="evenodd" clip-rule="evenodd" d="M110.512 15.2468C110.312 15.6468 109.812 15.8468 109.412 15.6468C109.012 15.4468 108.812 14.9468 109.012 14.5468C109.212 14.1468 109.712 13.9468 110.112 14.1468C110.512 14.2468 110.712 14.7468 110.512 15.2468Z" fill="white"/>
<path fill-rule="evenodd" clip-rule="evenodd" d="M113.409 16.6472C113.209 17.0472 112.709 17.2472 112.209 17.0472C111.809 16.8472 111.609 16.3472 111.809 15.9472C112.009 15.5472 112.509 15.3472 113.009 15.5472C113.509 15.7472 113.609 16.2472 113.409 16.6472Z" fill="white"/>
<path fill-rule="evenodd" clip-rule="evenodd" d="M116.211 18.3469C116.011 18.7469 115.411 18.8469 115.011 18.6469C114.611 18.4469 114.511 17.8469 114.711 17.4469C114.911 17.0469 115.511 16.9469 115.911 17.1469C116.411 17.3469 116.511 17.9469 116.211 18.3469Z" fill="white"/>
<path fill-rule="evenodd" clip-rule="evenodd" d="M119.012 20.0465C118.712 20.4465 118.212 20.5465 117.812 20.2465C117.412 19.9465 117.312 19.4465 117.612 19.0465C117.912 18.6465 118.412 18.5465 118.812 18.7465C119.112 19.1465 119.312 19.6465 119.012 20.0465Z" fill="white"/>
<path fill-rule="evenodd" clip-rule="evenodd" d="M121.61 21.9467C121.31 22.3467 120.81 22.3467 120.41 22.1467C120.01 21.8467 119.91 21.3467 120.21 20.9467C120.51 20.5467 121.01 20.4467 121.41 20.7467C121.81 21.0467 121.91 21.5467 121.61 21.9467Z" fill="white"/>
<path fill-rule="evenodd" clip-rule="evenodd" d="M124.211 24.0467C123.911 24.4467 123.411 24.4467 123.011 24.1467C122.611 23.8467 122.611 23.3467 122.911 22.9467C123.211 22.5467 123.711 22.5467 124.111 22.8467C124.411 23.0467 124.511 23.6467 124.211 24.0467Z" fill="white"/>
<path fill-rule="evenodd" clip-rule="evenodd" d="M126.612 26.1467C126.312 26.4467 125.812 26.5467 125.412 26.1467C125.012 25.8467 125.011 25.3467 125.311 24.9467C125.611 24.5467 126.212 24.5467 126.512 24.8467C126.912 25.2467 126.912 25.8467 126.612 26.1467Z" fill="white"/>
<path fill-rule="evenodd" clip-rule="evenodd" d="M128.911 28.4465C128.611 28.7465 128.011 28.7465 127.711 28.4465C127.411 28.1465 127.411 27.5465 127.711 27.2465C128.011 26.9465 128.611 26.9465 128.911 27.2465C129.311 27.5465 129.311 28.1465 128.911 28.4465Z" fill="white"/>
<path fill-rule="evenodd" clip-rule="evenodd" d="M131.21 30.8478C130.81 31.1478 130.31 31.1478 130.01 30.7478C129.71 30.4478 129.71 29.8478 130.01 29.5478C130.31 29.2478 130.91 29.2478 131.21 29.6478C131.51 29.9478 131.51 30.5478 131.21 30.8478Z" fill="white"/>
<path fill-rule="evenodd" clip-rule="evenodd" d="M133.211 33.3478C132.811 33.6478 132.311 33.5478 132.011 33.2478C131.711 32.8478 131.711 32.3478 132.111 32.0478C132.511 31.7478 133.011 31.7478 133.311 32.1478C133.711 32.4478 133.611 33.0478 133.211 33.3478Z" fill="white"/>
<path fill-rule="evenodd" clip-rule="evenodd" d="M135.21 35.9475C134.81 36.2475 134.31 36.1475 134.01 35.7475C133.71 35.3475 133.81 34.8475 134.21 34.5475C134.61 34.2475 135.11 34.3475 135.41 34.7475C135.71 35.1475 135.61 35.6475 135.21 35.9475Z" fill="white"/>
<path fill-rule="evenodd" clip-rule="evenodd" d="M137.011 38.6467C136.611 38.9467 136.111 38.7467 135.811 38.4467C135.611 38.0467 135.711 37.5467 136.011 37.2467C136.411 36.9467 136.911 37.0467 137.211 37.4467C137.511 37.8467 137.411 38.3467 137.011 38.6467Z" fill="white"/>
<path fill-rule="evenodd" clip-rule="evenodd" d="M138.712 41.4477C138.312 41.6477 137.812 41.5477 137.512 41.1477C137.312 40.7477 137.412 40.2477 137.812 39.9477C138.212 39.7477 138.712 39.8477 139.012 40.2477C139.312 40.6477 139.112 41.1477 138.712 41.4477Z" fill="white"/>
<path fill-rule="evenodd" clip-rule="evenodd" d="M140.311 44.2454C139.911 44.4454 139.411 44.2454 139.211 43.8454C139.011 43.4454 139.211 42.9454 139.611 42.6454C140.011 42.4454 140.511 42.5454 140.711 43.0454C140.911 43.5454 140.711 44.0454 140.311 44.2454Z" fill="white"/>
<path fill-rule="evenodd" clip-rule="evenodd" d="M141.712 47.2464C141.312 47.4464 140.812 47.2464 140.612 46.8464C140.412 46.4464 140.612 45.9464 141.012 45.7464C141.412 45.5464 141.912 45.7464 142.112 46.1464C142.312 46.5464 142.112 47.0464 141.712 47.2464Z" fill="white"/>
<path fill-rule="evenodd" clip-rule="evenodd" d="M142.909 50.245C142.509 50.445 142.009 50.245 141.809 49.745C141.609 49.345 141.809 48.845 142.309 48.645C142.709 48.445 143.209 48.645 143.409 49.145C143.609 49.645 143.409 50.045 142.909 50.245Z" fill="white"/>
<path fill-rule="evenodd" clip-rule="evenodd" d="M144.011 53.2457C143.611 53.3457 143.111 53.1457 142.911 52.7457C142.711 52.3457 143.011 51.8457 143.411 51.6457C143.811 51.4457 144.311 51.7457 144.511 52.1457C144.711 52.6457 144.511 53.1457 144.011 53.2457Z" fill="white"/>
<path fill-rule="evenodd" clip-rule="evenodd" d="M144.91 56.4477C144.41 56.5477 144.01 56.3477 143.81 55.8477C143.71 55.4477 143.91 54.9477 144.41 54.7477C144.91 54.6477 145.31 54.8477 145.51 55.3477C145.71 55.8477 145.41 56.2477 144.91 56.4477Z" fill="white"/>
<path fill-rule="evenodd" clip-rule="evenodd" d="M145.709 59.5452C145.209 59.6452 144.809 59.3452 144.709 58.9452C144.609 58.4452 144.909 58.0452 145.309 57.9452C145.809 57.8452 146.209 58.1452 146.309 58.5452C146.509 59.0452 146.209 59.4452 145.709 59.5452Z" fill="white"/>
<path fill-rule="evenodd" clip-rule="evenodd" d="M146.31 62.7465C145.81 62.8465 145.41 62.5465 145.31 62.0465C145.21 61.5465 145.51 61.1465 146.01 61.0465C146.51 60.9465 146.91 61.2465 147.01 61.7465C147.11 62.2465 146.81 62.6465 146.31 62.7465Z" fill="white"/>
<path fill-rule="evenodd" clip-rule="evenodd" d="M146.81 65.946C146.31 66.046 145.91 65.646 145.81 65.246C145.71 64.746 146.11 64.346 146.51 64.246C147.01 64.146 147.41 64.546 147.51 64.946C147.61 65.546 147.21 65.946 146.81 65.946Z" fill="white"/>
<path fill-rule="evenodd" clip-rule="evenodd" d="M147.011 69.2469C146.511 69.2469 146.111 68.9469 146.111 68.4469C146.111 67.9469 146.411 67.5469 146.911 67.5469C147.411 67.5469 147.811 67.8469 147.811 68.3469C147.911 68.8469 147.511 69.2469 147.011 69.2469Z" fill="white"/>
<path fill-rule="evenodd" clip-rule="evenodd" d="M147.211 72.4461C146.711 72.4461 146.311 72.0461 146.311 71.6461C146.311 71.1461 146.711 70.7461 147.111 70.7461C147.611 70.7461 148.011 71.1461 148.011 71.5461C148.011 72.1461 147.611 72.4461 147.211 72.4461Z" fill="white"/>
<path d="M64.0117 45.7461V57.7461C64.0117 66.3461 71.0117 73.3461 79.6117 73.3461H85.2117C93.8117 73.3461 100.812 66.3461 100.812 57.7461V45.7461H64.0117Z" fill="white"/>
<path d="M92.2117 80.6465H72.7117C71.5117 80.6465 70.5117 79.6465 70.5117 78.4465V78.3465C70.5117 77.1465 71.5117 76.1465 72.7117 76.1465H92.2117C93.4117 76.1465 94.4117 77.1465 94.4117 78.3465V78.4465C94.4117 79.6465 93.4117 80.6465 92.2117 80.6465Z" fill="white"/>
<path d="M103.711 49.4461C105.611 49.4461 107.211 51.0461 107.211 52.9461C107.211 54.8461 105.611 56.4461 103.711 56.4461H89.8113V49.3461H103.711M103.711 45.7461H86.1113V60.1461H103.711C107.711 60.1461 110.911 56.9461 110.911 52.9461C110.911 49.0461 107.711 45.7461 103.711 45.7461Z" fill="white"/>
<path d="M89.7122 31.7469C86.4122 24.5469 88.9123 20.5469 88.9123 20.5469C88.9123 20.5469 79.5122 23.3469 83.2122 31.0469C86.7122 38.2469 85.9123 43.7469 85.9123 43.7469C85.9123 43.7469 93.0122 39.0469 89.7122 31.7469Z" fill="white"/>
<path d="M80.2126 24.9473C80.2126 24.9473 72.5126 27.2473 75.6126 33.5473C78.5126 39.4473 77.8126 43.9473 77.8126 43.9473C77.8126 43.9473 83.5126 40.0473 80.8126 34.1473C78.1126 28.1473 80.2126 24.9473 80.2126 24.9473Z" fill="white"/>
<path d="M0.611328 109.146L14.3113 109.546L19.2113 98.7461L29.2113 114.446L12.5113 127.746L0.611328 109.146Z" fill="#0E1728"/>
<path d="M26.5106 114.047L19.5106 102.947L15.6106 111.547L4.31055 111.247L13.0106 124.847L26.5106 114.047Z" fill="#89503B"/>
<path d="M136.611 114.446L146.511 98.7461L151.411 109.546L165.111 109.146L153.211 127.746L136.611 114.446Z" fill="#0E1728"/>
<path d="M139.211 114.047L146.211 102.947L150.111 111.547L161.411 111.247L152.711 124.847L139.211 114.047Z" fill="#89503B"/>
<path d="M82.9117 158.647C54.9117 158.647 28.6117 144.847 12.6117 121.747L11.5117 120.147L33.3117 105.047L34.4117 106.647C45.4117 122.547 63.5117 132.047 82.8117 132.047C102.112 132.047 120.212 122.547 131.212 106.647L132.312 105.047L154.112 120.147L153.012 121.747C137.212 144.847 110.912 158.647 82.9117 158.647Z" fill="#0E1728"/>
<path d="M82.9125 156.648C55.5125 156.648 29.9125 143.148 14.3125 120.648L32.9125 107.848C44.3125 124.348 63.0125 134.148 83.0125 134.148C103.013 134.148 121.713 124.348 133.013 107.848L151.513 120.648C135.913 143.248 110.313 156.648 82.9125 156.648Z" fill="#89503B"/>
<path d="M33.0065 119.178L32.0715 119.794L30.5653 117.51L27.2394 119.703L29.0891 122.508L28.1407 123.134L25.6039 119.287L34.954 113.121L37.4908 116.968L36.5424 117.593L34.6927 114.788L31.5003 116.894L33.0065 119.178Z" fill="white"/>
<path d="M41.4379 122.241C42.5837 123.492 42.3102 124.827 41.0597 125.973L40.8356 126.178L40.0357 125.305L40.307 125.057C41.0502 124.376 41.2273 123.693 40.622 123.032C40.0166 122.372 39.3208 122.488 38.5894 123.159C36.7373 124.856 39.1005 127.79 36.7766 129.919C35.5262 131.065 34.1609 131.209 33.0043 129.947C31.8477 128.685 32.1212 127.349 33.3717 126.203L33.8435 125.771L34.6326 126.632L34.1136 127.108C33.3704 127.789 33.2149 128.495 33.8203 129.156C34.4256 129.817 35.1431 129.723 35.8863 129.042C37.7266 127.356 35.3741 124.434 37.6981 122.304C38.9721 121.137 40.3029 121.002 41.4379 122.241Z" fill="white"/>
<path d="M40.1051 137.04L46.402 129.189L44.792 127.898L45.5027 127.012L49.6839 130.365L48.9731 131.252L47.3631 129.96L41.0661 137.811L40.1051 137.04Z" fill="white"/>
<path d="M48.7741 140.883L47.2798 142.628L46.2795 142.056L53.6976 133.396L55.2674 134.293L51.5724 145.081L50.4888 144.462L51.233 142.288L48.7741 140.883ZM49.4448 140.032L51.612 141.27L53.7214 135.031L49.4448 140.032Z" fill="white"/>
<path d="M62.5064 138.068C64.1439 138.668 64.5035 139.686 63.9364 141.234L63.7547 141.73C63.3472 142.841 62.7785 143.417 61.7575 143.366C62.6744 144.026 62.7676 144.98 62.3436 146.137L62.0188 147.023C61.4406 148.601 60.3496 149.206 58.7121 148.606L56.2935 147.72L60.1479 137.204L62.5064 138.068ZM60.5856 142.425C61.517 142.767 62.1079 142.643 62.5098 141.546L62.7356 140.93C63.077 139.999 62.9267 139.432 62.0854 139.124L60.9287 138.7L59.6843 142.095L60.5856 142.425ZM59.1031 147.54C59.9594 147.853 60.5151 147.546 60.873 146.569L61.2144 145.638C61.6439 144.466 61.3214 143.905 60.3149 143.536L59.2933 143.162L57.8562 147.083L59.1031 147.54Z" fill="white"/>
<path d="M66.9099 151.51L69.0171 140.51L70.2428 140.744L68.3493 150.629L71.4921 151.231L71.2784 152.347L66.9099 151.51Z" fill="white"/>
<path d="M78.9422 142.208L78.3448 153.392L77.0986 153.326L77.696 142.142L78.9422 142.208Z" fill="white"/>
<path d="M86.5265 142.324C88.2162 142.178 89.1083 143.209 89.2544 144.899L89.2806 145.202L88.101 145.304L88.0693 144.937C87.9824 143.933 87.5489 143.376 86.6562 143.453C85.7635 143.53 85.432 144.153 85.5174 145.142C85.7338 147.644 89.5005 147.559 89.772 150.7C89.9181 152.389 89.2003 153.56 87.4946 153.707C85.789 153.855 84.8969 152.824 84.7508 151.134L84.6956 150.496L85.8593 150.396L85.9199 151.097C86.0068 152.101 86.4722 152.655 87.3649 152.578C88.2576 152.501 88.621 151.875 88.5342 150.871C88.3192 148.384 84.5684 148.468 84.2969 145.327C84.148 143.606 84.8527 142.469 86.5265 142.324Z" fill="white"/>
<path d="M95.7696 147.665L97.0254 152.546L95.8167 152.857L93.0262 142.01L94.2348 141.699L95.4906 146.58L98.1558 145.894L96.9 141.013L98.1087 140.702L100.899 151.549L99.6906 151.86L98.4348 146.979L95.7696 147.665Z" fill="white"/>
<path d="M111.169 137.942C110.942 138.374 110.571 138.816 110.078 139.146L109.557 138.264C110.579 137.604 110.602 136.827 110.451 136.006L111.194 135.566L116.899 145.204L115.839 145.832L111.169 137.942Z" fill="white"/>
<path d="M118.033 131.034C119.355 129.921 120.714 130.218 121.818 131.527L125.499 135.895C126.643 137.253 126.753 138.625 125.383 139.78C124.074 140.883 122.738 140.565 121.635 139.256L121.501 139.097L122.394 138.344L122.58 138.564C123.229 139.335 123.941 139.509 124.626 138.932C125.36 138.313 125.287 137.58 124.524 136.675L122.905 134.754C123.167 135.537 122.97 136.247 122.285 136.825C121.184 137.753 120.035 137.382 118.994 136.146L117.89 134.837C116.787 133.528 116.712 132.148 118.033 131.034ZM118.765 131.903C118.08 132.48 118.131 133.211 118.791 133.994L119.874 135.279C120.523 136.05 121.245 136.236 121.931 135.659C122.628 135.071 122.554 134.338 121.905 133.567L120.822 132.283C120.162 131.5 119.463 131.315 118.765 131.903Z" fill="white"/>
<path d="M124.961 124.79C126.081 123.475 127.464 123.454 128.78 124.574L129.048 124.802C129.913 125.539 130.287 126.383 129.973 127.271C130.854 126.802 131.753 127.105 132.606 127.831L133.239 128.37C134.555 129.49 134.79 130.867 133.66 132.195C132.53 133.523 131.132 133.511 129.817 132.391L129.183 131.851C128.318 131.115 127.901 130.297 128.22 129.33C127.361 129.796 126.491 129.559 125.625 128.823L125.357 128.595C124.042 127.475 123.841 126.106 124.961 124.79ZM125.814 125.516C125.243 126.186 125.303 126.931 126.18 127.677L126.595 128.03C127.423 128.735 128.131 128.644 128.701 127.974C129.272 127.304 129.248 126.591 128.42 125.886L128.006 125.533C127.128 124.786 126.384 124.846 125.814 125.516ZM129.554 128.7C128.953 129.407 129.044 130.115 129.872 130.82L130.591 131.432C131.468 132.179 132.214 132.141 132.795 131.459C133.376 130.777 133.283 130.046 132.416 129.288L131.697 128.676C130.869 127.97 130.156 127.994 129.554 128.7Z" fill="white"/>
<path d="M130.706 117.575C131.593 116.092 132.976 115.932 134.445 116.811L139.346 119.744C140.87 120.656 141.42 121.918 140.5 123.456C139.62 124.925 138.254 125.058 136.785 124.179L136.607 124.072L137.206 123.07L137.454 123.217C138.318 123.735 139.048 123.669 139.508 122.9C140.001 122.076 139.693 121.407 138.678 120.799L136.522 119.509C137.025 120.164 137.07 120.899 136.609 121.668C135.87 122.904 134.663 122.927 133.276 122.097L131.807 121.218C130.338 120.338 129.818 119.058 130.706 117.575ZM131.68 118.158C131.22 118.927 131.506 119.602 132.385 120.128L133.826 120.99C134.691 121.508 135.435 121.45 135.895 120.681C136.363 119.898 136.055 119.229 135.19 118.712L133.749 117.849C132.87 117.323 132.149 117.376 131.68 118.158Z" fill="white"/>
</svg>
