<svg width="180" height="124" viewBox="0 0 180 124" fill="none" xmlns="http://www.w3.org/2000/svg">
<path d="M43.3998 120.928V112.658H48.3905V113.547H44.4012V116.341H48.1321V117.229H44.4012V120.039H48.4551V120.928H43.3998ZM54.4593 116.115L53.6033 116.357C53.5495 116.214 53.47 116.076 53.3651 115.941C53.2628 115.804 53.1228 115.691 52.9451 115.602C52.7675 115.513 52.54 115.469 52.2627 115.469C51.8832 115.469 51.5669 115.556 51.3139 115.731C51.0635 115.903 50.9384 116.123 50.9384 116.389C50.9384 116.626 51.0245 116.813 51.1968 116.951C51.369 117.088 51.6382 117.202 52.0043 117.294L52.9249 117.52C53.4795 117.654 53.8927 117.86 54.1645 118.138C54.4364 118.412 54.5724 118.766 54.5724 119.2C54.5724 119.555 54.4701 119.873 54.2655 120.152C54.0636 120.432 53.781 120.653 53.4176 120.815C53.0542 120.976 52.6315 121.057 52.1497 121.057C51.5171 121.057 50.9935 120.92 50.579 120.645C50.1644 120.371 49.902 119.969 49.7916 119.442L50.6961 119.216C50.7822 119.55 50.9451 119.8 51.1847 119.967C51.4269 120.134 51.7432 120.217 52.1335 120.217C52.5777 120.217 52.9303 120.123 53.1914 119.934C53.4552 119.743 53.5871 119.515 53.5871 119.248C53.5871 119.033 53.5118 118.852 53.361 118.707C53.2103 118.559 52.9788 118.449 52.6665 118.376L51.6329 118.134C51.0649 117.999 50.6476 117.79 50.3811 117.508C50.1173 117.222 49.9854 116.866 49.9854 116.438C49.9854 116.088 50.0837 115.778 50.2802 115.509C50.4794 115.24 50.7499 115.029 51.0918 114.875C51.4363 114.722 51.8267 114.645 52.2627 114.645C52.8765 114.645 53.3583 114.78 53.7083 115.049C54.0609 115.318 54.3112 115.673 54.4593 116.115ZM58.704 114.726V115.533H55.4899V114.726H58.704ZM56.4267 113.24H57.3796V119.151C57.3796 119.42 57.4187 119.622 57.4967 119.757C57.5775 119.889 57.6798 119.978 57.8036 120.023C57.9301 120.066 58.0634 120.088 58.2033 120.088C58.3083 120.088 58.3945 120.082 58.4618 120.072C58.529 120.058 58.5829 120.047 58.6233 120.039L58.8171 120.895C58.7525 120.92 58.6623 120.944 58.5465 120.968C58.4308 120.995 58.2841 121.008 58.1064 121.008C57.8372 121.008 57.5734 120.951 57.315 120.835C57.0593 120.719 56.8466 120.543 56.6771 120.306C56.5102 120.069 56.4267 119.77 56.4267 119.41V113.24ZM61.9625 121.073C61.5695 121.073 61.2128 120.999 60.8925 120.851C60.5722 120.7 60.3178 120.484 60.1294 120.201C59.9409 119.916 59.8467 119.571 59.8467 119.167C59.8467 118.812 59.9167 118.524 60.0567 118.303C60.1967 118.08 60.3837 117.905 60.6179 117.778C60.8521 117.652 61.1105 117.558 61.3932 117.496C61.6785 117.431 61.9652 117.38 62.2532 117.342C62.6301 117.294 62.9356 117.257 63.1698 117.233C63.4067 117.206 63.579 117.162 63.6866 117.1C63.797 117.038 63.8522 116.93 63.8522 116.777V116.745C63.8522 116.346 63.7432 116.037 63.5251 115.816C63.3098 115.595 62.9827 115.485 62.544 115.485C62.089 115.485 61.7324 115.584 61.4739 115.784C61.2155 115.983 61.0338 116.195 60.9288 116.422L60.0244 116.099C60.1859 115.722 60.4012 115.428 60.6704 115.218C60.9423 115.006 61.2384 114.858 61.5587 114.774C61.8818 114.688 62.1994 114.645 62.5117 114.645C62.7108 114.645 62.9397 114.669 63.1981 114.718C63.4592 114.763 63.7109 114.859 63.9531 115.004C64.1981 115.15 64.4013 115.369 64.5628 115.662C64.7244 115.956 64.8051 116.349 64.8051 116.841V120.928H63.8522V120.088H63.8037C63.7391 120.222 63.6315 120.366 63.4807 120.52C63.33 120.673 63.1294 120.804 62.8791 120.912C62.6287 121.019 62.3232 121.073 61.9625 121.073ZM62.1079 120.217C62.4847 120.217 62.8024 120.143 63.0608 119.995C63.3219 119.847 63.5184 119.656 63.6503 119.422C63.7849 119.187 63.8522 118.941 63.8522 118.683V117.811C63.8118 117.859 63.723 117.903 63.5857 117.944C63.4511 117.981 63.295 118.015 63.1173 118.045C62.9423 118.072 62.7714 118.096 62.6045 118.117C62.4403 118.136 62.3071 118.152 62.2048 118.166C61.9571 118.198 61.7256 118.251 61.5103 118.323C61.2976 118.393 61.1253 118.5 60.9934 118.642C60.8642 118.782 60.7996 118.973 60.7996 119.216C60.7996 119.547 60.9221 119.797 61.1671 119.967C61.4147 120.134 61.7283 120.217 62.1079 120.217ZM66.6736 120.928V112.658H67.6265V115.711H67.7073C67.7773 115.603 67.8742 115.466 67.998 115.299C68.1245 115.129 68.3049 114.979 68.5391 114.847C68.7759 114.712 69.0963 114.645 69.5 114.645C70.0223 114.645 70.4826 114.775 70.881 115.037C71.2794 115.298 71.5903 115.668 71.8137 116.147C72.0371 116.626 72.1488 117.191 72.1488 117.843C72.1488 118.5 72.0371 119.069 71.8137 119.551C71.5903 120.03 71.2807 120.401 70.885 120.665C70.4893 120.926 70.033 121.057 69.5162 121.057C69.1178 121.057 68.7988 120.991 68.5592 120.859C68.3197 120.724 68.1353 120.572 68.0061 120.403C67.8769 120.231 67.7773 120.088 67.7073 119.975H67.5942V120.928H66.6736ZM67.6104 117.827C67.6104 118.295 67.679 118.708 67.8163 119.066C67.9536 119.422 68.1541 119.7 68.4179 119.902C68.6817 120.101 69.0047 120.201 69.387 120.201C69.7854 120.201 70.1178 120.096 70.3843 119.886C70.6535 119.673 70.8554 119.388 70.99 119.03C71.1273 118.669 71.1959 118.268 71.1959 117.827C71.1959 117.391 71.1286 116.998 70.994 116.648C70.8621 116.295 70.6616 116.016 70.3924 115.812C70.1259 115.605 69.7908 115.501 69.387 115.501C68.9994 115.501 68.6736 115.599 68.4098 115.796C68.146 115.99 67.9468 116.261 67.8123 116.611C67.6777 116.959 67.6104 117.364 67.6104 117.827ZM74.5594 112.658V120.928H73.6065V112.658H74.5594ZM76.3047 120.928V114.726H77.2576V120.928H76.3047ZM76.7893 113.692C76.6035 113.692 76.4434 113.629 76.3088 113.502C76.1769 113.376 76.1109 113.224 76.1109 113.046C76.1109 112.868 76.1769 112.716 76.3088 112.59C76.4434 112.463 76.6035 112.4 76.7893 112.4C76.975 112.4 77.1338 112.463 77.2657 112.59C77.4003 112.716 77.4676 112.868 77.4676 113.046C77.4676 113.224 77.4003 113.376 77.2657 113.502C77.1338 113.629 76.975 113.692 76.7893 113.692ZM83.3961 116.115L82.5401 116.357C82.4862 116.214 82.4068 116.076 82.3018 115.941C82.1996 115.804 82.0596 115.691 81.8819 115.602C81.7042 115.513 81.4768 115.469 81.1995 115.469C80.82 115.469 80.5037 115.556 80.2506 115.731C80.0003 115.903 79.8751 116.123 79.8751 116.389C79.8751 116.626 79.9613 116.813 80.1336 116.951C80.3058 117.088 80.575 117.202 80.9411 117.294L81.8617 117.52C82.4162 117.654 82.8294 117.86 83.1013 118.138C83.3732 118.412 83.5091 118.766 83.5091 119.2C83.5091 119.555 83.4068 119.873 83.2023 120.152C83.0004 120.432 82.7177 120.653 82.3543 120.815C81.9909 120.976 81.5683 121.057 81.0865 121.057C80.4539 121.057 79.9303 120.92 79.5158 120.645C79.1012 120.371 78.8388 119.969 78.7284 119.442L79.6329 119.216C79.719 119.55 79.8819 119.8 80.1214 119.967C80.3637 120.134 80.68 120.217 81.0703 120.217C81.5145 120.217 81.8671 120.123 82.1282 119.934C82.392 119.743 82.5239 119.515 82.5239 119.248C82.5239 119.033 82.4485 118.852 82.2978 118.707C82.1471 118.559 81.9156 118.449 81.6033 118.376L80.5696 118.134C80.0016 117.999 79.5844 117.79 79.3179 117.508C79.0541 117.222 78.9222 116.866 78.9222 116.438C78.9222 116.088 79.0205 115.778 79.217 115.509C79.4162 115.24 79.6867 115.029 80.0286 114.875C80.3731 114.722 80.7634 114.645 81.1995 114.645C81.8133 114.645 82.2951 114.78 82.6451 115.049C82.9977 115.318 83.248 115.673 83.3961 116.115ZM85.8965 117.197V120.928H84.9436V112.658H85.8965V115.695H85.9772C86.1226 115.374 86.3406 115.12 86.6314 114.932C86.9248 114.741 87.3151 114.645 87.8023 114.645C88.2249 114.645 88.5951 114.73 88.9127 114.899C89.2303 115.066 89.4766 115.323 89.6516 115.671C89.8293 116.015 89.9181 116.454 89.9181 116.987V120.928H88.9652V117.051C88.9652 116.559 88.8373 116.178 88.5816 115.909C88.3286 115.637 87.9773 115.501 87.5277 115.501C87.2155 115.501 86.9355 115.567 86.6879 115.699C86.4429 115.831 86.2491 116.023 86.1064 116.276C85.9665 116.529 85.8965 116.836 85.8965 117.197ZM94.2618 121.057C93.6642 121.057 93.1487 120.925 92.7153 120.661C92.2846 120.395 91.9521 120.023 91.718 119.547C91.4865 119.068 91.3707 118.51 91.3707 117.875C91.3707 117.24 91.4865 116.68 91.718 116.195C91.9521 115.708 92.2779 115.329 92.6951 115.057C93.115 114.782 93.6049 114.645 94.1648 114.645C94.4879 114.645 94.8069 114.699 95.1218 114.806C95.4368 114.914 95.7234 115.089 95.9819 115.331C96.2403 115.571 96.4462 115.889 96.5996 116.284C96.7531 116.68 96.8298 117.167 96.8298 117.746V118.15H92.049V117.326H95.8607C95.8607 116.976 95.7907 116.664 95.6508 116.389C95.5135 116.115 95.317 115.898 95.0612 115.739C94.8082 115.58 94.5094 115.501 94.1648 115.501C93.7853 115.501 93.4569 115.595 93.1796 115.784C92.9051 115.969 92.6937 116.212 92.5457 116.51C92.3976 116.809 92.3236 117.13 92.3236 117.471V118.021C92.3236 118.489 92.4044 118.886 92.5659 119.212C92.7301 119.535 92.9576 119.781 93.2483 119.951C93.539 120.117 93.8768 120.201 94.2618 120.201C94.5121 120.201 94.7382 120.166 94.9401 120.096C95.1447 120.023 95.321 119.916 95.4691 119.773C95.6171 119.628 95.7315 119.447 95.8123 119.232L96.7329 119.49C96.636 119.803 96.4731 120.077 96.2443 120.314C96.0155 120.548 95.7329 120.731 95.3964 120.863C95.0599 120.992 94.6817 121.057 94.2618 121.057ZM100.621 121.057C100.104 121.057 99.6482 120.926 99.2525 120.665C98.8568 120.401 98.5472 120.03 98.3238 119.551C98.1003 119.069 97.9886 118.5 97.9886 117.843C97.9886 117.191 98.1003 116.626 98.3238 116.147C98.5472 115.668 98.8581 115.298 99.2565 115.037C99.6549 114.775 100.115 114.645 100.637 114.645C101.041 114.645 101.36 114.712 101.594 114.847C101.831 114.979 102.012 115.129 102.135 115.299C102.262 115.466 102.36 115.603 102.43 115.711H102.511V112.658H103.464V120.928H102.543V119.975H102.43C102.36 120.088 102.261 120.231 102.131 120.403C102.002 120.572 101.818 120.724 101.578 120.859C101.339 120.991 101.02 121.057 100.621 121.057ZM100.75 120.201C101.133 120.201 101.456 120.101 101.72 119.902C101.983 119.7 102.184 119.422 102.321 119.066C102.458 118.708 102.527 118.295 102.527 117.827C102.527 117.364 102.46 116.959 102.325 116.611C102.191 116.261 101.991 115.99 101.728 115.796C101.464 115.599 101.138 115.501 100.75 115.501C100.347 115.501 100.01 115.605 99.741 115.812C99.4745 116.016 99.274 116.295 99.1394 116.648C99.0075 116.998 98.9416 117.391 98.9416 117.827C98.9416 118.268 99.0088 118.669 99.1434 119.03C99.2807 119.388 99.4826 119.673 99.7491 119.886C100.018 120.096 100.352 120.201 100.75 120.201ZM111.43 112.658V120.928H110.429V113.708H110.381L108.362 115.049V114.031L110.429 112.658H111.43ZM116.457 121.041C115.903 121.041 115.413 120.943 114.988 120.746C114.565 120.547 114.235 120.274 113.998 119.926C113.762 119.576 113.644 119.178 113.647 118.731C113.644 118.381 113.713 118.058 113.853 117.762C113.993 117.463 114.184 117.214 114.426 117.015C114.671 116.813 114.945 116.685 115.246 116.632V116.583C114.85 116.481 114.535 116.259 114.301 115.917C114.067 115.572 113.951 115.181 113.954 114.742C113.951 114.322 114.058 113.946 114.273 113.615C114.488 113.284 114.784 113.023 115.161 112.832C115.541 112.641 115.973 112.545 116.457 112.545C116.937 112.545 117.365 112.641 117.741 112.832C118.118 113.023 118.414 113.284 118.63 113.615C118.848 113.946 118.958 114.322 118.961 114.742C118.958 115.181 118.838 115.572 118.602 115.917C118.367 116.259 118.056 116.481 117.669 116.583V116.632C117.968 116.685 118.237 116.813 118.476 117.015C118.716 117.214 118.907 117.463 119.05 117.762C119.192 118.058 119.265 118.381 119.268 118.731C119.265 119.178 119.144 119.576 118.904 119.926C118.667 120.274 118.338 120.547 117.915 120.746C117.495 120.943 117.009 121.041 116.457 121.041ZM116.457 120.152C116.832 120.152 117.155 120.092 117.427 119.971C117.698 119.85 117.908 119.679 118.056 119.458C118.204 119.237 118.28 118.979 118.283 118.683C118.28 118.37 118.199 118.095 118.04 117.855C117.881 117.615 117.665 117.427 117.39 117.29C117.118 117.152 116.807 117.084 116.457 117.084C116.105 117.084 115.79 117.152 115.513 117.29C115.238 117.427 115.021 117.615 114.863 117.855C114.706 118.095 114.63 118.37 114.632 118.683C114.63 118.979 114.701 119.237 114.846 119.458C114.994 119.679 115.206 119.85 115.48 119.971C115.755 120.092 116.081 120.152 116.457 120.152ZM116.457 116.228C116.754 116.228 117.016 116.169 117.245 116.05C117.476 115.932 117.658 115.766 117.79 115.553C117.922 115.341 117.989 115.092 117.992 114.806C117.989 114.527 117.923 114.283 117.794 114.076C117.665 113.866 117.486 113.704 117.257 113.591C117.028 113.475 116.762 113.417 116.457 113.417C116.148 113.417 115.877 113.475 115.646 113.591C115.414 113.704 115.235 113.866 115.109 114.076C114.982 114.283 114.92 114.527 114.923 114.806C114.92 115.092 114.984 115.341 115.113 115.553C115.245 115.766 115.426 115.932 115.658 116.05C115.889 116.169 116.156 116.228 116.457 116.228ZM123.464 121.041C122.91 121.041 122.42 120.943 121.994 120.746C121.572 120.547 121.242 120.274 121.005 119.926C120.768 119.576 120.651 119.178 120.654 118.731C120.651 118.381 120.72 118.058 120.86 117.762C121 117.463 121.191 117.214 121.433 117.015C121.678 116.813 121.951 116.685 122.253 116.632V116.583C121.857 116.481 121.542 116.259 121.308 115.917C121.074 115.572 120.958 115.181 120.961 114.742C120.958 114.322 121.064 113.946 121.28 113.615C121.495 113.284 121.791 113.023 122.168 112.832C122.547 112.641 122.979 112.545 123.464 112.545C123.943 112.545 124.371 112.641 124.748 112.832C125.125 113.023 125.421 113.284 125.636 113.615C125.854 113.946 125.965 114.322 125.967 114.742C125.965 115.181 125.845 115.572 125.608 115.917C125.374 116.259 125.063 116.481 124.675 116.583V116.632C124.974 116.685 125.243 116.813 125.483 117.015C125.722 117.214 125.914 117.463 126.056 117.762C126.199 118.058 126.272 118.381 126.274 118.731C126.272 119.178 126.15 119.576 125.911 119.926C125.674 120.274 125.344 120.547 124.922 120.746C124.502 120.943 124.016 121.041 123.464 121.041ZM123.464 120.152C123.838 120.152 124.161 120.092 124.433 119.971C124.705 119.85 124.915 119.679 125.063 119.458C125.211 119.237 125.286 118.979 125.289 118.683C125.286 118.37 125.206 118.095 125.047 117.855C124.888 117.615 124.671 117.427 124.397 117.29C124.125 117.152 123.814 117.084 123.464 117.084C123.111 117.084 122.796 117.152 122.519 117.29C122.245 117.427 122.028 117.615 121.869 117.855C121.713 118.095 121.636 118.37 121.639 118.683C121.636 118.979 121.708 119.237 121.853 119.458C122.001 119.679 122.212 119.85 122.487 119.971C122.761 120.092 123.087 120.152 123.464 120.152ZM123.464 116.228C123.76 116.228 124.023 116.169 124.251 116.05C124.483 115.932 124.665 115.766 124.796 115.553C124.928 115.341 124.996 115.092 124.998 114.806C124.996 114.527 124.93 114.283 124.801 114.076C124.671 113.866 124.492 113.704 124.264 113.591C124.035 113.475 123.768 113.417 123.464 113.417C123.154 113.417 122.884 113.475 122.652 113.591C122.421 113.704 122.242 113.866 122.115 114.076C121.989 114.283 121.927 114.527 121.93 114.806C121.927 115.092 121.99 115.341 122.119 115.553C122.251 115.766 122.433 115.932 122.665 116.05C122.896 116.169 123.163 116.228 123.464 116.228ZM130.406 121.041C129.932 121.041 129.506 120.947 129.126 120.758C128.746 120.57 128.442 120.311 128.213 119.983C127.985 119.654 127.859 119.28 127.838 118.86H128.807C128.845 119.235 129.014 119.544 129.316 119.789C129.62 120.031 129.983 120.152 130.406 120.152C130.745 120.152 131.047 120.073 131.31 119.914C131.577 119.755 131.786 119.537 131.936 119.26C132.09 118.98 132.166 118.664 132.166 118.311C132.166 117.951 132.087 117.629 131.928 117.346C131.772 117.061 131.557 116.836 131.282 116.672C131.008 116.508 130.694 116.424 130.341 116.422C130.088 116.419 129.829 116.458 129.562 116.539C129.296 116.617 129.076 116.718 128.904 116.841L127.967 116.728L128.468 112.658H132.764V113.547H129.308L129.017 115.985H129.065C129.235 115.851 129.448 115.739 129.703 115.65C129.959 115.562 130.226 115.517 130.503 115.517C131.009 115.517 131.46 115.638 131.856 115.881C132.254 116.12 132.566 116.448 132.792 116.866C133.021 117.283 133.136 117.759 133.136 118.295C133.136 118.823 133.017 119.294 132.78 119.708C132.546 120.12 132.223 120.446 131.811 120.685C131.399 120.922 130.931 121.041 130.406 121.041Z" fill="white"/>
<path d="M27.5091 92.728C25.5984 92.728 24.1352 92.1838 23.1194 91.0955C22.1277 90.0071 21.6319 88.4713 21.6319 86.4881V72.8472C21.6319 70.8639 22.1277 69.3281 23.1194 68.2398C24.1352 67.1514 25.5984 66.6072 27.5091 66.6072C29.4198 66.6072 30.8709 67.1514 31.8626 68.2398C32.8784 69.3281 33.3863 70.8639 33.3863 72.8472V75.5318H29.6133V72.5932C29.6133 71.0211 28.9482 70.2351 27.6179 70.2351C26.2877 70.2351 25.6226 71.0211 25.6226 72.5932V86.7783C25.6226 88.3262 26.2877 89.1001 27.6179 89.1001C28.9482 89.1001 29.6133 88.3262 29.6133 86.7783V82.8964H33.3863V86.4881C33.3863 88.4713 32.8784 90.0071 31.8626 91.0955C30.8709 92.1838 29.4198 92.728 27.5091 92.728ZM41.6131 92.728C39.654 92.728 38.1545 92.1717 37.1145 91.0592C36.0745 89.9466 35.5545 88.3746 35.5545 86.3429V72.9923C35.5545 70.9607 36.0745 69.3886 37.1145 68.276C38.1545 67.1635 39.654 66.6072 41.6131 66.6072C43.5722 66.6072 45.0717 67.1635 46.1117 68.276C47.1517 69.3886 47.6717 70.9607 47.6717 72.9923V86.3429C47.6717 88.3746 47.1517 89.9466 46.1117 91.0592C45.0717 92.1717 43.5722 92.728 41.6131 92.728ZM41.6131 89.1001C42.9917 89.1001 43.681 88.2657 43.681 86.5969V72.7383C43.681 71.0695 42.9917 70.2351 41.6131 70.2351C40.2345 70.2351 39.5452 71.0695 39.5452 72.7383V86.5969C39.5452 88.2657 40.2345 89.1001 41.6131 89.1001ZM50.3705 66.97H60.9276V70.5979H54.3612V77.6723H59.5128V81.3002H54.3612V92.3652H50.3705V66.97ZM62.8413 66.97H73.3985V70.5979H66.832V77.6723H71.9836V81.3002H66.832V92.3652H62.8413V66.97ZM75.3122 66.97H86.1959V70.5979H79.3029V77.3095H84.781V80.9374H79.3029V88.7373H86.1959V92.3652H75.3122V66.97ZM88.4917 66.97H99.3753V70.5979H92.4823V77.3095H97.9605V80.9374H92.4823V88.7373H99.3753V92.3652H88.4917V66.97ZM112.669 92.728C110.734 92.728 109.271 92.1838 108.28 91.0955C107.288 89.9829 106.792 88.3987 106.792 86.3429V84.8918H110.565V86.6332C110.565 88.2778 111.254 89.1001 112.633 89.1001C113.31 89.1001 113.818 88.9066 114.157 88.5197C114.52 88.1085 114.701 87.4555 114.701 86.5606C114.701 85.4964 114.459 84.5653 113.975 83.7671C113.492 82.9448 112.597 81.9653 111.291 80.8285C109.646 79.3774 108.497 78.0713 107.844 76.9104C107.191 75.7253 106.865 74.3951 106.865 72.9197C106.865 70.9123 107.373 69.3644 108.388 68.276C109.404 67.1635 110.88 66.6072 112.814 66.6072C114.725 66.6072 116.164 67.1635 117.132 68.276C118.123 69.3644 118.619 70.9365 118.619 72.9923V74.0444H114.846V72.7383C114.846 71.8677 114.677 71.2388 114.338 70.8518C114 70.4407 113.504 70.2351 112.851 70.2351C111.52 70.2351 110.855 71.0453 110.855 72.6658C110.855 73.5849 111.097 74.4435 111.581 75.2416C112.089 76.0397 112.996 77.0072 114.302 78.1439C115.971 79.5951 117.119 80.9132 117.748 82.0983C118.377 83.2834 118.692 84.6741 118.692 86.2704C118.692 88.3504 118.172 89.9466 117.132 91.0592C116.116 92.1717 114.628 92.728 112.669 92.728ZM120.98 66.97H124.97V77.3095H129.251V66.97H133.242V92.3652H129.251V80.9374H124.97V92.3652H120.98V66.97ZM141.982 92.728C140.023 92.728 138.524 92.1717 137.484 91.0592C136.444 89.9466 135.924 88.3746 135.924 86.3429V72.9923C135.924 70.9607 136.444 69.3886 137.484 68.276C138.524 67.1635 140.023 66.6072 141.982 66.6072C143.941 66.6072 145.441 67.1635 146.481 68.276C147.521 69.3886 148.041 70.9607 148.041 72.9923V86.3429C148.041 88.3746 147.521 89.9466 146.481 91.0592C145.441 92.1717 143.941 92.728 141.982 92.728ZM141.982 89.1001C143.361 89.1001 144.05 88.2657 144.05 86.5969V72.7383C144.05 71.0695 143.361 70.2351 141.982 70.2351C140.604 70.2351 139.914 71.0695 139.914 72.7383V86.5969C139.914 88.2657 140.604 89.1001 141.982 89.1001ZM150.74 66.97H156.617C158.6 66.97 160.088 67.5021 161.079 68.5663C162.071 69.6305 162.567 71.1904 162.567 73.2463V75.7495C162.567 77.8053 162.071 79.3653 161.079 80.4295C160.088 81.4937 158.6 82.0257 156.617 82.0257H154.73V92.3652H150.74V66.97ZM156.617 78.3979C157.27 78.3979 157.754 78.2165 158.068 77.8537C158.407 77.4909 158.576 76.8741 158.576 76.0034V72.9923C158.576 72.1216 158.407 71.5049 158.068 71.1421C157.754 70.7793 157.27 70.5979 156.617 70.5979H154.73V78.3979H156.617Z" fill="white"/>
<path d="M1 111.666C17.6 105.666 51 101.566 89.7 101.566C128.4 101.566 162 105.666 178.5 111.766" stroke="#89503B" stroke-width="2" stroke-miterlimit="10" stroke-linecap="round"/>
<path d="M178.5 48.3656C161.9 54.3656 128.5 58.4656 89.8 58.4656C51.1 58.4656 17.5 54.3656 1 48.2656" stroke="#89503B" stroke-width="2" stroke-miterlimit="10" stroke-linecap="round"/>
<path d="M135.701 25.3648L135.101 24.4648L97.2012 49.8648C97.8012 49.8648 98.5012 49.8648 99.1012 49.8648L135.701 25.3648Z" fill="white"/>
<path d="M68.5 4.36523L67.5 4.76524L86.4 49.8652C86.8 49.8652 87.2 49.8652 87.5 49.8652L68.5 4.36523Z" fill="white"/>
<path d="M140.301 33.8652L102.301 49.7652C103.301 49.7652 104.201 49.7652 105.201 49.6652L140.701 34.7652L140.301 33.8652Z" fill="white"/>
<path d="M128.9 16.9656L128.2 16.2656L94.4004 49.8656C94.9004 49.8656 95.4004 49.8656 95.9004 49.8656L128.9 16.9656Z" fill="white"/>
<path d="M99.6 1.26562L90 49.9656C90.4 49.9656 90.7 49.9656 91.1 49.9656L100.7 1.56562L99.6 1.26562Z" fill="white"/>
<path d="M110.901 4.66563L109.901 4.26562L91.2012 49.8656C91.6012 49.8656 92.0012 49.8656 92.3012 49.8656L110.901 4.66563Z" fill="white"/>
<path d="M120.4 9.86562L119.5 9.26562L92.5996 49.9656C92.9996 49.9656 93.3996 49.9656 93.8996 49.9656L120.4 9.86562Z" fill="white"/>
<path d="M35.1004 44.4648L34.9004 45.4648L49.1004 48.2648C51.9004 48.4648 54.7004 48.6648 57.6004 48.8648L35.1004 44.4648Z" fill="white"/>
<path d="M89.9004 0.365234H88.9004V49.9652C89.2004 49.9652 89.5004 49.9652 89.9004 49.9652C89.9004 49.9652 89.9004 49.9652 90.0004 49.9652V0.365234H89.9004Z" fill="white"/>
<path d="M143.6 44.166L119.5 49.066C122.1 48.866 124.7 48.766 127.3 48.566L143.8 45.166L143.6 44.166Z" fill="white"/>
<path d="M49.8008 16.9656L82.8008 49.9656C83.3008 49.9656 83.8008 49.9656 84.3008 49.9656L50.6008 16.2656L49.8008 16.9656Z" fill="white"/>
<path d="M42.9004 25.566L79.5004 49.866C80.1004 49.866 80.8004 49.866 81.4004 49.866L43.4004 24.666L42.9004 25.566Z" fill="white"/>
<path d="M86.1 49.9652L58.9 9.36523L58 9.96523L84.7 49.8652C85.2 49.8652 85.7 49.9652 86.1 49.9652Z" fill="white"/>
<path d="M78.8008 1.36523L77.8008 1.56523L87.6008 49.9652C88.0008 49.9652 88.3008 49.9652 88.7008 49.9652L78.8008 1.36523Z" fill="white"/>
<path d="M37.9004 35.1656L73.2004 49.6656C74.2004 49.6656 75.2004 49.7656 76.1004 49.7656L38.2004 34.2656L37.9004 35.1656Z" fill="white"/>
<path d="M32.2 119.464C33.415 119.464 34.4 118.479 34.4 117.264C34.4 116.049 33.415 115.064 32.2 115.064C30.985 115.064 30 116.049 30 117.264C30 118.479 30.985 119.464 32.2 119.464Z" fill="#89503B"/>
<path d="M145.8 119.464C147.015 119.464 148 118.479 148 117.264C148 116.049 147.015 115.064 145.8 115.064C144.585 115.064 143.6 116.049 143.6 117.264C143.6 118.479 144.585 119.464 145.8 119.464Z" fill="#89503B"/>
</svg>
