<svg width="174" height="108" viewBox="0 0 174 108" fill="none" xmlns="http://www.w3.org/2000/svg">
<path d="M14.0243 60.4315C18.4976 60.4315 20.5685 63.3309 20.5685 67.7213V70.3307H17.5035V67.5556C17.5035 64.9462 16.4681 63.3723 14.1072 63.3723C11.7877 63.3723 10.7108 64.9462 10.7108 67.5556V82.8807C10.7108 85.4901 11.7877 87.064 14.1072 87.064C16.4681 87.064 17.5035 85.4901 17.5035 82.8807V79.1116H20.5685V82.715C20.5685 87.1054 18.4976 90.0048 14.0243 90.0048C9.59249 90.0048 7.52153 87.1054 7.52153 82.715V67.7213C7.52153 63.3309 9.59249 60.4315 14.0243 60.4315ZM23.2559 67.7213C23.2559 63.2895 25.4511 60.4315 29.883 60.4315C34.3563 60.4315 36.5515 63.2895 36.5515 67.7213V82.715C36.5515 87.1054 34.3563 90.0048 29.883 90.0048C25.4511 90.0048 23.2559 87.1054 23.2559 82.715V67.7213ZM26.4452 82.8807C26.4452 85.5315 27.5635 87.064 29.883 87.064C32.2439 87.064 33.3208 85.5315 33.3208 82.8807V67.5556C33.3208 64.9462 32.2439 63.3723 29.883 63.3723C27.5635 63.3723 26.4452 64.9462 26.4452 67.5556V82.8807ZM49.5021 74.2241V77.1649H42.8336V89.7148H39.6029V60.7215H51.1174V63.6622H42.8336V74.2241H49.5021ZM63.5781 74.2241V77.1649H56.9096V89.7148H53.6789V60.7215H65.1934V63.6622H56.9096V74.2241H63.5781ZM78.0683 73.5614V76.4607H70.9856V86.7741H79.6836V89.7148H67.7549V60.7215H79.6836V63.6622H70.9856V73.5614H78.0683ZM92.9937 73.5614V76.4607H85.9111V86.7741H94.6091V89.7148H82.6804V60.7215H94.6091V63.6622H85.9111V73.5614H92.9937ZM110.126 60.4315C114.516 60.4315 116.587 63.2895 116.587 67.6799V68.4668H113.522V67.5142C113.522 64.9048 112.528 63.3723 110.209 63.3723C107.889 63.3723 106.895 64.9048 106.895 67.4728C106.895 73.9756 116.629 74.5969 116.629 82.7564C116.629 87.1469 114.516 90.0048 110.084 90.0048C105.652 90.0048 103.581 87.1469 103.581 82.7564V81.0997H106.605V82.9221C106.605 85.5315 107.682 87.064 110.001 87.064C112.321 87.064 113.398 85.5315 113.398 82.9221C113.398 76.4607 103.706 75.8394 103.706 67.6799C103.706 63.2066 105.777 60.4315 110.126 60.4315ZM122.679 76.6678V89.7148H119.448V60.7215H122.679V73.7685H129.803V60.7215H133.033V89.7148H129.803V76.6678H122.679ZM136.107 67.7213C136.107 63.2895 138.302 60.4315 142.734 60.4315C147.207 60.4315 149.402 63.2895 149.402 67.7213V82.715C149.402 87.1054 147.207 90.0048 142.734 90.0048C138.302 90.0048 136.107 87.1054 136.107 82.715V67.7213ZM139.296 82.8807C139.296 85.5315 140.414 87.064 142.734 87.064C145.095 87.064 146.172 85.5315 146.172 82.8807V67.5556C146.172 64.9462 145.095 63.3723 142.734 63.3723C140.414 63.3723 139.296 64.9462 139.296 67.5556V82.8807ZM158.791 60.7215C163.347 60.7215 165.294 63.4137 165.294 67.8041V71.2833C165.294 75.8809 163.14 78.2832 158.542 78.2832H155.684V89.7148H152.454V60.7215H158.791ZM158.542 75.3838C160.945 75.3838 162.104 74.2655 162.104 71.4904V67.6385C162.104 64.9876 161.152 63.6622 158.791 63.6622H155.684V75.3838H158.542Z" fill="white"/>
<path d="M37.1054 95.9541V104.98H36.0653V95.9541H37.1054ZM41.7608 105.122C41.1496 105.122 40.6134 104.976 40.1521 104.685C39.6937 104.394 39.3352 103.987 39.0767 103.464C38.821 102.941 38.6932 102.33 38.6932 101.631C38.6932 100.926 38.821 100.31 39.0767 99.7841C39.3352 99.2582 39.6937 98.8497 40.1521 98.5589C40.6134 98.268 41.1496 98.1225 41.7608 98.1225C42.3719 98.1225 42.9067 98.268 43.3651 98.5589C43.8264 98.8497 44.1849 99.2582 44.4405 99.7841C44.6991 100.31 44.8283 100.926 44.8283 101.631C44.8283 102.33 44.6991 102.941 44.4405 103.464C44.1849 103.987 43.8264 104.394 43.3651 104.685C42.9067 104.976 42.3719 105.122 41.7608 105.122ZM41.7608 104.187C42.225 104.187 42.607 104.068 42.9067 103.83C43.2064 103.592 43.4282 103.279 43.5722 102.891C43.7162 102.503 43.7882 102.083 43.7882 101.631C43.7882 101.178 43.7162 100.757 43.5722 100.366C43.4282 99.9751 43.2064 99.6592 42.9067 99.4183C42.607 99.1774 42.225 99.0569 41.7608 99.0569C41.2965 99.0569 40.9146 99.1774 40.6148 99.4183C40.3151 99.6592 40.0933 99.9751 39.9493 100.366C39.8053 100.757 39.7334 101.178 39.7334 101.631C39.7334 102.083 39.8053 102.503 39.9493 102.891C40.0933 103.279 40.3151 103.592 40.6148 103.83C40.9146 104.068 41.2965 104.187 41.7608 104.187ZM46.4161 104.98V98.2107H47.421V99.2332H47.4915C47.6149 98.8982 47.8382 98.6264 48.1615 98.4178C48.4847 98.2092 48.849 98.1049 49.2545 98.1049C49.3309 98.1049 49.4264 98.1064 49.541 98.1093C49.6556 98.1122 49.7422 98.1166 49.801 98.1225V99.1803C49.7658 99.1715 49.685 99.1583 49.5586 99.1406C49.4352 99.1201 49.3044 99.1098 49.1663 99.1098C48.8373 99.1098 48.5434 99.1788 48.2849 99.3169C48.0292 99.4521 47.8265 99.6401 47.6766 99.8811C47.5297 100.119 47.4563 100.391 47.4563 100.696V104.98H46.4161ZM53.6663 105.122C53.014 105.122 52.4513 104.978 51.9783 104.69C51.5082 104.399 51.1453 103.993 50.8896 103.473C50.637 102.95 50.5106 102.342 50.5106 101.648C50.5106 100.955 50.637 100.344 50.8896 99.815C51.1453 99.2831 51.5008 98.8688 51.9562 98.5721C52.4146 98.2724 52.9494 98.1225 53.5605 98.1225C53.9131 98.1225 54.2613 98.1813 54.6051 98.2988C54.9489 98.4163 55.2618 98.6073 55.5439 98.8718C55.826 99.1333 56.0507 99.48 56.2182 99.9119C56.3857 100.344 56.4694 100.876 56.4694 101.507V101.948H51.2511V101.049H55.4117C55.4117 100.667 55.3353 100.326 55.1825 100.027C55.0326 99.7268 54.8181 99.4903 54.539 99.3169C54.2628 99.1436 53.9366 99.0569 53.5605 99.0569C53.1462 99.0569 52.7878 99.1597 52.4851 99.3654C52.1854 99.5682 51.9548 99.8326 51.7932 100.159C51.6316 100.485 51.5508 100.835 51.5508 101.208V101.807C51.5508 102.318 51.6389 102.752 51.8152 103.107C51.9944 103.46 52.2427 103.729 52.5601 103.914C52.8774 104.096 53.2461 104.187 53.6663 104.187C53.9396 104.187 54.1864 104.149 54.4068 104.073C54.6301 103.993 54.8225 103.876 54.9841 103.72C55.1457 103.561 55.2706 103.364 55.3588 103.129L56.3637 103.411C56.2579 103.752 56.0801 104.052 55.8304 104.311C55.5806 104.566 55.2721 104.766 54.9048 104.91C54.5375 105.051 54.1247 105.122 53.6663 105.122ZM58.0517 104.98V98.2107H59.0566V99.2685H59.1447C59.2858 98.907 59.5135 98.6264 59.8279 98.4266C60.1423 98.2239 60.5199 98.1225 60.9606 98.1225C61.4072 98.1225 61.7789 98.2239 62.0757 98.4266C62.3754 98.6264 62.609 98.907 62.7765 99.2685H62.847C63.0203 98.9188 63.2804 98.6411 63.6271 98.4354C63.9738 98.2268 64.3896 98.1225 64.8744 98.1225C65.4797 98.1225 65.9748 98.312 66.3597 98.6911C66.7446 99.0672 66.9371 99.6534 66.9371 100.45V104.98H65.8969V100.45C65.8969 99.9501 65.7603 99.5931 65.487 99.3786C65.2138 99.1641 64.892 99.0569 64.5218 99.0569C64.0458 99.0569 63.677 99.2009 63.4155 99.4888C63.154 99.7738 63.0233 100.135 63.0233 100.573V104.98H61.9655V100.344C61.9655 99.9589 61.8406 99.649 61.5909 99.4139C61.3411 99.1759 61.0194 99.0569 60.6256 99.0569C60.3553 99.0569 60.1026 99.1289 59.8676 99.2729C59.6354 99.4168 59.4474 99.6166 59.3034 99.8723C59.1624 100.125 59.0919 100.417 59.0919 100.749V104.98H58.0517ZM72.3296 104.98V98.2107H73.3697V104.98H72.3296ZM72.8584 97.0824C72.6557 97.0824 72.4809 97.0133 72.334 96.8752C72.19 96.7371 72.118 96.5711 72.118 96.3772C72.118 96.1833 72.19 96.0172 72.334 95.8791C72.4809 95.741 72.6557 95.672 72.8584 95.672C73.0612 95.672 73.2345 95.741 73.3785 95.8791C73.5254 96.0172 73.5989 96.1833 73.5989 96.3772C73.5989 96.5711 73.5254 96.7371 73.3785 96.8752C73.2345 97.0133 73.0612 97.0824 72.8584 97.0824ZM75.2748 107.519V98.2107H76.2797V99.2861H76.4031C76.4795 99.1685 76.5853 99.0187 76.7204 98.8365C76.8585 98.6514 77.0554 98.4869 77.311 98.3429C77.5696 98.196 77.9193 98.1225 78.36 98.1225C78.93 98.1225 79.4325 98.265 79.8673 98.55C80.3022 98.8351 80.6416 99.2391 80.8855 99.7621C81.1293 100.285 81.2513 100.902 81.2513 101.613C81.2513 102.33 81.1293 102.952 80.8855 103.478C80.6416 104.001 80.3037 104.406 79.8718 104.694C79.4398 104.979 78.9418 105.122 78.3776 105.122C77.9428 105.122 77.5946 105.05 77.3331 104.906C77.0716 104.759 76.8703 104.593 76.7293 104.408C76.5882 104.219 76.4795 104.064 76.4031 103.94H76.315V107.519H75.2748ZM76.2973 101.596C76.2973 102.107 76.3723 102.558 76.5221 102.949C76.672 103.337 76.8909 103.641 77.1788 103.861C77.4668 104.078 77.8194 104.187 78.2366 104.187C78.6715 104.187 79.0343 104.073 79.3252 103.843C79.6191 103.611 79.8394 103.3 79.9863 102.909C80.1362 102.515 80.2111 102.077 80.2111 101.596C80.2111 101.12 80.1377 100.691 79.9908 100.309C79.8468 99.9237 79.6279 99.6196 79.334 99.3963C79.0432 99.17 78.6773 99.0569 78.2366 99.0569C77.8135 99.0569 77.458 99.1641 77.17 99.3786C76.8821 99.5902 76.6646 99.887 76.5177 100.269C76.3708 100.648 76.2973 101.09 76.2973 101.596ZM87.6332 99.7268L86.6988 99.9913C86.6401 99.8355 86.5534 99.6842 86.4388 99.5373C86.3272 99.3875 86.1744 99.264 85.9804 99.1671C85.7865 99.0701 85.5382 99.0216 85.2356 99.0216C84.8213 99.0216 84.476 99.1171 84.1998 99.3081C83.9266 99.4962 83.79 99.7356 83.79 100.027C83.79 100.285 83.884 100.489 84.072 100.639C84.2601 100.789 84.5539 100.914 84.9535 101.014L85.9584 101.261C86.5637 101.408 87.0147 101.632 87.3115 101.935C87.6082 102.235 87.7566 102.621 87.7566 103.094C87.7566 103.482 87.645 103.829 87.4217 104.134C87.2013 104.44 86.8928 104.681 86.4961 104.857C86.0994 105.033 85.6381 105.122 85.1122 105.122C84.4217 105.122 83.8502 104.972 83.3977 104.672C82.9452 104.372 82.6587 103.934 82.5382 103.359L83.5255 103.112C83.6195 103.476 83.7973 103.749 84.0588 103.932C84.3232 104.114 84.6685 104.205 85.0945 104.205C85.5794 104.205 85.9643 104.102 86.2493 103.896C86.5372 103.688 86.6812 103.438 86.6812 103.147C86.6812 102.912 86.5989 102.715 86.4344 102.556C86.2699 102.395 86.0172 102.274 85.6763 102.195L84.548 101.931C83.928 101.784 83.4726 101.556 83.1817 101.247C82.8938 100.936 82.7498 100.547 82.7498 100.079C82.7498 99.6974 82.857 99.3595 83.0715 99.0657C83.289 98.7719 83.5843 98.5412 83.9574 98.3737C84.3335 98.2063 84.7596 98.1225 85.2356 98.1225C85.9055 98.1225 86.4315 98.2694 86.8134 98.5633C87.1984 98.8571 87.4716 99.2449 87.6332 99.7268ZM93.5887 102.213V98.2107H94.6289V104.98H93.5887V103.835H93.5182C93.3596 104.178 93.1127 104.471 92.7778 104.712C92.4428 104.95 92.0197 105.069 91.5084 105.069C91.0853 105.069 90.7092 104.976 90.3801 104.791C90.0511 104.603 89.7925 104.321 89.6044 103.945C89.4164 103.566 89.3224 103.088 89.3224 102.512V98.2107H90.3625V102.442C90.3625 102.935 90.5006 103.329 90.7768 103.623C91.056 103.917 91.4115 104.064 91.8434 104.064C92.102 104.064 92.365 103.998 92.6323 103.865C92.9027 103.733 93.1289 103.53 93.3111 103.257C93.4962 102.984 93.5887 102.636 93.5887 102.213ZM96.534 104.98V98.2107H97.5389V99.2685H97.627C97.7681 98.907 97.9958 98.6264 98.3102 98.4266C98.6246 98.2239 99.0022 98.1225 99.4429 98.1225C99.8895 98.1225 100.261 98.2239 100.558 98.4266C100.858 98.6264 101.091 98.907 101.259 99.2685H101.329C101.503 98.9188 101.763 98.6411 102.109 98.4354C102.456 98.2268 102.872 98.1225 103.357 98.1225C103.962 98.1225 104.457 98.312 104.842 98.6911C105.227 99.0672 105.419 99.6534 105.419 100.45V104.98H104.379V100.45C104.379 99.9501 104.243 99.5931 103.969 99.3786C103.696 99.1641 103.374 99.0569 103.004 99.0569C102.528 99.0569 102.159 99.2009 101.898 99.4888C101.636 99.7738 101.506 100.135 101.506 100.573V104.98H100.448V100.344C100.448 99.9589 100.323 99.649 100.073 99.4139C99.8234 99.1759 99.5017 99.0569 99.1079 99.0569C98.8376 99.0569 98.5849 99.1289 98.3499 99.2729C98.1177 99.4168 97.9297 99.6166 97.7857 99.8723C97.6447 100.125 97.5742 100.417 97.5742 100.749V104.98H96.534ZM113.368 105.122C112.804 105.122 112.306 104.979 111.874 104.694C111.442 104.406 111.104 104.001 110.86 103.478C110.616 102.952 110.495 102.33 110.495 101.613C110.495 100.902 110.616 100.285 110.86 99.7621C111.104 99.2391 111.444 98.8351 111.878 98.55C112.313 98.265 112.816 98.1225 113.386 98.1225C113.827 98.1225 114.175 98.196 114.43 98.3429C114.689 98.4869 114.886 98.6514 115.021 98.8365C115.159 99.0187 115.266 99.1685 115.343 99.2861H115.431V95.9541H116.471V104.98H115.466V103.94H115.343C115.266 104.064 115.158 104.219 115.017 104.408C114.875 104.593 114.674 104.759 114.413 104.906C114.151 105.05 113.803 105.122 113.368 105.122ZM113.509 104.187C113.926 104.187 114.279 104.078 114.567 103.861C114.855 103.641 115.074 103.337 115.224 102.949C115.374 102.558 115.448 102.107 115.448 101.596C115.448 101.09 115.375 100.648 115.228 100.269C115.081 99.887 114.864 99.5902 114.576 99.3786C114.288 99.1641 113.932 99.0569 113.509 99.0569C113.068 99.0569 112.701 99.17 112.407 99.3963C112.116 99.6196 111.898 99.9237 111.751 100.309C111.607 100.691 111.535 101.12 111.535 101.596C111.535 102.077 111.608 102.515 111.755 102.909C111.905 103.3 112.125 103.611 112.416 103.843C112.71 104.073 113.074 104.187 113.509 104.187ZM121.271 105.122C120.659 105.122 120.123 104.976 119.662 104.685C119.204 104.394 118.845 103.987 118.587 103.464C118.331 102.941 118.203 102.33 118.203 101.631C118.203 100.926 118.331 100.31 118.587 99.7841C118.845 99.2582 119.204 98.8497 119.662 98.5589C120.123 98.268 120.659 98.1225 121.271 98.1225C121.882 98.1225 122.417 98.268 122.875 98.5589C123.336 98.8497 123.695 99.2582 123.95 99.7841C124.209 100.31 124.338 100.926 124.338 101.631C124.338 102.33 124.209 102.941 123.95 103.464C123.695 103.987 123.336 104.394 122.875 104.685C122.417 104.976 121.882 105.122 121.271 105.122ZM121.271 104.187C121.735 104.187 122.117 104.068 122.417 103.83C122.716 103.592 122.938 103.279 123.082 102.891C123.226 102.503 123.298 102.083 123.298 101.631C123.298 101.178 123.226 100.757 123.082 100.366C122.938 99.9751 122.716 99.6592 122.417 99.4183C122.117 99.1774 121.735 99.0569 121.271 99.0569C120.806 99.0569 120.424 99.1774 120.125 99.4183C119.825 99.6592 119.603 99.9751 119.459 100.366C119.315 100.757 119.243 101.178 119.243 101.631C119.243 102.083 119.315 102.503 119.459 102.891C119.603 103.279 119.825 103.592 120.125 103.83C120.424 104.068 120.806 104.187 121.271 104.187ZM126.966 95.9541V104.98H125.926V95.9541H126.966ZM131.621 105.122C131.01 105.122 130.474 104.976 130.013 104.685C129.554 104.394 129.196 103.987 128.937 103.464C128.682 102.941 128.554 102.33 128.554 101.631C128.554 100.926 128.682 100.31 128.937 99.7841C129.196 99.2582 129.554 98.8497 130.013 98.5589C130.474 98.268 131.01 98.1225 131.621 98.1225C132.233 98.1225 132.767 98.268 133.226 98.5589C133.687 98.8497 134.046 99.2582 134.301 99.7841C134.56 100.31 134.689 100.926 134.689 101.631C134.689 102.33 134.56 102.941 134.301 103.464C134.046 103.987 133.687 104.394 133.226 104.685C132.767 104.976 132.233 105.122 131.621 105.122ZM131.621 104.187C132.086 104.187 132.468 104.068 132.767 103.83C133.067 103.592 133.289 103.279 133.433 102.891C133.577 102.503 133.649 102.083 133.649 101.631C133.649 101.178 133.577 100.757 133.433 100.366C133.289 99.9751 133.067 99.6592 132.767 99.4183C132.468 99.1774 132.086 99.0569 131.621 99.0569C131.157 99.0569 130.775 99.1774 130.476 99.4183C130.176 99.6592 129.954 99.9751 129.81 100.366C129.666 100.757 129.594 101.178 129.594 101.631C129.594 102.083 129.666 102.503 129.81 102.891C129.954 103.279 130.176 103.592 130.476 103.83C130.775 104.068 131.157 104.187 131.621 104.187ZM136.277 104.98V98.2107H137.282V99.2332H137.352C137.476 98.8982 137.699 98.6264 138.022 98.4178C138.345 98.2092 138.71 98.1049 139.115 98.1049C139.192 98.1049 139.287 98.1064 139.402 98.1093C139.516 98.1122 139.603 98.1166 139.662 98.1225V99.1803C139.626 99.1715 139.546 99.1583 139.419 99.1406C139.296 99.1201 139.165 99.1098 139.027 99.1098C138.698 99.1098 138.404 99.1788 138.146 99.3169C137.89 99.4521 137.687 99.6401 137.537 99.8811C137.39 100.119 137.317 100.391 137.317 100.696V104.98H136.277Z" fill="white"/>
<path d="M84.7125 21.0144C82.7125 15.5144 80.5125 9.31445 83.2125 0.814453C76.9125 3.21445 72.3125 11.2144 72.3125 20.7144C72.3125 30.7144 77.4125 39.1145 84.2125 40.9145C88.9125 32.5145 87.0125 27.2144 84.7125 21.0144Z" fill="white"/>
<path d="M89.1125 0.314453C85.7125 8.21445 87.6125 13.3144 89.7125 19.2144C91.8125 25.1144 94.2125 31.7144 90.1125 41.0144C96.8125 39.0144 101.813 30.7145 101.813 20.8145C101.913 10.3145 96.3125 1.71445 89.1125 0.314453Z" fill="white"/>
<path d="M173.612 49.5137H0.511719V52.4137H173.612V49.5137Z" fill="#89503B"/>
<path d="M22.0109 99.4141H1.21094V102.414H22.0109V99.4141Z" fill="#89503B"/>
<path d="M173.011 99.4141H152.211V102.414H173.011V99.4141Z" fill="#89503B"/>
<path d="M66.8117 33.916C66.4117 33.016 65.5117 32.416 64.4117 32.416C62.9117 32.416 61.8117 33.616 61.8117 35.016C61.8117 36.516 63.0117 37.616 64.4117 37.616C65.2117 37.616 65.9117 37.216 66.4117 36.716C66.6117 39.216 65.4117 41.216 63.8117 42.216C61.8117 43.516 58.3117 43.616 55.2117 39.916C52.0117 36.116 43.1117 28.816 32.1117 28.616C24.5117 28.416 17.6117 31.716 11.6117 38.316C11.2117 38.816 11.0117 39.316 11.0117 40.016C11.0117 41.516 12.2117 42.616 13.6117 42.616C15.1117 42.616 16.2117 41.416 16.2117 40.016C16.2117 38.716 15.3117 37.616 14.0117 37.416C19.3117 32.216 25.4117 29.616 32.0117 29.816C42.6117 30.016 51.2117 37.016 54.2117 40.716C56.4117 43.316 58.7117 44.216 60.8117 44.216C62.1117 44.216 63.3117 43.816 64.3117 43.216C66.9117 41.716 68.7117 38.116 66.8117 33.916Z" fill="#89503B"/>
<path d="M3.70998 32.4156C2.50998 33.2156 2.10997 34.8156 3.00997 36.0156C3.80997 37.0156 5.20999 37.3156 6.30999 36.6156C9.80999 34.4156 17.11 29.9156 20.51 28.6156C20.41 28.6156 11.21 27.9156 3.70998 32.4156Z" fill="#89503B"/>
<path d="M6.1108 27.2147C14.9108 25.5147 24.4108 27.1147 24.4108 27.1147C17.5108 22.0147 10.3108 20.2147 6.0108 19.5147C3.8108 19.2147 1.8108 20.7147 1.5108 22.9147C1.2108 25.4147 3.5108 27.7147 6.1108 27.2147Z" fill="#89503B"/>
<path d="M162.51 38.4156C156.51 31.8156 149.61 28.5156 142.01 28.7156C131.01 28.9156 122.11 36.2156 118.91 40.0156C115.81 43.7156 112.31 43.6156 110.31 42.3156C108.71 41.3156 107.51 39.3156 107.71 36.8156C108.21 37.4156 108.91 37.7156 109.71 37.7156C111.21 37.7156 112.31 36.5156 112.31 35.1156C112.31 33.6156 111.11 32.5156 109.71 32.5156C108.61 32.5156 107.71 33.1156 107.31 34.0156C105.41 38.2156 107.21 41.8156 109.71 43.3156C110.61 43.9156 111.91 44.3156 113.21 44.3156C115.31 44.3156 117.61 43.4156 119.81 40.8156C122.91 37.1156 131.51 30.1156 142.01 29.9156C148.61 29.8156 154.61 32.3156 160.01 37.5156C158.81 37.7156 157.81 38.8156 157.81 40.1156C157.81 41.6156 159.01 42.7156 160.41 42.7156C161.91 42.7156 163.01 41.5156 163.01 40.1156C163.11 39.4156 162.91 38.9156 162.51 38.4156Z" fill="#89503B"/>
<path d="M170.511 32.4158C163.011 27.8158 153.811 28.6158 153.811 28.6158C157.211 29.9158 164.511 34.5158 168.011 36.6158C169.111 37.3158 170.511 37.0158 171.311 36.0158C172.111 34.8158 171.711 33.2158 170.511 32.4158Z" fill="#89503B"/>
<path d="M168.111 27.2151C170.711 27.7151 173.011 25.5151 172.711 22.8151C172.411 20.6151 170.411 19.1151 168.211 19.4151C163.911 20.1151 156.711 21.9151 149.811 27.0151C149.711 27.1151 159.211 25.5151 168.111 27.2151Z" fill="#89503B"/>
</svg>
