<svg width="154" height="54" viewBox="0 0 154 54" fill="none" xmlns="http://www.w3.org/2000/svg">
<path d="M8.592 36.884C7.12 36.884 5.864 36.556 4.824 35.9C3.8 35.228 3.016 34.316 2.472 33.164C1.944 32.012 1.68 30.708 1.68 29.252V8.468C1.68 7.028 1.952 5.732 2.496 4.58C3.056 3.428 3.856 2.516 4.896 1.844C5.936 1.172 7.168 0.835999 8.592 0.835999C9.664 0.835999 10.624 1.036 11.472 1.436C12.32 1.836 13.04 2.388 13.632 3.092C14.24 3.78 14.704 4.588 15.024 5.516C15.344 6.428 15.504 7.412 15.504 8.468V13.316H10.656V8.468C10.656 7.732 10.504 7.116 10.2 6.62C9.896 6.124 9.392 5.876 8.688 5.876C8.048 5.876 7.584 6.132 7.296 6.644C7.008 7.156 6.864 7.764 6.864 8.468V29.252C6.864 29.956 7.016 30.564 7.32 31.076C7.64 31.588 8.096 31.844 8.688 31.844C9.408 31.844 9.912 31.596 10.2 31.1C10.504 30.604 10.656 29.988 10.656 29.252V24.404H15.504V29.252C15.504 30.692 15.224 31.988 14.664 33.14C14.104 34.292 13.304 35.204 12.264 35.876C11.24 36.548 10.016 36.884 8.592 36.884ZM24.3791 36.836C22.4431 36.836 20.9231 36.188 19.8191 34.892C18.7151 33.58 18.1631 31.924 18.1631 29.924V16.772C18.1631 14.772 18.7151 13.124 19.8191 11.828C20.9231 10.516 22.4431 9.86 24.3791 9.86C26.2991 9.86 27.8111 10.516 28.9151 11.828C30.0351 13.124 30.5951 14.772 30.5951 16.772V29.924C30.5951 31.924 30.0351 33.58 28.9151 34.892C27.8111 36.188 26.2991 36.836 24.3791 36.836ZM24.3791 32.612C25.0031 32.612 25.4351 32.364 25.6751 31.868C25.9151 31.356 26.0351 30.708 26.0351 29.924V16.772C26.0351 15.972 25.9151 15.324 25.6751 14.828C25.4351 14.332 25.0031 14.084 24.3791 14.084C23.7551 14.084 23.3231 14.332 23.0831 14.828C22.8431 15.324 22.7231 15.972 22.7231 16.772V29.924C22.7231 30.724 22.8431 31.372 23.0831 31.868C23.3231 32.364 23.7551 32.612 24.3791 32.612ZM34.0005 36.5V14.612H31.5525V10.244H34.0005V8.804C34.0005 6.324 34.5765 4.412 35.7285 3.068C36.8965 1.708 38.4165 1.028 40.2885 1.028C40.7045 1.028 41.0885 1.068 41.4405 1.148C41.7925 1.228 42.0805 1.332 42.3045 1.46V5.684C41.9845 5.444 41.5045 5.324 40.8645 5.324C40.4005 5.324 39.9445 5.564 39.4965 6.044C39.0645 6.524 38.8485 7.236 38.8485 8.18V10.244H41.7765V14.612H38.8485V36.5H34.0005ZM44.9693 36.5V14.612H42.5213V10.244H44.9693V8.804C44.9693 6.324 45.5453 4.412 46.6973 3.068C47.8653 1.708 49.3853 1.028 51.2573 1.028C51.6733 1.028 52.0573 1.068 52.4093 1.148C52.7613 1.228 53.0493 1.332 53.2733 1.46V5.684C52.9533 5.444 52.4733 5.324 51.8333 5.324C51.3693 5.324 50.9133 5.564 50.4653 6.044C50.0333 6.524 49.8173 7.236 49.8173 8.18V10.244H52.7453V14.612H49.8173V36.5H44.9693ZM60.7313 36.884C58.7953 36.884 57.2673 36.22 56.1473 34.892C55.0433 33.548 54.4913 31.908 54.4913 29.972V16.772C54.4913 14.724 55.0433 13.06 56.1473 11.78C57.2513 10.5 58.7953 9.86 60.7793 9.86C62.0753 9.86 63.1873 10.156 64.1153 10.748C65.0593 11.34 65.7793 12.148 66.2753 13.172C66.7713 14.18 67.0193 15.332 67.0193 16.628V24.26H59.0033V29.972C59.0033 30.628 59.1473 31.236 59.4353 31.796C59.7393 32.34 60.1873 32.612 60.7793 32.612C61.4033 32.612 61.8433 32.356 62.0993 31.844C62.3713 31.332 62.5073 30.708 62.5073 29.972V27.092H67.0193V30.116C67.0193 32.148 66.4673 33.788 65.3633 35.036C64.2753 36.268 62.7313 36.884 60.7313 36.884ZM59.0033 20.468H62.5073V16.772C62.5073 16.052 62.3793 15.428 62.1233 14.9C61.8833 14.356 61.4353 14.084 60.7793 14.084C60.1713 14.084 59.7233 14.364 59.4353 14.924C59.1473 15.468 59.0033 16.084 59.0033 16.772V20.468ZM75.1688 36.884C73.2328 36.884 71.7048 36.22 70.5848 34.892C69.4808 33.548 68.9288 31.908 68.9288 29.972V16.772C68.9288 14.724 69.4808 13.06 70.5848 11.78C71.6888 10.5 73.2328 9.86 75.2168 9.86C76.5128 9.86 77.6248 10.156 78.5528 10.748C79.4968 11.34 80.2168 12.148 80.7128 13.172C81.2088 14.18 81.4568 15.332 81.4568 16.628V24.26H73.4408V29.972C73.4408 30.628 73.5848 31.236 73.8728 31.796C74.1768 32.34 74.6248 32.612 75.2168 32.612C75.8408 32.612 76.2808 32.356 76.5368 31.844C76.8088 31.332 76.9448 30.708 76.9448 29.972V27.092H81.4568V30.116C81.4568 32.148 80.9048 33.788 79.8008 35.036C78.7128 36.268 77.1688 36.884 75.1688 36.884ZM73.4408 20.468H76.9448V16.772C76.9448 16.052 76.8168 15.428 76.5608 14.9C76.3208 14.356 75.8728 14.084 75.2168 14.084C74.6088 14.084 74.1608 14.364 73.8728 14.924C73.5848 15.468 73.4408 16.084 73.4408 16.772V20.468ZM91.7325 36.5V1.22H98.3085L101.141 19.508L101.381 21.38H101.477L101.717 19.508L104.549 1.22H111.125V36.5H106.325V12.836H106.037L105.845 14.324L102.773 36.5H100.085L97.0125 14.324L96.8205 12.836H96.5325V36.5H91.7325ZM118.031 36.884C116.911 36.884 115.943 36.316 115.127 35.18C114.311 34.044 113.903 32.308 113.903 29.972C113.903 27.716 114.383 25.9 115.343 24.524C116.319 23.148 117.775 21.956 119.711 20.948C120.319 20.628 120.831 20.34 121.247 20.084C121.663 19.828 121.919 19.588 122.015 19.364V16.484C122.015 15.828 121.935 15.268 121.775 14.804C121.631 14.324 121.263 14.084 120.671 14.084C120.127 14.084 119.759 14.34 119.567 14.852C119.375 15.348 119.279 15.972 119.279 16.724V17.972H114.431V16.868C114.431 15.428 114.711 14.188 115.271 13.148C115.847 12.092 116.623 11.284 117.599 10.724C118.591 10.148 119.711 9.86 120.959 9.86C122.159 9.86 123.199 10.14 124.079 10.7C124.959 11.244 125.639 12.004 126.119 12.98C126.615 13.94 126.863 15.044 126.863 16.292V31.94C126.863 33.108 126.895 34.02 126.959 34.676C127.023 35.316 127.103 35.924 127.199 36.5H122.447C122.239 36.244 122.111 35.868 122.063 35.372C122.031 34.876 122.015 34.548 122.015 34.388H121.679C121.279 35.124 120.767 35.724 120.143 36.188C119.535 36.652 118.831 36.884 118.031 36.884ZM119.999 32.132C120.559 32.132 121.031 31.94 121.415 31.556C121.815 31.172 122.015 30.756 122.015 30.308V24.068C120.847 24.564 119.991 25.316 119.447 26.324C118.919 27.316 118.655 28.436 118.655 29.684C118.655 30.228 118.759 30.772 118.967 31.316C119.175 31.86 119.519 32.132 119.999 32.132ZM136.647 36.884C135.127 36.884 133.967 36.548 133.167 35.876C132.367 35.204 131.815 34.244 131.511 32.996C131.223 31.748 131.079 30.26 131.079 28.532V14.612H128.631V10.244H131.079V3.764H135.927V10.244H139.263V14.612H135.927V29.228C135.927 30.252 136.079 31.012 136.383 31.508C136.687 31.988 137.183 32.228 137.871 32.228C138.175 32.228 138.439 32.204 138.663 32.156C138.903 32.108 139.095 32.052 139.239 31.988V36.428C138.919 36.556 138.567 36.66 138.183 36.74C137.815 36.836 137.303 36.884 136.647 36.884ZM146.7 36.884C144.764 36.884 143.236 36.22 142.116 34.892C141.012 33.548 140.46 31.908 140.46 29.972V16.772C140.46 14.724 141.012 13.06 142.116 11.78C143.22 10.5 144.764 9.86 146.748 9.86C148.044 9.86 149.156 10.156 150.084 10.748C151.028 11.34 151.748 12.148 152.244 13.172C152.74 14.18 152.988 15.332 152.988 16.628V24.26H144.972V29.972C144.972 30.628 145.116 31.236 145.404 31.796C145.708 32.34 146.156 32.612 146.748 32.612C147.372 32.612 147.812 32.356 148.068 31.844C148.34 31.332 148.476 30.708 148.476 29.972V27.092H152.988V30.116C152.988 32.148 152.436 33.788 151.332 35.036C150.244 36.268 148.7 36.884 146.7 36.884ZM144.972 20.468H148.476V16.772C148.476 16.052 148.348 15.428 148.092 14.9C147.852 14.356 147.404 14.084 146.748 14.084C146.14 14.084 145.692 14.364 145.404 14.924C145.116 15.468 144.972 16.084 144.972 16.772V20.468Z" fill="#753C27"/>
<path d="M4.45977 50.5V41.19H9.55577V42.45H5.67777V45.278H8.28177V46.426H5.67777V49.24H9.55577V50.5H4.45977ZM16.2001 50.5V49.436C15.9014 49.7813 15.5561 50.0567 15.1641 50.262C14.7721 50.4673 14.3567 50.57 13.9181 50.57C13.4327 50.57 12.9754 50.4813 12.5461 50.304C12.1261 50.1267 11.7527 49.8747 11.4261 49.548C11.0994 49.2307 10.8427 48.8573 10.6561 48.428C10.4787 47.9893 10.3901 47.532 10.3901 47.056C10.3901 46.58 10.4787 46.1273 10.6561 45.698C10.8427 45.2593 11.0994 44.8767 11.4261 44.55C11.7527 44.2233 12.1261 43.9713 12.5461 43.794C12.9754 43.6167 13.4327 43.528 13.9181 43.528C14.3661 43.528 14.7861 43.6213 15.1781 43.808C15.5794 43.9947 15.9201 44.256 16.2001 44.592V43.668H17.4601V50.5H16.2001ZM13.9181 44.774C13.6101 44.774 13.3114 44.8347 13.0221 44.956C12.7421 45.068 12.4994 45.2267 12.2941 45.432C12.0887 45.6373 11.9254 45.8847 11.8041 46.174C11.6921 46.454 11.6361 46.748 11.6361 47.056C11.6361 47.364 11.6921 47.658 11.8041 47.938C11.9254 48.218 12.0887 48.4607 12.2941 48.666C12.4994 48.8713 12.7421 49.0347 13.0221 49.156C13.3114 49.268 13.6101 49.324 13.9181 49.324C14.2261 49.324 14.5201 49.268 14.8001 49.156C15.0801 49.0347 15.3227 48.8713 15.5281 48.666C15.7334 48.4607 15.8921 48.218 16.0041 47.938C16.1254 47.658 16.1861 47.364 16.1861 47.056C16.1861 46.748 16.1254 46.454 16.0041 46.174C15.8921 45.8847 15.7334 45.6373 15.5281 45.432C15.3227 45.2267 15.0801 45.068 14.8001 44.956C14.5201 44.8347 14.2261 44.774 13.9181 44.774ZM22.1108 45.586C22.0828 45.418 22.0221 45.2593 21.9288 45.11C21.7515 44.802 21.4015 44.648 20.8788 44.648C20.5988 44.648 20.3841 44.6807 20.2348 44.746C20.0388 44.8207 19.8895 44.928 19.7868 45.068C19.6935 45.208 19.6468 45.362 19.6468 45.53C19.6468 45.7353 19.7215 45.922 19.8708 46.09C20.0295 46.2673 20.2861 46.3607 20.6408 46.37C21.2661 46.398 21.7701 46.4727 22.1528 46.594C22.5448 46.7153 22.8435 46.9253 23.0488 47.224C23.2635 47.5227 23.3708 47.9427 23.3708 48.484C23.3708 49.0347 23.1608 49.5107 22.7408 49.912C22.5355 50.108 22.2928 50.2667 22.0128 50.388C21.7421 50.5093 21.4575 50.57 21.1588 50.57H20.9488C20.2021 50.57 19.6001 50.3553 19.1428 49.926C18.7695 49.5807 18.5361 49.0953 18.4428 48.47H19.6888C19.7355 48.694 19.8288 48.876 19.9688 49.016C20.1835 49.2213 20.4821 49.324 20.8648 49.324C20.9675 49.324 21.0421 49.3193 21.0888 49.31C21.4155 49.2913 21.6721 49.2027 21.8588 49.044C22.0455 48.876 22.1388 48.6707 22.1388 48.428C22.1388 48.092 22.0361 47.8727 21.8308 47.77C21.6255 47.6673 21.2288 47.616 20.6408 47.616C19.9035 47.616 19.3388 47.3827 18.9468 46.916C18.6295 46.5613 18.4708 46.1133 18.4708 45.572C18.4708 45.4507 18.4755 45.3573 18.4848 45.292C18.5595 44.6853 18.8068 44.2233 19.2268 43.906C19.6561 43.5793 20.2208 43.416 20.9208 43.416C21.4341 43.416 21.8821 43.528 22.2648 43.752C22.5355 43.92 22.7688 44.1533 22.9648 44.452C23.1515 44.7507 23.2728 45.124 23.3288 45.572L23.3008 45.586H22.1108ZM27.5238 53.482C26.9918 53.482 26.4971 53.3467 26.0398 53.076C25.5918 52.8053 25.1998 52.4133 24.8638 51.9L25.9558 51.27C26.1518 51.578 26.3851 51.8113 26.6558 51.97C26.9264 52.138 27.2158 52.222 27.5238 52.222C28.0184 52.222 28.4478 52.04 28.8118 51.676C28.9798 51.508 29.1058 51.312 29.1898 51.088C29.2831 50.864 29.3298 50.626 29.3298 50.374V49.884C29.1151 50.108 28.8444 50.29 28.5178 50.43C28.1911 50.5607 27.8598 50.626 27.5238 50.626C27.1131 50.626 26.7258 50.5513 26.3618 50.402C25.9978 50.2433 25.6758 50.024 25.3958 49.744C25.1064 49.464 24.8824 49.142 24.7238 48.778C24.5651 48.4047 24.4858 48.0127 24.4858 47.602V43.5H25.7178V47.518C25.7178 47.8447 25.7971 48.1527 25.9558 48.442C26.1238 48.722 26.3431 48.946 26.6138 49.114C26.8938 49.282 27.1971 49.366 27.5238 49.366C27.8504 49.366 28.1538 49.2867 28.4338 49.128C28.7138 48.96 28.9331 48.736 29.0918 48.456C29.2504 48.1667 29.3298 47.854 29.3298 47.518V43.5H30.5618V50.374C30.5618 50.794 30.4824 51.1953 30.3238 51.578C30.1744 51.9607 29.9598 52.292 29.6798 52.572C29.3904 52.8613 29.0591 53.0853 28.6858 53.244C28.3218 53.4027 27.9344 53.482 27.5238 53.482ZM39.5023 47.266V50.5H38.2703V41.19H40.8883C41.2803 41.19 41.6583 41.2693 42.0223 41.428C42.3863 41.5773 42.7083 41.792 42.9883 42.072C43.2683 42.3613 43.483 42.6927 43.6323 43.066C43.791 43.43 43.8703 43.8173 43.8703 44.228C43.8703 44.6387 43.791 45.0307 43.6323 45.404C43.483 45.768 43.2683 46.09 42.9883 46.37C42.7083 46.65 42.3863 46.8693 42.0223 47.028C41.6583 47.1867 41.2803 47.266 40.8883 47.266H39.5023ZM39.5023 42.464V46.02H40.8883C41.3736 46.02 41.7843 45.8427 42.1203 45.488C42.4656 45.1427 42.6383 44.7227 42.6383 44.228C42.6383 43.7427 42.4656 43.3273 42.1203 42.982C41.775 42.6367 41.3643 42.464 40.8883 42.464H39.5023ZM50.243 50.5V49.436C49.9444 49.7813 49.599 50.0567 49.207 50.262C48.815 50.4673 48.3997 50.57 47.961 50.57C47.4757 50.57 47.0184 50.4813 46.589 50.304C46.169 50.1267 45.7957 49.8747 45.469 49.548C45.1424 49.2307 44.8857 48.8573 44.699 48.428C44.5217 47.9893 44.433 47.532 44.433 47.056C44.433 46.58 44.5217 46.1273 44.699 45.698C44.8857 45.2593 45.1424 44.8767 45.469 44.55C45.7957 44.2233 46.169 43.9713 46.589 43.794C47.0184 43.6167 47.4757 43.528 47.961 43.528C48.409 43.528 48.829 43.6213 49.221 43.808C49.6224 43.9947 49.963 44.256 50.243 44.592V43.668H51.503V50.5H50.243ZM47.961 44.774C47.653 44.774 47.3544 44.8347 47.065 44.956C46.785 45.068 46.5424 45.2267 46.337 45.432C46.1317 45.6373 45.9684 45.8847 45.847 46.174C45.735 46.454 45.679 46.748 45.679 47.056C45.679 47.364 45.735 47.658 45.847 47.938C45.9684 48.218 46.1317 48.4607 46.337 48.666C46.5424 48.8713 46.785 49.0347 47.065 49.156C47.3544 49.268 47.653 49.324 47.961 49.324C48.269 49.324 48.563 49.268 48.843 49.156C49.123 49.0347 49.3657 48.8713 49.571 48.666C49.7764 48.4607 49.935 48.218 50.047 47.938C50.1684 47.658 50.229 47.364 50.229 47.056C50.229 46.748 50.1684 46.454 50.047 46.174C49.935 45.8847 49.7764 45.6373 49.571 45.432C49.3657 45.2267 49.123 45.068 48.843 44.956C48.563 44.8347 48.269 44.774 47.961 44.774ZM55.9858 50.57C55.5098 50.57 55.0571 50.4813 54.6278 50.304C54.2078 50.1173 53.8344 49.8607 53.5078 49.534C53.1904 49.2167 52.9384 48.8433 52.7518 48.414C52.5744 47.9753 52.4858 47.518 52.4858 47.042C52.4858 46.566 52.5744 46.1133 52.7518 45.684C52.9384 45.2453 53.1904 44.8673 53.5078 44.55C53.8344 44.2233 54.2078 43.9713 54.6278 43.794C55.0571 43.6073 55.5098 43.514 55.9858 43.514C57.0871 43.514 58.0204 43.9807 58.7858 44.914L57.6938 45.544C57.2084 45.0307 56.6391 44.774 55.9858 44.774C55.6778 44.774 55.3838 44.8347 55.1038 44.956C54.8331 45.068 54.5951 45.2267 54.3898 45.432C54.1844 45.6373 54.0211 45.88 53.8998 46.16C53.7784 46.44 53.7178 46.734 53.7178 47.042C53.7178 47.35 53.7784 47.644 53.8998 47.924C54.0211 48.204 54.1844 48.4467 54.3898 48.652C54.5951 48.8573 54.8331 49.0207 55.1038 49.142C55.3838 49.254 55.6778 49.31 55.9858 49.31C56.6391 49.31 57.2084 49.0533 57.6938 48.54L58.7858 49.17C58.0204 50.1033 57.0871 50.57 55.9858 50.57ZM63.4096 50.5L61.2816 47.91V50.5H60.0496V41.19H61.2816V45.208L63.1856 43.416H65.0196L61.7016 46.496L65.0336 50.5H63.4096ZM66.5178 42.492C66.3405 42.492 66.1865 42.4313 66.0558 42.31C65.9345 42.1793 65.8738 42.0253 65.8738 41.848C65.8738 41.6707 65.9345 41.5213 66.0558 41.4C66.1865 41.2693 66.3405 41.204 66.5178 41.204C66.6952 41.204 66.8445 41.2693 66.9658 41.4C67.0965 41.5213 67.1618 41.6707 67.1618 41.848C67.1618 42.0253 67.0965 42.1793 66.9658 42.31C66.8445 42.4313 66.6952 42.492 66.5178 42.492ZM65.9438 50.5V43.5H67.1198V50.5H65.9438ZM72.8932 50.5V46.3C72.8932 45.88 72.7392 45.516 72.4312 45.208C72.1325 44.9093 71.7685 44.76 71.3392 44.76C70.9192 44.76 70.5552 44.914 70.2472 45.222C70.1072 45.362 69.9952 45.53 69.9112 45.726C69.8272 45.9127 69.7852 46.104 69.7852 46.3V50.5H68.5672V43.668H69.7852V44.242C69.9625 44.0273 70.1959 43.85 70.4852 43.71C70.7745 43.57 71.0592 43.5 71.3392 43.5C71.7125 43.5 72.0672 43.5747 72.4032 43.724C72.7485 43.864 73.0519 44.0647 73.3132 44.326C73.5652 44.578 73.7612 44.8767 73.9012 45.222C74.0505 45.558 74.1252 45.9173 74.1252 46.3V50.5H72.8932ZM78.7775 53.482C77.6668 53.482 76.7055 52.9873 75.8935 51.998L76.9995 51.34C77.5035 51.928 78.0961 52.222 78.7775 52.222C79.0855 52.222 79.3795 52.1613 79.6595 52.04C79.9395 51.9187 80.1821 51.7507 80.3875 51.536C80.5928 51.3213 80.7515 51.074 80.8635 50.794C80.9848 50.514 81.0455 50.22 81.0455 49.912V49.576C80.4108 50.2853 79.6501 50.64 78.7635 50.64C78.2875 50.64 77.8301 50.542 77.3915 50.346C76.9621 50.1407 76.5888 49.8653 76.2715 49.52C75.9541 49.1747 75.7021 48.7827 75.5155 48.344C75.3381 47.9053 75.2495 47.4527 75.2495 46.986C75.2495 46.51 75.3381 46.062 75.5155 45.642C75.7021 45.2127 75.9588 44.8347 76.2855 44.508C76.6121 44.1907 76.9855 43.9433 77.4055 43.766C77.8348 43.5887 78.2875 43.5 78.7635 43.5C79.2768 43.5 79.7341 43.612 80.1355 43.836C80.5368 44.06 80.8401 44.312 81.0455 44.592V43.626H82.3055V49.912C82.3055 50.3973 82.2121 50.8547 82.0255 51.284C81.8481 51.7133 81.5961 52.096 81.2695 52.432C80.9521 52.7587 80.5741 53.0153 80.1355 53.202C79.7061 53.3887 79.2535 53.482 78.7775 53.482ZM78.7635 44.774C78.4555 44.774 78.1615 44.8347 77.8815 44.956C77.6015 45.068 77.3588 45.2313 77.1535 45.446C76.9481 45.6607 76.7848 45.9127 76.6635 46.202C76.5421 46.482 76.4815 46.776 76.4815 47.084C76.4815 47.392 76.5421 47.6907 76.6635 47.98C76.7848 48.26 76.9481 48.5027 77.1535 48.708C77.3588 48.9133 77.6015 49.0767 77.8815 49.198C78.1615 49.3193 78.4555 49.38 78.7635 49.38C79.0715 49.38 79.3655 49.3193 79.6455 49.198C79.9255 49.0767 80.1681 48.9133 80.3735 48.708C80.5788 48.5027 80.7375 48.26 80.8495 47.98C80.9708 47.6907 81.0315 47.392 81.0315 47.084C81.0315 46.776 80.9708 46.482 80.8495 46.202C80.7375 45.9127 80.5788 45.6607 80.3735 45.446C80.1681 45.2313 79.9255 45.068 79.6455 44.956C79.3655 44.8347 79.0715 44.774 78.7635 44.774ZM96.4027 50.5L95.2547 47.224H92.3427L91.1947 50.5H89.8647L93.0987 41.204H94.4987L97.7327 50.5H96.4027ZM93.7987 43.01L92.7347 46.048H94.8487L93.7987 43.01ZM103.313 50.5V46.3C103.313 45.88 103.159 45.516 102.851 45.208C102.552 44.9093 102.188 44.76 101.759 44.76C101.339 44.76 100.975 44.914 100.667 45.222C100.527 45.362 100.415 45.53 100.331 45.726C100.247 45.9127 100.205 46.104 100.205 46.3V50.5H98.9871V43.668H100.205V44.242C100.382 44.0273 100.616 43.85 100.905 43.71C101.194 43.57 101.479 43.5 101.759 43.5C102.132 43.5 102.487 43.5747 102.823 43.724C103.168 43.864 103.472 44.0647 103.733 44.326C103.985 44.578 104.181 44.8767 104.321 45.222C104.47 45.558 104.545 45.9173 104.545 46.3V50.5H103.313ZM108.707 53.482C108.175 53.482 107.681 53.3467 107.223 53.076C106.775 52.8053 106.383 52.4133 106.047 51.9L107.139 51.27C107.335 51.578 107.569 51.8113 107.839 51.97C108.11 52.138 108.399 52.222 108.707 52.222C109.202 52.222 109.631 52.04 109.995 51.676C110.163 51.508 110.289 51.312 110.373 51.088C110.467 50.864 110.513 50.626 110.513 50.374V49.884C110.299 50.108 110.028 50.29 109.701 50.43C109.375 50.5607 109.043 50.626 108.707 50.626C108.297 50.626 107.909 50.5513 107.545 50.402C107.181 50.2433 106.859 50.024 106.579 49.744C106.29 49.464 106.066 49.142 105.907 48.778C105.749 48.4047 105.669 48.0127 105.669 47.602V43.5H106.901V47.518C106.901 47.8447 106.981 48.1527 107.139 48.442C107.307 48.722 107.527 48.946 107.797 49.114C108.077 49.282 108.381 49.366 108.707 49.366C109.034 49.366 109.337 49.2867 109.617 49.128C109.897 48.96 110.117 48.736 110.275 48.456C110.434 48.1667 110.513 47.854 110.513 47.518V43.5H111.745V50.374C111.745 50.794 111.666 51.1953 111.507 51.578C111.358 51.9607 111.143 52.292 110.863 52.572C110.574 52.8613 110.243 53.0853 109.869 53.244C109.505 53.4027 109.118 53.482 108.707 53.482ZM119.454 50.5V41.19H120.63V50.5H119.454ZM124.124 44.76V50.5H122.934V44.76H121.884V43.5H122.934V41.19H124.124V43.5H125.174V44.76H124.124ZM127.22 47.532C127.22 47.756 127.3 47.9893 127.458 48.232C127.626 48.4747 127.818 48.68 128.032 48.848C128.424 49.156 128.882 49.31 129.404 49.31C130.235 49.31 130.912 48.9087 131.434 48.106L132.498 48.736C132.134 49.324 131.686 49.7767 131.154 50.094C130.622 50.4113 130.039 50.57 129.404 50.57C128.928 50.57 128.476 50.4813 128.046 50.304C127.617 50.1173 127.239 49.8607 126.912 49.534C126.586 49.2073 126.329 48.8293 126.142 48.4C125.965 47.9707 125.876 47.518 125.876 47.042C125.876 46.566 125.965 46.1133 126.142 45.684C126.329 45.2453 126.586 44.8627 126.912 44.536C127.23 44.2093 127.603 43.9573 128.032 43.78C128.471 43.6027 128.928 43.514 129.404 43.514C129.88 43.514 130.333 43.6027 130.762 43.78C131.201 43.9573 131.579 44.2093 131.896 44.536C132.587 45.2453 132.932 46.0667 132.932 47C132.932 47.168 132.918 47.3453 132.89 47.532H127.22ZM129.404 44.662C129.022 44.662 128.662 44.746 128.326 44.914C127.99 45.082 127.72 45.306 127.514 45.586C127.318 45.8567 127.22 46.146 127.22 46.454H131.588C131.588 46.146 131.486 45.8567 131.28 45.586C131.084 45.306 130.818 45.082 130.482 44.914C130.146 44.746 129.787 44.662 129.404 44.662ZM142.242 50.5V46.118C142.242 45.7353 142.107 45.4133 141.836 45.152C141.575 44.8907 141.253 44.76 140.87 44.76C140.497 44.76 140.17 44.8907 139.89 45.152C139.62 45.404 139.484 45.7213 139.484 46.104V50.5H138.21V46.104C138.21 45.712 138.08 45.3947 137.818 45.152C137.538 44.8907 137.207 44.76 136.824 44.76C136.451 44.76 136.134 44.8907 135.872 45.152C135.592 45.432 135.452 45.7633 135.452 46.146V50.5H134.192V43.668H135.452V44.186C135.611 43.99 135.816 43.8267 136.068 43.696C136.33 43.5653 136.582 43.5 136.824 43.5C137.235 43.5 137.608 43.584 137.944 43.752C138.29 43.9107 138.588 44.1347 138.84 44.424C139.092 44.1347 139.391 43.9107 139.736 43.752C140.082 43.584 140.46 43.5 140.87 43.5C141.234 43.5 141.575 43.5653 141.892 43.696C142.21 43.8267 142.49 44.0133 142.732 44.256C142.975 44.4987 143.162 44.7833 143.292 45.11C143.432 45.4273 143.502 45.7633 143.502 46.118V50.5H142.242ZM148.425 45.586C148.397 45.418 148.337 45.2593 148.243 45.11C148.066 44.802 147.716 44.648 147.193 44.648C146.913 44.648 146.699 44.6807 146.549 44.746C146.353 44.8207 146.204 44.928 146.101 45.068C146.008 45.208 145.961 45.362 145.961 45.53C145.961 45.7353 146.036 45.922 146.185 46.09C146.344 46.2673 146.601 46.3607 146.955 46.37C147.581 46.398 148.085 46.4727 148.467 46.594C148.859 46.7153 149.158 46.9253 149.363 47.224C149.578 47.5227 149.685 47.9427 149.685 48.484C149.685 49.0347 149.475 49.5107 149.055 49.912C148.85 50.108 148.607 50.2667 148.327 50.388C148.057 50.5093 147.772 50.57 147.473 50.57H147.263C146.517 50.57 145.915 50.3553 145.457 49.926C145.084 49.5807 144.851 49.0953 144.757 48.47H146.003C146.05 48.694 146.143 48.876 146.283 49.016C146.498 49.2213 146.797 49.324 147.179 49.324C147.282 49.324 147.357 49.3193 147.403 49.31C147.73 49.2913 147.987 49.2027 148.173 49.044C148.36 48.876 148.453 48.6707 148.453 48.428C148.453 48.092 148.351 47.8727 148.145 47.77C147.94 47.6673 147.543 47.616 146.955 47.616C146.218 47.616 145.653 47.3827 145.261 46.916C144.944 46.5613 144.785 46.1133 144.785 45.572C144.785 45.4507 144.79 45.3573 144.799 45.292C144.874 44.6853 145.121 44.2233 145.541 43.906C145.971 43.5793 146.535 43.416 147.235 43.416C147.749 43.416 148.197 43.528 148.579 43.752C148.85 43.92 149.083 44.1533 149.279 44.452C149.466 44.7507 149.587 45.124 149.643 45.572L149.615 45.586H148.425Z" fill="#101111"/>
</svg>
