<svg width="178" height="50" viewBox="0 0 178 50" fill="none" xmlns="http://www.w3.org/2000/svg">
<g clip-path="url(#clip0_1129_24050)">
<rect width="45" height="45" transform="translate(0 2)" fill="#E42E3B"/>
<path d="M30.4316 27.4336H5.14258C4.51104 27.4336 4 27.9446 4 28.5762V44.5723C4 46.4624 5.53761 48 7.42773 48H28.1465C30.0366 48 31.5742 46.4624 31.5742 44.5723V28.5762C31.5742 27.9446 31.0632 27.4336 30.4316 27.4336ZM24.5664 34.2891C24.5664 38.0694 21.4913 41.1445 17.7109 41.1445C13.9306 41.1445 10.8555 38.0694 10.8555 34.2891V33.1465C10.8555 32.5149 11.3665 32.0039 11.998 32.0039C12.6296 32.0039 13.1406 32.5149 13.1406 33.1465V34.2891C13.1406 36.8097 15.1903 38.8594 17.7109 38.8594C20.2315 38.8594 22.2812 36.8097 22.2812 34.2891V33.1465C22.2812 32.5149 22.7923 32.0039 23.4238 32.0039C24.0554 32.0039 24.5664 32.5149 24.5664 33.1465V34.2891Z" fill="white"/>
<path d="M41.8574 18.293H35.9922V15.8555C35.9922 12.0751 32.9171 9 29.1367 9C25.3564 9 22.2812 12.0751 22.2812 15.8555V18.293H16.416C15.7845 18.293 15.2734 18.804 15.2734 19.4355V25.1484H30.4316C32.3218 25.1484 33.8594 26.686 33.8594 28.5762V44.5723C33.8594 45.8632 33.4126 47.0422 32.6876 48H39.5723C41.4624 48 43 46.4624 43 44.5723V19.4355C43 18.804 42.489 18.293 41.8574 18.293ZM33.707 18.293H24.5664V15.8555C24.5664 13.3349 26.6161 11.2852 29.1367 11.2852C31.6573 11.2852 33.707 13.3349 33.707 15.8555V18.293Z" fill="white"/>
</g>
<path d="M56.588 33V29.48H72.12V33H56.588ZM56.588 5.72V2.2H72.12V5.72H56.588ZM56.588 18.04V14.52H71.24V18.04H56.588ZM54.52 2.2H58.26V33H54.52V2.2ZM84.2114 17.82H88.3914L99.3914 33H94.7714L84.2114 17.82ZM78.7114 2.2H82.4514V33H78.7114V2.2ZM80.7794 5.5V2.2H87.0714C89.0661 2.2 90.8407 2.58133 92.3954 3.344C93.9794 4.07733 95.2261 5.13333 96.1354 6.512C97.0741 7.89067 97.5434 9.53333 97.5434 11.44C97.5434 13.3173 97.0741 14.96 96.1354 16.368C95.2261 17.7467 93.9794 18.8173 92.3954 19.58C90.8407 20.3133 89.0661 20.68 87.0714 20.68H80.7794V17.38H87.0714C88.3914 17.38 89.5501 17.1453 90.5474 16.676C91.5741 16.2067 92.3661 15.532 92.9234 14.652C93.5101 13.772 93.8034 12.7013 93.8034 11.44C93.8034 10.1787 93.5101 9.108 92.9234 8.228C92.3661 7.348 91.5741 6.67333 90.5474 6.204C89.5501 5.73467 88.3914 5.5 87.0714 5.5H80.7794ZM126.653 2.2H130.393V34.54L107.073 10.076V33H103.333V0.659999L126.653 25.124V2.2ZM140.398 23.76L141.718 20.24H155.358L156.678 23.76H140.398ZM148.45 9.152L143.258 21.384L142.906 22.176L138.33 33H134.15L148.45 0.659999L162.75 33H158.57L154.082 22.44L153.73 21.56L148.45 9.152ZM168.489 31.24C168.489 30.5653 168.723 29.9933 169.193 29.524C169.691 29.0547 170.263 28.82 170.909 28.82C171.583 28.82 172.155 29.0547 172.625 29.524C173.094 29.9933 173.329 30.5653 173.329 31.24C173.329 31.8853 173.094 32.4573 172.625 32.956C172.155 33.4253 171.583 33.66 170.909 33.66C170.263 33.66 169.691 33.4253 169.193 32.956C168.723 32.4573 168.489 31.8853 168.489 31.24Z" fill="#E42E3B"/>
<path d="M62.3481 47L58.4481 40.656V47H57.2911V38.355H58.4221L62.4521 44.881V38.355H63.5961V47H62.3481ZM68.0546 47.065C67.6126 47.065 67.1923 46.9783 66.7936 46.805C66.3949 46.6317 66.0439 46.3933 65.7406 46.09C65.4373 45.7867 65.1989 45.4357 65.0256 45.037C64.8523 44.6383 64.7656 44.218 64.7656 43.776C64.7656 43.3253 64.8523 42.8963 65.0256 42.489C65.1989 42.0817 65.4373 41.7263 65.7406 41.423C66.0439 41.1197 66.3949 40.8857 66.7936 40.721C67.1923 40.5477 67.6126 40.461 68.0546 40.461C68.5053 40.461 68.9343 40.5477 69.3416 40.721C69.7489 40.8857 70.1043 41.1197 70.4076 41.423C70.7109 41.7263 70.9449 42.0817 71.1096 42.489C71.2829 42.8963 71.3696 43.3253 71.3696 43.776C71.3696 44.218 71.2829 44.6383 71.1096 45.037C70.9449 45.4357 70.7109 45.7867 70.4076 46.09C70.1043 46.3933 69.7489 46.6317 69.3416 46.805C68.9343 46.9783 68.5053 47.065 68.0546 47.065ZM68.0546 41.618C67.4739 41.618 66.9756 41.826 66.5596 42.242C66.3603 42.4413 66.2043 42.6753 66.0916 42.944C65.9789 43.2127 65.9226 43.49 65.9226 43.776C65.9226 44.062 65.9789 44.335 66.0916 44.595C66.2043 44.855 66.3603 45.0847 66.5596 45.284C66.7589 45.4833 66.9843 45.6393 67.2356 45.752C67.4956 45.8647 67.7686 45.921 68.0546 45.921C68.3406 45.921 68.6179 45.8647 68.8866 45.752C69.1553 45.6393 69.3849 45.4833 69.5756 45.284C69.7663 45.0847 69.9179 44.855 70.0306 44.595C70.1433 44.335 70.1996 44.062 70.1996 43.776C70.1996 43.49 70.1433 43.2127 70.0306 42.944C69.9179 42.6753 69.7663 42.4413 69.5756 42.242C69.3849 42.0427 69.1553 41.891 68.8866 41.787C68.6266 41.6743 68.3493 41.618 68.0546 41.618ZM79.1417 47H78.0107L76.8277 44.062L75.6447 47H74.5137L71.8877 40.5H73.1617L75.0727 45.245L76.1907 42.502L75.3847 40.5H76.6587L78.5697 45.245L80.4807 40.5H81.7417L79.1417 47ZM93.3778 41.02C93.3345 40.682 93.2435 40.4047 93.1048 40.188C92.9488 39.954 92.7538 39.785 92.5198 39.681C92.2945 39.5683 92.0041 39.512 91.6488 39.512C91.0595 39.512 90.6478 39.6377 90.4138 39.889C90.1885 40.1143 90.0758 40.4393 90.0758 40.864C90.0758 41.1067 90.1105 41.306 90.1798 41.462C90.2491 41.6093 90.3531 41.7307 90.4918 41.826C90.6998 41.9733 91.0421 42.0687 91.5188 42.112C92.0041 42.1553 92.4115 42.2247 92.7408 42.32C93.0788 42.4067 93.3735 42.528 93.6248 42.684C94.2575 43.0827 94.5738 43.7067 94.5738 44.556C94.5738 44.8853 94.5088 45.1973 94.3788 45.492C94.2488 45.7867 94.0668 46.051 93.8328 46.285C93.5555 46.5537 93.2261 46.753 92.8448 46.883C92.4721 47.013 92.0821 47.078 91.6748 47.078C90.7561 47.078 90.0238 46.818 89.4778 46.298C89.0098 45.83 88.7281 45.206 88.6328 44.426L88.6588 44.413H89.8028C89.8721 44.8723 90.0281 45.2147 90.2708 45.44C90.6088 45.752 91.0638 45.908 91.6358 45.908C92.1818 45.908 92.6151 45.7823 92.9358 45.531C93.2565 45.2797 93.4168 44.9547 93.4168 44.556C93.4168 44.374 93.3908 44.218 93.3388 44.088C93.2955 43.9493 93.2088 43.828 93.0788 43.724C92.7841 43.4987 92.2338 43.3557 91.4278 43.295C90.6045 43.2257 89.9805 42.9873 89.5558 42.58C89.1311 42.1727 88.9188 41.6007 88.9188 40.864C88.9188 40.1187 89.1485 39.5163 89.6078 39.057C90.0931 38.5717 90.7691 38.329 91.6358 38.329C92.5371 38.329 93.2391 38.602 93.7418 39.148C94.1838 39.6247 94.4525 40.2487 94.5478 41.02H93.3778ZM99.7622 47V43.009C99.7622 42.6017 99.6192 42.255 99.3332 41.969C99.2032 41.839 99.0472 41.735 98.8652 41.657C98.6919 41.579 98.5142 41.54 98.3322 41.54C97.9422 41.54 97.6042 41.683 97.3182 41.969C97.0322 42.255 96.8892 42.6017 96.8892 43.009V47H95.7452V38.329H96.8892V40.955C97.3052 40.565 97.7862 40.37 98.3322 40.37C98.6789 40.37 99.0082 40.4393 99.3202 40.578C99.6322 40.708 99.9095 40.8943 100.152 41.137C100.386 41.3797 100.568 41.6657 100.698 41.995C100.837 42.3157 100.906 42.6537 100.906 43.009V47H99.7622ZM105.366 47.065C104.924 47.065 104.504 46.9783 104.105 46.805C103.706 46.6317 103.355 46.3933 103.052 46.09C102.749 45.7867 102.51 45.4357 102.337 45.037C102.164 44.6383 102.077 44.218 102.077 43.776C102.077 43.3253 102.164 42.8963 102.337 42.489C102.51 42.0817 102.749 41.7263 103.052 41.423C103.355 41.1197 103.706 40.8857 104.105 40.721C104.504 40.5477 104.924 40.461 105.366 40.461C105.817 40.461 106.246 40.5477 106.653 40.721C107.06 40.8857 107.416 41.1197 107.719 41.423C108.022 41.7263 108.256 42.0817 108.421 42.489C108.594 42.8963 108.681 43.3253 108.681 43.776C108.681 44.218 108.594 44.6383 108.421 45.037C108.256 45.4357 108.022 45.7867 107.719 46.09C107.416 46.3933 107.06 46.6317 106.653 46.805C106.246 46.9783 105.817 47.065 105.366 47.065ZM105.366 41.618C104.785 41.618 104.287 41.826 103.871 42.242C103.672 42.4413 103.516 42.6753 103.403 42.944C103.29 43.2127 103.234 43.49 103.234 43.776C103.234 44.062 103.29 44.335 103.403 44.595C103.516 44.855 103.672 45.0847 103.871 45.284C104.07 45.4833 104.296 45.6393 104.547 45.752C104.807 45.8647 105.08 45.921 105.366 45.921C105.652 45.921 105.929 45.8647 106.198 45.752C106.467 45.6393 106.696 45.4833 106.887 45.284C107.078 45.0847 107.229 44.855 107.342 44.595C107.455 44.335 107.511 44.062 107.511 43.776C107.511 43.49 107.455 43.2127 107.342 42.944C107.229 42.6753 107.078 42.4413 106.887 42.242C106.696 42.0427 106.467 41.891 106.198 41.787C105.938 41.6743 105.661 41.618 105.366 41.618ZM113.139 47.117C112.645 47.117 112.233 47.039 111.904 46.883C111.574 46.7183 111.275 46.4627 111.007 46.116V49.769H109.85V40.656H111.007V41.566C111.275 41.2367 111.596 40.9723 111.969 40.773C112.341 40.5737 112.731 40.474 113.139 40.474C113.581 40.474 114.001 40.5607 114.4 40.734C114.807 40.8987 115.158 41.137 115.453 41.449C115.756 41.761 115.99 42.1207 116.155 42.528C116.328 42.9267 116.415 43.3513 116.415 43.802C116.415 44.2527 116.328 44.6773 116.155 45.076C115.99 45.4747 115.756 45.83 115.453 46.142C115.158 46.4453 114.807 46.6837 114.4 46.857C114.001 47.0303 113.581 47.117 113.139 47.117ZM113.139 41.657C112.853 41.657 112.58 41.7133 112.32 41.826C112.06 41.93 111.834 42.0817 111.644 42.281C111.453 42.4803 111.301 42.7143 111.189 42.983C111.076 43.243 111.02 43.516 111.02 43.802C111.02 44.088 111.076 44.361 111.189 44.621C111.301 44.881 111.453 45.1107 111.644 45.31C111.834 45.5093 112.06 45.6653 112.32 45.778C112.58 45.8907 112.853 45.947 113.139 45.947C113.425 45.947 113.698 45.8907 113.958 45.778C114.218 45.6653 114.443 45.5093 114.634 45.31C114.824 45.1107 114.972 44.881 115.076 44.621C115.188 44.361 115.245 44.088 115.245 43.802C115.245 43.516 115.188 43.243 115.076 42.983C114.972 42.7143 114.824 42.4803 114.634 42.281C114.443 42.0817 114.218 41.93 113.958 41.826C113.698 41.7133 113.425 41.657 113.139 41.657ZM120.87 47.117C120.376 47.117 119.964 47.039 119.635 46.883C119.306 46.7183 119.007 46.4627 118.738 46.116V49.769H117.581V40.656H118.738V41.566C119.007 41.2367 119.327 40.9723 119.7 40.773C120.073 40.5737 120.463 40.474 120.87 40.474C121.312 40.474 121.732 40.5607 122.131 40.734C122.538 40.8987 122.889 41.137 123.184 41.449C123.487 41.761 123.721 42.1207 123.886 42.528C124.059 42.9267 124.146 43.3513 124.146 43.802C124.146 44.2527 124.059 44.6773 123.886 45.076C123.721 45.4747 123.487 45.83 123.184 46.142C122.889 46.4453 122.538 46.6837 122.131 46.857C121.732 47.0303 121.312 47.117 120.87 47.117ZM120.87 41.657C120.584 41.657 120.311 41.7133 120.051 41.826C119.791 41.93 119.566 42.0817 119.375 42.281C119.184 42.4803 119.033 42.7143 118.92 42.983C118.807 43.243 118.751 43.516 118.751 43.802C118.751 44.088 118.807 44.361 118.92 44.621C119.033 44.881 119.184 45.1107 119.375 45.31C119.566 45.5093 119.791 45.6653 120.051 45.778C120.311 45.8907 120.584 45.947 120.87 45.947C121.156 45.947 121.429 45.8907 121.689 45.778C121.949 45.6653 122.174 45.5093 122.365 45.31C122.556 45.1107 122.703 44.881 122.807 44.621C122.92 44.361 122.976 44.088 122.976 43.802C122.976 43.516 122.92 43.243 122.807 42.983C122.703 42.7143 122.556 42.4803 122.365 42.281C122.174 42.0817 121.949 41.93 121.689 41.826C121.429 41.7133 121.156 41.657 120.87 41.657ZM125.657 39.564C125.492 39.564 125.349 39.5077 125.228 39.395C125.115 39.2737 125.059 39.1307 125.059 38.966C125.059 38.8013 125.115 38.6627 125.228 38.55C125.349 38.4287 125.492 38.368 125.657 38.368C125.821 38.368 125.96 38.4287 126.073 38.55C126.194 38.6627 126.255 38.8013 126.255 38.966C126.255 39.1307 126.194 39.2737 126.073 39.395C125.96 39.5077 125.821 39.564 125.657 39.564ZM125.124 47V40.5H126.216V47H125.124ZM131.577 47V43.1C131.577 42.71 131.434 42.372 131.148 42.086C130.87 41.8087 130.532 41.67 130.134 41.67C129.744 41.67 129.406 41.813 129.12 42.099C128.99 42.229 128.886 42.385 128.808 42.567C128.73 42.7403 128.691 42.918 128.691 43.1V47H127.56V40.656H128.691V41.189C128.855 40.9897 129.072 40.825 129.341 40.695C129.609 40.565 129.874 40.5 130.134 40.5C130.48 40.5 130.81 40.5693 131.122 40.708C131.442 40.838 131.724 41.0243 131.967 41.267C132.201 41.501 132.383 41.7783 132.513 42.099C132.651 42.411 132.721 42.7447 132.721 43.1V47H131.577ZM137.041 49.769C136.009 49.769 135.117 49.3097 134.363 48.391L135.39 47.78C135.858 48.326 136.408 48.599 137.041 48.599C137.327 48.599 137.6 48.5427 137.86 48.43C138.12 48.3173 138.345 48.1613 138.536 47.962C138.726 47.7627 138.874 47.533 138.978 47.273C139.09 47.013 139.147 46.74 139.147 46.454V46.142C138.557 46.8007 137.851 47.13 137.028 47.13C136.586 47.13 136.161 47.039 135.754 46.857C135.355 46.6663 135.008 46.4107 134.714 46.09C134.419 45.7693 134.185 45.4053 134.012 44.998C133.847 44.5907 133.765 44.1703 133.765 43.737C133.765 43.295 133.847 42.879 134.012 42.489C134.185 42.0903 134.423 41.7393 134.727 41.436C135.03 41.1413 135.377 40.9117 135.767 40.747C136.165 40.5823 136.586 40.5 137.028 40.5C137.504 40.5 137.929 40.604 138.302 40.812C138.674 41.02 138.956 41.254 139.147 41.514V40.617H140.317V46.454C140.317 46.9047 140.23 47.3293 140.057 47.728C139.892 48.1267 139.658 48.482 139.355 48.794C139.06 49.0973 138.709 49.3357 138.302 49.509C137.903 49.6823 137.483 49.769 137.041 49.769ZM137.028 41.683C136.742 41.683 136.469 41.7393 136.209 41.852C135.949 41.956 135.723 42.1077 135.533 42.307C135.342 42.5063 135.19 42.7403 135.078 43.009C134.965 43.269 134.909 43.542 134.909 43.828C134.909 44.114 134.965 44.3913 135.078 44.66C135.19 44.92 135.342 45.1453 135.533 45.336C135.723 45.5267 135.949 45.6783 136.209 45.791C136.469 45.9037 136.742 45.96 137.028 45.96C137.314 45.96 137.587 45.9037 137.847 45.791C138.107 45.6783 138.332 45.5267 138.523 45.336C138.713 45.1453 138.861 44.92 138.965 44.66C139.077 44.3913 139.134 44.114 139.134 43.828C139.134 43.542 139.077 43.269 138.965 43.009C138.861 42.7403 138.713 42.5063 138.523 42.307C138.332 42.1077 138.107 41.956 137.847 41.852C137.587 41.7393 137.314 41.683 137.028 41.683ZM147.466 47V38.355H152.198V39.525H148.597V42.151H151.015V43.217H148.597V45.83H152.198V47H147.466ZM158.368 47V46.012C158.09 46.3327 157.77 46.5883 157.406 46.779C157.042 46.9697 156.656 47.065 156.249 47.065C155.798 47.065 155.373 46.9827 154.975 46.818C154.585 46.6533 154.238 46.4193 153.935 46.116C153.631 45.8213 153.393 45.4747 153.22 45.076C153.055 44.6687 152.973 44.244 152.973 43.802C152.973 43.36 153.055 42.9397 153.22 42.541C153.393 42.1337 153.631 41.7783 153.935 41.475C154.238 41.1717 154.585 40.9377 154.975 40.773C155.373 40.6083 155.798 40.526 156.249 40.526C156.665 40.526 157.055 40.6127 157.419 40.786C157.791 40.9593 158.108 41.202 158.368 41.514V40.656H159.538V47H158.368ZM156.249 41.683C155.963 41.683 155.685 41.7393 155.417 41.852C155.157 41.956 154.931 42.1033 154.741 42.294C154.55 42.4847 154.398 42.7143 154.286 42.983C154.182 43.243 154.13 43.516 154.13 43.802C154.13 44.088 154.182 44.361 154.286 44.621C154.398 44.881 154.55 45.1063 154.741 45.297C154.931 45.4877 155.157 45.6393 155.417 45.752C155.685 45.856 155.963 45.908 156.249 45.908C156.535 45.908 156.808 45.856 157.068 45.752C157.328 45.6393 157.553 45.4877 157.744 45.297C157.934 45.1063 158.082 44.881 158.186 44.621C158.298 44.361 158.355 44.088 158.355 43.802C158.355 43.516 158.298 43.243 158.186 42.983C158.082 42.7143 157.934 42.4847 157.744 42.294C157.553 42.1033 157.328 41.956 157.068 41.852C156.808 41.7393 156.535 41.683 156.249 41.683ZM163.856 42.437C163.83 42.281 163.774 42.1337 163.687 41.995C163.523 41.709 163.198 41.566 162.712 41.566C162.452 41.566 162.253 41.5963 162.114 41.657C161.932 41.7263 161.794 41.826 161.698 41.956C161.612 42.086 161.568 42.229 161.568 42.385C161.568 42.5757 161.638 42.749 161.776 42.905C161.924 43.0697 162.162 43.1563 162.491 43.165C163.072 43.191 163.54 43.2603 163.895 43.373C164.259 43.4857 164.537 43.6807 164.727 43.958C164.927 44.2353 165.026 44.6253 165.026 45.128C165.026 45.6393 164.831 46.0813 164.441 46.454C164.251 46.636 164.025 46.7833 163.765 46.896C163.514 47.0087 163.25 47.065 162.972 47.065H162.777C162.084 47.065 161.525 46.8657 161.1 46.467C160.754 46.1463 160.537 45.6957 160.45 45.115H161.607C161.651 45.323 161.737 45.492 161.867 45.622C162.067 45.8127 162.344 45.908 162.699 45.908C162.795 45.908 162.864 45.9037 162.907 45.895C163.211 45.8777 163.449 45.7953 163.622 45.648C163.796 45.492 163.882 45.3013 163.882 45.076C163.882 44.764 163.787 44.5603 163.596 44.465C163.406 44.3697 163.037 44.322 162.491 44.322C161.807 44.322 161.282 44.1053 160.918 43.672C160.624 43.3427 160.476 42.9267 160.476 42.424C160.476 42.3113 160.481 42.2247 160.489 42.164C160.559 41.6007 160.788 41.1717 161.178 40.877C161.577 40.5737 162.101 40.422 162.751 40.422C163.228 40.422 163.644 40.526 163.999 40.734C164.251 40.89 164.467 41.1067 164.649 41.384C164.823 41.6613 164.935 42.008 164.987 42.424L164.961 42.437H163.856ZM168.883 49.769C168.389 49.769 167.929 49.6433 167.505 49.392C167.089 49.1407 166.725 48.7767 166.413 48.3L167.427 47.715C167.609 48.001 167.825 48.2177 168.077 48.365C168.328 48.521 168.597 48.599 168.883 48.599C169.342 48.599 169.741 48.43 170.079 48.092C170.235 47.936 170.352 47.754 170.43 47.546C170.516 47.338 170.56 47.117 170.56 46.883V46.428C170.36 46.636 170.109 46.805 169.806 46.935C169.502 47.0563 169.195 47.117 168.883 47.117C168.501 47.117 168.142 47.0477 167.804 46.909C167.466 46.7617 167.167 46.558 166.907 46.298C166.638 46.038 166.43 45.739 166.283 45.401C166.135 45.0543 166.062 44.6903 166.062 44.309V40.5H167.206V44.231C167.206 44.5343 167.279 44.8203 167.427 45.089C167.583 45.349 167.786 45.557 168.038 45.713C168.298 45.869 168.579 45.947 168.883 45.947C169.186 45.947 169.468 45.8733 169.728 45.726C169.988 45.57 170.191 45.362 170.339 45.102C170.486 44.8333 170.56 44.543 170.56 44.231V40.5H171.704V46.883C171.704 47.273 171.63 47.6457 171.483 48.001C171.344 48.3563 171.145 48.664 170.885 48.924C170.616 49.1927 170.308 49.4007 169.962 49.548C169.624 49.6953 169.264 49.769 168.883 49.769Z" fill="white"/>
<defs>
<clipPath id="clip0_1129_24050">
<rect width="45" height="45" fill="white" transform="translate(0 2)"/>
</clipPath>
</defs>
</svg>
