<svg width="160" height="46" viewBox="0 0 160 46" fill="none" xmlns="http://www.w3.org/2000/svg">
<g clip-path="url(#clip0_994_18754)">
<path d="M23.6109 37.3276C23.4841 36.332 23.8105 35.8659 24.1769 35.6489C22.6284 35.0707 21.6545 30.2916 25.4111 29.2863C25.4111 29.2863 25.0772 26.3053 27.8321 25.1922C29.1347 24.666 30.3054 25.1661 31.1781 25.8394C31.9061 24.756 32.846 24.2397 33.7702 24.115V15.3613L31.0286 17.068L28.2871 15.3613L25.5459 17.068L22.8049 15.3613L20.0638 17.068L17.3228 15.3613L14.5821 17.068L11.8415 15.3613L9.10116 17.068L6.36038 15.3613L3.6196 17.068L0.878906 15.3613V44.598H31.848C31.8482 44.5965 31.8486 44.595 31.8488 44.5934C27.6082 44.4978 24.1516 41.4453 23.6109 37.3276H23.6109Z" fill="#FFCEA3"/>
<path d="M31.1781 25.8394C31.9061 24.756 32.8461 24.2397 33.7703 24.115V15.3613L31.0287 17.068L28.2871 15.3613V25.0479C29.4066 24.7868 30.4083 25.2454 31.178 25.8394H31.1781Z" fill="#EF8D51"/>
<path d="M44.1082 36.0628C42.564 35.8299 42.2414 37.266 42.2414 37.266C40.9705 37.1448 40.5899 38.3489 40.5899 38.3489C38.8629 37.5701 37.0831 37.7424 35.5723 38.6398C35.7067 35.0828 38.2441 35.7192 38.2441 35.7192C38.2441 35.7192 39.0281 33.5483 41.3186 34.3287C41.4645 34.378 41.6174 34.4404 41.7756 34.5151C41.7756 34.5151 43.3181 33.5869 43.9034 34.6012V34.6021C44.0748 34.8983 44.1636 35.3615 44.1082 36.0628Z" fill="#43CE87"/>
<path d="M44.1088 36.0627C44.1088 40.7762 40.2873 44.5986 35.5729 44.5986H32.0563C31.9878 44.5986 31.9201 44.5977 31.8516 44.596C32.197 42.6325 33.0144 40.9968 34.1077 39.8288C34.5542 39.3506 35.0473 38.9507 35.5729 38.6396C37.0837 37.7422 38.8635 37.57 40.5905 38.3487C40.5905 38.3487 40.9711 37.1446 42.242 37.2659C42.242 37.2659 42.5646 35.8297 44.1088 36.0627Z" fill="#147D77"/>
<path d="M41.317 34.3283C39.0265 33.5479 38.2426 35.7188 38.2426 35.7188C38.2426 35.7188 35.7052 35.0824 35.5707 38.6394C35.0451 38.9505 34.552 39.3504 34.1055 39.8285C33.6362 38.998 33.1185 38.4522 32.5921 38.1085C32.2502 36.0888 32.7652 34.9734 33.347 34.367V34.3661C33.8964 33.7931 34.5037 33.6735 34.5037 33.6735C34.5037 33.6735 33.7434 29.9584 37.4999 30.2089C37.4999 30.2089 37.8602 29.8406 38.4025 29.7501C38.784 29.6868 39.2551 29.7615 39.7543 30.1966C40.9645 31.2522 40.9259 33.656 40.9259 33.656C40.9259 33.656 41.389 33.641 41.317 34.3283Z" fill="#93CF00"/>
<path d="M34.1055 39.8291C33.0121 40.9972 32.1947 42.6328 31.8493 44.5963C27.6086 44.5014 24.1519 41.4463 23.6113 37.3286C24.427 36.8856 24.8269 37.7707 24.8269 37.7707C24.8269 37.7707 25.0501 36.9639 26.4133 36.9639C27.7765 36.9639 28.5561 38.3587 28.5561 38.3587C28.5561 38.3587 30.1381 37.188 31.8484 37.7487V37.7496C32.0945 37.8305 32.3441 37.9474 32.592 38.1091C33.1185 38.4527 33.6361 38.9985 34.1055 39.8291Z" fill="#147D77"/>
<path d="M31.8489 37.7487C30.1386 37.188 28.5566 38.3587 28.5566 38.3587C28.5566 38.3587 27.777 36.9638 26.4138 36.9638C25.0506 36.9638 24.8274 37.7707 24.8274 37.7707C24.8274 37.7707 24.4275 36.8856 23.6118 37.3286C23.4853 36.3337 23.8105 35.867 24.1761 35.649C24.5593 35.4222 24.9856 35.4671 24.9856 35.4671C24.9856 35.4671 24.9979 34.6743 25.8293 34.3676C25.9664 34.3175 26.0974 34.2867 26.2213 34.2735C27.2338 34.1566 27.806 35.1199 27.806 35.1199C28.713 34.4853 31.3928 34.5767 31.8489 37.7487Z" fill="#43CE87"/>
<path d="M33.3482 34.3676C32.7663 34.974 32.2513 36.0894 32.5932 38.1091C32.3453 37.9474 32.0957 37.8305 31.8496 37.7496V37.7487C31.3935 34.5768 28.7137 34.4854 27.8067 35.1199C27.8067 35.1199 27.2345 34.1567 26.222 34.2735C25.1858 31.8882 27.2354 29.1697 28.5687 29.291C28.8121 29.313 29.0099 29.3965 29.1698 29.5195C29.916 30.0891 29.8536 31.5032 29.8536 31.5032C29.8536 31.5032 32.8076 30.7808 33.3482 34.3667V34.3676Z" fill="#93CF00"/>
<path d="M38.4037 29.7506C37.8614 29.8411 37.5011 30.2093 37.5011 30.2093C33.7446 29.9589 34.5049 33.674 34.5049 33.674C34.5049 33.674 33.8976 33.7935 33.3482 34.3666C32.8077 30.7806 29.8537 31.5031 29.8537 31.5031C29.8537 31.5031 29.9161 30.0889 29.1699 29.5194C30.2114 28.3645 31.4841 27.7598 32.755 27.5568C35.1799 27.1701 37.5995 28.2459 38.4037 29.7506Z" fill="#D8F68B"/>
<path d="M43.9027 34.601C43.3174 33.5867 41.7749 34.5149 41.7749 34.5149C41.6167 34.4402 41.4638 34.3778 41.3179 34.3285C41.3899 33.6412 40.9268 33.6562 40.9268 33.6562C40.9268 33.6562 40.9654 31.2524 39.7552 30.1968C39.256 29.7617 38.7849 29.687 38.4034 29.7503C37.5992 28.2456 35.1796 27.1698 32.7547 27.5566C32.7547 27.5566 32.1526 26.5898 31.1797 25.8392C33.2601 22.7437 37.0719 24.2738 37.2942 26.3612C37.2942 26.3612 40.7176 24.7476 42.4147 27.7244C44.1119 30.7022 42.8595 32.3158 42.8595 32.3158C42.8595 32.3158 44.3062 32.4907 43.9027 34.601Z" fill="#43CE87"/>
<path d="M32.7546 27.5568C31.4837 27.7598 30.211 28.3645 29.1695 29.5194C29.0096 29.3963 28.8118 29.3128 28.5684 29.2908C27.2351 29.1696 25.1855 31.888 26.2217 34.2734C26.0978 34.2865 25.9668 34.3173 25.8297 34.3674C24.9983 34.6741 24.9859 35.4669 24.9859 35.4669C24.9859 35.4669 24.5597 35.4221 24.1765 35.6488C22.6287 35.0679 21.6575 30.2919 25.4122 29.2864C25.4122 29.2864 25.0782 26.3061 27.8336 25.1925C29.1361 24.666 30.3068 25.1661 31.1796 25.8394C32.1526 26.59 32.7546 27.5568 32.7546 27.5568Z" fill="#43CE87"/>
<path d="M14.0644 35.2621C11.5783 30.629 13.7042 28.1717 16.381 26.8434C19.0519 25.518 19.6581 24.6963 19.6581 24.6963C19.6581 24.6963 21.3817 27.6285 20.3361 31.3071C19.1578 35.4526 14.0644 35.2622 14.0644 35.2622V35.2621Z" fill="#93CF00"/>
<path d="M15.2563 27.5023C12.5413 25.7732 8.59371 26.7596 8.59371 26.7596C8.59371 26.7596 7.28493 33.0022 14.0657 35.2625C11.9431 31.3068 13.1827 28.9374 15.2563 27.5023Z" fill="#147D77"/>
<path d="M16.4433 3.56146C14.8628 4.85002 13.8041 7.83022 13.666 8.23381C13.9797 8.28479 14.1626 8.33251 14.1626 8.33251C14.1626 8.33251 14.409 8.37312 14.8024 8.48395C15.6031 8.23566 16.0326 7.22263 16.0326 7.22263C17.5494 8.21993 18.4256 6.20284 18.4256 6.20284C18.4256 6.20284 20.1569 6.91036 20.6081 4.98915C21.0592 3.06804 18.1404 2.1778 16.4433 3.56146Z" fill="#93CF00"/>
<path d="M14.7555 5.77185C14.6314 4.77939 14.3894 3.68691 13.9226 2.88447C12.8215 0.991743 9.77628 0.797065 9.52183 2.75404C9.26748 4.71101 11.137 4.65854 11.137 4.65854C11.137 4.65854 11.2467 6.85502 13.0175 6.45573C13.0175 6.45573 13.0629 7.55594 13.7256 8.0701C13.8711 7.66625 14.2302 6.73241 14.7555 5.77185Z" fill="#147D77"/>
<path d="M9.57685 11.1983C9.69251 10.2458 9.787 9.5147 10.0741 9.00335C9.77188 7.99929 9.04661 8.07004 9.04661 8.07004C9.04661 8.07004 8.83822 6.62371 7.24696 6.48071C6.08918 6.37674 6.12512 8.26103 6.12512 8.26103C7.00526 9.5103 7.45587 11.0437 7.45587 11.0437C7.45587 11.0437 8.61348 11.1256 9.4589 12.4226C9.493 11.9844 9.53211 11.567 9.57685 11.1983Z" fill="#147D77"/>
<path d="M9.27539 16.7908C9.27408 16.0116 9.32909 14.0693 9.45724 12.4229C8.61182 11.1259 7.45421 11.0441 7.45421 11.0441C7.45421 11.0441 5.78025 5.34392 2.57989 6.97077C-0.620387 8.59772 2.86773 12.9779 2.86773 12.9779C2.86773 12.9779 1.02449 15.0605 3.83637 16.9332L6.36024 15.3615L9.10102 17.0682L9.2768 16.9588C9.27619 16.903 9.27548 16.8476 9.27539 16.7907V16.7908Z" fill="#93CF00"/>
<path d="M14.5823 17.0677L17.323 15.361L20.064 17.0677L22.8051 15.361L25.5461 17.0677L28.2872 15.361L31.0288 17.0677L31.08 17.0358C33.0997 11.2248 27.1594 8.48392 24.6605 10.1331C23.9575 10.5971 22.6229 11.0997 21.8231 10.6938L21.5909 10.562C21.3692 10.4331 21.1387 10.2906 20.8999 10.133C18.4068 8.48761 12.4876 11.2118 14.466 16.9952L14.5823 17.0676V17.0677Z" fill="#FB5657"/>
<path d="M17.4361 9.9825C17.198 9.56863 16.7277 9.21522 15.9147 8.87332C14.9279 8.45839 14.1635 8.3328 14.1635 8.3328C14.1635 8.3328 13.4139 8.13689 12.3437 8.11492C9.97986 8.06649 9.83088 9.09358 9.5753 11.1986C9.36234 12.9528 9.27374 15.8042 9.27541 16.7908C9.2755 16.8476 9.27621 16.903 9.27682 16.9588L11.8414 15.3616L14.4657 16.9959C13.1934 13.2766 15.1876 10.8228 17.4361 9.9825Z" fill="#FD5B44"/>
<path d="M24.6613 10.1337C24.7539 10.0726 24.8518 10.0182 24.9533 9.96907C26.9119 8.5964 27.3961 6.08589 27.0085 3.875C27.0085 3.875 23.3037 3.97511 22.4525 6.52868C21.6017 9.0812 22.8539 10.8202 22.855 10.8216C23.5127 10.7387 24.2146 10.4286 24.6614 10.1336L24.6613 10.1337Z" fill="#93CF00"/>
<path d="M44.4504 34.5357C44.5787 33.703 44.4589 33.0279 44.0933 32.5273C43.9373 32.3136 43.7579 32.1625 43.5871 32.0558C43.8893 31.2607 44.1358 29.6937 42.8717 27.4764C42.075 26.0789 40.804 25.3651 39.2015 25.4122C38.59 25.4301 38.0434 25.5578 37.6565 25.6777C37.2848 24.7501 36.352 23.9751 35.1932 23.6882C34.8921 23.6137 34.5928 23.5745 34.2977 23.568V21.4655C34.2977 21.1743 34.0616 20.9382 33.7704 20.9382C33.4792 20.9382 33.243 21.1743 33.243 21.4655V23.691C32.6321 23.8507 32.0597 24.1624 31.5563 24.6136V17.3741L33.243 16.324V17.4226C33.243 17.7138 33.4792 17.95 33.7704 17.95C34.0616 17.95 34.2977 17.7138 34.2977 17.4226V15.3745C34.2977 15.183 34.1938 15.0065 34.0264 14.9135C33.8591 14.8205 33.6544 14.8257 33.4917 14.9268L31.9242 15.9027C32.4617 12.8043 30.7322 11.0402 29.8818 10.3788C28.8812 9.60082 27.6546 9.17982 26.5218 9.15372C26.9525 8.5413 27.2498 7.86015 27.4267 7.1506C27.7122 6.02103 27.7083 4.83557 27.5286 3.80478C27.4932 3.54955 27.2465 3.34635 26.9895 3.36102C26.7723 3.36753 22.9017 3.52424 21.9515 6.37497C21.4088 8.00323 21.6458 9.33275 21.9465 10.171C21.7056 10.0337 21.4537 9.88022 21.1906 9.70655C20.2383 9.07805 18.9153 8.98189 17.6278 9.36905C17.2985 9.00369 16.8081 8.68975 16.1195 8.40023C16.0617 8.37598 16.0048 8.35269 15.9485 8.33019C16.0689 8.19536 16.1701 8.05781 16.2521 7.93213C16.6983 8.08928 17.0776 8.04823 17.3439 7.96887C18.0018 7.77278 18.4479 7.2225 18.692 6.83253C19.0492 6.89572 19.5599 6.91075 20.0493 6.65833C20.5873 6.38095 20.9484 5.86433 21.1225 5.12279C21.3358 4.21418 20.9716 3.36436 20.1481 2.84959C19.1468 2.22363 17.3916 2.12177 16.1111 3.16582C15.7167 3.48741 15.3558 3.89953 15.0313 4.3483C14.8652 3.66943 14.6468 3.09507 14.3777 2.63241C13.5468 1.20428 11.8683 0.681679 10.7107 0.914677C9.75867 1.10645 9.11848 1.77354 8.99815 2.69912C8.89998 3.45445 9.05599 4.06512 9.46178 4.51415C9.83101 4.92275 10.3142 5.0886 10.6708 5.15522C10.7619 5.60619 10.9857 6.27829 11.5324 6.69349C11.7537 6.86162 12.0941 7.03354 12.5671 7.04355C12.6056 7.21705 12.6634 7.41542 12.749 7.61634C12.6229 7.60887 12.4915 7.60315 12.3547 7.60043C11.325 7.5789 10.6429 7.76127 10.1783 8.09974C9.95783 7.83879 9.70084 7.69078 9.4674 7.61686C9.23177 6.95434 8.59772 6.0859 7.29264 5.96856C6.8923 5.9327 6.53194 6.0525 6.25017 6.31512C6.02824 6.52192 5.88164 6.79667 5.78452 7.07555C5.47875 6.78858 5.14046 6.54811 4.76842 6.38754C3.9861 6.04995 3.16942 6.0924 2.34105 6.5134C1.48228 6.94995 0.954053 7.5985 0.770977 8.44101C0.394277 10.1743 1.66772 12.2182 2.21766 12.9982C1.97446 13.3958 1.66113 14.0924 1.76941 14.9249C1.78901 15.0755 1.8225 15.2232 1.86706 15.3684L1.1577 14.9266C0.995098 14.8254 0.7904 14.8204 0.622881 14.9133C0.455449 15.0063 0.351562 15.1828 0.351562 15.3744V44.611C0.351562 44.9022 0.587725 45.1383 0.878906 45.1383H35.5706C40.5615 45.1383 44.623 41.083 44.6334 36.0943C44.6817 35.4552 44.6203 34.9343 44.4504 34.5357ZM31.419 44.0602C27.8343 43.7942 24.936 41.2887 24.2291 37.8387C24.2851 37.8955 24.3288 37.9637 24.3467 38.0004C24.4415 38.2102 24.6563 38.3555 24.8853 38.3283C25.1105 38.3011 25.2877 38.1543 25.3334 37.9336C25.3638 37.8674 25.5697 37.5033 26.4132 37.5033C27.4431 37.5033 28.0901 38.6191 28.0956 38.6285C28.1691 38.7604 28.2964 38.8538 28.444 38.8862C28.5913 38.9183 28.7465 38.8854 28.8684 38.7964C28.8806 38.7875 30.1054 37.9073 31.4335 38.1949C32.2026 38.3614 32.8798 38.8924 33.4499 39.7752C32.4858 40.9119 31.7829 42.3796 31.4191 44.0602H31.419ZM25.9356 29.2424C25.9246 29.1365 25.6906 26.6394 28.0299 25.6941C29.6727 25.0302 31.1338 26.388 31.8462 27.2363C30.8097 27.5419 29.8587 28.0978 29.0648 28.8784C28.9282 28.8279 28.779 28.7931 28.6151 28.7781C27.8195 28.7066 26.8915 29.2597 26.1949 30.2238C25.3678 31.3687 25.1187 32.7322 25.4929 33.9498C24.9617 34.1959 24.6816 34.6084 24.5522 34.9764C24.4409 34.9949 24.3179 35.0249 24.1914 35.0719C23.7171 34.7201 23.282 33.6771 23.3355 32.5586C23.3746 31.7421 23.7141 30.2992 25.5477 29.8085C25.7984 29.7415 25.9627 29.5002 25.9356 29.2423V29.2424ZM28.8148 16.3238L30.5016 17.374V24.8119C29.9917 24.5754 29.4249 24.4307 28.8148 24.4558V16.3238ZM33.9282 33.3299C33.8515 33.3645 33.7682 33.4066 33.681 33.4562C33.4129 32.5673 32.9527 31.8986 32.3053 31.4643C31.6143 31.0007 30.8666 30.9174 30.355 30.9309C30.3014 30.4753 30.1638 29.9619 29.8891 29.5498C31.1175 28.391 32.7706 27.8512 34.4944 28.062C35.7557 28.2162 36.9134 28.7717 37.577 29.5066C37.4795 29.5628 37.3905 29.6233 37.3119 29.6847C36.1473 29.6502 35.2551 29.9758 34.6625 30.6545C33.9155 31.5102 33.8796 32.6874 33.9282 33.3299ZM26.5366 33.7533C26.2073 32.8249 26.3932 31.7504 27.0499 30.8415C27.5602 30.1353 28.174 29.7972 28.5197 29.8286C29.3644 29.9054 29.3263 31.4778 29.3257 31.4924C29.3184 31.6571 29.3901 31.8155 29.517 31.921C29.6439 32.0264 29.8145 32.0658 29.975 32.0286C29.9846 32.0264 30.94 31.8121 31.7268 32.3462C32.2579 32.7066 32.6128 33.3374 32.7846 34.2216C32.4285 34.6652 32.0867 35.3357 31.9863 36.32C31.5063 35.2562 30.7533 34.7721 30.2669 34.5611C29.4209 34.1942 28.5628 34.2416 27.9556 34.4679C27.6356 34.1307 27.1477 33.8003 26.5367 33.7533L26.5366 33.7533ZM24.1254 36.6921C24.1496 36.5058 24.2076 36.3325 24.3232 36.2117C24.5478 35.977 24.9281 36.0042 24.9293 36.0042C25.0769 36.0198 25.2237 35.9729 25.3346 35.8746C25.4456 35.7764 25.51 35.636 25.5122 35.4879C25.5122 35.4836 25.5245 35.0542 26.0112 34.8748C26.8177 34.5778 27.3013 35.3188 27.3517 35.401C27.4266 35.5271 27.5506 35.6164 27.694 35.6474C27.8374 35.6784 27.9872 35.6482 28.1073 35.5642C28.3971 35.3618 29.1284 35.2169 29.847 35.5286C30.4634 35.7959 30.9075 36.331 31.1558 37.0927C30.1228 37.0171 29.2199 37.3868 28.7023 37.6646C28.3014 37.1705 27.5252 36.4484 26.4132 36.4484C25.6212 36.4484 25.1193 36.6845 24.8062 36.9467C24.7019 36.8686 24.5804 36.7999 24.4405 36.7528C24.3533 36.7234 24.2471 36.6992 24.1254 36.6918V36.6921ZM33.0793 37.8184C32.6346 34.6763 34.5283 34.2206 34.6057 34.2035C34.7436 34.1764 34.8649 34.0952 34.9428 33.9783C35.0206 33.8613 35.0486 33.718 35.0204 33.5804C35.0176 33.5663 34.7528 32.1548 35.457 31.3481C35.8588 30.8878 36.534 30.6859 37.4647 30.7479C37.6192 30.7583 37.7658 30.704 37.8735 30.5938C37.9376 30.5307 38.1513 30.3421 38.4566 30.2878C38.4718 30.2862 38.4869 30.2836 38.502 30.2807C38.7557 30.2479 39.0675 30.3109 39.4071 30.6071C40.2369 31.3308 40.4037 33.0286 40.3987 33.644C40.0359 33.6408 39.6904 33.7054 39.3645 33.8397C38.6087 34.1512 38.1589 34.7621 37.9321 35.1641C37.5135 35.1461 36.8609 35.2092 36.2711 35.6518C35.5621 36.1838 35.1555 37.0904 35.0599 38.3482C34.7597 38.543 34.4732 38.7619 34.202 39.0033C33.8627 38.5165 33.4876 38.1217 33.0793 37.8185V37.8184ZM36.8953 36.502C37.434 36.0907 38.1119 36.2424 38.1146 36.2428C38.3745 36.3081 38.6437 36.1646 38.7378 35.9132C38.7408 35.9053 39.0467 35.1065 39.7742 34.8115C40.2631 34.6132 40.8599 34.6779 41.5478 35.0038C41.7073 35.0794 41.894 35.0702 42.0454 34.9791C42.3403 34.8019 43.0139 34.547 43.3105 34.7302C43.4761 34.8327 43.5728 35.1152 43.5916 35.5287C42.657 35.5994 42.1188 36.2128 41.8683 36.7515C41.1211 36.8176 40.622 37.2611 40.3367 37.6909C38.9737 37.2028 37.5429 37.2262 36.2086 37.7535C36.3365 37.1776 36.5683 36.7517 36.8953 36.502ZM33.8124 24.6532C33.8282 24.652 33.8438 24.6499 33.8592 24.6473C34.3116 24.5914 34.6989 24.6523 34.9398 24.7119C35.9194 24.9543 36.6887 25.6769 36.769 26.4299C36.7871 26.5991 36.8863 26.749 37.0346 26.8327C37.1828 26.9165 37.3628 26.9233 37.5172 26.8515C37.6393 26.7947 40.5243 25.4882 41.9554 27.9986C43.4351 30.5942 42.4791 31.9547 42.4421 32.0055C42.3234 32.1586 42.2877 32.3632 42.3658 32.5404C42.4433 32.7161 42.5998 32.8347 42.7906 32.8518C42.8303 32.8595 43.0785 32.9159 43.2512 33.1627C43.3412 33.2914 43.3983 33.4581 43.4256 33.6548C42.8314 33.5188 42.1966 33.7373 41.8214 33.9093C41.7814 33.7216 41.702 33.5605 41.5804 33.4298C41.5373 33.3835 41.4911 33.3438 41.4433 33.3098C41.4012 32.5389 41.1846 30.7577 40.1002 29.8121C39.6114 29.3858 39.1246 29.2232 38.684 29.2126C37.9118 28.0758 36.3626 27.2279 34.6222 27.015C34.0747 26.9481 33.5331 26.9455 33.0055 27.0037C32.792 26.7079 32.4133 26.2294 31.9028 25.7658C32.5282 25.0223 33.2224 24.736 33.8123 24.6532H33.8124ZM24.3786 9.70084C24.1175 9.85966 23.8752 9.98622 23.6462 10.0831C23.8022 9.64881 24.0292 9.08147 24.3394 8.44567L26.0282 7.92475C25.7251 8.54033 25.2874 9.09483 24.6831 9.52717C24.5778 9.57964 24.476 9.63712 24.3787 9.70084H24.3786ZM26.4523 6.69023L25.0653 7.11809C25.4833 6.43386 25.9894 5.72502 26.5972 5.05213C26.6128 5.59055 26.5699 6.14751 26.4523 6.69023ZM22.9522 6.70834C23.3518 5.50934 24.5437 4.9355 25.5352 4.66181C24.111 6.33419 23.2566 8.13419 22.795 9.33231C22.6433 8.67384 22.5969 7.77401 22.9522 6.70834ZM20.591 10.5745C20.8978 10.8182 21.1974 10.9975 21.4895 11.1243C23.5959 12.31 24.9424 12.3262 25.0058 12.3262C25.2955 12.3262 25.529 12.0925 25.5313 11.8027C25.5334 11.5131 25.2994 11.2758 25.0098 11.2715C25.0026 11.2714 24.6455 11.2615 24.0161 11.0769C24.3368 10.9427 24.6435 10.7748 24.9353 10.5969C25.0232 10.5313 25.1334 10.5119 25.2191 10.4394C26.3036 9.93946 27.9954 10.2479 29.2345 11.2114C30.7524 12.3918 31.2922 14.2205 30.7587 16.2918L28.5661 14.9268C28.3992 14.8218 28.1756 14.8217 28.0087 14.9268L25.5462 16.46L23.0839 14.9268C22.9133 14.8206 22.6971 14.8206 22.5265 14.9268L20.0641 16.46L17.6018 14.9268C17.4312 14.8206 17.2149 14.8206 17.0443 14.9268L14.809 16.3188C14.2623 14.2323 14.804 12.3889 16.3351 11.2043C17.6721 10.1698 19.5354 9.89578 20.5909 10.5745H20.591ZM16.7778 3.98329C17.6456 3.27577 18.8887 3.30609 19.5892 3.74396C19.897 3.93636 20.2349 4.29003 20.0959 4.88171C19.9962 5.30648 19.8195 5.588 19.5709 5.71851C19.1616 5.93323 18.6283 5.72853 18.6264 5.72783C18.3622 5.6199 18.0594 5.7433 17.9439 6.00425C17.8464 6.2245 17.4938 6.82541 17.0403 6.95883C16.8228 7.02281 16.5884 6.96929 16.3236 6.79518C16.1929 6.70922 16.0308 6.68566 15.881 6.7311C15.7313 6.77645 15.6094 6.88597 15.5483 7.02993C15.4695 7.21556 15.1718 7.73974 14.7709 7.9418C14.6008 7.8975 14.467 7.86788 14.3769 7.84951C14.8279 6.68637 15.7329 4.81834 16.7776 3.98329H16.7778ZM12.1726 5.85518C11.7951 5.57059 11.6768 4.88399 11.6632 4.64528C11.6491 4.3643 11.4132 4.14431 11.1327 4.14431C11.1302 4.14431 11.1277 4.14431 11.1253 4.14431C11.1183 4.14369 10.5483 4.148 10.2409 3.80303C10.0542 3.59332 9.98798 3.2676 10.0442 2.835C10.1226 2.23225 10.5633 2.02025 10.9192 1.94853C11.7292 1.78559 12.9032 2.19489 13.4662 3.16266C13.8065 3.74748 14.0622 4.61645 14.2094 5.68248C13.9781 6.11692 13.7813 6.53977 13.6217 6.91058C13.571 6.71924 13.5486 6.54495 13.5439 6.44704C13.5374 6.29077 13.4619 6.1454 13.3378 6.05021C13.2137 5.95503 13.0535 5.91987 12.901 5.95433C12.5919 6.02402 12.3536 5.99168 12.1726 5.85518ZM12.3334 8.65494C13.3206 8.67516 14.0244 8.85419 14.0306 8.85577C14.1003 8.87432 14.7506 8.97143 15.7108 9.37222C16.0566 9.51768 16.3338 9.6648 16.5465 9.81589C16.2504 9.97383 15.9629 10.1587 15.6898 10.37C14.8403 11.0272 13.1106 12.7813 13.6301 15.8666L12.1207 14.9266C11.95 14.8204 11.7338 14.8204 11.5632 14.9266L9.81378 16.0161C9.8267 15.4437 9.85192 14.6976 9.89174 13.9217C10.4643 13.9317 11.4138 13.9707 12.0597 14.1122C12.7212 14.2706 12.9589 13.2188 12.2856 13.082C11.568 12.9246 10.5735 12.8797 9.95467 12.8676C10.0016 12.1854 10.0551 11.6073 10.1313 11.0125C10.7706 11.0031 11.9482 11.0085 12.6192 11.151C13.2819 11.305 13.5125 10.2517 12.8384 10.1194C12.1262 9.96811 10.9988 9.94975 10.2915 9.95563C10.3556 9.6467 10.4278 9.442 10.5607 9.2163C10.8431 8.77808 11.3382 8.6342 12.3333 8.65468L12.3334 8.65494ZM7.39494 15.3971L8.45288 12.08C8.60827 12.2106 8.76683 12.3753 8.91809 12.5826C8.89972 12.8325 8.88302 13.087 8.8679 13.342C8.86746 13.347 8.86737 13.3522 8.86702 13.3572C8.80304 14.4405 8.76735 15.5254 8.75435 16.2436L7.39485 15.397L7.39494 15.3971ZM7.19868 7.01912C8.32149 7.12002 8.50685 8.05676 8.52363 8.15836C8.54402 8.3003 8.59948 8.43082 8.71585 8.51449C8.82967 8.59632 8.95025 8.63227 9.08736 8.60968C9.15003 8.61284 9.34734 8.65099 9.49816 8.98128C9.24425 9.56909 9.1539 10.312 9.05238 11.1479C9.0501 11.1665 9.04799 11.1859 9.0457 11.2047C8.67481 10.9121 8.2655 10.7107 7.86103 10.6007C7.68718 10.0958 7.28772 9.06161 6.65464 8.11934C6.67178 7.80275 6.75606 7.28569 6.96946 7.0868C7.01438 7.04496 7.07335 7.0077 7.19859 7.01903L7.19868 7.01912ZM4.34971 7.35557C5.72458 7.94777 6.69208 10.3357 6.94872 11.2054C7.02378 11.4633 7.23981 11.579 7.49988 11.5966L6.69604 14.1171L3.05306 7.34959C3.5071 7.17425 3.93346 7.17618 4.34971 7.35557ZM1.8022 8.66373C1.86275 8.38608 1.98519 8.14482 2.1709 7.936L5.97129 14.9957L3.85629 16.3128C3.2393 15.8418 2.88993 15.3335 2.81698 14.7988C2.70729 13.9952 3.2596 13.3444 3.26312 13.3403C3.43257 13.1488 3.44004 12.863 3.28096 12.6627C2.76803 12.0164 1.5024 10.0381 1.8022 8.66373ZM1.40669 16.324L3.34125 17.5287C3.51193 17.635 3.72814 17.635 3.89874 17.5287L6.36073 15.9957L8.82281 17.5287C8.99341 17.635 9.20971 17.635 9.3803 17.5287L11.8419 15.9957L14.3037 17.5287C14.4744 17.635 14.6905 17.635 14.8612 17.5287L17.3232 15.9957L19.7854 17.5287C19.956 17.635 20.1722 17.635 20.3429 17.5287L22.8052 15.9956L25.2675 17.5287C25.4383 17.635 25.6543 17.635 25.825 17.5287L27.7602 16.3239V24.6686C25.5316 25.4653 24.8491 27.6368 24.8658 28.9187C23.2996 29.4887 22.3652 30.7762 22.2821 32.5084C22.22 33.8041 22.6657 35.066 23.3594 35.7405C23.092 36.1615 23.0008 36.7203 23.0882 37.4073C23.0882 37.4077 23.0883 37.4081 23.0883 37.4084V37.4093C23.3713 39.5641 24.4297 41.5297 26.0687 42.9441C26.5839 43.3886 27.1477 43.7691 27.7467 44.0837H1.40669V16.324ZM35.5706 44.0836H32.4961C33.0514 41.764 34.361 39.8803 36.0744 38.9736C37.4357 38.2533 38.9621 38.2065 40.372 38.8418C40.5093 38.9036 40.6658 38.9062 40.8032 38.8447C40.9407 38.7831 41.0446 38.6682 41.09 38.5246C41.1177 38.4427 41.384 37.7271 42.1894 37.804C42.4536 37.8289 42.6951 37.6584 42.7533 37.3991C42.7854 37.2677 42.9561 36.7119 43.5621 36.5983C43.2918 40.7713 39.8107 44.0837 35.5706 44.0837V44.0836Z" fill="black"/>
<path d="M20.1092 24.4341C19.9327 24.1138 19.4401 24.0842 19.2382 24.392C19.1886 24.4508 18.5214 25.2063 16.1483 26.3839C15.8253 26.5442 15.5241 26.7143 15.2425 26.893C12.3966 25.3061 8.63063 26.2195 8.46627 26.2606C8.27388 26.3086 8.11832 26.4698 8.07797 26.664C8.06356 26.7329 7.73054 28.3738 8.27977 30.3193C8.78831 32.1204 10.1732 34.5262 13.8802 35.7687C13.9991 35.8067 14.0216 35.8018 14.1722 35.8038C14.544 35.8038 15.6776 35.7661 16.9258 35.3527C18.9529 34.6812 20.3059 33.3415 20.8406 31.4783C20.8414 31.4755 20.8424 31.4728 20.8432 31.47C20.8437 31.468 20.8444 31.4662 20.8451 31.4641C21.9397 27.613 20.1895 24.5697 20.1144 24.442C20.1128 24.4392 20.1108 24.4369 20.1092 24.4341ZM19.7516 26.3212C20.0847 27.4098 20.3644 29.064 19.8965 30.9285C18.953 31.2934 18.0465 31.4826 17.3888 31.5801C18.6062 29.4935 19.3439 27.5776 19.7516 26.3213V26.3212ZM16.6171 27.3286C17.5088 26.8861 18.1803 26.4957 18.6842 26.1669C18.0523 28.044 16.6973 31.3105 14.1861 34.3283C13.4869 32.7888 13.3138 31.4374 13.6753 30.3045C14.0672 28.9925 15.3419 27.9404 16.6171 27.3286ZM14.2337 27.651C13.603 28.2108 13.0911 28.9048 12.7986 29.6354C12.7658 29.6123 12.7334 29.5897 12.7002 29.5659V27.1396C13.2377 27.2276 13.7803 27.3719 14.2931 27.5975C14.2731 27.615 14.2536 27.6332 14.2338 27.6509L14.2337 27.651ZM11.6455 27.032V28.7542C10.9401 28.1819 10.246 27.5696 9.73937 27.1112C10.2535 27.0483 10.9211 26.9997 11.6455 27.032ZM9.30642 30.073C9.0663 29.242 9.01339 28.4655 9.02227 27.886C9.90417 28.6852 11.3534 29.949 12.5016 30.7103C12.4488 31.0466 12.4292 31.394 12.4429 31.7522C12.476 32.6246 12.7008 33.4775 13.0215 34.288C11.0964 33.3646 9.84897 31.9511 9.30642 30.073ZM16.623 34.3419C16.1426 34.5033 15.6771 34.6007 15.2782 34.6598C15.7955 34.0151 16.2623 33.3646 16.6831 32.7216C17.1651 32.6867 18.1961 32.5739 19.3961 32.214C18.8307 33.1981 17.9024 33.9119 16.623 34.3419Z" fill="black"/>
<path d="M41.5778 23.8997C41.6527 23.9366 41.732 23.9541 41.8102 23.9541C42.0048 23.9541 42.192 23.8459 42.2838 23.6594L42.6728 22.8686C42.8014 22.6072 42.6937 22.2912 42.4324 22.1627C42.171 22.0341 41.8551 22.1418 41.7265 22.403L41.3375 23.1938C41.2089 23.4552 41.3166 23.7712 41.5779 23.8997H41.5778Z" fill="black"/>
<path d="M39.3495 23.4691C39.5646 24.1226 40.577 23.7714 40.3478 23.1291L40.0638 22.295C39.97 22.0192 39.6704 21.872 39.3946 21.9657C39.1188 22.0596 38.9715 22.3592 39.0654 22.6349L39.3495 23.4691Z" fill="black"/>
<path d="M42.667 25.1016C42.7603 25.38 43.0678 25.5244 43.3362 25.4308L44.1703 25.1468C44.446 25.0529 44.5934 24.7533 44.4995 24.4776C44.4057 24.2018 44.1062 24.0547 43.8303 24.1483L42.9961 24.4324C42.7204 24.5263 42.5731 24.8259 42.667 25.1016Z" fill="black"/>
<path d="M33.7715 19.9717C34.0627 19.9717 34.2988 19.7356 34.2988 19.4443C34.2988 19.1531 34.0627 18.917 33.7715 18.917C33.4802 18.917 33.2441 19.1531 33.2441 19.4443C33.2441 19.7356 33.4802 19.9717 33.7715 19.9717Z" fill="black"/>
</g>
<path d="M53.86 7.428C53.86 6.16666 54.2267 5.16933 54.96 4.436C55.6933 3.70267 56.6907 3.336 57.952 3.336H72.472C72.6773 3.65867 72.8533 4.084 73 4.612C73.176 5.14 73.264 5.69733 73.264 6.284C73.264 7.39866 73.0147 8.19067 72.516 8.66C72.0467 9.12933 71.416 9.364 70.624 9.364H61.34V13.456H71.24C71.4453 13.7787 71.6213 14.204 71.768 14.732C71.944 15.2307 72.032 15.7733 72.032 16.36C72.032 17.4747 71.7973 18.2667 71.328 18.736C70.8587 19.2053 70.228 19.44 69.436 19.44H61.34V24.06H72.648C72.8533 24.3827 73.0293 24.808 73.176 25.336C73.352 25.864 73.44 26.4213 73.44 27.008C73.44 28.1227 73.1907 28.9293 72.692 29.428C72.2227 29.8973 71.592 30.132 70.8 30.132H57.952C56.6907 30.132 55.6933 29.7653 54.96 29.032C54.2267 28.2987 53.86 27.3013 53.86 26.04V7.428ZM85.6215 21.376V29.824C85.2988 29.912 84.7855 30 84.0815 30.088C83.4068 30.176 82.7321 30.22 82.0575 30.22C81.3828 30.22 80.7815 30.1613 80.2535 30.044C79.7548 29.956 79.3295 29.78 78.9775 29.516C78.6548 29.252 78.4055 28.8853 78.2295 28.416C78.0535 27.9467 77.9655 27.3307 77.9655 26.568V5.844C77.9655 5.228 78.1268 4.75866 78.4495 4.436C78.8015 4.084 79.2708 3.80533 79.8575 3.6C80.8548 3.248 82.0135 2.99866 83.3335 2.852C84.6535 2.676 86.0615 2.588 87.5575 2.588C91.6055 2.588 94.6561 3.43867 96.7095 5.14C98.7628 6.84133 99.7895 9.144 99.7895 12.048C99.7895 13.8667 99.3201 15.4213 98.3815 16.712C97.4428 18.0027 96.3281 19 95.0375 19.704C96.0935 21.1413 97.1348 22.4907 98.1615 23.752C99.1881 25.0133 99.9948 26.1573 100.581 27.184C100.288 28.2107 99.7455 29.0027 98.9535 29.56C98.1908 30.088 97.3255 30.352 96.3575 30.352C95.7121 30.352 95.1548 30.2787 94.6855 30.132C94.2161 29.9853 93.8055 29.78 93.4535 29.516C93.1015 29.252 92.7788 28.9293 92.4855 28.548C92.1921 28.1667 91.9135 27.756 91.6495 27.316L87.9535 21.376H85.6215ZM88.3935 15.524C89.5081 15.524 90.3881 15.2453 91.0335 14.688C91.6788 14.1013 92.0015 13.2507 92.0015 12.136C92.0015 11.0213 91.6348 10.1853 90.9015 9.628C90.1975 9.04133 89.0681 8.748 87.5135 8.748C87.0735 8.748 86.7215 8.76267 86.4575 8.792C86.1935 8.82133 85.9001 8.86533 85.5775 8.924V15.524H88.3935ZM128.934 29.076C128.523 29.4867 127.922 29.7947 127.13 30C126.367 30.2347 125.443 30.352 124.358 30.352C123.273 30.352 122.246 30.1907 121.278 29.868C120.31 29.5453 119.518 28.768 118.902 27.536L114.546 18.648C114.106 17.7387 113.71 16.888 113.358 16.096C113.006 15.2747 112.625 14.336 112.214 13.28L111.95 13.324C112.067 14.908 112.126 16.5213 112.126 18.164C112.155 19.8067 112.17 21.42 112.17 23.004V29.824C111.847 29.912 111.349 30 110.674 30.088C110.029 30.176 109.383 30.22 108.738 30.22C108.093 30.22 107.521 30.176 107.022 30.088C106.523 30 106.113 29.824 105.79 29.56C105.467 29.296 105.218 28.944 105.042 28.504C104.866 28.0347 104.778 27.4333 104.778 26.7V4.7C105.189 4.11333 105.819 3.67333 106.67 3.38C107.521 3.08667 108.43 2.94 109.398 2.94C110.483 2.94 111.51 3.116 112.478 3.468C113.475 3.79067 114.267 4.55333 114.854 5.756L119.254 14.644C119.694 15.5533 120.09 16.4187 120.442 17.24C120.794 18.032 121.175 18.956 121.586 20.012L121.806 19.968C121.689 18.384 121.615 16.8 121.586 15.216C121.557 13.632 121.542 12.048 121.542 10.464V3.336C121.865 3.248 122.349 3.16 122.994 3.072C123.669 2.984 124.329 2.94 124.974 2.94C126.265 2.94 127.247 3.17467 127.922 3.644C128.597 4.084 128.934 5.02266 128.934 6.46V29.076ZM140.317 4.128C140.816 3.83467 141.564 3.556 142.561 3.292C143.588 3.028 144.615 2.896 145.641 2.896C147.108 2.896 148.399 3.116 149.513 3.556C150.657 3.96667 151.391 4.62667 151.713 5.536C152.241 7.06133 152.813 8.836 153.429 10.86C154.045 12.884 154.661 14.9813 155.277 17.152C155.893 19.2933 156.495 21.42 157.081 23.532C157.668 25.6147 158.181 27.4627 158.621 29.076C158.269 29.4867 157.741 29.8093 157.037 30.044C156.333 30.308 155.497 30.44 154.529 30.44C153.825 30.44 153.224 30.3813 152.725 30.264C152.256 30.1467 151.86 29.9707 151.537 29.736C151.244 29.5013 150.995 29.1933 150.789 28.812C150.613 28.4307 150.452 27.9907 150.305 27.492L149.513 24.456H141.549C141.315 25.336 141.08 26.2453 140.845 27.184C140.611 28.1227 140.376 29.032 140.141 29.912C139.731 30.0587 139.291 30.176 138.821 30.264C138.381 30.3813 137.839 30.44 137.193 30.44C135.697 30.44 134.583 30.1907 133.849 29.692C133.145 29.164 132.793 28.4453 132.793 27.536C132.793 27.1253 132.852 26.7147 132.969 26.304C133.087 25.8933 133.219 25.4093 133.365 24.852C133.571 24.06 133.849 23.0773 134.201 21.904C134.583 20.7307 134.993 19.4693 135.433 18.12C135.873 16.7413 136.343 15.3333 136.841 13.896C137.34 12.4587 137.809 11.1093 138.249 9.848C138.689 8.55733 139.085 7.41333 139.437 6.416C139.819 5.41866 140.112 4.656 140.317 4.128ZM145.597 9.804C145.187 11.036 144.717 12.4147 144.189 13.94C143.691 15.436 143.236 16.9613 142.825 18.516H148.281C147.871 16.932 147.445 15.392 147.005 13.896C146.595 12.3707 146.213 11.0067 145.861 9.804H145.597Z" fill="#FD5B44"/>
<path d="M57.3598 43L53.7598 37.144V43H52.6918V35.02H53.7358L57.4558 41.044V35.02H58.5118V43H57.3598ZM62.6273 43.06C62.2193 43.06 61.8313 42.98 61.4633 42.82C61.0953 42.66 60.7713 42.44 60.4913 42.16C60.2113 41.88 59.9913 41.556 59.8313 41.188C59.6713 40.82 59.5913 40.432 59.5913 40.024C59.5913 39.608 59.6713 39.212 59.8313 38.836C59.9913 38.46 60.2113 38.132 60.4913 37.852C60.7713 37.572 61.0953 37.356 61.4633 37.204C61.8313 37.044 62.2193 36.964 62.6273 36.964C63.0433 36.964 63.4393 37.044 63.8153 37.204C64.1913 37.356 64.5193 37.572 64.7993 37.852C65.0793 38.132 65.2953 38.46 65.4473 38.836C65.6073 39.212 65.6873 39.608 65.6873 40.024C65.6873 40.432 65.6073 40.82 65.4473 41.188C65.2953 41.556 65.0793 41.88 64.7993 42.16C64.5193 42.44 64.1913 42.66 63.8153 42.82C63.4393 42.98 63.0433 43.06 62.6273 43.06ZM62.6273 38.032C62.0913 38.032 61.6313 38.224 61.2473 38.608C61.0633 38.792 60.9193 39.008 60.8153 39.256C60.7113 39.504 60.6593 39.76 60.6593 40.024C60.6593 40.288 60.7113 40.54 60.8153 40.78C60.9193 41.02 61.0633 41.232 61.2473 41.416C61.4313 41.6 61.6393 41.744 61.8713 41.848C62.1113 41.952 62.3633 42.004 62.6273 42.004C62.8913 42.004 63.1473 41.952 63.3953 41.848C63.6433 41.744 63.8553 41.6 64.0313 41.416C64.2073 41.232 64.3473 41.02 64.4513 40.78C64.5553 40.54 64.6073 40.288 64.6073 40.024C64.6073 39.76 64.5553 39.504 64.4513 39.256C64.3473 39.008 64.2073 38.792 64.0313 38.608C63.8553 38.424 63.6433 38.284 63.3953 38.188C63.1553 38.084 62.8993 38.032 62.6273 38.032ZM72.8615 43H71.8175L70.7255 40.288L69.6335 43H68.5895L66.1655 37H67.3415L69.1055 41.38L70.1375 38.848L69.3935 37H70.5695L72.3335 41.38L74.0975 37H75.2615L72.8615 43ZM86.0026 37.48C85.9626 37.168 85.8786 36.912 85.7506 36.712C85.6066 36.496 85.4266 36.34 85.2106 36.244C85.0026 36.14 84.7346 36.088 84.4066 36.088C83.8626 36.088 83.4826 36.204 83.2666 36.436C83.0586 36.644 82.9546 36.944 82.9546 37.336C82.9546 37.56 82.9866 37.744 83.0506 37.888C83.1146 38.024 83.2106 38.136 83.3386 38.224C83.5306 38.36 83.8466 38.448 84.2866 38.488C84.7346 38.528 85.1106 38.592 85.4146 38.68C85.7266 38.76 85.9986 38.872 86.2306 39.016C86.8146 39.384 87.1066 39.96 87.1066 40.744C87.1066 41.048 87.0466 41.336 86.9266 41.608C86.8066 41.88 86.6386 42.124 86.4226 42.34C86.1666 42.588 85.8626 42.772 85.5106 42.892C85.1666 43.012 84.8066 43.072 84.4306 43.072C83.5826 43.072 82.9066 42.832 82.4026 42.352C81.9706 41.92 81.7106 41.344 81.6226 40.624L81.6466 40.612H82.7026C82.7666 41.036 82.9106 41.352 83.1346 41.56C83.4466 41.848 83.8666 41.992 84.3946 41.992C84.8986 41.992 85.2986 41.876 85.5946 41.644C85.8906 41.412 86.0386 41.112 86.0386 40.744C86.0386 40.576 86.0146 40.432 85.9666 40.312C85.9266 40.184 85.8466 40.072 85.7266 39.976C85.4546 39.768 84.9466 39.636 84.2026 39.58C83.4426 39.516 82.8666 39.296 82.4746 38.92C82.0826 38.544 81.8866 38.016 81.8866 37.336C81.8866 36.648 82.0986 36.092 82.5226 35.668C82.9706 35.22 83.5946 34.996 84.3946 34.996C85.2266 34.996 85.8746 35.248 86.3386 35.752C86.7466 36.192 86.9946 36.768 87.0826 37.48H86.0026ZM91.8959 43V39.316C91.8959 38.94 91.7639 38.62 91.4999 38.356C91.3799 38.236 91.2359 38.14 91.0679 38.068C90.9079 37.996 90.7439 37.96 90.5759 37.96C90.2159 37.96 89.9039 38.092 89.6399 38.356C89.3759 38.62 89.2439 38.94 89.2439 39.316V43H88.1879V34.996H89.2439V37.42C89.6279 37.06 90.0719 36.88 90.5759 36.88C90.8959 36.88 91.1999 36.944 91.4879 37.072C91.7759 37.192 92.0319 37.364 92.2559 37.588C92.4719 37.812 92.6399 38.076 92.7599 38.38C92.8879 38.676 92.9519 38.988 92.9519 39.316V43H91.8959ZM97.0687 43.06C96.6607 43.06 96.2727 42.98 95.9047 42.82C95.5367 42.66 95.2127 42.44 94.9327 42.16C94.6527 41.88 94.4327 41.556 94.2727 41.188C94.1127 40.82 94.0327 40.432 94.0327 40.024C94.0327 39.608 94.1127 39.212 94.2727 38.836C94.4327 38.46 94.6527 38.132 94.9327 37.852C95.2127 37.572 95.5367 37.356 95.9047 37.204C96.2727 37.044 96.6607 36.964 97.0687 36.964C97.4847 36.964 97.8807 37.044 98.2567 37.204C98.6327 37.356 98.9607 37.572 99.2407 37.852C99.5207 38.132 99.7367 38.46 99.8887 38.836C100.049 39.212 100.129 39.608 100.129 40.024C100.129 40.432 100.049 40.82 99.8887 41.188C99.7367 41.556 99.5207 41.88 99.2407 42.16C98.9607 42.44 98.6327 42.66 98.2567 42.82C97.8807 42.98 97.4847 43.06 97.0687 43.06ZM97.0687 38.032C96.5327 38.032 96.0727 38.224 95.6887 38.608C95.5047 38.792 95.3607 39.008 95.2567 39.256C95.1527 39.504 95.1007 39.76 95.1007 40.024C95.1007 40.288 95.1527 40.54 95.2567 40.78C95.3607 41.02 95.5047 41.232 95.6887 41.416C95.8727 41.6 96.0807 41.744 96.3127 41.848C96.5527 41.952 96.8047 42.004 97.0687 42.004C97.3327 42.004 97.5887 41.952 97.8367 41.848C98.0847 41.744 98.2967 41.6 98.4727 41.416C98.6487 41.232 98.7887 41.02 98.8927 40.78C98.9967 40.54 99.0487 40.288 99.0487 40.024C99.0487 39.76 98.9967 39.504 98.8927 39.256C98.7887 39.008 98.6487 38.792 98.4727 38.608C98.2967 38.424 98.0847 38.284 97.8367 38.188C97.5967 38.084 97.3407 38.032 97.0687 38.032ZM104.243 43.108C103.787 43.108 103.407 43.036 103.103 42.892C102.799 42.74 102.523 42.504 102.275 42.184V45.556H101.207V37.144H102.275V37.984C102.523 37.68 102.819 37.436 103.163 37.252C103.507 37.068 103.867 36.976 104.243 36.976C104.651 36.976 105.039 37.056 105.407 37.216C105.783 37.368 106.107 37.588 106.379 37.876C106.659 38.164 106.875 38.496 107.027 38.872C107.187 39.24 107.267 39.632 107.267 40.048C107.267 40.464 107.187 40.856 107.027 41.224C106.875 41.592 106.659 41.92 106.379 42.208C106.107 42.488 105.783 42.708 105.407 42.868C105.039 43.028 104.651 43.108 104.243 43.108ZM104.243 38.068C103.979 38.068 103.727 38.12 103.487 38.224C103.247 38.32 103.039 38.46 102.863 38.644C102.687 38.828 102.547 39.044 102.443 39.292C102.339 39.532 102.287 39.784 102.287 40.048C102.287 40.312 102.339 40.564 102.443 40.804C102.547 41.044 102.687 41.256 102.863 41.44C103.039 41.624 103.247 41.768 103.487 41.872C103.727 41.976 103.979 42.028 104.243 42.028C104.507 42.028 104.759 41.976 104.999 41.872C105.239 41.768 105.447 41.624 105.623 41.44C105.799 41.256 105.935 41.044 106.031 40.804C106.135 40.564 106.187 40.312 106.187 40.048C106.187 39.784 106.135 39.532 106.031 39.292C105.935 39.044 105.799 38.828 105.623 38.644C105.447 38.46 105.239 38.32 104.999 38.224C104.759 38.12 104.507 38.068 104.243 38.068ZM111.38 43.108C110.924 43.108 110.544 43.036 110.24 42.892C109.936 42.74 109.66 42.504 109.412 42.184V45.556H108.344V37.144H109.412V37.984C109.66 37.68 109.956 37.436 110.3 37.252C110.644 37.068 111.004 36.976 111.38 36.976C111.788 36.976 112.176 37.056 112.544 37.216C112.92 37.368 113.244 37.588 113.516 37.876C113.796 38.164 114.012 38.496 114.164 38.872C114.324 39.24 114.404 39.632 114.404 40.048C114.404 40.464 114.324 40.856 114.164 41.224C114.012 41.592 113.796 41.92 113.516 42.208C113.244 42.488 112.92 42.708 112.544 42.868C112.176 43.028 111.788 43.108 111.38 43.108ZM111.38 38.068C111.116 38.068 110.864 38.12 110.624 38.224C110.384 38.32 110.176 38.46 110 38.644C109.824 38.828 109.684 39.044 109.58 39.292C109.476 39.532 109.424 39.784 109.424 40.048C109.424 40.312 109.476 40.564 109.58 40.804C109.684 41.044 109.824 41.256 110 41.44C110.176 41.624 110.384 41.768 110.624 41.872C110.864 41.976 111.116 42.028 111.38 42.028C111.644 42.028 111.896 41.976 112.136 41.872C112.376 41.768 112.584 41.624 112.76 41.44C112.936 41.256 113.072 41.044 113.168 40.804C113.272 40.564 113.324 40.312 113.324 40.048C113.324 39.784 113.272 39.532 113.168 39.292C113.072 39.044 112.936 38.828 112.76 38.644C112.584 38.46 112.376 38.32 112.136 38.224C111.896 38.12 111.644 38.068 111.38 38.068ZM115.798 36.136C115.646 36.136 115.514 36.084 115.402 35.98C115.298 35.868 115.246 35.736 115.246 35.584C115.246 35.432 115.298 35.304 115.402 35.2C115.514 35.088 115.646 35.032 115.798 35.032C115.95 35.032 116.078 35.088 116.182 35.2C116.294 35.304 116.35 35.432 116.35 35.584C116.35 35.736 116.294 35.868 116.182 35.98C116.078 36.084 115.95 36.136 115.798 36.136ZM115.306 43V37H116.314V43H115.306ZM121.263 43V39.4C121.263 39.04 121.131 38.728 120.867 38.464C120.611 38.208 120.299 38.08 119.931 38.08C119.571 38.08 119.259 38.212 118.995 38.476C118.875 38.596 118.779 38.74 118.707 38.908C118.635 39.068 118.599 39.232 118.599 39.4V43H117.555V37.144H118.599V37.636C118.751 37.452 118.951 37.3 119.199 37.18C119.447 37.06 119.691 37 119.931 37C120.251 37 120.555 37.064 120.843 37.192C121.139 37.312 121.399 37.484 121.623 37.708C121.839 37.924 122.007 38.18 122.127 38.476C122.255 38.764 122.319 39.072 122.319 39.4V43H121.263ZM126.307 45.556C125.355 45.556 124.531 45.132 123.835 44.284L124.783 43.72C125.215 44.224 125.723 44.476 126.307 44.476C126.571 44.476 126.823 44.424 127.063 44.32C127.303 44.216 127.511 44.072 127.687 43.888C127.863 43.704 127.999 43.492 128.095 43.252C128.199 43.012 128.251 42.76 128.251 42.496V42.208C127.707 42.816 127.055 43.12 126.295 43.12C125.887 43.12 125.495 43.036 125.119 42.868C124.751 42.692 124.431 42.456 124.159 42.16C123.887 41.864 123.671 41.528 123.511 41.152C123.359 40.776 123.283 40.388 123.283 39.988C123.283 39.58 123.359 39.196 123.511 38.836C123.671 38.468 123.891 38.144 124.171 37.864C124.451 37.592 124.771 37.38 125.131 37.228C125.499 37.076 125.887 37 126.295 37C126.735 37 127.127 37.096 127.471 37.288C127.815 37.48 128.075 37.696 128.251 37.936V37.108H129.331V42.496C129.331 42.912 129.251 43.304 129.091 43.672C128.939 44.04 128.723 44.368 128.443 44.656C128.171 44.936 127.847 45.156 127.471 45.316C127.103 45.476 126.715 45.556 126.307 45.556ZM126.295 38.092C126.031 38.092 125.779 38.144 125.539 38.248C125.299 38.344 125.091 38.484 124.915 38.668C124.739 38.852 124.599 39.068 124.495 39.316C124.391 39.556 124.339 39.808 124.339 40.072C124.339 40.336 124.391 40.592 124.495 40.84C124.599 41.08 124.739 41.288 124.915 41.464C125.091 41.64 125.299 41.78 125.539 41.884C125.779 41.988 126.031 42.04 126.295 42.04C126.559 42.04 126.811 41.988 127.051 41.884C127.291 41.78 127.499 41.64 127.675 41.464C127.851 41.288 127.987 41.08 128.083 40.84C128.187 40.592 128.239 40.336 128.239 40.072C128.239 39.808 128.187 39.556 128.083 39.316C127.987 39.068 127.851 38.852 127.675 38.668C127.499 38.484 127.291 38.344 127.051 38.248C126.811 38.144 126.559 38.092 126.295 38.092ZM135.93 43V35.02H140.298V36.1H136.974V38.524H139.206V39.508H136.974V41.92H140.298V43H135.93ZM145.993 43V42.088C145.737 42.384 145.441 42.62 145.105 42.796C144.769 42.972 144.413 43.06 144.037 43.06C143.621 43.06 143.229 42.984 142.861 42.832C142.501 42.68 142.181 42.464 141.901 42.184C141.621 41.912 141.401 41.592 141.241 41.224C141.089 40.848 141.013 40.456 141.013 40.048C141.013 39.64 141.089 39.252 141.241 38.884C141.401 38.508 141.621 38.18 141.901 37.9C142.181 37.62 142.501 37.404 142.861 37.252C143.229 37.1 143.621 37.024 144.037 37.024C144.421 37.024 144.781 37.104 145.117 37.264C145.461 37.424 145.753 37.648 145.993 37.936V37.144H147.073V43H145.993ZM144.037 38.092C143.773 38.092 143.517 38.144 143.269 38.248C143.029 38.344 142.821 38.48 142.645 38.656C142.469 38.832 142.329 39.044 142.225 39.292C142.129 39.532 142.081 39.784 142.081 40.048C142.081 40.312 142.129 40.564 142.225 40.804C142.329 41.044 142.469 41.252 142.645 41.428C142.821 41.604 143.029 41.744 143.269 41.848C143.517 41.944 143.773 41.992 144.037 41.992C144.301 41.992 144.553 41.944 144.793 41.848C145.033 41.744 145.241 41.604 145.417 41.428C145.593 41.252 145.729 41.044 145.825 40.804C145.929 40.564 145.981 40.312 145.981 40.048C145.981 39.784 145.929 39.532 145.825 39.292C145.729 39.044 145.593 38.832 145.417 38.656C145.241 38.48 145.033 38.344 144.793 38.248C144.553 38.144 144.301 38.092 144.037 38.092ZM151.06 38.788C151.036 38.644 150.984 38.508 150.904 38.38C150.752 38.116 150.452 37.984 150.004 37.984C149.764 37.984 149.58 38.012 149.452 38.068C149.284 38.132 149.156 38.224 149.068 38.344C148.988 38.464 148.948 38.596 148.948 38.74C148.948 38.916 149.012 39.076 149.14 39.22C149.276 39.372 149.496 39.452 149.8 39.46C150.336 39.484 150.768 39.548 151.096 39.652C151.432 39.756 151.688 39.936 151.864 40.192C152.048 40.448 152.14 40.808 152.14 41.272C152.14 41.744 151.96 42.152 151.6 42.496C151.424 42.664 151.216 42.8 150.976 42.904C150.744 43.008 150.5 43.06 150.244 43.06H150.064C149.424 43.06 148.908 42.876 148.516 42.508C148.196 42.212 147.996 41.796 147.916 41.26H148.984C149.024 41.452 149.104 41.608 149.224 41.728C149.408 41.904 149.664 41.992 149.992 41.992C150.08 41.992 150.144 41.988 150.184 41.98C150.464 41.964 150.684 41.888 150.844 41.752C151.004 41.608 151.084 41.432 151.084 41.224C151.084 40.936 150.996 40.748 150.82 40.66C150.644 40.572 150.304 40.528 149.8 40.528C149.168 40.528 148.684 40.328 148.348 39.928C148.076 39.624 147.94 39.24 147.94 38.776C147.94 38.672 147.944 38.592 147.952 38.536C148.016 38.016 148.228 37.62 148.588 37.348C148.956 37.068 149.44 36.928 150.04 36.928C150.48 36.928 150.864 37.024 151.192 37.216C151.424 37.36 151.624 37.56 151.792 37.816C151.952 38.072 152.056 38.392 152.104 38.776L152.08 38.788H151.06ZM155.699 45.556C155.243 45.556 154.819 45.44 154.427 45.208C154.043 44.976 153.707 44.64 153.419 44.2L154.355 43.66C154.523 43.924 154.723 44.124 154.955 44.26C155.187 44.404 155.435 44.476 155.699 44.476C156.123 44.476 156.491 44.32 156.803 44.008C156.947 43.864 157.055 43.696 157.127 43.504C157.207 43.312 157.247 43.108 157.247 42.892V42.472C157.063 42.664 156.831 42.82 156.551 42.94C156.271 43.052 155.987 43.108 155.699 43.108C155.347 43.108 155.015 43.044 154.703 42.916C154.391 42.78 154.115 42.592 153.875 42.352C153.627 42.112 153.435 41.836 153.299 41.524C153.163 41.204 153.095 40.868 153.095 40.516V37H154.151V40.444C154.151 40.724 154.219 40.988 154.355 41.236C154.499 41.476 154.687 41.668 154.919 41.812C155.159 41.956 155.419 42.028 155.699 42.028C155.979 42.028 156.239 41.96 156.479 41.824C156.719 41.68 156.907 41.488 157.043 41.248C157.179 41 157.247 40.732 157.247 40.444V37H158.303V42.892C158.303 43.252 158.235 43.596 158.099 43.924C157.971 44.252 157.787 44.536 157.547 44.776C157.299 45.024 157.015 45.216 156.695 45.352C156.383 45.488 156.051 45.556 155.699 45.556Z" fill="#147D77"/>
<defs>
<clipPath id="clip0_994_18754">
<rect width="45" height="45" fill="white" transform="translate(0 0.5)"/>
</clipPath>
</defs>
</svg>
