<svg width="178" height="50" viewBox="0 0 178 50" fill="none" xmlns="http://www.w3.org/2000/svg">
<g clip-path="url(#clip0_1170_23359)">
<rect width="45" height="45" transform="translate(0 1.5)" fill="#BF9F65"/>
<path d="M30.4316 26.9336H5.14258C4.51104 26.9336 4 27.4446 4 28.0762V44.0723C4 45.9624 5.53761 47.5 7.42773 47.5H28.1465C30.0366 47.5 31.5742 45.9624 31.5742 44.0723V28.0762C31.5742 27.4446 31.0632 26.9336 30.4316 26.9336ZM24.5664 33.7891C24.5664 37.5694 21.4913 40.6445 17.7109 40.6445C13.9306 40.6445 10.8555 37.5694 10.8555 33.7891V32.6465C10.8555 32.0149 11.3665 31.5039 11.998 31.5039C12.6296 31.5039 13.1406 32.0149 13.1406 32.6465V33.7891C13.1406 36.3097 15.1903 38.3594 17.7109 38.3594C20.2315 38.3594 22.2812 36.3097 22.2812 33.7891V32.6465C22.2812 32.0149 22.7923 31.5039 23.4238 31.5039C24.0554 31.5039 24.5664 32.0149 24.5664 32.6465V33.7891Z" fill="white"/>
<path d="M41.8574 17.793H35.9922V15.3555C35.9922 11.5751 32.9171 8.5 29.1367 8.5C25.3564 8.5 22.2812 11.5751 22.2812 15.3555V17.793H16.416C15.7845 17.793 15.2734 18.304 15.2734 18.9355V24.6484H30.4316C32.3218 24.6484 33.8594 26.186 33.8594 28.0762V44.0723C33.8594 45.3632 33.4126 46.5422 32.6876 47.5H39.5723C41.4624 47.5 43 45.9624 43 44.0723V18.9355C43 18.304 42.489 17.793 41.8574 17.793ZM33.707 17.793H24.5664V15.3555C24.5664 12.8349 26.6161 10.7852 29.1367 10.7852C31.6573 10.7852 33.707 12.8349 33.707 15.3555V17.793Z" fill="white"/>
</g>
<path d="M56.588 32.5V28.98H72.12V32.5H56.588ZM56.588 5.22V1.7H72.12V5.22H56.588ZM56.588 17.54V14.02H71.24V17.54H56.588ZM54.52 1.7H58.26V32.5H54.52V1.7ZM84.2114 17.32H88.3914L99.3914 32.5H94.7714L84.2114 17.32ZM78.7114 1.7H82.4514V32.5H78.7114V1.7ZM80.7794 5V1.7H87.0714C89.0661 1.7 90.8407 2.08133 92.3954 2.844C93.9794 3.57733 95.2261 4.63333 96.1354 6.012C97.0741 7.39067 97.5434 9.03333 97.5434 10.94C97.5434 12.8173 97.0741 14.46 96.1354 15.868C95.2261 17.2467 93.9794 18.3173 92.3954 19.08C90.8407 19.8133 89.0661 20.18 87.0714 20.18H80.7794V16.88H87.0714C88.3914 16.88 89.5501 16.6453 90.5474 16.176C91.5741 15.7067 92.3661 15.032 92.9234 14.152C93.5101 13.272 93.8034 12.2013 93.8034 10.94C93.8034 9.67867 93.5101 8.608 92.9234 7.728C92.3661 6.848 91.5741 6.17333 90.5474 5.704C89.5501 5.23467 88.3914 5 87.0714 5H80.7794ZM126.653 1.7H130.393V34.04L107.073 9.576V32.5H103.333V0.159999L126.653 24.624V1.7ZM140.398 23.26L141.718 19.74H155.358L156.678 23.26H140.398ZM148.45 8.652L143.258 20.884L142.906 21.676L138.33 32.5H134.15L148.45 0.159999L162.75 32.5H158.57L154.082 21.94L153.73 21.06L148.45 8.652Z" fill="#101111"/>
<path d="M168.489 30.74C168.489 30.0653 168.723 29.4933 169.193 29.024C169.691 28.5547 170.263 28.32 170.909 28.32C171.583 28.32 172.155 28.5547 172.625 29.024C173.094 29.4933 173.329 30.0653 173.329 30.74C173.329 31.3853 173.094 31.9573 172.625 32.456C172.155 32.9253 171.583 33.16 170.909 33.16C170.263 33.16 169.691 32.9253 169.193 32.456C168.723 31.9573 168.489 31.3853 168.489 30.74Z" fill="#BF9F65"/>
<path d="M62.3481 46.5L58.4481 40.156V46.5H57.2911V37.855H58.4221L62.4521 44.381V37.855H63.5961V46.5H62.3481ZM68.0546 46.565C67.6126 46.565 67.1923 46.4783 66.7936 46.305C66.3949 46.1317 66.0439 45.8933 65.7406 45.59C65.4373 45.2867 65.1989 44.9357 65.0256 44.537C64.8523 44.1383 64.7656 43.718 64.7656 43.276C64.7656 42.8253 64.8523 42.3963 65.0256 41.989C65.1989 41.5817 65.4373 41.2263 65.7406 40.923C66.0439 40.6197 66.3949 40.3857 66.7936 40.221C67.1923 40.0477 67.6126 39.961 68.0546 39.961C68.5053 39.961 68.9343 40.0477 69.3416 40.221C69.7489 40.3857 70.1043 40.6197 70.4076 40.923C70.7109 41.2263 70.9449 41.5817 71.1096 41.989C71.2829 42.3963 71.3696 42.8253 71.3696 43.276C71.3696 43.718 71.2829 44.1383 71.1096 44.537C70.9449 44.9357 70.7109 45.2867 70.4076 45.59C70.1043 45.8933 69.7489 46.1317 69.3416 46.305C68.9343 46.4783 68.5053 46.565 68.0546 46.565ZM68.0546 41.118C67.4739 41.118 66.9756 41.326 66.5596 41.742C66.3603 41.9413 66.2043 42.1753 66.0916 42.444C65.9789 42.7127 65.9226 42.99 65.9226 43.276C65.9226 43.562 65.9789 43.835 66.0916 44.095C66.2043 44.355 66.3603 44.5847 66.5596 44.784C66.7589 44.9833 66.9843 45.1393 67.2356 45.252C67.4956 45.3647 67.7686 45.421 68.0546 45.421C68.3406 45.421 68.6179 45.3647 68.8866 45.252C69.1553 45.1393 69.3849 44.9833 69.5756 44.784C69.7663 44.5847 69.9179 44.355 70.0306 44.095C70.1433 43.835 70.1996 43.562 70.1996 43.276C70.1996 42.99 70.1433 42.7127 70.0306 42.444C69.9179 42.1753 69.7663 41.9413 69.5756 41.742C69.3849 41.5427 69.1553 41.391 68.8866 41.287C68.6266 41.1743 68.3493 41.118 68.0546 41.118ZM79.1417 46.5H78.0107L76.8277 43.562L75.6447 46.5H74.5137L71.8877 40H73.1617L75.0727 44.745L76.1907 42.002L75.3847 40H76.6587L78.5697 44.745L80.4807 40H81.7417L79.1417 46.5ZM93.3778 40.52C93.3345 40.182 93.2435 39.9047 93.1048 39.688C92.9488 39.454 92.7538 39.285 92.5198 39.181C92.2945 39.0683 92.0041 39.012 91.6488 39.012C91.0595 39.012 90.6478 39.1377 90.4138 39.389C90.1885 39.6143 90.0758 39.9393 90.0758 40.364C90.0758 40.6067 90.1105 40.806 90.1798 40.962C90.2491 41.1093 90.3531 41.2307 90.4918 41.326C90.6998 41.4733 91.0421 41.5687 91.5188 41.612C92.0041 41.6553 92.4115 41.7247 92.7408 41.82C93.0788 41.9067 93.3735 42.028 93.6248 42.184C94.2575 42.5827 94.5738 43.2067 94.5738 44.056C94.5738 44.3853 94.5088 44.6973 94.3788 44.992C94.2488 45.2867 94.0668 45.551 93.8328 45.785C93.5555 46.0537 93.2261 46.253 92.8448 46.383C92.4721 46.513 92.0821 46.578 91.6748 46.578C90.7561 46.578 90.0238 46.318 89.4778 45.798C89.0098 45.33 88.7281 44.706 88.6328 43.926L88.6588 43.913H89.8028C89.8721 44.3723 90.0281 44.7147 90.2708 44.94C90.6088 45.252 91.0638 45.408 91.6358 45.408C92.1818 45.408 92.6151 45.2823 92.9358 45.031C93.2565 44.7797 93.4168 44.4547 93.4168 44.056C93.4168 43.874 93.3908 43.718 93.3388 43.588C93.2955 43.4493 93.2088 43.328 93.0788 43.224C92.7841 42.9987 92.2338 42.8557 91.4278 42.795C90.6045 42.7257 89.9805 42.4873 89.5558 42.08C89.1311 41.6727 88.9188 41.1007 88.9188 40.364C88.9188 39.6187 89.1485 39.0163 89.6078 38.557C90.0931 38.0717 90.7691 37.829 91.6358 37.829C92.5371 37.829 93.2391 38.102 93.7418 38.648C94.1838 39.1247 94.4525 39.7487 94.5478 40.52H93.3778ZM99.7622 46.5V42.509C99.7622 42.1017 99.6192 41.755 99.3332 41.469C99.2032 41.339 99.0472 41.235 98.8652 41.157C98.6919 41.079 98.5142 41.04 98.3322 41.04C97.9422 41.04 97.6042 41.183 97.3182 41.469C97.0322 41.755 96.8892 42.1017 96.8892 42.509V46.5H95.7452V37.829H96.8892V40.455C97.3052 40.065 97.7862 39.87 98.3322 39.87C98.6789 39.87 99.0082 39.9393 99.3202 40.078C99.6322 40.208 99.9095 40.3943 100.152 40.637C100.386 40.8797 100.568 41.1657 100.698 41.495C100.837 41.8157 100.906 42.1537 100.906 42.509V46.5H99.7622ZM105.366 46.565C104.924 46.565 104.504 46.4783 104.105 46.305C103.706 46.1317 103.355 45.8933 103.052 45.59C102.749 45.2867 102.51 44.9357 102.337 44.537C102.164 44.1383 102.077 43.718 102.077 43.276C102.077 42.8253 102.164 42.3963 102.337 41.989C102.51 41.5817 102.749 41.2263 103.052 40.923C103.355 40.6197 103.706 40.3857 104.105 40.221C104.504 40.0477 104.924 39.961 105.366 39.961C105.817 39.961 106.246 40.0477 106.653 40.221C107.06 40.3857 107.416 40.6197 107.719 40.923C108.022 41.2263 108.256 41.5817 108.421 41.989C108.594 42.3963 108.681 42.8253 108.681 43.276C108.681 43.718 108.594 44.1383 108.421 44.537C108.256 44.9357 108.022 45.2867 107.719 45.59C107.416 45.8933 107.06 46.1317 106.653 46.305C106.246 46.4783 105.817 46.565 105.366 46.565ZM105.366 41.118C104.785 41.118 104.287 41.326 103.871 41.742C103.672 41.9413 103.516 42.1753 103.403 42.444C103.29 42.7127 103.234 42.99 103.234 43.276C103.234 43.562 103.29 43.835 103.403 44.095C103.516 44.355 103.672 44.5847 103.871 44.784C104.07 44.9833 104.296 45.1393 104.547 45.252C104.807 45.3647 105.08 45.421 105.366 45.421C105.652 45.421 105.929 45.3647 106.198 45.252C106.467 45.1393 106.696 44.9833 106.887 44.784C107.078 44.5847 107.229 44.355 107.342 44.095C107.455 43.835 107.511 43.562 107.511 43.276C107.511 42.99 107.455 42.7127 107.342 42.444C107.229 42.1753 107.078 41.9413 106.887 41.742C106.696 41.5427 106.467 41.391 106.198 41.287C105.938 41.1743 105.661 41.118 105.366 41.118ZM113.139 46.617C112.645 46.617 112.233 46.539 111.904 46.383C111.574 46.2183 111.275 45.9627 111.007 45.616V49.269H109.85V40.156H111.007V41.066C111.275 40.7367 111.596 40.4723 111.969 40.273C112.341 40.0737 112.731 39.974 113.139 39.974C113.581 39.974 114.001 40.0607 114.4 40.234C114.807 40.3987 115.158 40.637 115.453 40.949C115.756 41.261 115.99 41.6207 116.155 42.028C116.328 42.4267 116.415 42.8513 116.415 43.302C116.415 43.7527 116.328 44.1773 116.155 44.576C115.99 44.9747 115.756 45.33 115.453 45.642C115.158 45.9453 114.807 46.1837 114.4 46.357C114.001 46.5303 113.581 46.617 113.139 46.617ZM113.139 41.157C112.853 41.157 112.58 41.2133 112.32 41.326C112.06 41.43 111.834 41.5817 111.644 41.781C111.453 41.9803 111.301 42.2143 111.189 42.483C111.076 42.743 111.02 43.016 111.02 43.302C111.02 43.588 111.076 43.861 111.189 44.121C111.301 44.381 111.453 44.6107 111.644 44.81C111.834 45.0093 112.06 45.1653 112.32 45.278C112.58 45.3907 112.853 45.447 113.139 45.447C113.425 45.447 113.698 45.3907 113.958 45.278C114.218 45.1653 114.443 45.0093 114.634 44.81C114.824 44.6107 114.972 44.381 115.076 44.121C115.188 43.861 115.245 43.588 115.245 43.302C115.245 43.016 115.188 42.743 115.076 42.483C114.972 42.2143 114.824 41.9803 114.634 41.781C114.443 41.5817 114.218 41.43 113.958 41.326C113.698 41.2133 113.425 41.157 113.139 41.157ZM120.87 46.617C120.376 46.617 119.964 46.539 119.635 46.383C119.306 46.2183 119.007 45.9627 118.738 45.616V49.269H117.581V40.156H118.738V41.066C119.007 40.7367 119.327 40.4723 119.7 40.273C120.073 40.0737 120.463 39.974 120.87 39.974C121.312 39.974 121.732 40.0607 122.131 40.234C122.538 40.3987 122.889 40.637 123.184 40.949C123.487 41.261 123.721 41.6207 123.886 42.028C124.059 42.4267 124.146 42.8513 124.146 43.302C124.146 43.7527 124.059 44.1773 123.886 44.576C123.721 44.9747 123.487 45.33 123.184 45.642C122.889 45.9453 122.538 46.1837 122.131 46.357C121.732 46.5303 121.312 46.617 120.87 46.617ZM120.87 41.157C120.584 41.157 120.311 41.2133 120.051 41.326C119.791 41.43 119.566 41.5817 119.375 41.781C119.184 41.9803 119.033 42.2143 118.92 42.483C118.807 42.743 118.751 43.016 118.751 43.302C118.751 43.588 118.807 43.861 118.92 44.121C119.033 44.381 119.184 44.6107 119.375 44.81C119.566 45.0093 119.791 45.1653 120.051 45.278C120.311 45.3907 120.584 45.447 120.87 45.447C121.156 45.447 121.429 45.3907 121.689 45.278C121.949 45.1653 122.174 45.0093 122.365 44.81C122.556 44.6107 122.703 44.381 122.807 44.121C122.92 43.861 122.976 43.588 122.976 43.302C122.976 43.016 122.92 42.743 122.807 42.483C122.703 42.2143 122.556 41.9803 122.365 41.781C122.174 41.5817 121.949 41.43 121.689 41.326C121.429 41.2133 121.156 41.157 120.87 41.157ZM125.657 39.064C125.492 39.064 125.349 39.0077 125.228 38.895C125.115 38.7737 125.059 38.6307 125.059 38.466C125.059 38.3013 125.115 38.1627 125.228 38.05C125.349 37.9287 125.492 37.868 125.657 37.868C125.821 37.868 125.96 37.9287 126.073 38.05C126.194 38.1627 126.255 38.3013 126.255 38.466C126.255 38.6307 126.194 38.7737 126.073 38.895C125.96 39.0077 125.821 39.064 125.657 39.064ZM125.124 46.5V40H126.216V46.5H125.124ZM131.577 46.5V42.6C131.577 42.21 131.434 41.872 131.148 41.586C130.87 41.3087 130.532 41.17 130.134 41.17C129.744 41.17 129.406 41.313 129.12 41.599C128.99 41.729 128.886 41.885 128.808 42.067C128.73 42.2403 128.691 42.418 128.691 42.6V46.5H127.56V40.156H128.691V40.689C128.855 40.4897 129.072 40.325 129.341 40.195C129.609 40.065 129.874 40 130.134 40C130.48 40 130.81 40.0693 131.122 40.208C131.442 40.338 131.724 40.5243 131.967 40.767C132.201 41.001 132.383 41.2783 132.513 41.599C132.651 41.911 132.721 42.2447 132.721 42.6V46.5H131.577ZM137.041 49.269C136.009 49.269 135.117 48.8097 134.363 47.891L135.39 47.28C135.858 47.826 136.408 48.099 137.041 48.099C137.327 48.099 137.6 48.0427 137.86 47.93C138.12 47.8173 138.345 47.6613 138.536 47.462C138.726 47.2627 138.874 47.033 138.978 46.773C139.09 46.513 139.147 46.24 139.147 45.954V45.642C138.557 46.3007 137.851 46.63 137.028 46.63C136.586 46.63 136.161 46.539 135.754 46.357C135.355 46.1663 135.008 45.9107 134.714 45.59C134.419 45.2693 134.185 44.9053 134.012 44.498C133.847 44.0907 133.765 43.6703 133.765 43.237C133.765 42.795 133.847 42.379 134.012 41.989C134.185 41.5903 134.423 41.2393 134.727 40.936C135.03 40.6413 135.377 40.4117 135.767 40.247C136.165 40.0823 136.586 40 137.028 40C137.504 40 137.929 40.104 138.302 40.312C138.674 40.52 138.956 40.754 139.147 41.014V40.117H140.317V45.954C140.317 46.4047 140.23 46.8293 140.057 47.228C139.892 47.6267 139.658 47.982 139.355 48.294C139.06 48.5973 138.709 48.8357 138.302 49.009C137.903 49.1823 137.483 49.269 137.041 49.269ZM137.028 41.183C136.742 41.183 136.469 41.2393 136.209 41.352C135.949 41.456 135.723 41.6077 135.533 41.807C135.342 42.0063 135.19 42.2403 135.078 42.509C134.965 42.769 134.909 43.042 134.909 43.328C134.909 43.614 134.965 43.8913 135.078 44.16C135.19 44.42 135.342 44.6453 135.533 44.836C135.723 45.0267 135.949 45.1783 136.209 45.291C136.469 45.4037 136.742 45.46 137.028 45.46C137.314 45.46 137.587 45.4037 137.847 45.291C138.107 45.1783 138.332 45.0267 138.523 44.836C138.713 44.6453 138.861 44.42 138.965 44.16C139.077 43.8913 139.134 43.614 139.134 43.328C139.134 43.042 139.077 42.769 138.965 42.509C138.861 42.2403 138.713 42.0063 138.523 41.807C138.332 41.6077 138.107 41.456 137.847 41.352C137.587 41.2393 137.314 41.183 137.028 41.183ZM147.466 46.5V37.855H152.198V39.025H148.597V41.651H151.015V42.717H148.597V45.33H152.198V46.5H147.466ZM158.368 46.5V45.512C158.09 45.8327 157.77 46.0883 157.406 46.279C157.042 46.4697 156.656 46.565 156.249 46.565C155.798 46.565 155.373 46.4827 154.975 46.318C154.585 46.1533 154.238 45.9193 153.935 45.616C153.631 45.3213 153.393 44.9747 153.22 44.576C153.055 44.1687 152.973 43.744 152.973 43.302C152.973 42.86 153.055 42.4397 153.22 42.041C153.393 41.6337 153.631 41.2783 153.935 40.975C154.238 40.6717 154.585 40.4377 154.975 40.273C155.373 40.1083 155.798 40.026 156.249 40.026C156.665 40.026 157.055 40.1127 157.419 40.286C157.791 40.4593 158.108 40.702 158.368 41.014V40.156H159.538V46.5H158.368ZM156.249 41.183C155.963 41.183 155.685 41.2393 155.417 41.352C155.157 41.456 154.931 41.6033 154.741 41.794C154.55 41.9847 154.398 42.2143 154.286 42.483C154.182 42.743 154.13 43.016 154.13 43.302C154.13 43.588 154.182 43.861 154.286 44.121C154.398 44.381 154.55 44.6063 154.741 44.797C154.931 44.9877 155.157 45.1393 155.417 45.252C155.685 45.356 155.963 45.408 156.249 45.408C156.535 45.408 156.808 45.356 157.068 45.252C157.328 45.1393 157.553 44.9877 157.744 44.797C157.934 44.6063 158.082 44.381 158.186 44.121C158.298 43.861 158.355 43.588 158.355 43.302C158.355 43.016 158.298 42.743 158.186 42.483C158.082 42.2143 157.934 41.9847 157.744 41.794C157.553 41.6033 157.328 41.456 157.068 41.352C156.808 41.2393 156.535 41.183 156.249 41.183ZM163.856 41.937C163.83 41.781 163.774 41.6337 163.687 41.495C163.523 41.209 163.198 41.066 162.712 41.066C162.452 41.066 162.253 41.0963 162.114 41.157C161.932 41.2263 161.794 41.326 161.698 41.456C161.612 41.586 161.568 41.729 161.568 41.885C161.568 42.0757 161.638 42.249 161.776 42.405C161.924 42.5697 162.162 42.6563 162.491 42.665C163.072 42.691 163.54 42.7603 163.895 42.873C164.259 42.9857 164.537 43.1807 164.727 43.458C164.927 43.7353 165.026 44.1253 165.026 44.628C165.026 45.1393 164.831 45.5813 164.441 45.954C164.251 46.136 164.025 46.2833 163.765 46.396C163.514 46.5087 163.25 46.565 162.972 46.565H162.777C162.084 46.565 161.525 46.3657 161.1 45.967C160.754 45.6463 160.537 45.1957 160.45 44.615H161.607C161.651 44.823 161.737 44.992 161.867 45.122C162.067 45.3127 162.344 45.408 162.699 45.408C162.795 45.408 162.864 45.4037 162.907 45.395C163.211 45.3777 163.449 45.2953 163.622 45.148C163.796 44.992 163.882 44.8013 163.882 44.576C163.882 44.264 163.787 44.0603 163.596 43.965C163.406 43.8697 163.037 43.822 162.491 43.822C161.807 43.822 161.282 43.6053 160.918 43.172C160.624 42.8427 160.476 42.4267 160.476 41.924C160.476 41.8113 160.481 41.7247 160.489 41.664C160.559 41.1007 160.788 40.6717 161.178 40.377C161.577 40.0737 162.101 39.922 162.751 39.922C163.228 39.922 163.644 40.026 163.999 40.234C164.251 40.39 164.467 40.6067 164.649 40.884C164.823 41.1613 164.935 41.508 164.987 41.924L164.961 41.937H163.856ZM168.883 49.269C168.389 49.269 167.929 49.1433 167.505 48.892C167.089 48.6407 166.725 48.2767 166.413 47.8L167.427 47.215C167.609 47.501 167.825 47.7177 168.077 47.865C168.328 48.021 168.597 48.099 168.883 48.099C169.342 48.099 169.741 47.93 170.079 47.592C170.235 47.436 170.352 47.254 170.43 47.046C170.516 46.838 170.56 46.617 170.56 46.383V45.928C170.36 46.136 170.109 46.305 169.806 46.435C169.502 46.5563 169.195 46.617 168.883 46.617C168.501 46.617 168.142 46.5477 167.804 46.409C167.466 46.2617 167.167 46.058 166.907 45.798C166.638 45.538 166.43 45.239 166.283 44.901C166.135 44.5543 166.062 44.1903 166.062 43.809V40H167.206V43.731C167.206 44.0343 167.279 44.3203 167.427 44.589C167.583 44.849 167.786 45.057 168.038 45.213C168.298 45.369 168.579 45.447 168.883 45.447C169.186 45.447 169.468 45.3733 169.728 45.226C169.988 45.07 170.191 44.862 170.339 44.602C170.486 44.3333 170.56 44.043 170.56 43.731V40H171.704V46.383C171.704 46.773 171.63 47.1457 171.483 47.501C171.344 47.8563 171.145 48.164 170.885 48.424C170.616 48.6927 170.308 48.9007 169.962 49.048C169.624 49.1953 169.264 49.269 168.883 49.269Z" fill="#1B1B1B"/>
<defs>
<clipPath id="clip0_1170_23359">
<rect width="45" height="45" fill="white" transform="translate(0 1.5)"/>
</clipPath>
</defs>
</svg>
