<svg width="25" height="40" viewBox="0 0 25 40" fill="none" xmlns="http://www.w3.org/2000/svg">
<path d="M16.1211 11.9864V13.4721C16.12 13.8507 15.9691 14.2134 15.7014 14.4811C15.4337 14.7487 15.071 14.8996 14.6925 14.9007H10.4568C10.0782 14.8996 9.71551 14.7487 9.44784 14.4811C9.18017 14.2134 9.02931 13.8507 9.02819 13.4721V11.9864C8.02819 11.9862 1.44242 11.9866 0.599609 11.9864V17.3936H24.5996V11.9864H16.1211Z" fill="#743E26"/>
<path d="M23.2149 4.4434C21.8613 4.44327 17.5425 4.44349 16.122 4.4434C16.1191 6.12688 16.1241 8.83074 16.122 10.5577C17.3126 10.5586 23.2757 10.557 24.3292 10.5577L22.5149 6.98626C22.889 6.69367 23.1591 6.28846 23.2852 5.83052C23.4112 5.37259 23.3866 4.88625 23.2149 4.4434Z" fill="#743E26"/>
<path d="M9.02825 4.44336H1.92824C1.75572 4.89559 1.73489 5.39165 1.86888 5.85675C2.00287 6.32186 2.28442 6.7308 2.6711 7.02193L0.871094 10.5577H9.02825C9.02127 8.83047 9.03325 6.14984 9.02825 4.44336Z" fill="#743E26"/>
<path d="M9.02734 3.01429C9.02058 2.17597 9.03222 0.82683 9.02734 0H4.0059C3.64663 0.00260603 3.29329 0.0917834 2.97582 0.259975C2.65834 0.428166 2.38609 0.670414 2.18214 0.966188C1.97819 1.26196 1.84855 1.60254 1.8042 1.95907C1.75985 2.3156 1.80211 2.67756 1.92739 3.01429H9.02734Z" fill="#743E26"/>
<path d="M16.1206 3.01429C17.5599 3.0142 21.8417 3.01433 23.2135 3.01429C23.3398 2.67871 23.3833 2.31761 23.3403 1.96162C23.2973 1.60564 23.169 1.26529 22.9664 0.969452C22.7638 0.673612 22.4928 0.431013 22.1764 0.262244C21.8601 0.0934746 21.5077 0.0035153 21.1491 0H16.1206C16.1161 0.822365 16.1238 2.18052 16.1206 3.01429Z" fill="#743E26"/>
<path d="M0.599609 37.1421C0.599507 37.5173 0.67334 37.8889 0.816889 38.2356C0.960438 38.5823 1.17089 38.8973 1.43622 39.1626C1.70155 39.4279 2.01656 39.6384 2.36325 39.7819C2.70994 39.9255 3.08152 39.9993 3.45676 39.9992H21.7425C22.1177 39.9993 22.4893 39.9255 22.836 39.7819C23.1827 39.6384 23.4977 39.4279 23.763 39.1626C24.0284 38.8973 24.2388 38.5823 24.3824 38.2356C24.5259 37.8889 24.5997 37.5173 24.5996 37.1421V34.9492H0.599609V37.1421Z" fill="#743E26"/>
<path d="M0.599609 33.5223H24.5996V18.8223H0.599609V33.5223ZM16.764 22.008C18.6612 23.9901 18.305 27.2901 16.0211 29.6008C13.9313 31.8038 9.96544 32.4916 8.05676 29.8865C4.56676 25.0266 12.3029 17.8272 16.764 22.008Z" fill="#743E26"/>
<path d="M11.0917 27.1078C11.4581 26.7566 11.7518 26.3367 11.956 25.8721C12.2232 25.2552 12.6091 24.697 13.0917 24.2292C13.5577 23.7426 14.1163 23.354 14.7346 23.0863C14.9658 22.9884 15.1861 22.8663 15.3917 22.7221C14.8783 22.3737 14.2692 22.1939 13.6489 22.2078C12.3348 22.2535 11.0911 22.8126 10.1846 23.7649C8.91315 25.0237 8.2206 26.9136 8.89173 28.5221C9.7984 27.8656 10.2116 27.9949 11.0917 27.1078Z" fill="#743E26"/>
<path d="M13.2495 26.4782C12.9791 27.095 12.5909 27.653 12.1066 28.121C11.1107 29.1133 10.6745 29.0558 9.80664 29.6281C10.4511 30.0524 11.2289 30.2253 11.9924 30.1138C13.143 29.9595 14.2078 29.4209 15.0138 28.5853C16.4424 27.1567 16.9209 25.2138 16.3066 23.8281C16.0049 24.044 15.6818 24.2283 15.3424 24.3781C14.421 24.8123 13.6805 25.5553 13.2495 26.4782Z" fill="#743E26"/>
<path d="M11.1713 13.472H13.9785C14.1679 13.472 14.3496 13.3967 14.4835 13.2628C14.6175 13.1288 14.6928 12.9471 14.6928 12.7577V8.96484H10.457V12.7577C10.457 12.9471 10.5323 13.1288 10.6662 13.2628C10.8002 13.3967 10.9819 13.472 11.1713 13.472ZM12.5713 11.1291C12.7496 11.1317 12.9197 11.2044 13.0448 11.3313C13.17 11.4583 13.2401 11.6294 13.2401 11.8077C13.2401 11.986 13.1699 12.1571 13.0448 12.2841C12.9196 12.4111 12.7495 12.4837 12.5713 12.4863C12.393 12.4837 12.2229 12.411 12.0978 12.2841C11.9726 12.1571 11.9025 11.986 11.9025 11.8077C11.9025 11.6294 11.9727 11.4583 12.0978 11.3313C12.223 11.2043 12.3931 11.1317 12.5713 11.1291Z" fill="#743E26"/>
<path d="M10.457 0H14.6928V7.53572H10.457V0Z" fill="#743E26"/>
</svg>
