<svg width="29" height="40" viewBox="0 0 29 40" fill="none" xmlns="http://www.w3.org/2000/svg">
<path d="M26.0755 4.98828H2.1479C1.86573 4.98791 1.58626 5.04321 1.32549 5.15101C1.06473 5.25882 0.827795 5.41702 0.628269 5.61655C0.428743 5.81607 0.270544 6.05301 0.162736 6.31377C0.0549273 6.57454 -0.000372668 6.85401 4.31585e-06 7.13618V10.4797C-0.00032302 10.5739 0.0179728 10.6671 0.0538376 10.7541C0.0897023 10.8411 0.142427 10.9202 0.208976 10.9867C0.275525 11.0533 0.354583 11.106 0.441596 11.1419C0.528609 11.1777 0.621857 11.196 0.715971 11.1957H27.5074C27.6016 11.196 27.6948 11.1777 27.7818 11.1419C27.8688 11.106 27.9479 11.0533 28.0144 10.9867C28.081 10.9202 28.1337 10.8411 28.1696 10.7541C28.2054 10.6671 28.2237 10.5739 28.2234 10.4797V7.13618C28.2238 6.85401 28.1685 6.57454 28.0607 6.31377C27.9529 6.05301 27.7947 5.81607 27.5951 5.61655C27.3956 5.41702 27.1587 5.25882 26.8979 5.15101C26.6372 5.04321 26.3577 4.98791 26.0755 4.98828Z" fill="#743E26"/>
<path d="M26.076 3.55729C26.0978 3.55612 26.1195 3.55854 26.1405 3.56445C26.0184 2.92206 25.689 2.33746 25.2027 1.90033C24.7164 1.4632 24.1001 1.19767 23.4484 1.14448L5.60655 0.00609693C4.99322 -0.0340315 4.38331 0.124723 3.86738 0.458786C3.35145 0.792848 2.95703 1.2844 2.74268 1.86045L2.10547 3.55729H26.076Z" fill="#743E26"/>
<path d="M14.9347 24.9367C14.6427 25.8966 14.1075 26.7648 13.3811 27.4569C12.8665 28.0012 12.2481 28.4369 11.5625 28.7385C12.8369 29.1036 14.7199 28.4378 16.1733 26.9844C17.82 25.3376 18.4573 23.1325 17.7198 21.8867C17.0695 22.1742 16.486 22.5938 16.0065 23.1188C15.5271 23.6439 15.1621 24.263 14.9347 24.9367Z" fill="#743E26"/>
<path d="M10.3825 27.6635C11.133 27.4212 11.8152 27.0041 12.3729 26.4464C12.9305 25.8887 13.3477 25.2065 13.59 24.456C13.8787 23.4963 14.4116 22.6279 15.1365 21.9358C15.4953 21.5664 15.8994 21.2441 16.3393 20.9764C14.8572 20.7735 13.3512 21.4632 11.9791 22.7806C10.4541 24.2947 9.65703 26.594 10.3825 27.6635Z" fill="#743E26"/>
<path d="M1.83203 12.6289L3.72218 37.3512C3.77923 38.0707 4.10461 38.7423 4.63377 39.233C5.16294 39.7237 5.85722 39.9976 6.57889 40.0003H21.5712C22.2929 39.9976 22.9872 39.7238 23.5164 39.2331C24.0455 38.7424 24.3709 38.0707 24.4279 37.3512L26.3181 12.6289H1.83203ZM10.9606 21.7718C13.454 19.2888 16.8127 18.7169 18.5427 20.6048C21.6014 23.9473 16.6112 30.4342 12.3208 30.2774C7.83483 30.1166 7.67489 24.8982 10.9606 21.7718Z" fill="#743E26"/>
</svg>
