<svg width="37" height="40" viewBox="0 0 37 40" fill="none" xmlns="http://www.w3.org/2000/svg">
<path d="M12.3917 32.043C11.2048 33.0941 9.67412 33.6744 8.08864 33.6744C6.50317 33.6744 4.97253 33.0941 3.78557 32.043C1.84914 33.1964 -1.15485 36.4982 0.460288 38.8793C0.707223 39.2246 1.0327 39.5063 1.40989 39.7011C1.78707 39.8959 2.20515 39.9982 2.62967 39.9997H13.5478C13.9723 39.9982 14.3903 39.8959 14.7675 39.7011C15.1447 39.5063 15.4702 39.2246 15.7171 38.8793C17.3318 36.4999 14.3241 33.1895 12.3917 32.043Z" fill="#743E26"/>
<path d="M5.2753 31.3976C5.43676 31.5211 5.61181 31.6257 5.79705 31.7094C5.75267 31.6873 5.71486 31.6559 5.67183 31.6318C6.44046 32.0283 7.29462 32.2302 8.15945 32.2199C9.02427 32.2095 9.87336 31.9872 10.6323 31.5724C10.5789 31.6105 10.5226 31.6443 10.464 31.6737C10.5231 31.6441 10.5788 31.6032 10.6365 31.5702C10.6798 31.5458 10.7218 31.5193 10.7643 31.4936C10.8302 31.4526 10.8981 31.4196 10.9635 31.374C10.8968 31.4062 10.8331 31.4443 10.7732 31.4878C11.4663 31.0566 12.0348 30.452 12.4224 29.7336C12.81 29.0152 13.0032 28.2081 12.9831 27.3921C12.7547 20.9126 3.40648 20.9198 3.19241 27.392C3.17611 28.1807 3.35831 28.9609 3.72227 29.6608C4.08622 30.3607 4.62026 30.9579 5.2753 31.3976Z" fill="#743E26"/>
<path d="M33.1144 32.043C31.9277 33.0948 30.397 33.6755 28.8113 33.6755C27.2256 33.6755 25.6949 33.0948 24.5082 32.043C22.5785 33.1894 19.5661 36.4998 21.183 38.8793C21.4299 39.2246 21.7554 39.5063 22.1326 39.7011C22.5097 39.8959 22.9278 39.9982 23.3523 39.9997H34.2704C34.6949 39.9982 35.113 39.8959 35.4902 39.7011C35.8674 39.5063 36.1929 39.2246 36.4398 38.8793C38.0527 36.4984 35.0535 33.1966 33.1144 32.043Z" fill="#743E26"/>
<path d="M23.9153 27.3905C23.8973 28.1763 24.0764 28.9541 24.4365 29.6527C24.7965 30.3514 25.3258 30.9487 25.9762 31.3901C26.1185 31.5001 26.2721 31.5947 26.4343 31.6723C26.3904 31.6485 26.352 31.6183 26.3096 31.5934C27.0721 32.0012 27.9229 32.2159 28.7875 32.2185C29.6522 32.2211 30.5043 32.0117 31.2692 31.6085C31.2123 31.6391 31.1593 31.681 31.1013 31.708C31.1719 31.6745 31.2397 31.6352 31.3038 31.5905C31.3866 31.5449 31.4673 31.4958 31.5475 31.4453C31.5898 31.4161 31.6338 31.3894 31.6793 31.3654C31.6475 31.3887 31.6124 31.4022 31.5801 31.4242C32.2475 30.9874 32.7928 30.3879 33.1646 29.6823C33.5365 28.9767 33.7228 28.1881 33.706 27.3907C33.5133 20.9254 24.1223 20.9183 23.9153 27.3905Z" fill="#743E26"/>
<path d="M29.3036 20.7112C29.4442 20.7096 29.5813 20.6668 29.6978 20.588C29.8143 20.5092 29.9052 20.398 29.9591 20.2681C30.0131 20.1382 30.0277 19.9953 30.0012 19.8572C29.9747 19.719 29.9083 19.5917 29.8101 19.491L28.6113 18.2921C35.4804 11.6635 28.5385 0.381492 19.5128 3.52068C13.8216 5.47389 11.7232 13.0625 15.8237 17.6357C16.6525 18.6015 17.6805 19.3765 18.8372 19.9074C19.9938 20.4383 21.2517 20.7125 22.5243 20.7112H29.3036ZM18.4497 8.92255H24.3725C24.5599 8.9254 24.7386 9.00184 24.8701 9.13536C25.0016 9.26888 25.0753 9.44877 25.0753 9.63617C25.0753 9.82358 25.0016 10.0035 24.8701 10.137C24.7386 10.2705 24.5598 10.3469 24.3725 10.3498H18.4496C18.2622 10.3469 18.0835 10.2705 17.952 10.1369C17.8205 10.0034 17.7468 9.82354 17.7468 9.63613C17.7468 9.44872 17.8205 9.26884 17.952 9.13533C18.0835 9.00181 18.2623 8.92539 18.4497 8.92255ZM18.4497 11.884H27.334C27.5214 11.8868 27.7001 11.9633 27.8316 12.0968C27.9631 12.2303 28.0368 12.4102 28.0368 12.5976C28.0368 12.785 27.9631 12.9649 27.8316 13.0984C27.7001 13.2319 27.5214 13.3083 27.334 13.3112H18.4497C18.2622 13.3084 18.0834 13.232 17.9519 13.0985C17.8203 12.9649 17.7466 12.785 17.7466 12.5976C17.7466 12.4101 17.8203 12.2302 17.9519 12.0967C18.0835 11.9631 18.2623 11.8868 18.4497 11.884Z" fill="#743E26"/>
<path d="M7.09597 16.5296C6.99777 16.6298 6.93105 16.7565 6.90407 16.8941C6.87709 17.0318 6.89103 17.1743 6.94415 17.3041C6.99728 17.4339 7.08728 17.5453 7.20302 17.6245C7.31876 17.7038 7.45518 17.7473 7.59541 17.7499H14.1035C13.9363 17.5156 13.7815 17.2726 13.6398 17.022C10.1907 11.4417 13.4588 3.45989 19.8551 1.92929C10.8251 -4.72888 0.361566 7.35166 8.29477 15.3308L7.09597 16.5296Z" fill="#743E26"/>
</svg>
