<svg width="40" height="32" viewBox="0 0 40 32" fill="none" xmlns="http://www.w3.org/2000/svg">
<path d="M20.0018 6.45996L5.73596 18.2825C5.73596 18.2992 5.73179 18.3237 5.72345 18.3572C5.71528 18.3904 5.71094 18.4145 5.71094 18.4316V30.4032C5.71094 30.8355 5.86814 31.2101 6.18246 31.5255C6.49669 31.8411 6.8688 31.9999 7.29887 31.9999H16.8258V22.4224H23.1779V32.0003H32.7047C33.1347 32.0003 33.5073 31.8418 33.8211 31.5255C34.1355 31.2104 34.2932 30.8356 34.2932 30.4032V18.4316C34.2932 18.3652 34.2841 18.3151 34.2682 18.2825L20.0018 6.45996Z" fill="#E42E3B"/>
<path d="M39.7241 15.5885L34.291 11.0492V0.87314C34.291 0.640507 34.2166 0.449193 34.0673 0.299462C33.9192 0.149906 33.7289 0.0751277 33.4969 0.0751277H28.7334C28.5017 0.0751277 28.3115 0.149906 28.1625 0.299462C28.0138 0.449193 27.9395 0.640594 27.9395 0.87314V5.73661L21.8858 0.648456C21.3571 0.216123 20.7285 0 20.0006 0C19.2728 0 18.6443 0.216123 18.115 0.648456L0.275697 15.5885C0.110325 15.7212 0.0196879 15.9 0.00282926 16.1245C-0.0139425 16.3488 0.0438463 16.5448 0.176369 16.7109L1.71459 18.5566C1.84712 18.7062 2.02057 18.7976 2.23565 18.8311C2.43422 18.8479 2.63278 18.7895 2.83135 18.6565L20.0001 4.26507L37.169 18.6565C37.3016 18.7725 37.475 18.8304 37.6901 18.8304H37.7646C37.9794 18.7975 38.1525 18.7055 38.2857 18.5563L39.8241 16.7108C39.9563 16.5443 40.0143 16.3487 39.9971 16.1241C39.9801 15.9002 39.8892 15.7215 39.7241 15.5885Z" fill="#E42E3B"/>
</svg>
