<svg width="35" height="36" viewBox="0 0 35 36" fill="none" xmlns="http://www.w3.org/2000/svg">
<path d="M34.2701 16.7737L29.61 12.1147C29.4963 11.997 29.3603 11.9031 29.21 11.8386C29.0597 11.774 28.898 11.74 28.7344 11.7386C28.5708 11.7371 28.4085 11.7683 28.2571 11.8303C28.1057 11.8922 27.9681 11.9837 27.8524 12.0994C27.7367 12.2151 27.6452 12.3527 27.5833 12.5041C27.5213 12.6556 27.4901 12.8178 27.4916 12.9814C27.493 13.145 27.527 13.3067 27.5915 13.4571C27.6561 13.6074 27.75 13.7434 27.8677 13.857L30.7781 16.7675H18.6768V4.666L21.5873 7.57648C21.8196 7.80093 22.1309 7.92513 22.454 7.92232C22.777 7.91952 23.0861 7.78993 23.3145 7.56147C23.543 7.33301 23.6726 7.02395 23.6754 6.70087C23.6782 6.37779 23.554 6.06653 23.3296 5.83414L18.6768 1.17393C18.5159 1.0129 18.3247 0.885169 18.1144 0.79802C17.904 0.71087 17.6785 0.666016 17.4508 0.666016C17.2231 0.666016 16.9977 0.71087 16.7873 0.79802C16.5769 0.885169 16.3858 1.0129 16.2248 1.17393L11.5659 5.83414C11.3415 6.06653 11.2173 6.37779 11.2201 6.70087C11.2229 7.02395 11.3525 7.33301 11.5809 7.56147C11.8094 7.78993 12.1184 7.91952 12.4415 7.92232C12.7646 7.92513 13.0758 7.80093 13.3082 7.57648L16.2125 4.666V16.7675H4.11123L7.02165 13.857C7.2461 13.6246 7.37029 13.3134 7.36749 12.9903C7.36468 12.6672 7.23509 12.3582 7.00664 12.1297C6.77818 11.9012 6.46913 11.7717 6.14606 11.7688C5.82299 11.766 5.51173 11.8902 5.27934 12.1147L0.619234 16.7737C0.45821 16.9347 0.330477 17.1258 0.243329 17.3362C0.156182 17.5465 0.111328 17.772 0.111328 17.9997C0.111328 18.2274 0.156182 18.4529 0.243329 18.6633C0.330477 18.8736 0.45821 19.0648 0.619234 19.2258L5.27934 23.8847C5.51173 24.1092 5.82299 24.2334 6.14606 24.2306C6.46913 24.2278 6.77818 24.0982 7.00664 23.8697C7.23509 23.6413 7.36468 23.3322 7.36749 23.0091C7.37029 22.686 7.2461 22.3748 7.02165 22.1424L4.11123 19.2319H16.2125V31.3334L13.3021 28.4229C13.1884 28.3053 13.0524 28.2114 12.9021 28.1468C12.7518 28.0822 12.5901 28.0482 12.4265 28.0468C12.2629 28.0454 12.1006 28.0766 11.9492 28.1385C11.7978 28.2005 11.6602 28.292 11.5445 28.4077C11.4288 28.5234 11.3373 28.6609 11.2754 28.8124C11.2134 28.9638 11.1822 29.1261 11.1836 29.2897C11.1851 29.4533 11.2191 29.615 11.2836 29.7653C11.3482 29.9156 11.4421 30.0516 11.5598 30.1653L16.2186 34.8243C16.3796 34.9854 16.5707 35.1133 16.781 35.2005C16.9914 35.2878 17.2169 35.3327 17.4447 35.3327C17.6724 35.3327 17.8979 35.2878 18.1083 35.2005C18.3187 35.1133 18.5098 34.9854 18.6707 34.8243L23.3296 30.164C23.4472 30.0504 23.5411 29.9144 23.6057 29.7641C23.6703 29.6137 23.7043 29.4521 23.7057 29.2884C23.7071 29.1248 23.6759 28.9626 23.614 28.8111C23.552 28.6597 23.4605 28.5221 23.3448 28.4064C23.2291 28.2907 23.0916 28.1992 22.9401 28.1373C22.7887 28.0753 22.6264 28.0442 22.4628 28.0456C22.2992 28.047 22.1375 28.081 21.9872 28.1456C21.8369 28.2101 21.7009 28.304 21.5873 28.4217L18.6768 31.3334V19.2319H30.7781L27.8677 22.1424C27.75 22.2561 27.6561 22.392 27.5915 22.5424C27.527 22.6927 27.493 22.8544 27.4916 23.018C27.4901 23.1816 27.5213 23.3439 27.5833 23.4953C27.6452 23.6467 27.7367 23.7843 27.8524 23.9C27.9681 24.0157 28.1057 24.1072 28.2571 24.1691C28.4085 24.2311 28.5708 24.2623 28.7344 24.2609C28.898 24.2594 29.0597 24.2254 29.21 24.1609C29.3603 24.0963 29.4963 24.0024 29.61 23.8847L34.2701 19.2319C34.4311 19.0709 34.5588 18.8798 34.646 18.6694C34.7331 18.459 34.778 18.2336 34.778 18.0059C34.778 17.7782 34.7331 17.5527 34.646 17.3423C34.5588 17.132 34.4311 16.9408 34.2701 16.7798V16.7737Z" fill="black"/>
</svg>
