<svg width="28" height="10" viewBox="0 0 28 10" fill="none" xmlns="http://www.w3.org/2000/svg">
<path d="M5.7562 4.57147L26.8227 4.58902C26.9324 4.58902 27.0376 4.63413 27.1152 4.71442C27.1927 4.79472 27.2363 4.90362 27.2363 5.01717C27.2363 5.13072 27.1927 5.23962 27.1152 5.31991C27.0376 5.4002 26.9324 5.44531 26.8227 5.44531L5.75579 5.42776C5.64608 5.42776 5.54087 5.38265 5.4633 5.30236C5.38573 5.22207 5.34215 5.11316 5.34215 4.99961C5.34215 4.88606 5.38573 4.77716 5.4633 4.69687C5.54087 4.61658 5.6465 4.57147 5.7562 4.57147Z" fill="#101111"/>
<path d="M5.7562 4.57147L26.8227 4.58902C26.9324 4.58902 27.0376 4.63413 27.1152 4.71442C27.1927 4.79472 27.2363 4.90362 27.2363 5.01717C27.2363 5.13072 27.1927 5.23962 27.1152 5.31991C27.0376 5.4002 26.9324 5.44531 26.8227 5.44531L5.75579 5.42776C5.64608 5.42776 5.54087 5.38265 5.4633 5.30236C5.38573 5.22207 5.34215 5.11316 5.34215 4.99961C5.34215 4.88606 5.38573 4.77716 5.4633 4.69687C5.54087 4.61658 5.6465 4.57147 5.7562 4.57147Z" fill="black" fill-opacity="0.2"/>
<path d="M5.7562 4.57147L26.8227 4.58902C26.9324 4.58902 27.0376 4.63413 27.1152 4.71442C27.1927 4.79472 27.2363 4.90362 27.2363 5.01717C27.2363 5.13072 27.1927 5.23962 27.1152 5.31991C27.0376 5.4002 26.9324 5.44531 26.8227 5.44531L5.75579 5.42776C5.64608 5.42776 5.54087 5.38265 5.4633 5.30236C5.38573 5.22207 5.34215 5.11316 5.34215 4.99961C5.34215 4.88606 5.38573 4.77716 5.4633 4.69687C5.54087 4.61658 5.6465 4.57147 5.7562 4.57147Z" fill="black" fill-opacity="0.2"/>
<path d="M5.7562 4.57147L26.8227 4.58902C26.9324 4.58902 27.0376 4.63413 27.1152 4.71442C27.1927 4.79472 27.2363 4.90362 27.2363 5.01717C27.2363 5.13072 27.1927 5.23962 27.1152 5.31991C27.0376 5.4002 26.9324 5.44531 26.8227 5.44531L5.75579 5.42776C5.64608 5.42776 5.54087 5.38265 5.4633 5.30236C5.38573 5.22207 5.34215 5.11316 5.34215 4.99961C5.34215 4.88606 5.38573 4.77716 5.4633 4.69687C5.54087 4.61658 5.6465 4.57147 5.7562 4.57147Z" fill="black" fill-opacity="0.2"/>
<path d="M5.7562 4.57147L26.8227 4.58902C26.9324 4.58902 27.0376 4.63413 27.1152 4.71442C27.1927 4.79472 27.2363 4.90362 27.2363 5.01717C27.2363 5.13072 27.1927 5.23962 27.1152 5.31991C27.0376 5.4002 26.9324 5.44531 26.8227 5.44531L5.75579 5.42776C5.64608 5.42776 5.54087 5.38265 5.4633 5.30236C5.38573 5.22207 5.34215 5.11316 5.34215 4.99961C5.34215 4.88606 5.38573 4.77716 5.4633 4.69687C5.54087 4.61658 5.6465 4.57147 5.7562 4.57147Z" fill="black" fill-opacity="0.2"/>
<path d="M0.762758 4.99419C3.11263 4.09508 6.02876 2.55719 7.83594 0.926812L6.41055 4.99932L7.83056 9.07227C6.02504 7.43975 3.11138 5.89843 0.762758 4.99419Z" fill="#101111"/>
<path d="M0.762758 4.99419C3.11263 4.09508 6.02876 2.55719 7.83594 0.926812L6.41055 4.99932L7.83056 9.07227C6.02504 7.43975 3.11138 5.89843 0.762758 4.99419Z" fill="black" fill-opacity="0.2"/>
<path d="M0.762758 4.99419C3.11263 4.09508 6.02876 2.55719 7.83594 0.926812L6.41055 4.99932L7.83056 9.07227C6.02504 7.43975 3.11138 5.89843 0.762758 4.99419Z" fill="black" fill-opacity="0.2"/>
<path d="M0.762758 4.99419C3.11263 4.09508 6.02876 2.55719 7.83594 0.926812L6.41055 4.99932L7.83056 9.07227C6.02504 7.43975 3.11138 5.89843 0.762758 4.99419Z" fill="black" fill-opacity="0.2"/>
<path d="M0.762758 4.99419C3.11263 4.09508 6.02876 2.55719 7.83594 0.926812L6.41055 4.99932L7.83056 9.07227C6.02504 7.43975 3.11138 5.89843 0.762758 4.99419Z" fill="black" fill-opacity="0.2"/>
</svg>
