<svg width="28" height="10" viewBox="0 0 28 10" fill="none" xmlns="http://www.w3.org/2000/svg">
<path d="M22.2438 4.57147L1.17731 4.58902C1.0676 4.58902 0.962395 4.63413 0.884823 4.71442C0.807251 4.79472 0.763672 4.90362 0.763672 5.01717C0.763672 5.13072 0.807251 5.23962 0.884823 5.31991C0.962395 5.4002 1.0676 5.44531 1.17731 5.44531L22.2442 5.42776C22.3539 5.42776 22.4591 5.38265 22.5367 5.30236C22.6143 5.22207 22.6578 5.11316 22.6578 4.99961C22.6578 4.88606 22.6143 4.77716 22.5367 4.69687C22.4591 4.61658 22.3535 4.57147 22.2438 4.57147Z" fill="#101111"/>
<path d="M22.2438 4.57147L1.17731 4.58902C1.0676 4.58902 0.962395 4.63413 0.884823 4.71442C0.807251 4.79472 0.763672 4.90362 0.763672 5.01717C0.763672 5.13072 0.807251 5.23962 0.884823 5.31991C0.962395 5.4002 1.0676 5.44531 1.17731 5.44531L22.2442 5.42776C22.3539 5.42776 22.4591 5.38265 22.5367 5.30236C22.6143 5.22207 22.6578 5.11316 22.6578 4.99961C22.6578 4.88606 22.6143 4.77716 22.5367 4.69687C22.4591 4.61658 22.3535 4.57147 22.2438 4.57147Z" fill="black" fill-opacity="0.2"/>
<path d="M22.2438 4.57147L1.17731 4.58902C1.0676 4.58902 0.962395 4.63413 0.884823 4.71442C0.807251 4.79472 0.763672 4.90362 0.763672 5.01717C0.763672 5.13072 0.807251 5.23962 0.884823 5.31991C0.962395 5.4002 1.0676 5.44531 1.17731 5.44531L22.2442 5.42776C22.3539 5.42776 22.4591 5.38265 22.5367 5.30236C22.6143 5.22207 22.6578 5.11316 22.6578 4.99961C22.6578 4.88606 22.6143 4.77716 22.5367 4.69687C22.4591 4.61658 22.3535 4.57147 22.2438 4.57147Z" fill="black" fill-opacity="0.2"/>
<path d="M22.2438 4.57147L1.17731 4.58902C1.0676 4.58902 0.962395 4.63413 0.884823 4.71442C0.807251 4.79472 0.763672 4.90362 0.763672 5.01717C0.763672 5.13072 0.807251 5.23962 0.884823 5.31991C0.962395 5.4002 1.0676 5.44531 1.17731 5.44531L22.2442 5.42776C22.3539 5.42776 22.4591 5.38265 22.5367 5.30236C22.6143 5.22207 22.6578 5.11316 22.6578 4.99961C22.6578 4.88606 22.6143 4.77716 22.5367 4.69687C22.4591 4.61658 22.3535 4.57147 22.2438 4.57147Z" fill="black" fill-opacity="0.2"/>
<path d="M22.2438 4.57147L1.17731 4.58902C1.0676 4.58902 0.962395 4.63413 0.884823 4.71442C0.807251 4.79472 0.763672 4.90362 0.763672 5.01717C0.763672 5.13072 0.807251 5.23962 0.884823 5.31991C0.962395 5.4002 1.0676 5.44531 1.17731 5.44531L22.2442 5.42776C22.3539 5.42776 22.4591 5.38265 22.5367 5.30236C22.6143 5.22207 22.6578 5.11316 22.6578 4.99961C22.6578 4.88606 22.6143 4.77716 22.5367 4.69687C22.4591 4.61658 22.3535 4.57147 22.2438 4.57147Z" fill="black" fill-opacity="0.2"/>
<path d="M27.2372 4.99419C24.8874 4.09508 21.9712 2.55719 20.1641 0.926812L21.5895 4.99932L20.1694 9.07227C21.975 7.43975 24.8886 5.89843 27.2372 4.99419Z" fill="#101111"/>
<path d="M27.2372 4.99419C24.8874 4.09508 21.9712 2.55719 20.1641 0.926812L21.5895 4.99932L20.1694 9.07227C21.975 7.43975 24.8886 5.89843 27.2372 4.99419Z" fill="black" fill-opacity="0.2"/>
<path d="M27.2372 4.99419C24.8874 4.09508 21.9712 2.55719 20.1641 0.926812L21.5895 4.99932L20.1694 9.07227C21.975 7.43975 24.8886 5.89843 27.2372 4.99419Z" fill="black" fill-opacity="0.2"/>
<path d="M27.2372 4.99419C24.8874 4.09508 21.9712 2.55719 20.1641 0.926812L21.5895 4.99932L20.1694 9.07227C21.975 7.43975 24.8886 5.89843 27.2372 4.99419Z" fill="black" fill-opacity="0.2"/>
<path d="M27.2372 4.99419C24.8874 4.09508 21.9712 2.55719 20.1641 0.926812L21.5895 4.99932L20.1694 9.07227C21.975 7.43975 24.8886 5.89843 27.2372 4.99419Z" fill="black" fill-opacity="0.2"/>
</svg>
