<svg width="32" height="10" viewBox="0 0 32 10" fill="none" xmlns="http://www.w3.org/2000/svg">
<path d="M25.965 5.52592L0.5 5.50437C0.367392 5.50437 0.240215 5.449 0.146447 5.35042C0.0526784 5.25185 0 5.11815 0 4.97875C0 4.83934 0.0526784 4.70565 0.146447 4.60708C0.240215 4.5085 0.367392 4.45312 0.5 4.45312L25.9655 4.47468C26.0981 4.47468 26.2253 4.53005 26.319 4.62863C26.4128 4.7272 26.4655 4.8609 26.4655 5.0003C26.4655 5.1397 26.4128 5.2734 26.319 5.37197C26.2253 5.47055 26.0976 5.52592 25.965 5.52592Z" fill="#FD5B44"/>
<path d="M32.0031 5.00657C29.1626 6.11038 25.6376 7.99842 23.4531 10L25.1761 5.00026L23.4596 0C25.6421 2.0042 29.1641 3.89645 32.0031 5.00657Z" fill="#FD5B44"/>
</svg>
