<svg width="12" height="38" viewBox="0 0 12 38" fill="none" xmlns="http://www.w3.org/2000/svg">
<path d="M5.402 30.4822L5.42645 1.13961C5.42645 0.986812 5.48928 0.840269 5.60112 0.732223C5.71295 0.624176 5.86464 0.563477 6.0228 0.563477C6.18096 0.563477 6.33264 0.624176 6.44447 0.732223C6.55631 0.840269 6.61914 0.986812 6.61914 1.13961L6.59469 30.4828C6.59469 30.6356 6.53186 30.7821 6.42002 30.8902C6.30819 30.9982 6.1565 31.0589 5.99834 31.0589C5.84018 31.0589 5.6885 30.9982 5.57666 30.8902C5.46483 30.7821 5.402 30.635 5.402 30.4822Z" fill="white"/>
<path d="M5.99169 37.4359C4.73937 34.1629 2.5973 30.1011 0.326422 27.584L5.99885 29.5693L11.6719 27.5915C9.39801 30.1063 7.25117 34.1646 5.99169 37.4359Z" fill="white"/>
</svg>
