<svg width="20" height="20" viewBox="0 0 20 20" fill="none" xmlns="http://www.w3.org/2000/svg">
<path d="M18.674 19.3426L17.1539 4.86709C17.122 4.56405 16.8666 4.33395 16.5619 4.33395H13.7048V3.68255C13.7048 1.65207 12.0528 0 10.0223 0C7.99165 0 6.33959 1.65207 6.33959 3.68255V4.33395H3.48254C3.17782 4.33395 2.92239 4.56405 2.8905 4.86709L1.37042 19.3426C1.35287 19.5103 1.40735 19.6777 1.52011 19.8031C1.63302 19.9284 1.79385 20 1.96246 20H18.0818C18.2506 20 18.4114 19.9284 18.5242 19.8031C18.6372 19.6777 18.6915 19.5103 18.674 19.3426ZM7.53007 3.68255C7.53007 2.3085 8.64808 1.19049 10.0223 1.19049C11.3963 1.19049 12.5143 2.3085 12.5143 3.68255V4.33395H7.53007V3.68255ZM2.62347 18.8095L4.01858 5.52443H6.33959V6.83623C6.33959 7.1649 6.60616 7.43147 6.93483 7.43147C7.2635 7.43147 7.53007 7.1649 7.53007 6.83623V5.52443H12.5143V6.83623C12.5143 7.1649 12.7809 7.43147 13.1096 7.43147C13.4383 7.43147 13.7048 7.1649 13.7048 6.83623V5.52443H16.0258L17.421 18.8095H2.62347Z" fill="#101111"/>
</svg>
