<svg width="20" height="20" viewBox="0 0 20 20" fill="none" xmlns="http://www.w3.org/2000/svg">
<path fill-rule="evenodd" clip-rule="evenodd" d="M9.35248 16.9772C10.0634 16.9772 10.6404 17.6544 10.6404 18.4886C10.6404 19.3228 10.0634 20 9.35248 20C8.64158 20 8.06453 19.3228 8.06453 18.4886C8.06453 17.6544 8.64158 16.9772 9.35248 16.9772ZM14.9545 16.9772C15.6654 16.9772 16.2424 17.6544 16.2424 18.4886C16.2424 19.3228 15.6654 20 14.9545 20C14.2436 20 13.6665 19.3228 13.6665 18.4886C13.6665 17.6544 14.2436 16.9772 14.9545 16.9772ZM0.800561 1.87892H2.62008C2.97424 1.87892 3.2855 2.15625 3.38029 2.55759C3.38029 2.55759 3.38093 2.55759 3.38093 2.55834C3.99384 5.1475 5.31829 10.7422 5.93376 13.3411C6.2226 14.5624 7.17047 15.4072 8.24962 15.4072H16.026C17.1294 15.4072 18.0914 14.5256 18.3585 13.2689C18.9003 10.7279 19.9762 5.6766 19.9762 5.6766C20.0358 5.39626 19.982 5.09864 19.8302 4.87092C19.6784 4.64244 19.446 4.50941 19.1994 4.50941H8.06453C7.62262 4.50941 7.26397 4.93029 7.26397 5.44887C7.26397 5.96746 7.62262 6.38834 8.06453 6.38834H18.174L16.8047 12.815C16.7157 13.2344 16.3942 13.5282 16.026 13.5282H8.24962C7.88905 13.5282 7.57267 13.2457 7.47596 12.8383C6.86049 10.2394 5.53604 4.64394 4.92313 2.05479C4.63685 0.841006 3.69411 0 2.62008 0H0.800561C0.358651 0 0 0.420878 0 0.939461C0 1.45804 0.358651 1.87892 0.800561 1.87892Z" fill="#101111"/>
</svg>
