<svg width="21" height="20" viewBox="0 0 21 20" fill="none" xmlns="http://www.w3.org/2000/svg">
<path d="M0.869565 1.19921e-07C0.389318 1.19921e-07 0 0.389318 0 0.869565C0 1.34981 0.389318 1.73913 0.869565 1.73913H2.41678C2.54339 1.73913 2.66678 1.77897 2.76949 1.853C2.87219 1.92703 2.949 2.0315 2.98903 2.15161L5.85598 10.7541C5.98329 11.136 5.99948 11.5473 5.90183 11.9378L5.66576 12.8838C5.31937 14.2694 6.3979 15.6522 7.82609 15.6522H18.2609C18.7411 15.6522 19.1304 15.2629 19.1304 14.7826C19.1304 14.3024 18.7411 13.913 18.2609 13.913H7.82609C7.48749 13.913 7.27012 13.6352 7.35224 13.3067L7.53027 12.5957C7.56044 12.4752 7.63 12.3683 7.72791 12.2918C7.82582 12.2154 7.94645 12.1739 8.07065 12.1739H17.3913C17.7657 12.1741 18.0982 11.9346 18.2167 11.5795L20.535 4.62296C20.7228 4.05967 20.3034 3.47799 19.7096 3.47826H5.69973C5.57312 3.47826 5.44972 3.43843 5.34701 3.3644C5.24431 3.29037 5.16749 3.1859 5.12746 3.06579L4.30367 0.594429C4.18518 0.239265 3.85267 -0.000195628 3.47826 1.19921e-07H0.869565ZM6.95652 16.5217C5.99603 16.5217 5.21739 17.3004 5.21739 18.2609C5.21739 19.2214 5.99603 20 6.95652 20C7.91702 20 8.69565 19.2214 8.69565 18.2609C8.69565 17.3004 7.91702 16.5217 6.95652 16.5217ZM17.3913 16.5217C16.4308 16.5217 15.6522 17.3004 15.6522 18.2609C15.6522 19.2214 16.4308 20 17.3913 20C18.3518 20 19.1304 19.2214 19.1304 18.2609C19.1304 17.3004 18.3518 16.5217 17.3913 16.5217Z" fill="#147D77"/>
</svg>
