<svg width="34" height="34" viewBox="0 0 34 34" fill="none" xmlns="http://www.w3.org/2000/svg">
<path d="M33.2629 25.9371C32.2016 25.0471 25.9772 21.1055 24.9426 21.2864C24.4569 21.3726 24.0854 21.7867 23.0909 22.9731C22.6309 23.557 22.1259 24.1039 21.5803 24.6087C20.5807 24.3672 19.6131 24.0086 18.6976 23.5401C15.1073 21.7922 12.2068 18.8908 10.4599 15.3C9.99143 14.3845 9.63276 13.4169 9.39129 12.4173C9.8961 11.8717 10.443 11.3666 11.0269 10.9067C12.2121 9.91222 12.6274 9.54307 12.7136 9.05493C12.8945 8.01793 8.94929 1.79593 8.06286 0.734643C7.69129 0.295071 7.35371 0 6.92143 0C5.66829 0 0 7.00886 0 7.91714C0 7.99121 0.121428 15.2879 9.33664 24.6634C18.7121 33.8786 26.0088 34 26.0829 34C26.9911 34 34 28.3317 34 27.0786C34 26.6463 33.7049 26.3087 33.2629 25.9371Z" fill="#E42E3B"/>
<path d="M25.481 15.7856H27.9096C27.9067 13.2101 26.8823 10.7409 25.0612 8.91973C23.24 7.09858 20.7708 6.07418 18.1953 6.07129V8.49986C20.127 8.50179 21.979 9.27001 23.345 10.6359C24.7109 12.0018 25.4791 13.8539 25.481 15.7856Z" fill="#E42E3B"/>
<path d="M31.5525 15.7857H33.981C33.9762 11.6006 32.3115 7.58821 29.3522 4.62885C26.3928 1.6695 22.3805 0.00482068 18.1953 0V2.42857C21.7366 2.43275 25.1316 3.84136 27.6356 6.3454C30.1397 8.84945 31.5483 12.2445 31.5525 15.7857Z" fill="#E42E3B"/>
</svg>
