<svg width="56" height="54" viewBox="0 0 56 54" fill="none" xmlns="http://www.w3.org/2000/svg">
<path fill-rule="evenodd" clip-rule="evenodd" d="M33.6503 49.8848C33.6503 47.9493 32.0812 46.3802 30.1457 46.3802H25.8543C24.9248 46.3802 24.0334 46.7494 23.3762 47.4067C22.7189 48.0639 22.3497 48.9553 22.3497 49.8848C22.3497 51.8203 23.9188 53.3894 25.8543 53.3894H30.1457C32.0812 53.3894 33.6503 51.8203 33.6503 49.8848ZM7.36761 40.8479C7.95298 40.8926 8.66119 40.9183 9.37256 40.8766C9.75155 42.7986 10.693 44.5812 12.0984 45.9866C13.9641 47.8522 16.4945 48.9004 19.133 48.9004H20.4702C20.4112 49.223 20.3809 49.5524 20.3809 49.8848C20.3809 50.2209 20.4112 50.55 20.4693 50.8691H19.133C15.9724 50.8691 12.9411 49.6136 10.7063 47.3788C8.92336 45.5957 7.76366 43.306 7.36761 40.8479ZM6.36617 38.753C4.81184 38.491 3.36547 37.752 2.23639 36.6228C0.804453 35.1909 0 33.2487 0 31.2236V26.5705C0 24.5454 0.804453 22.6032 2.23639 21.1713C3.66833 19.7394 5.6105 18.9348 7.63558 18.9348H8.14384C8.95628 8.68025 17.5359 0.611328 28 0.611328C38.4641 0.611328 47.0437 8.68025 47.8562 18.9348H48.3644C50.3895 18.9348 52.3317 19.7394 53.7636 21.1713C55.1955 22.6032 56 24.5454 56 26.5705V31.2236C56 33.2487 55.1955 35.1909 53.7636 36.6228C52.3317 38.0549 50.3895 38.8593 48.3644 38.8593H46.1112C45.1767 38.8593 44.4192 38.1017 44.4192 37.1673V20.5305C44.4192 11.4624 37.0681 4.11133 28 4.11133C18.9319 4.11133 11.5808 11.4624 11.5808 20.5305V37.1673C11.5808 37.827 11.2032 38.3988 10.6521 38.6778C9.13533 39.2041 6.783 38.8233 6.36617 38.753Z" fill="#BF9F65"/>
</svg>
