<svg width="56" height="56" viewBox="0 0 56 56" fill="none" xmlns="http://www.w3.org/2000/svg">
<path fill-rule="evenodd" clip-rule="evenodd" d="M33.6503 50.8848C33.6503 48.9493 32.0812 47.3802 30.1457 47.3802H25.8543C24.9248 47.3802 24.0334 47.7494 23.3762 48.4067C22.7189 49.0639 22.3497 49.9553 22.3497 50.8848C22.3497 52.8203 23.9188 54.3894 25.8543 54.3894H30.1457C32.0812 54.3894 33.6503 52.8203 33.6503 50.8848ZM7.36761 41.8479C7.95298 41.8926 8.66119 41.9183 9.37256 41.8766C9.75155 43.7986 10.693 45.5812 12.0984 46.9866C13.9641 48.8522 16.4945 49.9004 19.133 49.9004H20.4702C20.4112 50.223 20.3809 50.5524 20.3809 50.8848C20.3809 51.2209 20.4112 51.55 20.4693 51.8691H19.133C15.9724 51.8691 12.9411 50.6136 10.7063 48.3788C8.92336 46.5957 7.76366 44.306 7.36761 41.8479ZM6.36617 39.753C4.81184 39.491 3.36547 38.752 2.23639 37.6228C0.804453 36.1909 0 34.2487 0 32.2236V27.5705C0 25.5454 0.804453 23.6032 2.23639 22.1713C3.66833 20.7394 5.6105 19.9348 7.63558 19.9348H8.14384C8.95628 9.68025 17.5359 1.61133 28 1.61133C38.4641 1.61133 47.0437 9.68025 47.8562 19.9348H48.3644C50.3895 19.9348 52.3317 20.7394 53.7636 22.1713C55.1955 23.6032 56 25.5454 56 27.5705V32.2236C56 34.2487 55.1955 36.1909 53.7636 37.6228C52.3317 39.0549 50.3895 39.8593 48.3644 39.8593H46.1112C45.1767 39.8593 44.4192 39.1017 44.4192 38.1673V21.5305C44.4192 12.4624 37.0681 5.11133 28 5.11133C18.9319 5.11133 11.5808 12.4624 11.5808 21.5305V38.1673C11.5808 38.827 11.2032 39.3988 10.6521 39.6778C9.13533 40.2041 6.783 39.8233 6.36617 39.753Z" fill="#FF0004"/>
</svg>
