<svg width="21" height="21" viewBox="0 0 21 21" fill="none" xmlns="http://www.w3.org/2000/svg">
<path d="M7.40402 15.8926H1.09766C0.925078 15.8926 0.785156 15.7527 0.785156 15.5801V7.07031C0.785156 6.89773 0.925078 6.75781 1.09766 6.75781C1.66859 6.75781 2.20504 6.98004 2.60812 7.38359C3.01141 7.78645 3.23367 8.32289 3.23367 8.89383V14.0139H6.32891C7.09402 14.0139 7.71652 14.6364 7.71652 15.4015V15.5801C7.71652 15.7527 7.5766 15.8926 7.40402 15.8926ZM1.41016 15.2676H7.07977C7.01629 14.9107 6.70375 14.6389 6.32891 14.6389H2.92117C2.74859 14.6389 2.60867 14.499 2.60867 14.3264V8.89383C2.60867 8.48996 2.45152 8.11055 2.16617 7.82555C1.95598 7.61512 1.69469 7.47441 1.41016 7.41492V15.2676Z" fill="#BF9F65"/>
<path d="M1.43988 20.1475C1.42605 20.1475 1.4121 20.1466 1.398 20.1448C1.22695 20.1218 1.10683 19.9646 1.12976 19.7935L1.6996 15.5386C1.72249 15.3675 1.87968 15.2476 2.05081 15.2703C2.22187 15.2933 2.34199 15.4505 2.31906 15.6216L1.74921 19.8765C1.7282 20.0335 1.59402 20.1475 1.43988 20.1475Z" fill="#BF9F65"/>
<path d="M7.21367 20.1476C7.06402 20.1476 6.93184 20.0397 6.90598 19.8873L6.18414 15.6324C6.15527 15.4622 6.2698 15.3009 6.43996 15.272C6.61004 15.2433 6.77144 15.3577 6.80031 15.5278L7.52215 19.7828C7.55102 19.9529 7.43648 20.1142 7.26633 20.1431C7.24863 20.1461 7.23101 20.1476 7.21367 20.1476Z" fill="#BF9F65"/>
<path d="M19.9392 15.8926H13.6328C13.4602 15.8926 13.3203 15.7527 13.3203 15.5801V15.4016C13.3203 14.6364 13.9428 14.014 14.7079 14.014H17.8031V8.89383C17.8031 8.32289 18.0254 7.78645 18.4289 7.38336C18.8318 6.98008 19.3682 6.75781 19.9391 6.75781C20.1117 6.75781 20.2516 6.89773 20.2516 7.07031V15.5801C20.2517 15.7527 20.1117 15.8926 19.9392 15.8926ZM13.9571 15.2676H19.6267V7.41492C19.3422 7.47437 19.0809 7.61504 18.8709 7.82527C18.5853 8.11055 18.4282 8.48992 18.4282 8.89379V14.3264C18.4282 14.499 18.2882 14.6389 18.1157 14.6389H14.7079C14.3331 14.6389 14.0206 14.9107 13.9571 15.2676Z" fill="#BF9F65"/>
<path d="M19.5969 20.1475C19.4427 20.1475 19.3085 20.0335 19.2875 19.8765L18.7176 15.6215C18.6948 15.4505 18.8148 15.2933 18.9859 15.2703C19.1567 15.2476 19.3142 15.3676 19.3371 15.5386L19.907 19.7935C19.9299 19.9646 19.8098 20.1218 19.6387 20.1447C19.6247 20.1466 19.6106 20.1475 19.5969 20.1475Z" fill="#BF9F65"/>
<path d="M13.8227 20.1475C13.8054 20.1475 13.7878 20.1461 13.7701 20.1431C13.5999 20.1143 13.4854 19.9529 13.5142 19.7827L14.236 15.5278C14.2649 15.3577 14.4262 15.2434 14.5964 15.272C14.7666 15.3008 14.8811 15.4622 14.8523 15.6323L14.1305 19.8873C14.1046 20.0398 13.9723 20.1475 13.8227 20.1475Z" fill="#BF9F65"/>
<path d="M15.3056 11.9415H5.58012C4.98883 11.9415 4.50781 11.4605 4.50781 10.8692C4.50781 10.2779 4.98883 9.79688 5.58012 9.79688H15.3056C15.8969 9.79688 16.3779 10.2779 16.3779 10.8692C16.3779 11.4605 15.8969 11.9415 15.3056 11.9415ZM5.58012 10.4219C5.33348 10.4219 5.13281 10.6226 5.13281 10.8692C5.13281 11.1158 5.33348 11.3165 5.58012 11.3165H15.3056C15.5522 11.3165 15.7529 11.1158 15.7529 10.8692C15.7529 10.6226 15.5522 10.4219 15.3056 10.4219H5.58012Z" fill="#BF9F65"/>
<path d="M10.7472 13.613H10.1393C9.56829 13.613 9.03189 13.3908 8.62884 12.9872C8.27173 12.6306 8.05216 12.1572 8.01083 11.6546C7.99669 11.4826 8.12466 11.3316 8.29665 11.3175C8.46861 11.3031 8.61958 11.4313 8.63372 11.6033C8.66294 11.9584 8.81814 12.2929 9.07076 12.5452C9.35603 12.8309 9.7354 12.988 10.1393 12.988H10.7472C11.5275 12.988 12.1888 12.3797 12.2528 11.6033C12.2669 11.4313 12.4183 11.3035 12.5899 11.3175C12.7618 11.3317 12.8899 11.4826 12.8756 11.6546C12.7852 12.7528 11.8502 13.613 10.7472 13.613Z" fill="#BF9F65"/>
<path d="M20.168 20.1475H0.792969C0.620391 20.1475 0.480469 20.0075 0.480469 19.835C0.480469 19.6624 0.620391 19.5225 0.792969 19.5225H20.168C20.3405 19.5225 20.4805 19.6624 20.4805 19.835C20.4805 20.0075 20.3405 20.1475 20.168 20.1475Z" fill="#BF9F65"/>
<path d="M12.0375 20.1473C12.0168 20.1473 11.9964 20.1454 11.9762 20.1415C11.9563 20.1372 11.9367 20.1313 11.918 20.1235C11.8988 20.1157 11.8809 20.106 11.8637 20.095C11.8468 20.0833 11.8308 20.0704 11.8164 20.056C11.802 20.0415 11.7887 20.0255 11.7773 20.0087C11.7664 19.9915 11.7566 19.9735 11.7488 19.9544C11.741 19.9356 11.7348 19.9161 11.7309 19.8962C11.727 19.8758 11.7246 19.8556 11.7246 19.8349C11.7246 19.8146 11.727 19.7942 11.7309 19.7739C11.7348 19.754 11.741 19.7345 11.7488 19.7153C11.7566 19.6966 11.7664 19.6786 11.7773 19.6614C11.7887 19.6442 11.802 19.6282 11.8164 19.6142C11.8308 19.5997 11.8468 19.5864 11.8637 19.5751C11.8808 19.5638 11.8988 19.5544 11.918 19.5466C11.9367 19.5388 11.9563 19.5325 11.9762 19.5286C12.0164 19.5204 12.0582 19.5204 12.0984 19.5286C12.1184 19.5325 12.1379 19.5388 12.157 19.5466C12.1757 19.5544 12.1937 19.5638 12.2109 19.5751C12.2277 19.5864 12.2438 19.5997 12.2582 19.6142C12.2727 19.6282 12.2859 19.6442 12.2973 19.6614C12.3086 19.6786 12.318 19.6965 12.3258 19.7153C12.3336 19.7345 12.3398 19.754 12.3438 19.7739C12.3477 19.7942 12.3496 19.8146 12.3496 19.8349C12.3496 19.8556 12.3476 19.8759 12.3438 19.8962C12.3398 19.9161 12.3336 19.9356 12.3258 19.9544C12.318 19.9735 12.3086 19.9915 12.2973 20.0087C12.2859 20.0255 12.2727 20.0415 12.2582 20.056C12.2438 20.0704 12.2277 20.0833 12.2109 20.095C12.1937 20.106 12.1758 20.1157 12.1566 20.1235C12.1379 20.1313 12.1184 20.1372 12.0984 20.1415C12.0781 20.1454 12.0578 20.1473 12.0375 20.1473Z" fill="#BF9F65"/>
<path d="M12.9439 6.50863H8.01756C7.78385 6.50863 7.5796 6.35887 7.50932 6.13594C7.44319 5.92609 7.51147 5.70125 7.67944 5.56379L10.0472 2.99461L10.087 0.720117C10.0899 0.549414 10.2293 0.413086 10.3993 0.413086C10.4012 0.413086 10.403 0.413086 10.4049 0.413125C10.5775 0.416172 10.7149 0.558477 10.7119 0.731055L10.6724 2.99066L13.263 5.54895C13.4414 5.68164 13.5186 5.90809 13.4555 6.1248C13.3886 6.35434 13.183 6.50863 12.9439 6.50863ZM8.2346 5.88363H12.7124L10.3681 3.56855L8.2346 5.88363Z" fill="#BF9F65"/>
<path d="M10.4434 20.147C10.2708 20.147 10.1309 20.0071 10.1309 19.8345V13.4521C10.1309 13.2796 10.2708 13.1396 10.4434 13.1396C10.6159 13.1396 10.7559 13.2796 10.7559 13.4521V19.8345C10.7559 20.0071 10.6159 20.147 10.4434 20.147Z" fill="#BF9F65"/>
</svg>
