<svg width="20" height="20" viewBox="0 0 20 20" fill="none" xmlns="http://www.w3.org/2000/svg">
<path d="M15.2061 16.48V15.3006C15.2061 15.1441 15.0793 15.0172 14.9227 15.0172H14.2037V13.6776H14.4215C14.578 13.6776 14.7049 13.5507 14.7049 13.3942V11.1396C14.7049 10.9831 14.578 10.8562 14.4215 10.8562H0.784615C0.628096 10.8562 0.501214 10.9831 0.501214 11.1396V13.3942C0.501214 13.5507 0.628096 13.6776 0.784615 13.6776H1.00243V15.0172H0.283401C0.126882 15.0172 0 15.1441 0 15.3006V16.48C0 16.6365 0.126882 16.7634 0.283401 16.7634H1.00243V19.7156C1.00243 19.8721 1.12931 19.999 1.28583 19.999H2.46518C2.6217 19.999 2.74858 19.8721 2.74858 19.7156V16.7633H12.4576V19.7156C12.4576 19.8721 12.5844 19.999 12.741 19.999H13.9203C14.0768 19.999 14.2037 19.8721 14.2037 19.7156V16.7633H14.9227C15.0793 16.7634 15.2061 16.6365 15.2061 16.48ZM13.6369 15.0172H13.0244V13.6776H13.6369V15.0172ZM12.4576 13.6776V15.0172H2.74854V13.6776H12.4576ZM1.06802 11.423H14.1381V13.1107H1.06802V11.423ZM1.56923 13.6776H2.18178V15.0172H1.56923V13.6776ZM2.18174 19.4322H1.56923V16.7633H2.18178L2.18174 19.4322ZM13.6369 19.4322H13.0244V16.7633H13.6369V19.4322ZM14.6393 16.1966H0.566801V15.584H14.6393V16.1966ZM19.8583 1.43544L17.4361 0.0369789C17.3484 -0.0136284 17.2404 -0.0136284 17.1527 0.0369789L14.7305 1.43544C14.6194 1.49961 14.5653 1.63034 14.5984 1.75422C14.6316 1.87815 14.744 1.96426 14.8722 1.96426H15.5881L15.9983 4.10928C16.0239 4.24289 16.1407 4.33948 16.2767 4.33948H17.011V12.586C16.4812 12.7139 16.0863 13.1917 16.0863 13.7603V19.4322H15.3107C15.1542 19.4322 15.0273 19.5591 15.0273 19.7156C15.0273 19.8721 15.1542 19.999 15.3107 19.999H19.2782C19.4348 19.999 19.5616 19.8721 19.5616 19.7156C19.5616 19.5591 19.4348 19.4322 19.2782 19.4322H18.5026V13.7603C18.5026 13.1917 18.1077 12.7139 17.5778 12.586V4.33948H18.3122C18.4482 4.33948 18.565 4.24289 18.5905 4.10928L19.0007 1.96426H19.7166C19.8448 1.96426 19.9571 1.87811 19.9903 1.75422C20.0235 1.63034 19.9694 1.49961 19.8583 1.43544ZM17.9357 13.7603V19.4322H16.653V13.7603C16.653 13.4066 16.9407 13.1189 17.2944 13.1189C17.6481 13.1189 17.9357 13.4066 17.9357 13.7603ZM17.2944 0.609691L18.6589 1.3975H15.9299L17.2944 0.609691ZM18.0778 3.77268H16.511L16.1651 1.96426H18.4236L18.0778 3.77268Z" fill="#BF9F65"/>
</svg>
