<svg width="19" height="20" viewBox="0 0 19 20" fill="none" xmlns="http://www.w3.org/2000/svg">
<path d="M0.333333 20H4.48033C4.56833 20 4.65267 19.9653 4.715 19.9033L6.298 18.3333H12.369L13.952 19.9033C14.0143 19.9653 14.0987 20 14.1867 20H18.3333C18.5173 20 18.6667 19.8507 18.6667 19.6667V18C18.6667 17.9973 18.6653 17.9953 18.6653 17.9927V16.7023C18.6653 16.5183 18.516 16.369 18.332 16.369C18.148 16.369 17.9987 16.5183 17.9987 16.7023V17.6667H12.506H6.16067H0.672667V4.66667H1.33333H3H4.66667H17.9987V15.2737C17.9987 15.4577 18.148 15.607 18.332 15.607C18.516 15.607 18.6653 15.4577 18.6653 15.2737V4.33333C18.6653 4.14933 18.516 4 18.332 4H5V2.16667C5 1.52333 4.47667 1 3.83333 1C3.65167 1 3.482 1.04533 3.32867 1.11967C3.30333 0.498667 2.79367 0 2.16667 0C1.52333 0 1 0.523333 1 1.16667V4H0.339333C0.155333 4 0.00600004 4.14933 0.00600004 4.33333V17.9703C0.00500004 17.9803 0 17.9893 0 18V19.6667C0 19.8507 0.149333 20 0.333333 20ZM3.83333 1.66667C4.109 1.66667 4.33333 1.891 4.33333 2.16667V4H3.33333V2.16667C3.33333 1.891 3.55767 1.66667 3.83333 1.66667ZM1.66667 1.16667C1.66667 0.891 1.891 0.666667 2.16667 0.666667C2.44233 0.666667 2.66667 0.891 2.66667 1.16667V2.16667V4H1.66667V1.16667ZM18 18.3333V19.3333H14.3237L13.3157 18.3333H18ZM5.35133 18.3333L4.34333 19.3333H0.666667V18.3333H5.35133Z" fill="#BF9F65"/>
<path d="M17.6673 5.66634C17.6673 5.48234 17.518 5.33301 17.334 5.33301H1.66732C1.48332 5.33301 1.33398 5.48234 1.33398 5.66634V9.01901C1.33398 9.20301 1.48332 9.35234 1.66732 9.35234C1.85132 9.35234 2.00065 9.20301 2.00065 9.01901V5.99967H17.0007V10.333H2.00065V9.99967C2.00065 9.81567 1.85132 9.66634 1.66732 9.66634C1.48332 9.66634 1.33398 9.81567 1.33398 9.99967V10.6663C1.33398 10.8503 1.48332 10.9997 1.66732 10.9997H17.334C17.518 10.9997 17.6673 10.8503 17.6673 10.6663V5.66634Z" fill="#BF9F65"/>
<path d="M17.334 11.667H1.66732C1.48332 11.667 1.33398 11.8163 1.33398 12.0003V17.0003C1.33398 17.1843 1.48332 17.3337 1.66732 17.3337H17.334C17.518 17.3337 17.6673 17.1843 17.6673 17.0003V12.0003C17.6673 11.8163 17.518 11.667 17.334 11.667ZM17.0007 16.667H2.00065V12.3337H17.0007V16.667Z" fill="#BF9F65"/>
<path d="M8.33333 6.66699C8.14933 6.66699 8 6.81633 8 7.00033V8.00033C8 8.18433 8.14933 8.33366 8.33333 8.33366H10.6667C10.8507 8.33366 11 8.18433 11 8.00033V7.00033C11 6.81633 10.8507 6.66699 10.6667 6.66699C10.4827 6.66699 10.3333 6.81633 10.3333 7.00033V7.66699H8.66667V7.00033C8.66667 6.81633 8.51733 6.66699 8.33333 6.66699Z" fill="#BF9F65"/>
<path d="M8.33333 14.6667H10.6667C10.8507 14.6667 11 14.5173 11 14.3333V13.3333C11 13.1493 10.8507 13 10.6667 13C10.4827 13 10.3333 13.1493 10.3333 13.3333V14H8.66667V13.3333C8.66667 13.1493 8.51733 13 8.33333 13C8.14933 13 8 13.1493 8 13.3333V14.3333C8 14.5173 8.14933 14.6667 8.33333 14.6667Z" fill="#BF9F65"/>
</svg>
