<svg width="21" height="20" viewBox="0 0 21 20" fill="none" xmlns="http://www.w3.org/2000/svg">
<path d="M20.0657 17.5302L16.7129 3.18134C16.6612 2.96172 16.5636 2.75855 16.4279 2.58816C16.2922 2.41777 16.1222 2.28492 15.9315 2.20028L13.2136 0.999518L12.3724 0.070568C12.3324 0.0266166 12.2786 0.00149283 12.2222 0.000481926C12.2208 0.000481926 12.2195 0 12.2181 0H7.8545C7.85313 0 7.85179 0.000447502 7.85038 0.000481926C7.794 0.00148566 7.74016 0.0266105 7.70021 0.070568L6.85909 0.999484L4.14119 2.20024C3.95055 2.28488 3.78054 2.41774 3.64484 2.58812C3.50913 2.75851 3.41151 2.96168 3.35982 3.18131L0.00691548 17.5302C-0.00729308 17.591 0.000574821 17.6556 0.0288422 17.7101C0.0571096 17.7646 0.103541 17.8048 0.158239 17.822L3.21277 18.7859C3.26812 18.8035 3.32752 18.7961 3.37798 18.7654C3.42844 18.7348 3.46585 18.6833 3.48203 18.6222L4.14543 16.1311V19.759C4.14543 19.8229 4.16841 19.8842 4.20933 19.9294C4.25025 19.9746 4.30574 20 4.36361 20H15.709C15.7669 20 15.8224 19.9746 15.8633 19.9294C15.9042 19.8842 15.9272 19.8229 15.9272 19.759V16.1311L16.5906 18.6222C16.6068 18.6833 16.6442 18.7348 16.6946 18.7654C16.7451 18.7961 16.8045 18.8035 16.8598 18.7859L19.9144 17.822C19.9691 17.8048 20.0155 17.7646 20.0438 17.7101C20.072 17.6556 20.0799 17.591 20.0657 17.5302ZM12.0311 3.73838L12.3298 4.28812C12.359 4.34187 12.3776 4.40179 12.3845 4.464C12.3914 4.52621 12.3864 4.58933 12.3698 4.64927C12.3532 4.7092 12.3254 4.76462 12.2881 4.81193C12.2509 4.85924 12.2051 4.89738 12.1537 4.92389L10.0478 6.00926L12.2851 0.655697L12.9032 1.33831L13.3038 2.51842C13.3235 2.57628 13.3321 2.63801 13.3291 2.69972C13.326 2.76143 13.3115 2.82178 13.2863 2.87697C13.2611 2.93215 13.2259 2.98098 13.1827 3.02037C13.1396 3.05977 13.0896 3.08887 13.0358 3.10585L12.1582 3.38279C12.126 3.39295 12.0964 3.41115 12.0716 3.43598C12.0468 3.46081 12.0276 3.4916 12.0153 3.52598C12.003 3.56035 11.998 3.59739 12.0008 3.63422C12.0035 3.67105 12.0139 3.70669 12.0311 3.73838ZM8.05744 3.52599C8.04514 3.4916 8.02585 3.4608 8.00105 3.43597C7.97626 3.41114 7.94662 3.39294 7.91443 3.38279L7.03685 3.10585C6.98305 3.08887 6.93301 3.05977 6.8899 3.02037C6.84678 2.98098 6.81153 2.93215 6.78634 2.87697C6.76116 2.82178 6.7466 2.76143 6.74358 2.69972C6.74056 2.63801 6.74915 2.57628 6.7688 2.51842L7.16947 1.33831L7.78758 0.655697L9.79599 5.46186L9.64832 5.81525L7.91902 4.92399C7.86759 4.89749 7.82177 4.85934 7.78454 4.81203C7.74731 4.76472 7.7195 4.7093 7.7029 4.64936C7.6863 4.58942 7.68128 4.52629 7.68818 4.46408C7.69508 4.40186 7.71374 4.34194 7.74294 4.28819L8.04151 3.73838C8.05873 3.7067 8.06913 3.67107 8.07189 3.63424C8.07465 3.59741 8.0697 3.56037 8.05744 3.52599ZM8.19548 0.481928H11.8771L10.0363 4.88685L8.19548 0.481928ZM3.12434 18.2568L0.482549 17.4232L0.650673 16.7038L3.31425 17.5443L3.12434 18.2568ZM4.58179 14.4553V8.43373C4.58179 8.36983 4.5588 8.30854 4.51788 8.26335C4.47697 8.21816 4.42147 8.19277 4.36361 8.19277C4.30574 8.19277 4.25025 8.21816 4.20933 8.26335C4.16841 8.30854 4.14543 8.36983 4.14543 8.43373V14.4231L3.43737 17.0819L0.759732 16.237L3.78228 3.30176C3.81673 3.15533 3.8818 3.01988 3.97227 2.90629C4.06273 2.79269 4.17607 2.70413 4.30317 2.64771L6.60395 1.63129L6.36018 2.34923C6.31937 2.46941 6.30154 2.59762 6.30782 2.72579C6.3141 2.85395 6.34434 2.9793 6.39665 3.09391C6.44896 3.20853 6.5222 3.30994 6.61175 3.39175C6.7013 3.47356 6.80523 3.534 6.91697 3.56926L7.52109 3.7599L7.36876 4.04028C7.30811 4.1519 7.26937 4.27635 7.25504 4.40557C7.24072 4.53479 7.25113 4.66589 7.28561 4.79038C7.32008 4.91486 7.37785 5.02997 7.45518 5.12822C7.5325 5.22648 7.62765 5.3057 7.73447 5.36076L9.46545 6.25287L9.40186 6.40506C9.40158 6.40568 9.40146 6.40637 9.40121 6.40695C9.39699 6.41723 9.39344 6.42783 9.39058 6.43866C9.39018 6.44024 9.38986 6.44182 9.38946 6.44341C9.38715 6.45295 9.38537 6.46264 9.38413 6.47243C9.38388 6.47432 9.38354 6.47621 9.38335 6.47811C9.38233 6.48737 9.3818 6.49669 9.38176 6.50602V19.5181H4.58179V14.4553ZM15.709 8.19277C15.6511 8.19277 15.5956 8.21816 15.5547 8.26335C15.5138 8.30854 15.4908 8.36983 15.4908 8.43373V19.5181H9.81812V6.65948L12.3381 5.36072C12.445 5.30567 12.5401 5.22645 12.6174 5.1282C12.6948 5.02994 12.7525 4.91484 12.787 4.79035C12.8215 4.66586 12.8319 4.53476 12.8176 4.40554C12.8033 4.27632 12.7645 4.15187 12.7039 4.04024L12.5515 3.75986L13.1556 3.56923C13.2674 3.53397 13.3713 3.47353 13.4609 3.39172C13.5504 3.30991 13.6236 3.2085 13.676 3.09388C13.7283 2.97926 13.7585 2.85392 13.7648 2.72575C13.7711 2.59759 13.7532 2.46937 13.7124 2.34919L13.4687 1.63126L15.7694 2.64768C15.8965 2.70409 16.0099 2.79266 16.1003 2.90625C16.1908 3.01985 16.2559 3.1553 16.2903 3.30172L19.3129 16.237L16.6352 17.0819L15.9272 14.4231V8.43373C15.9272 8.36983 15.9042 8.30854 15.8633 8.26335C15.8224 8.21816 15.7669 8.19277 15.709 8.19277ZM16.9481 18.2568L16.7584 17.5443L19.4219 16.7038L19.5901 17.4232L16.9481 18.2568ZM10.6908 7.46988C10.6908 7.51754 10.678 7.56412 10.6541 7.60375C10.6301 7.64338 10.596 7.67426 10.5562 7.6925C10.5163 7.71074 10.4724 7.71551 10.4301 7.70621C10.3878 7.69692 10.3489 7.67397 10.3184 7.64027C10.2879 7.60657 10.2671 7.56363 10.2587 7.51689C10.2503 7.47015 10.2546 7.4217 10.2711 7.37767C10.2876 7.33364 10.3156 7.296 10.3514 7.26953C10.3873 7.24305 10.4295 7.22892 10.4727 7.22892C10.5305 7.22892 10.586 7.2543 10.6269 7.29949C10.6679 7.34468 10.6908 7.40597 10.6908 7.46988ZM10.6908 10.1205C10.6908 10.1681 10.678 10.2147 10.6541 10.2544C10.6301 10.294 10.596 10.3249 10.5562 10.3431C10.5163 10.3613 10.4724 10.3661 10.4301 10.3568C10.3878 10.3475 10.3489 10.3246 10.3184 10.2909C10.2879 10.2572 10.2671 10.2142 10.2587 10.1675C10.2503 10.1207 10.2546 10.0723 10.2711 10.0283C10.2876 9.98424 10.3156 9.94661 10.3514 9.92013C10.3873 9.89365 10.4295 9.87952 10.4727 9.87952C10.5305 9.87952 10.586 9.90491 10.6269 9.95009C10.6679 9.99528 10.6908 10.0566 10.6908 10.1205ZM10.6908 12.7711C10.6908 12.8187 10.678 12.8653 10.6541 12.905C10.6301 12.9446 10.596 12.9755 10.5562 12.9937C10.5163 13.0119 10.4724 13.0167 10.4301 13.0074C10.3878 12.9981 10.3489 12.9752 10.3184 12.9415C10.2879 12.9078 10.2671 12.8648 10.2587 12.8181C10.2503 12.7714 10.2546 12.7229 10.2711 12.6789C10.2876 12.6348 10.3156 12.5972 10.3514 12.5707C10.3873 12.5443 10.4295 12.5301 10.4727 12.5301C10.5305 12.5301 10.586 12.5555 10.6269 12.6007C10.6679 12.6459 10.6908 12.7072 10.6908 12.7711ZM10.6908 15.4217C10.6908 15.4693 10.678 15.5159 10.6541 15.5556C10.6301 15.5952 10.596 15.6261 10.5562 15.6443C10.5163 15.6625 10.4724 15.6673 10.4301 15.658C10.3878 15.6487 10.3489 15.6258 10.3184 15.5921C10.2879 15.5584 10.2671 15.5154 10.2587 15.4687C10.2503 15.422 10.2546 15.3735 10.2711 15.3295C10.2876 15.2854 10.3156 15.2478 10.3514 15.2213C10.3873 15.1949 10.4295 15.1807 10.4727 15.1807C10.5305 15.1807 10.586 15.2061 10.6269 15.2513C10.6679 15.2965 10.6908 15.3578 10.6908 15.4217ZM10.6908 18.0723C10.6908 18.1199 10.678 18.1665 10.6541 18.2062C10.6301 18.2458 10.596 18.2767 10.5562 18.2949C10.5163 18.3131 10.4724 18.3179 10.4301 18.3086C10.3878 18.2993 10.3489 18.2764 10.3184 18.2427C10.2879 18.209 10.2671 18.166 10.2587 18.1193C10.2503 18.0726 10.2546 18.0241 10.2711 17.9801C10.2876 17.936 10.3156 17.8984 10.3514 17.8719C10.3873 17.8455 10.4295 17.8313 10.4727 17.8313C10.5305 17.8313 10.586 17.8567 10.6269 17.9019C10.6679 17.9471 10.6908 18.0084 10.6908 18.0723ZM14.6181 7.22892H11.9999C11.9421 7.22892 11.8866 7.2543 11.8457 7.29949C11.8047 7.34468 11.7817 7.40597 11.7817 7.46988V10.3614C11.7817 10.4011 11.7906 10.4402 11.8076 10.4751C11.8245 10.5101 11.849 10.5399 11.8789 10.5619C12.3534 10.9113 12.8312 11.086 13.309 11.086C13.7868 11.086 14.2646 10.9113 14.7391 10.5619C14.769 10.5399 14.7935 10.5101 14.8105 10.4751C14.8274 10.4402 14.8363 10.4011 14.8363 10.3614V7.46988C14.8363 7.40597 14.8133 7.34468 14.7724 7.29949C14.7315 7.2543 14.676 7.22892 14.6181 7.22892ZM14.3999 10.2297C13.6668 10.7267 12.9512 10.7267 12.2181 10.2297V7.71084H14.3999V10.2297Z" fill="#E42E3B"/>
</svg>
