<svg width="20" height="20" viewBox="0 0 20 20" fill="none" xmlns="http://www.w3.org/2000/svg">
<path d="M19.9663 9.47723C19.9663 8.51602 19.7302 7.55481 19.3086 6.69477C18.9039 5.90219 18.7015 5.02529 18.7015 4.13153V4.09781H18.9207C19.0894 4.09781 19.2074 3.9629 19.2243 3.79427V2.27656C19.2243 2.10793 19.0894 1.97302 18.9207 1.97302H14.5531C14.3845 1.97302 14.2496 2.10793 14.2496 2.27656V3.79427C14.2496 3.9629 14.3845 4.08094 14.5531 4.09781H14.7555V4.13153C14.7555 5.02529 14.5531 5.90219 14.1484 6.69477C13.7099 7.55481 13.4907 8.51602 13.4907 9.47723V12.344L11.5008 11.5177C11.4503 11.5008 11.4165 11.484 11.3659 11.5008C10.9949 11.5346 10.6239 11.6189 10.2698 11.7369V4.51939C10.2698 4.50253 10.2698 4.4688 10.2698 4.45194L9.61214 1.78752V0.303541C9.61214 0.134907 9.47723 0.0168634 9.3086 0H0.961214C0.79258 0 0.674536 0.134907 0.657673 0.303541V1.78752C0.657673 1.78752 0.168634 3.79427 0 4.45194V4.51939V19.6965C0 19.8651 0.134907 19.9831 0.303541 20H18.6847C19.4098 20 19.9831 19.4098 20 18.6847C19.9831 18.6847 19.9663 9.56155 19.9663 9.47723ZM14.8398 2.56324H18.6172V3.49073H14.8398V2.56324ZM14.2327 8.21248C14.3339 7.77403 14.4857 7.36931 14.688 6.96459C15.1265 6.08769 15.3626 5.10961 15.3626 4.13153V4.09781H18.1282V4.13153C18.1282 5.10961 18.3642 6.08769 18.8027 6.96459C19.1568 7.65599 19.3592 8.4317 19.3929 9.20742H14.0809C14.0978 8.87015 14.1484 8.53288 14.2327 8.21248ZM14.0809 9.78078H19.3929V13.4064H16.054L14.0641 12.5801L14.0809 9.78078ZM15.801 13.946H11.973C11.8044 13.5413 11.3491 13.339 10.9443 13.4907C10.742 13.575 10.5734 13.7268 10.489 13.946H8.44857C8.71838 13.2546 9.83136 12.2597 11.3491 12.1079L15.801 13.946ZM11.0287 14.2327C11.0287 14.1147 11.1298 14.0304 11.2479 14.0304C11.3659 14.0304 11.4503 14.1315 11.4503 14.2496C11.4503 14.3676 11.3491 14.4519 11.231 14.4519C11.113 14.4519 11.0287 14.3508 11.0287 14.2327ZM7.79089 14.2327V15.2277H0.590219V9.10624H9.69646V11.9899C8.56661 12.5632 7.79089 13.4907 7.79089 14.2327ZM1.18044 2.10793H9.07251L9.59528 4.21585H0.657673L1.18044 2.10793ZM9.69646 4.80607V8.51602H0.590219V4.80607H9.69646ZM9.02192 0.590219V1.51771H1.24789V0.590219H9.02192ZM0.590219 15.8347H7.79089V19.4098H0.590219V15.8347ZM8.38111 14.5363H10.489C10.6577 14.941 11.113 15.1433 11.5177 14.9916C11.7201 14.9073 11.8887 14.7555 11.973 14.5363H16.9814V15.3457C16.4587 15.6155 16.2563 16.2395 16.5093 16.7622C16.6105 16.9646 16.7791 17.1332 16.9814 17.2344V19.4098H8.38111V14.5363ZM18.6678 19.3929H17.5717V17.0152C17.5717 16.8803 17.4705 16.7622 17.3524 16.7285C17.0995 16.661 16.9477 16.425 17.0152 16.172C17.0489 16.0034 17.1838 15.8685 17.3524 15.8347C17.4874 15.801 17.5717 15.683 17.5717 15.5481V14.2327C17.5717 14.0641 17.4536 13.9966 17.4536 13.9966H19.3761V18.6847C19.3761 19.0725 19.0556 19.3929 18.6678 19.3929Z" fill="#147D77"/>
<path d="M1.29768 11.0791C1.12905 11.0791 1.011 11.214 0.994141 11.3826V12.5294C0.994141 12.698 1.12905 12.8329 1.29768 12.8329C1.46632 12.8329 1.60122 12.698 1.60122 12.5294V11.3658C1.58436 11.214 1.46632 11.0791 1.29768 11.0791Z" fill="#147D77"/>
<path d="M5.32897 10.5232C5.21092 10.422 5.04229 10.422 4.94111 10.5232C4.89052 10.5569 3.82812 11.5181 3.82812 12.5974C3.82812 13.3225 4.41834 13.9127 5.14347 13.9127C5.8686 13.9127 6.45882 13.3225 6.45882 12.5974C6.44195 11.5181 5.37956 10.5569 5.32897 10.5232ZM5.14347 13.3225C4.75561 13.3225 4.43521 13.0021 4.41834 12.5974C4.41834 12.024 4.87366 11.4506 5.14347 11.1471C5.41329 11.4338 5.8686 12.0071 5.8686 12.5974C5.85173 13.0021 5.53133 13.3225 5.14347 13.3225Z" fill="#147D77"/>
<path d="M14.5184 17.3857C14.08 17.3857 13.709 17.7399 13.709 18.1952C13.709 18.6505 14.0631 19.0046 14.5184 19.0046C14.9737 19.0046 15.3279 18.6505 15.3279 18.1952C15.311 17.7399 14.9569 17.3857 14.5184 17.3857ZM14.5184 18.3975C14.4004 18.3975 14.2992 18.2964 14.2992 18.1783C14.2992 18.0603 14.4004 17.9591 14.5184 17.9591C14.6365 17.9591 14.7377 18.0603 14.7377 18.1783C14.7208 18.2964 14.6365 18.3975 14.5184 18.3975Z" fill="#147D77"/>
<path d="M13.7608 15.7842C13.9005 15.7842 14.0137 15.671 14.0137 15.5313C14.0137 15.3916 13.9005 15.2783 13.7608 15.2783C13.6211 15.2783 13.5078 15.3916 13.5078 15.5313C13.5078 15.671 13.6211 15.7842 13.7608 15.7842Z" fill="#147D77"/>
<path d="M15.2783 16.8125C15.418 16.8125 15.5313 16.6993 15.5313 16.5596C15.5313 16.4199 15.418 16.3066 15.2783 16.3066C15.1386 16.3066 15.0254 16.4199 15.0254 16.5596C15.0254 16.6993 15.1386 16.8125 15.2783 16.8125Z" fill="#147D77"/>
<path d="M11.8389 13.1202C11.9786 13.1202 12.0918 13.0069 12.0918 12.8672C12.0918 12.7275 11.9786 12.6143 11.8389 12.6143C11.6992 12.6143 11.5859 12.7275 11.5859 12.8672C11.5859 13.0069 11.6992 13.1202 11.8389 13.1202Z" fill="#147D77"/>
<path d="M9.98342 13.4903C10.1231 13.4903 10.2364 13.377 10.2364 13.2373C10.2364 13.0976 10.1231 12.9844 9.98342 12.9844C9.84372 12.9844 9.73047 13.0976 9.73047 13.2373C9.73047 13.377 9.84372 13.4903 9.98342 13.4903Z" fill="#147D77"/>
<path d="M10.9776 18.7862C11.1173 18.7862 11.2305 18.6729 11.2305 18.5332C11.2305 18.3935 11.1173 18.2803 10.9776 18.2803C10.8379 18.2803 10.7246 18.3935 10.7246 18.5332C10.7246 18.6729 10.8379 18.7862 10.9776 18.7862Z" fill="#147D77"/>
<path d="M12.4951 17.5381C12.6348 17.5381 12.7481 17.4249 12.7481 17.2852C12.7481 17.1455 12.6348 17.0322 12.4951 17.0322C12.3554 17.0322 12.2422 17.1455 12.2422 17.2852C12.2422 17.4249 12.3554 17.5381 12.4951 17.5381Z" fill="#147D77"/>
<path d="M9.86413 15.9189C9.42568 15.9189 9.05469 16.2731 9.05469 16.7284C9.05469 17.1837 9.40882 17.5378 9.86413 17.5378C10.3194 17.5378 10.6736 17.1837 10.6736 16.7284C10.6567 16.2731 10.3026 15.9189 9.86413 15.9189ZM9.86413 16.9307C9.74609 16.9307 9.64491 16.8296 9.64491 16.7115C9.64491 16.5935 9.74609 16.4923 9.86413 16.4923C9.98217 16.4923 10.0834 16.5935 10.0834 16.7115C10.0665 16.8296 9.96531 16.9307 9.86413 16.9307Z" fill="#147D77"/>
</svg>
