<svg width="20" height="22" viewBox="0 0 20 22" fill="none" xmlns="http://www.w3.org/2000/svg">
<path d="M9.53125 16.4079H15.1237C15.1237 15.4699 15.9598 14.7358 16.9284 14.904C17.5453 15.0111 18.05 15.5158 18.157 16.1326C18.2539 16.6934 18.05 17.2083 17.6778 17.5448C17.4382 17.7589 17.4382 18.1157 17.6778 18.335C18.05 18.6714 18.2539 19.1863 18.157 19.7471C18.05 20.364 17.5453 20.8687 16.9284 20.9757C15.9598 21.1439 15.1237 20.4047 15.1237 19.4718H9.53125" stroke="#147D77" stroke-miterlimit="10" stroke-linecap="round" stroke-linejoin="round"/>
<path d="M9.53064 19.4668H3.93814C3.93814 20.4048 3.10207 21.1389 2.13345 20.9707C1.5166 20.8636 1.0119 20.3589 0.904839 19.7421C0.807977 19.1813 1.0119 18.6664 1.38405 18.3299C1.62366 18.1158 1.62366 17.759 1.38405 17.5398C1.0119 17.2033 0.807977 16.6884 0.904839 16.1276C1.0119 15.5108 1.5166 15.0061 2.13345 14.899C3.10207 14.7308 3.93814 15.47 3.93814 16.4029H9.53064" stroke="#147D77" stroke-miterlimit="10" stroke-linecap="round" stroke-linejoin="round"/>
<path d="M3.8064 8.47705C4.43992 7.97525 4.35818 6.81689 3.62383 5.88979C2.88948 4.96269 1.78061 4.61792 1.14709 5.11972C0.513569 5.62153 0.595308 6.77988 1.32966 7.70699C2.06401 8.63409 3.17288 8.97886 3.8064 8.47705Z" stroke="#147D77" stroke-miterlimit="10" stroke-linecap="round" stroke-linejoin="round"/>
<path d="M17.7313 7.69224C18.4656 6.76514 18.5473 5.60678 17.9138 5.10498C17.2803 4.60317 16.1714 4.94794 15.4371 5.87504C14.7027 6.80215 14.621 7.9605 15.2545 8.46231C15.888 8.96412 16.9969 8.61934 17.7313 7.69224Z" stroke="#147D77" stroke-miterlimit="10" stroke-linecap="round" stroke-linejoin="round"/>
<path d="M7.28613 6.04314C8.15919 5.80906 8.58969 4.58523 8.24768 3.30964C7.90568 2.03404 6.92067 1.18973 6.04761 1.42381C5.17455 1.6579 4.74405 2.88173 5.08605 4.15732C5.42806 5.43291 6.41307 6.27722 7.28613 6.04314Z" stroke="#147D77" stroke-miterlimit="10" stroke-linecap="round" stroke-linejoin="round"/>
<path d="M13.9801 4.15814C14.3221 2.88254 13.8916 1.65871 13.0185 1.42463C12.1455 1.19055 11.1605 2.03486 10.8185 3.31045C10.4765 4.58605 10.907 5.80988 11.78 6.04396C12.6531 6.27804 13.6381 5.43373 13.9801 4.15814Z" stroke="#147D77" stroke-miterlimit="10" stroke-linecap="round" stroke-linejoin="round"/>
<path d="M12.713 13.9098C13.0189 14.1902 13.4777 14.2462 13.8499 14.0627C14.9204 13.5223 15.4812 11.9164 14.8593 10.5757C13.8091 8.31727 11.8158 6.79297 9.53186 6.79297C7.24796 6.79297 5.25465 8.31727 4.20446 10.5757C3.58251 11.9164 4.14329 13.5223 5.21387 14.0627C5.58602 14.2513 6.04484 14.1902 6.35072 13.9098C8.47148 11.9827 10.5922 11.9827 12.713 13.9098Z" stroke="#147D77" stroke-miterlimit="10" stroke-linecap="round" stroke-linejoin="round"/>
</svg>
