<svg width="20" height="20" viewBox="0 0 20 20" fill="none" xmlns="http://www.w3.org/2000/svg">
<path d="M19.9468 10.1505C19.8017 8.79216 19.3596 7.48238 18.6519 6.31396C17.9442 5.14553 16.9881 4.14706 15.8515 3.3893C15.8504 3.38859 15.8493 3.38809 15.8482 3.38738C15.8426 3.38376 15.8367 3.38076 15.8309 3.37751C15.8229 3.37292 15.8149 3.36834 15.8066 3.36446C15.805 3.36376 15.8036 3.36276 15.802 3.36201L12.966 2.10156L12.7535 0.827241C12.7117 0.589838 12.5857 0.37549 12.3985 0.223623C12.3975 0.222789 12.3964 0.222123 12.3954 0.221289C12.2177 0.0784101 11.9967 0.00035385 11.7687 0H8.23127C8.00511 0.000257195 7.78572 0.0772117 7.60895 0.218289C7.6067 0.220039 7.60428 0.221539 7.60207 0.223331L7.60137 0.223914L7.60095 0.224248C7.41244 0.377289 7.28605 0.593693 7.24537 0.833075L7.00454 2.27848C7.00154 2.2966 7.00003 2.31494 7.00004 2.33331C7.00004 2.38135 7.01291 3.10447 7.70236 3.90175L4.66673 5.16661V3.88329L6.46875 3.08238L6.19792 2.47318L4.19794 3.36205C4.19377 3.36388 4.19032 3.36621 4.18636 3.36826C4.17803 3.37242 4.16969 3.37609 4.16182 3.38076C4.15965 3.38205 4.15765 3.38346 4.15536 3.38492L4.15453 3.38546C3.01683 4.0708 2.06947 5.03089 1.39939 6.17764L1.25293 6.42872C0.398342 7.89373 -0.0345327 9.5665 0.00215242 11.2622C0.0388375 12.9578 0.543654 14.6103 1.4608 16.037L3.05295 18.5136C3.05466 18.5163 3.05675 18.5186 3.0585 18.5211C3.06129 18.5253 3.0637 18.5295 3.06683 18.5333L4.06682 19.8667C4.09787 19.9081 4.13817 19.9418 4.1845 19.9649C4.23084 19.9881 4.28194 20.0001 4.33373 20H15.6666C15.755 20 15.8398 19.9649 15.9023 19.9024C15.9648 19.8399 15.9999 19.7551 15.9999 19.6667V17.6665C15.9999 17.5781 15.9648 17.4933 15.9023 17.4308C15.8398 17.3683 15.755 17.3332 15.6666 17.3332H10.3333V5.22703C10.9405 4.97866 11.4098 4.6952 11.7719 4.40495L15.3333 5.88881V16.6665H15.9999V13.3587L17.0045 19.7212C17.0174 19.799 17.0576 19.8697 17.1178 19.9208C17.178 19.9718 17.2543 19.9998 17.3333 19.9998H19.6666C19.755 19.9998 19.8398 19.9647 19.9023 19.9022C19.9648 19.8396 19.9999 19.7549 19.9999 19.6665V11.1407C19.9999 10.8099 19.9822 10.4794 19.9468 10.1505ZM19.2525 9.96581L18.5103 10.2441L17.4339 7.82229L18.4423 7.31813C18.8539 8.15098 19.1276 9.04519 19.2525 9.96581ZM9.63939 2.66664H10.3606C10.2246 2.97182 10.1042 3.28373 10 3.60117C9.89577 3.28373 9.7754 2.97182 9.63939 2.66664ZM10.6905 1.99998H9.30993C9.05488 1.52846 8.75591 1.08204 8.41702 0.66666H11.5833C11.2443 1.08195 10.9454 1.52838 10.6905 1.99998ZM7.88253 1.06561C8.24302 1.50432 8.55523 1.98056 8.81377 2.4861C9.13312 3.10883 9.37966 3.76628 9.54851 4.44545C7.82728 3.61246 7.68028 2.52372 7.66782 2.35414L7.88253 1.06561ZM0.66677 11.0631C0.667203 9.55265 1.06821 8.06938 1.82888 6.76451L1.97534 6.51343C2.48725 5.63739 3.17696 4.87829 4.00007 4.285V11.538L2.97787 8.88024L2.35563 9.11957L5.25747 16.8498L3.4427 17.8868L2.02167 15.6763C1.13624 14.3006 0.665849 12.699 0.66677 11.0631ZM3.82661 18.4352L5.52614 17.4641L5.90363 18.219L4.41086 19.2142L3.82661 18.4352ZM5.4343 19.3331L6.51825 18.6105C6.58585 18.5654 6.63466 18.4972 6.65552 18.4187C6.67637 18.3402 6.66783 18.2567 6.6315 18.1841L6.53938 17.9998H9.66668V19.3331H5.4343ZM15.3333 17.9998V19.3331H10.3333V17.9998H15.3333ZM6.20605 17.3332L5.97346 16.868L5.68788 16.0827L7.60003 13.5332L7.0667 13.1332L5.4158 15.3344L4.66673 13.2744V5.88881L8.22807 4.40495C8.59019 4.6952 9.05952 4.97866 9.66668 5.22703V17.3332H6.20605ZM11.1864 2.48585C11.4448 1.98041 11.757 1.50434 12.1176 1.06591L12.3322 2.35443C12.3202 2.51947 12.1747 3.6115 10.4508 4.44574C10.6197 3.76631 10.8666 3.10865 11.1864 2.48585ZM12.2976 3.90175C12.5788 3.58536 12.7896 3.21283 12.9159 2.80885L15.3333 3.88329V5.16661L12.2976 3.90175ZM15.9999 4.31812C16.8521 4.98352 17.5725 5.80213 18.1243 6.73189L16.8509 7.36842C16.7742 7.40678 16.7152 7.47325 16.6862 7.554C16.6572 7.63475 16.6605 7.72356 16.6953 7.80196L18.0286 10.8019C18.0631 10.8796 18.126 10.9411 18.2044 10.974C18.2828 11.0068 18.3707 11.0085 18.4503 10.9787L19.3191 10.6528C19.3283 10.815 19.3332 10.978 19.3332 11.1407V17.3332H17.2859L15.9999 8.97441V4.31812ZM19.3332 19.3331H17.6156L17.3934 17.9998H19.3332V19.3331Z" fill="#E42E3B"/>
<path d="M12.9337 13.1332L12.4004 13.5332L14.4003 16.1999L14.9337 15.7999L12.9337 13.1332Z" fill="#E42E3B"/>
</svg>
