<svg width="13" height="20" viewBox="0 0 13 20" fill="none" xmlns="http://www.w3.org/2000/svg">
<path d="M10.3692 20H2.06953C1.07572 19.9987 0.270443 19.1932 0.269531 18.1993V1.80065C0.270443 0.80684 1.07572 0.00130293 2.06953 0H10.3692C11.363 0.00130293 12.1683 0.80684 12.1692 1.80065V18.1993C12.1683 19.1932 11.363 19.9987 10.3692 20ZM2.06953 0.651466C1.43533 0.652378 0.921518 1.16645 0.920997 1.80065V18.1993C0.921518 18.8335 1.43533 19.3476 2.06953 19.3485H10.3692C11.0034 19.3476 11.5172 18.8335 11.5177 18.1993V1.80065C11.5172 1.16645 11.0034 0.652378 10.3692 0.651466H2.06953Z" fill="#FD5B44"/>
<path d="M8.30034 1.83518H4.14008C3.49546 1.83427 2.97318 1.31173 2.97266 0.667101V0.325733C2.97266 0.145863 3.11852 0 3.29839 0H9.14204C9.32191 0 9.46777 0.145863 9.46777 0.325733V0.667101C9.46725 1.31173 8.94497 1.83427 8.30034 1.83518ZM3.62412 0.651466V0.667101C3.62425 0.952117 3.85507 1.18326 4.14008 1.18371H8.30034C8.58536 1.18326 8.81617 0.952117 8.8163 0.667101V0.651466H3.62412Z" fill="#FD5B44"/>
<path d="M8.90944 18.6769H3.52886C3.34899 18.6769 3.20312 18.531 3.20312 18.3511C3.20312 18.1713 3.34899 18.0254 3.52886 18.0254H8.90944C9.08931 18.0254 9.23518 18.1713 9.23518 18.3511C9.23518 18.531 9.08931 18.6769 8.90944 18.6769Z" fill="#FD5B44"/>
<path d="M12.1148 5.51161C11.9349 5.51161 11.7891 5.36575 11.7891 5.18588V3.60308C11.7891 3.42321 11.9349 3.27734 12.1148 3.27734C12.2947 3.27734 12.4405 3.42321 12.4405 3.60308V5.18588C12.4405 5.36581 12.2947 5.51161 12.1148 5.51161Z" fill="#FD5B44"/>
<path d="M0.325733 6.81435C0.145863 6.81435 0 6.66848 0 6.48861V4.90581C0 4.72594 0.145863 4.58008 0.325733 4.58008C0.505603 4.58008 0.651466 4.72594 0.651466 4.90581V6.48861C0.651466 6.66855 0.505603 6.81435 0.325733 6.81435Z" fill="#FD5B44"/>
<path d="M0.325733 9.42177C0.145863 9.42177 0 9.2759 0 9.09603V7.51323C0 7.33336 0.145863 7.1875 0.325733 7.1875C0.505603 7.1875 0.651466 7.33336 0.651466 7.51323V9.09603C0.651466 9.27597 0.505603 9.42177 0.325733 9.42177Z" fill="#FD5B44"/>
</svg>
