<svg width="22" height="20" viewBox="0 0 22 20" fill="none" xmlns="http://www.w3.org/2000/svg">
<path d="M21.6594 7.1913L18.1494 3.96549C18.0989 3.9192 18.0343 3.88815 17.9641 3.87646L14.1031 3.23129C13.9123 3.1994 13.7296 3.31565 13.6949 3.49093C13.6911 3.50988 13.6892 3.52912 13.6892 3.54839C13.6882 3.65089 13.6782 3.75315 13.6594 3.8542L11.2322 3.29678V3.19355C12.1819 3.01541 12.7946 2.16343 12.6008 1.29065C12.4069 0.417862 11.4799 -0.145244 10.5302 0.0329015C9.71323 0.186168 9.1264 0.846572 9.12623 1.6129H9.82823C9.82823 1.07843 10.2997 0.645161 10.8812 0.645161C11.4628 0.645161 11.9342 1.07843 11.9342 1.6129C11.9342 2.14738 11.4628 2.58065 10.8812 2.58065C10.6874 2.58065 10.5302 2.72508 10.5302 2.90323V3.29646L8.10306 3.8542C8.08424 3.75315 8.07424 3.65089 8.07323 3.54839C8.07327 3.45271 8.02712 3.36198 7.94722 3.30065C7.86776 3.23847 7.7618 3.21295 7.6594 3.23129L3.7984 3.87646C3.7282 3.88815 3.66357 3.9192 3.61307 3.96549L0.10307 7.1913C-0.0339513 7.31727 -0.0339513 7.52146 0.10307 7.64743L2.91107 10.2281C3.04814 10.354 3.27032 10.354 3.40739 10.2281L4.21223 9.4884V11.6129H1.75523C0.788881 11.6103 0.00325473 12.3282 0.000446726 13.2164C-0.00117665 13.7293 0.263565 14.2122 0.713108 14.5162C-0.0622946 15.0368 -0.231608 16.0366 0.334994 16.7493C0.440776 16.8823 0.568321 16.9995 0.713108 17.0968C-0.0651903 17.6231 -0.231828 18.6297 0.340917 19.345C0.671734 19.7581 1.19714 20.0014 1.75523 20H14.3912C14.4843 20 14.5736 19.966 14.6394 19.9055L17.4474 17.3248C17.5124 17.2641 17.5483 17.182 17.5471 17.0968H17.5502V9.4884L18.3551 10.2281C18.4921 10.354 18.7143 10.354 18.8514 10.2281L21.6594 7.64743C21.7964 7.52146 21.7964 7.31723 21.6594 7.1913ZM10.8812 3.88065L13.4337 4.4671C12.9047 5.29585 11.9263 5.79376 10.8812 5.76614C9.83617 5.79376 8.8578 5.29585 8.32876 4.4671L10.8812 3.88065ZM0.702227 13.2258C0.702227 12.6914 1.17366 12.2581 1.75523 12.2581H9.47723C10.0588 12.2581 10.5302 12.6914 10.5302 13.2258C10.5302 13.7603 10.0588 14.1936 9.47723 14.1936H1.75523C1.17366 14.1936 0.702227 13.7603 0.702227 13.2258ZM0.702227 15.8065C0.702227 15.272 1.17366 14.8387 1.75523 14.8387H9.47723C10.0588 14.8387 10.5302 15.272 10.5302 15.8065C10.5302 16.341 10.0588 16.7742 9.47723 16.7742H1.75523C1.17366 16.7742 0.702227 16.3409 0.702227 15.8065ZM9.47723 19.3549H8.77523H1.75523C1.17366 19.3549 0.702227 18.9216 0.702227 18.3871C0.702227 17.8527 1.17366 17.4194 1.75523 17.4194H9.47723C10.0588 17.4194 10.5302 17.8527 10.5302 18.3871C10.5302 18.9216 10.0588 19.3549 9.47723 19.3549ZM14.7422 18.8987V17.4194H16.3519L14.7422 18.8987ZM18.6032 9.54389L16.3944 7.51388L15.8981 7.97001L16.8482 8.84324V16.7742H14.3912C14.1974 16.7742 14.0402 16.9187 14.0402 17.0968V19.3549H10.8721C11.4563 18.6593 11.3164 17.6602 10.5596 17.1233C10.5469 17.1143 10.5341 17.1055 10.5211 17.0968C11.2965 16.5761 11.4658 15.5763 10.8993 14.8637C10.7935 14.7306 10.6659 14.6134 10.5211 14.5162C11.2994 13.9898 11.4661 12.9832 10.8933 12.2679C10.5621 11.8543 10.0359 11.6109 9.47723 11.6129H4.91423V8.84324L5.86439 7.97001L5.36807 7.51388L3.15923 9.54389L0.847541 7.41937L4.03181 4.49291L7.40141 3.93001C7.63097 5.32872 9.10377 6.4113 10.8805 6.4113C12.6573 6.4113 14.1301 5.32872 14.3596 3.93001L17.7292 4.49291L20.9149 7.41937L18.6032 9.54389Z" fill="#E42E3B"/>
<path d="M9.8283 12.9033H1.4043V13.5485H9.8283V12.9033Z" fill="#E42E3B"/>
<path d="M9.4773 15.4844H1.4043V16.1295H9.4773V15.4844Z" fill="#E42E3B"/>
<path d="M9.4773 18.0645H1.4043V18.7096H9.4773V18.0645Z" fill="#E42E3B"/>
</svg>
