<svg width="23" height="21" viewBox="0 0 23 21" fill="none" xmlns="http://www.w3.org/2000/svg">
<path d="M22.6252 18.9686H19.6445V18.0094H20.3546C21.1446 18.0094 21.7877 17.3668 21.7877 16.5763V14.0248C21.7877 13.3323 21.2938 12.7529 20.6398 12.6202V11.4205C20.6398 10.6187 19.9872 9.96606 19.1853 9.96606H10.9314C10.1295 9.96606 9.47691 10.6187 9.47691 11.4205V12.6202C9.26349 12.6635 9.06719 12.7543 8.8994 12.8812V5.39681H9.61856V7.41977C9.61856 7.5771 9.74642 7.70496 9.90375 7.70496C10.0611 7.70496 10.1889 7.5771 10.1889 7.41977V5.39681H10.9433C11.0298 5.39681 11.112 5.35736 11.1662 5.28987C11.2204 5.22237 11.2408 5.13349 11.2218 5.04888L10.2716 0.832801C10.2422 0.702563 10.1267 0.610352 9.99358 0.610352H7.23483C7.10127 0.610352 6.98576 0.702563 6.95677 0.832801L6.00661 5.04936C5.98759 5.13396 6.00803 5.22237 6.06222 5.29034C6.11641 5.35784 6.19816 5.39729 6.28514 5.39729H8.32949V14.0253V16.5768C8.32949 17.3668 8.97212 18.0099 9.76258 18.0099H10.4727V18.9691H7.66547V13.6208C7.66547 13.4635 7.53761 13.3356 7.38028 13.3356H5.62778L6.50046 11.2166C6.53659 11.1287 6.52661 11.0284 6.47385 10.9495C6.42108 10.8706 6.3322 10.8231 6.23666 10.8231H6.17154C6.29703 10.7299 6.41538 10.6263 6.5247 10.5103C7.06799 9.93468 7.32562 9.15326 7.23245 8.36613C7.21629 8.22924 7.10412 8.12324 6.96628 8.11516C6.42108 8.08237 5.8911 8.21403 5.43432 8.48972C5.29078 7.9778 4.99513 7.51579 4.57685 7.16595C4.47085 7.07754 4.31685 7.07754 4.21085 7.16595C3.79257 7.51579 3.49692 7.9778 3.35338 8.48972C2.89612 8.21451 2.36661 8.08237 1.82142 8.11516C1.68358 8.12324 1.5714 8.22924 1.55524 8.36613C1.46208 9.15279 1.7197 9.93468 2.26299 10.5103C2.37232 10.6258 2.49067 10.7299 2.61616 10.8231H2.55104C2.45597 10.8231 2.36709 10.8706 2.31385 10.9495C2.26062 11.0284 2.25111 11.1287 2.28724 11.2166L3.15992 13.3356H1.40789C1.25056 13.3356 1.1227 13.4635 1.1227 13.6208V18.9686H0.285191C0.127861 18.9686 0 19.0965 0 19.2538V20.3252C0 20.4825 0.127861 20.6104 0.285191 20.6104H22.6252C22.7825 20.6104 22.9104 20.4825 22.9104 20.3252V19.2538C22.9104 19.0965 22.7825 18.9686 22.6252 18.9686ZM7.46298 1.18121H9.76543L10.5868 4.82691H6.64116L7.46298 1.18121ZM19.0741 18.9686H18.6582L17.958 18.0094H19.0746V18.9686H19.0741ZM17.2517 18.0094L17.9518 18.9686H12.1648L12.865 18.0094H17.2517ZM10.9314 10.5374H19.1858C19.673 10.5374 20.0699 10.9338 20.0699 11.4215V12.6212C19.4158 12.7538 18.922 13.3332 18.922 14.0258V15.1442H11.1952V14.0258C11.1952 13.3332 10.7013 12.7538 10.0473 12.6212V11.4215C10.0473 10.9338 10.4437 10.5374 10.9314 10.5374ZM8.8994 16.5768V14.0253C8.8994 13.5495 9.28631 13.1626 9.7621 13.1626C10.2379 13.1626 10.6248 13.5495 10.6248 14.0253V15.4289C10.6248 15.5862 10.7527 15.7141 10.91 15.7141H19.2072C19.3645 15.7141 19.4924 15.5862 19.4924 15.4289V14.0253C19.4924 13.5495 19.8793 13.1626 20.3551 13.1626C20.8309 13.1626 21.2178 13.5495 21.2178 14.0253V16.5768C21.2178 17.0526 20.8309 17.4395 20.3551 17.4395H9.7621C9.28631 17.439 8.8994 17.0521 8.8994 16.5768ZM11.0426 18.0094H12.1591L11.459 18.9686H11.0431V18.0094H11.0426ZM6.68061 8.68412C6.68013 9.21553 6.4786 9.72792 6.10975 10.1191C5.82456 10.4214 5.46046 10.6277 5.06547 10.7204C5.36778 10.2812 5.53366 9.75692 5.53366 9.21125C5.53366 9.17845 5.53224 9.14566 5.53081 9.11333C5.86401 8.85666 6.26185 8.70836 6.68061 8.68412ZM4.39385 7.77579C4.75794 8.1627 4.96281 8.67319 4.96281 9.21125C4.96281 9.74883 4.75794 10.2598 4.39385 10.6467C4.02975 10.2598 3.82489 9.74931 3.82489 9.21125C3.82489 8.67319 4.02975 8.1627 4.39385 7.77579ZM2.10709 8.68412C2.52585 8.70836 2.92416 8.85666 3.25689 9.11333C3.25546 9.14613 3.25403 9.17845 3.25403 9.21125C3.25403 9.75739 3.41992 10.2812 3.72222 10.7204C3.32676 10.6277 2.96314 10.4214 2.67747 10.1186C2.3091 9.72745 2.10756 9.21553 2.10709 8.68412ZM2.9774 11.3934H5.81078L5.01081 13.3361H3.77736L2.9774 11.3934ZM7.09509 13.906V16.7517H1.69309V13.906H7.09509ZM1.69309 17.3221H7.09509V18.9686H1.69309V17.3221ZM22.34 20.04H0.570383V19.539H22.34V20.04ZM3.32818 15.3291C3.32818 15.1717 3.45604 15.0439 3.61338 15.0439H5.17432C5.33165 15.0439 5.45951 15.1717 5.45951 15.3291C5.45951 15.4864 5.33165 15.6143 5.17432 15.6143H3.61338C3.45604 15.6143 3.32818 15.4864 3.32818 15.3291Z" fill="#BF9F65"/>
</svg>
