<svg width="22" height="20" viewBox="0 0 22 20" fill="none" xmlns="http://www.w3.org/2000/svg">
<path d="M19.3848 12.2323C19.3616 12.1805 19.324 12.1365 19.2764 12.1056C19.2288 12.0747 19.1733 12.0582 19.1166 12.0582H18.2343V8.00898C18.233 7.60127 18.0705 7.2106 17.7822 6.9223C17.4939 6.634 17.1032 6.47149 16.6955 6.47025H16.1026V4.19743H16.1567C16.3227 4.19743 16.4819 4.1315 16.5993 4.01413C16.7166 3.89676 16.7826 3.73757 16.7826 3.57159V2.89868C16.7826 2.7327 16.7166 2.57351 16.5993 2.45614C16.4819 2.33877 16.3227 2.27284 16.1567 2.27284H13.3945C13.312 2.27221 13.2301 2.28794 13.1536 2.31912C13.0771 2.35029 13.0076 2.39629 12.949 2.45447C12.8903 2.51265 12.8438 2.58185 12.8121 2.65809C12.7803 2.73433 12.764 2.8161 12.764 2.89868V3.57159C12.764 3.73716 12.8296 3.89599 12.9465 4.0133C13.0633 4.1306 13.2219 4.19681 13.3875 4.19743H13.4439V6.47025H9.94062V3.51277C10.2092 3.47334 10.4547 3.33888 10.6326 3.1338C10.8105 2.92873 10.9089 2.66665 10.91 2.39518V1.13408C10.9097 0.984443 10.8798 0.836344 10.8221 0.698279C10.7644 0.560214 10.68 0.434901 10.5738 0.329532C10.4676 0.224164 10.3416 0.140814 10.203 0.0842683C10.0645 0.027722 9.91614 -0.000907775 9.76651 2.19375e-05H1.40933C1.10835 2.12924e-05 0.819652 0.119426 0.606602 0.332035C0.393552 0.544644 0.273549 0.83309 0.272926 1.13408V2.39518C0.273734 2.6656 0.371149 2.92684 0.547599 3.13176C0.72405 3.33668 0.967921 3.47181 1.23522 3.51277V12.0582H0.967004C0.710539 12.0582 0.464578 12.16 0.283229 12.3414C0.101881 12.5227 0 12.7687 0 13.0252V16.9732C0 17.2296 0.101881 17.4756 0.283229 17.657C0.464578 17.8383 0.710539 17.9402 0.967004 17.9402H1.99048C2.22599 18.5468 2.63936 19.0681 3.17637 19.4357C3.71338 19.8033 4.34895 20 4.99972 20C5.65048 20 6.28605 19.8033 6.82306 19.4357C7.36007 19.0681 7.77345 18.5468 8.00896 17.9402H12.5781C12.8136 18.5468 13.227 19.0681 13.764 19.4357C14.301 19.8033 14.9366 20 15.5874 20C16.2381 20 16.8737 19.8033 17.4107 19.4357C17.9477 19.0681 18.3611 18.5468 18.5966 17.9402H21.4694C21.5181 17.94 21.566 17.9276 21.6088 17.9043C21.6516 17.881 21.6879 17.8474 21.7145 17.8066C21.7411 17.7658 21.7571 17.719 21.7611 17.6705C21.7652 17.6219 21.7571 17.5731 21.7376 17.5284L19.3848 12.2323ZM13.3945 3.60923C13.385 3.60863 13.376 3.6044 13.3694 3.59741C13.3629 3.59041 13.3592 3.58118 13.3592 3.57159V2.89868C13.3592 2.88909 13.3629 2.87986 13.3694 2.87286C13.376 2.86587 13.385 2.86164 13.3945 2.86104H16.1567C16.1667 2.86104 16.1763 2.865 16.1834 2.87206C16.1904 2.87912 16.1944 2.8887 16.1944 2.89868V3.57159C16.1944 3.58157 16.1904 3.59114 16.1834 3.5982C16.1763 3.60526 16.1667 3.60923 16.1567 3.60923H13.3945ZM15.5121 4.19743V6.47025H14.0392V4.19743H15.5121ZM13.7451 7.05845H16.6955C16.9451 7.05845 17.1845 7.1576 17.361 7.3341C17.5375 7.51059 17.6367 7.74997 17.6367 7.99957V12.0582H9.94062V7.05845H13.7451ZM0.861128 2.39518V1.13408C0.861127 1.0622 0.875324 0.991022 0.902902 0.924642C0.930481 0.858263 0.970899 0.797984 1.02184 0.747266C1.07277 0.696548 1.13322 0.65639 1.19972 0.629097C1.26622 0.601805 1.33745 0.587914 1.40933 0.588224H9.76651C9.83839 0.587914 9.90962 0.601805 9.97612 0.629097C10.0426 0.65639 10.1031 0.696548 10.154 0.747266C10.2049 0.797984 10.2454 0.858263 10.2729 0.924642C10.3005 0.991022 10.3147 1.0622 10.3147 1.13408V2.39518C10.3147 2.46706 10.3005 2.53823 10.2729 2.60461C10.2454 2.67099 10.2049 2.73127 10.154 2.78199C10.1031 2.83271 10.0426 2.87287 9.97612 2.90016C9.90962 2.92745 9.83839 2.94134 9.76651 2.94103H1.40933C1.33745 2.94134 1.26622 2.92745 1.19972 2.90016C1.13322 2.87287 1.07277 2.83271 1.02184 2.78199C0.970899 2.73127 0.930481 2.67099 0.902902 2.60461C0.875324 2.53823 0.861127 2.46706 0.861128 2.39518ZM9.34536 3.52924V12.0582H1.83049V3.52924H9.34536ZM4.99972 19.4107C4.47621 19.4107 3.96446 19.2555 3.52917 18.9646C3.09389 18.6738 2.75463 18.2604 2.55429 17.7767C2.35395 17.2931 2.30154 16.7608 2.40367 16.2474C2.5058 15.7339 2.75789 15.2623 3.12807 14.8921C3.49825 14.522 3.96988 14.2699 4.48333 14.1677C4.99678 14.0656 5.52899 14.118 6.01265 14.3184C6.49631 14.5187 6.9097 14.858 7.20054 15.2932C7.49139 15.7285 7.64663 16.2403 7.64663 16.7638C7.64538 17.4654 7.36612 18.1379 6.86999 18.6341C6.37387 19.1302 5.70134 19.4094 4.99972 19.4107ZM15.5874 19.4107C15.0638 19.4107 14.5521 19.2555 14.1168 18.9646C13.6815 18.6738 13.3423 18.2604 13.1419 17.7767C12.9416 17.2931 12.8892 16.7608 12.9913 16.2474C13.0934 15.7339 13.3455 15.2623 13.7157 14.8921C14.0859 14.522 14.5575 14.2699 15.071 14.1677C15.5844 14.0656 16.1166 14.118 16.6003 14.3184C17.0839 14.5187 17.4973 14.858 17.7882 15.2932C18.079 15.7285 18.2343 16.2403 18.2343 16.7638C18.233 17.4654 17.9538 18.1379 17.4576 18.6341C16.9615 19.1302 16.289 19.4094 15.5874 19.4107ZM18.766 17.352C18.8565 16.8838 18.8424 16.4013 18.7247 15.9392C18.6069 15.4771 18.3885 15.0467 18.085 14.6788C17.7814 14.311 17.4004 14.0148 16.969 13.8115C16.5376 13.6082 16.0666 13.5028 15.5897 13.5028C15.1128 13.5028 14.6418 13.6082 14.2104 13.8115C13.7791 14.0148 13.398 14.311 13.0945 14.6788C12.7909 15.0467 12.5725 15.4771 12.4547 15.9392C12.337 16.4013 12.3229 16.8838 12.4134 17.352H8.17836C8.26889 16.8838 8.25478 16.4013 8.13704 15.9392C8.01931 15.4771 7.80086 15.0467 7.49733 14.6788C7.19381 14.311 6.81271 14.0148 6.38134 13.8115C5.94996 13.6082 5.47896 13.5028 5.00207 13.5028C4.52518 13.5028 4.05419 13.6082 3.62281 13.8115C3.19143 14.0148 2.81034 14.311 2.50681 14.6788C2.20329 15.0467 1.98484 15.4771 1.8671 15.9392C1.74936 16.4013 1.73525 16.8838 1.82578 17.352H0.967004C0.86654 17.352 0.77019 17.3121 0.699151 17.241C0.628112 17.17 0.588202 17.0736 0.588202 16.9732V13.0252C0.588202 12.9247 0.628112 12.8284 0.699151 12.7573C0.77019 12.6863 0.86654 12.6464 0.967004 12.6464H18.926L21.0176 17.352H18.766Z" fill="#147D77"/>
<path d="M4.99985 15.2812C4.70668 15.2813 4.4201 15.3682 4.17634 15.5311C3.93259 15.6939 3.7426 15.9254 3.63041 16.1963C3.51822 16.4671 3.48887 16.7652 3.54606 17.0527C3.60325 17.3402 3.74443 17.6043 3.95173 17.8116C4.15902 18.0189 4.42314 18.1601 4.71067 18.2173C4.9982 18.2745 5.29624 18.2451 5.56709 18.133C5.83794 18.0208 6.06944 17.8308 6.23231 17.587C6.39518 17.3433 6.48212 17.0567 6.48212 16.7635C6.48212 16.5689 6.44378 16.3761 6.36929 16.1963C6.2948 16.0164 6.18561 15.853 6.04797 15.7154C5.91033 15.5778 5.74693 15.4686 5.56709 15.3941C5.38725 15.3196 5.1945 15.2812 4.99985 15.2812ZM4.99985 17.6576C4.82302 17.6576 4.65016 17.6052 4.50313 17.5069C4.3561 17.4087 4.24151 17.269 4.17384 17.1057C4.10617 16.9423 4.08846 16.7625 4.12296 16.5891C4.15746 16.4157 4.24261 16.2564 4.36765 16.1313C4.49268 16.0063 4.65199 15.9211 4.82542 15.8866C4.99886 15.8521 5.17862 15.8698 5.34199 15.9375C5.50536 16.0052 5.645 16.1198 5.74324 16.2668C5.84148 16.4138 5.89392 16.5867 5.89392 16.7635C5.89392 17.0006 5.79972 17.2281 5.63205 17.3957C5.46438 17.5634 5.23697 17.6576 4.99985 17.6576Z" fill="#147D77"/>
<path d="M15.5877 15.2812C15.2946 15.2813 15.008 15.3682 14.7642 15.5311C14.5205 15.6939 14.3305 15.9254 14.2183 16.1963C14.1061 16.4671 14.0768 16.7652 14.134 17.0527C14.1911 17.3402 14.3323 17.6043 14.5396 17.8116C14.7469 18.0189 15.011 18.1601 15.2986 18.2173C15.5861 18.2745 15.8841 18.2451 16.155 18.133C16.4258 18.0208 16.6573 17.8308 16.8202 17.587C16.9831 17.3433 17.07 17.0567 17.07 16.7635C17.07 16.3704 16.9138 15.9934 16.6359 15.7154C16.3579 15.4374 15.9809 15.2813 15.5877 15.2812ZM15.5877 17.6576C15.4109 17.6576 15.2381 17.6052 15.091 17.5069C14.944 17.4087 14.8294 17.269 14.7617 17.1057C14.6941 16.9423 14.6764 16.7625 14.7109 16.5891C14.7453 16.4157 14.8305 16.2564 14.9555 16.1313C15.0806 16.0063 15.2399 15.9211 15.4133 15.8866C15.5867 15.8521 15.7665 15.8698 15.9299 15.9375C16.0933 16.0052 16.2329 16.1198 16.3311 16.2668C16.4294 16.4138 16.4818 16.5867 16.4818 16.7635C16.4818 17.0006 16.3876 17.2281 16.2199 17.3957C16.0523 17.5634 15.8249 17.6576 15.5877 17.6576Z" fill="#147D77"/>
<path d="M5.58883 9.13859C6.05836 9.13859 6.51734 8.99936 6.90774 8.73851C7.29814 8.47765 7.60242 8.10688 7.7821 7.67309C7.96178 7.23931 8.0088 6.76198 7.9172 6.30147C7.8256 5.84096 7.5995 5.41796 7.26749 5.08595C6.93548 4.75394 6.51248 4.52784 6.05197 4.43624C5.59146 4.34464 5.11413 4.39165 4.68034 4.57133C4.24655 4.75102 3.87579 5.0553 3.61493 5.4457C3.35408 5.8361 3.21484 6.29508 3.21484 6.76461C3.21609 7.39385 3.4666 7.99696 3.91154 8.4419C4.35648 8.88684 4.95959 9.13735 5.58883 9.13859ZM5.58883 4.97883C5.94202 4.97883 6.28729 5.08356 6.58096 5.27979C6.87463 5.47601 7.10351 5.75491 7.23868 6.08122C7.37384 6.40753 7.4092 6.76659 7.3403 7.113C7.27139 7.45941 7.10131 7.7776 6.85157 8.02735C6.60182 8.27709 6.28362 8.44717 5.93722 8.51608C5.59081 8.58498 5.23175 8.54962 4.90544 8.41446C4.57913 8.2793 4.30023 8.05041 4.104 7.75674C3.90778 7.46307 3.80305 7.1178 3.80305 6.76461C3.80429 6.29137 3.99283 5.83787 4.32746 5.50324C4.66209 5.16861 5.11559 4.98007 5.58883 4.97883Z" fill="#147D77"/>
</svg>
