<svg width="20" height="20" viewBox="0 0 20 20" fill="none" xmlns="http://www.w3.org/2000/svg">
<path d="M0.235791 10.3849C0.317805 10.8496 0.423251 11.3144 0.556034 11.7596C0.70444 12.279 0.89971 12.7828 1.14185 13.2671C1.22776 13.4311 1.42694 13.4936 1.59097 13.4077C1.75109 13.3257 1.81357 13.1265 1.73547 12.9664C1.57925 12.6539 1.44256 12.3298 1.33321 12.0017H2.3369C3.66083 11.9549 3.66083 10.049 2.3369 10.0022H0.85675C0.786453 9.57257 0.739588 9.12735 0.708345 8.67042H1.66907C2.21974 8.67042 2.66886 8.2213 2.66886 7.67064C2.66886 7.11997 2.21974 6.67085 1.66907 6.67085H0.708345C0.739588 6.21392 0.786453 5.7687 0.85675 5.33911H2.3369C2.88756 5.34301 3.34059 4.9017 3.3484 4.35104C3.35621 3.80038 2.90709 3.33954 2.35252 3.33173C2.34471 3.33173 2.3408 3.33173 2.33299 3.33173H1.33321C3.1336 -1.64766 6.07047 1.05488 6.57036 5.93273C6.58988 6.11628 6.75001 6.24907 6.93356 6.23345C7.11711 6.21392 7.2499 6.0538 7.23428 5.87024C6.84374 2.3671 5.40655 -0.00348462 3.66864 0.000420789C1.87606 -0.0386333 0.591183 2.64829 0.235791 4.94076C-0.0766413 6.73724 -0.0805467 8.58841 0.235791 10.3849ZM2.66886 10.998C2.66886 11.1816 2.52045 11.33 2.3369 11.33H1.13013C1.06764 11.1113 1.01687 10.9043 0.970007 10.6622H2.3369C2.51655 10.6661 2.66886 10.8145 2.66886 10.998ZM2.00103 7.66673C2.00103 7.85029 1.85263 7.99869 1.66907 7.99869H0.673196C0.665386 7.77999 0.665386 7.55347 0.673196 7.33087H1.66517C1.85263 7.33087 2.00103 7.48318 2.00103 7.66673ZM2.66886 4.33151C2.66886 4.51507 2.52045 4.66347 2.3369 4.66347H0.970007C1.01687 4.44087 1.06764 4.21435 1.13013 3.99565H2.3369C2.51655 3.99956 2.66886 4.14796 2.66886 4.33151Z" fill="#147D77"/>
<path d="M14.6659 5.99946H10.6668C8.29623 5.97212 5.41405 7.22185 5.33594 9.66664C5.33984 10.2446 5.5273 10.807 5.87098 11.2718C5.97642 11.4241 6.18341 11.4592 6.33572 11.3538C6.48803 11.2483 6.52318 11.0413 6.41773 10.889C5.63275 9.79552 6.01938 8.50673 7.19491 7.67488C9.56549 5.8081 15.2518 6.64385 15.3338 9.66664C15.3338 10.1743 15.1385 10.6625 14.748 11.1116C14.6972 11.1702 14.6659 11.2483 14.6659 11.3303V15.2201C14.6699 15.6575 15.3103 15.6771 15.3338 15.2318C15.3416 15.2318 15.326 11.4553 15.3338 11.4514C16.7319 9.76037 15.7829 7.60068 13.7247 6.66729H14.6659C17.8098 6.65948 20.5787 8.79964 18.7471 11.1116C18.6963 11.1702 18.6651 11.2483 18.6651 11.3303V19.3325H14.8729C14.4355 19.3442 14.4316 19.9847 14.8729 20.0003H18.997C19.1806 20.0003 19.329 19.8519 19.329 19.6684C19.329 19.6684 19.329 11.4553 19.329 11.4514C21.3911 8.69029 18.3409 5.97603 14.6659 5.99946Z" fill="#147D77"/>
<path d="M8.66692 8.33105C9.10823 8.34277 9.10823 8.98326 8.66692 8.99888C8.22561 8.98716 8.22561 8.34668 8.66692 8.33105Z" fill="#147D77"/>
<path d="M10.332 7.66699C10.7733 7.67871 10.7733 8.31919 10.332 8.33482C9.89455 8.31919 9.89455 7.67871 10.332 7.66699Z" fill="#147D77"/>
<path d="M11.999 8.33105C12.4403 8.34277 12.4403 8.98326 11.999 8.99888C11.5576 8.98716 11.5576 8.34668 11.999 8.33105Z" fill="#147D77"/>
<path d="M10.999 9.66602C11.4403 9.67773 11.4403 10.3182 10.999 10.3338C10.5576 10.3182 10.5576 9.67773 10.999 9.66602Z" fill="#147D77"/>
<path d="M9.66692 9.66602C10.1082 9.67773 10.1082 10.3182 9.66692 10.3338C9.22561 10.3182 9.22561 9.67773 9.66692 9.66602Z" fill="#147D77"/>
<path d="M7.3324 11.998C3.27078 11.998 0.00195312 15.0443 0.00195312 17.5632C0.00195312 19.9495 2.88805 19.9729 4.99697 19.9924C5.18052 19.9885 5.32893 19.844 5.33283 19.6605C5.33283 19.4769 5.18833 19.3246 5.00478 19.3246C2.19289 19.3012 0.665872 19.0122 0.669777 17.5632C0.669777 16.458 1.54849 15.0521 3.0013 14.0328V14.9974C3.04817 16.3213 4.95401 16.3213 5.00087 14.9974V13.0408C5.43437 12.9002 5.87959 12.7987 6.33261 12.7401V13.9976C6.33261 14.5483 6.77783 14.9974 7.3324 14.9974C7.88306 14.9974 8.33218 14.5522 8.33218 13.9976C8.33218 13.9976 8.33218 12.7401 8.33218 12.7362C8.78521 12.7947 9.23043 12.8963 9.66393 13.0369V14.9935C9.71079 16.3174 11.6166 16.3174 11.6635 14.9935V14.0289C13.2569 15.1302 14.7058 17.3016 13.6318 18.5435C12.8507 19.4535 9.5702 19.3246 7.3324 19.3168L6.33261 19.3207C6.14906 19.3207 6.00066 19.4691 6.00066 19.6526C6.00066 19.8362 6.14906 19.9846 6.33261 19.9846L7.3324 19.9807C7.93383 19.9807 8.53917 19.9846 9.13279 19.9846C11.4253 19.9846 13.2178 19.8948 14.1044 19.0082C14.4754 18.6372 14.6628 18.1491 14.6628 17.5515C14.6667 15.0443 11.394 11.998 7.3324 11.998ZM4.33305 14.9974C4.33305 15.181 4.18464 15.3294 4.00109 15.3294C3.81753 15.3294 3.66913 15.181 3.66913 14.9974V13.6227C3.88393 13.5055 4.10653 13.3923 4.33695 13.2946V14.9974H4.33305ZM10.9996 14.9974C10.9996 15.181 10.8512 15.3294 10.6676 15.3294C10.4841 15.3294 10.3357 15.181 10.3357 14.9974V13.2946C10.5661 13.3923 10.7887 13.5016 11.0035 13.6227V14.9974H10.9996ZM7.66826 13.9976C7.66826 14.1812 7.51986 14.3296 7.3363 14.3296C7.15275 14.3296 7.00434 14.1812 7.00434 13.9976V12.6815C7.22695 12.6698 7.44956 12.6698 7.67217 12.6815L7.66826 13.9976Z" fill="#147D77"/>
</svg>
