<svg width="20" height="20" viewBox="0 0 20 20" fill="none" xmlns="http://www.w3.org/2000/svg">
<path d="M18.0325 5.57337H17.858C16.8478 5.57465 15.9039 5.06988 15.3439 4.22906C15.0128 3.72988 14.3995 3.49855 13.8212 3.65464C13.243 3.81089 12.8296 4.31967 12.795 4.91763H12.1308V4.26188C12.1308 4.08081 11.984 3.934 11.8029 3.934C10.5359 3.9356 9.50941 4.96229 9.50781 6.22912V9.50786C9.50941 10.7747 10.5359 11.8014 11.8029 11.803C11.984 11.803 12.1308 11.6562 12.1308 11.4751V10.8194H12.795C12.8296 11.4173 13.243 11.9261 13.8212 12.0823C14.3995 12.2384 15.0128 12.0071 15.3439 11.5079C15.7459 10.9061 16.3511 10.4691 17.0489 10.2771V16.0653C17.0489 16.2464 17.1957 16.3932 17.3768 16.3932H17.7047V19.672H18.3604V16.3932H18.6883C18.8694 16.3932 19.0162 16.2464 19.0162 16.0653V9.82725C19.4274 9.52019 19.6703 9.0375 19.6719 8.52424V7.21274C19.6708 6.30773 18.9374 5.57449 18.0325 5.57337ZM11.4751 11.1144C10.7122 10.9577 10.1644 10.2866 10.1636 9.50786V6.22912C10.1644 5.45042 10.7122 4.7793 11.4751 4.62257V11.1144ZM12.1308 5.57337H12.7866V10.1636H12.1308V5.57337ZM18.3604 15.7375H17.7047V10.1731C17.7557 10.1705 17.8063 10.1636 17.858 10.1636H18.0325C18.1425 10.1638 18.2525 10.1527 18.3604 10.1308V15.7375ZM19.0162 8.52424C19.0162 9.06744 18.5757 9.50786 18.0325 9.50786H17.858C16.628 9.50642 15.479 10.1213 14.798 11.1456C14.6171 11.417 14.2799 11.5379 13.9677 11.4434C13.6557 11.349 13.4423 11.0613 13.4423 10.7351V5.00184C13.4423 4.67572 13.6557 4.38803 13.9677 4.29358C14.2799 4.19912 14.6171 4.31999 14.798 4.59135C15.4787 5.61628 16.6277 6.23184 17.858 6.23072H18.0325C18.5757 6.23072 19.0162 6.67114 19.0162 7.21434V8.52424Z" fill="#FD5B44"/>
<path d="M17.0488 6.88574H18.3603V7.54149H17.0488V6.88574Z" fill="#FD5B44"/>
<path d="M1.63937 18.0331H1.81371C2.82407 18.0318 3.76783 18.5366 4.32784 19.3774C4.65892 19.8766 5.27224 20.1079 5.8505 19.9518C6.42876 19.7956 6.84213 19.2868 6.87671 18.6888H7.5411V19.3446C7.5411 19.5256 7.68791 19.6724 7.86898 19.6724C9.13581 19.6708 10.1625 18.6442 10.1641 17.3773V14.0986C10.1625 12.8318 9.13581 11.8051 7.86898 11.8035C7.68791 11.8035 7.5411 11.9503 7.5411 12.1313V12.7871H6.87671C6.84213 12.1891 6.42876 11.6804 5.8505 11.5241C5.27224 11.368 4.65892 11.5993 4.32784 12.0985C3.92584 12.7003 3.32069 13.1374 2.62299 13.3293V7.5411C2.62299 7.36004 2.47619 7.21323 2.29512 7.21323H1.96724V0H1.3115V7.21323H0.983622C0.802555 7.21323 0.655748 7.36004 0.655748 7.5411V13.7792C0.244305 14.0863 0.00144084 14.5689 0 15.0822V16.3937C0.000960548 17.2987 0.734355 18.032 1.63937 18.0331ZM8.19685 12.492C8.9597 12.6488 9.50739 13.3199 9.50835 14.0986V17.3773C9.50739 18.156 8.9597 18.8271 8.19685 18.9839V12.492ZM7.5411 18.0331H6.88535V13.4428H7.5411V18.0331ZM1.3115 7.86898H1.96724V13.4334C1.91601 13.436 1.86558 13.4428 1.81371 13.4428H1.63937C1.52922 13.4427 1.4194 13.4537 1.3115 13.4757V7.86898ZM0.655748 15.0822C0.655748 14.539 1.09601 14.0986 1.63937 14.0986H1.81371C3.04372 14.1 4.19272 13.4851 4.87376 12.4608C5.05467 12.1895 5.39183 12.0686 5.70402 12.163C6.01604 12.2575 6.22961 12.5452 6.22961 12.8713V18.6046C6.23025 18.931 6.017 19.2194 5.70482 19.3143C5.39247 19.4092 5.05483 19.2884 4.87376 19.0167C4.1932 17.9918 3.04404 17.3762 1.81371 17.3773H1.63937C1.09601 17.3773 0.655748 16.9369 0.655748 16.3937V15.0822Z" fill="#FD5B44"/>
<path d="M1.31055 16.0654H2.62204V16.7212H1.31055V16.0654Z" fill="#FD5B44"/>
</svg>
