<svg width="22" height="20" viewBox="0 0 22 20" fill="none" xmlns="http://www.w3.org/2000/svg">
<path d="M18.1374 13.3418L17.7118 16.0051C17.6612 16.3 17.2145 16.2284 17.2609 15.9334L17.6865 13.2701C17.7328 12.9751 18.1837 13.0468 18.1374 13.3418ZM13.4555 8.87484C13.1437 8.87906 13.1437 9.34682 13.4555 9.35103C13.7674 9.34682 13.7674 8.87906 13.4555 8.87484ZM17.2566 8.10367C16.9448 8.10788 16.9448 8.57564 17.2566 8.57986C17.5727 8.57564 17.5727 8.10788 17.2566 8.10367ZM18.6852 8.87484C18.3734 8.87906 18.3734 9.34682 18.6852 9.35103C19.0013 9.34682 19.0013 8.87906 18.6852 8.87484ZM14.3658 8.0236C14.1677 8.2638 14.5343 8.56721 14.7324 8.32701C14.9305 8.08681 14.5638 7.7834 14.3658 8.0236ZM15.9166 7.29456C15.7185 7.53477 16.0851 7.83818 16.2832 7.59798C16.4812 7.35778 16.1146 7.05858 15.9166 7.29456ZM15.6848 8.87063C15.4867 9.11083 15.8534 9.41424 16.0514 9.17404C16.2495 8.93384 15.8828 8.63043 15.6848 8.87063ZM15.8955 12.5032C15.7691 12.5032 15.6679 12.6043 15.6679 12.7307V15.9671C15.6679 16.0936 15.7691 16.1947 15.8955 16.1947C16.0219 16.1947 16.1231 16.0936 16.1231 15.9671V12.7307C16.1231 12.6043 16.0219 12.5032 15.8955 12.5032ZM21.4918 11.0156C21.4749 11.3359 21.2937 11.5297 21.1884 11.614C21.1462 11.6477 21.0914 11.6688 21.0409 11.6688C20.8512 11.6646 20.7332 11.968 20.5394 12.0691C20.4425 12.2714 19.1235 16.595 18.9549 16.5782H20.4298C20.5563 16.5782 20.6574 16.6793 20.6574 16.8057V17.0333C20.6574 18.1416 19.7767 19.0476 18.6768 19.0898C18.7316 19.5617 18.4492 19.9958 17.9477 20H2.78129C2.28824 19.9958 1.99747 19.5617 2.05225 19.094C0.918668 19.0898 0 18.1669 0 17.0333V16.8057C0 16.6793 0.101138 16.5782 0.22756 16.5782H2.16603C0.526759 13.0636 -0.0505689 9.58702 0.0126422 5.11589C0.0210704 4.76191 0.189633 4.51749 0.421408 4.51749H8.87906C9.11083 4.51749 9.27518 4.75769 9.28782 5.11167C9.33839 7.07543 9.21197 8.99705 8.90856 10.8133C8.88327 10.9524 8.85799 11.083 8.8327 11.2179C9.4016 11.201 9.91572 11.2769 10.3582 11.3906C10.1391 11.0493 10.2528 10.3582 10.6995 10.2571H11.2727C11.3569 9.11926 12.0649 8.14159 13.0341 7.85082C14.2941 5.52044 17.5095 5.51622 18.7653 7.85082C19.7303 8.14159 20.4425 9.11926 20.5268 10.2571H21.0451C21.3569 10.3161 21.5002 10.7038 21.4918 11.0156ZM11.7278 10.2571H20.0632C19.9789 9.28782 19.3679 8.47029 18.5504 8.26802C18.4871 8.25116 18.4324 8.20902 18.4029 8.15002C17.8972 7.16393 16.9364 6.54867 15.8997 6.54867C14.863 6.54867 13.9022 7.16393 13.3923 8.15002C13.3628 8.20902 13.308 8.25116 13.2448 8.26802C12.4231 8.47029 11.8121 9.28782 11.7278 10.2571ZM8.65571 11.6814C7.91825 11.732 7.21028 11.9427 6.54867 12.3009C6.40961 12.3767 6.30847 12.5284 6.26633 12.6844C6.18205 14.0118 6.74673 15.3519 7.61483 16.3295C8.12052 16.2958 8.75685 16.2579 9.30889 16.2326C9.16983 14.8209 9.62916 13.0383 10.8302 12.0143C10.3161 11.8078 9.42267 11.614 8.65571 11.6814ZM12.6591 13.3038C12.6254 13.2406 12.5832 13.1774 12.5284 13.1311C12.0986 12.8276 11.6351 12.5664 11.1547 12.3472C9.94522 13.3249 9.66287 15.2255 9.76823 16.2158C10.4593 16.1905 11.0451 16.1736 11.5129 16.1652C11.5592 15.0822 11.9385 14.0834 12.6591 13.3038ZM12.6464 14.0497C12.2292 14.6608 12.0059 15.3814 11.9722 16.161C12.7097 16.1568 14.193 16.1568 14.1509 15.9756C14.2394 15.7564 14.1298 15.4909 14.0455 15.276C13.78 14.6818 13.367 14.1677 12.9077 13.7084C12.815 13.8095 12.7307 13.9275 12.6464 14.0497ZM4.18879 16.5782C4.31943 16.5782 4.47956 16.574 4.67762 16.5613C4.41635 16.0725 4.22672 15.5331 4.11294 14.9853C3.86009 15.3982 3.51032 15.9166 3.62832 16.418C3.73788 16.595 3.94437 16.5613 4.18879 16.5782ZM4.71976 15.4994C4.84197 15.8576 4.99368 16.2031 5.18331 16.5234C5.81121 16.4728 6.34218 16.4265 7.05436 16.3759C6.2874 15.4235 5.85335 14.2183 5.79014 12.9962C5.33502 13.3249 4.91361 13.7168 4.54277 14.1382C4.45006 14.2309 4.47113 14.37 4.50063 14.4838L4.4922 14.4922C4.53856 14.8378 4.61441 15.1749 4.71976 15.4994ZM2.35988 15.8786C2.46102 16.1188 2.62958 16.5065 2.67594 16.5782H3.19848C2.97092 15.7649 3.55668 14.9768 4.01601 14.3447C4.00337 14.0287 4.2225 13.7969 4.42899 13.5904C4.86304 13.1479 5.33502 12.6886 5.87863 12.3978C5.97556 12.1913 6.12727 12.0143 6.32533 11.9005C6.97008 11.5508 7.65276 11.3316 8.36073 11.2516C8.71892 9.23304 8.92541 7.13022 8.79899 4.97682H0.493047C0.353982 9.16561 0.914454 12.6127 2.35988 15.8786ZM18.2217 19.094H2.50737V19.271C2.50737 19.4227 2.62958 19.5449 2.78129 19.5449H17.9477C18.0995 19.5449 18.2217 19.4227 18.2217 19.271V19.094ZM18.0657 17.0333C13.2912 17.0375 5.23388 17.0333 0.45512 17.0333C0.45512 17.9182 1.17573 18.6389 2.06068 18.6389H18.5967C19.4817 18.6389 20.2023 17.9182 20.2023 17.0333H18.0657ZM20.0253 12.166C19.8357 12.1197 19.6839 11.9848 19.566 11.8373C19.4016 11.6056 19.2204 11.6098 19.056 11.8373C18.8411 12.1702 18.3312 12.3177 18.0025 12.0059C17.8424 11.8837 17.7455 11.6056 17.5221 11.673C17.4378 11.6898 17.3283 11.8542 17.2398 11.9427C17.0586 12.1913 16.5655 12.2672 16.3127 12.0396C16.182 11.9469 16.0893 11.7868 15.984 11.7067C15.8323 11.6182 15.7396 11.673 15.6047 11.8458C15.3982 12.166 14.8968 12.3304 14.5554 12.0143C14.4458 11.9258 14.3574 11.7783 14.2646 11.7109C14.1129 11.6224 14.0202 11.6772 13.8854 11.8458C13.5735 12.2925 12.9878 12.2967 12.6759 11.8458C12.5664 11.7151 12.52 11.6688 12.4189 11.6688C12.1787 11.6814 12.0818 12.0691 11.7826 12.145C12.2672 12.4568 12.9625 12.6675 13.1311 13.2828C13.3544 13.4935 13.5609 13.721 13.7547 13.957L13.6578 13.3418C13.6115 13.0468 14.0582 12.9751 14.1087 13.2701L14.3658 14.8841C14.7788 15.6974 14.842 16.5529 13.6789 16.5782C13.7126 16.5824 18.032 16.5782 18.0657 16.5782C18.3692 16.5697 18.6431 16.3464 18.7526 16.0177L20.0253 12.166ZM21.0367 10.9945C21.0409 10.8892 21.0114 10.788 20.9524 10.7164H10.788C10.6658 10.8344 10.6827 11.1252 10.7922 11.2221C11.2853 11.2389 11.4075 12.086 11.8121 11.555C12.1323 11.1041 12.7139 11.1083 13.0257 11.555C13.2153 11.7952 13.346 11.791 13.5356 11.555C13.6578 11.4117 13.8222 11.2179 14.1424 11.2179C14.4374 11.2179 14.5933 11.3738 14.745 11.555C14.901 11.7657 15.0737 11.8078 15.255 11.555C15.5499 11.1294 16.1357 11.083 16.4686 11.555C16.633 11.7868 16.8184 11.7826 16.9785 11.555C17.0923 11.3949 17.3367 11.1968 17.5853 11.2179C17.8255 11.2179 17.9772 11.3274 18.091 11.4454C18.2933 11.6898 18.4576 11.8921 18.7021 11.5592C18.8917 11.2642 19.3552 11.0914 19.6839 11.3359C19.8441 11.4412 19.9115 11.5929 20.0506 11.6983C20.2065 11.791 20.3203 11.6898 20.4256 11.555C20.531 11.4286 20.6743 11.26 20.9355 11.2263C20.9861 11.1715 21.0282 11.0957 21.0367 10.9945ZM2.26296 3.46818C2.26296 3.76738 2.71808 3.76738 2.71808 3.46818C2.71808 2.97514 2.47788 2.71386 2.28403 2.50316C1.86684 2.13232 1.87105 1.55921 2.28403 1.19258C2.47788 0.981879 2.71808 0.720607 2.71808 0.22756C2.71808 0.101138 2.61694 0 2.49052 0C2.3641 0 2.26296 0.101138 2.26296 0.22756C2.26296 0.543616 2.12389 0.695322 1.95112 0.884956C1.378 1.40329 1.378 2.29667 1.95112 2.815C2.12389 3.00042 2.26296 3.15213 2.26296 3.46818ZM4.36157 3.46818C4.36157 3.76738 4.81669 3.76738 4.81669 3.46818C4.81669 2.97514 4.57649 2.71386 4.38264 2.50316C3.96544 2.13232 3.96966 1.55921 4.38264 1.19258C4.57649 0.981879 4.81669 0.720607 4.81669 0.22756C4.81669 0.101138 4.71555 0 4.58913 0C4.46271 0 4.36157 0.101138 4.36157 0.22756C4.36157 0.543616 4.2225 0.695322 4.04973 0.884956C3.47661 1.40329 3.47661 2.29667 4.04973 2.815C4.2225 3.00042 4.36157 3.15213 4.36157 3.46818ZM6.45596 3.46818C6.45596 3.76738 6.91108 3.76738 6.91108 3.46818C6.91108 2.97514 6.67088 2.71386 6.47703 2.50316C6.05984 2.13232 6.06405 1.55921 6.47703 1.19258C6.67088 0.981879 6.91108 0.720607 6.91108 0.22756C6.91108 0.101138 6.80995 0 6.68352 0C6.5571 0 6.45596 0.101138 6.45596 0.22756C6.45596 0.543616 6.3169 0.695322 6.14412 0.884956C5.57101 1.40329 5.57101 2.29667 6.14412 2.815C6.32111 3.00042 6.45596 3.15213 6.45596 3.46818Z" fill="#147D77"/>
</svg>
