<svg width="20" height="20" viewBox="0 0 20 20" fill="none" xmlns="http://www.w3.org/2000/svg">
<path d="M19.9951 18.4276L18.3602 4.82488C18.321 4.49598 18.1927 4.18407 17.9892 3.92288C17.7857 3.66169 17.5147 3.46116 17.2056 3.34297L13.2823 1.83686L12.7548 0.249207C12.7283 0.178189 12.6813 0.116623 12.6199 0.0722728C12.5585 0.0279228 12.4853 0.00277485 12.4096 0H7.69228C7.62323 0.00176487 7.55598 0.0223869 7.49779 0.0596368C7.43961 0.0968867 7.3927 0.149347 7.36214 0.211347L6.61951 1.82021C5.79838 2.07427 4.99107 2.37109 4.20088 2.70946C3.19264 3.20679 2.37962 3.43495 1.85774 4.35148L0.254483 7.37613C0.0876395 7.69152 0.000280678 8.04292 0 8.39979V13.1216C0.000338307 13.4563 0.0771815 13.7865 0.224648 14.0869L2.80058 19.3199C2.84621 19.4128 2.91108 19.4948 2.99087 19.5605C3.07065 19.6263 3.16353 19.6742 3.2633 19.7012C3.36307 19.7282 3.46744 19.7336 3.56946 19.7171C3.67147 19.7005 3.7688 19.6624 3.85493 19.6052L5.41816 18.5684C5.94815 19.0312 7.36749 20.0928 9.14621 19.9922C9.221 19.9879 9.29263 19.9605 9.35131 19.9139C9.40999 19.8673 9.45285 19.8037 9.47403 19.7318L9.98957 17.984L10.7275 19.7748C10.755 19.8414 10.8016 19.8984 10.8615 19.9385C10.9214 19.9786 10.9918 20 11.0638 20C12.3534 19.9935 13.5883 19.4779 14.5002 18.5651C15.4121 17.6524 15.9272 16.4163 15.9336 15.1255L15.9337 15.0471L16.8905 19.2287C16.9137 19.3272 16.957 19.4198 17.0178 19.5007C17.0785 19.5815 17.1552 19.649 17.2432 19.6987C17.3313 19.7484 17.4286 19.7793 17.5292 19.7896C17.6297 19.7998 17.7313 19.7891 17.8275 19.7581L19.5004 19.2049C19.6595 19.152 19.7956 19.0458 19.8857 18.9042C19.9758 18.7627 20.0145 18.5944 19.9951 18.4276ZM12.6 2.09017L11.4765 4.36823L10.476 3.59219L12.2854 1.14416L12.6 2.09017ZM11.053 1.58714H8.99272L8.40437 0.728068H11.688L11.053 1.58714ZM10.5148 2.3152L9.98354 3.03384L9.49135 2.31519L10.5148 2.3152ZM7.76287 1.0791L9.46729 3.56822L8.3895 4.30992L7.33977 1.99561L7.76287 1.0791ZM3.45322 18.9984L0.877113 13.7652C0.778803 13.5649 0.727593 13.3447 0.727406 13.1216V8.3998C0.727587 8.16191 0.785805 7.92766 0.897001 7.71741L2.50028 4.6928C2.82841 4.10234 3.36732 3.94433 3.98242 3.61101V11.4695L3.46723 9.62167C3.43979 9.53038 3.37768 9.4535 3.29423 9.40754C3.21078 9.36158 3.11266 9.3502 3.02092 9.37584C2.92918 9.40149 2.85115 9.46212 2.80358 9.54471C2.75601 9.6273 2.74268 9.72527 2.76647 9.81758L4.6355 16.5201L3.29217 17.2521C3.25021 17.275 3.21316 17.3059 3.18314 17.3431C3.15312 17.3803 3.1307 17.423 3.11718 17.4689C3.08987 17.5615 3.10043 17.6611 3.14655 17.7459C3.19266 17.8307 3.27054 17.8938 3.36306 17.9211C3.45558 17.9484 3.55516 17.9378 3.63989 17.8917L4.83619 17.2398L5.03416 17.9498L3.45322 18.9984ZM8.85176 19.2703C7.30336 19.2444 6.0661 18.1811 5.77911 17.9137L4.70984 14.0785V3.28488C5.4935 2.95591 6.26104 2.69593 6.78368 2.53186L7.90662 5.00671C7.92891 5.05487 7.96139 5.09761 8.00181 5.13197C8.04223 5.16633 8.08962 5.19149 8.14071 5.2057C8.1918 5.21992 8.24537 5.22286 8.29771 5.21431C8.35005 5.20576 8.3999 5.18593 8.44383 5.15619L9.624 4.34392L9.56908 16.8379L8.85176 19.2703ZM13.9926 18.0572C13.2763 18.7783 12.3187 19.2086 11.3043 19.2652L10.2966 16.8199L10.3513 4.41671L11.3831 5.21681C11.4259 5.24948 11.4753 5.27231 11.5279 5.28368C11.5804 5.29504 11.6349 5.29465 11.6873 5.28255C11.7397 5.27045 11.7888 5.24692 11.8311 5.21365C11.8733 5.18038 11.9078 5.13818 11.9319 5.09007L13.1722 2.57434L15.2063 3.35525V15.1255C15.2077 15.6702 15.1011 16.2098 14.8928 16.713C14.6845 17.2162 14.3785 17.6731 13.9926 18.0572ZM17.5995 19.0666L15.9337 11.7865V3.63449L16.9448 4.02268C17.1304 4.09362 17.293 4.21396 17.4151 4.37069C17.5372 4.52743 17.6142 4.7146 17.6378 4.91197L19.1265 17.297L17.944 17.5936C17.8592 17.6166 17.7856 17.6693 17.7367 17.7422C17.6877 17.8151 17.6666 17.9033 17.6773 17.9905C17.688 18.0776 17.7298 18.158 17.795 18.2169C17.8601 18.2757 17.9443 18.3091 18.0321 18.3108C18.0174 18.3554 19.1897 18.0146 19.2141 18.0258L19.2727 18.5135L17.5995 19.0666Z" fill="#E42E3B"/>
<path d="M14.3161 7.24902H11.6039C11.5562 7.24901 11.5089 7.25842 11.4647 7.27671C11.4206 7.295 11.3805 7.32181 11.3467 7.35562C11.313 7.38942 11.2862 7.42956 11.2679 7.47373C11.2496 7.5179 11.2402 7.56525 11.2402 7.61306V9.92986C11.2402 9.99123 11.2558 10.0516 11.2853 10.1054C11.3149 10.1591 11.3575 10.2045 11.4093 10.2374L12.695 11.052C12.7533 11.0889 12.8208 11.1085 12.8897 11.1085C12.9355 11.1653 14.4782 10.3835 14.5526 10.3645C14.617 10.3342 14.671 10.2857 14.708 10.2249C14.7451 10.1642 14.7636 10.0939 14.7611 10.0228L14.6794 7.60079C14.6763 7.50642 14.6367 7.41696 14.5689 7.35131C14.5011 7.28567 14.4104 7.24898 14.3161 7.24902ZM12.9156 10.3302L11.9676 9.72954V7.97708H13.9644L14.0262 9.80755L12.9156 10.3302Z" fill="#E42E3B"/>
<path d="M8.51197 6.54057C8.6072 6.53871 8.6979 6.49953 8.76459 6.43146C8.83128 6.3634 8.86864 6.27186 8.86864 6.17652C8.86864 6.08119 8.83127 5.98965 8.76458 5.92159C8.69788 5.85352 8.60718 5.81436 8.51194 5.8125C8.41671 5.81436 8.32601 5.85353 8.25932 5.9216C8.19263 5.98967 8.15527 6.08121 8.15527 6.17654C8.15528 6.27188 8.19264 6.36341 8.25933 6.43148C8.32603 6.49954 8.41673 6.53871 8.51197 6.54057Z" fill="#E42E3B"/>
<path d="M8.51213 8.08789C8.41687 8.0897 8.32611 8.12885 8.25938 8.19693C8.19265 8.265 8.15527 8.35657 8.15527 8.45193C8.15528 8.5473 8.19266 8.63886 8.2594 8.70693C8.32613 8.77501 8.41689 8.81415 8.51215 8.81596C8.60742 8.81415 8.69817 8.77499 8.7649 8.70692C8.83163 8.63885 8.86901 8.54728 8.86901 8.45191C8.86901 8.35654 8.83162 8.26498 8.76488 8.19691C8.69815 8.12884 8.6074 8.0897 8.51213 8.08789Z" fill="#E42E3B"/>
<path d="M8.51213 10.3623C8.41687 10.3641 8.32611 10.4033 8.25938 10.4713C8.19265 10.5394 8.15527 10.631 8.15527 10.7263C8.15528 10.8217 8.19266 10.9133 8.2594 10.9813C8.32613 11.0494 8.41689 11.0886 8.51215 11.0904C8.60742 11.0886 8.69817 11.0494 8.7649 10.9813C8.83163 10.9133 8.86901 10.8217 8.86901 10.7263C8.86901 10.631 8.83162 10.5394 8.76488 10.4713C8.69815 10.4033 8.6074 10.3641 8.51213 10.3623Z" fill="#E42E3B"/>
<path d="M8.51194 12.6367C8.41671 12.6386 8.32601 12.6778 8.25932 12.7458C8.19263 12.8139 8.15527 12.9054 8.15527 13.0008C8.15528 13.0961 8.19264 13.1876 8.25933 13.2557C8.32603 13.3238 8.41673 13.3629 8.51197 13.3648C8.6072 13.3629 8.6979 13.3238 8.76459 13.2557C8.83128 13.1876 8.86864 13.0961 8.86864 13.0007C8.86863 12.9054 8.83127 12.8139 8.76458 12.7458C8.69788 12.6777 8.60718 12.6386 8.51194 12.6367Z" fill="#E42E3B"/>
<path d="M8.51194 14.9111C8.41671 14.913 8.32601 14.9522 8.25932 15.0202C8.19263 15.0883 8.15527 15.1798 8.15527 15.2752C8.15528 15.3705 8.19264 15.462 8.25933 15.5301C8.32603 15.5982 8.41673 15.6373 8.51197 15.6392C8.6072 15.6373 8.6979 15.5982 8.76459 15.5301C8.83128 15.462 8.86864 15.3705 8.86864 15.2752C8.86863 15.1798 8.83127 15.0883 8.76458 15.0202C8.69788 14.9522 8.60718 14.913 8.51194 14.9111Z" fill="#E42E3B"/>
</svg>
