<svg width="24" height="20" viewBox="0 0 24 20" fill="none" xmlns="http://www.w3.org/2000/svg">
<path d="M23.6334 9.60598C23.6343 8.35732 23.4126 7.11851 22.9785 5.94773L21.5285 2.02361V0.246181C21.5285 0.18089 21.5026 0.118273 21.4564 0.0721047C21.4102 0.0259369 21.3476 0 21.2823 0H10.1697C10.1044 0 10.0418 0.0259369 9.99566 0.0721047C9.94949 0.118273 9.92355 0.18089 9.92355 0.246181V2.02361L8.47354 5.94773C8.04064 7.11882 7.81893 8.35743 7.8187 9.60598V12.8359L7.42974 12.6118C6.99062 12.3615 6.49384 12.2298 5.98835 12.2298C5.48286 12.2298 4.98608 12.3615 4.54696 12.6118L1.07581 14.601H0.753313C0.553522 14.601 0.361914 14.6804 0.22064 14.8216C0.0793667 14.9629 0 15.1545 0 15.3543L0 15.5192C-1.06111e-06 15.7193 0.079287 15.9111 0.22049 16.0528C0.361694 16.1945 0.553296 16.2744 0.753313 16.275H0.893637V16.5483C0.897524 17.4612 1.26189 18.3355 1.9074 18.981C2.55291 19.6266 3.42729 19.9909 4.34017 19.9948C24.7116 19.9948 23.4536 20.0317 23.5595 19.9086C23.6654 19.7856 23.6334 20.3838 23.6334 9.60598ZM23.141 9.60598V19.2538L21.5285 17.9958V16.7649C21.5285 16.6996 21.5026 16.637 21.4564 16.5908C21.4102 16.5447 21.3476 16.5187 21.2823 16.5187C21.217 16.5187 21.1544 16.5447 21.1083 16.5908C21.0621 16.637 21.0362 16.6996 21.0362 16.7649V17.9958L19.4237 19.2538V9.60598C19.4225 8.416 19.6342 7.23542 20.049 6.12006L21.2799 2.77938C21.6196 3.69271 21.3587 2.99356 22.5108 6.12006C22.9261 7.23542 23.1395 8.41581 23.141 9.60598ZM21.2823 18.4291L22.6708 19.5123H19.8939L21.2823 18.4291ZM11.0781 16.275H11.2185C11.4187 16.2744 11.6106 16.1945 11.7522 16.0529C11.8938 15.9113 11.9736 15.7195 11.9742 15.5192V15.3543C11.9736 15.1543 11.8937 14.9627 11.752 14.8215C11.6103 14.6803 11.4185 14.601 11.2185 14.601H10.8984L10.7975 14.5419C10.7975 7.92702 10.6129 8.30614 11.8216 5.03932H17.4345C16.9422 6.35393 16.4498 7.58976 16.4498 9.60598V16.6246C16.4495 16.6932 16.4356 16.7611 16.4089 16.8243C16.3821 16.8876 16.3432 16.9449 16.2942 16.9929C16.2452 17.041 16.1872 17.0789 16.1235 17.1044C16.0597 17.1299 15.9916 17.1425 15.923 17.1416C10.9329 17.1416 11.2209 17.176 11.0437 17.0603C11.0772 16.8 11.0887 16.5373 11.0781 16.275ZM12.8285 2.31656H18.4414L17.6167 4.54696H12.0062L12.8285 2.31656ZM10.4159 0.492362H21.0362V1.8242H10.4159V0.492362ZM8.31106 9.60105C8.31044 8.41273 8.5222 7.23387 8.93636 6.12006L10.3396 2.31656H12.309L10.9624 5.94773C10.5295 7.11882 10.3078 8.35743 10.3076 9.60598V14.2613L8.31106 13.1165V9.60105ZM4.79314 13.0476C5.15709 12.8395 5.56909 12.73 5.98835 12.73C6.40761 12.73 6.8196 12.8395 7.18356 13.0476L9.91124 14.6084H2.06546L4.79314 13.0476ZM0.492362 15.5192V15.3543C0.493004 15.2853 0.520703 15.2193 0.569502 15.1705C0.618302 15.1217 0.684304 15.094 0.753313 15.0933H11.2209C11.2904 15.0933 11.357 15.1208 11.4063 15.1696C11.4556 15.2185 11.4837 15.2849 11.4843 15.3543V15.5192C11.4843 15.5891 11.4566 15.6561 11.4072 15.7055C11.3578 15.7549 11.2908 15.7827 11.2209 15.7827H0.753313C0.683879 15.782 0.61751 15.754 0.568641 15.7046C0.519773 15.6553 0.492359 15.5887 0.492362 15.5192ZM7.8187 19.5049C7.68084 19.5049 7.92702 19.5049 4.35002 19.5049C3.56752 19.5017 2.818 19.1894 2.26468 18.6361C1.71137 18.0828 1.39909 17.3332 1.39585 16.5507V16.275H10.5858C10.6022 16.5939 10.5757 16.9135 10.507 17.2253C10.3633 17.8437 10.0243 18.3993 9.54008 18.8099C9.05587 19.2205 8.45226 19.4642 7.8187 19.5049ZM10.9304 17.5601C11.2185 17.6782 11.0338 17.6364 15.923 17.6364C16.1911 17.6357 16.4481 17.5289 16.6377 17.3393C16.8273 17.1497 16.9341 16.8927 16.9348 16.6246V9.60598C16.9352 8.41535 17.1469 7.23425 17.5601 6.11759L18.9682 2.31656H20.9377L19.5861 5.94773C19.1532 7.11882 18.9315 8.35743 18.9313 9.60598V19.5123H9.40411C10.1348 19.0705 10.6779 18.3758 10.9304 17.5601Z" fill="#147D77"/>
<path d="M20.0137 10.4552V11.7797C20.0143 11.9401 20.0783 12.0937 20.1918 12.2072C20.3052 12.3206 20.4589 12.3846 20.6193 12.3853H21.9437C22.1041 12.3846 22.2578 12.3206 22.3712 12.2072C22.4847 12.0937 22.5487 11.9401 22.5493 11.7797V10.4552C22.5487 10.2948 22.4847 10.1411 22.3712 10.0277C22.2578 9.91427 22.1041 9.85026 21.9437 9.84961H20.6193C20.4589 9.85026 20.3052 9.91427 20.1918 10.0277C20.0783 10.1411 20.0143 10.2948 20.0137 10.4552ZM22.057 10.4552V11.7797C22.0563 11.8095 22.0442 11.8379 22.0231 11.859C22.002 11.8801 21.9736 11.8923 21.9437 11.8929H20.6193C20.5894 11.8923 20.561 11.8801 20.5399 11.859C20.5188 11.8379 20.5067 11.8095 20.506 11.7797V10.4552C20.5067 10.4254 20.5188 10.3969 20.5399 10.3758C20.561 10.3547 20.5894 10.3426 20.6193 10.342H21.9437C21.9736 10.3426 22.002 10.3547 22.0231 10.3758C22.0442 10.3969 22.0563 10.4254 22.057 10.4552Z" fill="#147D77"/>
<path d="M22.3032 13.2295H20.2599C20.1946 13.2295 20.1319 13.2554 20.0858 13.3016C20.0396 13.3478 20.0137 13.4104 20.0137 13.4757C20.0137 13.541 20.0396 13.6036 20.0858 13.6497C20.1319 13.6959 20.1946 13.7219 20.2599 13.7219H22.3032C22.3684 13.7219 22.4311 13.6959 22.4772 13.6497C22.5234 13.6036 22.5493 13.541 22.5493 13.4757C22.5493 13.4104 22.5234 13.3478 22.4772 13.3016C22.4311 13.2554 22.3684 13.2295 22.3032 13.2295Z" fill="#147D77"/>
<path d="M22.3032 14.2812H20.2599C20.1946 14.2812 20.1319 14.3072 20.0858 14.3534C20.0396 14.3995 20.0137 14.4621 20.0137 14.5274C20.0137 14.5927 20.0396 14.6553 20.0858 14.7015C20.1319 14.7477 20.1946 14.7736 20.2599 14.7736H22.3032C22.3684 14.7736 22.4311 14.7477 22.4772 14.7015C22.5234 14.6553 22.5493 14.5927 22.5493 14.5274C22.5493 14.4621 22.5234 14.3995 22.4772 14.3534C22.4311 14.3072 22.3684 14.2812 22.3032 14.2812Z" fill="#147D77"/>
<path d="M21.2815 15.335H20.2599C20.1946 15.335 20.1319 15.3609 20.0858 15.4071C20.0396 15.4532 20.0137 15.5159 20.0137 15.5811C20.0137 15.6464 20.0396 15.709 20.0858 15.7552C20.1319 15.8014 20.1946 15.8273 20.2599 15.8273H21.2815C21.3468 15.8273 21.4094 15.8014 21.4556 15.7552C21.5017 15.709 21.5277 15.6464 21.5277 15.5811C21.5277 15.5159 21.5017 15.4532 21.4556 15.4071C21.4094 15.3609 21.3468 15.335 21.2815 15.335Z" fill="#147D77"/>
<path d="M13.0739 14.6949H13.3201V15.3251C13.3201 15.3904 13.346 15.453 13.3922 15.4992C13.4384 15.5454 13.501 15.5713 13.5663 15.5713C13.6316 15.5713 13.6942 15.5454 13.7403 15.4992C13.7865 15.453 13.8124 15.3904 13.8124 15.3251V14.6998H14.0315C14.4096 14.6998 14.7721 14.5496 15.0395 14.2823C15.3068 14.015 15.4569 13.6525 15.4569 13.2744V12.7968C15.4569 12.7316 15.431 12.6689 15.3848 12.6228C15.3387 12.5766 15.276 12.5507 15.2108 12.5507C14.6839 12.5507 14.2679 12.499 13.8075 12.9002V12.3168H14.0315C14.4096 12.3168 14.7721 12.1666 15.0395 11.8993C15.3068 11.632 15.4569 11.2694 15.4569 10.8914V10.4187C15.4569 10.3534 15.431 10.2908 15.3848 10.2447C15.3387 10.1985 15.276 10.1726 15.2108 10.1726C14.6692 10.1726 14.2433 10.1233 13.778 10.5468V10.2489L14.0315 10.0027C14.1639 9.87058 14.2687 9.7136 14.3401 9.5408C14.4115 9.368 14.4481 9.18279 14.4476 8.99581C14.4476 8.31389 14.0414 7.99632 13.7091 7.65167C13.6629 7.60581 13.6005 7.58008 13.5355 7.58008C13.4705 7.58008 13.4081 7.60581 13.3619 7.65167L13.0271 7.98647C12.8942 8.11876 12.7888 8.27605 12.7169 8.44929C12.6451 8.62253 12.6083 8.80828 12.6086 8.99581C12.6086 9.64819 12.9804 9.95838 13.2905 10.2661V10.5123C12.8376 10.1381 12.4215 10.1873 11.9119 10.1873C11.8466 10.1873 11.784 10.2133 11.7379 10.2594C11.6917 10.3056 11.6658 10.3682 11.6658 10.4335V10.9062C11.6664 11.284 11.8168 11.6462 12.084 11.9134C12.3511 12.1805 12.7133 12.3309 13.0911 12.3316H13.293V12.9175C12.8277 12.5113 12.3821 12.5654 11.8849 12.5654C11.8196 12.5654 11.7569 12.5914 11.7108 12.6375C11.6646 12.6837 11.6387 12.7463 11.6387 12.8116V13.2843C11.6432 13.6613 11.7967 14.0211 12.0655 14.2854C12.3344 14.5497 12.6969 14.6969 13.0739 14.6949ZM14.7258 13.043H14.9523V13.2695C14.9523 13.5148 14.8557 13.7503 14.6834 13.9249C14.511 14.0996 14.2769 14.1993 14.0315 14.2025H13.81V13.8431C13.8413 13.6221 13.951 13.4197 14.1191 13.2728C14.2872 13.1259 14.5025 13.0444 14.7258 13.043ZM14.7258 10.6649H14.9523V10.8914C14.9523 11.1367 14.8557 11.3722 14.6834 11.5468C14.511 11.7215 14.2769 11.8212 14.0315 11.8244H13.7854V11.5979C13.7854 11.4748 13.8097 11.3529 13.8571 11.2392C13.9044 11.1255 13.9738 11.0223 14.0613 10.9356C14.1487 10.8488 14.2524 10.7803 14.3665 10.7338C14.4805 10.6874 14.6026 10.6639 14.7258 10.6649ZM13.3546 8.3262L13.5146 8.16618L13.6746 8.3262C13.7619 8.41272 13.8312 8.51568 13.8785 8.62913C13.9258 8.74258 13.9501 8.86428 13.9501 8.9872C13.9501 9.11011 13.9258 9.23181 13.8785 9.34526C13.8312 9.45872 13.7619 9.56167 13.6746 9.64819L13.5146 9.80821L13.3546 9.64819C13.1794 9.4728 13.081 9.23506 13.081 8.9872C13.081 8.73933 13.1794 8.5016 13.3546 8.3262ZM13.0739 11.8244C12.8265 11.8244 12.5891 11.7261 12.4142 11.5512C12.2392 11.3762 12.1409 11.1389 12.1409 10.8914V10.6649H12.3674C12.5888 10.6641 12.8033 10.7418 12.9728 10.8842C13.1422 11.0267 13.2557 11.2246 13.293 11.4429V11.8244H13.0739ZM12.1409 13.0553H12.3674C12.6114 13.0572 12.845 13.1547 13.018 13.3268C13.1911 13.4989 13.2898 13.732 13.293 13.9761V14.2025H13.0665C12.8191 14.2025 12.5817 14.1042 12.4068 13.9293C12.2318 13.7543 12.1335 13.517 12.1335 13.2695L12.1409 13.0553Z" fill="#147D77"/>
<path d="M16.3146 3.18555H14.1309C14.0657 3.18555 14.003 3.21148 13.9569 3.25765C13.9107 3.30382 13.8848 3.36644 13.8848 3.43173C13.8848 3.49702 13.9107 3.55964 13.9569 3.6058C14.003 3.65197 14.0657 3.67791 14.1309 3.67791H16.3146C16.3799 3.67791 16.4425 3.65197 16.4886 3.6058C16.5348 3.55964 16.5608 3.49702 16.5608 3.43173C16.5608 3.36644 16.5348 3.30382 16.4886 3.25765C16.4425 3.21148 16.3799 3.18555 16.3146 3.18555Z" fill="#147D77"/>
</svg>
