<svg width="23" height="20" viewBox="0 0 23 20" fill="none" xmlns="http://www.w3.org/2000/svg">
<path d="M18.5957 15.0847C18.1574 15.523 18.4721 16.2729 19.0879 16.2729C19.7032 16.2729 20.0189 15.5235 19.5801 15.0847C19.3081 14.8126 18.8678 14.8126 18.5957 15.0847ZM20.7942 13.8706C20.9392 14.0156 20.9392 14.2506 20.7942 14.3956C20.6492 14.5406 20.4142 14.5407 20.2692 14.3956C19.6164 13.7428 18.5596 13.7427 17.9067 14.3956C17.7617 14.5407 17.5267 14.5406 17.3817 14.3956C17.2367 14.2507 17.2367 14.0156 17.3817 13.8706C18.3247 12.9277 19.851 12.9274 20.7942 13.8706ZM21.9098 13.1262C21.8148 13.1262 21.7198 13.09 21.6473 13.0175C20.2328 11.6029 17.9432 11.6028 16.5286 13.0175C16.3836 13.1625 16.1486 13.1625 16.0036 13.0175C15.8586 12.8725 15.8586 12.6374 16.0036 12.4925C17.7084 10.7878 20.4674 10.7876 22.1723 12.4925C22.4065 12.7267 22.2381 13.1262 21.9098 13.1262ZM18.8864 17.7726C18.8864 19.0008 17.8872 20 16.659 20H4.64042C3.4122 20 2.41304 19.0008 2.41304 17.7726V6.52014L0.573317 7.71374C0.401345 7.82534 0.171461 7.77633 0.0598598 7.60436C-0.0517411 7.43234 -0.0027852 7.20256 0.169187 7.09091L8.82051 1.47787C9.91109 0.770302 11.3203 0.770302 12.4109 1.47787L14.5708 2.87926V0.742459C14.3658 0.742459 14.1996 0.576241 14.1996 0.37123C14.1996 0.166218 14.3658 0 14.5708 0H18.5151C18.7201 0 18.8864 0.166218 18.8864 0.37123C18.8864 0.576241 18.7201 0.742459 18.5151 0.742459H18.4687V3.24826C18.4687 3.45327 18.3025 3.61949 18.0975 3.61949C17.8925 3.61949 17.7263 3.45327 17.7263 3.24826V0.742459H15.3133V3.36097L21.0622 7.09091C21.3722 7.29207 21.2274 7.7736 20.8598 7.7736C20.697 7.7736 21.284 8.11986 12.0068 2.1007C11.1618 1.55248 10.0698 1.55244 9.22469 2.1007L3.1555 6.03842V17.7726C3.1555 18.5914 3.82162 19.2575 4.64042 19.2575H13.4571V13.1078C13.4571 12.6607 13.0934 12.297 12.6463 12.297H8.60668C8.15958 12.297 7.79582 12.6607 7.79582 13.1078V17.7262C7.79582 17.9312 7.6296 18.0974 7.42459 18.0974C7.21958 18.0974 7.05336 17.9312 7.05336 17.7262V13.1078C7.05336 12.2513 7.75021 11.5545 8.60668 11.5545H12.6463C13.5027 11.5545 14.1996 12.2513 14.1996 13.1078V19.2575H16.659C17.4778 19.2575 18.1439 18.5914 18.1439 17.7726C18.1439 17.5676 18.3101 17.4014 18.5151 17.4014C18.7201 17.4014 18.8864 17.5676 18.8864 17.7726ZM18.5151 7.84223C18.7201 7.84223 18.8864 8.00845 18.8864 8.21346V9.72158C18.8864 9.92659 18.7201 10.0928 18.5151 10.0928C18.3101 10.0928 18.1439 9.92659 18.1439 9.72158V8.21346C18.1439 8.00845 18.3101 7.84223 18.5151 7.84223Z" fill="#FD5B44"/>
</svg>
