<svg width="20" height="15" viewBox="0 0 20 15" fill="none" xmlns="http://www.w3.org/2000/svg">
<path d="M19.6774 10.6452H19.3548V8.06452C19.3544 7.72244 19.2183 7.3945 18.9764 7.15262C18.7345 6.91073 18.4066 6.77464 18.0645 6.77419V1.29032C18.0641 0.948245 17.928 0.620307 17.6861 0.378422C17.4442 0.136536 17.1163 0.000448095 16.7742 0H3.22581C2.88373 0.000448095 2.55579 0.136536 2.31391 0.378422C2.07202 0.620307 1.93593 0.948245 1.93548 1.29032V6.77419C1.59341 6.77464 1.26547 6.91073 1.02358 7.15262C0.781698 7.3945 0.645609 7.72244 0.645161 8.06452V10.6452H0.322581C0.237027 10.6452 0.154977 10.6791 0.0944817 10.7396C0.0339861 10.8001 0 10.8822 0 10.9677V12.2581C0 12.3436 0.0339861 12.4257 0.0944817 12.4862C0.154977 12.5467 0.237027 12.5806 0.322581 12.5806H0.645161V13.871C0.645161 13.9565 0.679147 14.0386 0.739643 14.0991C0.800139 14.1596 0.882188 14.1935 0.967742 14.1935H1.93548C2.01004 14.1936 2.0823 14.1678 2.13994 14.1205C2.19759 14.0732 2.23706 14.0074 2.25161 13.9343L2.52258 12.5806H17.4774L17.7484 13.9343C17.7629 14.0074 17.8024 14.0732 17.8601 14.1205C17.9177 14.1678 17.99 14.1936 18.0645 14.1935H19.0323C19.1178 14.1935 19.1999 14.1596 19.2604 14.0991C19.3209 14.0386 19.3548 13.9565 19.3548 13.871V12.5806H19.6774C19.763 12.5806 19.845 12.5467 19.9055 12.4862C19.966 12.4257 20 12.3436 20 12.2581V10.9677C20 10.8822 19.966 10.8001 19.9055 10.7396C19.845 10.6791 19.763 10.6452 19.6774 10.6452ZM2.58065 1.29032C2.58087 1.11928 2.64891 0.955315 2.76986 0.834372C2.8908 0.713429 3.05477 0.645385 3.22581 0.645161H16.7742C16.9452 0.645385 17.1092 0.713429 17.2301 0.834372C17.3511 0.955315 17.4191 1.11928 17.4194 1.29032V6.77419H16.7742V5.48387C16.7737 5.14179 16.6377 4.81386 16.3958 4.57197C16.1539 4.33008 15.8259 4.194 15.4839 4.19355H11.6129C11.2708 4.194 10.9429 4.33008 10.701 4.57197C10.4591 4.81386 10.323 5.14179 10.3226 5.48387V6.77419H9.67742V5.48387C9.67697 5.14179 9.54088 4.81386 9.299 4.57197C9.05711 4.33008 8.72917 4.194 8.3871 4.19355H4.51613C4.17405 4.194 3.84611 4.33008 3.60423 4.57197C3.36234 4.81386 3.22625 5.14179 3.22581 5.48387V6.77419H2.58065V1.29032ZM16.129 5.48387V6.77419H10.9677V5.48387C10.968 5.31283 11.036 5.14886 11.157 5.02792C11.2779 4.90698 11.4419 4.83893 11.6129 4.83871H15.4839C15.6549 4.83893 15.8189 4.90698 15.9398 5.02792C16.0608 5.14886 16.1288 5.31283 16.129 5.48387ZM9.03226 5.48387V6.77419H3.87097V5.48387C3.87119 5.31283 3.93924 5.14886 4.06018 5.02792C4.18112 4.90698 4.34509 4.83893 4.51613 4.83871H8.3871C8.55814 4.83893 8.7221 4.90698 8.84305 5.02792C8.96399 5.14886 9.03203 5.31283 9.03226 5.48387ZM1.29032 8.06452C1.29055 7.89348 1.35859 7.72951 1.47953 7.60856C1.60048 7.48762 1.76445 7.41958 1.93548 7.41935H18.0645C18.2356 7.41958 18.3995 7.48762 18.5205 7.60856C18.6414 7.72951 18.7095 7.89348 18.7097 8.06452V10.6452H1.29032V8.06452ZM1.67097 13.5484H1.29032V12.5806H1.86452L1.67097 13.5484ZM18.7097 13.5484H18.329L18.1355 12.5806H18.7097V13.5484ZM19.3548 11.9355H0.645161V11.2903H19.3548V11.9355Z" fill="#BF9F65"/>
</svg>
