<svg width="19" height="21" viewBox="0 0 19 21" fill="none" xmlns="http://www.w3.org/2000/svg">
<path fill-rule="evenodd" clip-rule="evenodd" d="M1.74672 20.6014V20.6924H0.525391V0.692383H18.9314V20.6924H17.7101V20.6014L11.8167 16.434V5.90038L17.3044 2.02005H2.15239L7.64006 5.90038V16.434L1.74672 20.6014ZM1.36872 20.3144V1.64205H18.0881V20.3144H18.5534V1.07038H0.903391V20.3144H1.36872ZM12.1947 6.09605V16.2384L17.7101 20.1384V2.19605L12.1947 6.09605ZM1.74672 2.19605V20.1384L7.26206 16.2384V6.09605L1.74672 2.19605ZM13.7847 12.7497V11.7787L14.1477 11.8274V13.2034L12.8647 12.7807V10.875L14.1477 10.4557V11.3527L13.7847 11.4167V10.9651L13.2274 11.1254V12.596L13.7847 12.7497ZM5.72306 12.7497V11.7787L5.36039 11.8274V13.2034L6.64339 12.7807V10.875L5.36039 10.4557V11.3527L5.72306 11.4167V10.9651L6.28039 11.1254V12.596L5.72306 12.7497ZM13.5687 11.612L14.7627 11.7254L14.7611 11.3394L13.5687 11.5557V11.612ZM5.93906 11.612L4.74539 11.7254L4.74672 11.3394L5.93906 11.5557V11.612Z" fill="#BF9F65"/>
</svg>
