<svg width="21" height="20" viewBox="0 0 21 20" fill="none" xmlns="http://www.w3.org/2000/svg">
<path d="M2.31483 12.8553C2.03508 12.9432 1.80358 13.1419 1.67433 13.4051C1.37224 13.9276 1.17119 14.9222 1.51228 16.1465C1.54427 16.2613 1.63505 16.3503 1.75044 16.38C1.86583 16.4097 1.98829 16.3755 2.07169 16.2905C2.1551 16.2054 2.18677 16.0823 2.15479 15.9675C1.90622 15.2387 1.94085 14.443 2.25181 13.7386C2.29775 13.6349 2.3789 13.551 2.48088 13.5015C2.5963 13.4717 2.68708 13.3826 2.719 13.2678C2.75092 13.1529 2.71915 13.0297 2.63564 12.9447C2.55214 12.8596 2.42959 12.8255 2.31416 12.8553H2.31483Z" fill="#147D77"/>
<path d="M8.16893 11.9971C8.81344 11.9971 9.33592 11.4746 9.33592 10.8301C9.33592 10.1856 8.81344 9.66309 8.16893 9.66309C7.52443 9.66309 7.00195 10.1856 7.00195 10.8301C7.00195 11.4746 7.52443 11.9971 8.16893 11.9971ZM8.16893 10.3299C8.44515 10.3299 8.66907 10.5539 8.66907 10.8301C8.66907 11.1063 8.44515 11.3302 8.16893 11.3302C7.89272 11.3302 7.6688 11.1063 7.6688 10.8301C7.6688 10.5539 7.89272 10.3299 8.16893 10.3299Z" fill="#147D77"/>
<path d="M5.33538 3.99497C5.51952 3.99497 5.6688 3.84569 5.6688 3.66155C5.6688 3.4774 5.51952 3.32812 5.33538 3.32812C5.15123 3.32812 5.00195 3.4774 5.00195 3.66155C5.00195 3.84569 5.15123 3.99497 5.33538 3.99497Z" fill="#147D77"/>
<path d="M7.66936 13.6649C7.85351 13.6649 8.00278 13.5156 8.00278 13.3315C8.00278 13.1473 7.85351 12.998 7.66936 12.998C7.48522 12.998 7.33594 13.1473 7.33594 13.3315C7.33594 13.5156 7.48522 13.6649 7.66936 13.6649Z" fill="#147D77"/>
<path d="M8.00139 15.3319C8.18554 15.3319 8.33482 15.1826 8.33482 14.9985C8.33482 14.8143 8.18554 14.665 8.00139 14.665C7.81725 14.665 7.66797 14.8143 7.66797 14.9985C7.66797 15.1826 7.81725 15.3319 8.00139 15.3319Z" fill="#147D77"/>
<path d="M4.33538 4.99595C4.51952 4.99595 4.6688 4.84667 4.6688 4.66252C4.6688 4.47838 4.51952 4.3291 4.33538 4.3291C4.15123 4.3291 4.00195 4.47838 4.00195 4.66252C4.00195 4.84667 4.15123 4.99595 4.33538 4.99595Z" fill="#147D77"/>
<path d="M19.8767 17.7264L15.4565 13.3059L16.3324 5.43874C16.3636 5.15594 16.2729 4.87325 16.083 4.66139C15.8931 4.44953 15.6219 4.32857 15.3374 4.32877H13.743L14.2805 2.87504L17.529 0.600762C17.6735 0.493036 17.7062 0.289989 17.6029 0.142315C17.4996 -0.00535887 17.2976 -0.0442018 17.1469 0.0546142L13.8127 2.38858C13.757 2.42743 13.7146 2.48233 13.691 2.54595L13.0321 4.32877H7.43063C7.20071 3.6011 6.81885 2.93058 6.31033 2.36157C6.03936 2.09073 5.7054 1.89138 5.3384 1.78141C5.49526 1.44453 5.58107 1.07895 5.59047 0.707457C5.59741 0.522743 5.52738 0.343432 5.39708 0.212323C5.26657 0.0806267 5.08652 0.010156 4.90128 0.018271C4.33566 0.0145083 3.78855 0.219674 3.36487 0.594427C3.07336 0.909266 2.88693 1.30694 2.83139 1.7324C1.93381 0.925182 1.48836 0.849829 1.36099 0.849829C1.17402 0.848462 1.02004 0.996379 1.0139 1.18325C1.01074 1.27024 1.04296 1.3548 1.10321 1.41763C1.16347 1.48046 1.2466 1.51619 1.33365 1.51668C1.33732 1.51668 1.64507 1.57236 2.34192 2.18952C1.93009 2.24948 1.54628 2.43347 1.24163 2.717C0.86723 3.14041 0.662511 3.68724 0.666804 4.25241C0.659633 4.433 0.726395 4.60869 0.851676 4.73895C0.976957 4.8692 1.14993 4.94274 1.33065 4.9426H1.35632C1.72791 4.93308 2.09357 4.84728 2.43061 4.69053C2.53983 5.05809 2.73967 5.3923 3.01177 5.66246C3.63006 6.21286 4.36548 6.61535 5.16235 6.83945L5.51245 9.98863C5.28475 10.1576 5.08523 10.3615 4.92129 10.5928C4.883 10.5472 4.84227 10.5036 4.79925 10.4624C4.46999 10.1663 4.07063 9.95903 3.63894 9.86026C3.02711 9.70922 2.01783 9.85426 1.2793 10.0036C1.07021 10.0459 0.903642 10.2039 0.850403 10.4104C0.797165 10.617 0.866618 10.8358 1.02923 10.9739C1.26997 11.1783 1.55238 11.4037 1.84412 11.6097C1.27738 11.8074 0.804929 12.2097 0.519431 12.7377C-0.0473892 13.7193 -0.158086 15.1277 0.225685 16.5054C0.800173 18.5553 2.31258 19.9997 3.76964 19.9997C3.94857 19.9999 4.12681 19.9775 4.30012 19.933C4.42479 19.9007 4.54632 19.8573 4.66322 19.8033C4.77983 19.8574 4.90115 19.9009 5.02565 19.933C5.62495 20.0696 6.25365 19.9781 6.78912 19.6762C6.9775 19.8821 7.24359 19.9996 7.52265 20H13.817C14.0926 19.9987 14.3556 19.8842 14.5442 19.6832C15.1216 19.8918 15.7308 19.999 16.3447 20H16.3637C17.6386 20.0007 18.8711 19.5429 19.8363 18.71C19.9792 18.5865 20.0646 18.4093 20.072 18.2205C20.0797 18.036 20.0094 17.8568 19.8783 17.7267L19.8767 17.7264ZM15.5348 14.3275L13.0195 14.3245C13.082 13.6718 13.3374 13.0525 13.753 12.5453L15.5348 14.3275ZM15.5368 14.9943L13.759 16.7721C13.3419 16.2646 13.0844 15.645 13.0188 14.9913L15.5368 14.9943ZM16.0083 15.4651L16.0116 17.9831C15.3579 17.9175 14.7382 17.66 14.2305 17.2429L16.0083 15.4651ZM16.6785 17.9828L16.6751 15.4671L18.4573 17.2493C17.9502 17.6649 17.3311 17.9204 16.6785 17.9835V17.9828ZM15.3374 4.99562C15.4323 4.99579 15.5227 5.03608 15.5862 5.10653C15.6497 5.17698 15.6805 5.27101 15.6709 5.36538L15.4221 7.59932L14.5195 8.05144C13.8373 8.38737 13.0441 8.41612 12.3393 8.13046L13.4966 4.99562H15.3374ZM11.7218 7.87473C11.3827 7.76014 11.0274 7.70104 10.6695 7.69968C10.1548 7.69812 9.64692 7.81747 9.18677 8.04811C8.44052 8.41889 7.56371 8.41889 6.81746 8.04811L5.91722 7.59832L5.66815 5.36572C5.65834 5.27126 5.68901 5.17708 5.75257 5.10653C5.81613 5.03598 5.90662 4.99567 6.00158 4.99562H12.7857L11.7218 7.87473ZM3.83633 1.06555C4.14389 0.81584 4.52845 0.68035 4.92462 0.682117C4.92909 1.07915 4.79424 1.46519 4.54352 1.77308C4.23767 2.02532 3.85195 2.16032 3.45556 2.15385C3.449 1.75734 3.58401 1.37149 3.83633 1.06555ZM1.33365 4.27542C1.32953 3.87941 1.46426 3.49447 1.71442 3.18746C2.01977 2.93553 2.4049 2.80065 2.80071 2.80702C2.80727 3.20319 2.67306 3.58883 2.42194 3.89532C2.11483 4.14546 1.72972 4.27997 1.33365 4.27542ZM3.48223 5.189C3.2232 4.92945 3.05942 4.59002 3.01744 4.22574C3.30847 3.81436 3.46564 3.32328 3.46756 2.81936C3.96957 2.81551 4.45833 2.65783 4.86794 2.36757C5.23441 2.40977 5.57598 2.57421 5.83753 2.83436C6.22536 3.27161 6.52626 3.77881 6.72411 4.32877H6.00158C5.717 4.32856 5.44581 4.44957 5.2559 4.6615C5.06599 4.87343 4.97534 5.15622 5.00664 5.43907L5.08166 6.11292C4.49218 5.91481 3.94835 5.60066 3.48223 5.189ZM5.60414 10.8099L5.7095 11.7578C5.58048 11.8175 5.45531 11.8852 5.33473 11.9605C5.24392 12.0177 5.14593 12.0625 5.04332 12.0939C5.10141 11.6204 5.2963 11.1742 5.60414 10.8099ZM3.47856 10.5064C3.79725 10.5784 4.09294 10.7287 4.33879 10.9439C4.46603 11.0363 4.54059 11.1847 4.53885 11.342L4.53585 11.352C4.50551 11.4567 4.37247 11.5521 4.17542 11.6084C3.85743 11.6838 3.52564 11.6787 3.21016 11.5934C2.62995 11.3671 2.09712 11.0344 1.63907 10.6125C2.24099 10.4677 2.86398 10.4317 3.47856 10.5064ZM5.19036 19.2865C5.06357 19.2531 4.94163 19.2035 4.82759 19.1388C4.72752 19.0826 4.6056 19.0818 4.50484 19.1368C4.38834 19.202 4.26411 19.2522 4.13507 19.2865C2.8804 19.6072 1.41467 18.2799 0.867524 16.3257C0.530767 15.1177 0.616457 13.901 1.09625 13.0715C1.3152 12.6521 1.69649 12.3408 2.1512 12.2102C2.50242 12.1257 2.87159 12.1575 3.20316 12.3009C3.35162 12.3609 3.49416 12.4345 3.62894 12.521C3.84204 12.6566 4.0801 12.7483 4.32913 12.7907V13.3279C4.32913 13.512 4.4784 13.6613 4.66255 13.6613C4.84669 13.6613 4.99597 13.512 4.99597 13.3279V12.7907C5.24301 12.7489 5.47923 12.6582 5.69083 12.524C5.72217 12.5043 5.75451 12.4883 5.78652 12.47L6.52005 19.0657C6.12186 19.308 5.64547 19.3871 5.19036 19.2865ZM7.52199 19.3328C7.35115 19.3338 7.20718 19.2056 7.18856 19.0357L6.00558 8.38786L6.51938 8.6446C7.45332 9.10905 8.55092 9.10905 9.48485 8.6446C10.1096 8.33932 10.8283 8.28758 11.4904 8.50023L8.02279 17.8834C7.95889 18.0562 8.04711 18.248 8.21984 18.3119C8.39257 18.3758 8.58439 18.2876 8.64829 18.1148L12.1072 8.7553C12.9844 9.10722 13.9701 9.06804 14.8166 8.6476L15.3331 8.38886L14.8526 12.702L13.2765 11.1259C13.1444 10.998 12.9667 10.928 12.7827 10.9316C12.5938 10.939 12.4165 11.0245 12.2929 11.1676C10.4723 13.2901 10.593 16.4566 12.57 18.4342C12.924 18.788 13.3258 19.0904 13.7637 19.3328H7.52199ZM19.3989 18.2048C18.5497 18.9347 17.4664 19.3351 16.3467 19.3328H16.3444C15.7336 19.3338 15.1286 19.2146 14.5639 18.9821H14.5622H14.5572C13.169 18.4066 12.1412 17.1999 11.794 15.7377C11.4467 14.2756 11.8222 12.7356 12.8034 11.5974L13.2795 12.0735C12.6672 12.7948 12.3316 13.7104 12.333 14.6566C12.3374 16.8705 14.1311 18.6641 16.345 18.6683C17.2912 18.6696 18.207 18.334 18.9284 17.7217L19.3989 18.2048Z" fill="#147D77"/>
</svg>
