<svg width="20" height="21" viewBox="0 0 20 21" fill="none" xmlns="http://www.w3.org/2000/svg">
<path d="M9.636 3.2572C9.52223 3.2572 9.41001 3.22466 9.33809 3.1634C9.28573 3.11882 8.2152 2.19961 7.70123 1.22223L7.43958 1.43651C7.31728 1.53672 7.08658 1.55658 6.92458 1.48101C6.76242 1.40538 6.73021 1.26291 6.85258 1.16274L7.5718 0.573797C7.65953 0.501946 7.8075 0.468815 7.94936 0.489448C8.09114 0.510035 8.19991 0.580342 8.22675 0.668781C8.53922 1.69838 9.91964 2.88477 9.93347 2.89663C10.0526 2.99825 10.0159 3.14031 9.85162 3.21394C9.78632 3.24316 9.71079 3.2572 9.636 3.2572Z" fill="#E42E3B"/>
<path d="M9.63404 3.25727C9.55925 3.25727 9.48373 3.24318 9.4185 3.21395C9.25413 3.14033 9.21744 2.99826 9.33657 2.89665C9.35047 2.88478 10.7308 1.6984 11.0433 0.668798C11.0701 0.580359 11.1789 0.510007 11.3206 0.489465C11.4623 0.468787 11.6104 0.501963 11.6982 0.573815L12.4174 1.16276C12.5397 1.26292 12.5075 1.4054 12.3454 1.48102C12.1833 1.5566 11.9528 1.5367 11.8304 1.43653L11.5687 1.22225C11.0548 2.19967 9.98417 3.11883 9.93181 3.16342C9.86003 3.22477 9.74781 3.25727 9.63404 3.25727Z" fill="#E42E3B"/>
<path d="M14.9828 10.6827C14.7976 10.6827 14.6383 10.5965 14.6177 10.4801C14.5909 10.3284 14.5545 10.1417 14.5123 9.92544C14.0939 7.77826 13.7201 5.42994 14.5861 4.7421C14.6731 4.67302 14.8167 4.64103 14.955 4.6597C15.0935 4.67847 15.2021 4.74469 15.2344 4.82995L16.6477 8.56667H18.4535C18.3815 8.23032 18.3173 7.88229 18.2549 7.54344C17.8107 5.1348 17.3512 2.64418 14.0576 2.22085C13.0436 2.09055 12.2718 1.81764 11.8259 1.43162C11.7079 1.32945 11.7462 1.18757 11.9115 1.11463C12.0767 1.04168 12.3064 1.06536 12.4244 1.16753C12.761 1.45889 13.3775 1.66926 14.2073 1.77588C18.0216 2.26616 18.5338 5.04241 18.9856 7.4919C19.0674 7.9351 19.1446 8.35376 19.2392 8.7616C19.2544 8.82681 19.2229 8.89289 19.1531 8.9427C19.0833 8.99251 18.9819 9.0211 18.8753 9.0211H16.3561C16.1853 9.0211 16.0369 8.94838 15.998 8.84558L14.8366 5.77488C14.6664 6.91436 15.0524 8.89507 15.2426 9.87113C15.285 10.0887 15.3216 10.2766 15.3489 10.4308C15.371 10.5555 15.2251 10.6677 15.0233 10.6814C15.0097 10.6822 14.9961 10.6827 14.9828 10.6827ZM4.30302 10.6827C4.28964 10.6827 4.27618 10.6822 4.26265 10.6814C4.06078 10.6677 3.91502 10.5555 3.93709 10.4308C3.96297 10.2841 3.99768 10.1045 4.03703 9.90045C4.22661 8.9183 4.61145 6.92477 4.43753 5.77838L3.29398 8.8449C3.25552 8.94802 3.10696 9.0211 2.93569 9.0211H0.410689C0.305453 9.0211 0.205365 8.99324 0.135502 8.94461C0.0657127 8.89594 0.0329874 8.83113 0.0456363 8.76659C0.106307 8.45619 0.158373 8.12261 0.213455 7.7694C0.398408 6.58433 0.607998 5.24115 1.25081 4.11957C2.02262 2.77307 3.26978 2.00638 5.06357 1.77588C5.89347 1.66921 6.51003 1.45884 6.84648 1.16753C6.96444 1.06536 7.1941 1.04164 7.35942 1.11458C7.52474 1.18748 7.56305 1.32941 7.4451 1.43157C6.99922 1.8176 6.22749 2.09051 5.2133 2.22085C1.74861 2.66618 1.30332 5.51997 0.945473 7.81303C0.904585 8.07499 0.865388 8.32626 0.822882 8.56663H2.643L4.03622 4.83058C4.06806 4.74514 4.17668 4.67866 4.31523 4.65975C4.45371 4.6408 4.59755 4.67288 4.68469 4.7421C5.55563 5.43384 5.18396 7.79521 4.76713 9.9543C4.72808 10.1566 4.69367 10.3347 4.668 10.4801C4.64756 10.5965 4.4882 10.6827 4.30302 10.6827Z" fill="#E42E3B"/>
<path d="M14.8757 5.10844C14.7508 5.10844 14.629 5.06904 14.56 4.99801C14.3426 4.774 14.0588 3.31202 15.3333 2.28615C15.4569 2.18662 15.6876 2.16781 15.8489 2.24429C16.0099 2.32074 16.0403 2.46335 15.9166 2.56292C14.8721 3.40369 15.0879 4.60653 15.1969 4.77086C15.2929 4.87753 15.2352 5.01282 15.0645 5.07604C15.0053 5.09799 14.9401 5.10844 14.8757 5.10844ZM15.1907 4.76432C15.1919 4.76555 15.1931 4.76682 15.1943 4.76809C15.193 4.76673 15.1919 4.7655 15.1907 4.76432Z" fill="#E42E3B"/>
<path d="M4.39373 5.1089C4.32939 5.1089 4.26423 5.09845 4.20503 5.07654C4.03434 5.01328 3.97661 4.87803 4.07258 4.77132C4.18164 4.60717 4.39778 3.40451 3.35343 2.56388C3.22974 2.46435 3.26004 2.32169 3.42117 2.24525C3.58222 2.16881 3.81313 2.18758 3.93676 2.28711C5.21076 3.31257 4.92675 4.77441 4.70944 4.99846C4.64053 5.06954 4.51868 5.1089 4.39373 5.1089ZM4.07869 4.76482C4.07758 4.76596 4.07633 4.76723 4.07516 4.76859C4.07633 4.76728 4.07751 4.76605 4.07869 4.76482Z" fill="#E42E3B"/>
<path d="M9.63626 10.6827C9.43321 10.6827 9.26855 10.581 9.26855 10.4555V3.02997C9.26855 2.90449 9.43321 2.80273 9.63626 2.80273C9.83937 2.80273 10.004 2.90449 10.004 3.02997L10.0039 10.4555C10.0039 10.581 9.8393 10.6827 9.63626 10.6827Z" fill="#E42E3B"/>
<path d="M11.4057 0.937866H7.86477C7.66173 0.937866 7.49707 0.836111 7.49707 0.710632C7.49707 0.585154 7.66173 0.483398 7.86477 0.483398H11.4057C11.6088 0.483398 11.7734 0.585154 11.7734 0.710632C11.7734 0.836111 11.6088 0.937866 11.4057 0.937866Z" fill="#E42E3B"/>
<path d="M7.29202 20.4839H4.67921C4.50309 20.4839 4.35167 20.4067 4.31821 20.2998C3.3641 17.2528 3.91204 10.7203 3.9358 10.4437C3.94617 10.323 4.10751 10.2285 4.30298 10.2285H9.64339C9.84651 10.2285 10.0111 10.3303 10.0111 10.4557V14.0195C10.0111 14.0368 10.0079 14.0541 10.0015 14.071L7.65016 20.3082C7.61141 20.4111 7.463 20.4839 7.29202 20.4839ZM4.9858 20.0294H7.00021L9.27569 13.9933V10.683H4.6534C4.56773 11.8312 4.21488 17.2753 4.9858 20.0294Z" fill="#E42E3B"/>
<path d="M14.6072 20.4839H11.9946C11.8237 20.4839 11.6752 20.4111 11.6365 20.3082L9.28505 14.071C9.23901 13.9488 9.36197 13.8266 9.55972 13.7982C9.75754 13.7697 9.95522 13.8457 10.0012 13.9679L12.2863 20.0294H14.3006C15.0716 17.2749 14.7189 11.8311 14.6331 10.683H9.64319C9.44014 10.683 9.27549 10.5813 9.27549 10.4557C9.27549 10.3303 9.44014 10.2285 9.64319 10.2285H14.9835C15.179 10.2285 15.3403 10.323 15.3507 10.4437C15.3745 10.7202 15.9223 17.2528 14.9682 20.2998C14.9348 20.4067 14.7833 20.4839 14.6072 20.4839Z" fill="#E42E3B"/>
<path d="M4.15853 13.2985C3.9924 13.2985 3.84179 13.2285 3.80127 13.1243C3.75384 13.0023 3.87547 12.8796 4.07293 12.8503C6.09874 12.5495 7.06285 11.7677 7.02049 10.4603C7.01644 10.3348 7.17772 10.231 7.38076 10.2285C7.5852 10.2271 7.7517 10.3257 7.75574 10.4512C7.76795 10.8275 7.7317 11.3917 7.27773 11.9445C6.72081 12.6227 5.70037 13.0761 4.24472 13.2922C4.21582 13.2965 4.18691 13.2985 4.15853 13.2985Z" fill="#E42E3B"/>
<path d="M15.1293 13.2986C15.1008 13.2986 15.072 13.2965 15.0431 13.2922C13.5874 13.0761 12.567 12.6227 12.0101 11.9445C11.5562 11.3918 11.5199 10.8275 11.5321 10.4512C11.5362 10.3257 11.706 10.2264 11.9072 10.2285C12.1102 10.231 12.2715 10.3348 12.2674 10.4603C12.2249 11.7677 13.1891 12.5496 15.2149 12.8503C15.4124 12.8796 15.534 13.0023 15.4865 13.1243C15.446 13.2285 15.2954 13.2986 15.1293 13.2986Z" fill="#E42E3B"/>
<path d="M7.72933 19.3246H4.41165C4.2086 19.3246 4.04395 19.2229 4.04395 19.0974C4.04395 18.9718 4.2086 18.8701 4.41165 18.8701H7.72933C7.93238 18.8701 8.09704 18.9718 8.09704 19.0974C8.09704 19.2229 7.93238 19.3246 7.72933 19.3246Z" fill="#E42E3B"/>
<path d="M14.8747 19.3246H11.5572C11.354 19.3246 11.1895 19.2229 11.1895 19.0974C11.1895 18.9718 11.354 18.8701 11.5572 18.8701H14.8747C15.0778 18.8701 15.2424 18.9718 15.2424 19.0974C15.2424 19.2229 15.0777 19.3246 14.8747 19.3246Z" fill="#E42E3B"/>
</svg>
