<svg width="27" height="20" viewBox="0 0 27 20" fill="none" xmlns="http://www.w3.org/2000/svg">
<path d="M22.5 0H1.34615C0.989253 0.000394486 0.647082 0.142348 0.394715 0.394715C0.142348 0.647082 0.000394486 0.989253 0 1.34615V15.5769C0.000394486 15.9338 0.142348 16.276 0.394715 16.5284C0.647082 16.7807 0.989253 16.9227 1.34615 16.9231H9.14615L8.91538 18.0769H7.30769C7.20569 18.0769 7.10786 18.1174 7.03573 18.1896C6.9636 18.2617 6.92308 18.3595 6.92308 18.4615V19.6154C6.92308 19.7174 6.9636 19.8152 7.03573 19.8874C7.10786 19.9595 7.20569 20 7.30769 20H16.5385C16.6405 20 16.7383 19.9595 16.8104 19.8874C16.8826 19.8152 16.9231 19.7174 16.9231 19.6154V18.4615C16.9231 18.3595 16.8826 18.2617 16.8104 18.1896C16.7383 18.1174 16.6405 18.0769 16.5385 18.0769H14.9308L14.7 16.9231H22.5C22.8569 16.9227 23.1991 16.7807 23.4514 16.5284C23.7038 16.276 23.8458 15.9338 23.8462 15.5769V1.34615C23.8458 0.989253 23.7038 0.647082 23.4514 0.394715C23.1991 0.142348 22.8569 0.000394486 22.5 0ZM16.1538 18.8462V19.2308H7.69231V18.8462H16.1538ZM9.7 18.0769L9.93077 16.9231H13.9154L14.1462 18.0769H9.7ZM23.0769 15.5769C23.0768 15.7299 23.016 15.8766 22.9078 15.9847C22.7996 16.0929 22.653 16.1537 22.5 16.1538H1.34615C1.19318 16.1537 1.04651 16.0929 0.938348 15.9847C0.830182 15.8766 0.769358 15.7299 0.769231 15.5769V14.6154H23.0769V15.5769ZM23.0769 13.8462H0.769231V1.34615C0.769358 1.19318 0.830182 1.04651 0.938348 0.938348C1.04651 0.830182 1.19318 0.769358 1.34615 0.769231H22.5C22.653 0.769358 22.7996 0.830182 22.9078 0.938348C23.016 1.04651 23.0768 1.19318 23.0769 1.34615V13.8462Z" fill="#FD5B44"/>
<path d="M12.3081 15H11.5389C11.4369 15 11.3391 15.0405 11.2669 15.1127C11.1948 15.1848 11.1543 15.2826 11.1543 15.3846C11.1543 15.4866 11.1948 15.5845 11.2669 15.6566C11.3391 15.7287 11.4369 15.7692 11.5389 15.7692H12.3081C12.4101 15.7692 12.508 15.7287 12.5801 15.6566C12.6522 15.5845 12.6928 15.4866 12.6928 15.3846C12.6928 15.2826 12.6522 15.1848 12.5801 15.1127C12.508 15.0405 12.4101 15 12.3081 15Z" fill="#FD5B44"/>
<path d="M25.5 0H4.34615C3.98925 0.000394486 3.64708 0.142348 3.39472 0.394715C3.14235 0.647082 3.00039 0.989253 3 1.34615V15.5769C3.00039 15.9338 3.14235 16.276 3.39472 16.5284C3.64708 16.7807 3.98925 16.9227 4.34615 16.9231H12.1462L11.9154 18.0769H10.3077C10.2057 18.0769 10.1079 18.1174 10.0357 18.1896C9.9636 18.2617 9.92308 18.3595 9.92308 18.4615V19.6154C9.92308 19.7174 9.9636 19.8152 10.0357 19.8873C10.1079 19.9595 10.2057 20 10.3077 20H19.5385C19.6405 20 19.7383 19.9595 19.8104 19.8873C19.8826 19.8152 19.9231 19.7174 19.9231 19.6154V18.4615C19.9231 18.3595 19.8826 18.2617 19.8104 18.1896C19.7383 18.1174 19.6405 18.0769 19.5385 18.0769H17.9308L17.7 16.9231H25.5C25.8569 16.9227 26.1991 16.7807 26.4514 16.5284C26.7038 16.276 26.8458 15.9338 26.8462 15.5769V1.34615C26.8458 0.989253 26.7038 0.647082 26.4514 0.394715C26.1991 0.142348 25.8569 0.000394486 25.5 0ZM19.1538 18.8462V19.2308H10.6923V18.8462H19.1538ZM12.7 18.0769L12.9308 16.9231H16.9154L17.1462 18.0769H12.7ZM26.0769 15.5769C26.0768 15.7299 26.016 15.8766 25.9078 15.9847C25.7996 16.0929 25.653 16.1537 25.5 16.1538H4.34615C4.19318 16.1537 4.04651 16.0929 3.93835 15.9847C3.83018 15.8766 3.76936 15.7299 3.76923 15.5769V14.6154H26.0769V15.5769ZM26.0769 13.8462H3.76923V1.34615C3.76936 1.19318 3.83018 1.04651 3.93835 0.938348C4.04651 0.830182 4.19318 0.769358 4.34615 0.769231H25.5C25.653 0.769358 25.7996 0.830182 25.9078 0.938348C26.016 1.04651 26.0768 1.19318 26.0769 1.34615V13.8462Z" fill="#FD5B44"/>
<path d="M15.3081 15H14.5389C14.4369 15 14.3391 15.0405 14.2669 15.1127C14.1948 15.1848 14.1543 15.2826 14.1543 15.3846C14.1543 15.4866 14.1948 15.5845 14.2669 15.6566C14.3391 15.7287 14.4369 15.7692 14.5389 15.7692H15.3081C15.4101 15.7692 15.508 15.7287 15.5801 15.6566C15.6522 15.5845 15.6928 15.4866 15.6928 15.3846C15.6928 15.2826 15.6522 15.1848 15.5801 15.1127C15.508 15.0405 15.4101 15 15.3081 15Z" fill="#FD5B44"/>
</svg>
