<svg width="29" height="20" viewBox="0 0 29 20" fill="none" xmlns="http://www.w3.org/2000/svg">
<path d="M11.1919 2.83643H17.6088C17.5692 3.26224 17.474 3.71275 17.232 3.9718C17.1321 4.07971 16.8574 4.11749 16.4393 4.11749H12.3636C11.945 4.11749 11.6802 4.07026 11.5686 3.9718C11.2507 3.6935 11.1919 3.31892 11.1919 2.83643ZM6.31321 0.756793H8.25115C8.71656 0.756793 9.01194 0.813471 9.20123 0.900667C9.3887 0.9875 9.48644 1.09177 9.59434 1.27561L10.3835 2.64532L10.6047 3.74872C10.6749 4.09678 10.8601 4.4245 11.1726 4.61524C11.4869 4.80634 11.8731 4.87065 12.3632 4.87065H16.4393C16.9276 4.87065 17.3134 4.80634 17.6273 4.61524C17.9394 4.4245 18.1254 4.09678 18.1952 3.74872L18.4164 2.64532L19.2056 1.27561C19.3135 1.09177 19.4141 0.987864 19.6016 0.900667C19.7891 0.813471 20.0841 0.756793 20.5509 0.756793H22.4867C22.765 0.756793 23.0793 0.894854 23.4277 1.20912C23.7754 1.52303 24.1409 2.00407 24.4951 2.60972C25.2047 3.82066 25.8747 5.51627 26.4287 7.35866C27.5357 11.0358 28.1865 15.3215 28.0092 17.4978C27.9256 17.9897 27.2578 18.7149 26.4254 19.0433C25.5865 19.3765 24.6975 19.3631 24.0766 18.6669L20.0387 14.1149C19.9664 14.035 19.8628 13.9878 19.7549 13.9899H9.04827C8.93819 13.9881 8.8361 14.035 8.76452 14.1149L4.72369 18.6673C4.10496 19.3634 3.21374 19.3769 2.37774 19.0437C1.5432 18.7149 0.874694 17.9901 0.791857 17.4982C0.613831 15.3219 1.26526 11.0358 2.37229 7.35902C2.92635 5.51663 3.59631 3.82102 4.30588 2.61008C4.66011 2.00443 5.02488 1.5234 5.37331 1.20949C5.72137 0.894854 6.03527 0.756793 6.31321 0.756793ZM6.31321 0C5.78967 0 5.30137 0.255413 4.86575 0.649251C4.43086 1.04054 4.03339 1.58044 3.65517 2.22896C2.89438 3.52528 2.21679 5.26267 1.65111 7.14139C0.517188 10.9014 -0.165487 15.1853 0.0347011 17.5792C0.036881 17.5904 0.0368811 17.5981 0.039061 17.6075C0.186568 18.5463 1.06653 19.3373 2.09762 19.7478C3.1309 20.1566 4.42504 20.1377 5.28575 19.1669L9.21613 14.7427H19.5845L23.5142 19.1669C24.3756 20.1377 25.6701 20.1569 26.703 19.7478C27.7341 19.3373 28.6141 18.5463 28.7616 17.6075C28.7638 17.5984 28.7652 17.5886 28.7652 17.5792C28.9661 15.1853 28.2827 10.9014 27.1517 7.14139C26.5853 5.26231 25.9084 3.52528 25.1477 2.22896C24.7673 1.58044 24.3698 1.04054 23.9342 0.649251C23.5015 0.255413 23.0132 0 22.4867 0H20.5509C20.0216 0 19.6187 0.0646711 19.2851 0.217628C18.9523 0.369132 18.714 0.618732 18.5527 0.898851L17.8678 2.08182H10.9328L10.2494 0.898851C10.0885 0.618732 9.84976 0.369495 9.51696 0.217628C9.18416 0.0646711 8.78124 0 8.25115 0H6.31321Z" fill="#FD5B44"/>
<path d="M7.559 5.86008C7.91105 5.86008 8.18136 6.13112 8.18136 6.48317V7.55242C8.18136 7.76206 8.3503 7.93064 8.5603 7.93064H9.62882C9.98088 7.93064 10.2497 8.20094 10.2497 8.553C10.2497 8.90324 9.98088 9.17173 9.62882 9.17173H8.5603C8.3503 9.17173 8.18136 9.34213 8.18136 9.55067V10.6217C8.18136 10.9712 7.91105 11.2423 7.559 11.2423C7.20694 11.2423 6.93663 10.9712 6.93663 10.6217V9.55067C6.93663 9.34213 6.76769 9.17173 6.55769 9.17173H5.48917C5.13711 9.17173 4.86608 8.90324 4.86608 8.553C4.86608 8.20094 5.13711 7.93064 5.48917 7.93064H6.55769C6.76769 7.93064 6.93663 7.76206 6.93663 7.55242V6.48317C6.93663 6.13112 7.20694 5.86008 7.559 5.86008ZM7.559 5.10547C6.80184 5.10547 6.18165 5.72602 6.18165 6.48317V7.17348H5.48917C4.73201 7.17348 4.11328 7.79657 4.11328 8.553C4.11328 9.31016 4.73201 9.92889 5.48917 9.92889H6.18165V10.6217C6.18165 11.3767 6.80184 11.9991 7.559 11.9991C8.31615 11.9991 8.93488 11.3767 8.93488 10.6217V9.92889H9.62882C10.386 9.92889 11.0047 9.31016 11.0047 8.553C11.0047 7.79621 10.386 7.17348 9.62882 7.17348H8.93488V6.48317C8.93488 5.72602 8.31615 5.10547 7.559 5.10547Z" fill="#FD5B44"/>
<path d="M20.0522 5.70517C20.5503 5.70517 20.9456 6.09901 20.9456 6.59821C20.9456 7.09559 20.5503 7.49343 20.0522 7.49343C19.5548 7.49343 19.1595 7.09559 19.1595 6.59821C19.1595 6.09901 19.5548 5.70517 20.0522 5.70517ZM20.0522 4.9502C19.1461 4.9502 18.4023 5.69173 18.4023 6.59821C18.4023 7.50469 19.1461 8.24622 20.0522 8.24622C20.959 8.24622 21.7027 7.50469 21.7027 6.59821C21.7027 5.69173 20.959 4.9502 20.0522 4.9502Z" fill="#FD5B44"/>
<path d="M20.0522 9.60863C20.5503 9.60863 20.9456 10.0061 20.9456 10.5053C20.9456 11.0034 20.5503 11.3987 20.0522 11.3987C19.5548 11.3987 19.1595 11.0034 19.1595 10.5053C19.1595 10.0057 19.5548 9.60863 20.0522 9.60863ZM20.0522 8.85547C19.1461 8.85547 18.4023 9.59882 18.4023 10.5053C18.4023 11.4118 19.1461 12.154 20.0522 12.154C20.959 12.154 21.7027 11.4118 21.7027 10.5053C21.7027 9.59882 20.959 8.85547 20.0522 8.85547Z" fill="#FD5B44"/>
<path d="M23.3217 7.65612C23.8198 7.65612 24.2173 8.05359 24.2173 8.55315C24.2173 9.05053 23.8198 9.44619 23.3217 9.44619C22.8221 9.44619 22.429 9.05053 22.429 8.55315C22.429 8.05359 22.8221 7.65612 23.3217 7.65612ZM23.3217 6.90332C22.4156 6.90332 21.6719 7.64703 21.6719 8.55351C21.6719 9.45999 22.4156 10.2015 23.3217 10.2015C24.2285 10.2015 24.9701 9.45999 24.9701 8.55351C24.9701 7.64703 24.2285 6.90332 23.3217 6.90332Z" fill="#FD5B44"/>
</svg>
