<svg width="21" height="19" viewBox="0 0 21 19" fill="none" xmlns="http://www.w3.org/2000/svg">
<path fill-rule="evenodd" clip-rule="evenodd" d="M5.47821 8.22999H3.5484C3.13844 8.22999 2.80469 7.89624 2.80469 7.48629C2.80469 7.07594 3.13844 6.74219 3.5484 6.74219H5.47821C5.88856 6.74219 6.22231 7.07594 6.22231 7.48629C6.22231 7.89624 5.88856 8.22999 5.47821 8.22999ZM3.5484 7.21116C3.39676 7.21116 3.27327 7.33465 3.27327 7.48629C3.27327 7.63792 3.39676 7.76142 3.5484 7.76142H5.47821C5.63023 7.76142 5.75334 7.63792 5.75334 7.48629C5.75334 7.33465 5.63023 7.21116 5.47821 7.21116H3.5484Z" fill="#BF9F65"/>
<path fill-rule="evenodd" clip-rule="evenodd" d="M3.80089 7.21131C3.67153 7.21131 3.56641 7.10618 3.56641 6.97683V6.22921C3.56641 6.09985 3.67153 5.99512 3.80089 5.99512C3.93025 5.99512 4.03538 6.09985 4.03538 6.22921V6.97683C4.03538 7.10618 3.93025 7.21131 3.80089 7.21131Z" fill="#BF9F65"/>
<path fill-rule="evenodd" clip-rule="evenodd" d="M5.22863 7.21131C5.09888 7.21131 4.99414 7.10618 4.99414 6.97683V6.22921C4.99414 6.09985 5.09888 5.99512 5.22863 5.99512C5.35798 5.99512 5.46272 6.09985 5.46272 6.22921V6.97683C5.46272 7.10618 5.35798 7.21131 5.22863 7.21131Z" fill="#BF9F65"/>
<path fill-rule="evenodd" clip-rule="evenodd" d="M7.00453 6.4636H1.42262C1.00563 6.4636 0.666016 6.12438 0.666016 5.70738V1.12633C0.666016 0.709339 1.00563 0.370117 1.42262 0.370117H7.60677C8.02415 0.370117 8.36337 0.709339 8.36337 1.12633V2.97446C8.36337 3.10382 8.25825 3.20895 8.12889 3.20895C7.99953 3.20895 7.89479 3.10382 7.89479 2.97446V1.12633C7.89479 0.967663 7.76544 0.838696 7.60677 0.838696H1.42262C1.26395 0.838696 1.13499 0.967663 1.13499 1.12633V5.70738C1.13499 5.86605 1.26395 5.99502 1.42262 5.99502H7.00453C7.13389 5.99502 7.23902 6.09976 7.23902 6.22911C7.23902 6.35886 7.13389 6.4636 7.00453 6.4636Z" fill="#BF9F65"/>
<path fill-rule="evenodd" clip-rule="evenodd" d="M19.3385 8.23025H13.2345C13.1051 8.23025 13 8.12552 13 7.99616C13 7.8668 13.1051 7.76168 13.2345 7.76168H19.104V4.15608H13.2345C13.1051 4.15608 13 4.05134 13 3.92198C13 3.79263 13.1051 3.6875 13.2345 3.6875H19.3385C19.4679 3.6875 19.5726 3.79263 19.5726 3.92198V7.99616C19.5726 8.12552 19.4679 8.23025 19.3385 8.23025Z" fill="#BF9F65"/>
<path fill-rule="evenodd" clip-rule="evenodd" d="M19.2697 6.89631H13.2345C13.1051 6.89631 13 6.79119 13 6.66183C13 6.53247 13.1051 6.42773 13.2345 6.42773H19.2697C19.3991 6.42773 19.5038 6.53247 19.5038 6.66183C19.5038 6.79119 19.3991 6.89631 19.2697 6.89631Z" fill="#BF9F65"/>
<path fill-rule="evenodd" clip-rule="evenodd" d="M19.2697 5.49045H13.2345C13.1051 5.49045 13 5.38533 13 5.25597C13 5.12661 13.1051 5.02148 13.2345 5.02148H19.2697C19.3991 5.02148 19.5038 5.12661 19.5038 5.25597C19.5038 5.38533 19.3991 5.49045 19.2697 5.49045Z" fill="#BF9F65"/>
<path fill-rule="evenodd" clip-rule="evenodd" d="M10.861 14.1178H9.38058C9.25122 14.1178 9.14648 14.0127 9.14648 13.8833V12.1798C9.14648 12.05 9.25122 11.9453 9.38058 11.9453H10.861C10.9903 11.9453 11.0951 12.05 11.0951 12.1798V13.8833C11.0951 14.0127 10.9903 14.1178 10.861 14.1178ZM9.61506 13.6488H10.6265V12.4139H9.61506V13.6488Z" fill="#BF9F65"/>
<path fill-rule="evenodd" clip-rule="evenodd" d="M10.1212 15.6208C9.99185 15.6208 9.88672 15.5161 9.88672 15.3864V13.8829C9.88672 13.7536 9.99185 13.6484 10.1212 13.6484C10.2506 13.6484 10.3557 13.7536 10.3557 13.8829V15.3864C10.3557 15.5161 10.2506 15.6208 10.1212 15.6208Z" fill="#BF9F65"/>
<path fill-rule="evenodd" clip-rule="evenodd" d="M13.0744 16.7082C12.945 16.7082 12.8399 16.6034 12.8399 16.4741C12.8399 16.1262 11.7804 15.6209 10.1202 15.6209C8.46009 15.6209 7.40022 16.1262 7.40022 16.4741C7.40022 16.6034 7.29548 16.7082 7.16613 16.7082C7.03677 16.7082 6.93164 16.6034 6.93164 16.4741C6.93164 16.1938 7.10829 15.7948 7.95048 15.4849C8.53356 15.2704 9.30424 15.1523 10.1202 15.1523C10.9363 15.1523 11.7069 15.2704 12.29 15.4849C13.1322 15.7952 13.3088 16.1938 13.3088 16.4741C13.3088 16.6034 13.2037 16.7082 13.0744 16.7082Z" fill="#BF9F65"/>
<path fill-rule="evenodd" clip-rule="evenodd" d="M7.16645 18.0841C6.65801 18.0841 6.24414 17.6706 6.24414 17.1622C6.24414 16.6537 6.65801 16.2402 7.16645 16.2402C7.67489 16.2402 8.08836 16.6537 8.08836 17.1622C8.08836 17.6706 7.67489 18.0841 7.16645 18.0841ZM7.16645 16.7088C6.91633 16.7088 6.71311 16.912 6.71311 17.1622C6.71311 17.4119 6.91633 17.6155 7.16645 17.6155C7.41617 17.6155 7.61939 17.4119 7.61939 17.1622C7.61939 16.912 7.41617 16.7088 7.16645 16.7088Z" fill="#BF9F65"/>
<path fill-rule="evenodd" clip-rule="evenodd" d="M13.0743 18.0841C12.5658 18.0841 12.1523 17.6706 12.1523 17.1622C12.1523 16.6537 12.5658 16.2402 13.0743 16.2402C13.5827 16.2402 13.9962 16.6537 13.9962 17.1622C13.9962 17.6706 13.5827 18.0841 13.0743 18.0841ZM13.0743 16.7088C12.8245 16.7088 12.6209 16.912 12.6209 17.1622C12.6209 17.4119 12.8245 17.6155 13.0743 17.6155C13.3244 17.6155 13.5276 17.4119 13.5276 17.1622C13.5276 16.912 13.3244 16.7088 13.0743 16.7088Z" fill="#BF9F65"/>
<path fill-rule="evenodd" clip-rule="evenodd" d="M10.1211 18.0841C9.61269 18.0841 9.19922 17.6706 9.19922 17.1622C9.19922 16.6537 9.61269 16.2402 10.1211 16.2402C10.6296 16.2402 11.0431 16.6537 11.0431 17.1622C11.0431 17.6706 10.6296 18.0841 10.1211 18.0841ZM10.1211 16.7088C9.87102 16.7088 9.6678 16.912 9.6678 17.1622C9.6678 17.4119 9.87102 17.6155 10.1211 17.6155C10.3709 17.6155 10.5745 17.4119 10.5745 17.1622C10.5745 16.912 10.3709 16.7088 10.1211 16.7088Z" fill="#BF9F65"/>
<path fill-rule="evenodd" clip-rule="evenodd" d="M10.1212 16.5702C9.99185 16.5702 9.88672 16.4655 9.88672 16.3361V15.3864C9.88672 15.2571 9.99185 15.1523 10.1212 15.1523C10.2506 15.1523 10.3557 15.2571 10.3557 15.3864V16.3361C10.3557 16.4655 10.2506 16.5702 10.1212 16.5702Z" fill="#BF9F65"/>
<path fill-rule="evenodd" clip-rule="evenodd" d="M12.4433 10.8409H7.79462C7.22912 10.8409 6.76953 10.3809 6.76953 9.81582V3.76571C6.76953 3.20022 7.22912 2.74023 7.79462 2.74023H12.4433C13.0084 2.74023 13.4684 3.20022 13.4684 3.76571V9.81582C13.4684 10.3809 13.0084 10.8409 12.4433 10.8409ZM7.79462 3.2092C7.48784 3.2092 7.23811 3.45893 7.23811 3.76571V9.81582C7.23811 10.1226 7.48784 10.3719 7.79462 10.3719H12.4433C12.7501 10.3719 12.9994 10.1226 12.9994 9.81582V3.76571C12.9994 3.45893 12.7501 3.2092 12.4433 3.2092H7.79462Z" fill="#BF9F65"/>
<path fill-rule="evenodd" clip-rule="evenodd" d="M13.8178 12.4147H6.4214C6.06615 12.4147 5.77734 12.1259 5.77734 11.7707V9.95264C5.77734 9.5974 6.06615 9.30859 6.4214 9.30859H7.00448C7.13384 9.30859 7.23897 9.41372 7.23897 9.54308V9.81586C7.23897 10.1226 7.48869 10.3724 7.79548 10.3724H12.4437C12.7505 10.3724 13.0003 10.1226 13.0003 9.81586V9.54308C13.0003 9.41372 13.1054 9.30859 13.2347 9.30859H13.8178C14.1731 9.30859 14.4619 9.5974 14.4619 9.95264V11.7707C14.4619 12.1259 14.1731 12.4147 13.8178 12.4147ZM6.4214 9.77717C6.32448 9.77717 6.24592 9.85612 6.24592 9.95264V11.7707C6.24592 11.8676 6.32448 11.9462 6.4214 11.9462H13.8178C13.9148 11.9462 13.9933 11.8676 13.9933 11.7707V9.95264C13.9933 9.85572 13.9148 9.77717 13.8178 9.77717H13.4688V9.81586C13.4688 10.3814 13.0092 10.8413 12.4437 10.8413H7.79548C7.22998 10.8413 6.77039 10.3814 6.77039 9.81586V9.77717H6.4214Z" fill="#BF9F65"/>
<path fill-rule="evenodd" clip-rule="evenodd" d="M19.5126 10.2711H14.2273C14.098 10.2711 13.9928 10.166 13.9928 10.0366V9.9522C13.9928 9.85567 13.9143 9.77673 13.8174 9.77673H13.2343C13.1049 9.77673 12.9998 9.67199 12.9998 9.54263V7.9962C12.9998 7.86685 13.1049 7.76172 13.2343 7.76172H19.5126C19.8471 7.76172 20.1191 8.03372 20.1191 8.36825V9.66456C20.1191 9.9991 19.8471 10.2711 19.5126 10.2711ZM14.4438 9.80252H19.5126C19.5872 9.80252 19.6502 9.73921 19.6502 9.66456V8.36825C19.6502 8.29361 19.5872 8.23069 19.5126 8.23069H13.4688V9.30815H13.8174C14.121 9.30815 14.3762 9.51918 14.4438 9.80252ZM6.01097 10.2711H0.725675C0.391143 10.2711 0.119141 9.9991 0.119141 9.66456V8.36786C0.119141 8.03372 0.391143 7.76172 0.725675 7.76172H7.00401C7.13337 7.76172 7.23849 7.86646 7.23849 7.9962V9.54263C7.23849 9.67199 7.13337 9.77673 7.00401 9.77673H6.42092C6.324 9.77673 6.24545 9.85567 6.24545 9.9522V10.0366C6.24545 10.166 6.14071 10.2711 6.01097 10.2711ZM0.725675 8.2303C0.651031 8.2303 0.58811 8.29361 0.58811 8.36786V9.66456C0.58811 9.73921 0.651031 9.80213 0.725675 9.80213H5.79446C5.86207 9.51918 6.11726 9.30815 6.42092 9.30815H6.76991V8.2303H0.725675Z" fill="#BF9F65"/>
<path fill-rule="evenodd" clip-rule="evenodd" d="M19.5116 18.0838H18.1602C18.0309 18.0838 17.9261 17.979 17.9261 17.8497V11.6221H14.2264C14.097 11.6221 13.9919 11.517 13.9919 11.3877V10.0362C13.9919 9.90689 14.097 9.80176 14.2264 9.80176H19.5116C19.641 9.80176 19.7461 9.90689 19.7461 10.0362V17.8497C19.7461 17.979 19.641 18.0838 19.5116 18.0838ZM18.3947 17.6152H19.2772V10.2707H14.4605V11.1532H18.1602C18.2896 11.1532 18.3947 11.2583 18.3947 11.3877V17.6152ZM2.07613 18.0838H0.724719C0.595362 18.0838 0.490234 17.979 0.490234 17.8497V10.0362C0.490234 9.90689 0.595362 9.80176 0.724719 9.80176H6.01001C6.13976 9.80176 6.24449 9.90689 6.24449 10.0362V11.3877C6.24449 11.517 6.13976 11.6221 6.01001 11.6221H2.31062V17.8497C2.31062 17.979 2.20549 18.0838 2.07613 18.0838ZM0.959204 17.6152H1.84165V11.3877C1.84165 11.2583 1.94678 11.1532 2.07613 11.1532H5.77591V10.2707H0.959204V17.6152Z" fill="#BF9F65"/>
</svg>
