<svg width="25" height="20" viewBox="0 0 25 20" fill="none" xmlns="http://www.w3.org/2000/svg">
<path d="M24.5202 14.8594C24.4842 14.7062 24.4006 14.5773 24.288 14.5016L21.097 12.3526C21.2495 12.3332 21.4019 12.3047 21.5537 12.2667C22.7215 11.974 23.7496 11.1495 24.4486 9.94483C24.5542 9.76285 24.5691 9.52232 24.4872 9.32216C24.4053 9.12206 24.2405 8.99605 24.0604 8.99605L22.402 8.99593L22.1036 7.27664C22.0635 7.04604 21.9186 6.86633 21.7335 6.81795C21.5484 6.76951 21.3578 6.86143 21.2469 7.05256C20.5748 8.21101 19.7659 9.19908 18.8361 9.99955V8.19307C18.8361 3.6754 15.8905 0 12.2699 0C8.64921 0 5.7036 3.6754 5.7036 8.19307V10.8299L0.251689 14.5015C0.0585354 14.6316 -0.0390957 14.9087 0.0146326 15.1742C0.0249373 15.225 0.0402746 15.2728 0.0598775 15.317C0.91512 17.2478 2.30261 18.7216 3.9668 19.4667C4.76151 19.8225 5.59188 19.9999 6.422 19.9999C7.33021 19.9999 8.23798 19.7873 9.09687 19.3632L10.0028 18.9158C10.8233 18.5107 11.742 18.1267 12.3821 17.8708C12.6689 18.0002 12.9548 18.1346 13.2393 18.2751L15.4428 19.3632C16.3019 19.7874 17.2094 20 18.1177 20C18.9477 20 19.7782 19.8224 20.5729 19.4667C22.2371 18.7216 23.6246 17.2479 24.4798 15.317C24.5417 15.1773 24.5563 15.0125 24.5202 14.8594ZM21.3804 8.7609L21.547 9.72051C21.5948 9.9956 21.7898 10.1919 22.0154 10.1919L22.9354 10.192C21.9474 11.1451 20.6199 11.4357 19.4279 10.9433C20.1477 10.3167 20.8005 9.58697 21.3804 8.7609ZM12.2699 1.19601C15.2488 1.19601 17.6923 4.10945 17.8671 7.77265H6.67258C6.84742 4.10951 9.29088 1.19601 12.2699 1.19601ZM9.65001 17.8037L8.74411 18.251C6.06776 19.5726 3.03511 18.4421 1.35702 15.6258L2.10678 15.6259C5.09322 15.6261 8.02959 16.1688 10.8665 17.242C10.4662 17.4166 10.0476 17.6074 9.65001 17.8037ZM15.7956 18.2511L13.5921 17.163C10.003 15.3907 6.23024 14.4721 2.37412 14.4313L6.30477 11.7841H10.1131C10.3778 11.7841 10.5923 11.5164 10.5923 11.1861C10.5923 10.8558 10.3778 10.5881 10.1131 10.5881H6.66218V8.96872H17.8775V10.5881H14.4267C14.1619 10.5881 13.9474 10.8558 13.9474 11.1861C13.9474 11.5164 14.1619 11.7841 14.4267 11.7841H18.2349L23.3904 15.2562C21.7645 18.3412 18.5862 19.6292 15.7956 18.2511Z" fill="#E42E3B"/>
<path d="M12.2703 10.5889C12.1443 10.5889 12.0206 10.6523 11.9314 10.7635C11.8423 10.8753 11.791 11.029 11.791 11.1869C11.791 11.3442 11.8423 11.4979 11.9314 11.6097C12.0206 11.7209 12.1443 11.7849 12.2703 11.7849C12.3964 11.7849 12.52 11.7209 12.6092 11.6097C12.6983 11.4979 12.7496 11.3442 12.7496 11.1869C12.7496 11.029 12.6983 10.8753 12.6092 10.7635C12.52 10.6522 12.3964 10.5889 12.2703 10.5889Z" fill="#E42E3B"/>
</svg>
