<svg width="20" height="20" viewBox="0 0 20 20" fill="none" xmlns="http://www.w3.org/2000/svg">
<g clip-path="url(#clip0_2866_10846)">
<path d="M20 9.46393C20 6.87833 18.9931 4.44751 17.1649 2.61928C17.0506 2.50507 16.8654 2.50507 16.7512 2.61928L6.5406 12.8298C5.78136 12.4289 5.08749 12.5452 4.29154 12.6846C3.93031 11.3812 3.02456 10.8764 2.97682 10.8507C2.83457 10.7741 2.65717 10.8274 2.58056 10.9696C2.50396 11.1119 2.55716 11.2893 2.69945 11.3659C2.70792 11.3704 3.3219 11.7132 3.65076 12.606C2.70507 12.3713 1.69736 12.6956 1.02296 13.3866C0.0965364 10.0082 1.21053 4.93968 5.52388 4.94569C7.44272 4.94569 9.13677 6.20849 9.76948 8.00161C9.82315 8.15397 9.99032 8.23401 10.1426 8.18026C10.295 8.12655 10.375 7.95949 10.3212 7.80713C9.95081 6.75531 9.27535 5.84699 8.3471 5.22239C8.43022 4.78838 8.60773 4.37406 8.86599 4.01474L9.25168 3.47806C9.62207 2.96257 9.04975 2.2465 8.46037 2.51517L7.54175 2.93448C7.52163 2.14918 7.72122 1.54577 8.19732 0.92094C8.34207 0.719477 8.33353 0.455331 8.17602 0.263697C8.01852 0.0719852 7.761 0.0125408 7.53532 0.115398C6.71726 0.488798 5.92821 0.820306 5.48959 1.67211C5.05429 0.826742 4.25772 0.486848 3.44387 0.115398C3.21823 0.0123458 2.96067 0.0720252 2.80321 0.263658C2.6457 0.455331 2.63712 0.719438 2.78187 0.92094C3.25559 1.54635 3.4594 2.1477 3.43748 2.93448L2.51878 2.51517C1.94138 2.25169 1.34955 2.952 1.72751 3.47806L2.1132 4.01474C2.37497 4.37897 2.55361 4.79941 2.63529 5.23983C-0.0463801 7.06392 -0.336191 11.1237 0.583442 13.9576C-0.153411 15.1756 -0.186956 17.0184 0.452423 18.2794C0.525519 18.4235 0.701551 18.4811 0.845637 18.4081C0.989724 18.335 1.04733 18.159 0.974278 18.0149C0.267537 16.6207 0.479025 14.2554 1.93916 13.4056C2.57826 13.0336 3.1385 13.1188 3.81322 13.2538C3.8388 13.4282 3.85382 13.6158 3.85382 13.819C3.85382 13.9806 3.98476 14.1115 4.14636 14.1115C4.30796 14.1115 4.4389 13.9806 4.4389 13.819C4.4389 13.6205 4.42685 13.4339 4.4052 13.2583C5.09455 13.1315 5.67503 13.0067 6.33321 13.3826C8.18488 14.4399 8.18819 18.0377 6.32646 19.0763C5.81455 19.3619 5.15961 19.4389 4.60444 19.2331C4.2883 19.1316 3.9541 19.1316 3.63796 19.2331C3.01914 19.4321 2.37235 19.3396 1.81695 18.9728C1.68215 18.8838 1.50066 18.9209 1.41165 19.0557C1.3226 19.1905 1.35969 19.372 1.49453 19.461C2.19066 19.9208 3.0372 20.0408 3.817 19.7902C4.01597 19.7262 4.22636 19.7262 4.42541 19.7902C5.14849 20.035 5.94456 19.9594 6.61151 19.5873C6.84001 19.4598 7.05005 19.3007 7.23755 19.1158C7.91714 19.6453 8.75272 19.9349 9.62125 19.9349C10.6045 19.9349 11.5034 19.5672 12.1882 18.9624C14.0777 18.5926 15.7971 17.6765 17.1649 16.3087C18.9931 14.4804 20 12.0496 20 9.46393ZM2.58833 3.67329L2.20264 3.13661C2.1813 3.06932 2.20572 3.0396 2.27585 3.04748C2.71342 3.24719 3.16748 3.42759 3.59147 3.65542C3.68216 3.70422 3.79176 3.70172 3.88007 3.64887C3.96846 3.59606 4.02252 3.50069 4.02252 3.39775C4.02252 2.39398 3.99522 1.56672 3.35724 0.719048C4.30753 1.15283 5.19702 1.67441 5.19702 2.87648C5.19702 3.03808 5.32796 3.16902 5.48956 3.16902C5.65116 3.16902 5.7821 3.03808 5.7821 2.87648C5.7821 1.68065 6.6717 1.15283 7.62183 0.719087C6.98394 1.56675 6.95663 2.39398 6.95663 3.39775C6.95663 3.50073 7.01077 3.59606 7.09912 3.64887C7.18751 3.70164 7.29707 3.70414 7.38776 3.65534C7.81167 3.42736 8.26558 3.24719 8.70322 3.04744C8.77335 3.03956 8.79777 3.06929 8.77647 3.13657L8.39086 3.67329C8.12348 4.0454 7.92888 4.46705 7.81741 4.9105C7.10977 4.5497 6.32876 4.3606 5.52392 4.3606C4.70597 4.35405 3.89205 4.54947 3.16526 4.92447C3.05436 4.47586 2.85863 4.04942 2.58833 3.67329ZM7.6127 18.6665C8.57411 17.2739 8.52965 14.9019 7.4465 13.5761C8.04789 13.046 8.81006 12.7562 9.62129 12.7562C11.4391 12.7562 12.9181 14.2351 12.9181 16.0529C12.9181 17.8707 11.4391 19.3497 9.62129 19.3497C8.89041 19.3497 8.18694 19.1084 7.6127 18.6665ZM12.8533 18.2006C13.0904 17.8449 13.2706 17.4482 13.3803 17.0234C14.3947 16.6136 15.3045 16.011 16.0859 15.2296C17.2285 14.0869 17.9994 12.6488 18.3151 11.0709C18.3468 10.9124 18.244 10.7583 18.0856 10.7266C17.9271 10.6948 17.7731 10.7976 17.7413 10.9561C17.4484 12.4205 16.7329 13.7552 15.6721 14.8159C15.033 15.4551 14.3013 15.9651 13.4927 16.3376C13.654 14.1219 11.8441 12.1711 9.62129 12.1711C8.6733 12.1711 7.78179 12.5065 7.07622 13.1217L15.8751 4.32277C17.1973 5.7483 17.9103 7.5926 17.8886 9.54834C17.8868 9.7099 18.0163 9.84232 18.1779 9.84411C18.3392 9.84567 18.4718 9.71637 18.4736 9.55481C18.497 7.44036 17.7229 5.44718 16.2887 3.90919L16.9548 3.24306C18.5436 4.93472 19.4149 7.1323 19.4149 9.46393C19.4149 11.8933 18.4689 14.1772 16.7512 15.8948C15.6563 16.9897 14.3219 17.7767 12.8533 18.2006Z" fill="#147D77"/>
<path d="M14.0033 12.7341C13.889 12.6199 13.7038 12.6199 13.5896 12.7341C13.4753 12.8484 13.4753 13.0336 13.5896 13.1478L14.0314 13.5896C14.0885 13.6467 14.1634 13.6753 14.2383 13.6753C14.3131 13.6753 14.388 13.6467 14.4451 13.5896C14.5594 13.4753 14.5594 13.2901 14.4451 13.1759L14.0033 12.7341Z" fill="#147D77"/>
<path d="M15.5846 11.3085L15.0152 11.0547C14.8676 10.9889 14.6947 11.0553 14.6289 11.2029C14.5632 11.3505 14.6295 11.5234 14.7771 11.5891L15.3465 11.8429C15.3852 11.8601 15.4256 11.8683 15.4654 11.8683C15.5774 11.8683 15.6842 11.8036 15.7328 11.6947C15.7985 11.5471 15.7322 11.3742 15.5846 11.3085Z" fill="#147D77"/>
<path d="M15.9577 9.14277L15.3384 9.11172C15.3334 9.11144 15.3285 9.11133 15.3235 9.11133C15.1687 9.11133 15.0394 9.23283 15.0316 9.3892C15.0235 9.55061 15.1478 9.68795 15.3091 9.69602L15.9284 9.72707C15.9334 9.72734 15.9383 9.72746 15.9433 9.72746C16.0981 9.72746 16.2274 9.60596 16.2352 9.44958C16.2433 9.28822 16.119 9.15084 15.9577 9.14277Z" fill="#147D77"/>
<path d="M15.025 7.74309C15.0558 7.74309 15.0872 7.73818 15.118 7.72784L15.7024 7.53191C15.8557 7.48054 15.9382 7.31473 15.8869 7.16156C15.8355 7.00834 15.6696 6.92585 15.5165 6.97714L14.9321 7.17306C14.7789 7.22443 14.6963 7.39025 14.7477 7.54342C14.7887 7.66578 14.9027 7.74309 15.025 7.74309Z" fill="#147D77"/>
<path d="M5.48987 8.51962C5.56472 8.51962 5.63961 8.49107 5.69671 8.43396L6.34128 7.78944C6.45556 7.67519 6.45556 7.48995 6.34132 7.37574C6.22707 7.26154 6.04183 7.26146 5.92763 7.3757L5.48987 7.81342L5.05211 7.3757C4.9379 7.2615 4.75266 7.26146 4.63841 7.37574C4.52417 7.48999 4.52417 7.67523 4.63845 7.78944L5.28302 8.43396C5.34012 8.49103 5.41501 8.51962 5.48987 8.51962Z" fill="#147D77"/>
<path d="M8.12854 8.51962C8.20339 8.51962 8.27828 8.49107 8.33538 8.43396L8.97995 7.78944C9.09424 7.67519 9.09424 7.48995 8.97999 7.37574C8.8657 7.2615 8.68047 7.26146 8.5663 7.3757L8.12854 7.81342L7.69078 7.3757C7.57657 7.2615 7.39133 7.26146 7.27709 7.37574C7.16284 7.48999 7.16284 7.67523 7.27713 7.78944L7.92169 8.43396C7.9788 8.49103 8.05369 8.51962 8.12854 8.51962Z" fill="#147D77"/>
<path d="M4.59552 9.22238L4.1578 9.66014L3.72011 9.22242C3.60583 9.10818 3.42059 9.10814 3.30642 9.22238C3.19214 9.33663 3.19214 9.52187 3.30638 9.63608L3.95091 10.2806C4.00579 10.3355 4.08017 10.3663 4.1578 10.3663C4.23542 10.3663 4.30976 10.3355 4.36468 10.2807L5.00925 9.63612C5.12349 9.52183 5.12349 9.33663 5.00925 9.22238C4.895 9.10818 4.7098 9.10818 4.59552 9.22238Z" fill="#147D77"/>
<path d="M6.58958 10.2816C6.64446 10.3365 6.71885 10.3673 6.79647 10.3673C6.87409 10.3673 6.94843 10.3365 7.00335 10.2817L7.64792 9.63709C7.76217 9.52281 7.76217 9.33761 7.64792 9.22336C7.53363 9.10915 7.34843 9.10915 7.23419 9.22336L6.79647 9.66112L6.35879 9.2234C6.24454 9.10915 6.0593 9.10911 5.94509 9.22336C5.83081 9.33761 5.83081 9.52285 5.94506 9.63705L6.58958 10.2816Z" fill="#147D77"/>
<path d="M10.275 14.2872C10.4365 14.2872 10.5675 14.1563 10.5675 13.9947C10.5675 13.8331 10.4365 13.7021 10.275 13.7021C10.1134 13.7021 9.98242 13.8331 9.98242 13.9947C9.98242 14.1563 10.1134 14.2872 10.275 14.2872Z" fill="#147D77"/>
</g>
<defs>
<clipPath id="clip0_2866_10846">
<rect width="20" height="20" fill="white"/>
</clipPath>
</defs>
</svg>
