<svg width="21" height="20" viewBox="0 0 21 20" fill="none" xmlns="http://www.w3.org/2000/svg">
<path d="M20.8544 8.69881L19.1297 6.68438L19.4485 6.0354C20.3378 4.22491 19.5883 2.02853 17.7779 1.13919C16.901 0.708387 15.9086 0.644889 14.9838 0.960469C14.059 1.276 13.3125 1.9328 12.8817 2.80982L12.5629 3.4588L11.9595 3.42835L11.9807 2.85527C11.9828 2.79855 11.9636 2.74314 11.9269 2.69987C11.3872 2.06384 11.0887 1.16433 11.1078 0.231947C11.109 0.170858 11.0857 0.11186 11.0429 0.0682251C11.0001 0.0245901 10.9416 0 10.8806 0H9.67416C9.55902 0 9.46203 0.0861336 9.44848 0.200494C9.37276 0.838564 8.83028 1.31973 8.18666 1.31973C7.54304 1.31973 7.00056 0.838564 6.92484 0.200494C6.91129 0.0861336 6.81429 0 6.69916 0H5.49275C5.43166 0 5.37316 0.0245901 5.33043 0.0682251C5.28771 0.11186 5.2643 0.170858 5.26553 0.231947C5.28462 1.16428 4.98612 2.0638 4.44651 2.69987C4.40978 2.74314 4.3906 2.79855 4.39269 2.85527L4.43537 4.01201L3.80839 4.10187C3.31536 4.17255 2.9231 4.43786 2.67411 4.86921L0.209732 9.13762C0.00101117 9.49911 -0.0541689 9.92109 0.0542822 10.3259C0.162779 10.7307 0.421589 11.0686 0.783077 11.2773L4.06965 13.1748L3.45795 17.4351C3.44858 17.5004 3.46799 17.5665 3.51117 17.6163C3.55431 17.6661 3.61699 17.6947 3.68289 17.6947H10.6629L10.5221 18.7399C10.4781 19.0672 10.5697 19.3715 10.787 19.62C11.0043 19.8686 11.2937 20 11.624 20H19.3249C19.6552 20 19.9446 19.8686 20.1619 19.62C20.3793 19.3714 20.4709 19.0671 20.4268 18.7399L19.7148 13.4525C19.6396 12.8943 19.1762 12.4891 18.613 12.4891H17.7078V11.9612C17.7078 10.7297 16.7059 9.72787 15.4745 9.72787C14.243 9.72787 13.2411 10.7297 13.2411 11.9612V12.4891H12.3359C12.2919 12.4891 12.2488 12.4925 12.2062 12.4973L11.7437 9.27493L11.8609 6.10003C12.6785 6.44084 13.6554 6.63402 14.6935 6.8391C14.7162 6.8436 14.7391 6.8481 14.7619 6.85265C16.1812 8.55641 17.6391 9.4127 19.1149 9.4127C19.6645 9.4127 20.2169 9.29384 20.7703 9.05594C20.7706 9.05585 20.7708 9.05576 20.7711 9.05562C20.7713 9.05553 20.7715 9.05544 20.7718 9.05535V9.05526C20.7996 9.04326 20.8255 9.02567 20.8475 9.0023C20.9268 8.91781 20.9299 8.78695 20.8544 8.69881ZM18.756 6.4143L13.0051 3.58943L13.1895 3.21408L18.9404 6.0389L18.756 6.4143ZM15.1306 1.39059C15.9405 1.11428 16.8095 1.16987 17.5775 1.54713C19.0944 2.2922 19.7598 4.08487 19.1327 5.62705L13.3978 2.81005C13.7855 2.14252 14.3929 1.64231 15.1306 1.39059ZM0.493495 10.2082C0.416452 9.92064 0.455542 9.6211 0.603537 9.36479L3.06791 5.09638C3.24468 4.79021 3.52313 4.60185 3.87302 4.55172L6.47831 4.17828C6.53426 4.17023 6.58976 4.16632 6.64453 4.16632C7.09565 4.16632 7.49468 4.43268 7.66809 4.86516L8.64728 7.30813C8.77882 7.6363 8.75491 7.97156 8.57815 8.27769L6.11382 12.5461C5.96582 12.8025 5.72597 12.986 5.43843 13.0631C5.15089 13.1401 4.85136 13.101 4.59505 12.953L1.01057 10.8836C0.754214 10.7356 0.570584 10.4957 0.493495 10.2082ZM13.6958 11.961C13.6958 10.9802 14.4938 10.1823 15.4747 10.1823C16.4554 10.1823 17.2534 10.9802 17.2534 11.961V12.489H13.6958V11.961ZM13.2413 12.9435V14.2727C13.2413 14.3982 13.343 14.4999 13.4686 14.4999C13.5941 14.4999 13.6958 14.3982 13.6958 14.2727V12.9435H17.2534V14.2727C17.2534 14.3982 17.3551 14.4999 17.4807 14.4999C17.6062 14.4999 17.7079 14.3982 17.7079 14.2727V12.9435H18.6131C18.9461 12.9435 19.2201 13.1831 19.2646 13.5131L19.9765 18.8004C20.0029 18.9966 19.9503 19.1717 19.82 19.3207C19.6896 19.4697 19.5231 19.5453 19.3251 19.5453H11.6241C11.4262 19.5453 11.2597 19.4697 11.1293 19.3207C10.999 19.1717 10.9463 18.9966 10.9728 18.8004L11.6847 13.5131C11.7292 13.183 12.0031 12.9435 12.3361 12.9435H13.2413ZM11.768 12.6422C11.4839 12.8092 11.2817 13.1002 11.2343 13.4524L10.7243 17.24H3.94534L4.495 13.4118C4.701 13.5072 4.92231 13.5564 5.14657 13.5564C5.28302 13.5564 5.42048 13.5384 5.55602 13.5021C5.96082 13.3937 6.29872 13.1349 6.50744 12.7734L8.38906 9.51424H11.3189L11.768 12.6422ZM11.2968 9.05971H8.65151L8.97177 8.505C9.22081 8.0737 9.25449 7.60135 9.06918 7.139L8.08998 4.69603C7.82035 4.02342 7.13092 3.62552 6.41385 3.72829L4.88799 3.94701L4.85027 2.92473C5.38052 2.26529 5.69065 1.38023 5.71897 0.454395H6.50949C6.6933 1.21937 7.38178 1.77413 8.1868 1.77413C8.99182 1.77413 9.68029 1.21937 9.86411 0.454395H10.6546C10.6829 1.38027 10.9931 2.26538 11.5234 2.92477L11.5056 3.4053L9.91442 3.32499C9.84402 3.32153 9.77525 3.35108 9.72947 3.40521C9.6837 3.45934 9.66579 3.53171 9.68107 3.60093C9.93401 4.74785 10.5596 5.43292 11.414 5.88931L11.2968 9.05971ZM10.2019 3.79461L12.6427 3.91783L18.7176 6.90178L19.5281 7.84843C17.949 7.01887 16.2867 6.69051 14.7815 6.39316C12.5491 5.95213 10.7626 5.59923 10.2019 3.79461ZM15.4947 7.00032C17.0405 7.3219 18.6991 7.75812 20.2034 8.78304C18.6121 9.29311 17.0637 8.70681 15.4947 7.00032ZM6.07395 6.25248C6.20559 6.32848 6.34949 6.36462 6.49158 6.36462C6.78152 6.36462 7.06383 6.21426 7.21892 5.94567C7.45 5.54537 7.31237 5.03175 6.91211 4.80071C6.5118 4.56958 5.99823 4.70726 5.76715 5.10752C5.65519 5.30142 5.62547 5.52728 5.68342 5.74359C5.74133 5.95976 5.88005 6.14049 6.07395 6.25248ZM6.16077 5.33474C6.212 5.24597 6.29472 5.18247 6.39372 5.15597C6.42681 5.14711 6.46031 5.14275 6.49362 5.14275C6.56012 5.14275 6.62571 5.1602 6.68484 5.19433C6.86806 5.3001 6.93106 5.53523 6.82529 5.71841C6.71952 5.90159 6.4843 5.96454 6.30122 5.85886C6.21245 5.80763 6.14895 5.72486 6.12241 5.62587C6.09591 5.52687 6.1095 5.42346 6.16077 5.33474ZM6.06636 8.44196L2.97855 10.2247C2.94278 10.2454 2.90369 10.2552 2.86515 10.2552C2.78656 10.2552 2.7102 10.2144 2.66811 10.1415C2.60534 10.0328 2.64256 9.89387 2.75129 9.8311L5.8391 8.04833C5.94782 7.98552 6.08682 8.02284 6.14954 8.13151C6.21231 8.24019 6.17504 8.37919 6.06636 8.44196ZM5.78219 11.0364C6.02886 10.6091 5.88191 10.0609 5.4547 9.81419C5.02753 9.56761 4.47923 9.71446 4.23247 10.1417C3.98579 10.5689 4.13274 11.1172 4.55996 11.3639C4.7005 11.445 4.85413 11.4835 5.00581 11.4835C5.31525 11.4835 5.61661 11.323 5.78219 11.0364ZM4.78722 10.9702C4.577 10.8489 4.50473 10.5792 4.62609 10.3689C4.70754 10.2279 4.85581 10.1489 5.00808 10.1489C5.08271 10.1489 5.1583 10.1679 5.22739 10.2078C5.43756 10.3291 5.50988 10.5989 5.38852 10.8091C5.26721 11.0193 4.9974 11.0916 4.78722 10.9702ZM3.36295 8.45887C3.50081 8.53846 3.6538 8.57914 3.80889 8.57914C3.88657 8.57914 3.96484 8.56891 4.04193 8.54827C4.27274 8.48641 4.46569 8.33837 4.58518 8.13142C4.83186 7.70421 4.68491 7.15591 4.25769 6.90924C4.05065 6.78974 3.80957 6.75806 3.57876 6.81987C3.3479 6.88174 3.155 7.02978 3.03551 7.23672C2.91601 7.44367 2.88424 7.6848 2.9461 7.91566C3.00796 8.14642 3.15596 8.33937 3.36295 8.45887ZM3.42913 7.46394C3.4879 7.36213 3.58285 7.28927 3.69639 7.25886C3.73435 7.24868 3.77285 7.24368 3.81103 7.24368C3.8873 7.24368 3.96257 7.26368 4.03038 7.30286C4.24056 7.42422 4.31287 7.69398 4.19151 7.90416C4.13274 8.00597 4.03779 8.07883 3.9242 8.10929C3.81075 8.13965 3.69203 8.12415 3.59017 8.06529C3.48835 8.00652 3.41549 7.91161 3.38509 7.79802C3.35472 7.68439 3.37031 7.56576 3.42913 7.46394Z" fill="#147D77"/>
</svg>
