<svg width="14" height="15" viewBox="0 0 14 15" fill="none" xmlns="http://www.w3.org/2000/svg">
<path d="M7 0.75C7.51042 0.75 7.96615 0.877604 8.36719 1.13281C8.76823 1.38802 9.08724 1.72526 9.32422 2.14453C9.77995 1.9987 10.2357 1.98047 10.6914 2.08984C11.1471 2.19922 11.5664 2.4362 11.9492 2.80078C12.2956 3.16536 12.5234 3.57552 12.6328 4.03125C12.7422 4.50521 12.7331 4.97005 12.6055 5.42578C13.0247 5.66276 13.362 5.98177 13.6172 6.38281C13.8724 6.78385 14 7.23958 14 7.75C14 8.26042 13.8724 8.71615 13.6172 9.11719C13.362 9.51823 13.0247 9.83724 12.6055 10.0742C12.8789 11.0221 12.6602 11.8971 11.9492 12.6992C11.5664 13.0456 11.1471 13.2734 10.6914 13.3828C10.2357 13.4922 9.77995 13.4831 9.32422 13.3555C9.08724 13.7747 8.76823 14.112 8.36719 14.3672C7.96615 14.6224 7.51042 14.75 7 14.75C6.48958 14.75 6.03385 14.6224 5.63281 14.3672C5.23177 14.112 4.91276 13.7747 4.67578 13.3555C4.22005 13.4831 3.75521 13.4922 3.28125 13.3828C2.82552 13.2917 2.41536 13.0638 2.05078 12.6992C1.33984 11.8971 1.12109 11.0221 1.39453 10.0742C0.97526 9.83724 0.638021 9.51823 0.382812 9.11719C0.127604 8.71615 0 8.26042 0 7.75C0 7.23958 0.127604 6.78385 0.382812 6.38281C0.638021 5.98177 0.97526 5.66276 1.39453 5.42578C1.2487 4.97005 1.23047 4.50521 1.33984 4.03125C1.44922 3.57552 1.6862 3.16536 2.05078 2.80078C2.41536 2.4362 2.82552 2.19922 3.28125 2.08984C3.75521 1.9987 4.22005 2.01693 4.67578 2.14453C4.91276 1.72526 5.23177 1.38802 5.63281 1.13281C6.03385 0.877604 6.48958 0.75 7 0.75ZM9.625 6.875C9.89844 6.58333 9.89844 6.28255 9.625 5.97266C9.33333 5.71745 9.03255 5.71745 8.72266 5.97266L6.125 8.57031L5.03125 7.50391C4.73958 7.2487 4.4388 7.2487 4.12891 7.50391C3.8737 7.8138 3.8737 8.11458 4.12891 8.40625L5.66016 9.9375C5.97005 10.2109 6.27083 10.2109 6.5625 9.9375L9.625 6.875Z" fill="#0077FF"/>
</svg>
