<svg width="48" height="47" viewBox="0 0 48 47" fill="none" xmlns="http://www.w3.org/2000/svg">
<path d="M16.4478 15.9372C16.5976 16.0394 16.7734 16.0934 16.9563 16.0934H16.9585C17.458 16.0934 17.8644 15.6872 17.8644 15.188C17.8644 15.1013 17.8522 15.0159 17.8283 14.9332C17.3068 12.6492 17.5539 10.8096 18.5627 9.46552C19.7516 7.88159 20.2781 5.84918 19.9713 4.02904C19.7004 2.41607 18.8332 1.07533 17.4643 0.152574C17.1613 -0.0524028 16.7448 -0.050798 16.4426 0.157097C16.1345 0.369514 15.9899 0.742703 16.0749 1.10991C16.638 3.51303 16.1259 5.0354 14.8416 7.34573C14.0419 8.78421 13.7152 10.4002 13.9218 11.8959C14.1558 13.5874 15.0306 14.9857 16.4478 15.9372Z" fill="#743E26"/>
<path d="M23.8775 15.5503C24.0193 15.6475 24.185 15.6988 24.3567 15.6988H24.3579C24.8278 15.6988 25.2102 15.3163 25.2102 14.8462C25.2102 14.7664 25.1991 14.6875 25.1769 14.6108C24.7814 12.8725 24.9664 11.4773 25.7267 10.4641C26.6786 9.19646 27.1001 7.56773 26.8541 6.10766C26.6357 4.80835 25.937 3.72803 24.834 2.98399C24.55 2.79229 24.1656 2.78937 23.8712 2.98982C23.5845 3.18867 23.447 3.55004 23.5278 3.88472C23.957 5.71536 23.5638 6.88044 22.5788 8.65185C21.9387 9.80308 21.6777 11.0971 21.8436 12.2953C22.0318 13.6582 22.7369 14.7851 23.8775 15.5503Z" fill="#743E26"/>
<path d="M47.2293 21.0396C46.6647 20.3749 45.8574 20.0089 44.9561 20.0089H40.7761C40.8195 19.2923 40.6877 18.3984 40.1768 17.7969C39.799 17.3522 39.2608 17.1172 38.6202 17.1172H2.39099C1.4427 17.1172 0.896336 17.5255 0.605138 17.8681C0.00858976 18.5695 -0.0735468 19.6199 0.0482722 20.3691C1.04617 26.4999 3.202 32.0691 6.11894 36.0508C8.27769 38.9976 10.8069 41.0976 13.6786 42.3401H3.58715C2.33351 42.3401 1.31373 43.3601 1.31373 44.6135C1.31373 45.867 2.33365 46.887 3.58715 46.887H37.1977C38.4513 46.887 39.4712 45.867 39.4712 44.6135C39.4712 43.3601 38.4513 42.3401 37.1977 42.3401H27.1595C29.5244 41.322 31.6497 39.7268 33.5209 37.5623C36.7302 37.2875 39.9534 35.7549 42.6992 33.1764C45.5069 30.54 47.4207 27.1746 47.9503 23.9436C48.0166 23.5393 48.1603 22.1355 47.2293 21.0396ZM37.2357 31.8329C38.4558 29.3309 39.3103 26.7499 39.9074 24.3856H43.356C42.4807 27.193 40.1251 30.1482 37.2357 31.8329Z" fill="#743E26"/>
</svg>
