<svg width="48" height="48" viewBox="0 0 48 48" fill="none" xmlns="http://www.w3.org/2000/svg">
<g clip-path="url(#clip0_1044_19076)">
<path d="M32.9071 32.9791C32.4601 28.6322 30.3541 24.3813 26.9792 21.0064C19.9503 13.9835 9.53157 12.9696 3.75369 18.7564C-2.02719 24.5373 -1.01921 34.9561 6.00664 41.9819C9.38157 45.3569 13.6325 47.4628 17.9794 47.9128C18.5584 47.9698 19.1314 47.9998 19.6923 47.9998C23.4303 47.9998 26.7692 46.6888 29.2291 44.2289C32.0611 41.4 33.3691 37.404 32.9071 32.9791ZM22.6263 36.5461C20.3223 34.7881 17.8294 34.0921 15.1174 33.3511C8.29559 31.4792 4.90867 25.7883 4.11368 19.1164C6.03664 21.4354 7.45561 24.0813 9.81656 26.0223C12.3305 28.0892 15.0964 28.8422 18.1384 29.7242C24.8132 31.6622 28.1132 37.305 28.8752 43.8719C26.7902 41.367 25.2602 38.559 22.6263 36.5461Z" fill="#743E26"/>
<path d="M44.2478 3.75519C38.4699 -2.02869 28.0511 -1.01771 21.0223 6.00514C19.1503 7.8771 17.7163 10.0311 16.6934 12.308C20.0533 12.887 23.3082 14.291 26.1942 16.3999C27.2921 15.7099 28.4891 15.1189 29.8661 14.72C32.905 13.838 35.674 13.088 38.1879 11.018C40.5458 9.07707 41.9648 6.42813 43.8908 4.11218C43.0988 10.784 39.7089 16.4749 32.887 18.3469C31.735 18.6619 30.6311 18.9859 29.5541 19.3699C32.806 22.7958 34.948 26.9687 35.695 31.3096C37.9719 30.2836 40.1289 28.8526 42.0008 26.9807C49.0177 19.9548 50.0286 9.53606 44.2478 3.75519Z" fill="#743E26"/>
</g>
<defs>
<clipPath id="clip0_1044_19076">
<rect width="48" height="48" fill="white"/>
</clipPath>
</defs>
</svg>
