<svg width="31" height="40" viewBox="0 0 31 40" fill="none" xmlns="http://www.w3.org/2000/svg">
<path d="M4.90845 37.6724C5.03894 38.9776 6.21271 40.0002 7.58058 40.0002H23.2232C24.5911 40.0002 25.7648 38.9776 25.8953 37.6724L26.3839 32.7871H4.41992L4.90845 37.6724Z" fill="#743E26"/>
<path d="M27.8768 1.41508C27.4808 0.240656 26.9283 0 26.2208 0H4.58142C3.87388 0 3.32142 0.240656 2.92503 1.41607L1.75781 4.91803H29.0447L27.8768 1.41508Z" fill="#743E26"/>
<path d="M30.4911 5.97979C30.4246 5.78045 30.2938 5.57422 30.1551 5.57422H29.5003H29.4993H29.4984H0.646885C0.496721 5.57422 0.371803 5.77258 0.311475 5.97455L0 7.8693H1.63049H29.1715H30.802L30.4911 5.97979Z" fill="#743E26"/>
<path d="M2.7135 15.7385H28.0873L28.8086 8.52539H1.99219L2.7135 15.7385Z" fill="#743E26"/>
<path d="M3.89408 32.1303H26.9072L28.481 16.3926H2.32031L3.89408 32.1303ZM15.4918 20.3329C17.438 20.3952 19.0072 22.4254 19.0072 24.9172C19.0072 27.1808 17.7121 29.0621 16.016 29.4355C16.3515 28.405 16.7685 26.5063 15.6872 24.7578C14.9459 23.4247 14.8865 21.9739 15.4918 20.3329ZM14.7695 20.4021C14.2174 22.0982 14.3318 23.67 15.1216 25.0896C16.0823 26.6437 15.7183 28.3123 15.3 29.5008C13.358 29.4323 11.7941 27.405 11.7941 24.9172C11.7941 22.6604 13.0813 20.7834 14.7695 20.4021Z" fill="#743E26"/>
</svg>
