<svg width="20" height="20" viewBox="0 0 20 20" fill="none" xmlns="http://www.w3.org/2000/svg">
<path d="M0.783974 20.0001H0.25641C0.114829 20.0001 0 19.8853 0 19.7437C0 19.6021 0.114829 19.4873 0.25641 19.4873H0.783974C0.925556 19.4873 1.04038 19.6021 1.04038 19.7437C1.04038 19.8853 0.925598 20.0001 0.783974 20.0001Z" fill="#BF9F65"/>
<path d="M19.7432 19.4872H17.7416V18.8889C17.7416 18.2762 17.2431 17.7778 16.6305 17.7778H16.015C15.9325 17.1529 15.552 16.6056 14.9801 16.3124C14.601 16.118 14.3655 15.7325 14.3655 15.3064V8.65385H14.686C15.063 8.65385 15.3698 8.34709 15.3698 7.97009V7.0788H16.3849V11.3304C15.9669 11.4435 15.6584 11.8259 15.6584 12.2792C15.6584 12.8212 16.0993 13.2621 16.6413 13.2621C17.1833 13.2621 17.6242 12.8212 17.6242 12.2792C17.6242 11.8259 17.3157 11.4435 16.8977 11.3304V7.0788H17.4903C18.0331 7.0788 18.3558 6.42624 18.019 5.99509C16.7112 4.3206 15.8615 2.32368 15.5617 0.220256C15.5437 0.0938889 15.4355 0 15.3079 0H11.6283C11.5006 0 11.3924 0.0938889 11.3745 0.220214C11.0747 2.32363 10.2249 4.32056 8.9171 5.99504C8.58056 6.42594 8.90313 7.07876 9.44578 7.07876H11.5664V7.97009C11.5664 8.34709 11.8731 8.65385 12.2501 8.65385H13.8527V15.3065C13.8527 15.9258 14.1951 16.4861 14.7461 16.7687C15.1455 16.9735 15.4174 17.3471 15.4956 17.7778H11.4406C11.5187 17.3471 11.7906 16.9735 12.1901 16.7687C12.7412 16.4861 13.0835 15.9258 13.0835 15.3065V9.67949C13.0835 9.53791 12.9687 9.42308 12.8271 9.42308C12.6855 9.42308 12.5707 9.53791 12.5707 9.67949V15.3065C12.5707 15.7325 12.3352 16.1179 11.9561 16.3124C11.3842 16.6056 11.0037 17.1529 10.9212 17.7778H10.3057C9.69308 17.7778 9.19462 18.2763 9.19462 18.8889V19.4872H7.61278C7.72381 19.3144 7.78864 19.1092 7.78864 18.8889V16.0713C7.78864 15.9297 7.67385 15.8149 7.53223 15.8149H6.81013C7.86924 15.0395 8.92202 15.2286 9.05919 15.2993C9.16984 15.38 9.32552 15.3594 9.41125 15.2511C9.49907 15.14 9.48018 14.9787 9.36911 14.8909C9.04573 14.6353 7.39283 14.4417 6.02672 15.815H5.8989C6.25488 14.4941 7.19992 13.4118 8.47654 12.8837C8.6074 12.8296 8.66962 12.6796 8.61548 12.5488C8.56133 12.4179 8.41133 12.3557 8.28052 12.4098C6.94014 12.9642 5.92697 14.0661 5.4809 15.4221V13.2137C6.04163 13.0944 6.46381 12.5924 6.46381 11.9929C6.46381 11.3942 5.9812 10.2493 5.22449 10.2493C4.44727 10.2493 3.98518 11.3406 3.98518 11.9929C3.98518 12.5924 4.40736 13.0944 4.96808 13.2137V15.4221C4.52202 14.0662 3.50885 12.9643 2.16843 12.4098C2.03749 12.3557 1.88761 12.4179 1.83347 12.5488C1.77932 12.6796 1.84155 12.8296 1.9724 12.8837C3.24907 13.4118 4.19411 14.4942 4.55005 15.815H4.42223C3.05616 14.4418 1.40313 14.6353 1.07984 14.8909C0.968725 14.9787 0.949879 15.14 1.0377 15.2511C1.12338 15.3595 1.27902 15.38 1.38975 15.2994C1.52693 15.2286 2.57975 15.0396 3.63881 15.8149H2.9168C2.77518 15.8149 2.66039 15.9297 2.66039 16.0713V18.8889C2.66039 19.1091 2.72522 19.3144 2.83625 19.4872H2.02766C1.88608 19.4872 1.77125 19.602 1.77125 19.7436C1.77125 19.8852 1.88608 20 2.02766 20H19.7432C19.8848 20 19.9996 19.8852 19.9996 19.7436C19.9996 19.602 19.8848 19.4872 19.7432 19.4872ZM17.1114 12.2792C17.1114 12.5384 16.9005 12.7493 16.6413 12.7493C16.3821 12.7493 16.1712 12.5384 16.1712 12.2792C16.1712 12.02 16.3821 11.8091 16.6413 11.8091C16.9005 11.8091 17.1114 12.02 17.1114 12.2792ZM9.44578 6.56598C9.31496 6.56598 9.24078 6.4138 9.32125 6.31073C10.6384 4.62427 11.5098 2.62385 11.8488 0.512821H15.0874C15.4264 2.62385 16.2977 4.62427 17.6149 6.31073C17.6954 6.4138 17.6212 6.56598 17.4904 6.56598H9.44578ZM12.2501 8.14103C12.1559 8.14103 12.0792 8.06436 12.0792 7.97009V7.0788H14.857V7.97009C14.857 8.06436 14.7803 8.14103 14.686 8.14103H12.2501ZM4.498 11.9927C4.498 11.5179 4.89467 10.762 5.22449 10.762C5.67894 10.762 5.95099 11.6333 5.95099 11.9927C5.95099 12.398 5.62509 12.7278 5.22449 12.7278C4.8239 12.7278 4.498 12.3981 4.498 11.9927ZM7.27578 18.8889C7.27578 19.2188 7.0074 19.4872 6.67749 19.4872H3.7715C3.44159 19.4872 3.17321 19.2188 3.17321 18.8889V16.3277H7.27578V18.8889ZM17.2288 19.4872H9.7074V18.8889C9.7074 18.559 9.97578 18.2906 10.3057 18.2906H16.6305C16.9604 18.2906 17.2288 18.559 17.2288 18.8889V19.4872Z" fill="#BF9F65"/>
<path d="M6.75067 7.85376H4.27204C4.13045 7.85376 4.01562 7.73893 4.01562 7.59735V5.11871C4.01562 4.97713 4.13045 4.8623 4.27204 4.8623H6.75067C6.89225 4.8623 7.00708 4.97713 7.00708 5.11871V7.59735C7.00708 7.73893 6.89225 7.85376 6.75067 7.85376ZM4.52845 7.34094H6.49426V5.37513H4.52845V7.34094Z" fill="#BF9F65"/>
<path d="M3.37605 3.61195H1.32477C1.18319 3.61195 1.06836 3.49713 1.06836 3.35554V1.30426C1.06836 1.16268 1.18319 1.04785 1.32477 1.04785H3.37605C3.51763 1.04785 3.63246 1.16268 3.63246 1.30426V3.35554C3.63246 3.49717 3.51763 3.61195 3.37605 3.61195ZM1.58118 3.09913H3.11964V1.56067H1.58118V3.09913Z" fill="#BF9F65"/>
</svg>
