<svg width="20" height="20" viewBox="0 0 20 20" fill="none" xmlns="http://www.w3.org/2000/svg">
<path d="M6.92355 15.4795H0.617187C0.444609 15.4795 0.304688 15.3396 0.304688 15.167V6.65723C0.304688 6.48465 0.444609 6.34473 0.617187 6.34473C1.18812 6.34473 1.72457 6.56695 2.12766 6.97051C2.53094 7.37336 2.7532 7.9098 2.7532 8.48074V13.6009H5.84844C6.61356 13.6009 7.23605 14.2234 7.23605 14.9884V15.167C7.23605 15.3396 7.09613 15.4795 6.92355 15.4795ZM0.929687 14.8545H6.5993C6.53582 14.4977 6.22328 14.2259 5.84844 14.2259H2.4407C2.26812 14.2259 2.1282 14.0859 2.1282 13.9134V8.48074C2.1282 8.07687 1.97105 7.69746 1.6857 7.41246C1.47551 7.20203 1.21422 7.06133 0.929687 7.00184V14.8545Z" fill="#BF9F65"/>
<path d="M0.959408 19.7344C0.945579 19.7344 0.931634 19.7335 0.917533 19.7317C0.746478 19.7087 0.626361 19.5515 0.64929 19.3805L1.21913 15.1255C1.24202 14.9544 1.39921 14.8345 1.57035 14.8573C1.7414 14.8802 1.86152 15.0374 1.83859 15.2085L1.26874 19.4634C1.24773 19.6204 1.11355 19.7344 0.959408 19.7344Z" fill="#BF9F65"/>
<path d="M6.7332 19.7345C6.58355 19.7345 6.45137 19.6267 6.42551 19.4742L5.70367 15.2193C5.6748 15.0492 5.78933 14.8878 5.95949 14.8589C6.12957 14.8303 6.29098 14.9446 6.31984 15.1147L7.04168 19.3697C7.07055 19.5398 6.95601 19.7012 6.78586 19.7301C6.76816 19.733 6.75055 19.7345 6.7332 19.7345Z" fill="#BF9F65"/>
<path d="M19.4587 15.4795H13.1523C12.9798 15.4795 12.8398 15.3396 12.8398 15.167V14.9885C12.8398 14.2234 13.4623 13.6009 14.2274 13.6009H17.3227V8.48074C17.3227 7.9098 17.5449 7.37336 17.9485 6.97027C18.3513 6.56699 18.8877 6.34473 19.4587 6.34473C19.6312 6.34473 19.7712 6.48465 19.7712 6.65723V15.167C19.7712 15.3396 19.6312 15.4795 19.4587 15.4795ZM13.4766 14.8545H19.1462V7.00184C18.8617 7.06129 18.6004 7.20195 18.3904 7.41219C18.1048 7.69746 17.9477 8.07684 17.9477 8.4807V13.9133C17.9477 14.0859 17.8078 14.2258 17.6352 14.2258H14.2275C13.8527 14.2259 13.5401 14.4977 13.4766 14.8545Z" fill="#BF9F65"/>
<path d="M19.1164 19.7344C18.9622 19.7344 18.8281 19.6204 18.807 19.4634L18.2372 15.2085C18.2143 15.0374 18.3344 14.8802 18.5055 14.8572C18.6762 14.8346 18.8337 14.9545 18.8567 15.1255L19.4265 19.3805C19.4494 19.5515 19.3293 19.7087 19.1582 19.7317C19.1442 19.7335 19.1302 19.7344 19.1164 19.7344Z" fill="#BF9F65"/>
<path d="M13.3423 19.7345C13.3249 19.7345 13.3073 19.733 13.2896 19.73C13.1194 19.7012 13.0049 19.5398 13.0337 19.3697L13.7556 15.1147C13.7844 14.9446 13.9457 14.8303 14.116 14.8589C14.2861 14.8877 14.4007 15.0491 14.3718 15.2193L13.65 19.4742C13.6241 19.6267 13.4919 19.7345 13.3423 19.7345Z" fill="#BF9F65"/>
<path d="M14.8252 11.5284H5.09965C4.50836 11.5284 4.02734 11.0474 4.02734 10.4561C4.02734 9.86484 4.50836 9.38379 5.09965 9.38379H14.8252C15.4164 9.38379 15.8974 9.8648 15.8974 10.4561C15.8974 11.0474 15.4164 11.5284 14.8252 11.5284ZM5.09965 10.0088C4.85301 10.0088 4.65234 10.2095 4.65234 10.4561C4.65234 10.7027 4.85301 10.9034 5.09965 10.9034H14.8252C15.0718 10.9034 15.2724 10.7027 15.2724 10.4561C15.2724 10.2095 15.0718 10.0088 14.8252 10.0088H5.09965Z" fill="#BF9F65"/>
<path d="M10.2667 13.1999H9.65884C9.08783 13.1999 8.55142 12.9777 8.14837 12.5741C7.79126 12.2175 7.57169 11.7441 7.53036 11.2415C7.51622 11.0695 7.64419 10.9185 7.81618 10.9044C7.98814 10.89 8.13911 11.0182 8.15326 11.1902C8.18247 11.5453 8.33767 11.8798 8.59029 12.1322C8.87556 12.4178 9.25493 12.5749 9.65884 12.5749H10.2667C11.047 12.5749 11.7083 11.9667 11.7723 11.1902C11.7865 11.0182 11.9378 10.8904 12.1094 10.9044C12.2814 10.9186 12.4094 11.0695 12.3952 11.2415C12.3047 12.3397 11.3698 13.1999 10.2667 13.1999Z" fill="#BF9F65"/>
<path d="M19.6875 19.7344H0.3125C0.139922 19.7344 0 19.5945 0 19.4219C0 19.2493 0.139922 19.1094 0.3125 19.1094H19.6875C19.8601 19.1094 20 19.2493 20 19.4219C20 19.5945 19.8601 19.7344 19.6875 19.7344Z" fill="#BF9F65"/>
<path d="M11.557 19.7342C11.5363 19.7342 11.516 19.7323 11.4957 19.7284C11.4758 19.7241 11.4562 19.7182 11.4375 19.7104C11.4184 19.7026 11.4004 19.6929 11.3832 19.6819C11.3664 19.6702 11.3504 19.6573 11.3359 19.6429C11.3215 19.6284 11.3082 19.6124 11.2969 19.5956C11.2859 19.5784 11.2762 19.5605 11.2684 19.5413C11.2605 19.5226 11.2543 19.503 11.2504 19.4831C11.2465 19.4628 11.2441 19.4425 11.2441 19.4218C11.2441 19.4015 11.2465 19.3812 11.2504 19.3608C11.2543 19.3409 11.2605 19.3214 11.2684 19.3022C11.2762 19.2835 11.2859 19.2655 11.2969 19.2483C11.3082 19.2312 11.3215 19.2151 11.3359 19.2011C11.3504 19.1866 11.3664 19.1733 11.3832 19.162C11.4004 19.1507 11.4183 19.1413 11.4375 19.1335C11.4562 19.1257 11.4758 19.1194 11.4957 19.1155C11.5359 19.1073 11.5777 19.1073 11.618 19.1155C11.6379 19.1194 11.6574 19.1257 11.6766 19.1335C11.6953 19.1413 11.7132 19.1507 11.7305 19.162C11.7473 19.1733 11.7633 19.1866 11.7777 19.2011C11.7922 19.2151 11.8055 19.2312 11.8168 19.2483C11.8281 19.2655 11.8375 19.2835 11.8453 19.3022C11.8531 19.3214 11.8593 19.3409 11.8633 19.3608C11.8672 19.3812 11.8691 19.4015 11.8691 19.4218C11.8691 19.4425 11.8671 19.4628 11.8633 19.4831C11.8593 19.503 11.8531 19.5226 11.8453 19.5413C11.8375 19.5604 11.8281 19.5784 11.8168 19.5956C11.8055 19.6124 11.7922 19.6284 11.7777 19.6429C11.7633 19.6573 11.7473 19.6702 11.7305 19.6819C11.7133 19.6929 11.6953 19.7026 11.6762 19.7104C11.6574 19.7182 11.6379 19.7241 11.618 19.7284C11.5976 19.7323 11.5773 19.7342 11.557 19.7342Z" fill="#BF9F65"/>
<path d="M12.4634 6.09555H7.5371C7.30338 6.09555 7.09913 5.94578 7.02885 5.72285C6.96272 5.51301 7.031 5.28816 7.19897 5.1507L9.56674 2.58152L9.60651 0.307031C9.60948 0.136328 9.74881 0 9.91885 0C9.92073 0 9.92256 -2.83308e-09 9.92444 3.90597e-05C10.097 0.00308593 10.2345 0.145391 10.2314 0.317969L10.1919 2.57758L12.7825 5.13586C12.961 5.26856 13.0381 5.495 12.975 5.71172C12.9081 5.94125 12.7025 6.09555 12.4634 6.09555ZM7.75413 5.47055H12.232L9.88768 3.15547L7.75413 5.47055Z" fill="#BF9F65"/>
<path d="M9.96289 19.7339C9.79031 19.7339 9.65039 19.594 9.65039 19.4214V13.0391C9.65039 12.8665 9.79031 12.7266 9.96289 12.7266C10.1355 12.7266 10.2754 12.8665 10.2754 13.0391V19.4214C10.2754 19.594 10.1355 19.7339 9.96289 19.7339Z" fill="#BF9F65"/>
</svg>
