<svg width="14" height="20" viewBox="0 0 14 20" fill="none" xmlns="http://www.w3.org/2000/svg">
<path d="M12.9964 3.2573C12.041 1.50587 10.9431 0.554127 10.8969 0.514444C10.895 0.512857 10.8924 0.512381 10.8905 0.510794C10.8794 0.502063 10.8669 0.495714 10.8535 0.490159C10.8485 0.488095 10.844 0.484921 10.8389 0.483333C10.8377 0.483016 10.8367 0.482063 10.8354 0.481746L9.08941 0.00555555C9.07941 0.00285714 9.06941 0.00190476 9.05925 0.00126984C9.05703 0.00111111 9.05513 0.000476186 9.05291 0.000317456C9.03513 -0.000158734 9.01783 0.00317461 9.00084 0.00857143C8.99783 0.00952381 8.99497 0.00888888 8.99195 0.00999999C6.54195 0.925238 4.77735 0.277937 4.19751 0.0655556C4.071 0.0192063 4.01862 0 3.96814 0C3.96767 0 3.96735 0.000317456 3.96687 0.000317456C3.95338 0.000476186 3.93973 0.00206349 3.9264 0.00555555L2.18037 0.481746C2.1791 0.482063 2.17814 0.483016 2.17672 0.483333C2.1718 0.484762 2.16767 0.487778 2.16291 0.489841C2.14926 0.495397 2.13656 0.501905 2.12529 0.510794C2.12322 0.512381 2.12084 0.512698 2.11894 0.514286C2.07259 0.553968 0.974811 1.50571 0.0194144 3.25714C-0.0223317 3.33365 0.00544614 3.42952 0.0816366 3.4719L2.79465 4.97921C2.86402 5.19127 2.93989 5.40143 3.02307 5.6073C3.08021 5.77413 3.15116 5.97841 3.22719 6.19698C3.36148 6.58349 3.51132 7.0146 3.62656 7.36048C3.54529 7.4181 3.49195 7.51222 3.49195 7.61905V8.25397C3.49195 8.33905 3.52608 8.41603 3.58068 8.47302C2.8137 9.66905 0.793541 13.3213 0.793541 18.5714C0.793541 18.629 0.824811 18.6822 0.875446 18.7103C0.899256 18.7235 1.46322 19.0278 2.85814 19.261C2.85799 19.2956 2.85703 19.3303 2.85703 19.3651C2.85703 19.4203 2.88576 19.4716 2.93291 19.5005C2.96608 19.5208 3.77926 20 6.50783 20C9.2364 20 10.0496 19.5208 10.0827 19.5005C10.1299 19.4716 10.1586 19.4203 10.1586 19.3651C10.1586 19.3303 10.1577 19.2956 10.1575 19.261C11.5524 19.0279 12.1164 18.7237 12.1402 18.7103C12.1908 18.6822 12.2221 18.629 12.2221 18.5714C12.2221 13.3213 10.202 9.66905 9.43497 8.47302C9.48957 8.41603 9.5237 8.33905 9.5237 8.25397V7.61905C9.5237 7.5081 9.46624 7.41048 9.37973 7.35381C9.56703 6.76698 9.83687 6.00333 9.98529 5.6227C9.98656 5.62016 9.98846 5.6181 9.98957 5.6154C10.0737 5.40683 10.1505 5.19397 10.2207 4.97937L12.934 3.4719C13.0104 3.42968 13.0381 3.33381 12.9964 3.2573ZM9.75656 5.33984C8.50799 4.7554 7.53449 4.18286 6.7783 3.64397C8.78957 2.10984 9.14195 0.855556 9.19798 0.364286L10.6305 0.754921C10.6074 1.29016 10.4716 3.46841 9.75656 5.33984ZM6.46545 0.804603C7.15687 0.804603 7.96798 0.696191 8.87195 0.387778C8.79735 0.850794 8.41418 2.01841 6.50941 3.44825C4.59799 2.00984 4.21767 0.841905 4.1437 0.38381C4.53751 0.52746 5.34545 0.804603 6.46545 0.804603ZM0.374335 3.27159C1.01624 2.13349 1.7183 1.35397 2.07957 0.990159C2.11862 1.63905 2.24783 3.09095 2.66084 4.5419L0.374335 3.27159ZM9.20624 7.61905V8.25397H7.30148V7.61905H9.20624ZM6.98418 8.41159C6.98418 8.41191 6.98402 8.41222 6.98402 8.4127H6.03164V7.46032H6.98402L6.98418 8.41159ZM5.71418 8.25397H3.80941V7.61905H3.82608H3.82656H3.82703H5.71418V8.25397ZM1.11116 18.4714C1.13703 13.2457 3.18751 9.65444 3.89513 8.57143H4.54195C3.49656 11.6833 2.90465 15.3389 2.86132 18.9398C1.84957 18.767 1.30433 18.557 1.11116 18.4714ZM6.50783 19.6825C4.3391 19.6825 3.4256 19.3729 3.17465 19.2657C3.18529 15.5549 3.78878 11.7665 4.8764 8.57143H5.75846C5.81354 8.66587 5.91481 8.73016 6.03179 8.73016H6.98418C7.10116 8.73016 7.20253 8.66587 7.25751 8.57143H8.13957C9.22719 11.7665 9.83068 15.5548 9.84132 19.2656C9.58846 19.3733 8.67449 19.6825 6.50783 19.6825ZM10.1543 18.9398C10.111 15.3402 9.51941 11.6857 8.4737 8.57143H9.12052C9.82798 9.65444 11.8785 13.2457 11.9043 18.4714C11.7108 18.5571 11.1658 18.7671 10.1543 18.9398ZM9.06354 7.30159H7.25735C7.20227 7.20714 7.101 7.14286 6.98402 7.14286H6.03164C5.91465 7.14286 5.81338 7.20714 5.7583 7.30159H3.94132C3.8237 6.94698 3.66703 6.49619 3.52687 6.09286C3.45116 5.87476 3.38037 5.67111 3.32037 5.49651C2.55148 3.5919 2.40894 1.30508 2.38513 0.754921L3.81687 0.364444C3.89354 1.05841 4.55656 3.26349 9.63973 5.63714C9.46703 6.09365 9.22211 6.80127 9.06354 7.30159ZM10.3542 4.54222C10.7677 3.08889 10.8969 1.63794 10.9359 0.989841C11.2969 1.35286 11.9983 2.13143 12.6412 3.27175L10.3542 4.54222Z" fill="#E42E3B"/>
</svg>
