<svg width="56" height="48" viewBox="0 0 56 48" fill="none" xmlns="http://www.w3.org/2000/svg">
<path d="M47.9993 33.5038H47.7005L44.4311 25.8782C44.9854 26.1212 45.5828 26.2505 46.188 26.2586C46.4282 26.2586 46.6586 26.1632 46.8284 25.9933C46.9983 25.8235 47.0937 25.5931 47.0937 25.353V18.1078C47.0937 17.8676 46.9983 17.6372 46.8284 17.4674C46.6586 17.2975 46.4282 17.2021 46.188 17.2021C45.2449 17.2072 44.3269 17.5067 43.5622 18.0587C42.7975 18.6108 42.2242 19.3878 41.9224 20.2813C41.6559 19.9093 41.3158 19.5959 40.9233 19.3607C40.5307 19.1254 40.094 18.9733 39.6402 18.9138C39.0649 18.8395 38.4808 18.8764 37.9195 19.0225H37.1315C35.601 19.0225 34.9218 18.1168 33.8531 16.6406L33.3188 15.8889C33.8668 15.861 34.3978 15.6892 34.8584 15.3908C35.2078 15.1372 35.5037 14.817 35.7291 14.4486C35.9544 14.0803 36.1048 13.6711 36.1716 13.2444C36.4659 13.0749 36.7233 12.8481 36.9286 12.5774C37.134 12.3068 37.283 11.9978 37.367 11.6686C37.4053 11.409 37.3799 11.144 37.2932 10.8963C37.2064 10.6486 37.0608 10.4257 36.8689 10.2468C36.4991 9.61363 36.2965 8.8968 36.2802 8.16377C36.5141 8.14977 36.7334 8.04572 36.8921 7.87348C37.0508 7.70123 37.1367 7.47418 37.1315 7.24001C37.1316 6.28011 36.941 5.32977 36.5707 4.44419C36.2004 3.55861 35.6577 2.75544 34.9744 2.08134C34.291 1.40725 33.4805 0.875665 32.59 0.517474C31.6994 0.159284 30.7465 -0.0183729 29.7867 -0.00517439C27.9032 0.0319041 26.1072 0.796641 24.7751 2.12874C23.443 3.46084 22.6783 5.25688 22.6412 7.14038C22.6243 8.10064 22.7998 9.05455 23.1576 9.94583C23.5154 10.8371 24.048 11.6477 24.7242 12.3297C24.9246 12.5289 25.1362 12.7164 25.3581 12.8912C21.8623 13.7426 20.0239 17.021 19.082 19.8647C18.814 19.5947 18.4951 19.3804 18.1438 19.2343C17.7925 19.0881 17.4157 19.0131 17.0352 19.0134H7.41725C6.93427 19.0126 6.45883 19.1333 6.0347 19.3644C5.61057 19.5954 5.25136 19.9294 4.99012 20.3357C4.85921 20.5374 4.81382 20.7829 4.86392 21.0182C4.91403 21.2534 5.05552 21.4591 5.25728 21.59C5.45905 21.7209 5.70455 21.7663 5.93978 21.7162C6.17501 21.6661 6.3807 21.5246 6.51161 21.3228C6.60919 21.1717 6.74336 21.0476 6.90167 20.9621C7.05999 20.8766 7.23733 20.8325 7.41725 20.8338H9.05647V23.5507C9.05647 23.7909 9.15189 24.0213 9.32173 24.1911C9.49158 24.3609 9.72193 24.4564 9.96212 24.4564H14.4904C14.7306 24.4564 14.9609 24.3609 15.1308 24.1911C15.3006 24.0213 15.396 23.7909 15.396 23.5507V20.8247H17.0352C17.1768 20.8247 17.3169 20.8526 17.4477 20.9068C17.5784 20.9609 17.6972 21.0403 17.7973 21.1404C17.8974 21.2404 17.9768 21.3593 18.0309 21.49C18.0851 21.6208 18.1129 21.7609 18.1129 21.9024V28.8125C18.1106 29.0968 17.996 29.3686 17.7941 29.5687C17.5923 29.7689 17.3195 29.8812 17.0352 29.8812H7.41725C7.15789 29.8884 6.9049 29.8001 6.70626 29.6332C6.50762 29.4663 6.37713 29.2323 6.33953 28.9755H8.15083C8.39102 28.9755 8.62138 28.8801 8.79122 28.7103C8.96106 28.5404 9.05647 28.3101 9.05647 28.0699C9.05647 27.8297 8.96106 27.5993 8.79122 27.4295C8.62138 27.2597 8.39102 27.1642 8.15083 27.1642H6.33953V25.353H7.24518C7.48537 25.353 7.71573 25.2575 7.88557 25.0877C8.05541 24.9179 8.15083 24.6875 8.15083 24.4473C8.15083 24.2071 8.05541 23.9768 7.88557 23.8069C7.71573 23.6371 7.48537 23.5417 7.24518 23.5417H2.71694C2.47675 23.5417 2.24639 23.6371 2.07655 23.8069C1.90671 23.9768 1.8113 24.2071 1.8113 24.4473C1.8113 24.6875 1.90671 24.9179 2.07655 25.0877C2.24639 25.2575 2.47675 25.353 2.71694 25.353H4.52824V27.1642H0.905648C0.665455 27.1642 0.4351 27.2597 0.265258 27.4295C0.0954161 27.5993 0 27.8297 0 28.0699C0 28.3101 0.0954161 28.5404 0.265258 28.7103C0.4351 28.8801 0.665455 28.9755 0.905648 28.9755H4.52824C4.56983 29.7092 4.89029 30.3992 5.424 30.9043C5.95772 31.4094 6.66432 31.6914 7.39914 31.6925H11.9274C11.5083 32.1034 11.1513 32.5733 10.8678 33.0872C9.65837 35.4589 9.03713 38.0867 9.05647 40.749C9.05647 40.9892 9.15189 41.2195 9.32173 41.3894C9.49158 41.5592 9.72193 41.6546 9.96212 41.6546H12.7425C12.9742 43.3951 13.8302 44.9923 15.1512 46.149C16.4722 47.3058 18.1684 47.9434 19.9242 47.9434C21.6801 47.9434 23.3763 47.3058 24.6973 46.149C26.0183 44.9923 26.8743 43.3951 27.106 41.6546H40.8175C40.9919 43.0383 41.5618 44.3422 42.459 45.4099C43.3562 46.4776 44.5424 47.2637 45.8753 47.6738C47.2083 48.0839 48.6312 48.1006 49.9734 47.7219C51.3156 47.3431 52.52 46.5851 53.4419 45.5387C54.3639 44.4924 54.9643 43.2021 55.171 41.823C55.3778 40.4438 55.182 39.0342 54.6074 37.7635C54.0327 36.4928 53.1036 35.415 51.9314 34.6594C50.7592 33.9038 49.3939 33.5025 47.9993 33.5038ZM13.5847 22.636H10.8678V20.8247H13.5847V22.636ZM45.2824 19.1674V24.2933C44.7517 24.1067 44.292 23.7598 43.9668 23.3007C43.6417 22.8417 43.467 22.2929 43.467 21.7304C43.467 21.1678 43.6417 20.6191 43.9668 20.16C44.292 19.7009 44.7517 19.3541 45.2824 19.1674ZM39.3776 20.6979C39.7326 20.7511 40.0624 20.9128 40.3219 21.1609C40.5813 21.409 40.7576 21.7313 40.8266 22.0836L41.0621 22.636C39.8011 23.2842 38.3943 23.5961 36.9776 23.5417C36.8528 23.0037 36.9182 22.4391 37.1625 21.9438C37.4069 21.4485 37.8151 21.0531 38.3179 20.8247C38.6595 20.7139 39.02 20.6739 39.3776 20.707V20.6979ZM34.9127 11.8588C34.762 11.9348 34.6355 12.0513 34.5475 12.1953C34.4594 12.3394 34.4134 12.5051 34.4146 12.6739C34.4079 12.9019 34.3537 13.126 34.2555 13.3318C34.1572 13.5377 34.0171 13.7207 33.844 13.8693C33.3278 14.2135 32.3678 14.132 31.1271 13.6429C31.0609 13.6356 30.9941 13.6356 30.9279 13.6429L30.792 13.5252V10.0566C30.792 9.54976 30.9933 9.06371 31.3517 8.70535C31.7101 8.34698 32.1961 8.14565 32.7029 8.14565H34.4146C34.4431 9.31798 34.8112 10.4569 35.4742 11.4241C35.3104 11.5994 35.1211 11.749 34.9127 11.8679V11.8588ZM24.4525 7.1585C24.4978 5.75333 25.0762 4.41809 26.0703 3.42397C27.0645 2.42986 28.3997 1.85141 29.8049 1.80612H29.8864C31.1711 1.80528 32.4146 2.25968 33.3961 3.08866C34.3776 3.91764 35.0337 5.06758 35.2478 6.33436H32.7029C31.7165 6.33675 30.7711 6.72968 30.0736 7.42721C29.376 8.12474 28.9831 9.07011 28.9807 10.0566V12.6014C27.7016 12.3854 26.5419 11.7188 25.7114 10.7222C24.8809 9.72555 24.4344 8.46471 24.4525 7.16755V7.1585ZM27.1694 14.4852C30.1309 14.4852 31.2177 16.0338 32.3678 17.664C33.201 18.8595 34.1791 20.1636 35.8093 20.6255C35.2965 21.454 35.0646 22.4259 35.1482 23.3968C34.0241 23.1512 32.9639 22.673 32.0358 21.9929C31.1078 21.3129 30.3324 20.446 29.7596 19.4481C29.7102 19.3284 29.6358 19.2207 29.5413 19.1322C29.4468 19.0437 29.3344 18.9765 29.2117 18.9351C29.0891 18.8937 28.9589 18.8791 28.8301 18.8923C28.7013 18.9055 28.5769 18.9461 28.4651 19.0115C28.3533 19.0768 28.2569 19.1654 28.1822 19.2712C28.1076 19.377 28.0565 19.4976 28.0324 19.6248C28.0083 19.752 28.0118 19.8829 28.0426 20.0086C28.0734 20.1344 28.1308 20.2521 28.2109 20.3538C28.5392 20.9047 28.915 21.4259 29.3339 21.9115L29.2524 21.9658C28.4082 22.9369 27.8143 24.0997 27.5226 25.353H19.9242V24.4473C19.9876 23.8949 21.0201 14.4852 27.1694 14.4852ZM19.9242 28.8035V27.1642H28.0751C28.2562 27.1642 32.6033 27.2186 32.6033 31.6925V36.2207H28.9807V34.4094C29.0036 33.8086 28.9021 33.2096 28.6827 32.6498C28.4632 32.0901 28.1305 31.5817 27.7053 31.1566C27.2802 30.7314 26.7718 30.3987 26.2121 30.1792C25.6523 29.9598 25.0533 29.8583 24.4525 29.8812H19.7159C19.8543 29.5388 19.925 29.1728 19.9242 28.8035ZM19.9242 46.1828C18.6411 46.1815 17.3997 45.7262 16.4201 44.8974C15.4405 44.0686 14.7857 42.9199 14.5719 41.6546H16.4284C16.637 42.422 17.0923 43.0995 17.7241 43.5825C18.3558 44.0655 19.129 44.3272 19.9242 44.3272C20.7195 44.3272 21.4927 44.0655 22.1244 43.5825C22.7562 43.0995 23.2115 42.422 23.42 41.6546H25.2766C25.0628 42.9199 24.408 44.0686 23.4284 44.8974C22.4488 45.7262 21.2074 46.1815 19.9242 46.1828ZM18.3665 41.6546H21.482C21.3216 41.9249 21.0936 42.1488 20.8205 42.3043C20.5474 42.4598 20.2385 42.5416 19.9242 42.5416C19.61 42.5416 19.3011 42.4598 19.028 42.3043C18.7549 42.1488 18.5269 41.9249 18.3665 41.6546ZM10.8678 39.8433C10.9833 37.7588 11.5454 35.7235 12.516 33.8751C12.8765 33.2048 13.4145 32.6466 14.071 32.2617C14.7275 31.8767 15.4773 31.6798 16.2383 31.6925H24.4525C24.8144 31.6729 25.1765 31.7297 25.515 31.8593C25.8535 31.9889 26.1609 32.1884 26.4172 32.4447C26.6735 32.701 26.873 33.0084 27.0026 33.3469C27.1322 33.6855 27.189 34.0475 27.1694 34.4094V37.1264C27.1694 38.1061 27.4872 39.0595 28.0751 39.8433H10.8678ZM31.6977 39.8433C31.1371 39.8417 30.5908 39.6668 30.1336 39.3425C29.6763 39.0183 29.3306 38.5605 29.1437 38.032H33.509C33.7454 38.0168 33.9824 38.0511 34.2048 38.1327C34.4272 38.2143 34.6302 38.3414 34.8006 38.5059C34.9711 38.6705 35.1054 38.8687 35.1949 39.0881C35.2843 39.3075 35.327 39.5431 35.3203 39.7799C35.02 39.82 34.7175 39.8411 34.4146 39.8433H31.6977ZM37.5029 38.7837C37.372 38.9318 37.2229 39.0626 37.0591 39.1731C36.9597 38.4884 36.6529 37.8506 36.1801 37.3454C35.7074 36.8403 35.0912 36.492 34.4146 36.3475V31.6925C34.4963 30.2148 34.0235 28.7598 33.0888 27.6123C32.1541 26.4649 30.8248 25.7076 29.3611 25.4888C29.5933 24.6765 29.991 23.921 30.5294 23.27C30.5528 23.2383 30.574 23.205 30.5928 23.1703C31.9985 24.3106 33.69 25.0436 35.4833 25.2896L38.0372 36.3928C38.1806 37.229 37.9886 38.0881 37.5029 38.7837ZM39.8485 36.0215L37.358 25.353C38.8904 25.3671 40.4046 25.0196 41.7775 24.3386L46.0522 34.3008L42.1036 39.8433H38.9428C39.3403 39.2985 39.6251 38.6799 39.7807 38.0236C39.9362 37.3674 39.9592 36.6867 39.8485 36.0215ZM47.9993 39.8433H46.4416C46.641 39.498 46.9487 39.2281 47.3171 39.0755C47.6855 38.923 48.0939 38.8962 48.479 38.9994C48.8642 39.1026 49.2045 39.33 49.4472 39.6463C49.69 39.9626 49.8215 40.3502 49.8215 40.749C49.8215 41.1477 49.69 41.5353 49.4472 41.8516C49.2045 42.1679 48.8642 42.3953 48.479 42.4985C48.0939 42.6017 47.6855 42.575 47.3171 42.4224C46.9487 42.2698 46.641 41.9999 46.4416 41.6546H47.9993C48.2395 41.6546 48.4699 41.5592 48.6397 41.3894C48.8096 41.2195 48.905 40.9892 48.905 40.749C48.905 40.5088 48.8096 40.2784 48.6397 40.1086C48.4699 39.9387 48.2395 39.8433 47.9993 39.8433ZM44.3224 39.8433L44.6394 39.3995C44.5846 39.5444 44.5393 39.6926 44.5035 39.8433H44.3224ZM47.9993 46.1828C46.7161 46.1815 45.4748 45.7262 44.4952 44.8974C43.5155 44.0686 42.8608 42.9199 42.6469 41.6546H44.5035C44.7019 42.4185 45.1443 43.0968 45.7634 43.5862C46.3826 44.0756 47.1447 44.3495 47.9338 44.366C48.7228 44.3826 49.4957 44.141 50.1349 43.6781C50.7741 43.2151 51.2446 42.556 51.4749 41.8011C51.7051 41.0462 51.6825 40.2367 51.4105 39.4958C51.1385 38.7549 50.632 38.1231 49.968 37.6965C49.304 37.2699 48.5188 37.0718 47.7319 37.1323C46.9449 37.1929 46.1993 37.5088 45.6084 38.032L47.5374 35.3151C47.6914 35.3151 47.8454 35.3151 47.9993 35.3151C49.4405 35.3151 50.8226 35.8876 51.8417 36.9066C52.8607 37.9257 53.4332 39.3078 53.4332 40.749C53.4332 42.1901 52.8607 43.5722 51.8417 44.5913C50.8226 45.6103 49.4405 46.1828 47.9993 46.1828Z" fill="#E42E3B"/>
</svg>
