<svg width="48" height="49" viewBox="0 0 48 49" fill="none" xmlns="http://www.w3.org/2000/svg">
<path d="M10.6271 25.0613C10.4809 25.0613 10.334 25.0169 10.2082 24.9289C9.80968 24.6482 0.445312 17.9682 0.445312 10.5158C0.445312 4.90126 5.01259 0.333984 10.6271 0.333984C16.2417 0.333984 20.8089 4.90126 20.8089 10.5158C20.8089 17.9682 11.4446 24.6482 11.046 24.9289C10.9202 25.0169 10.7733 25.0613 10.6271 25.0613ZM10.6271 1.78853C5.81477 1.78853 1.89986 5.70344 1.89986 10.5158C1.89986 16.3762 8.83295 22.0569 10.6271 23.4278C12.4213 22.0569 19.3544 16.3762 19.3544 10.5158C19.3544 5.70344 15.4395 1.78853 10.6271 1.78853Z" fill="#73A34D"/>
<path d="M10.6273 13.4245C8.22076 13.4245 6.26367 11.4674 6.26367 9.0609C6.26367 6.65436 8.22076 4.69727 10.6273 4.69727C13.0339 4.69727 14.9909 6.65436 14.9909 9.0609C14.9909 11.4674 13.0339 13.4245 10.6273 13.4245ZM10.6273 6.15181C9.02294 6.15181 7.71822 7.45654 7.71822 9.0609C7.71822 10.6653 9.02294 11.97 10.6273 11.97C12.2317 11.97 13.5364 10.6653 13.5364 9.0609C13.5364 7.45654 12.2317 6.15181 10.6273 6.15181Z" fill="#73A34D"/>
<path d="M39.7186 44.6983H16.0822C12.6735 44.6983 9.90039 41.9252 9.90039 38.5165C9.90039 35.1078 12.6735 32.3347 16.0822 32.3347H29.5368C31.5418 32.3347 33.1731 30.7034 33.1731 28.6983C33.1731 26.6932 31.5418 25.062 29.5368 25.062H14.264C13.8618 25.062 13.5368 24.7361 13.5368 24.3347C13.5368 23.9332 13.8618 23.6074 14.264 23.6074H29.5368C32.3433 23.6074 34.6277 25.8911 34.6277 28.6983C34.6277 31.5056 32.3433 33.7892 29.5368 33.7892H16.0822C13.4757 33.7892 11.3549 35.91 11.3549 38.5165C11.3549 41.1231 13.4757 43.2438 16.0822 43.2438H39.7186C40.1208 43.2438 40.4458 43.5696 40.4458 43.9711C40.4458 44.3725 40.1208 44.6983 39.7186 44.6983Z" fill="#73A34D"/>
<path d="M43.3539 48.3347C40.9473 48.3347 38.9902 46.3776 38.9902 43.9711C38.9902 41.5645 40.9473 39.6074 43.3539 39.6074C45.7604 39.6074 47.7175 41.5645 47.7175 43.9711C47.7175 46.3776 45.7604 48.3347 43.3539 48.3347ZM43.3539 41.062C41.7495 41.062 40.4448 42.3667 40.4448 43.9711C40.4448 45.5754 41.7495 46.8801 43.3539 46.8801C44.9582 46.8801 46.263 45.5754 46.263 43.9711C46.263 42.3667 44.9582 41.062 43.3539 41.062Z" fill="#73A34D"/>
</svg>
