<svg width="49" height="49" viewBox="0 0 49 49" fill="none" xmlns="http://www.w3.org/2000/svg">
<path d="M32.9635 30.1495H26.9721L28.2203 26.0015C28.6021 24.7613 28.482 23.4207 27.8859 22.2681C27.2899 21.1154 26.2653 20.2426 25.0325 19.8373C24.6785 19.7206 24.3042 19.6782 23.933 19.7129C23.5618 19.7476 23.2018 19.8586 22.8755 20.0388C22.5492 20.2191 22.2637 20.4648 22.0367 20.7606C21.8098 21.0563 21.6464 21.3958 21.5567 21.7576L21.3647 22.5641C20.6405 25.4704 19.1404 28.1254 17.0247 30.2455L15.9302 31.3209C15.652 30.9705 15.2989 30.6869 14.8969 30.4908C14.4948 30.2948 14.0539 30.1912 13.6065 30.1879H12.2047C11.4168 30.1878 10.6606 30.4981 10.0999 31.0517C9.53916 31.6052 9.21909 32.3573 9.20898 33.1452V45.5121C9.20898 46.3066 9.5246 47.0686 10.0864 47.6304C10.6482 48.1922 11.4102 48.5078 12.2047 48.5078H13.6065C14.1222 48.5067 14.6287 48.3715 15.0765 48.1157C15.5242 47.8598 15.8978 47.4921 16.1606 47.0484L16.4294 47.1828C18.1651 48.0495 20.0776 48.503 22.0176 48.5078H28.9116C30.0513 48.5134 31.1745 48.2355 32.1801 47.6991C33.1858 47.1628 34.0423 46.3848 34.6726 45.4353C36.0142 43.4293 36.7294 41.0698 36.7274 38.6565V33.8749C36.7274 33.3824 36.6298 32.8948 36.4401 32.4403C36.2505 31.9858 35.9727 31.5734 35.6227 31.2269C35.2726 30.8805 34.8574 30.6069 34.401 30.4219C33.9445 30.237 33.456 30.1444 32.9635 30.1495ZM14.6051 45.5121C14.6051 45.7973 14.4918 46.0709 14.2901 46.2725C14.0885 46.4742 13.8149 46.5875 13.5297 46.5875H12.2047C11.9195 46.5875 11.646 46.4742 11.4443 46.2725C11.2426 46.0709 11.1293 45.7973 11.1293 45.5121V33.1452C11.1293 32.86 11.2426 32.5864 11.4443 32.3848C11.646 32.1831 11.9195 32.0698 12.2047 32.0698H13.6065C13.8782 32.0892 14.1324 32.2111 14.3178 32.4107C14.5031 32.6103 14.6058 32.8728 14.6051 33.1452V45.5121ZM34.7686 38.6565C34.7766 40.7058 34.175 42.7111 33.0403 44.4175C32.5863 45.0963 31.9721 45.6528 31.2521 46.038C30.532 46.4231 29.7282 46.625 28.9116 46.6259H22.0176C20.3781 46.6243 18.7612 46.2431 17.2936 45.5121L16.5255 45.1281V33.3372L18.2922 31.5705C20.6559 29.2071 22.3349 26.2473 23.1506 23.0058L23.3426 22.2185C23.3997 22.0078 23.5377 21.8283 23.7267 21.7192C23.8236 21.6769 23.9282 21.6551 24.034 21.6551C24.1397 21.6551 24.2443 21.6769 24.3412 21.7192C24.7197 21.845 25.0696 22.0443 25.371 22.3054C25.6723 22.5666 25.9193 22.8847 26.0976 23.2414C26.276 23.5981 26.3823 23.9865 26.4104 24.3843C26.4385 24.7821 26.3879 25.1816 26.2615 25.5599L24.6485 30.956C24.6067 31.0991 24.5989 31.2499 24.6255 31.3966C24.6522 31.5433 24.7127 31.6817 24.8021 31.8009C24.8893 31.9225 25.0049 32.021 25.1387 32.0879C25.2725 32.1548 25.4206 32.1881 25.5702 32.185H32.8483C33.0853 32.185 33.3201 32.2317 33.5391 32.3224C33.7581 32.4131 33.9571 32.5461 34.1247 32.7137C34.2923 32.8813 34.4253 33.0803 34.516 33.2993C34.6067 33.5183 34.6534 33.7531 34.6534 33.9901L34.7686 38.6565Z" fill="#F68721"/>
<path d="M18.446 11.6373L17.8315 15.1899C17.7576 15.5831 17.7979 15.9892 17.9477 16.3602C18.0974 16.7312 18.3503 17.0514 18.6765 17.2831C19.0375 17.5522 19.4744 17.7001 19.9247 17.7056C20.2723 17.7001 20.6139 17.6147 20.9232 17.4559L24.207 15.766L27.414 17.4559C27.7666 17.6421 28.1647 17.7247 28.5623 17.6941C28.9599 17.6636 29.3408 17.5211 29.6608 17.2831C29.9836 17.0529 30.2343 16.7358 30.3839 16.3686C30.5335 16.0015 30.5757 15.5994 30.5057 15.2092L29.968 11.6373L32.4837 9.1409C32.7742 8.86613 32.9807 8.51453 33.0793 8.127C33.1779 7.73947 33.1645 7.33192 33.0406 6.95172C32.9165 6.57193 32.689 6.23421 32.3838 5.97643C32.0785 5.71864 31.7075 5.55099 31.3123 5.49227L27.7212 4.97378L26.1274 1.69001C25.9481 1.33452 25.6736 1.03578 25.3345 0.827054C24.9955 0.618329 24.6052 0.507812 24.207 0.507812C23.8089 0.507812 23.4185 0.618329 23.0795 0.827054C22.7404 1.03578 22.466 1.33452 22.2867 1.69001L20.6928 4.93537L17.1018 5.45386C16.7066 5.51259 16.3355 5.68024 16.0303 5.93802C15.725 6.1958 15.4976 6.53352 15.3735 6.91331C15.2416 7.29878 15.224 7.71415 15.3228 8.10938C15.4216 8.50461 15.6326 8.86284 15.9304 9.1409L18.446 11.6373ZM17.2938 7.35499L21.3841 6.75969C21.5689 6.77165 21.7531 6.72883 21.9136 6.6366C22.0742 6.54437 22.2039 6.40683 22.2867 6.2412L24.207 2.53495C24.2239 2.49818 24.2509 2.46702 24.285 2.44518C24.319 2.42333 24.3586 2.41172 24.3991 2.41172C24.4395 2.41172 24.4791 2.42333 24.5131 2.44518C24.5472 2.46702 24.5742 2.49818 24.5911 2.53495L26.5114 6.2412C26.5804 6.38142 26.6833 6.50225 26.8107 6.59278C26.9381 6.6833 27.086 6.74066 27.2411 6.75969L31.3315 7.35499C31.3712 7.3631 31.4082 7.38158 31.4385 7.40856C31.4689 7.43553 31.4916 7.47005 31.5043 7.50862C31.5228 7.54073 31.5326 7.57716 31.5326 7.61423C31.5326 7.65131 31.5228 7.68774 31.5043 7.71985L28.547 10.6004C28.4351 10.7121 28.3509 10.8484 28.3009 10.9984C28.2509 11.1484 28.2365 11.308 28.2589 11.4645L28.9694 15.5164C28.9825 15.5573 28.9799 15.6015 28.9622 15.6405C28.9444 15.6796 28.9128 15.7106 28.8734 15.7276C28.8402 15.7526 28.7998 15.766 28.7582 15.766C28.7167 15.766 28.6762 15.7526 28.643 15.7276L24.9944 13.8073C24.8595 13.7316 24.7074 13.6919 24.5527 13.6919C24.398 13.6919 24.2459 13.7316 24.111 13.8073L20.4432 15.7276C20.4129 15.751 20.3758 15.7637 20.3375 15.7637C20.2993 15.7637 20.2622 15.751 20.2319 15.7276C20.1926 15.7106 20.1609 15.6796 20.1432 15.6405C20.1255 15.6015 20.1229 15.5573 20.1359 15.5164L20.8464 11.4645C20.8688 11.308 20.8545 11.1484 20.8045 10.9984C20.7545 10.8484 20.6702 10.7121 20.5584 10.6004L17.6011 7.71985C17.5825 7.68774 17.5728 7.65131 17.5728 7.61423C17.5728 7.57716 17.5825 7.54073 17.6011 7.50862C17.5512 7.51145 17.5018 7.49799 17.4602 7.47028C17.4186 7.44258 17.3872 7.40211 17.3706 7.35499H17.2938Z" fill="#F68721"/>
<path d="M11.4171 23.0634C11.7032 23.0686 11.9868 23.0099 12.2472 22.8914C12.5076 22.773 12.7383 22.5978 12.9223 22.3788C13.1064 22.1598 13.2392 21.9024 13.311 21.6255C13.3828 21.3485 13.3919 21.0591 13.3375 20.7782L12.819 17.8593L14.9697 15.7661C15.2407 15.5174 15.4346 15.1962 15.5283 14.8405C15.622 14.4849 15.6116 14.1098 15.4983 13.7599C15.3851 13.41 15.1737 13.0999 14.8893 12.8667C14.605 12.6334 14.2597 12.4867 13.8944 12.444L10.9563 12.0215L9.63122 9.35221C9.45442 9.04508 9.19981 8.78997 8.89301 8.61258C8.58622 8.4352 8.2381 8.3418 7.88372 8.3418C7.52934 8.3418 7.18121 8.4352 6.87442 8.61258C6.56763 8.78997 6.31301 9.04508 6.13622 9.35221L4.81119 12.0215L1.87308 12.444C1.50778 12.4867 1.16243 12.6334 0.878088 12.8667C0.593749 13.0999 0.382382 13.41 0.269115 13.7599C0.155848 14.1098 0.145448 14.4849 0.23915 14.8405C0.332852 15.1962 0.526714 15.5174 0.797689 15.7661L2.92926 17.8593L2.41077 20.7782C2.34424 21.1401 2.38308 21.5135 2.52266 21.8539C2.66224 22.1943 2.89669 22.4875 3.19811 22.6985C3.4925 22.9137 3.84207 23.0406 4.20594 23.0644C4.56982 23.0882 4.93295 23.0079 5.25286 22.833L7.88372 21.4503L10.5146 22.833C10.792 22.9827 11.1019 23.0618 11.4171 23.0634ZM7.88372 19.4148C7.72894 19.4138 7.57663 19.4535 7.44204 19.53L4.3119 21.1047L5.00322 17.6865C5.01391 17.5221 4.98454 17.3576 4.91764 17.2071C4.85075 17.0566 4.74832 16.9245 4.61915 16.8223L2.14192 14.3451L5.59852 13.8458C5.75134 13.8271 5.89686 13.7697 6.02122 13.679C6.14558 13.5882 6.24467 13.4672 6.30905 13.3273L7.90292 10.1972L9.45839 13.3273C9.52277 13.4672 9.62185 13.5882 9.74622 13.679C9.87058 13.7697 10.0161 13.8271 10.1689 13.8458L13.6255 14.4027L11.1483 16.8223C11.0364 16.9341 10.9522 17.0704 10.9022 17.2204C10.8522 17.3704 10.8378 17.5299 10.8602 17.6865L11.4171 21.1431L8.3254 19.53C8.19081 19.4535 8.0385 19.4138 7.88372 19.4148Z" fill="#F68721"/>
<path d="M48.1155 13.769C48.0058 13.4215 47.7995 13.1123 47.5207 12.8777C47.2418 12.6431 46.902 12.4926 46.5408 12.444L43.6027 12.0215L42.2777 9.35221C42.1009 9.04508 41.8463 8.78997 41.5395 8.61258C41.2327 8.4352 40.8846 8.3418 40.5302 8.3418C40.1758 8.3418 39.8277 8.4352 39.5209 8.61258C39.2141 8.78997 38.9595 9.04508 38.7827 9.35221L37.4577 12.0215L34.5196 12.444C34.1543 12.4867 33.8089 12.6334 33.5246 12.8667C33.2402 13.0999 33.0289 13.41 32.9156 13.7599C32.8023 14.1098 32.7919 14.4849 32.8856 14.8405C32.9793 15.1962 33.1732 15.5174 33.4442 15.7661L35.5757 17.8593L35.0573 20.7782C34.9907 21.1401 35.0296 21.5135 35.1691 21.8539C35.3087 22.1943 35.5432 22.4875 35.8446 22.6985C36.139 22.9137 36.4886 23.0406 36.8524 23.0644C37.2163 23.0882 37.5794 23.0079 37.8993 22.833L40.5302 21.4503L43.1611 22.833C43.4384 22.9827 43.7484 23.0618 44.0636 23.0634C44.3497 23.0686 44.6333 23.0099 44.8937 22.8914C45.1541 22.773 45.3848 22.5978 45.5688 22.3788C45.7529 22.1598 45.8857 21.9024 45.9575 21.6255C46.0293 21.3485 46.0384 21.0591 45.984 20.7782L45.4655 17.8593L47.597 15.7661C47.8646 15.5171 48.0554 15.1969 48.1473 14.8431C48.2391 14.4893 48.2281 14.1167 48.1155 13.769ZM43.7948 16.8223C43.6829 16.9341 43.5987 17.0704 43.5487 17.2204C43.4987 17.3704 43.4843 17.5299 43.5067 17.6865L44.0636 21.1431L40.9719 19.53C40.837 19.4543 40.6849 19.4145 40.5302 19.4145C40.3755 19.4145 40.2234 19.4543 40.0885 19.53L36.9584 21.1047L37.6497 17.6865C37.6604 17.5221 37.631 17.3576 37.5641 17.2071C37.4972 17.0566 37.3948 16.9245 37.2656 16.8223L34.7884 14.3451L38.245 13.8458C38.3978 13.8271 38.5433 13.7697 38.6677 13.679C38.7921 13.5882 38.8912 13.4672 38.9555 13.3273L40.5494 10.1972L42.1049 13.3273C42.1693 13.4672 42.2683 13.5882 42.3927 13.679C42.5171 13.7697 42.6626 13.8271 42.8154 13.8458L46.272 14.4027L43.7948 16.8223Z" fill="#F68721"/>
</svg>
