<svg width="37" height="25" viewBox="0 0 37 25" fill="none" xmlns="http://www.w3.org/2000/svg">
<path d="M29.4948 19.1414C30.0494 19.1414 30.5916 19.3059 31.0527 19.6142C31.5137 19.9225 31.873 20.3606 32.0849 20.8731C32.2969 21.3856 32.352 21.9495 32.2434 22.4934C32.1347 23.0372 31.8672 23.5366 31.4746 23.9284C31.082 24.3201 30.582 24.5866 30.0378 24.694C29.4937 24.8015 28.93 24.7451 28.4179 24.532C27.9059 24.3189 27.4686 23.9587 27.1613 23.497C26.8541 23.0352 26.6907 22.4927 26.6919 21.9381C26.6936 21.1958 26.9896 20.4845 27.5151 19.9602C28.0405 19.4358 28.7525 19.1414 29.4948 19.1414ZM28.8357 22.6096C28.9241 22.6938 29.0262 22.7626 29.1375 22.8129C29.2515 22.8571 29.3726 22.8801 29.4948 22.8806C29.6151 22.8802 29.7342 22.8572 29.8459 22.8129C29.9581 22.764 30.0604 22.6951 30.1478 22.6096C30.3211 22.4364 30.4186 22.2016 30.4188 21.9566C30.4173 21.7119 30.32 21.4775 30.1478 21.3036C30.0186 21.1745 29.854 21.0867 29.6749 21.0511C29.4957 21.0155 29.3101 21.0338 29.1413 21.1037C28.9726 21.1735 28.8283 21.2918 28.7268 21.4437C28.6252 21.5955 28.571 21.774 28.5708 21.9566C28.5698 22.0775 28.5926 22.1975 28.6381 22.3095C28.6835 22.4216 28.7507 22.5235 28.8357 22.6096ZM8.27921 19.1599C8.83383 19.1599 9.37598 19.3244 9.83705 19.6327C10.2981 19.9409 10.6574 20.379 10.8693 20.8916C11.0813 21.4041 11.1364 21.968 11.0278 22.5118C10.9191 23.0557 10.6516 23.5551 10.259 23.9469C9.86635 24.3386 9.36635 24.6051 8.82224 24.7125C8.27813 24.82 7.71437 24.7636 7.20232 24.5505C6.69028 24.3374 6.25295 23.9772 5.94571 23.5155C5.63847 23.0537 5.47512 22.5112 5.47634 21.9566C5.47472 21.5875 5.54602 21.2217 5.68615 20.8802C5.82628 20.5387 6.03248 20.2283 6.29291 19.9667C6.55335 19.7051 6.86288 19.4975 7.20375 19.3559C7.54461 19.2143 7.9101 19.1414 8.27921 19.1414V19.1599ZM7.62624 22.6096C7.71112 22.6965 7.81275 22.7654 7.92498 22.8119C8.0372 22.8585 8.15771 22.8819 8.27921 22.8806C8.39857 22.8736 8.51556 22.8443 8.62418 22.7944C8.73713 22.7518 8.84146 22.6892 8.93219 22.6096C9.10553 22.4364 9.20302 22.2016 9.20324 21.9566C9.20169 21.7119 9.1044 21.4775 8.93219 21.3036C8.88778 21.2613 8.84044 21.2222 8.79051 21.1866C8.74039 21.1538 8.68664 21.1269 8.63034 21.1065C8.57511 21.0816 8.51725 21.063 8.45786 21.051C8.30915 21.0233 8.15595 21.0318 8.0112 21.0757C7.86645 21.1197 7.73441 21.1979 7.62624 21.3036C7.45403 21.4775 7.35674 21.7119 7.35519 21.9566C7.3554 22.2016 7.4529 22.4364 7.62624 22.6096ZM0.615971 0.765625H23.2176C23.381 0.765625 23.5377 0.830527 23.6532 0.946052C23.7687 1.06158 23.8336 1.21826 23.8336 1.38164V15.7225H13.2689C13.0239 15.7225 12.7889 15.8199 12.6156 15.9931C12.4423 16.1664 12.3449 16.4015 12.3449 16.6465C12.3449 16.8916 12.4423 17.1266 12.6156 17.2999C12.7889 17.4732 13.0239 17.5706 13.2689 17.5706H24.7577C25.0027 17.5706 25.2377 17.4732 25.411 17.2999C25.5843 17.1266 25.6817 16.8916 25.6817 16.6465V4.90526H32.0328C32.2113 4.90558 32.3869 4.95021 32.5439 5.03515C32.7008 5.12009 32.8343 5.24268 32.9322 5.39191L35.9137 9.96891C36.0324 10.1551 36.1394 10.3485 36.234 10.548H28.577V6.35289C28.577 6.10783 28.4796 5.8728 28.3063 5.69951C28.133 5.52622 27.898 5.42887 27.6529 5.42887C27.4079 5.42887 27.1728 5.52622 26.9995 5.69951C26.8263 5.8728 26.7289 6.10783 26.7289 6.35289V11.472C26.7289 11.7171 26.8263 11.9521 26.9995 12.1254C27.1728 12.2987 27.4079 12.396 27.6529 12.396H36.8562C36.9189 12.7418 36.9539 13.0919 36.9609 13.4432V19.5295C36.9609 19.8105 36.8493 20.08 36.6506 20.2787C36.4519 20.4774 36.1824 20.589 35.9014 20.589H33.9363C33.6469 19.6356 33.0587 18.8005 32.2583 18.2071C31.458 17.6136 30.4881 17.2932 29.4917 17.2932C28.4954 17.2932 27.5255 17.6136 26.7251 18.2071C25.9248 18.8005 25.3365 19.6356 25.0472 20.589H12.7269C12.4356 19.6366 11.8463 18.8027 11.0456 18.2103C10.2449 17.6179 9.27523 17.2981 8.27921 17.2981C7.2832 17.2981 6.31349 17.6179 5.51283 18.2103C4.71216 18.8027 4.12283 19.6366 3.83158 20.589H2.17449C2.01111 20.589 1.85443 20.5241 1.7389 20.4086C1.62338 20.2931 1.55848 20.1364 1.55848 19.973V17.5644H3.94862C4.19369 17.5644 4.42871 17.467 4.60201 17.2938C4.77529 17.1205 4.87264 16.8854 4.87264 16.6404C4.87264 16.3953 4.77529 16.1603 4.60201 15.987C4.42871 15.8137 4.19369 15.7163 3.94862 15.7163H0.615971C0.452595 15.7163 0.295906 15.6514 0.180382 15.5359C0.0648537 15.4204 -4.57764e-05 15.2637 -4.57764e-05 15.1003V1.38164C-4.57764e-05 1.21826 0.0648537 1.06158 0.180382 0.946052C0.295906 0.830527 0.452595 0.765625 0.615971 0.765625ZM29.2115 14.9648H31.4168C31.6619 14.9648 31.8969 14.8675 32.0702 14.6942C32.2435 14.5209 32.3408 14.2858 32.3408 14.0408C32.3408 13.7957 32.2435 13.5607 32.0702 13.3874C31.8969 13.2141 31.6619 13.1168 31.4168 13.1168H29.193C28.9479 13.1168 28.7129 13.2141 28.5396 13.3874C28.3663 13.5607 28.2689 13.7957 28.2689 14.0408C28.2689 14.2858 28.3663 14.5209 28.5396 14.6942C28.7129 14.8675 28.9479 14.9648 29.193 14.9648H29.2115Z" fill="#FD5B44"/>
</svg>
