<svg width="33" height="25" viewBox="0 0 33 25" fill="none" xmlns="http://www.w3.org/2000/svg">
<path d="M6.72359 16.6874C7.00241 16.6874 7.22844 16.4614 7.22844 16.1826C7.22844 15.9038 7.00241 15.6777 6.72359 15.6777C6.44478 15.6777 6.21875 15.9038 6.21875 16.1826C6.21875 16.4614 6.44478 16.6874 6.72359 16.6874Z" fill="#FD5B44"/>
<path d="M16.8209 10.6309C13.7588 10.6309 11.2676 13.1221 11.2676 16.1841C11.2676 19.2462 13.7588 21.7374 16.8209 21.7374C19.8829 21.7374 22.3742 19.2462 22.3742 16.1841C22.3742 13.1221 19.8829 10.6309 16.8209 10.6309ZM16.8458 15.6794C17.9478 15.6928 18.8402 16.5935 18.8402 17.6987C18.8402 18.6046 18.2406 19.3731 17.4175 19.6281C17.3636 19.6449 17.3257 19.6931 17.3257 19.7495V20.2056C17.3257 20.4745 17.1228 20.7093 16.8545 20.7267C16.5605 20.7457 16.316 20.5129 16.316 20.2229V19.7516C16.316 19.696 16.2809 19.6456 16.2278 19.6292C15.4143 19.3788 14.8183 18.6273 14.8018 17.7366C14.7966 17.4557 15.0032 17.2065 15.2839 17.1943C15.5729 17.1818 15.8111 17.4125 15.8111 17.6987C15.8111 18.2714 16.2905 18.7343 16.8691 18.7072C17.3827 18.6832 17.8054 18.2606 17.8294 17.747C17.8564 17.1684 17.3935 16.689 16.8208 16.689C15.7073 16.689 14.8014 15.7831 14.8014 14.6696C14.8014 13.7637 15.4011 12.9952 16.2242 12.7402C16.2781 12.7234 16.316 12.6752 16.316 12.6187V12.1627C16.316 11.8938 16.5188 11.659 16.7872 11.6416C17.0812 11.6226 17.3256 11.8554 17.3256 12.1454V12.6167C17.3256 12.6723 17.3608 12.7227 17.4139 12.7391C18.2274 12.9895 18.8233 13.741 18.8399 14.6317C18.845 14.9126 18.6384 15.1618 18.3578 15.174C18.0688 15.1864 17.8306 14.9558 17.8306 14.6696C17.8306 14.1129 17.3776 13.6599 16.8209 13.6599C16.2606 13.6599 15.8053 14.1188 15.8112 14.6805C15.8171 15.2377 16.2885 15.6727 16.8458 15.6794Z" fill="#FD5B44"/>
<path d="M31.4615 7.60156H2.18055C1.34547 7.60156 0.666016 8.28102 0.666016 9.1161V23.2517C0.666016 24.0868 1.34547 24.7663 2.18055 24.7663H31.4615C32.2966 24.7663 32.9761 24.0868 32.9761 23.2517V9.1161C32.9761 8.28096 32.2966 7.60156 31.4615 7.60156ZM11.2677 22.7469H4.70477C4.42736 22.7469 4.19892 22.5231 4.19993 22.2457C4.20195 21.6861 3.7462 21.2303 3.18658 21.2324C2.90917 21.2334 2.68539 21.0049 2.68539 20.7275V11.6403C2.68539 11.3629 2.90917 11.1345 3.18658 11.1355C3.7462 11.1375 4.20195 10.6817 4.19993 10.1221C4.19892 9.84471 4.42736 9.62094 4.70477 9.62094H11.2505C11.5194 9.62094 11.7541 9.82382 11.7715 10.0921C11.7906 10.3862 11.5577 10.6306 11.2677 10.6306H5.2866C5.20507 10.6306 5.13313 10.683 5.10745 10.7604C4.90702 11.3644 4.42875 11.8426 3.82489 12.043C3.74746 12.0687 3.69508 12.1406 3.69508 12.2222V20.1456C3.69508 20.2272 3.74746 20.2991 3.82489 20.3248C4.42881 20.5252 4.90709 21.0035 5.10745 21.6073C5.13313 21.6847 5.20507 21.7371 5.2866 21.7371H11.2504C11.5193 21.7371 11.754 21.94 11.7715 22.2084C11.7906 22.5024 11.5577 22.7469 11.2677 22.7469ZM8.23868 16.1839C8.23868 17.019 7.55923 17.6985 6.72415 17.6985C5.88907 17.6985 5.20962 17.019 5.20962 16.1839C5.20962 15.3488 5.88907 14.6694 6.72415 14.6694C7.55923 14.6694 8.23868 15.3488 8.23868 16.1839ZM16.821 22.7469C13.2022 22.7469 10.2581 19.8028 10.2581 16.1839C10.2581 12.5651 13.2022 9.62094 16.821 9.62094C20.4399 9.62094 23.384 12.5651 23.384 16.1839C23.384 19.8028 20.4399 22.7469 16.821 22.7469ZM30.9567 20.7275C30.9567 21.0049 30.7329 21.2334 30.4555 21.2324C29.8959 21.2303 29.4401 21.6861 29.4422 22.2457C29.4432 22.5231 29.2147 22.7469 28.9373 22.7469H22.3916C22.1227 22.7469 21.888 22.544 21.8706 22.2757C21.8515 21.9817 22.0844 21.7372 22.3743 21.7372H28.3555C28.437 21.7372 28.5089 21.6848 28.5346 21.6074C28.7351 21.0035 29.2133 20.5252 29.8172 20.3248C29.8946 20.2992 29.947 20.2272 29.947 20.1457V12.2222C29.947 12.1406 29.8946 12.0687 29.8172 12.043C29.2133 11.8426 28.735 11.3643 28.5346 10.7604C28.5089 10.6831 28.437 10.6306 28.3555 10.6306H22.3917C22.1228 10.6306 21.888 10.4277 21.8706 10.1594C21.8516 9.86541 22.0844 9.62094 22.3744 9.62094H28.9374C29.2148 9.62094 29.4432 9.84471 29.4422 10.1221C29.4402 10.6817 29.8959 11.1375 30.4556 11.1355C30.733 11.1345 30.9567 11.3629 30.9567 11.6403V20.7275H30.9567ZM25.4034 16.1839C25.4034 15.3488 26.0829 14.6694 26.9179 14.6694C27.753 14.6694 28.4325 15.3488 28.4325 16.1839C28.4325 17.019 27.753 17.6985 26.9179 17.6985C26.0829 17.6985 25.4034 17.019 25.4034 16.1839Z" fill="#FD5B44"/>
<path d="M26.917 16.6874C27.1958 16.6874 27.4218 16.4614 27.4218 16.1826C27.4218 15.9038 27.1958 15.6777 26.917 15.6777C26.6381 15.6777 26.4121 15.9038 26.4121 16.1826C26.4121 16.4614 26.6381 16.6874 26.917 16.6874Z" fill="#FD5B44"/>
<path d="M31.0797 5.0199C30.9757 4.18526 30.2109 3.59156 29.367 3.70793L10.0815 6.46628C10.004 6.47738 10.0121 6.59186 10.0905 6.59186H31.133C31.2089 6.59186 31.2677 6.52534 31.2583 6.44999L31.0797 5.0199Z" fill="#FD5B44"/>
<path d="M28.2517 2.84673C28.3258 2.83613 28.3739 2.76387 28.3557 2.6913L28.1611 1.91258C27.9567 1.09214 27.1202 0.596257 26.2932 0.818957L10.4233 5.26967C10.3475 5.29093 10.3709 5.40408 10.4489 5.39291C14.4369 4.82263 25.3153 3.26714 28.2517 2.84673Z" fill="#FD5B44"/>
</svg>
