<svg width="50" height="50" viewBox="0 0 50 50" fill="none" xmlns="http://www.w3.org/2000/svg">
<g clip-path="url(#clip0_1129_32985)">
<path d="M44.6651 9.56413H46.21C46.7489 9.56413 47.1859 9.12712 47.1859 8.58821C47.1859 8.04931 46.7489 7.61229 46.21 7.61229H42.5015C41.9626 7.61229 41.5256 8.04931 41.5256 8.58821V12.2967C41.5256 12.8356 41.9626 13.2726 42.5015 13.2726C43.0404 13.2726 43.4774 12.8356 43.4774 12.2967V11.2229C46.4386 15.1872 48.0482 19.9972 48.0482 25C48.0482 37.7088 37.7088 48.0482 25 48.0482C12.2912 48.0482 1.95184 37.7088 1.95184 25C1.95184 12.2912 12.2912 1.95184 25 1.95184C25.9399 1.95184 26.8859 2.00894 27.8118 2.12146C28.3461 2.18607 28.8334 1.80555 28.8984 1.27046C28.9635 0.735455 28.5825 0.24886 28.0474 0.183864C27.0436 0.0618735 26.0184 0 25 0C18.3223 0 12.0441 2.60044 7.32234 7.32234C2.60044 12.0441 0 18.3223 0 25C0 31.6777 2.60044 37.9559 7.32234 42.6777C12.0441 47.3996 18.3223 50 25 50C31.6777 50 37.9559 47.3996 42.6777 42.6777C47.3996 37.9559 50 31.6777 50 25C50 19.3649 48.1174 13.9552 44.6651 9.56413Z" fill="#E42E3B"/>
<path d="M10.5864 14.738C10.131 14.4497 9.52814 14.5854 9.23976 15.0405C7.01182 18.5593 6.02556 22.7911 6.46267 26.9564C6.90623 31.1836 8.80879 35.1698 11.8199 38.181C15.4537 41.8149 20.2271 43.6318 25.0005 43.6318C29.7739 43.6318 34.5472 41.815 38.1811 38.181C45.4489 30.9132 45.4489 19.0876 38.1811 11.8199C35.1746 8.81347 31.1949 6.91159 26.9748 6.46462C22.8172 6.02399 18.59 7.00255 15.0726 9.21955C14.6166 9.50696 14.4801 10.1096 14.7674 10.5655C15.0548 11.0216 15.6574 11.1581 16.1134 10.8708C22.7436 6.69191 31.2504 7.64958 36.8009 13.2C43.3076 19.7068 43.3076 30.294 36.8009 36.8008C30.2942 43.3076 19.7068 43.3076 13.2001 36.8008C7.72639 31.327 6.75438 22.6147 10.889 16.0848C11.1772 15.6293 11.0418 15.0264 10.5864 14.738Z" fill="#E42E3B"/>
<path d="M37.6869 25.9919H38.8904C39.4293 25.9919 39.8663 25.5549 39.8663 25.016C39.8663 24.4771 39.4293 24.04 38.8904 24.04H37.6869C37.148 24.04 36.7109 24.4771 36.7109 25.016C36.7109 25.5549 37.1479 25.9919 37.6869 25.9919Z" fill="#E42E3B"/>
<path d="M10.1328 24.9837C10.1328 25.5226 10.5698 25.9597 11.1087 25.9597H12.3122C12.8511 25.9597 13.2882 25.5226 13.2882 24.9837C13.2882 24.4448 12.8511 24.0078 12.3122 24.0078H11.1087C10.5698 24.0078 10.1328 24.4447 10.1328 24.9837Z" fill="#E42E3B"/>
<path d="M25.9909 12.3132V11.1097C25.9909 10.5708 25.5539 10.1338 25.015 10.1338C24.4761 10.1338 24.0391 10.5708 24.0391 11.1097V12.3132C24.0391 12.8521 24.4761 13.2891 25.015 13.2891C25.5539 13.2891 25.9909 12.8521 25.9909 12.3132Z" fill="#E42E3B"/>
<path d="M24.0078 37.6869V38.8904C24.0078 39.4293 24.4448 39.8663 24.9837 39.8663C25.5226 39.8663 25.9597 39.4293 25.9597 38.8904V37.6869C25.9597 37.148 25.5226 36.7109 24.9837 36.7109C24.4448 36.7109 24.0078 37.1479 24.0078 37.6869Z" fill="#E42E3B"/>
<path d="M20.1075 18.7281C19.7263 18.3471 19.1085 18.3471 18.7272 18.7281C18.3461 19.1092 18.3461 19.7271 18.7272 20.1083L22.0347 23.4158C21.7813 23.8882 21.6371 24.4276 21.6371 25C21.6371 26.8539 23.1453 28.3621 24.9992 28.3621C26.853 28.3621 28.3612 26.8539 28.3612 25C28.3612 24.4276 28.217 23.8882 27.9636 23.4158L34.6373 16.7422C35.0184 16.3611 35.0184 15.7431 34.6373 15.3619C34.2561 14.9809 33.6383 14.9809 33.257 15.3619L26.5834 22.0356C26.1111 21.7821 25.5717 21.638 24.9992 21.638C24.4267 21.638 23.8873 21.7822 23.415 22.0356L20.1075 18.7281ZM26.4094 25C26.4094 25.7776 25.7768 26.4102 24.9992 26.4102C24.2216 26.4102 23.589 25.7776 23.589 25C23.589 24.2224 24.2216 23.5898 24.9992 23.5898C25.7768 23.5898 26.4094 24.2224 26.4094 25Z" fill="#E42E3B"/>
<path d="M13.1991 13.1991C13.3816 13.0176 13.4859 12.7658 13.4859 12.5091C13.4859 12.2525 13.3816 12.0016 13.1991 11.8191C13.0176 11.6377 12.7667 11.5332 12.5091 11.5332C12.2525 11.5332 12.0007 11.6376 11.8191 11.8191C11.6377 12.0007 11.5332 12.2525 11.5332 12.5091C11.5332 12.7668 11.6376 13.0176 11.8191 13.1991C12.0007 13.3805 12.2525 13.485 12.5091 13.485C12.7667 13.485 13.0176 13.3805 13.1991 13.1991Z" fill="#E42E3B"/>
<path d="M31.7611 2.91571C32.0188 2.91571 32.2706 2.81217 32.452 2.62977C32.6336 2.44824 32.7381 2.19734 32.7381 1.93979C32.7381 1.68312 32.6337 1.43133 32.452 1.24981C32.2706 1.06839 32.0188 0.963867 31.7611 0.963867C31.5044 0.963867 31.2526 1.06829 31.0712 1.24981C30.8897 1.43133 30.7852 1.68312 30.7852 1.93979C30.7852 2.19743 30.8896 2.44824 31.0712 2.62977C31.2526 2.81217 31.5044 2.91571 31.7611 2.91571Z" fill="#E42E3B"/>
</g>
<defs>
<clipPath id="clip0_1129_32985">
<rect width="50" height="50" fill="white"/>
</clipPath>
</defs>
</svg>
