<svg width="30" height="25" viewBox="0 0 30 25" fill="none" xmlns="http://www.w3.org/2000/svg">
<path fill-rule="evenodd" clip-rule="evenodd" d="M15.6504 0.686028C13.3165 0.608305 10.9586 1.24505 8.92282 2.60391C6.63639 4.13173 5.03851 6.38787 4.30252 8.91003C4.09927 8.88521 3.85589 8.89616 3.56689 8.9779C2.4879 9.28404 1.67637 10.1682 1.31148 10.9469C0.838209 11.9616 0.638612 13.3037 0.849156 14.6892C1.05824 16.0704 1.64171 17.2088 2.3715 17.9156C3.10348 18.6228 3.92996 18.8527 4.75098 18.6801C5.97337 18.4192 6.57946 18.224 6.40833 17.0851L5.57965 11.5646C5.74677 8.57688 7.29356 5.76427 9.88067 4.03467C13.3435 1.7216 17.8835 1.86975 21.1866 4.4054C23.4843 6.16711 24.8184 8.80676 24.9724 11.5778L24.3929 15.4395C23.1004 18.9764 19.8963 21.4263 16.1886 21.774H13.7197C13.0826 21.774 12.5696 22.2871 12.5696 22.9235V23.5299C12.5696 24.1666 13.0826 24.6797 13.7197 24.6797H16.8326C17.4694 24.6797 17.9802 24.1666 17.9802 23.5299V23.2128C20.7761 22.5305 23.2165 20.8122 24.8056 18.4159L25.8029 18.6805C26.6144 18.891 27.4507 18.6228 28.1823 17.916C28.9121 17.2088 29.4952 16.0707 29.7047 14.6896C29.916 13.3041 29.7105 11.9642 29.2427 10.9472C28.7731 9.93027 28.0736 9.28441 27.2661 9.0527C26.9278 8.95527 26.5607 8.91951 26.2458 8.91003C25.5803 6.62943 24.2101 4.55537 22.2353 3.04106C20.2937 1.55119 17.9843 0.762655 15.6504 0.686028Z" fill="#FD5B44"/>
<path fill-rule="evenodd" clip-rule="evenodd" d="M19.2932 10.6173C20.116 10.6173 20.7831 11.2843 20.7849 12.1093C20.7831 12.9322 20.116 13.601 19.2932 13.601C18.4682 13.601 17.7993 12.9322 17.7993 12.1093C17.7993 11.2847 18.4685 10.6173 19.2932 10.6173ZM15.2757 10.6173C16.1004 10.6173 16.7674 11.2843 16.7674 12.1093C16.7674 12.9322 16.1004 13.601 15.2757 13.601C14.4503 13.601 13.7833 12.9322 13.7833 12.1093C13.7833 11.2847 14.4503 10.6173 15.2757 10.6173ZM11.2597 10.6173C12.0825 10.6173 12.7514 11.2843 12.7514 12.1093C12.7514 12.9322 12.0825 13.601 11.2597 13.601C10.435 13.601 9.76762 12.9322 9.76762 12.1093C9.76762 11.2847 10.435 10.6173 11.2597 10.6173ZM15.2757 4.20898C10.9006 4.20898 7.375 7.61856 7.375 12.1093C7.375 14.2662 8.19054 16.1724 9.51912 17.5711L9.04768 19.6845C8.89223 20.38 9.37462 20.8478 9.99969 20.4997L12.0635 19.3485C13.0444 19.7743 14.1292 20.0097 15.2757 20.0097C19.6523 20.0097 23.1757 16.6023 23.1757 12.1093C23.1757 7.61856 19.6523 4.20898 15.2757 4.20898Z" fill="#FD5B44"/>
</svg>
