<svg width="48" height="48" viewBox="0 0 48 48" fill="none" xmlns="http://www.w3.org/2000/svg">
<path d="M12.75 42.75C13.3465 42.7493 13.9184 42.5121 14.3403 42.0903C14.7621 41.6684 14.9993 41.0965 15 40.5V31.5C15 30.9033 14.7629 30.331 14.341 29.909C13.919 29.4871 13.3467 29.25 12.75 29.25C12.1533 29.25 11.581 29.4871 11.159 29.909C10.7371 30.331 10.5 30.9033 10.5 31.5V40.5C10.5007 41.0965 10.7379 41.6684 11.1597 42.0903C11.5816 42.5121 12.1535 42.7493 12.75 42.75ZM12 31.5C12 31.3011 12.079 31.1103 12.2197 30.9697C12.3603 30.829 12.5511 30.75 12.75 30.75C12.9489 30.75 13.1397 30.829 13.2803 30.9697C13.421 31.1103 13.5 31.3011 13.5 31.5V40.5C13.5 40.6989 13.421 40.8897 13.2803 41.0303C13.1397 41.171 12.9489 41.25 12.75 41.25C12.5511 41.25 12.3603 41.171 12.2197 41.0303C12.079 40.8897 12 40.6989 12 40.5V31.5Z" fill="#BF2FC2"/>
<path d="M20.25 42.75C20.8465 42.7493 21.4184 42.5121 21.8403 42.0903C22.2621 41.6684 22.4993 41.0965 22.5 40.5V31.5C22.5 30.9033 22.2629 30.331 21.841 29.909C21.419 29.4871 20.8467 29.25 20.25 29.25C19.6533 29.25 19.081 29.4871 18.659 29.909C18.2371 30.331 18 30.9033 18 31.5V40.5C18.0007 41.0965 18.2379 41.6684 18.6597 42.0903C19.0816 42.5121 19.6535 42.7493 20.25 42.75ZM19.5 31.5C19.5 31.3011 19.579 31.1103 19.7197 30.9697C19.8603 30.829 20.0511 30.75 20.25 30.75C20.4489 30.75 20.6397 30.829 20.7803 30.9697C20.921 31.1103 21 31.3011 21 31.5V40.5C21 40.6989 20.921 40.8897 20.7803 41.0303C20.6397 41.171 20.4489 41.25 20.25 41.25C20.0511 41.25 19.8603 41.171 19.7197 41.0303C19.579 40.8897 19.5 40.6989 19.5 40.5V31.5Z" fill="#BF2FC2"/>
<path d="M27.75 42.75C28.3465 42.7493 28.9184 42.5121 29.3403 42.0903C29.7621 41.6684 29.9993 41.0965 30 40.5V31.5C30 30.9033 29.7629 30.331 29.341 29.909C28.919 29.4871 28.3467 29.25 27.75 29.25C27.1533 29.25 26.581 29.4871 26.159 29.909C25.7371 30.331 25.5 30.9033 25.5 31.5V40.5C25.5007 41.0965 25.7379 41.6684 26.1597 42.0903C26.5816 42.5121 27.1535 42.7493 27.75 42.75ZM27 31.5C27 31.3011 27.079 31.1103 27.2197 30.9697C27.3603 30.829 27.5511 30.75 27.75 30.75C27.9489 30.75 28.1397 30.829 28.2803 30.9697C28.421 31.1103 28.5 31.3011 28.5 31.5V40.5C28.5 40.6989 28.421 40.8897 28.2803 41.0303C28.1397 41.171 27.9489 41.25 27.75 41.25C27.5511 41.25 27.3603 41.171 27.2197 41.0303C27.079 40.8897 27 40.6989 27 40.5V31.5Z" fill="#BF2FC2"/>
<path d="M35.25 42.75C35.8465 42.7493 36.4184 42.5121 36.8403 42.0903C37.2621 41.6684 37.4993 41.0965 37.5 40.5V31.5C37.5 30.9033 37.2629 30.331 36.841 29.909C36.419 29.4871 35.8467 29.25 35.25 29.25C34.6533 29.25 34.081 29.4871 33.659 29.909C33.2371 30.331 33 30.9033 33 31.5V40.5C33.0007 41.0965 33.2379 41.6684 33.6597 42.0903C34.0816 42.5121 34.6535 42.7493 35.25 42.75ZM34.5 31.5C34.5 31.3011 34.579 31.1103 34.7197 30.9697C34.8603 30.829 35.0511 30.75 35.25 30.75C35.4489 30.75 35.6397 30.829 35.7803 30.9697C35.921 31.1103 36 31.3011 36 31.5V40.5C36 40.6989 35.921 40.8897 35.7803 41.0303C35.6397 41.171 35.4489 41.25 35.25 41.25C35.0511 41.25 34.8603 41.171 34.7197 41.0303C34.579 40.8897 34.5 40.6989 34.5 40.5V31.5Z" fill="#BF2FC2"/>
<path d="M43.5 20.25C43.5006 18.1761 42.6936 16.1835 41.25 14.6945V12C41.25 11.8011 41.171 11.6103 41.0303 11.4697C40.8897 11.329 40.6989 11.25 40.5 11.25H40.0606L41.0303 10.2803C41.5687 9.74188 41.8713 9.01155 41.8713 8.25003C41.8713 7.48851 41.5688 6.75818 41.0303 6.2197C40.4918 5.68122 39.7615 5.3787 39 5.37869C38.2385 5.37868 37.5081 5.68119 36.9697 6.21966L31.9393 11.25H30.75V9C30.75 8.83772 30.6974 8.67982 30.6 8.55L28.5 5.74997V3C28.5 2.80109 28.421 2.61032 28.2803 2.46967C28.1397 2.32902 27.9489 2.25 27.75 2.25H18C17.8011 2.25 17.6103 2.32902 17.4697 2.46967C17.329 2.61032 17.25 2.80109 17.25 3V5.74997L15.15 8.55L15.1507 8.55056C15.0529 8.67998 15 8.83778 15 9V11.6879C14.5461 11.4153 14.0293 11.2652 13.5 11.2521V8.25C13.5 8.05109 13.421 7.86032 13.2803 7.71967C13.1397 7.57902 12.9489 7.5 12.75 7.5H8.25C8.05109 7.5 7.86032 7.57902 7.71967 7.71967C7.57902 7.86032 7.5 8.05109 7.5 8.25V11.2521C6.69758 11.274 5.93532 11.6079 5.37516 12.1829C4.81499 12.7579 4.50104 13.5286 4.5 14.3313V20.25C3.70435 20.25 2.94129 20.5661 2.37868 21.1287C1.81607 21.6913 1.5 22.4544 1.5 23.25C1.5 24.0456 1.81607 24.8087 2.37868 25.3713C2.94129 25.9339 3.70435 26.25 4.5 26.25H4.6065L7.04578 42.1056C7.1974 43.1223 7.7103 44.0504 8.49052 44.7197C9.27073 45.389 10.266 45.7548 11.294 45.75H36.706C37.734 45.7548 38.7293 45.389 39.5095 44.7197C40.2897 44.0503 40.8026 43.1222 40.9542 42.1055L43.3935 26.25H43.5C44.2957 26.25 45.0587 25.9339 45.6213 25.3713C46.1839 24.8087 46.5 24.0456 46.5 23.25C46.5 22.4544 46.1839 21.6913 45.6213 21.1287C45.0587 20.5661 44.2957 20.25 43.5 20.25ZM35.5607 15.75H38.947C38.0277 17.0725 37.5246 18.6395 37.5024 20.25H31.0607L35.5607 15.75ZM40.5321 16.1422C41.4811 17.3008 41.9998 18.7523 42 20.25H39.0028C39.0275 18.7461 39.5673 17.2961 40.5321 16.1422ZM39.75 12.75V14.25H37.0606L38.5606 12.75H39.75ZM38.0303 7.28034C38.1572 7.15138 38.3085 7.04883 38.4753 6.9786C38.6421 6.90837 38.8211 6.87185 39.0021 6.87115C39.1831 6.87045 39.3624 6.90558 39.5298 6.97451C39.6971 7.04344 39.8491 7.14481 39.9771 7.27278C40.1051 7.40076 40.2065 7.55279 40.2754 7.72013C40.3444 7.88747 40.3795 8.06679 40.3788 8.24778C40.3781 8.42876 40.3416 8.60781 40.2714 8.77461C40.2012 8.94142 40.0986 9.09267 39.9697 9.21966L24.9697 24.2197C24.8427 24.3486 24.6914 24.4512 24.5246 24.5214C24.3578 24.5916 24.1788 24.6281 23.9978 24.6288C23.8168 24.6295 23.6375 24.5944 23.4701 24.5255C23.3028 24.4566 23.1508 24.3552 23.0228 24.2272C22.8948 24.0992 22.7934 23.9472 22.7245 23.7799C22.6555 23.6125 22.6204 23.4332 22.6211 23.2522C22.6218 23.0712 22.6583 22.8922 22.7285 22.7254C22.7988 22.5586 22.9013 22.4073 23.0303 22.2803L38.0303 7.28034ZM26.25 6.75L25.125 8.25H17.25L18.375 6.75H26.25ZM16.5 9.75H24.75V18.4393L22.9394 20.25H16.5V9.75ZM29.25 13.9393V12.75H30.4393L29.25 13.9393ZM29.25 11.25H28.5C28.3011 11.25 28.1103 11.329 27.9697 11.4697C27.829 11.6103 27.75 11.8011 27.75 12V15C27.7499 15.1227 27.78 15.2434 27.8377 15.3517L26.25 16.9393V9.25003L27.75 7.25006L29.25 9.25003V11.25ZM27 3.75V5.25H18.75V3.75H27ZM12 9V11.25H9V9H12ZM6 18.75H13.5V17.25H6V14.3313C6.00045 13.912 6.16719 13.5101 6.46364 13.2136C6.76009 12.9172 7.16204 12.7504 7.58128 12.75H13.4187C13.838 12.7504 14.2399 12.9172 14.5364 13.2136C14.8328 13.5101 14.9996 13.912 15 14.3313V20.25H6V18.75ZM3 23.25C3.00047 22.8523 3.15866 22.4711 3.43986 22.1899C3.72106 21.9087 4.10232 21.7505 4.5 21.75H21.5511C21.2748 22.2016 21.1286 22.7206 21.1286 23.25C21.1286 23.7794 21.2748 24.2984 21.5511 24.75H4.5C4.10232 24.7495 3.72106 24.5913 3.43986 24.3101C3.15866 24.0289 3.00047 23.6477 3 23.25ZM39.4716 41.8774C39.3729 42.5393 39.039 43.1435 38.5311 43.5792C38.0232 44.015 37.3752 44.2531 36.706 44.25H11.294C10.6248 44.2531 9.97681 44.015 9.46887 43.5793C8.96094 43.1436 8.62704 42.5394 8.52834 41.8775L6.12422 26.25H41.8758L39.4716 41.8774ZM43.5 24.75H26.5607L29.5607 21.75H43.5C43.8978 21.75 44.2794 21.908 44.5607 22.1893C44.842 22.4706 45 22.8522 45 23.25C45 23.6478 44.842 24.0294 44.5607 24.3107C44.2794 24.592 43.8978 24.75 43.5 24.75Z" fill="#BF2FC2"/>
</svg>
