<svg width="31" height="24" viewBox="0 0 31 24" fill="none" xmlns="http://www.w3.org/2000/svg">
<path d="M30.4087 2.58625C30.0164 2.12246 29.467 1.83917 28.8615 1.7886L7.53744 0.0080719C6.93194 -0.0424946 6.34324 0.145755 5.87939 0.538044C5.41743 0.928796 5.13455 1.47545 5.08239 2.07793L4.65337 6.1029H2.94032C1.68628 6.1029 0.666016 7.12316 0.666016 8.37721V21.7257C0.666016 22.9797 1.68628 24 2.94032 24H24.3387C25.5928 24 26.6131 22.9797 26.6131 21.7257V19.5603L27.3724 19.6237C27.4364 19.629 27.5001 19.6317 27.5633 19.6317C28.7324 19.6317 29.7291 18.7322 29.8281 17.5465L30.9388 4.24436C30.9893 3.63892 30.8011 3.0501 30.4087 2.58625ZM2.94032 7.28574H24.3387C24.9405 7.28574 25.4302 7.77538 25.4302 8.37721V9.59352H1.84886V8.37721C1.84886 7.77538 2.33849 7.28574 2.94032 7.28574ZM1.84886 10.7764H25.4302V13.2301H1.84886V10.7764ZM24.3387 22.8172H2.94032C2.33849 22.8172 1.84886 22.3275 1.84886 21.7257V14.413H25.4302V21.7257C25.4302 22.3275 24.9405 22.8172 24.3387 22.8172ZM29.7601 4.14589L28.6493 17.4481C28.5992 18.0478 28.0704 18.4952 27.4708 18.445L26.6131 18.3733V8.37721C26.6131 7.12316 25.5928 6.1029 24.3387 6.1029H5.84296L6.25926 2.19716C6.25973 2.19266 6.26015 2.18823 6.2605 2.18367C6.31059 1.58391 6.83909 1.13656 7.43902 1.18683L28.7632 2.96736C29.0537 2.99161 29.3174 3.12758 29.5057 3.35019C29.6939 3.5728 29.7843 3.85532 29.7601 4.14589Z" fill="#FF0004"/>
<path d="M22.9553 16.1709H17.2633C16.9367 16.1709 16.6719 16.4357 16.6719 16.7623V20.4758C16.6719 20.8025 16.9367 21.0672 17.2633 21.0672H22.9553C23.2819 21.0672 23.5467 20.8025 23.5467 20.4758V16.7623C23.5467 16.4357 23.2819 16.1709 22.9553 16.1709ZM22.3638 19.8844H17.8547V17.3537H22.3638V19.8844Z" fill="#FF0004"/>
</svg>
