<svg width="50" height="50" viewBox="0 0 50 50" fill="none" xmlns="http://www.w3.org/2000/svg">
<g clip-path="url(#clip0_1129_33003)">
<path d="M46.6615 8.32334C44.6511 8.51724 43.1479 10.2558 43.2463 12.2731L43.3972 18.4582C41.7435 18.6226 40.296 19.6397 39.5806 21.1396L37.3202 25.8855C36.9689 26.6213 36.4561 27.269 35.8207 27.7798L35.3509 28.1565C32.9618 30.0632 31.6303 32.9987 31.7705 36.0519L30.8469 35.6125C30.4284 35.4129 29.927 35.5908 29.7278 36.0093L27.2497 41.2127C27.0505 41.6316 27.228 42.1326 27.6465 42.3318L39.0666 47.7704C39.2674 47.8664 39.4982 47.8787 39.7081 47.804C39.918 47.7294 40.0898 47.5749 40.1853 47.3736L42.6638 42.1695C42.863 41.7509 42.6855 41.25 42.267 41.0507L41.7795 40.8187L41.6578 39.1908C41.609 38.555 41.8095 37.925 42.2165 37.4338L48.1303 30.2776C48.1422 30.2632 48.1537 30.2485 48.1647 30.2333C49.3839 28.5312 50.0267 26.484 49.9992 24.3909C49.9984 24.3511 49.9947 24.3113 49.9885 24.272L47.5724 9.02761C47.5027 8.58898 47.1034 8.2803 46.6615 8.32334ZM39.0305 45.8933L29.1268 41.1766L30.883 37.4888L40.7867 42.2055L39.0305 45.8933ZM46.8177 29.2302L40.9224 36.3643C40.2382 37.1891 39.9016 38.2476 39.9832 39.3159L40.0336 39.9869L33.5422 36.8956C33.0811 34.0842 34.1744 31.243 36.4011 29.4663L36.8709 29.0896C37.7039 28.4201 38.3758 27.5716 38.8366 26.6074L41.0966 21.8615C41.6877 20.6252 43.0262 19.9291 44.3781 20.1554L41.0744 27.0928C40.8781 27.5109 41.056 28.009 41.4733 28.2078C41.8902 28.4062 42.3895 28.2307 42.5904 27.8147L46.3053 20.0139C46.5045 19.595 46.327 19.094 45.908 18.8948C45.642 18.7686 45.3649 18.6673 45.0799 18.5919L44.9246 12.2218C44.9246 12.2145 44.9246 12.2071 44.9238 12.2001C44.8807 11.3737 45.3259 10.5989 46.0609 10.2193L48.3209 24.4741C48.3308 26.1782 47.8052 27.8417 46.8177 29.2302Z" fill="#E42E3B"/>
<path d="M1.86975 30.2776L7.78352 37.4338C8.19058 37.925 8.39104 38.555 8.34226 39.1908L8.22051 40.8187L7.73309 41.0507C7.31455 41.25 7.13704 41.7509 7.33627 42.1695L9.81476 47.3736C9.91027 47.5749 10.082 47.7294 10.2919 47.804C10.5018 47.8787 10.7326 47.8664 10.9339 47.7704L22.3535 42.3318C22.7721 42.1326 22.9496 41.6316 22.7504 41.2127L20.2719 36.0089C20.0726 35.5904 19.5717 35.4124 19.1531 35.6121L18.2296 36.0515C18.3693 32.9983 17.0383 30.0628 14.6492 28.1561L14.1794 27.7794C13.5436 27.2686 13.0311 26.6213 12.6794 25.8855L10.419 21.1396C9.70367 19.6397 8.25618 18.6226 6.60249 18.4582L6.75375 12.2731C6.85214 10.2562 5.3489 8.51724 3.33856 8.32334C2.89665 8.2803 2.49737 8.58898 2.42768 9.02761L0.0115033 24.272C0.00494432 24.3113 0.00166482 24.3511 0.000844941 24.3909C-0.0266209 26.484 0.616162 28.5312 1.83532 30.2333C1.84639 30.2485 1.85786 30.2632 1.86975 30.2776ZM20.8732 41.177L10.9696 45.8933L9.21338 42.2055L19.1171 37.4888L20.8732 41.177ZM3.93912 10.2189C4.67414 10.5985 5.11933 11.3737 5.07629 12.1997C5.07629 12.2071 5.07588 12.2145 5.07547 12.2218L4.9201 18.5919C4.63519 18.6669 4.35767 18.7681 4.09162 18.8948C3.67307 19.094 3.49516 19.5954 3.6948 20.0139L7.40965 27.8151C7.61052 28.2312 8.10983 28.4066 8.52673 28.2078C8.94364 28.0094 9.12196 27.5113 8.9256 27.0932L5.62191 20.1554C6.97389 19.9287 8.31275 20.6248 8.90347 21.8615L11.1639 26.6074C11.6246 27.5716 12.2961 28.4201 13.1291 29.0896L13.5989 29.4663C15.8257 31.243 16.919 34.0842 16.4578 36.8956L9.96644 39.9869L10.0169 39.3159C10.0984 38.2476 9.76188 37.1891 9.0781 36.3643L3.18237 29.2302C2.19524 27.8417 1.66929 26.1782 1.67954 24.4741L3.93912 10.2189Z" fill="#E42E3B"/>
<path d="M35.0121 20.4456C35.3601 20.3345 35.5971 20.0119 35.5991 19.6462V6.33966C35.5971 5.9744 35.3601 5.65178 35.0121 5.54069L25.2601 2.39605C25.092 2.34194 24.9112 2.34194 24.7431 2.39605L14.9882 5.54028C14.6398 5.65137 14.4029 5.97399 14.4004 6.33966V19.6462C14.4024 20.0119 14.6394 20.3341 14.9874 20.4456L24.7394 23.5898C24.8231 23.6165 24.9108 23.63 24.9985 23.63C25.0871 23.63 25.1752 23.6165 25.2592 23.5898L35.0121 20.4456ZM25.8393 21.6381V10.0943L33.92 7.49158V19.0354L25.8393 21.6381ZM24.9997 4.07721L32.0142 6.33966L24.9997 8.60128L17.9853 6.33966L24.9997 4.07721ZM16.0795 7.49199L24.1602 10.0947V21.6385L16.0795 19.0358V7.49199Z" fill="#E42E3B"/>
</g>
<defs>
<clipPath id="clip0_1129_33003">
<rect width="50" height="50" fill="white"/>
</clipPath>
</defs>
</svg>
