<svg width="45" height="24" viewBox="0 0 45 24" fill="none" xmlns="http://www.w3.org/2000/svg">
<path d="M38.1485 24.0004C37.3972 24.001 36.6626 23.7787 36.0376 23.3617C35.4127 22.9447 34.9255 22.3517 34.6376 21.6577C34.3497 20.9638 34.2741 20.2 34.4203 19.4631C34.5665 18.7262 34.928 18.0492 35.4591 17.5177C35.9902 16.9863 36.6669 16.6243 37.4037 16.4775C38.1406 16.3307 38.9044 16.4058 39.5985 16.6931C40.2927 16.9805 40.886 17.4673 41.3035 18.092C41.721 18.7166 41.9438 19.4511 41.9438 20.2025C41.9433 21.209 41.5434 22.1744 40.8318 22.8865C40.1202 23.5986 39.1552 23.9992 38.1485 24.0004ZM38.1485 17.7898C37.6712 17.7892 37.2045 17.9303 36.8074 18.195C36.4103 18.4598 36.1006 18.8364 35.9176 19.2772C35.7346 19.718 35.6864 20.2032 35.7792 20.6713C35.8719 21.1395 36.1015 21.5697 36.4388 21.9073C36.7761 22.245 37.206 22.4751 37.674 22.5684C38.1421 22.6617 38.6273 22.6141 39.0683 22.4316C39.5093 22.249 39.8863 21.9398 40.1515 21.543C40.4167 21.1462 40.5583 20.6796 40.5583 20.2025C40.5581 19.5631 40.3042 18.95 39.8524 18.4977C39.4006 18.0453 38.7878 17.7908 38.1485 17.7898Z" fill="#FF0004"/>
<path d="M18.1338 24.0004C17.3824 24.0012 16.6478 23.779 16.0227 23.3621C15.3976 22.9452 14.9102 22.3523 14.6222 21.6584C14.3342 20.9644 14.2584 20.2007 14.4046 19.4637C14.5507 18.7267 14.9121 18.0496 15.4432 17.518C15.9742 16.9865 16.6509 16.6244 17.3878 16.4775C18.1246 16.3307 18.8885 16.4057 19.5827 16.6931C20.2769 16.9804 20.8703 17.4672 21.2878 18.0919C21.7053 18.7166 21.9282 19.451 21.9282 20.2025C21.9274 21.2088 21.5275 22.1739 20.8162 22.8859C20.1049 23.5979 19.1402 23.9987 18.1338 24.0004ZM18.1338 17.7898C17.6565 17.789 17.1897 17.9299 16.7924 18.1946C16.3952 18.4592 16.0854 18.8358 15.9022 19.2765C15.7191 19.7173 15.6707 20.2025 15.7634 20.6708C15.8561 21.139 16.0856 21.5692 16.4228 21.907C16.7601 22.2448 17.19 22.4749 17.6581 22.5683C18.1262 22.6617 18.6114 22.6141 19.0525 22.4316C19.4936 22.2492 19.8706 21.9399 20.1358 21.5431C20.4011 21.1463 20.5427 20.6797 20.5427 20.2025C20.5422 19.5633 20.2884 18.9505 19.8368 18.4983C19.3853 18.046 18.7729 17.7912 18.1338 17.7898Z" fill="#FF0004"/>
<path d="M43.1454 20.8938H41.251C41.0673 20.8938 40.8911 20.8209 40.7612 20.691C40.6313 20.561 40.5583 20.3848 40.5583 20.2011C40.5583 20.0174 40.6313 19.8412 40.7612 19.7113C40.8911 19.5814 41.0673 19.5084 41.251 19.5084H42.9496V15.835C42.9492 15.3384 42.822 14.85 42.5802 14.4163L38.8301 7.69299C38.7981 7.63562 38.7513 7.58782 38.6947 7.55454C38.638 7.52125 38.5735 7.50369 38.5078 7.50364H33.3972V19.5111H35.0468C35.2306 19.5111 35.4068 19.5841 35.5367 19.714C35.6666 19.844 35.7396 20.0202 35.7396 20.2039C35.7396 20.3876 35.6666 20.5638 35.5367 20.6937C35.4068 20.8236 35.2306 20.8966 35.0468 20.8966H32.7045C32.5207 20.8966 32.3445 20.8236 32.2146 20.6937C32.0847 20.5638 32.0117 20.3876 32.0117 20.2039V6.8109C32.0117 6.62718 32.0847 6.45098 32.2146 6.32106C32.3445 6.19115 32.5207 6.11816 32.7045 6.11816H38.5078C38.8203 6.11801 39.1272 6.20132 39.3967 6.35948C39.6663 6.51764 39.8887 6.74491 40.041 7.0178L43.7901 13.742C44.1466 14.382 44.3338 15.1024 44.3342 15.835V19.7051C44.3337 20.0202 44.2083 20.3223 43.9855 20.5451C43.7626 20.768 43.4606 20.8934 43.1454 20.8938Z" fill="#FF0004"/>
<path d="M15.032 20.8948H8.39001C8.20628 20.8948 8.03008 20.8218 7.90016 20.6919C7.77025 20.5619 7.69727 20.3857 7.69727 20.202V14.8744C7.69727 14.6907 7.77025 14.5145 7.90016 14.3845C8.03008 14.2546 8.20628 14.1816 8.39001 14.1816C8.57373 14.1816 8.74993 14.2546 8.87985 14.3845C9.00976 14.5145 9.08275 14.6907 9.08275 14.8744V19.5093H15.032C15.2157 19.5093 15.3919 19.5823 15.5218 19.7122C15.6518 19.8421 15.7247 20.0183 15.7247 20.202C15.7247 20.3857 15.6518 20.5619 15.5218 20.6919C15.3919 20.8218 15.2157 20.8948 15.032 20.8948Z" fill="#FF0004"/>
<path d="M8.39001 12.4159C8.20628 12.4159 8.03008 12.3429 7.90016 12.213C7.77025 12.0831 7.69727 11.9069 7.69727 11.7232V7.07165C7.69727 6.88792 7.77025 6.71172 7.90016 6.5818C8.03008 6.45189 8.20628 6.37891 8.39001 6.37891C8.57373 6.37891 8.74993 6.45189 8.87985 6.5818C9.00976 6.71172 9.08275 6.88792 9.08275 7.07165V11.7259C9.08201 11.9092 9.00871 12.0847 8.87887 12.214C8.74904 12.3433 8.57325 12.4159 8.39001 12.4159Z" fill="#FF0004"/>
<path d="M32.7052 20.894H21.2362C21.0525 20.894 20.8763 20.821 20.7463 20.6911C20.6164 20.5612 20.5434 20.385 20.5434 20.2012C20.5434 20.0175 20.6164 19.8413 20.7463 19.7114C20.8763 19.5815 21.0525 19.5085 21.2362 19.5085H32.0124V1.38548H9.08275V4.23865C9.08275 4.42237 9.00976 4.59857 8.87985 4.72849C8.74993 4.8584 8.57373 4.93139 8.39001 4.93139C8.20628 4.93139 8.03008 4.8584 7.90016 4.72849C7.77025 4.59857 7.69727 4.42237 7.69727 4.23865V1.25802C7.69775 0.924359 7.83058 0.604522 8.0666 0.368678C8.30261 0.132834 8.62255 0.000244258 8.95621 0H32.1399C32.4734 0.000488641 32.7931 0.133186 33.0289 0.369004C33.2647 0.604822 33.3974 0.924519 33.3979 1.25802V20.2012C33.3979 20.385 33.3249 20.5612 33.195 20.6911C33.0651 20.821 32.8889 20.894 32.7052 20.894Z" fill="#FF0004"/>
<path d="M11.1276 15.5671H2.33532C2.15159 15.5671 1.97539 15.4941 1.84548 15.3642C1.71556 15.2343 1.64258 15.0581 1.64258 14.8744C1.64258 14.6907 1.71556 14.5145 1.84548 14.3845C1.97539 14.2546 2.15159 14.1816 2.33532 14.1816H11.1276C11.3113 14.1816 11.4875 14.2546 11.6174 14.3845C11.7473 14.5145 11.8203 14.6907 11.8203 14.8744C11.8203 15.0581 11.7473 15.2343 11.6174 15.3642C11.4875 15.4941 11.3113 15.5671 11.1276 15.5671Z" fill="#FF0004"/>
<path d="M18.1335 12.4158H5.86462C5.68089 12.4158 5.50469 12.3428 5.37477 12.2129C5.24486 12.0829 5.17188 11.9067 5.17188 11.723C5.17188 11.5393 5.24486 11.3631 5.37477 11.2332C5.50469 11.1033 5.68089 11.0303 5.86462 11.0303H18.1335C18.3172 11.0303 18.4934 11.1033 18.6233 11.2332C18.7533 11.3631 18.8262 11.5393 18.8262 11.723C18.8262 11.9067 18.7533 12.0829 18.6233 12.2129C18.4934 12.3428 18.3172 12.4158 18.1335 12.4158Z" fill="#FF0004"/>
<path d="M5.48373 8.75853H0.69274C0.509014 8.75853 0.332813 8.68554 0.202899 8.55563C0.0729849 8.42571 0 8.24951 0 8.06579C0 7.88206 0.0729849 7.70586 0.202899 7.57595C0.332813 7.44603 0.509014 7.37305 0.69274 7.37305H5.48373C5.66746 7.37305 5.84366 7.44603 5.97357 7.57595C6.10349 7.70586 6.17647 7.88206 6.17647 8.06579C6.17647 8.24951 6.10349 8.42571 5.97357 8.55563C5.84366 8.68554 5.66746 8.75853 5.48373 8.75853Z" fill="#FF0004"/>
<path d="M13.1653 4.93138H4.70837C4.52464 4.93138 4.34844 4.85839 4.21852 4.72848C4.08861 4.59857 4.01563 4.42236 4.01562 4.23864C4.01562 4.05491 4.08861 3.87871 4.21852 3.7488C4.34844 3.61888 4.52464 3.5459 4.70837 3.5459H13.1653C13.3491 3.5459 13.5253 3.61888 13.6552 3.7488C13.7851 3.87871 13.8581 4.05491 13.8581 4.23864C13.8581 4.42236 13.7851 4.59857 13.6552 4.72848C13.5253 4.85839 13.3491 4.93138 13.1653 4.93138Z" fill="#FF0004"/>
</svg>
