<svg width="40" height="24" viewBox="0 0 40 24" fill="none" xmlns="http://www.w3.org/2000/svg">
<path d="M18.1952 7.17479C18.7279 7.17479 19.1597 7.60801 19.1597 8.13931C19.1597 8.42131 19.3886 8.65018 19.6706 8.65018C19.9526 8.65018 20.1815 8.42131 20.1815 8.13931C20.1815 7.04401 19.2905 6.15305 18.1952 6.15305H18.044V5.71302C18.044 5.43102 17.8151 5.20215 17.5331 5.20215C17.2511 5.20215 17.0222 5.43102 17.0222 5.71302V6.15305H16.871C15.7757 6.15305 14.8848 7.04401 14.8848 8.13931C14.8848 9.23462 15.7757 10.1256 16.871 10.1256H17.0222V12.056H16.871C16.3384 12.056 15.9065 11.6241 15.9065 11.0915C15.9065 10.8095 15.6776 10.5806 15.3956 10.5806C15.1136 10.5806 14.8848 10.8095 14.8848 11.0915C14.8848 12.1868 15.7757 13.0777 16.871 13.0777H17.0222V13.5178C17.0222 13.7998 17.2511 14.0286 17.5331 14.0286C17.8151 14.0286 18.044 13.7998 18.044 13.5178V13.0777H18.1952C19.2905 13.0777 20.1815 12.1868 20.1815 11.0915C20.1815 9.99615 19.2905 9.1052 18.1952 9.1052H18.044V7.17479H18.1952ZM19.1611 11.0915C19.1611 11.6241 18.7279 12.056 18.1966 12.056H18.0454V10.1256H18.1966C18.7279 10.1269 19.1611 10.5588 19.1611 11.0915ZM17.0222 9.1052H16.871C16.3384 9.1052 15.9065 8.67198 15.9065 8.14067C15.9065 7.60937 16.3397 7.17615 16.871 7.17615H17.0222V9.1052Z" fill="#FF0004"/>
<path d="M17.5331 3.03613C13.9053 3.03613 10.9531 5.98828 10.9531 9.61614C10.9531 13.244 13.9053 16.1962 17.5331 16.1962C21.161 16.1962 24.1131 13.244 24.1131 9.61614C24.1131 5.98828 21.161 3.03613 17.5331 3.03613ZM17.5331 15.173C14.4679 15.173 11.9749 12.68 11.9749 9.61478C11.9749 6.54956 14.4679 4.05651 17.5331 4.05651C20.5984 4.05651 23.0914 6.54956 23.0914 9.61478C23.0914 12.68 20.5984 15.173 17.5331 15.173Z" fill="#FF0004"/>
<path d="M38.9898 4.76403H37.1166V2.89084C37.1166 2.60884 36.8878 2.37997 36.6058 2.37997H34.7326V0.51087C34.7326 0.22887 34.5037 0 34.2217 0H0.844855C0.562854 0 0.333984 0.22887 0.333984 0.51087V18.7169C0.333984 18.9989 0.562854 19.2278 0.844855 19.2278H2.71805V21.1051C2.71805 21.3871 2.94691 21.6159 3.22892 21.6159H5.10211V23.4891C5.10211 23.7711 5.33098 24 5.61298 24H38.9898C39.2718 24 39.5007 23.7711 39.5007 23.4891V5.2749C39.5007 4.9929 39.2718 4.76403 38.9898 4.76403ZM6.23419 18.2061C5.98898 15.619 3.94277 13.5728 1.35572 13.3276V5.90157C3.94277 5.65635 5.98898 3.61015 6.23419 1.02174H28.8324C29.0776 3.60879 31.1238 5.65499 33.7108 5.90157V13.3276C31.1238 13.5728 29.0776 15.619 28.8324 18.2061H6.23419ZM33.7108 14.3493V18.2061H29.8541C30.0912 16.1816 31.6864 14.5864 33.7108 14.3493ZM33.7108 4.87983C31.6864 4.64279 30.0912 3.04751 29.8541 1.02174H33.7108V4.87983ZM5.21245 1.02174C4.97541 3.04615 3.38013 4.64279 1.35572 4.87983V1.02174H5.21245ZM1.35572 14.3493C3.38013 14.5864 4.97541 16.1816 5.21245 18.2061H1.35572V14.3493ZM3.73979 19.2278H34.2217C34.5037 19.2278 34.7326 18.9989 34.7326 18.7169V3.40171H36.0949V20.5942H3.73979V19.2278ZM38.479 22.9796H6.12385V21.6173H36.6058C36.8878 21.6173 37.1166 21.3884 37.1166 21.1064V5.78577H38.479V22.9796Z" fill="#FF0004"/>
</svg>
