<svg width="25" height="25" viewBox="0 0 25 25" fill="none" xmlns="http://www.w3.org/2000/svg">
<path d="M4.01953 14.2012H6.15858V15.7801H4.01953V14.2012Z" fill="#FD5B44"/>
<path d="M22.8937 10.0195H1.73813C0.962626 10.0195 0.333984 10.6482 0.333984 11.4237V23.3625C0.333984 24.1379 0.962626 24.7666 1.73813 24.7666H22.8937C23.6692 24.7666 24.2978 24.1379 24.2978 23.3624V11.4237C24.2978 10.6482 23.6692 10.0195 22.8937 10.0195ZM5.99696 21.7197H2.52155V20.3156H5.99696V21.7197ZM7.5623 16.0148C7.5623 16.6599 7.0374 17.1848 6.39221 17.1848H3.78507C3.13988 17.1848 2.61497 16.6599 2.61497 16.0148V13.9678C2.61497 13.3226 3.13988 12.7977 3.78507 12.7977H6.39216C7.03735 12.7977 7.56226 13.3226 7.56226 13.9678L7.5623 16.0148ZM11.368 21.7197H7.89263V20.3156H11.368V21.7197ZM16.7392 21.7197H13.2638V20.3156H16.7392V21.7197ZM22.1103 21.7197H18.6348V20.3156H22.1103V21.7197Z" fill="#FD5B44"/>
<path d="M19.1827 4.17651L16.1831 1.17688C15.6348 0.628539 14.7457 0.628539 14.1973 1.17688L6.75977 8.61445H14.9983L19.1827 4.17651Z" fill="#FD5B44"/>
<path d="M19.098 8.61453L21.2936 6.28592L20.1776 5.16992L16.9297 8.61453H19.098Z" fill="#FD5B44"/>
<path d="M22.8939 8.61458C23.1955 8.61458 23.4859 8.66295 23.7584 8.75136L22.2864 7.2793L21.0273 8.61463L22.8939 8.61458Z" fill="#FD5B44"/>
</svg>
