<svg width="24" height="32" viewBox="0 0 24 32" fill="none" xmlns="http://www.w3.org/2000/svg">
<path d="M21.2706 12.1454C21.1842 12.0373 21.0796 12.0585 21.0248 12.0806C20.9789 12.0992 20.8736 12.1587 20.8882 12.3078C20.9057 12.4869 20.9155 12.6694 20.9174 12.8505C20.9252 13.6016 20.6239 14.3375 20.0908 14.8694C19.561 15.3979 18.8643 15.6827 18.1224 15.6744C17.109 15.6615 16.2685 15.1329 15.6917 14.1459C15.2148 13.3297 15.4244 12.277 15.6463 11.1625C15.7762 10.5101 15.9105 9.83546 15.9105 9.1934C15.9105 4.19411 12.5497 1.30987 10.5463 0.0355624C10.5049 0.00924996 10.4654 0 10.4305 0C10.3737 0 10.3287 0.0244999 10.3065 0.0394998C10.2635 0.0686247 10.1947 0.134999 10.2168 0.252499C10.9825 4.31886 8.69855 6.76454 6.28043 9.35378C3.78794 12.0227 0.962891 15.0478 0.962891 20.5035C0.962891 26.8427 6.12018 32 12.4594 32C17.6789 32 22.2808 28.361 23.6503 23.1507C24.5842 19.598 23.6056 15.0725 21.2706 12.1454ZM12.7462 29.5461C11.1589 29.6184 9.64923 29.0491 8.49617 27.9466C7.35549 26.8559 6.70124 25.3337 6.70124 23.7703C6.70124 20.8365 7.82299 18.6828 10.8401 15.8236C10.8895 15.7767 10.94 15.7619 10.9841 15.7619C11.024 15.7619 11.0587 15.7741 11.0825 15.7856C11.1327 15.8097 11.2152 15.8696 11.204 15.9991C11.0962 17.2544 11.098 18.2964 11.2095 19.0961C11.4945 21.1389 12.99 22.5115 14.9309 22.5115C15.8825 22.5115 16.789 22.1534 17.4833 21.503C17.5638 21.4275 17.6538 21.4372 17.6883 21.4445C17.734 21.4544 17.7952 21.4824 17.8273 21.5597C18.1151 22.2547 18.2623 22.9925 18.2645 23.7525C18.2737 26.8103 15.7982 29.4093 12.7462 29.5461Z" fill="#E42E3B"/>
</svg>
