<svg width="24" height="27" viewBox="0 0 24 27" fill="none" xmlns="http://www.w3.org/2000/svg">
<mask id="mask0_918_18009" style="mask-type:luminance" maskUnits="userSpaceOnUse" x="0" y="0" width="21" height="27">
<path d="M0.755857 14.61C2.7319 9.87843 5.68031 8.39685 5.68031 8.39685C2.71913 12.022 4.83312 15.8894 5.39123 11.4472C5.94934 7.00503 8.48315 5.08268 11.5432 5.12642C15.01 5.17603 14.8806 1.9789 14.8806 1.9789C15.7694 3.64958 14.6909 5.32843 13.3411 6.41425C11.5328 7.8688 12.9277 9.36131 13.7361 7.73643C14.2077 6.78849 15.4633 5.52444 17.6994 4.52795C20.448 3.30314 18.7234 0.000461578 18.7234 0.000461578C21.6484 3.25756 22.1643 7.38399 17.1549 9.99012C13.7812 11.7452 12.6888 13.7936 13.2503 14.9273C13.8559 16.15 14.9149 15.6088 15.6684 14.4104C18.4551 9.97869 20.409 13.6279 20.409 13.6279C16.8246 11.6073 17.1618 17.8084 17.1619 17.8098H17.1621C17.2149 19.1984 16.9305 20.6197 16.2679 21.9514C14.1566 26.1952 9.00471 27.9239 4.76094 25.8125C0.618412 23.7513 -1.12754 18.7927 0.755857 14.61Z" fill="white"/>
</mask>
<g mask="url(#mask0_918_18009)">
<path d="M15.6339 18.874L15.2509 19.224L14.8067 18.9563L14.4982 19.3734L14.0118 19.1932L13.7837 19.6593L13.2732 19.567L13.1281 20.0652L12.6093 20.0598L12.5487 20.5751L12.0361 20.6556L12.0622 21.1737L11.5706 21.3396L11.6856 21.8454L11.2312 22.0958L11.4364 22.5722L11.037 22.9033L11.3317 23.2986L11.0015 23.6648L11.3667 23.9958L11.1172 24.421L11.5437 24.6682L11.3921 25.1372L11.8628 25.2837L11.8208 25.7747L12.3124 25.8101L12.384 26.2977L12.8707 26.2202L13.0501 26.6791L13.5077 26.4958L13.7816 26.9055L14.1915 26.6313L14.5413 26.9785L14.9243 26.6285L15.3686 26.8963L15.677 26.4791L16.1635 26.6593L16.3915 26.1933L16.9021 26.2855L17.0472 25.7874L17.566 25.7928L17.6266 25.2775L18.1392 25.197L18.1131 24.6789L18.6047 24.5129L18.4897 24.0071L18.9441 23.7568L18.7388 23.2804L19.1383 22.9493L18.8436 22.554L19.1738 22.1878L18.8085 21.8568L19.058 21.4315L18.6316 21.1844L18.7831 20.7154L18.3125 20.5689L18.3544 20.0778L17.8629 20.0425L17.7913 19.5549L17.3046 19.6324L17.1252 19.1735L16.6675 19.3567L16.3937 18.947L15.9838 19.2213L15.6339 18.874Z" fill="#FFEE58"/>
<path d="M6.54102 14.0714L3.92424 28.1123L1.3644 26.695L2.5595 14.8897L6.54102 14.0714Z" fill="#424242"/>
</g>
<path d="M0.755857 14.609C2.7319 9.87745 5.68031 8.39588 5.68031 8.39588C2.71913 12.021 4.83312 15.8884 5.39123 11.4462C5.94934 7.00405 8.48315 5.0817 11.5432 5.12545C15.01 5.17505 14.8806 1.97793 14.8806 1.97793C15.7694 3.6486 14.6909 5.32745 13.3411 6.41327C11.5328 7.86782 12.9277 9.36033 13.7361 7.73545C14.2077 6.78751 15.4633 5.52346 17.6994 4.52698C20.448 3.30216 18.7234 -0.000514984 18.7234 -0.000514984C21.6484 3.25658 22.1643 7.38302 17.1549 9.98914C13.7812 11.7443 12.6888 13.7926 13.2503 14.9263C13.8559 16.149 14.9149 15.6078 15.6684 14.4095C18.4551 9.97771 20.409 13.627 20.409 13.627C16.8246 11.6063 17.1618 17.8074 17.1619 17.8089H17.1621C17.2149 19.1974 16.9305 20.6187 16.2679 21.9505C14.1566 26.1942 9.00471 27.9229 4.76094 25.8115C0.618412 23.7503 -1.12754 18.7917 0.755857 14.609Z" fill="url(#paint0_linear_918_18009)"/>
<path opacity="0.51" d="M17.1549 9.98902C15.7812 10.7036 14.786 11.4668 14.1263 12.1972L14.1261 12.1973C15.4042 9.22769 16.7686 7.80736 19.029 6.09824C21.4553 4.26373 18.7233 -0.00064373 18.7233 -0.00064373C21.6484 3.25645 22.1643 7.38289 17.1549 9.98902Z" fill="url(#paint1_linear_918_18009)"/>
<g opacity="0.51">
<path d="M9.71155 6.99578C8.38711 9.58095 6.54146 7.90471 5.39108 11.4463C5.94919 7.0041 8.483 5.08175 11.543 5.1255C11.6253 5.1267 11.705 5.1255 11.7832 5.1231C11.1077 5.3625 10.2832 5.87997 9.71155 6.99578Z" fill="url(#paint2_linear_918_18009)"/>
</g>
<path d="M17.7791 11.1407C17.7791 11.1407 20.5224 11.8848 21.3678 10.231C22.2133 8.57708 23.4481 8.36258 24 8.44556C24 8.44556 21.9793 7.73821 20.7075 8.8737C19.4356 10.0093 18.6879 11.116 17.7791 11.1407Z" fill="url(#paint3_linear_918_18009)"/>
<defs>
<linearGradient id="paint0_linear_918_18009" x1="4.74692" y1="25.8043" x2="16.4261" y2="2.32804" gradientUnits="userSpaceOnUse">
<stop stop-color="#FFEE58"/>
<stop offset="0.1511" stop-color="#FAD753"/>
<stop offset="0.4678" stop-color="#EC9D47"/>
<stop offset="0.9202" stop-color="#D74033"/>
<stop offset="1" stop-color="#D32F2F"/>
</linearGradient>
<linearGradient id="paint1_linear_918_18009" x1="14.1262" y1="6.09832" x2="20.9278" y2="6.09832" gradientUnits="userSpaceOnUse">
<stop stop-color="#FFEE58"/>
<stop offset="0.1511" stop-color="#FAD753"/>
<stop offset="0.315" stop-color="#EC9D47"/>
<stop offset="0.46" stop-color="#D74033"/>
<stop offset="1" stop-color="#D32F2F"/>
</linearGradient>
<linearGradient id="paint2_linear_918_18009" x1="0.571729" y1="23.7271" x2="12.2508" y2="0.251014" gradientUnits="userSpaceOnUse">
<stop stop-color="#FFEE58"/>
<stop offset="0.1511" stop-color="#FAD753"/>
<stop offset="0.4678" stop-color="#EC9D47"/>
<stop offset="0.9202" stop-color="#D74033"/>
<stop offset="1" stop-color="#D32F2F"/>
</linearGradient>
<linearGradient id="paint3_linear_918_18009" x1="20.7501" y1="11.461" x2="21.0326" y2="8.08145" gradientUnits="userSpaceOnUse">
<stop stop-color="#FFEE58"/>
<stop offset="0.1511" stop-color="#FAD753"/>
<stop offset="0.4678" stop-color="#EC9D47"/>
<stop offset="0.9202" stop-color="#D74033"/>
<stop offset="1" stop-color="#D32F2F"/>
</linearGradient>
</defs>
</svg>
