<svg width="18" height="24" viewBox="0 0 18 24" fill="none" xmlns="http://www.w3.org/2000/svg">
<path d="M15.9515 9.10904C15.8867 9.02795 15.8083 9.04389 15.7671 9.06043C15.7327 9.0744 15.6538 9.11903 15.6647 9.23087C15.6778 9.36517 15.6852 9.50209 15.6866 9.63788C15.6924 10.2012 15.4664 10.7531 15.0666 11.1521C14.6693 11.5485 14.1467 11.762 13.5903 11.7558C12.8303 11.7461 12.1999 11.3497 11.7673 10.6094C11.4096 9.99727 11.5668 9.20776 11.7333 8.37184C11.8307 7.88256 11.9314 7.3766 11.9314 6.89505C11.9314 3.14558 9.41078 0.982402 7.90825 0.0266718C7.87717 0.00693747 7.8476 0 7.82139 0C7.77878 0 7.74503 0.0183749 7.72839 0.0296249C7.69614 0.0514685 7.64454 0.10125 7.66113 0.189374C8.23544 3.23914 6.52245 5.0734 4.70886 7.01533C2.83949 9.01703 0.720703 11.2858 0.720703 15.3776C0.720703 20.132 4.58867 24 9.34309 24C13.2577 24 16.7091 21.2708 17.7363 17.363C18.4367 14.6985 17.7027 11.3044 15.9515 9.10904ZM9.5582 22.1596C8.36767 22.2138 7.23546 21.7869 6.37067 20.96C5.51515 20.1419 5.02447 19.0003 5.02447 17.8278C5.02447 15.6274 5.86578 14.0121 8.12861 11.8677C8.16564 11.8326 8.20356 11.8215 8.23661 11.8215C8.26656 11.8215 8.29253 11.8306 8.31039 11.8392C8.34803 11.8573 8.40991 11.9022 8.40156 11.9993C8.32066 12.9408 8.32206 13.7223 8.40569 14.3221C8.61944 15.8542 9.74101 16.8836 11.1967 16.8836C11.9104 16.8836 12.5903 16.615 13.111 16.1273C13.1714 16.0707 13.2389 16.0779 13.2648 16.0834C13.299 16.0908 13.3449 16.1118 13.369 16.1698C13.5849 16.691 13.6952 17.2444 13.6969 17.8144C13.7038 20.1077 11.8472 22.057 9.5582 22.1596Z" fill="#FD5B44"/>
</svg>
