<svg width="20" height="20" viewBox="0 0 20 20" fill="none" xmlns="http://www.w3.org/2000/svg">
<path d="M18.324 12.4375C18.3499 12.3335 18.348 12.222 18.3146 12.1133V12.1132L18.0258 11.1735C17.7923 10.4138 17.3028 9.74453 16.6475 9.28896C16.6454 9.28774 16.6434 9.28628 16.6415 9.28494L16.2595 9.03323C15.8146 8.73977 15.2211 9.06033 15.2211 9.59426V10.0106C15.2211 10.3328 15.2781 10.6415 15.3866 10.9273C14.9486 11.0574 14.5927 11.3877 14.4327 11.8272C13.6514 12.0993 12.9529 12.6087 12.453 13.2742C11.923 13.9799 11.6346 14.8162 11.6144 15.6985C10.7831 16.122 9.95202 16.4227 9.13476 16.5957C9.78723 15.1036 9.80127 13.3982 8.68896 12.2119C9.16345 11.9157 9.61572 11.6066 10.0366 11.2892C10.6411 10.8334 11.205 10.344 11.7124 9.83474C13.6569 7.8893 14.7755 5.72755 15.7396 3.64564C15.971 3.14613 16.0781 2.81263 16.5095 2.58607C16.7974 2.4347 16.9765 2.13733 16.9765 1.80896V0.586305H17.5615V2.02796C17.5615 2.29749 17.681 2.547 17.8886 2.71229C18.0794 2.86475 18.2162 3.06678 18.2951 3.31275C18.9428 5.35182 18.6248 7.50429 17.7119 9.4385C17.6207 9.63027 17.7597 9.85672 17.976 9.85672C18.0886 9.85672 18.1925 9.79092 18.2405 9.68936L18.2407 9.68899C18.5443 9.04556 18.781 8.39553 18.9441 7.75649C19.3512 6.16322 19.2962 4.53236 18.8524 3.13477C18.7401 2.77991 18.5326 2.47498 18.2521 2.25294C18.1862 2.20093 18.1467 2.11658 18.1467 2.02796V0.586305C18.1467 0.263062 17.8842 0 17.5615 0H16.9765C16.6537 0.000366188 16.3915 0.263062 16.3912 0.586305V1.80896C16.3912 1.91724 16.3311 2.01819 16.2387 2.06617C15.6284 2.38453 15.4624 2.85169 15.2091 3.39784C14.4425 5.05385 13.3303 7.38881 11.299 9.41995C10.4214 10.3007 9.41516 11.0829 8.22778 11.8076C7.71935 11.4436 7.10168 11.2321 6.42223 11.203C6.04174 11.1891 5.66612 11.2425 5.29942 11.362C5.84593 10.2815 6.65551 9.53445 7.71532 9.13528C8.036 9.45681 8.41845 9.0104 8.15453 8.74624L7.99865 8.58999C7.92016 8.51137 7.80419 8.48403 7.69909 8.51894C6.57592 8.89419 5.66942 9.62356 5.02757 10.6559C4.92674 9.88748 4.6494 9.12026 3.88536 8.63552L2.9011 8.01113C2.6826 7.87246 2.40879 7.88466 2.20335 8.04201C1.99998 8.19778 1.91697 8.45632 1.99204 8.70071L2.28086 9.64053C2.46397 10.2364 2.80516 10.776 3.25987 11.2012C2.11546 11.2079 1.02414 11.7799 0.423313 12.8639C-0.074857 13.774 -0.13455 14.8826 0.250705 16.0704C0.540013 16.9595 1.0637 17.8094 1.72544 18.4634C2.42344 19.1532 3.21409 19.5563 3.94847 19.5984C4.10094 19.6088 4.25413 19.606 4.40306 19.5903C4.66173 19.5628 4.92418 19.5628 5.1826 19.5901C5.27379 19.5999 5.36595 19.6045 5.45775 19.6045C5.51683 19.6045 5.57579 19.6026 5.63414 19.5987C6.3756 19.5562 7.16942 19.1497 7.86926 18.4538C8.2235 18.1015 8.53759 17.6932 8.79724 17.2538C9.73596 17.1055 10.6919 16.7979 11.6465 16.3366C11.9116 18.4002 13.6759 19.9999 15.8062 19.9999C18.1187 19.9999 20 18.1149 20 15.798C20 14.4671 19.3783 13.2303 18.324 12.4375ZM2.84031 9.46792L2.55161 8.52834C2.5493 8.52114 2.54795 8.51638 2.55869 8.50796C2.58225 8.49001 2.51035 8.45718 3.57237 9.13101C4.29722 9.59085 4.45982 10.4051 4.49278 11.3727L3.98997 11.0413C3.44334 10.6602 3.03501 10.1016 2.84031 9.46792ZM8.77893 15.8888C8.27197 17.4473 6.9005 18.939 5.59777 19.0136C5.47948 19.0215 5.36058 19.0195 5.24449 19.0073C5.09459 18.9914 4.94396 18.9834 4.79308 18.9834C4.64232 18.9834 4.49144 18.9914 4.34178 19.0073C4.22606 19.0196 4.10716 19.0215 3.98533 19.0134C3.38975 18.9793 2.73313 18.6358 2.13657 18.0461C1.54002 17.4566 1.06797 16.6905 0.807347 15.889C0.47324 14.8592 0.517918 13.9104 0.935888 13.1473C1.39133 12.3257 2.21177 11.8306 3.18528 11.789C3.63572 11.7725 4.08055 11.8726 4.51024 12.086L4.63231 12.1664C4.74644 12.2419 4.90416 12.2306 5.00621 12.1216C5.45726 11.8837 5.92638 11.772 6.39916 11.789C8.22045 11.8667 9.53906 13.5458 8.77893 15.8888ZM15.8062 9.59426C15.8062 9.52615 15.8806 9.48525 15.938 9.52297C16.2898 9.75491 16.7392 10.0049 17.1349 10.6289C17.1437 10.71 17.1854 10.7864 17.2551 10.8365C17.341 10.9992 17.4124 11.1696 17.4666 11.346L17.7554 12.2858C17.7575 12.2929 17.7591 12.2976 17.7481 12.3061C17.7337 12.317 17.725 12.3114 17.7186 12.3074L16.7344 11.6829C15.7329 11.0476 15.8062 10.1236 15.8062 9.59426ZM15.8062 19.4135C13.8163 19.4135 12.1975 17.7917 12.1975 15.798C12.1975 14.3406 13.0471 13.0591 14.3508 12.4881C14.3731 12.6988 14.4413 12.9036 14.5536 13.0896C14.6085 13.1808 14.7051 13.231 14.8043 13.231C14.8558 13.231 14.9081 13.2174 14.9553 13.1888C15.0936 13.105 15.1381 12.9248 15.0545 12.7863C14.9346 12.5879 14.8986 12.3537 14.9528 12.1266C15.0237 11.8293 15.2388 11.5989 15.5136 11.5023V12.3197C15.5136 12.4803 15.6371 12.6203 15.7973 12.6252C15.9629 12.63 16.0988 12.497 16.0988 12.3322V11.9391C16.282 12.0972 16.4083 12.1701 16.6831 12.3445C16.681 12.4997 16.6384 12.653 16.558 12.7863C16.4744 12.9248 16.5187 13.105 16.657 13.1888C16.7044 13.2174 16.7565 13.231 16.8081 13.231C16.9071 13.231 17.0037 13.1807 17.0589 13.0896C17.1343 12.9646 17.1901 12.829 17.2251 12.6883L17.4055 12.8029C17.5069 12.8671 17.62 12.8988 17.7328 12.8988C17.7963 12.8988 17.8596 12.8886 17.9208 12.8684C18.8592 13.5489 19.4149 14.6313 19.4149 15.7981C19.4149 17.7917 17.7962 19.4135 15.8062 19.4135Z" fill="#147D77"/>
<path d="M5.54004 8.25685C6.77699 8.25685 7.78334 7.24854 7.78334 6.00916C7.78334 4.7699 6.77699 3.76172 5.54004 3.76172C4.3031 3.76172 3.29688 4.7699 3.29688 6.00916C3.29688 7.24854 4.3031 8.25685 5.54004 8.25685ZM5.54004 4.34802C6.45435 4.34802 7.19813 5.09327 7.19813 6.00916C7.19813 6.92518 6.45435 7.67042 5.54004 7.67042C4.62586 7.67042 3.88196 6.92518 3.88196 6.00916C3.88196 5.09327 4.62586 4.34802 5.54004 4.34802Z" fill="#147D77"/>
<path d="M4.95084 5.82611C5.00797 5.88324 5.08292 5.91193 5.15775 5.91193C5.23258 5.91193 5.30753 5.88324 5.36466 5.82611L5.45035 5.74018L5.53617 5.82611C5.59317 5.88324 5.66812 5.91193 5.74295 5.91193C5.81778 5.91193 5.89273 5.88324 5.94986 5.82611C6.064 5.71149 6.064 5.52594 5.94986 5.41144L5.86417 5.32562L5.94986 5.23969C6.064 5.12518 6.064 4.93951 5.94986 4.82513C5.8356 4.71063 5.65042 4.71063 5.53617 4.82513L5.45035 4.91095L5.36466 4.82513C5.25028 4.71063 5.06509 4.71063 4.95084 4.82513C4.8367 4.93951 4.8367 5.12518 4.95084 5.23969L5.03653 5.32562L4.95084 5.41144C4.8367 5.52594 4.8367 5.71161 4.95084 5.82611Z" fill="#147D77"/>
<path d="M10.872 3.2917C11.3606 2.80207 11.4903 2.12141 11.2699 1.50031L11.356 1.46467C11.5053 1.40266 11.5762 1.23115 11.5143 1.08161C11.4524 0.931951 11.2813 0.861028 11.132 0.922918L10.9904 0.981634C10.9877 0.97785 10.9851 0.973943 10.9822 0.970037L11.0909 0.86115C11.2051 0.746648 11.2051 0.560978 11.0909 0.446598C10.9766 0.332096 10.7913 0.332096 10.677 0.44672L10.568 0.555851C10.5642 0.552922 10.5605 0.550358 10.5568 0.547428L10.6155 0.405338C10.6773 0.255802 10.6065 0.0842924 10.4572 0.0224026C10.308 -0.0396093 10.1368 0.0315579 10.0749 0.181094L10.0395 0.266788C9.41434 0.0427884 8.73978 0.176456 8.25138 0.665837C7.56827 1.35029 6.84695 3.15596 7.61685 3.92744C8.39139 4.70345 10.1969 3.96797 10.872 3.2917ZM7.96536 2.37678C8.1066 1.87946 8.38773 1.35859 8.66519 1.08051C9.16141 0.583317 9.88309 0.670109 10.3754 1.1634C10.8949 1.68391 10.9297 2.40461 10.4582 2.87715C10.1808 3.15498 9.6608 3.43684 9.16446 3.57832C8.64347 3.72664 8.21964 3.70222 8.03067 3.51277C7.84171 3.32344 7.81729 2.89875 7.96536 2.37678Z" fill="#147D77"/>
<path d="M9.54639 2.40866C9.66052 2.29416 9.66052 2.10861 9.54639 1.99399C9.43213 1.87961 9.24695 1.87961 9.13257 1.99399C9.01831 2.10861 9.01831 2.29416 9.13257 2.40866C9.24695 2.52316 9.43213 2.52316 9.54639 2.40866Z" fill="#147D77"/>
<path d="M8.71826 3.23786C8.83264 3.12335 8.83264 2.93781 8.71826 2.82318C8.604 2.70868 8.41882 2.70868 8.30444 2.82318C8.19019 2.93781 8.19019 3.12335 8.30444 3.23786C8.41882 3.35236 8.604 3.35236 8.71826 3.23786Z" fill="#147D77"/>
<path d="M8.71826 2.40866C8.83264 2.29416 8.83264 2.10861 8.71826 1.99399C8.604 1.87961 8.41882 1.87961 8.30444 1.99399C8.19019 2.10861 8.19019 2.29416 8.30444 2.40866C8.41882 2.52316 8.604 2.52316 8.71826 2.40866Z" fill="#147D77"/>
<path d="M9.54639 3.23786C9.66052 3.12335 9.66052 2.93781 9.54639 2.82318C9.43213 2.70868 9.24695 2.70868 9.13257 2.82318C9.01831 2.93781 9.01831 3.12335 9.13257 3.23786C9.24695 3.35236 9.43213 3.35236 9.54639 3.23786Z" fill="#147D77"/>
<path d="M10.3744 2.40866C10.4886 2.29416 10.4886 2.10861 10.3744 1.99399C10.2603 1.87961 10.0748 1.87961 9.96069 1.99399C9.84644 2.10861 9.84644 2.29416 9.96069 2.40866C10.0748 2.52316 10.2601 2.52316 10.3744 2.40866Z" fill="#147D77"/>
<path d="M9.54639 1.57953C9.66052 1.46515 9.66052 1.27936 9.54639 1.16498C9.43213 1.05048 9.24695 1.05048 9.13257 1.16498C9.01831 1.2796 9.01831 1.46515 9.13257 1.57953C9.24695 1.69415 9.43213 1.69415 9.54639 1.57953Z" fill="#147D77"/>
<path d="M10.8669 4.10061C10.7523 4.16933 10.6556 4.26296 10.5832 4.37258C10.2625 4.21267 9.8526 4.2521 9.56695 4.53823C9.28583 4.82009 9.24078 5.22988 9.40436 5.55642C9.22626 5.673 9.09369 5.85256 9.0368 6.06558C8.98041 6.27664 9.00421 6.49563 9.10187 6.68875C8.89898 6.82156 8.75873 7.0336 8.71649 7.27395C8.63617 7.72928 8.92572 8.1713 9.37555 8.28031C9.74945 8.37088 10.1179 8.20914 10.3166 7.90726C10.5728 8.03665 10.8907 8.03995 11.1612 7.87735C11.2766 7.80789 11.374 7.71329 11.4466 7.60245C11.7659 7.76297 12.1757 7.72732 12.463 7.43973C12.7426 7.15933 12.7894 6.75015 12.6259 6.42251C12.8134 6.30044 12.9494 6.10891 13.0015 5.88052C13.0446 5.69204 13.0213 5.50039 12.9468 5.3323C13.0937 5.27566 13.1705 5.11257 13.1185 4.96255C13.0654 4.80971 12.8986 4.72903 12.7458 4.782L12.5734 4.84219L12.6889 4.72634C12.8032 4.61196 12.8032 4.42629 12.6889 4.31179C12.5747 4.19741 12.3894 4.19741 12.2751 4.31179L12.1596 4.42763L12.2195 4.25478C12.2727 4.10183 12.1921 3.93471 12.0394 3.88149C11.8906 3.82973 11.7283 3.90566 11.6713 4.05129C11.4211 3.9413 11.1223 3.94753 10.8669 4.10061ZM11.601 4.9324C11.5952 4.95388 11.5922 4.97536 11.5914 4.99673L11.4851 5.10342C11.2189 5.37002 11.6074 5.80984 11.9218 5.4949C12.0234 5.39272 12.1329 5.37148 12.2398 5.40749C12.5107 5.4988 12.5025 5.90359 12.2114 5.97122C11.9229 6.03836 11.8265 6.39981 12.0424 6.60305C12.0998 6.65725 12.1335 6.73477 12.1347 6.81595C12.1387 7.07559 11.8135 7.21695 11.6273 7.01797C11.4265 6.80325 11.0642 6.9003 10.9977 7.18728C10.9461 7.41006 10.6627 7.49832 10.4981 7.32193C10.2967 7.10672 9.93536 7.20437 9.86823 7.49246C9.83429 7.63785 9.68256 7.75162 9.51312 7.71048C9.26691 7.65066 9.20306 7.31607 9.42633 7.17666C9.55023 7.09915 9.65631 7.14566 9.69965 7.15225C10.0601 7.22989 10.413 7.06631 10.6016 6.76358C10.6279 6.77762 10.655 6.79043 10.6828 6.80191C11.2989 7.05594 11.966 6.52737 11.6359 6.19668C11.5217 6.0823 11.3364 6.0823 11.2221 6.19668C11.0433 6.376 10.748 6.25271 10.7243 6.02407C10.704 5.55398 10.1246 5.63027 10.1375 5.9988C10.1404 6.24465 10.1961 6.39907 10.0423 6.52493C9.97113 6.5834 9.87653 6.59781 9.8139 6.57693C9.74481 6.57693 9.54352 6.43643 9.60211 6.21719C9.63007 6.11233 9.7132 6.03176 9.81891 6.00686C10.106 5.93972 10.2039 5.57729 9.9881 5.37551C9.93024 5.32143 9.8963 5.24392 9.89484 5.16262C9.89044 4.90151 10.2198 4.76162 10.402 4.9562C10.6028 5.17068 10.9639 5.07375 11.0311 4.7875C11.0489 4.71206 11.0985 4.64504 11.1672 4.6039C11.3875 4.47182 11.6697 4.6747 11.601 4.9324Z" fill="#147D77"/>
<path d="M14.2831 13.8477C14.2831 14.0094 14.1519 14.1406 13.9902 14.1406C13.8282 14.1406 13.6973 14.0094 13.6973 13.8477C13.6973 13.6858 13.8282 13.5547 13.9902 13.5547C14.1519 13.5547 14.2831 13.6858 14.2831 13.8477Z" fill="#147D77"/>
<path d="M15.0645 14.9414C15.0645 15.1034 14.9332 15.2344 14.7715 15.2344C14.6097 15.2344 14.4785 15.1034 14.4785 14.9414C14.4785 14.7797 14.6097 14.6484 14.7715 14.6484C14.9332 14.6484 15.0645 14.7797 15.0645 14.9414Z" fill="#147D77"/>
<path d="M13.502 15.8008C13.502 15.9628 13.371 16.0938 13.209 16.0938C13.0472 16.0938 12.916 15.9628 12.916 15.8008C12.916 15.639 13.0472 15.5078 13.209 15.5078C13.371 15.5078 13.502 15.639 13.502 15.8008Z" fill="#147D77"/>
</svg>
