<svg width="24" height="16" viewBox="0 0 24 16" fill="none" xmlns="http://www.w3.org/2000/svg">
<path d="M23.981 11.647C23.9458 11.527 23.864 11.4259 23.7539 11.3666L20.6331 9.68215C20.7822 9.66696 20.9313 9.64465 21.0797 9.61484C22.2219 9.38543 23.2273 8.73912 23.9109 7.79492C24.0142 7.65228 24.0288 7.46375 23.9487 7.30686C23.8687 7.15002 23.7074 7.05125 23.5313 7.05125L21.9093 7.05116L21.6175 5.70355C21.5784 5.5228 21.4366 5.38194 21.2556 5.34402C21.0745 5.30605 20.8882 5.3781 20.7797 5.52791C20.1223 6.43592 19.3312 7.21039 18.4219 7.83781V6.42186C18.4219 2.88084 15.5411 0 12 0C8.45901 0 5.57817 2.88084 5.57817 6.42186V8.48867L0.246154 11.3665C0.0572482 11.4685 -0.0382359 11.6857 0.0143108 11.8938C0.0243889 11.9336 0.0393889 11.9711 0.0585607 12.0057C0.894996 13.5191 2.25198 14.6743 3.87957 15.2583C4.6568 15.5372 5.46891 15.6763 6.28078 15.6763C7.16901 15.6763 8.05682 15.5096 8.89682 15.1772L9.7828 14.8265C10.5853 14.509 11.4838 14.208 12.1098 14.0074C12.3903 14.1089 12.6699 14.2142 12.9482 14.3243L15.1032 15.1772C15.9434 15.5097 16.831 15.6763 17.7193 15.6763C18.531 15.6763 19.3433 15.5372 20.1205 15.2583C21.7481 14.6743 23.1051 13.5192 23.9415 12.0057C24.002 11.8962 24.0163 11.7671 23.981 11.647ZM20.9102 6.86694L21.0731 7.61909C21.1199 7.83472 21.3106 7.98861 21.5312 7.98861L22.4311 7.98865C21.4648 8.7357 20.1665 8.96351 19.0007 8.57754C19.7047 8.08643 20.3431 7.51442 20.9102 6.86694ZM12 0.937451C14.9135 0.937451 17.3032 3.22106 17.4742 6.09233H6.52584C6.69684 3.2211 9.08657 0.937451 12 0.937451ZM9.4378 13.9548L8.55182 14.3055C5.93433 15.3414 2.96837 14.4552 1.32718 12.2478L2.06045 12.2478C4.98122 12.248 7.85301 12.6733 10.6275 13.5146C10.2361 13.6514 9.82668 13.801 9.4378 13.9548ZM15.4482 14.3055L13.2932 13.4526C9.78304 12.0634 6.09323 11.3435 2.32191 11.3115L6.16612 9.2366H9.89066C10.1496 9.2366 10.3594 9.02675 10.3594 8.76785C10.3594 8.50896 10.1496 8.29911 9.89066 8.29911H6.51567V7.02983H17.4844V8.29911H14.1094C13.8505 8.29911 13.6407 8.50896 13.6407 8.76785C13.6407 9.02675 13.8505 9.2366 14.1094 9.2366H17.8339L22.876 11.9581C21.2859 14.3762 18.1775 15.3857 15.4482 14.3055Z" fill="#BF9F65"/>
<path d="M12 8.2998C11.8767 8.2998 11.7558 8.34949 11.6686 8.43668C11.5814 8.52434 11.5312 8.6448 11.5312 8.76855C11.5312 8.89184 11.5814 9.0123 11.6686 9.09996C11.7558 9.18715 11.8767 9.2373 12 9.2373C12.1233 9.2373 12.2442 9.18715 12.3314 9.09996C12.4186 9.0123 12.4687 8.89184 12.4687 8.76855C12.4687 8.6448 12.4186 8.52434 12.3314 8.43668C12.2442 8.34945 12.1233 8.2998 12 8.2998Z" fill="#BF9F65"/>
</svg>
