<svg width="25" height="20" viewBox="0 0 25 20" fill="none" xmlns="http://www.w3.org/2000/svg">
<path d="M23.1293 11.087V11.0311C23.1293 8.09631 21.9786 5.32949 19.8893 3.24012C17.7999 1.15076 15.0331 0 12.0983 0C9.16352 0 6.39669 1.15071 4.30732 3.24008C2.21796 5.32944 1.06725 8.09631 1.06725 11.031V11.087C0.767905 11.1421 0.497297 11.3002 0.302359 11.534C0.107422 11.7678 0.00045119 12.0624 0 12.3668L0 16.6682C0.000400219 17.0133 0.13764 17.3441 0.381616 17.5881C0.625591 17.832 0.956379 17.9693 1.30142 17.9697H2.10567V18.1556C2.10627 18.6446 2.3008 19.1134 2.64659 19.4592C2.99238 19.8049 3.46119 19.9994 3.95019 20H4.6647C4.96431 19.9996 5.25155 19.8805 5.4634 19.6686C5.67525 19.4567 5.79442 19.1695 5.79475 18.8699V10.1648C5.79442 9.86518 5.67525 9.57794 5.4634 9.36608C5.25155 9.15422 4.96431 9.03504 4.6647 9.03469H3.95019C3.46116 9.03524 2.99232 9.22975 2.64653 9.57554C2.30073 9.92134 2.10622 10.3902 2.10567 10.8792V11.0652H1.82339V11.0308C1.82339 5.36545 6.4327 0.756144 12.0983 0.756144C17.7639 0.756144 22.3732 5.36545 22.3732 11.031V11.0654H22.0909V10.8794C22.0904 10.3904 21.8959 9.92153 21.5501 9.57573C21.2043 9.22994 20.7354 9.03543 20.2464 9.03488H19.5321C19.2325 9.03523 18.9453 9.1544 18.7334 9.36627C18.5216 9.57813 18.4024 9.86537 18.4021 10.165V18.8701C18.4025 19.1697 18.5217 19.4569 18.7335 19.6687C18.9453 19.8805 19.2326 19.9996 19.5321 20H20.2466C20.7357 19.9994 21.2045 19.8049 21.5503 19.4591C21.8961 19.1133 22.0906 18.6445 22.0912 18.1554V17.9695H22.8954C23.2404 17.969 23.5711 17.8318 23.815 17.5879C24.0589 17.3439 24.1961 17.0132 24.1966 16.6682V12.3668C24.1961 12.0624 24.0892 11.7678 23.8942 11.534C23.6993 11.3002 23.4287 11.1421 23.1293 11.087ZM2.86181 10.8795C2.86214 10.5909 2.97691 10.3143 3.18095 10.1103C3.38499 9.90621 3.66163 9.79144 3.95019 9.79111H4.6647C4.76384 9.79123 4.85889 9.83066 4.92899 9.90077C4.99909 9.97088 5.03851 10.0659 5.03861 10.1651V18.8702C5.03851 18.9693 4.99909 19.0644 4.92899 19.1345C4.85889 19.2046 4.76384 19.244 4.6647 19.2441H3.95019C3.66163 19.2438 3.38498 19.129 3.18093 18.925C2.97689 18.7209 2.86213 18.4443 2.86181 18.1557V10.8795ZM2.10567 17.2135H1.30142C1.15686 17.2133 1.01828 17.1558 0.916061 17.0536C0.813841 16.9514 0.756331 16.8128 0.756144 16.6682V12.3668C0.756306 12.2222 0.813807 12.0836 0.91603 11.9814C1.01825 11.8792 1.15685 11.8217 1.30142 11.8215H2.10567V17.2135ZM21.3348 18.1555C21.3345 18.4441 21.2197 18.7207 21.0157 18.9248C20.8116 19.1288 20.535 19.2436 20.2464 19.2439H19.5321C19.433 19.2438 19.3379 19.2044 19.2678 19.1343C19.1977 19.0642 19.1583 18.9691 19.1582 18.87V10.1649C19.1583 10.0657 19.1977 9.97069 19.2678 9.90058C19.3379 9.83048 19.433 9.79104 19.5321 9.79093H20.2466C20.5352 9.79125 20.8118 9.90602 21.0159 10.1101C21.2199 10.3141 21.3347 10.5907 21.335 10.8793L21.3348 18.1555ZM23.4405 16.6682C23.4403 16.8128 23.3828 16.9514 23.2806 17.0536C23.1783 17.1559 23.0397 17.2134 22.8952 17.2136H22.0909V11.8215H22.8952C23.0397 11.8217 23.1783 11.8792 23.2806 11.9814C23.3828 12.0836 23.4403 12.2222 23.4405 12.3668V16.6682Z" fill="#FD5B44"/>
</svg>
