<svg width="40" height="70" viewBox="0 0 40 70" fill="none" xmlns="http://www.w3.org/2000/svg">
<path d="M13.4348 41.8076C13.1774 43.106 12.9076 44.4027 12.6672 45.7029C12.1677 48.3007 11.7111 50.9011 11.2491 53.4998L10.5583 57.3969L10.0669 60.1099C10.0669 60.1099 9.99003 60.5609 9.87476 61.2324C9.75234 61.9022 9.58882 62.7925 9.42797 63.6739C9.26713 64.5544 9.08126 65.4206 8.95526 66.0511C8.82927 66.6664 8.77653 66.9236 8.76134 66.9977C8.4477 68.4292 8.17068 69.6026 8.11081 69.8428C8.10813 69.8536 8.10726 69.8598 8.10547 69.8661C8.13764 69.7339 8.33779 68.9284 8.82926 67.1084C9.53876 64.3946 10.5414 60.5609 10.5414 60.5609L11.1588 58.0042L12.0881 54.0856C12.7065 51.4744 13.3213 48.8633 13.9736 46.2655C14.2926 44.9644 14.6348 43.6713 14.9717 42.3764L15.4998 40.4422C15.675 39.7974 15.8537 39.1544 16.0449 38.515L16.6079 36.5951L17.2066 34.6885C17.4005 34.0518 17.6167 33.4222 17.8312 32.7935C18.0492 32.1657 18.2485 31.5308 18.4808 30.9093L19.2216 28.9C19.3404 28.5633 19.4843 28.2374 19.6139 27.9052L20.0133 26.9139C20.0258 26.855 20.0008 26.7201 19.991 26.6898C19.722 25.8646 19.2797 25.544 18.8472 25.494C18.4138 25.4422 17.9911 25.661 17.7275 25.8736C17.6426 25.9316 17.6346 25.9539 17.6132 26.0146L17.262 27.0559C17.1485 27.4042 17.0207 27.748 16.9188 28.0989L16.2799 30.1957C16.0825 30.8325 15.9189 31.479 15.7375 32.1193C15.5606 32.7614 15.3774 33.4017 15.2219 34.0482L14.734 35.9816L14.2828 37.9212C13.9736 39.2134 13.7171 40.5136 13.4348 41.8076Z" fill="#E42E3B"/>
<path d="M0.724163 34.1452C0.777778 34.1908 0.78761 34.1863 0.816204 34.1765C0.834969 34.1693 1.01815 34.097 1.32465 33.9773C1.47745 33.9175 1.66064 33.8452 1.86974 33.7639C2.07705 33.6791 2.31563 33.5978 2.556 33.4746C3.04122 33.2415 3.60417 32.9727 4.20555 32.6842C4.7828 32.369 5.39758 32.035 6.01147 31.7001C6.60749 31.3501 7.20262 31 7.76021 30.6723C8.30887 30.3392 8.82089 30.0293 9.25964 29.7632C10.1345 29.2363 10.7171 28.8863 10.7171 28.8863C10.7171 28.8863 10.8913 28.7737 11.1513 28.6059C11.4149 28.4478 11.7661 28.2379 12.1137 28.0299C12.4649 27.8289 12.8081 27.6182 13.069 27.4923C13.3272 27.361 13.489 27.2806 13.4577 27.294C14.0483 26.9957 14.5452 26.768 14.6479 26.7252C14.6524 26.7234 14.6542 26.7225 14.6578 26.7207C14.5997 26.7457 14.2539 26.8886 13.4505 27.169C13.153 27.2735 12.8152 27.3735 12.4917 27.4967C12.1602 27.6128 11.8358 27.7262 11.5499 27.8263C10.9682 28.02 10.541 28.1701 10.541 28.1701C10.541 28.1701 9.89677 28.4255 8.92902 28.8095C8.44738 29.0023 7.88533 29.2274 7.28305 29.4694C6.68078 29.7016 6.03739 29.9498 5.39401 30.1972C4.74885 30.4222 4.10279 30.6482 3.49516 30.8598C2.88573 31.0375 2.31563 31.2036 1.82417 31.3474C1.58111 31.426 1.35146 31.4644 1.14951 31.509C0.947559 31.5519 0.770639 31.5894 0.623199 31.6207C0.329211 31.6832 0.154052 31.7198 0.13618 31.7243C0.113841 31.7394 0.0834677 31.8207 0.0781062 31.843C-0.063973 32.4405 0.00305683 32.9718 0.156753 33.3665C0.308661 33.7612 0.547234 34.0211 0.724163 34.1452Z" fill="#E42E3B"/>
<path d="M12.2231 22.2447C12.1793 22.2464 11.9532 22.2491 11.4528 22.2089C11.074 22.1714 10.6129 22.1268 10.2456 22.0768C9.8721 22.025 9.60492 21.9875 9.60492 21.9875C9.60492 21.9875 9.1885 21.9571 8.5621 21.9125C7.93838 21.8705 7.10825 21.8062 6.28795 21.7276C5.88226 21.6794 5.47657 21.6303 5.09501 21.5838C4.72238 21.5213 4.37389 21.4624 4.07365 21.4115C3.77609 21.3588 3.53482 21.2891 3.35968 21.2525C3.18633 21.2114 3.08268 21.1873 3.07285 21.1855C3.05676 21.1927 3.01924 21.2579 3.01119 21.2766C2.78154 21.7892 2.677 22.3107 2.65823 22.7322C2.63768 23.1555 2.70112 23.4806 2.76635 23.6565C2.78423 23.7172 2.79137 23.7163 2.80924 23.7163C2.82175 23.7154 2.94149 23.711 3.14344 23.7021C3.3436 23.6904 3.62686 23.6878 3.95569 23.6574C4.28185 23.6226 4.66074 23.5824 5.06553 23.5395C5.46139 23.4788 5.88225 23.4145 6.30223 23.3502C6.71418 23.2734 7.12522 23.1975 7.51125 23.1261C7.89192 23.0493 8.24668 22.9778 8.5496 22.9162C9.15366 22.7939 9.55577 22.7126 9.55577 22.7126C9.55577 22.7126 9.67729 22.6813 9.85869 22.634C10.0401 22.5903 10.2814 22.5358 10.5208 22.4867C10.7603 22.4384 10.998 22.3884 11.1705 22.3661C11.3429 22.3411 11.4511 22.3268 11.4305 22.3277C11.8255 22.2714 12.1516 22.2456 12.2186 22.2447C12.2213 22.2447 12.2222 22.2447 12.2231 22.2447Z" fill="#E42E3B"/>
<path d="M12.2246 18.8887C12.2368 18.8958 12.2368 18.8958 12.2246 18.8887V18.8887Z" fill="#E42E3B"/>
<path d="M1.63236 12.5311C1.64487 12.5409 1.76463 12.6391 1.9639 12.8016C2.16674 12.9606 2.43749 13.2008 2.78062 13.4509C3.12465 13.6973 3.52409 13.9831 3.95122 14.2876C4.38729 14.5671 4.85105 14.8645 5.31482 15.1619C5.78485 15.4378 6.25397 15.7138 6.69361 15.9709C7.13683 16.2147 7.55056 16.4425 7.90442 16.6371C8.25827 16.8309 8.55672 16.9827 8.76313 17.0926C8.97044 17.2015 9.08841 17.264 9.08841 17.264C9.08841 17.264 9.68175 17.54 10.2519 17.823C10.8228 18.1052 11.3661 18.4026 11.3206 18.3749C11.7781 18.6196 12.1445 18.8375 12.2168 18.8857C12.2195 18.8875 12.2204 18.8875 12.2222 18.8893C12.1766 18.8598 11.9327 18.6973 11.4126 18.2946C11.0248 17.99 10.5646 17.6034 10.2063 17.2881C9.84617 16.9738 9.58791 16.7318 9.58791 16.7318C9.58791 16.7318 9.17419 16.3871 8.55137 15.8691C8.24576 15.6057 7.8901 15.2985 7.50765 14.9681C7.13681 14.6305 6.74185 14.2698 6.3451 13.9081C5.96712 13.5348 5.58824 13.1615 5.2326 12.8106C4.89929 12.4453 4.58654 12.1042 4.31757 11.8104C4.05129 11.5166 3.85829 11.2478 3.70727 11.0683C3.56073 10.8861 3.47314 10.7763 3.4642 10.7656C3.44454 10.7575 3.36592 10.7772 3.34626 10.7843C2.80029 10.9888 2.37584 11.3121 2.09615 11.6291C1.81377 11.9461 1.67348 12.2551 1.62702 12.4489C1.60736 12.5096 1.61449 12.5159 1.63236 12.5311Z" fill="#E42E3B"/>
<path d="M15.9577 16.2741C15.9416 16.2518 15.855 16.1241 15.6995 15.8097C15.586 15.574 15.4672 15.2757 15.3823 15.0337C15.2947 14.7926 15.2429 14.6068 15.2429 14.6068C15.2429 14.6068 15.1383 14.3407 14.9811 13.9407C14.9033 13.7415 14.8122 13.5093 14.7148 13.2602C14.6236 13.0092 14.5378 12.7378 14.4476 12.4708C14.3591 12.2038 14.2706 11.9367 14.1875 11.6858C14.1214 11.4313 14.0598 11.192 14.0062 10.9866C13.9016 10.5803 13.8301 10.3034 13.8266 10.2891C13.8149 10.2829 13.7425 10.2927 13.7229 10.2972C13.1876 10.4106 12.6935 10.6044 12.3182 10.7973C11.9411 10.991 11.6811 11.1839 11.5524 11.3054C11.5059 11.3447 11.5086 11.3482 11.5157 11.359C11.5265 11.3724 11.7141 11.6206 11.9902 11.985C12.1279 12.1645 12.2869 12.3734 12.4567 12.5967C12.639 12.8074 12.8338 13.0316 13.0268 13.2557C13.2198 13.4763 13.4128 13.696 13.5933 13.9023C13.7828 14.0978 13.9579 14.2809 14.1089 14.4372C14.4092 14.7479 14.6084 14.9542 14.6084 14.9542C14.6084 14.9542 14.6746 15.0123 14.7746 15.0989C14.8747 15.1846 15.0061 15.2989 15.1321 15.415C15.3849 15.6463 15.611 15.8856 15.5941 15.8633C15.788 16.0598 15.9309 16.233 15.9568 16.2714C15.9568 16.2723 15.9568 16.2732 15.9577 16.2741Z" fill="#E42E3B"/>
<path d="M15.957 16.2754C15.9608 16.2801 15.9608 16.2801 15.957 16.2754V16.2754Z" fill="#E42E3B"/>
<path d="M20.8762 10.2119C20.9942 9.54572 21.1139 8.96616 21.1809 8.5518C21.2471 8.13655 21.2873 7.88918 21.2873 7.88918L21.5875 5.4718C21.5938 5.42 21.6018 5.36821 21.6108 5.31641L21.6778 4.77346C21.6992 4.59218 21.7251 4.41089 21.7394 4.22961L21.8386 3.14103L22.037 0.958511C22.0325 0.897786 21.9718 0.777224 21.9539 0.752219C21.4705 0.0583484 20.929 -0.0747095 20.509 0.0333451C20.0827 0.1414 19.7709 0.489674 19.6109 0.774545C19.5555 0.856702 19.5564 0.879028 19.56 0.942432L19.6878 3.09191L19.7521 4.16889C19.7655 4.34838 19.7664 4.52788 19.7727 4.70738L19.787 5.24586L19.7914 5.40036L19.8468 7.4659C19.8468 7.4659 19.8727 7.92312 19.9121 8.60449C19.9317 9.28496 19.9425 10.1896 19.9478 11.0862C19.946 11.9819 19.963 12.8713 19.9246 13.5125C19.8969 14.1546 19.8763 14.5546 19.8835 14.4787C19.8165 15.9442 19.7199 17.147 19.6913 17.3935C19.6905 17.4025 19.6905 17.4069 19.6896 17.4132C19.7047 17.2676 19.7995 16.4416 20.1104 14.5957C20.2248 13.9072 20.3848 13.1472 20.4983 12.3891C20.6234 11.6291 20.7547 10.8772 20.8762 10.2119Z" fill="#E42E3B"/>
<path d="M19.6879 17.4121C19.6843 17.4448 19.6852 17.4439 19.6879 17.4121V17.4121Z" fill="#E42E3B"/>
<path d="M23.6113 17.0236C23.6337 16.987 23.7579 16.787 24.076 16.3664C24.3173 16.052 24.6291 15.6823 24.8874 15.3912C25.0187 15.2447 25.1313 15.1188 25.2117 15.0304C25.2895 14.9384 25.335 14.884 25.335 14.884C25.335 14.884 26.3734 13.4882 27.4189 12.0826C27.6789 11.7352 27.938 11.3869 28.1829 11.0592C28.4384 10.7484 28.677 10.4573 28.8826 10.2064C29.2918 9.70896 29.5706 9.37051 29.5849 9.35265C29.5867 9.3339 29.5465 9.2687 29.534 9.25174C29.19 8.79987 28.7717 8.47124 28.4036 8.26407C28.0345 8.0551 27.7155 7.9658 27.5297 7.94347C27.468 7.93186 27.4653 7.93811 27.4564 7.95419C27.4457 7.97741 27.2553 8.39712 26.9748 9.0133C26.8362 9.3196 26.6754 9.67502 26.5038 10.0546C26.351 10.435 26.1893 10.8404 26.0276 11.2449C25.3895 12.8479 24.7569 14.4392 24.7569 14.4392C24.7569 14.4392 24.7149 14.5634 24.6514 14.7491C24.5809 14.9286 24.4843 15.1671 24.3843 15.401C24.1859 15.8699 23.9688 16.3181 23.9902 16.2806C23.8142 16.6584 23.6515 16.9602 23.614 17.0192C23.6122 17.0209 23.6122 17.0218 23.6113 17.0236Z" fill="#E42E3B"/>
<path d="M23.6115 17.0234C23.6056 17.0323 23.6066 17.0323 23.6115 17.0234V17.0234Z" fill="#E42E3B"/>
<path d="M28.6485 18.8906C28.6401 18.8959 28.6411 18.8948 28.6485 18.8906V18.8906Z" fill="#E42E3B"/>
<path d="M39.9817 13.2697C39.9969 13.2519 40.0014 13.1697 40.0005 13.1483C39.9665 12.5571 39.7673 12.0633 39.5358 11.7087C39.3044 11.3533 39.0408 11.1372 38.8665 11.0417C38.8111 11.005 38.804 11.0104 38.7843 11.0238C38.7584 11.0425 38.2714 11.3881 37.5556 11.8945C37.2 12.1472 36.7881 12.4401 36.3484 12.7527C35.9293 13.084 35.4825 13.4367 35.0375 13.7886C34.5943 14.1395 34.152 14.4905 33.7383 14.8191C33.3326 15.1513 32.9537 15.4612 32.6293 15.7264C31.9806 16.2577 31.549 16.6114 31.549 16.6114C31.549 16.6114 31.4212 16.7248 31.2318 16.8936C31.037 17.0534 30.7787 17.2669 30.5223 17.4785C30.0058 17.8955 29.4857 18.2849 29.5331 18.2527C29.1015 18.5832 28.7351 18.8377 28.6574 18.8859C28.6538 18.8886 28.6511 18.8903 28.6484 18.8921C28.6869 18.8671 28.9451 18.7037 29.5661 18.3715C30.0228 18.1304 30.5893 17.8571 31.045 17.6482C31.5052 17.4374 31.8403 17.2838 31.8403 17.2838C31.8403 17.2838 32.3407 17.0195 33.0922 16.6221C33.4684 16.423 33.9072 16.1908 34.379 15.9425C34.8508 15.7023 35.3539 15.446 35.8578 15.1897C36.3609 14.9352 36.864 14.6789 37.3376 14.4387C37.8184 14.2261 38.2687 14.027 38.6565 13.8555C39.4286 13.5144 39.9531 13.2822 39.9817 13.2697Z" fill="#E42E3B"/>
<path d="M28.655 22.6168C28.6541 22.6168 28.6532 22.6168 28.6523 22.6168C28.6774 22.6177 28.8141 22.6275 29.1152 22.6972C29.5656 22.8008 30.2063 23.0705 30.2063 23.0705C30.2063 23.0705 31.1973 23.3607 32.1945 23.6536C33.1667 23.9456 34.1452 24.2394 34.172 24.2474C34.1827 24.2403 34.2077 24.1733 34.214 24.1537C34.3757 23.6339 34.4517 23.1089 34.4758 22.6874C34.5008 22.2641 34.4731 21.9435 34.441 21.7711C34.4329 21.7122 34.4284 21.7122 34.4177 21.7131C34.3891 21.7175 33.3499 21.8765 32.3196 22.0346C31.3134 22.1944 30.3135 22.3534 30.3135 22.3534C30.3135 22.3534 30.0079 22.4337 29.7086 22.4891C29.4092 22.5472 29.1161 22.5793 29.142 22.5793C28.8963 22.6132 28.6961 22.6204 28.655 22.6168Z" fill="#E42E3B"/>
<path d="M24.9711 25.8189C24.9575 25.8117 24.9466 25.8053 24.9375 25.8008C24.9466 25.8062 24.9575 25.8117 24.9711 25.8189Z" fill="#E42E3B"/>
<path d="M24.9375 25.8018C24.9311 25.7982 24.9248 25.7946 24.9202 25.7919C24.8921 25.7782 24.8966 25.7801 24.9375 25.8018Z" fill="#E42E3B"/>
<path d="M27.3807 27.5583C27.8042 27.928 28.1045 28.2173 28.1045 28.2173C28.1045 28.2173 28.5879 28.6299 29.301 29.2711C30.0159 29.9114 30.9595 30.783 31.9496 31.6376C32.4455 32.0653 32.9557 32.485 33.4481 32.8717C33.7001 33.061 33.9431 33.2441 34.1755 33.4182C34.4096 33.5906 34.6419 33.7442 34.8528 33.8915C35.2781 34.1827 35.6579 34.405 35.9233 34.5711C36.1994 34.7238 36.3638 34.8158 36.3808 34.8247C36.4085 34.8283 36.4854 34.7872 36.5033 34.7747C36.9947 34.4157 37.2422 33.9451 37.3647 33.5388C37.4862 33.1289 37.4844 32.7788 37.4513 32.577C37.446 32.51 37.437 32.5074 37.4138 32.4984C37.3986 32.4931 37.2458 32.4413 36.992 32.3555C36.7409 32.2555 36.3844 32.1243 35.9662 31.9385C35.758 31.843 35.5301 31.7438 35.2924 31.6304C35.0556 31.5108 34.8063 31.3857 34.549 31.2571C34.2934 31.1187 34.0289 30.975 33.7617 30.8294C33.4954 30.6758 33.2247 30.5204 32.9548 30.3641C31.8772 29.7274 30.8094 29.0451 29.9989 28.5442C29.5932 28.2941 29.2545 28.0869 29.0177 27.9414C28.7783 27.7985 28.6415 27.7181 28.6415 27.7181C28.6415 27.7181 27.9606 27.3502 27.2913 26.9894C26.9527 26.818 26.6283 26.634 26.3835 26.517C26.1404 26.3956 25.9912 26.3197 26.0189 26.3357C25.5372 26.0937 25.1253 25.9026 24.9707 25.8223C25.0949 25.891 25.3978 26.0643 25.925 26.4179C26.1627 26.5876 26.4272 26.7706 26.6747 26.9742C26.9249 27.1716 27.1716 27.369 27.3807 27.5583Z" fill="#E42E3B"/>
<path d="M23.3269 33.2911C23.3689 33.7161 23.4323 34.2859 23.5172 34.8708C23.5699 35.1655 23.6227 35.4602 23.6727 35.7379C23.7415 36.0192 23.8058 36.2826 23.8612 36.5104C23.9211 36.739 23.9926 36.9283 24.0355 37.0667C24.0811 37.2042 24.1088 37.2873 24.1114 37.2953C24.1249 37.3025 24.1955 37.2891 24.2142 37.2837C24.7379 37.1382 25.2016 36.881 25.5546 36.6479C25.9093 36.4121 26.1551 36.1987 26.2802 36.0728C26.3248 36.0317 26.3222 36.029 26.3159 36.021C26.3115 36.0156 26.2668 35.9656 26.1917 35.8817C26.1184 35.796 26.0058 35.6825 25.8861 35.5307C25.7682 35.3745 25.6305 35.1941 25.484 35.0003C25.3464 34.7922 25.1989 34.5698 25.0533 34.3493C24.9139 34.1153 24.7745 33.8822 24.6449 33.6634C24.5189 33.4375 24.401 33.2268 24.3 33.0464C24.0998 32.6793 23.9658 32.4355 23.9658 32.4355C23.9658 32.4355 23.7719 32.1471 23.6012 31.8587C23.4323 31.5702 23.2768 31.2853 23.2885 31.3112C23.1562 31.0746 23.0669 30.8746 23.0526 30.8317C23.0517 30.8299 23.0517 30.829 23.0508 30.8281C23.0597 30.8531 23.108 30.996 23.1714 31.3336C23.267 31.8354 23.259 32.5891 23.259 32.5891C23.259 32.5891 23.2858 32.8687 23.3269 33.2911Z" fill="#E42E3B"/>
<path d="M23.0522 30.8281C23.0503 30.8225 23.0503 30.8234 23.0522 30.8281V30.8281Z" fill="#E42E3B"/>
</svg>
