<svg width="36" height="32" viewBox="0 0 36 32" fill="none" xmlns="http://www.w3.org/2000/svg">
<g opacity="0.5">
<path d="M23.3229 31.4451L23.3202 31.4459C23.0469 31.5303 22.7217 31.5152 22.322 31.4055C21.9205 31.2954 21.4887 31.1028 21.0161 30.8771C20.9287 30.8354 20.8398 30.7925 20.7495 30.7489C20.3661 30.5637 19.96 30.3676 19.5612 30.2111C19.0666 30.0171 18.5355 29.8635 18.0015 29.8635C17.4676 29.8635 16.9365 30.0171 16.4419 30.2111C16.043 30.3676 15.637 30.5637 15.2536 30.7489C15.1633 30.7925 15.0743 30.8354 14.987 30.8771C14.5144 31.1028 14.0826 31.2954 13.681 31.4055C13.2814 31.5152 12.9561 31.5303 12.6828 31.4459L12.6811 31.4454C12.3921 31.3572 12.1319 31.1605 11.8756 30.8533C11.6164 30.5427 11.3856 30.1492 11.1448 29.7057C11.0919 29.6082 11.0382 29.5076 10.9836 29.4053C10.7984 29.0587 10.6031 28.6929 10.3942 28.3634C10.1221 27.9343 9.79545 27.513 9.37124 27.2193L9.37034 27.2187C8.94269 26.924 8.42079 26.7573 7.90697 26.6428C7.5019 26.5525 7.06549 26.4876 6.65047 26.4258C6.53982 26.4094 6.43069 26.3931 6.32408 26.3767C5.80161 26.2962 5.32943 26.2099 4.93137 26.0724C4.53435 25.9353 4.25817 25.7627 4.08585 25.541C3.92052 25.3275 3.83547 25.0407 3.82054 24.6551C3.80543 24.265 3.86332 23.8213 3.94382 23.3266C3.95985 23.228 3.97688 23.127 3.99419 23.0244C4.06065 22.6301 4.13125 22.2112 4.16581 21.813C4.20949 21.3097 4.20302 20.7771 4.03482 20.2897C3.87193 19.8096 3.54818 19.3846 3.20419 19.0109C2.93983 18.7237 2.6346 18.4373 2.34432 18.165C2.25707 18.0831 2.17117 18.0026 2.08814 17.9236C1.7157 17.5694 1.39004 17.2385 1.15677 16.9063C0.925201 16.5766 0.8125 16.2844 0.8125 16.0059C0.8125 15.7273 0.925201 15.4351 1.15677 15.1054C1.39004 14.7733 1.7157 14.4423 2.08814 14.0881C2.17117 14.0092 2.25707 13.9286 2.34431 13.8467C2.6346 13.5744 2.93983 13.2881 3.20419 13.0009C3.5483 12.627 3.87216 12.2018 4.035 11.7215C4.20271 11.2323 4.2103 10.6992 4.16755 10.1948C4.13353 9.79349 4.06316 9.37219 3.997 8.97602C3.98028 8.87594 3.96384 8.77748 3.94831 8.68134C3.86851 8.18715 3.81087 7.74416 3.82551 7.35442C3.83998 6.96907 3.92399 6.68231 4.0875 6.4686C4.25658 6.24853 4.53016 6.07635 4.92647 5.93923C5.32365 5.80181 5.79567 5.71551 6.31821 5.635C6.4246 5.61861 6.53351 5.60242 6.64393 5.58599C7.05913 5.52424 7.49574 5.45931 7.90052 5.36892C8.41301 5.25448 8.93385 5.08784 9.35905 4.79272C9.78622 4.49914 10.1144 4.07806 10.3872 3.64844C10.5993 3.31437 10.7967 2.94355 10.9835 2.59255C11.0358 2.49431 11.0872 2.39762 11.138 2.30373C11.3782 1.8591 11.6081 1.46442 11.8667 1.15198C12.122 0.843604 12.3816 0.644874 12.6708 0.554178C12.9513 0.469262 13.2811 0.48526 13.6816 0.594615C14.0852 0.704812 14.5176 0.897303 14.9899 1.12285C15.0791 1.16543 15.1699 1.20933 15.2621 1.25385C15.6435 1.43813 16.047 1.63308 16.4431 1.78876C16.937 1.98286 17.4675 2.13646 18.0015 2.13646C18.5355 2.13646 19.0666 1.98291 19.5612 1.78886C19.96 1.63236 20.3661 1.43629 20.7495 1.25112C20.8397 1.20754 20.9287 1.16457 21.0161 1.12285C21.4887 0.897169 21.9205 0.704645 22.322 0.594451C22.7217 0.484787 23.0469 0.46969 23.3202 0.554091L23.3219 0.554605C23.6105 0.642609 23.8705 0.839595 24.127 1.14792C24.3863 1.45962 24.6171 1.8545 24.8579 2.29958C24.9107 2.39719 24.9643 2.49786 25.0188 2.60018C25.2041 2.94821 25.3995 3.31533 25.6086 3.64596C25.8806 4.07618 26.2073 4.4985 26.6318 4.79241L26.6318 4.79243L26.6367 4.79573C27.0667 5.08597 27.5898 5.24986 28.1044 5.36273C28.5028 5.45012 28.9318 5.51363 29.3403 5.57409C29.4582 5.59155 29.5745 5.60875 29.6878 5.62621C30.2098 5.70662 30.6806 5.79357 31.0764 5.93206C31.4711 6.07016 31.7446 6.24397 31.9144 6.4671L31.9144 6.46711L31.917 6.47052C32.0825 6.68406 32.1676 6.97089 32.1825 7.35664C32.1976 7.74675 32.1397 8.19045 32.0592 8.68514C32.0432 8.78368 32.0262 8.88469 32.0089 8.98736C31.9424 9.38166 31.8718 9.80053 31.8373 10.1987C31.7935 10.7026 31.8001 11.2357 31.9688 11.7236L31.9692 11.7248C32.1353 12.2008 32.4601 12.6237 32.8044 12.9965C33.0647 13.2785 33.3647 13.5607 33.6506 13.8297C33.7419 13.9156 33.8319 14.0002 33.9186 14.0831C34.29 14.4376 34.6147 14.7697 34.8471 15.1026C35.078 15.4332 35.1906 15.7266 35.1906 16.0059C35.1906 16.2846 35.0777 16.5777 34.846 16.9085C34.6126 17.2415 34.2868 17.5736 33.9146 17.9283C33.8295 18.0094 33.7415 18.0921 33.6521 18.1761C33.3639 18.4469 33.0613 18.7312 32.7991 19.0155C32.4554 19.3884 32.1313 19.8122 31.9683 20.2896C31.8001 20.777 31.7936 21.3088 31.8373 21.8114C31.8718 22.2086 31.9423 22.6264 32.0088 23.0197C32.0261 23.1225 32.0432 23.2236 32.0593 23.3223C32.1397 23.8161 32.1976 24.2595 32.1825 24.6502C32.1676 25.0363 32.0825 25.3257 31.9157 25.5429C31.7464 25.7634 31.4732 25.9356 31.0779 26.0726C30.6818 26.21 30.2109 26.2962 29.6891 26.3767C29.5823 26.3932 29.4729 26.4095 29.362 26.426C28.9478 26.4877 28.5121 26.5526 28.1076 26.6428C27.594 26.7573 27.0721 26.924 26.6445 27.2187C26.2171 27.5123 25.8888 27.9335 25.6158 28.3629C25.4055 28.6936 25.2094 29.0608 25.0237 29.4085C24.9696 29.5097 24.9165 29.6092 24.8641 29.7057C24.6233 30.1493 24.3926 30.5424 24.133 30.8529C23.8764 31.1596 23.615 31.3566 23.3229 31.4451Z" stroke="#FD5B44"/>
<path d="M23.2023 16.001C23.2023 16.5042 22.368 16.8807 22.2104 17.3347C22.0457 17.8027 22.479 18.5593 22.171 18.9535C21.8631 19.3476 20.9535 19.1998 20.5274 19.4883C20.1049 19.7734 19.9795 20.625 19.471 20.7763C18.984 20.9241 18.3431 20.3083 17.8023 20.3083C17.2616 20.3083 16.6206 20.9241 16.1336 20.7763C15.6287 20.625 15.4998 19.7734 15.0809 19.4883C14.6547 19.1998 13.7452 19.3476 13.4336 18.9535C13.1257 18.5628 13.559 17.8027 13.3943 17.3347C13.2367 16.8772 12.4023 16.5042 12.4023 16.001C12.4023 15.4978 13.2367 15.1247 13.3943 14.6673C13.559 14.1957 13.1293 13.4391 13.4336 13.0485C13.7416 12.6544 14.6547 12.8022 15.0773 12.5136C15.4998 12.2286 15.6252 11.377 16.1301 11.2221C16.6242 11.0743 17.2616 11.6902 17.8023 11.6902C18.3431 11.6902 18.984 11.0743 19.471 11.2221C19.976 11.3734 20.1049 12.2286 20.5238 12.5136C20.9535 12.7987 21.8631 12.6509 22.171 13.0485C22.479 13.4391 22.0457 14.1992 22.2104 14.6673C22.3716 15.1212 23.2023 15.4978 23.2023 16.001Z" fill="white"/>
</g>
</svg>
