<svg width="40" height="28" viewBox="0 0 40 28" fill="none" xmlns="http://www.w3.org/2000/svg">
<path d="M25.9164 15.6533L22.5663 18.9998C21.2078 20.357 18.8175 20.3863 17.4296 18.9998L14.0794 15.6533L2.04688 27.6712C2.49477 27.8774 2.98859 28.0005 3.51359 28.0005H36.4823C37.0073 28.0005 37.501 27.8776 37.9487 27.6713L25.9164 15.6533Z" fill="#E42E3B"/>
<path d="M36.4822 0H3.51344C2.98844 0 2.49461 0.123045 2.04688 0.329234L14.9045 13.1721C14.9053 13.173 14.9063 13.1732 14.9072 13.174C14.908 13.1749 14.9082 13.176 14.9082 13.176L19.0889 17.3519C19.533 17.794 20.4628 17.794 20.9069 17.3519L25.0867 13.1767C25.0867 13.1767 25.0877 13.1749 25.0886 13.174C25.0886 13.174 25.0905 13.173 25.0913 13.1721L37.9486 0.329156C37.5009 0.122889 37.0072 0 36.4822 0Z" fill="#E42E3B"/>
<path d="M0.373906 1.96094C0.142187 2.42745 0 2.94529 0 3.50001V24.5C0 25.0547 0.142031 25.5726 0.373828 26.0391L12.4272 14.0004L0.373906 1.96094Z" fill="#E42E3B"/>
<path d="M39.6235 1.96094L27.5703 14.0006L39.6235 26.0394C39.8552 25.5729 39.9974 25.055 39.9974 24.5002V3.50016C39.9974 2.94529 39.8552 2.42745 39.6235 1.96094Z" fill="#E42E3B"/>
</svg>
