<svg width="34" height="32" viewBox="0 0 34 32" fill="none" xmlns="http://www.w3.org/2000/svg">
<path d="M29.2138 0.599935C28.9604 0.493123 28.6686 0.611803 28.5618 0.864384C28.4542 1.11774 28.5729 1.40954 28.8257 1.51635C31.1271 2.48772 32.8327 4.78804 32.8327 7.5654C32.8327 13.5835 25.3391 16.4514 21.3489 11.9173C19.093 9.37501 19.1188 5.42633 21.6227 2.92244C23.1023 1.44204 25.1031 0.81459 27.0443 1.04473C27.317 1.07594 27.5644 0.882444 27.5969 0.609223C27.6294 0.336517 27.4344 0.0890961 27.1617 0.0565882C20.6443 -0.717926 16.3352 6.62396 20.0814 11.9173C19.6823 11.9173 10.0924 11.9173 9.65666 11.9173C9.19174 11.9173 8.81455 12.2953 8.81455 12.7594V19.195L7.88007 21.0314C7.70309 21.3797 7.40793 21.6395 7.05783 21.7724C7.05783 21.0048 6.45592 20.4723 5.78305 20.4723H3.86431C3.20255 20.4723 2.58902 20.9858 2.58902 21.7982H1.35553C0.608104 21.7982 0 22.4063 0 23.1542V23.7567C0 24.0312 0.222137 24.2538 0.497423 24.2538C0.771934 24.2538 0.994845 24.0312 0.994845 23.7567V23.1542C0.994845 22.9548 1.15661 22.793 1.35553 22.793H2.58902V29.6788H1.35553C1.15661 29.6788 0.994845 29.517 0.994845 29.3181V25.7461C0.994845 25.4708 0.771934 25.2487 0.497423 25.2487C0.222137 25.2487 0 25.4708 0 25.7461V29.3181C0 30.0655 0.608104 30.6736 1.35553 30.6736H2.58902C2.58902 31.4866 3.20358 32 3.86431 32H5.78305C6.36742 32 6.86072 31.6047 7.01062 31.0676C7.62233 31.2312 5.93734 31.1664 28.2016 31.1664C28.7143 31.1664 29.1315 30.7492 29.1315 30.2366V14.5667C35.3175 12.035 35.4107 3.2243 29.2138 0.599935ZM6.06298 26.2071C6.06298 26.7363 6.06298 26.9089 6.06298 26.9045V30.7247C6.06298 30.8767 5.93502 31.0054 5.78305 31.0054H3.86431C3.71261 31.0054 3.58387 30.8767 3.58387 30.7247C3.58387 30.3008 3.58387 22.1658 3.58387 21.7479C3.58387 21.5951 3.71261 21.4672 3.86431 21.4672H5.78305C5.93502 21.4672 6.06298 21.5951 6.06298 21.7479V26.2071ZM15.1523 12.9119H18.9454V16.8149L17.4709 15.6614C17.2225 15.4671 16.8732 15.4682 16.6265 15.6614L15.1523 16.8149V12.9119ZM15.038 30.169C7.14065 30.1718 7.52507 30.2214 7.05783 30.0377V22.8088C7.79235 22.6468 8.40097 22.1986 8.81455 21.3882C8.92445 21.1723 9.74412 19.5616 9.94329 19.1705C10.1082 18.841 11.0395 19.6738 10.6004 20.5361L10.1203 21.4798C9.79675 22.116 10.2581 22.8686 10.9719 22.8686L17.2031 22.8666C17.5114 22.8666 17.7749 23.1194 17.7715 23.4138C17.7682 23.7058 17.5272 23.9445 17.2341 23.946H13.3458C13.071 23.946 12.8484 24.1687 12.8484 24.4435C12.8484 24.7182 13.071 24.9409 13.3458 24.9409C13.3484 24.9409 19.1505 24.9404 19.1518 24.9404C19.4023 24.9404 19.6637 25.1705 19.7042 25.3939C19.7764 25.7546 19.5649 26.0188 19.1923 26.0188C19.1908 26.0188 18.4209 26.0193 13.304 26.0193C13.0292 26.0193 12.8066 26.242 12.8066 26.5167C12.8066 26.7913 13.0292 27.0139 13.304 27.0139C13.3068 27.0139 18.2888 27.0139 18.2916 27.0142C18.7692 27.0317 18.9802 27.6089 18.6518 27.9352C18.5502 28.0374 18.415 28.0931 18.271 28.0931C14.458 28.0954 15.5158 28.0952 12.8262 28.0952C12.5514 28.0952 12.3288 28.3178 12.3288 28.5926C12.3288 28.8674 12.5514 29.09 12.8262 29.09C15.1949 29.09 15.208 29.0371 15.4198 29.2477C15.7568 29.5856 15.5174 30.169 15.038 30.169ZM28.1366 30.1716H25.2837V20.6083C25.2837 20.3338 25.0608 20.1109 24.7863 20.1109C24.511 20.1109 24.2888 20.3338 24.2888 20.6083V30.1716H16.4712C16.609 29.8101 16.6069 29.4301 16.4776 29.0893L18.271 29.088C19.3755 29.088 20.117 27.9546 19.6776 26.9419C20.7831 26.5998 21.052 25.2208 20.2532 24.4189C19.716 23.8818 19.1802 23.9455 18.6675 23.9455C19.052 22.9329 18.2762 21.8717 17.2031 21.8717L11.0362 21.8738L11.4872 20.9878C12.2436 19.5002 10.9366 17.8598 9.80939 18.1279V12.9119H14.1575V17.4501C14.1575 17.8281 14.4652 18.1356 14.8435 18.1356C15.15 18.1356 15.0878 18.1282 17.0489 16.5943C18.9831 18.1075 18.9408 18.1356 19.254 18.1356C19.6325 18.1356 19.9403 17.8281 19.9403 17.4501V12.9119H20.9204C21.8696 13.8611 23.0267 14.527 24.2888 14.8657V18.6189C24.2888 18.8934 24.511 19.1163 24.7863 19.1163C25.0608 19.1163 25.2837 18.8934 25.2837 18.6189V15.0634C26.2303 15.1859 27.206 15.1302 28.1366 14.8944V30.1716Z" fill="#101111"/>
<path d="M22.983 7.47432C22.8009 7.26844 22.4864 7.2496 22.281 7.43175C22.0751 7.6139 22.0563 7.92814 22.2384 8.13377L24.2418 10.3956C24.6277 10.8312 25.3071 10.8304 25.6925 10.3977L30.2932 5.23437C30.4761 5.02952 30.4578 4.71502 30.2527 4.53235C30.0475 4.34969 29.7333 4.36749 29.5504 4.5726L24.9681 9.71504L22.983 7.47432Z" fill="#101111"/>
</svg>
