<svg width="45" height="24" viewBox="0 0 45 24" fill="none" xmlns="http://www.w3.org/2000/svg">
<path d="M38.1484 23.9983C37.3971 23.9989 36.6626 23.7766 36.0376 23.3596C35.4127 22.9426 34.9254 22.3496 34.6376 21.6557C34.3497 20.9617 34.2741 20.198 34.4203 19.4611C34.5665 18.7242 34.928 18.0472 35.4591 17.5157C35.9901 16.9843 36.6669 16.6223 37.4037 16.4755C38.1405 16.3288 38.9043 16.4038 39.5984 16.6912C40.2926 16.9786 40.8859 17.4654 41.3034 18.09C41.7208 18.7146 41.9436 19.449 41.9436 20.2003C41.9432 21.207 41.5432 22.1723 40.8317 22.8844C40.1201 23.5965 39.1551 23.9971 38.1484 23.9983ZM38.1484 17.7878C37.6711 17.7873 37.2044 17.9283 36.8073 18.193C36.4102 18.4578 36.1006 18.8344 35.9176 19.2752C35.7345 19.716 35.6864 20.2011 35.7791 20.6693C35.8719 21.1375 36.1015 21.5676 36.4388 21.9053C36.776 22.243 37.2059 22.473 37.674 22.5663C38.142 22.6596 38.6273 22.612 39.0682 22.4295C39.5092 22.247 39.8862 21.9378 40.1514 21.541C40.4166 21.1442 40.5582 20.6776 40.5582 20.2003C40.5579 19.561 40.3041 18.948 39.8523 18.4957C39.4005 18.0434 38.7877 17.7888 38.1484 17.7878Z" fill="#101111"/>
<path d="M18.1337 23.9983C17.3824 23.9991 16.6477 23.7769 16.0227 23.36C15.3976 22.9432 14.9102 22.3503 14.6222 21.6563C14.3342 20.9624 14.2584 20.1986 14.4046 19.4617C14.5507 18.7247 14.9121 18.0476 15.4431 17.5161C15.9741 16.9845 16.6509 16.6224 17.3877 16.4756C18.1246 16.3287 18.8884 16.4037 19.5826 16.6911C20.2768 16.9784 20.8702 17.4652 21.2877 18.0899C21.7052 18.7146 21.928 19.449 21.928 20.2003C21.9273 21.2068 21.5274 22.1718 20.8161 22.8838C20.1048 23.5958 19.1401 23.9966 18.1337 23.9983ZM18.1337 17.7878C17.6564 17.7871 17.1896 17.9279 16.7924 18.1926C16.3952 18.4572 16.0854 18.8338 15.9022 19.2745C15.719 19.7153 15.6707 20.2005 15.7634 20.6687C15.8561 21.137 16.0855 21.5672 16.4228 21.9049C16.76 22.2427 17.1899 22.4729 17.658 22.5662C18.1261 22.6596 18.6114 22.6121 19.0524 22.4296C19.4935 22.2471 19.8705 21.9379 20.1357 21.5411C20.401 21.1442 20.5426 20.6776 20.5426 20.2003C20.5421 19.5613 20.2882 18.9485 19.8367 18.4963C19.3852 18.044 18.7728 17.7893 18.1337 17.7878Z" fill="#101111"/>
<path d="M43.1452 20.8926H41.2509C41.0671 20.8926 40.8909 20.8196 40.761 20.6897C40.6311 20.5598 40.5581 20.3836 40.5581 20.1999C40.5581 20.0161 40.6311 19.8399 40.761 19.71C40.8909 19.5801 41.0671 19.5071 41.2509 19.5071H42.9494V15.8338C42.949 15.3372 42.8218 14.8489 42.58 14.4151L38.83 7.69199C38.798 7.63461 38.7512 7.58682 38.6945 7.55353C38.6379 7.52025 38.5734 7.50268 38.5077 7.50264H33.3972V19.5099H35.0468C35.2305 19.5099 35.4067 19.5829 35.5366 19.7128C35.6665 19.8427 35.7395 20.0189 35.7395 20.2026C35.7395 20.3864 35.6665 20.5626 35.5366 20.6925C35.4067 20.8224 35.2305 20.8954 35.0468 20.8954H32.7044C32.5207 20.8954 32.3445 20.8224 32.2146 20.6925C32.0847 20.5626 32.0117 20.3864 32.0117 20.2026V6.80992C32.0117 6.62619 32.0847 6.44999 32.2146 6.32008C32.3445 6.19017 32.5207 6.11719 32.7044 6.11719H38.5077C38.8202 6.11704 39.1271 6.20034 39.3966 6.3585C39.6662 6.51665 39.8886 6.74392 40.0409 7.01681L43.7899 13.7409C44.1464 14.3809 44.3336 15.1013 44.334 15.8338V19.7039C44.3335 20.019 44.2081 20.3211 43.9852 20.5439C43.7624 20.7667 43.4603 20.8921 43.1452 20.8926Z" fill="#101111"/>
<path d="M15.0299 20.8946H8.38804C8.20432 20.8946 8.02812 20.8216 7.89821 20.6917C7.7683 20.5618 7.69531 20.3856 7.69531 20.2019V14.8744C7.69531 14.6906 7.7683 14.5144 7.89821 14.3845C8.02812 14.2546 8.20432 14.1816 8.38804 14.1816C8.57176 14.1816 8.74796 14.2546 8.87787 14.3845C9.00778 14.5144 9.08077 14.6906 9.08077 14.8744V19.5092H15.0299C15.2136 19.5092 15.3898 19.5822 15.5197 19.7121C15.6497 19.842 15.7226 20.0182 15.7226 20.2019C15.7226 20.3856 15.6497 20.5618 15.5197 20.6917C15.3898 20.8216 15.2136 20.8946 15.0299 20.8946Z" fill="#101111"/>
<path d="M8.38804 12.4177C8.20432 12.4177 8.02812 12.3448 7.89821 12.2149C7.7683 12.0849 7.69531 11.9087 7.69531 11.725V7.07359C7.69531 6.88986 7.7683 6.71367 7.89821 6.58375C8.02812 6.45384 8.20432 6.38086 8.38804 6.38086C8.57176 6.38086 8.74796 6.45384 8.87787 6.58375C9.00778 6.71367 9.08077 6.88986 9.08077 7.07359V11.7278C9.08003 11.911 9.00673 12.0865 8.8769 12.2158C8.74706 12.3451 8.57128 12.4177 8.38804 12.4177Z" fill="#101111"/>
<path d="M32.7028 20.8936H21.234C21.0503 20.8936 20.8741 20.8206 20.7441 20.6907C20.6142 20.5608 20.5412 20.3846 20.5412 20.2008C20.5412 20.0171 20.6142 19.8409 20.7441 19.711C20.8741 19.5811 21.0503 19.5081 21.234 19.5081H32.01V1.38545H9.08077V4.23857C9.08077 4.42229 9.00778 4.59849 8.87787 4.7284C8.74796 4.85831 8.57176 4.93129 8.38804 4.93129C8.20432 4.93129 8.02812 4.85831 7.89821 4.7284C7.7683 4.59849 7.69531 4.42229 7.69531 4.23857V1.25799C7.6958 0.924342 7.82862 0.604511 8.06464 0.368671C8.30065 0.132831 8.62058 0.000244253 8.95423 0H32.1375C32.471 0.000488631 32.7907 0.133183 33.0265 0.368997C33.2623 0.604811 33.395 0.924502 33.3955 1.25799V20.2008C33.3955 20.3846 33.3225 20.5608 33.1926 20.6907C33.0627 20.8206 32.8865 20.8936 32.7028 20.8936Z" fill="#101111"/>
<path d="M11.1294 15.5671H2.33726C2.15354 15.5671 1.97734 15.4941 1.84743 15.3642C1.71751 15.2343 1.64453 15.0581 1.64453 14.8744C1.64453 14.6906 1.71751 14.5144 1.84743 14.3845C1.97734 14.2546 2.15354 14.1816 2.33726 14.1816H11.1294C11.3131 14.1816 11.4893 14.2546 11.6192 14.3845C11.7491 14.5144 11.8221 14.6906 11.8221 14.8744C11.8221 15.0581 11.7491 15.2343 11.6192 15.3642C11.4893 15.4941 11.3131 15.5671 11.1294 15.5671Z" fill="#101111"/>
<path d="M18.1294 12.4167H5.8607C5.67697 12.4167 5.50078 12.3437 5.37086 12.2138C5.24095 12.0839 5.16797 11.9077 5.16797 11.724C5.16797 11.5403 5.24095 11.3641 5.37086 11.2341C5.50078 11.1042 5.67697 11.0313 5.8607 11.0312H18.1294C18.3131 11.0313 18.4893 11.1042 18.6192 11.2341C18.7491 11.3641 18.8221 11.5403 18.8221 11.724C18.8221 11.9077 18.7491 12.0839 18.6192 12.2138C18.4893 12.3437 18.3131 12.4167 18.1294 12.4167Z" fill="#101111"/>
<path d="M5.48363 8.7585H0.692727C0.509005 8.7585 0.332807 8.68552 0.202895 8.55561C0.0729836 8.42569 0 8.2495 0 8.06577C0 7.88205 0.0729836 7.70585 0.202895 7.57594C0.332807 7.44603 0.509005 7.37305 0.692727 7.37305H5.48363C5.66735 7.37305 5.84355 7.44603 5.97346 7.57594C6.10337 7.70585 6.17636 7.88205 6.17636 8.06577C6.17636 8.2495 6.10337 8.42569 5.97346 8.55561C5.84355 8.68552 5.66735 8.7585 5.48363 8.7585Z" fill="#101111"/>
<path d="M13.1652 4.93233H4.70835C4.52463 4.93233 4.34843 4.85935 4.21852 4.72943C4.08861 4.59952 4.01563 4.42333 4.01562 4.2396C4.01562 4.05588 4.08861 3.87968 4.21852 3.74977C4.34843 3.61986 4.52463 3.54688 4.70835 3.54688H13.1652C13.3489 3.54688 13.5251 3.61986 13.655 3.74977C13.7849 3.87968 13.8579 4.05588 13.8579 4.2396C13.8579 4.42333 13.7849 4.59952 13.655 4.72943C13.5251 4.85935 13.3489 4.93233 13.1652 4.93233Z" fill="#101111"/>
</svg>
