<svg width="42" height="32" viewBox="0 0 42 32" fill="none" xmlns="http://www.w3.org/2000/svg">
<path d="M40.7672 7.69693L26.9305 0.0992215C26.6895 -0.0330738 26.3973 -0.0330738 26.1562 0.0992215L20.953 2.9563C20.8355 2.98898 20.7258 3.049 20.6328 3.13196L12.3196 7.69693C12.0622 7.83834 11.9023 8.10859 11.9023 8.40209V10.0468H2.62086C2.17653 10.0468 1.81641 10.4073 1.81641 10.8513C1.81641 11.2956 2.17653 11.6557 2.62086 11.6557H11.9023V14.5518H7.29017C6.84583 14.5518 6.48571 14.9122 6.48571 15.3562C6.48571 15.8006 6.84583 16.1607 7.29017 16.1607H11.9023V20.3439H5.14484C4.70051 20.3439 4.34039 20.7043 4.34039 21.1483C4.34039 21.5927 4.70051 21.9528 5.14484 21.9528H11.9023V23.5978C11.9023 23.8913 12.0622 24.1616 12.3196 24.303L26.1562 31.9007C26.2769 31.967 26.4101 32 26.5434 32C26.6766 32 26.8099 31.967 26.9305 31.9007L40.7672 24.303C41.0245 24.1616 41.1845 23.8913 41.1845 23.5978V19.9954C41.1845 19.5514 40.8244 19.1909 40.38 19.1909C39.9357 19.1909 39.5756 19.5514 39.5756 19.9954V23.1218L27.3478 29.8361V16.4759L31.2366 14.3406V17.7294C31.2366 18.0141 31.3868 18.2774 31.6316 18.422C31.7576 18.4964 31.8993 18.5338 32.041 18.5338C32.1743 18.5338 32.3078 18.5008 32.4288 18.4342L35.394 16.8024C35.6507 16.661 35.8103 16.391 35.8103 16.0975V11.8292L39.5756 9.76181V13.5597C39.5756 14.0041 39.9357 14.3642 40.38 14.3642C40.8244 14.3642 41.1845 14.0041 41.1845 13.5597V8.40209C41.1845 8.10859 41.0245 7.83834 40.7672 7.69693ZM25.7389 29.8361L13.5112 23.1218V9.76181L25.7389 16.4759V29.8361ZM26.5434 15.0822L14.3782 8.40209L18.2015 6.30265L30.3671 12.9828L26.5434 15.0822ZM32.0385 12.0649L19.873 5.38475L21.1919 4.66074L33.3571 11.3409L32.0385 12.0649ZM34.2014 15.6221L32.8455 16.3684V13.4573L34.2014 12.7125V15.6221ZM35.0285 10.423L22.8633 3.74284L26.5434 1.72227L38.7086 8.40209L35.0285 10.423Z" fill="#101111"/>
<path d="M40.3826 15.9746C40.1711 15.9746 39.9634 16.0598 39.8138 16.2103C39.6642 16.3599 39.5781 16.5666 39.5781 16.7791C39.5781 16.9905 39.6642 17.1983 39.8138 17.3478C39.9634 17.4974 40.1711 17.5835 40.3826 17.5835C40.5941 17.5835 40.8018 17.4974 40.9514 17.3478C41.1009 17.1983 41.187 16.9905 41.187 16.7791C41.187 16.5666 41.1009 16.3599 40.9514 16.2103C40.8018 16.0598 40.5941 15.9746 40.3826 15.9746Z" fill="#101111"/>
<path d="M1.95741 20.3438H0.804456C0.36012 20.3438 0 20.7042 0 21.1482C0 21.5925 0.36012 21.9527 0.804456 21.9527H1.95741C2.40174 21.9527 2.76186 21.5925 2.76186 21.1482C2.76186 20.7042 2.40174 20.3438 1.95741 20.3438Z" fill="#101111"/>
<path d="M4.87844 15.3572C4.87844 15.1457 4.79234 14.9383 4.64245 14.7887C4.49287 14.6388 4.28547 14.5527 4.07399 14.5527C3.86219 14.5527 3.65479 14.6388 3.50521 14.7887C3.35469 14.9383 3.26953 15.1457 3.26953 15.3572C3.26953 15.569 3.35469 15.7764 3.50521 15.926C3.65479 16.0755 3.86219 16.1616 4.07399 16.1616C4.28547 16.1616 4.49287 16.0759 4.64245 15.926C4.79234 15.7764 4.87844 15.569 4.87844 15.3572Z" fill="#101111"/>
</svg>
