<svg width="32" height="32" viewBox="0 0 32 32" fill="none" xmlns="http://www.w3.org/2000/svg">
<path d="M31.3189 24.9115C31.1345 24.7551 30.9181 24.641 30.6848 24.5773C30.4516 24.5135 30.2072 24.5016 29.9689 24.5425L27.4999 24.8675V13.0001H27.9999C28.1325 13.0001 28.2597 12.9474 28.3535 12.8536C28.4472 12.7598 28.4999 12.6327 28.4999 12.5001V7.50008C28.4999 7.36747 28.4472 7.24029 28.3535 7.14653C28.2597 7.05276 28.1325 7.00008 27.9999 7.00008H19.8279C20.7641 6.57324 21.6152 5.98033 22.3399 5.25009C24.8739 2.53509 23.8354 1.0001 23.4569 0.594601C23.2829 0.404788 23.0708 0.253754 22.8345 0.151326C22.5982 0.0488981 22.343 -0.00262712 22.0854 0.000103095C21.1604 0.000103095 20.1284 0.603601 19.0184 1.7931C18.0937 2.90431 17.4067 4.19336 16.9999 5.58059C16.5935 4.19343 15.9068 2.90437 14.9825 1.7931C13.872 0.603601 12.84 0.000103095 11.915 0.000103095C11.6572 -0.00235005 11.4018 0.0494966 11.1655 0.152269C10.9291 0.255042 10.717 0.406436 10.543 0.596601C10.1645 1.0026 9.12597 2.53759 11.66 5.25209C12.3849 5.98162 13.236 6.57383 14.172 7.00008H5.99998C5.86737 7.00008 5.7402 7.05276 5.64643 7.14653C5.55266 7.24029 5.49998 7.36747 5.49998 7.50008V12.5001C5.49998 12.6327 5.55266 12.7598 5.64643 12.8536C5.7402 12.9474 5.86737 13.0001 5.99998 13.0001H6.49998V23.5H4.99998V22.5C4.99998 22.3674 4.94731 22.2402 4.85354 22.1465C4.75977 22.0527 4.63259 22 4.49999 22H0.499998C0.367391 22 0.240214 22.0527 0.146446 22.1465C0.0526783 22.2402 0 22.3674 0 22.5C0 22.6326 0.0526783 22.7598 0.146446 22.8536C0.240214 22.9474 0.367391 23 0.499998 23H3.99999V31H0.499998C0.367391 31 0.240214 31.0527 0.146446 31.1464C0.0526783 31.2402 0 31.3674 0 31.5C0 31.6326 0.0526783 31.7598 0.146446 31.8536C0.240214 31.9473 0.367391 32 0.499998 32H4.49999C4.63259 32 4.75977 31.9473 4.85354 31.8536C4.94731 31.7598 4.99998 31.6326 4.99998 31.5V30.61L11.9 31.99C11.9329 31.9967 11.9664 32 12 32H19.9999C20.0572 31.9999 20.114 31.9901 20.1679 31.971L30.9069 28.1405C31.2385 27.988 31.5185 27.7422 31.7126 27.4331C31.9067 27.1239 32.0066 26.765 31.9999 26.4C32.0031 26.1171 31.9437 25.8369 31.826 25.5795C31.7083 25.3222 31.5351 25.0941 31.3189 24.9115ZM19.7499 2.4756C20.9469 1.1921 21.7269 1.0001 22.0849 1.0001C22.2056 0.997585 22.3253 1.02122 22.436 1.06938C22.5466 1.11754 22.6455 1.18909 22.7259 1.2791C23.3379 1.9346 22.9204 3.16509 21.6089 4.57009C20.5324 5.72308 18.7269 6.44008 17.6874 6.77958C17.9894 5.65958 18.6499 3.65259 19.7499 2.4756ZM11.274 1.2791C11.3544 1.18911 11.4533 1.11759 11.5639 1.06943C11.6746 1.02127 11.7943 0.997618 11.915 1.0001C12.273 1.0001 13.053 1.1916 14.2515 2.4756C15.3515 3.65309 16.0109 5.66058 16.3124 6.78008C15.274 6.44158 13.47 5.72608 12.391 4.57009C11.08 3.16509 10.6625 1.9346 11.274 1.2791ZM7.49998 13.0001H13C13.1326 13.0001 13.2597 12.9474 13.3535 12.8536C13.4473 12.7598 13.5 12.6327 13.5 12.5001C13.5 12.3675 13.4473 12.2403 13.3535 12.1465C13.2597 12.0527 13.1326 12.0001 13 12.0001H6.49998V8.00008H14.5V19C14.5 19.1327 14.5526 19.2598 14.6464 19.3536C14.7402 19.4474 14.8673 19.5 15 19.5C15.1326 19.5 15.2597 19.4474 15.3535 19.3536C15.4473 19.2598 15.5 19.1327 15.5 19V8.00008H18.4999V18C18.4999 18.1327 18.5526 18.2598 18.6464 18.3536C18.7402 18.4474 18.8673 18.5 18.9999 18.5C19.1325 18.5 19.2597 18.4474 19.3535 18.3536C19.4473 18.2598 19.4999 18.1327 19.4999 18V8.00008H27.4999V12.0001H20.9999C20.8673 12.0001 20.7401 12.0527 20.6464 12.1465C20.5526 12.2403 20.4999 12.3675 20.4999 12.5001C20.4999 12.6327 20.5526 12.7598 20.6464 12.8536C20.7401 12.9474 20.8673 13.0001 20.9999 13.0001H26.4999V25L20.0094 25.855L17.0829 25.355L22.6289 22.85C23.0559 22.5902 23.3767 22.1872 23.5342 21.7128C23.6917 21.2385 23.6756 20.7237 23.4889 20.26C23.337 19.8371 23.0396 19.482 22.65 19.2582C22.2603 19.0343 21.8038 18.9563 21.3619 19.038L12.662 21.138C12.622 21.1476 12.5834 21.162 12.547 21.181L8.14447 23.495H7.49998V13.0001ZM30.5389 27.2115L19.9134 31H12.05L4.99998 29.59V24.5L6.98398 24.4975C6.98948 24.4975 6.99448 24.5005 6.99998 24.5005C7.00548 24.5005 7.01048 24.4975 7.01598 24.497H8.26597C8.3476 24.4966 8.42792 24.4764 8.49997 24.438L12.9585 22.0965L21.5759 20.015C21.7849 19.9823 21.9986 20.0255 22.1785 20.1367C22.3584 20.248 22.4924 20.42 22.5564 20.6215C22.6538 20.8552 22.669 21.115 22.5995 21.3584C22.53 21.6018 22.38 21.8145 22.1739 21.9615L15.18 25.1185C15.0817 25.1623 15.0003 25.2366 14.9476 25.3303C14.8949 25.424 14.8739 25.5323 14.8876 25.6389C14.9013 25.7455 14.949 25.8449 15.0236 25.9223C15.0983 25.9997 15.1959 26.051 15.302 26.0685L19.9159 26.8545C19.9655 26.8636 20.0161 26.8646 20.0659 26.8575L30.1249 25.5295C30.2228 25.5117 30.3235 25.5159 30.4196 25.5419C30.5157 25.5678 30.6048 25.6148 30.6804 25.6795C30.7835 25.7686 30.8656 25.8794 30.9209 26.004C30.9761 26.1285 31.0031 26.2638 30.9999 26.4C31.0057 26.5647 30.9657 26.7278 30.8843 26.871C30.8029 27.0143 30.6833 27.1322 30.5389 27.2115Z" fill="#101111"/>
</svg>
