<svg width="32" height="32" viewBox="0 0 32 32" fill="none" xmlns="http://www.w3.org/2000/svg">
<g clip-path="url(#clip0_2413_17464)">
<path d="M16 32C24.8219 32 32 24.8226 32 16C32 14.4772 31.7874 12.9766 31.3665 11.5394C31.1592 10.8327 30.4212 10.4268 29.7126 10.6341C29.0052 10.8408 28.6006 11.5814 28.8073 12.2881C29.1559 13.4821 29.3333 14.7314 29.3333 16C29.3333 23.3519 23.3519 29.3333 16 29.3333C8.64811 29.3333 2.66667 23.3519 2.66667 16C2.66667 8.64811 8.64811 2.66667 16 2.66667C18.6719 2.66667 21.2425 3.44792 23.4339 4.92546C24.0439 5.33724 24.8734 5.17546 25.2845 4.56543C25.696 3.95475 25.5355 3.12598 24.9248 2.71452C22.2913 0.938802 19.2054 0 16 0C7.17806 0 0 7.17741 0 16C0 24.8226 7.17806 32 16 32Z" fill="#101111"/>
<path d="M29.7224 3.0564L15.9985 16.7797L11.6078 12.3897C11.087 11.8692 10.2432 11.8692 9.72241 12.3897C9.2019 12.9106 9.2019 13.7543 9.72241 14.2751L15.0557 19.6085C15.3165 19.8692 15.657 19.9991 15.9985 19.9991C16.3399 19.9991 16.6804 19.8692 16.9412 19.6085L31.6078 4.94181C32.1283 4.42098 32.1283 3.57723 31.6078 3.0564C31.087 2.53589 30.2432 2.53589 29.7224 3.0564Z" fill="#101111"/>
</g>
<defs>
<clipPath id="clip0_2413_17464">
<rect width="32" height="32" fill="white"/>
</clipPath>
</defs>
</svg>
