<svg width="22" height="18" viewBox="0 0 22 18" fill="none" xmlns="http://www.w3.org/2000/svg">
<path d="M20.25 0H1.21154C0.890327 0.000355037 0.582374 0.128113 0.355244 0.355244C0.128113 0.582374 0.000355037 0.890327 0 1.21154V14.0192C0.000355037 14.3404 0.128113 14.6484 0.355244 14.8755C0.582374 15.1027 0.890327 15.2304 1.21154 15.2308H8.23154L8.02385 16.2692H6.57692C6.48512 16.2692 6.39707 16.3057 6.33215 16.3706C6.26724 16.4355 6.23077 16.5236 6.23077 16.6154V17.6538C6.23077 17.7457 6.26724 17.8337 6.33215 17.8986C6.39707 17.9635 6.48512 18 6.57692 18H14.8846C14.9764 18 15.0645 17.9635 15.1294 17.8986C15.1943 17.8337 15.2308 17.7457 15.2308 17.6538V16.6154C15.2308 16.5236 15.1943 16.4355 15.1294 16.3706C15.0645 16.3057 14.9764 16.2692 14.8846 16.2692H13.4377L13.23 15.2308H20.25C20.5712 15.2304 20.8792 15.1027 21.1063 14.8755C21.3334 14.6484 21.4612 14.3404 21.4615 14.0192V1.21154C21.4612 0.890327 21.3334 0.582374 21.1063 0.355244C20.8792 0.128113 20.5712 0.000355037 20.25 0ZM14.5385 16.9615V17.3077H6.92308V16.9615H14.5385ZM8.73 16.2692L8.93769 15.2308H12.5238L12.7315 16.2692H8.73ZM20.7692 14.0192C20.7691 14.1569 20.7144 14.2889 20.617 14.3863C20.5197 14.4836 20.3877 14.5383 20.25 14.5385H1.21154C1.07386 14.5383 0.941863 14.4836 0.844513 14.3863C0.747164 14.2889 0.692422 14.1569 0.692308 14.0192V13.1538H20.7692V14.0192ZM20.7692 12.4615H0.692308V1.21154C0.692422 1.07387 0.747164 0.941863 0.844513 0.844514C0.941863 0.747164 1.07386 0.692422 1.21154 0.692308H20.25C20.3877 0.692422 20.5197 0.747164 20.617 0.844514C20.7144 0.941863 20.7691 1.07387 20.7692 1.21154V12.4615Z" fill="#FD5B44"/>
<path d="M11.0775 13.5H10.3852C10.2934 13.5 10.2054 13.5365 10.1404 13.6014C10.0755 13.6663 10.0391 13.7543 10.0391 13.8462C10.0391 13.938 10.0755 14.026 10.1404 14.0909C10.2054 14.1558 10.2934 14.1923 10.3852 14.1923H11.0775C11.1693 14.1923 11.2574 14.1558 11.3223 14.0909C11.3872 14.026 11.4237 13.938 11.4237 13.8462C11.4237 13.7543 11.3872 13.6663 11.3223 13.6014C11.2574 13.5365 11.1693 13.5 11.0775 13.5Z" fill="#FD5B44"/>
</svg>
