<svg width="91" height="64" viewBox="0 0 91 64" fill="none" xmlns="http://www.w3.org/2000/svg">
<path d="M71.7616 23.8196C71.579 21.8455 71.7187 16.4789 76.8597 9.01639C77.2486 8.45326 77.178 7.69378 76.6951 7.21097C74.5991 5.11499 73.3014 3.79237 72.3912 2.86685C71.1944 1.64652 70.6479 1.09047 69.8482 0.365413C69.3143 -0.11456 68.5063 -0.122918 67.9667 0.347563C59.0059 8.14485 49.0532 24.2568 50.4934 43.9963C51.3373 55.587 59.7918 64 70.5954 64C81.6825 64 90.7028 54.9811 90.7028 43.8939C90.7028 33.1982 82.308 24.4269 71.7616 23.8196ZM70.5954 61.1666C61.3177 61.1666 54.0531 53.8591 53.3185 43.7916C51.6984 21.5909 64.8954 7.16946 68.8826 3.35107C69.2714 3.73429 69.7155 4.18522 70.3699 4.85205C71.1584 5.65446 72.2376 6.75295 73.8701 8.39107C67.6291 18.0062 68.8065 24.8572 69.3225 25.8395C69.5674 26.3057 70.0697 26.6198 70.5954 26.6198C80.1206 26.6198 87.8694 34.3686 87.8694 43.8939C87.8694 53.4178 80.1206 61.1666 70.5954 61.1666Z" fill="#101111"/>
<path d="M21.4104 23.8192C21.2264 21.8506 21.3619 16.4882 26.5085 9.01604C26.8959 8.4529 26.8266 7.69342 26.3438 7.21062C24.252 5.11874 22.9557 3.79754 22.0468 2.87202C20.846 1.649 20.298 1.09139 19.4984 0.365059C18.9643 -0.114914 18.1564 -0.121855 17.6169 0.345792C8.65612 8.14308 -1.29806 24.2523 0.139305 43.9959C0.986057 55.5853 9.44182 63.9997 20.2454 63.9997C31.3327 63.9997 40.353 54.9808 40.353 43.8935C40.353 33.1966 31.958 24.4239 21.4104 23.8192ZM20.2454 61.1663C10.9693 61.1663 3.70042 53.8587 2.96445 43.7898C1.34859 21.5836 14.5456 7.16769 18.5327 3.35072C18.9228 3.73393 19.3684 4.1877 20.0242 4.85595C20.8113 5.65836 21.8891 6.75544 23.5188 8.39071C17.2779 18.0073 18.4553 24.8568 18.9713 25.8377C19.2162 26.304 19.7197 26.6195 20.2454 26.6195C29.7708 26.6195 37.5196 34.3683 37.5196 43.8935C37.5196 53.4174 29.7708 61.1663 20.2454 61.1663Z" fill="#101111"/>
</svg>
