<svg width="40" height="40" viewBox="0 0 40 40" fill="none" xmlns="http://www.w3.org/2000/svg">
<path d="M4.75367 6.79688H4.73883C2.12586 6.79688 0 8.92266 0 11.5355V37.2688C0 38.7748 1.22523 40 2.73117 40H6.76125C8.26727 40 9.49242 38.7748 9.49242 37.2688V11.5355C9.49242 8.92266 7.36664 6.79688 4.75367 6.79688Z" fill="#E42E3B"/>
<path d="M38.8278 11.4844H37.6557V20.9868H14.1797V11.4844H11.8359V20.9868V22.346V38.828C11.8359 39.4752 12.3606 39.9998 13.0078 39.9998H38.8278C39.475 39.9998 39.9997 39.4752 39.9997 38.828V21.7877V20.9868V12.6562C39.9997 12.0091 39.475 11.4844 38.8278 11.4844ZM18.536 34.7303C18.318 34.9483 18.0157 35.0733 17.7079 35.0733C17.3993 35.0733 17.097 34.9483 16.879 34.7303C16.661 34.5116 16.536 34.21 16.536 33.9014C16.536 33.5929 16.661 33.2905 16.879 33.0726C17.097 32.8546 17.3993 32.7295 17.7079 32.7295C18.0165 32.7295 18.318 32.8545 18.536 33.0726C18.7548 33.2905 18.8798 33.5929 18.8798 33.9014C18.8798 34.21 18.7548 34.5116 18.536 34.7303ZM18.536 30.042C18.318 30.2608 18.0164 30.3858 17.7079 30.3858C17.3993 30.3858 17.097 30.2608 16.879 30.042C16.661 29.8241 16.536 29.5225 16.536 29.2139C16.536 28.9054 16.661 28.603 16.879 28.3851C17.097 28.1671 17.3993 28.042 17.7079 28.042C18.0165 28.042 18.318 28.167 18.536 28.3851C18.754 28.603 18.8798 28.9054 18.8798 29.2139C18.8798 29.5225 18.754 29.8241 18.536 30.042ZM18.536 25.3545C18.318 25.5725 18.0164 25.6983 17.7079 25.6983C17.3993 25.6983 17.097 25.5726 16.879 25.3545C16.661 25.1366 16.536 24.8342 16.536 24.5264C16.536 24.2179 16.661 23.9155 16.879 23.6976C17.097 23.4796 17.3993 23.3545 17.7079 23.3545C18.0157 23.3545 18.318 23.4795 18.536 23.6976C18.754 23.9155 18.8798 24.2179 18.8798 24.5264C18.8798 24.8342 18.754 25.1366 18.536 25.3545ZM23.2237 34.7303C23.0057 34.9483 22.7034 35.0733 22.3955 35.0733C22.087 35.0733 21.7846 34.9483 21.5666 34.7303C21.3487 34.5116 21.2237 34.21 21.2237 33.9014C21.2237 33.5929 21.3487 33.2905 21.5666 33.0726C21.7846 32.8546 22.087 32.7295 22.3955 32.7295C22.7041 32.7295 23.0057 32.8545 23.2237 33.0726C23.4424 33.2905 23.5674 33.5929 23.5674 33.9014C23.5674 34.21 23.4424 34.5116 23.2237 34.7303ZM23.2237 30.042C23.0057 30.2608 22.7034 30.3858 22.3955 30.3858C22.087 30.3858 21.7846 30.2608 21.5666 30.042C21.3487 29.8241 21.2237 29.5225 21.2237 29.2139C21.2237 28.9054 21.3487 28.603 21.5666 28.3851C21.7846 28.1671 22.087 28.042 22.3955 28.042C22.7034 28.042 23.0057 28.167 23.2237 28.3851C23.4416 28.603 23.5674 28.9054 23.5674 29.2139C23.5674 29.5225 23.4416 29.8241 23.2237 30.042ZM23.2237 25.3545C23.0057 25.5725 22.7041 25.6983 22.3955 25.6983C22.087 25.6983 21.7846 25.5726 21.5666 25.3545C21.3487 25.1366 21.2237 24.8342 21.2237 24.5264C21.2237 24.2179 21.3487 23.9155 21.5666 23.6976C21.7846 23.4796 22.087 23.3545 22.3955 23.3545C22.7041 23.3545 23.0057 23.4795 23.2237 23.6976C23.4424 23.9155 23.5674 24.2179 23.5674 24.5264C23.5674 24.8342 23.4424 25.1366 23.2237 25.3545ZM27.9113 34.7303C27.6933 34.9483 27.3909 35.0733 27.0831 35.0733C26.7745 35.0733 26.4722 34.9483 26.2542 34.7303C26.0363 34.5116 25.9113 34.21 25.9113 33.9014C25.9113 33.5929 26.0363 33.2905 26.2542 33.0726C26.4722 32.8546 26.7745 32.7295 27.0831 32.7295C27.3909 32.7295 27.6933 32.8545 27.9113 33.0726C28.1292 33.2905 28.255 33.5929 28.255 33.9014C28.255 34.21 28.1292 34.5116 27.9113 34.7303ZM27.9113 30.042C27.6933 30.2608 27.3909 30.3858 27.0831 30.3858C26.7745 30.3858 26.4722 30.2608 26.2542 30.042C26.0363 29.8241 25.9113 29.5225 25.9113 29.2139C25.9113 28.9054 26.0363 28.603 26.2542 28.3851C26.4722 28.1671 26.7745 28.042 27.0831 28.042C27.3909 28.042 27.6933 28.167 27.9113 28.3851C28.1292 28.603 28.255 28.9054 28.255 29.2139C28.255 29.5225 28.1292 29.8241 27.9113 30.042ZM27.9113 25.3545C27.6933 25.5725 27.3916 25.6983 27.0831 25.6983C26.7745 25.6983 26.4722 25.5726 26.2542 25.3545C26.0363 25.1366 25.9113 24.8342 25.9113 24.5264C25.9113 24.2179 26.0363 23.9155 26.2542 23.6976C26.4722 23.4796 26.7745 23.3545 27.0831 23.3545C27.3909 23.3545 27.6933 23.4795 27.9113 23.6976C28.1292 23.9155 28.255 24.2179 28.255 24.5264C28.255 24.8342 28.1292 25.1366 27.9113 25.3545ZM34.1399 30.3856H31.7704C31.1231 30.3856 30.5985 29.8609 30.5985 29.2137C30.5985 28.5666 31.1232 28.0419 31.7704 28.0419H34.1399C34.7871 28.0419 35.3118 28.5666 35.3118 29.2137C35.3119 29.8609 34.7872 30.3856 34.1399 30.3856ZM34.1399 25.698H31.7704C31.1231 25.698 30.5985 25.1734 30.5985 24.5262C30.5985 23.879 31.1232 23.3543 31.7704 23.3543H34.1399C34.7871 23.3543 35.3118 23.879 35.3118 24.5262C35.3119 25.1734 34.7872 25.698 34.1399 25.698Z" fill="#E42E3B"/>
<path d="M35.3117 1.17188C35.3117 0.524688 34.787 0 34.1398 0H17.6953C17.048 0 16.5234 0.524688 16.5234 1.17188V18.6432H35.3118V1.17188H35.3117ZM29.4522 16.4067H22.0804C21.4332 16.4067 20.9085 15.882 20.9085 15.2348C20.9085 14.5877 21.4332 14.063 22.0804 14.063H29.4522C30.0994 14.063 30.6241 14.5877 30.6241 15.2348C30.6241 15.882 30.0995 16.4067 29.4522 16.4067ZM29.4522 11.7191H22.0804C21.4332 11.7191 20.9085 11.1944 20.9085 10.5472C20.9085 9.9 21.4332 9.37531 22.0804 9.37531H29.4522C30.0994 9.37531 30.6241 9.9 30.6241 10.5472C30.6241 11.1944 30.0995 11.7191 29.4522 11.7191ZM29.4522 7.03141H22.0804C21.4332 7.03141 20.9085 6.50672 20.9085 5.85953C20.9085 5.21234 21.4332 4.68766 22.0804 4.68766H29.4522C30.0994 4.68766 30.6241 5.21234 30.6241 5.85953C30.6241 6.50672 30.0995 7.03141 29.4522 7.03141Z" fill="#E42E3B"/>
</svg>
