<svg width="25" height="20" viewBox="0 0 25 20" fill="none" xmlns="http://www.w3.org/2000/svg">
<path d="M24.0591 14.2295H22.5595C23.7624 13.02 23.8253 11.1086 22.7487 9.82618C23.0518 8.68241 23.1184 7.35264 23.1262 6.1689C24.3893 5.4403 24.9101 3.79341 24.2571 2.41854C23.1273 0.0391693 20.3245 0.000349955 20.1801 1.44813e-05C19.8637 -0.00242968 19.7296 0.305344 19.7332 0.300503C19.6018 0.627159 18.4683 3.53078 19.1024 4.86616C19.3523 5.39242 19.7484 5.82456 20.2428 6.12016C20.2126 7.79355 19.4375 8.45664 18.2442 9.6052C17.7703 9.30452 17.307 9.06926 16.8288 8.86692C16.9546 7.72161 16.7844 6.85365 15.7529 6.3409C16.2206 5.41082 15.811 4.25411 14.8376 3.75943C13.8225 3.24266 12.669 3.65097 12.2115 4.54079C10.8648 3.83999 9.30778 4.78143 9.36534 6.21697C8.80141 6.32657 8.30845 6.67829 8.04611 7.19454C7.74912 7.77898 7.84258 8.17767 7.98314 8.75545C7.37579 8.99229 6.81301 9.27673 6.29561 9.60559C6.06212 9.32858 4.33553 8.28291 4.29657 6.12021C4.79087 5.82461 5.18706 5.39247 5.43694 4.8662C6.10985 3.44912 4.78895 0.257802 4.80596 0.300024C4.73389 0.120977 4.55752 -0.000944041 4.35902 6.23798e-05C4.2127 0.000445778 1.41159 0.0400797 0.282245 2.41854C-0.366322 3.78421 0.141011 5.43512 1.41317 6.16894C1.42271 7.56595 1.51363 9.16851 1.9946 10.4741C1.01952 10.3147 0.0995556 11.0776 0.0682128 12.0718C0.0557524 12.465 0.184574 12.8338 0.432777 13.1224C-0.0271576 13.6328 0.00102221 14.0789 0.00102221 14.7087C0.00102221 16.2997 1.29538 17.594 2.88629 17.594H3.16938C3.39841 18.9575 4.58642 20 6.01405 20H18.5254C19.953 20 21.141 18.9575 21.3701 17.594H21.6532C23.2441 17.594 24.5384 16.2997 24.5384 14.7087C24.5384 14.444 24.3238 14.2295 24.0591 14.2295ZM18.9808 13.8622L22.1794 10.6635C22.7583 11.5498 22.6696 12.7644 21.8755 13.5583C21.0836 14.3502 19.8676 14.4416 18.9808 13.8622ZM22.1636 6.5082C22.1485 7.35724 22.0975 8.06528 22.0063 8.67374L20.7367 8.10947C20.9783 7.595 21.1303 7.04549 21.182 6.48405C21.5166 6.55158 21.8365 6.55862 22.1636 6.5082ZM23.3913 2.82969C23.9115 3.92515 23.3196 5.29523 22.1077 5.54444C22.3592 4.20321 21.7212 2.30041 21.096 1.09558C21.8501 1.28603 22.8744 1.74117 23.3913 2.82969ZM20.2852 1.61757C20.9926 3.02201 21.3634 4.65792 21.1413 5.48357C20.6157 5.30994 20.1984 4.93977 19.9682 4.45506C19.7116 3.91447 19.9611 2.66636 20.2852 1.61757ZM20.2458 8.9402L21.808 9.63448C21.8022 9.65552 21.7963 9.67632 21.7903 9.69712L20.1723 11.3152C19.8499 10.9068 19.4709 10.526 19.0417 10.178C19.3453 9.88978 19.7783 9.58512 20.2458 8.9402ZM8.90061 7.62873C9.05292 7.32906 9.3744 7.14369 9.72981 7.13913C9.84085 7.13774 9.88422 7.1526 9.94691 7.15265C10.2854 7.15289 10.5174 6.81099 10.3927 6.49661C10.2975 6.25655 10.2963 5.99076 10.4171 5.7531C10.7317 5.13377 11.6543 5.09979 12.1162 5.67465C12.2434 5.83309 12.4568 5.8939 12.6485 5.82676C12.8393 5.75981 12.9687 5.57957 12.9691 5.37541C12.9703 4.68812 13.7274 4.26973 14.4031 4.61374C15.073 4.95419 15.1904 5.81454 14.6336 6.2197C14.4692 6.33937 14.3982 6.54971 14.4564 6.74452C14.5147 6.93929 14.6895 7.07616 14.8927 7.08589C15.5362 7.11685 15.9852 7.54166 15.9002 8.52464C13.6776 7.81871 11.1541 7.78967 8.89462 8.447C8.78952 8.01649 8.76916 7.88739 8.90061 7.62873ZM12.2696 8.93234C14.9686 8.93234 17.9333 9.94485 19.4891 11.9984L17.9291 13.5583C17.7441 13.7434 17.7423 14.0419 17.9232 14.2295H8.44839C8.64091 13.2173 7.86021 12.3342 6.83894 12.4019C6.64503 11.85 6.16113 11.4676 5.57022 11.4025C7.22574 9.73824 9.83979 8.93234 12.2696 8.93234ZM5.49776 10.1782C5.27007 10.3628 5.05699 10.5572 4.8582 10.7596C4.36697 10.3311 3.6563 10.2737 3.07818 10.5797C2.94169 10.2944 2.82672 9.98237 2.73202 9.63415L4.29346 8.9402C4.75976 9.58344 5.19195 9.88786 5.49776 10.1782ZM3.35734 6.48405C3.4091 7.04549 3.56107 7.595 3.80261 8.10947L2.53466 8.67297C2.44241 8.0567 2.39137 7.34464 2.37594 6.50825C2.69056 6.5567 3.0106 6.55402 3.35734 6.48405ZM4.57108 4.45506C4.34066 4.94025 3.923 5.31023 3.39793 5.48357C3.1758 4.65783 3.54669 3.02158 4.2543 1.617C4.57866 2.66535 4.8283 3.91332 4.57108 4.45506ZM1.14801 2.82964C1.66497 1.74098 2.68946 1.28589 3.44337 1.09548C2.81723 2.30204 2.18021 4.20422 2.43163 5.54444C1.2198 5.29523 0.627783 3.92515 1.14801 2.82964ZM1.23897 11.6237C1.58892 11.2737 2.14197 11.372 2.27817 11.7922C2.34081 11.9854 2.51851 12.1182 2.72162 12.1235C2.92276 12.1297 3.10909 12.0055 3.1817 11.8157C3.20925 11.7437 3.24778 11.6771 3.29638 11.617C3.73839 11.1013 4.45429 11.3713 4.41739 11.9564C4.39443 12.3215 4.77366 12.5771 5.10334 12.4185C5.5269 12.2149 5.99517 12.4844 5.96742 12.9568C5.94825 13.3451 6.33429 13.5768 6.65256 13.4243C6.90272 13.3045 7.17882 13.3416 7.35585 13.5185C7.53835 13.701 7.5672 13.9867 7.44643 14.2294H0.960237C0.962777 13.9416 1.1527 13.6729 1.43095 13.5663C1.62069 13.4937 1.74405 13.3094 1.73878 13.1063C1.73346 12.9031 1.60066 12.7255 1.40738 12.6629C1.18107 12.5895 1.01746 12.3759 1.02609 12.102C1.03169 11.9253 1.10727 11.7554 1.23897 11.6237ZM18.5254 19.0415H6.01396C5.11695 19.0415 4.36122 18.4253 4.14762 17.594H20.3917C20.1781 18.4253 19.4223 19.0415 18.5254 19.0415ZM21.6531 16.6355H2.88614C1.98904 16.6355 1.23327 16.0194 1.01971 15.188H23.5195C23.306 16.0194 22.5502 16.6355 21.6531 16.6355Z" fill="#147D77"/>
<path d="M10.0064 12.1606C10.1934 12.3478 10.497 12.3478 10.6841 12.1606C10.8713 11.9735 10.8713 11.67 10.6841 11.4829L10.2029 11.0017C10.0158 10.8145 9.71227 10.8145 9.52512 11.0017C9.33797 11.1888 9.33797 11.4923 9.52517 11.6794L10.0064 12.1606Z" fill="#147D77"/>
<path d="M14.533 12.1606L15.0142 11.6794C15.2014 11.4923 15.2014 11.1888 15.0142 11.0017C14.8271 10.8146 14.5237 10.8145 14.3365 11.0017L13.8552 11.4829C13.6681 11.67 13.6681 11.9735 13.8552 12.1606C14.0423 12.3477 14.3458 12.3478 14.533 12.1606Z" fill="#147D77"/>
</svg>
