<svg width="28" height="32" viewBox="0 0 28 32" fill="none" xmlns="http://www.w3.org/2000/svg">
<path d="M13.6245 9.9043C10.2624 9.9043 7.52734 12.6394 7.52734 16.0012C7.52734 19.3633 10.2624 22.0984 13.6245 22.0984C16.9863 22.0984 19.7214 19.3633 19.7214 16.0012C19.7214 12.6394 16.9863 9.9043 13.6245 9.9043ZM17.2444 14.853L12.8765 19.2209C12.6931 19.4043 12.4526 19.4961 12.2124 19.4961C11.9722 19.4961 11.7319 19.4045 11.5486 19.2209L9.87939 17.5517C9.51269 17.1853 9.51269 16.5908 9.87939 16.2241C10.2458 15.8574 10.8403 15.8574 11.207 16.2241L12.2124 17.2295L15.9167 13.5254C16.2832 13.1587 16.8777 13.1587 17.2444 13.5254C17.6111 13.8918 17.6111 14.4863 17.2444 14.853Z" fill="#FD5B44"/>
<path d="M27.218 8.68242L27.217 8.65752C27.2031 8.35014 27.1938 8.02495 27.1882 7.66313C27.162 5.89873 25.7595 4.43926 23.9948 4.34063C20.3156 4.13531 17.4694 2.9356 15.0376 0.565246L15.0168 0.54547C14.2236 -0.181823 13.0271 -0.181823 12.2336 0.54547L12.2129 0.565246C9.78098 2.9356 6.93479 4.13531 3.2556 4.34087C1.4912 4.43926 0.0883673 5.89873 0.0622444 7.66338C0.0568733 8.02275 0.0473518 8.34795 0.0334358 8.65752L0.031971 8.71538C-0.0395621 12.4671 -0.128429 17.1363 1.43358 21.3743C2.29246 23.7048 3.59324 25.7307 5.29954 27.396C7.24289 29.2925 9.7883 30.7981 12.865 31.8708C12.9651 31.9058 13.0691 31.9341 13.175 31.9553C13.3244 31.9851 13.4748 32 13.6252 32C13.7756 32 13.9262 31.9851 14.0754 31.9553C14.1814 31.9341 14.2861 31.9055 14.3867 31.8704C17.4597 30.7957 20.0024 29.2893 21.944 27.3931C23.6496 25.7273 24.9504 23.7009 25.81 21.3699C27.3779 17.1192 27.2892 12.4412 27.218 8.68242ZM13.6247 23.9754C9.22727 23.9754 5.64988 20.398 5.64988 16.0005C5.64988 11.6031 9.22727 8.02568 13.6247 8.02568C18.0219 8.02568 21.5996 11.6031 21.5996 16.0005C21.5996 20.398 18.0219 23.9754 13.6247 23.9754Z" fill="#FD5B44"/>
</svg>
