<svg width="24" height="20" viewBox="0 0 24 20" fill="none" xmlns="http://www.w3.org/2000/svg">
<path d="M9.69516 13.6141L10.3788 12.5111C10.5429 12.2467 10.4609 11.9049 10.1965 11.7408C9.93673 11.5767 9.59033 11.6588 9.42625 11.9231L8.74257 13.0261C7.50282 15.0271 5.73436 16.1756 3.88386 16.1756H1.38614C1.0762 16.1756 0.830078 16.4263 0.830078 16.7363C0.830078 17.0462 1.08076 17.2969 1.38614 17.2969H3.88842C6.13546 17.2878 8.25032 15.9478 9.69516 13.6141Z" fill="#101111"/>
<path d="M23 2.87603L20.2926 0.164084C20.0738 -0.0546946 19.7229 -0.0546946 19.5041 0.164084C19.2853 0.382862 19.2853 0.733819 19.5041 0.952598L21.2635 2.71194C21.2589 2.71194 21.2589 2.71194 21.2543 2.71194H18.67C16.4275 2.71194 14.3081 4.05196 12.8633 6.3856L12.4439 7.06472C12.2799 7.32908 12.3619 7.67092 12.6263 7.835C12.7174 7.8897 12.8177 7.91705 12.918 7.91705C13.1048 7.91705 13.2872 7.82133 13.392 7.65269L13.8113 6.97356C15.0511 4.97265 16.8195 3.82862 18.67 3.82862H21.2498C21.2543 3.82862 21.2543 3.82862 21.2589 3.82862L19.4996 5.58797C19.2808 5.80675 19.2808 6.1577 19.4996 6.37648C19.6089 6.48587 19.7502 6.54056 19.8961 6.54056C20.0419 6.54056 20.1832 6.48587 20.2926 6.37648L23.0046 3.66454C23.2188 3.44576 23.2188 3.09025 23 2.87603ZM21.8104 3.27712C21.8104 3.27256 21.8104 3.27256 21.8104 3.268C21.8104 3.26345 21.8104 3.26345 21.8104 3.25889L21.8195 3.268L21.8104 3.27712Z" fill="#101111"/>
<path d="M19.4992 19.8359C19.6086 19.9453 19.7499 20 19.8957 20C20.0416 20 20.1829 19.9453 20.2922 19.8359L23.0042 17.1239C23.223 16.9052 23.223 16.5542 23.0042 16.3354L20.2922 13.628C20.0735 13.4093 19.7225 13.4093 19.5037 13.628C19.285 13.8468 19.285 14.1978 19.5037 14.4166L21.2631 16.1759C21.2585 16.1759 21.2585 16.1759 21.254 16.1759H18.7517C16.9057 16.1759 15.1327 15.0273 13.893 13.0264L9.78176 6.38557C8.33692 4.04737 6.2175 2.71191 3.97502 2.71191H1.38614C1.0762 2.71191 0.830078 2.9626 0.830078 3.27253C0.830078 3.58247 1.08076 3.83315 1.38614 3.83315H3.97046C5.8164 3.83315 7.58942 4.98174 8.82917 6.97809L12.9404 13.6189C14.3852 15.9571 16.5046 17.2971 18.7471 17.2971H21.2494C21.254 17.2971 21.254 17.2971 21.2585 17.2971L19.4992 19.0565C19.285 19.2662 19.285 19.6171 19.4992 19.8359ZM21.81 16.7229L21.8191 16.732L21.81 16.7411C21.81 16.7365 21.81 16.7365 21.81 16.732C21.81 16.7274 21.81 16.7274 21.81 16.7229Z" fill="#101111"/>
</svg>
