<svg width="20" height="20" viewBox="0 0 20 20" fill="none" xmlns="http://www.w3.org/2000/svg">
<path d="M20 11.6667V13.3333C20 15.1667 18.5 16.6667 16.6667 16.6667H5V19.1667C5 19.6667 4.66667 20 4.16667 20C3.91667 20 3.75 19.9167 3.58333 19.75L0.25 16.4167C-0.0833333 16.0833 -0.0833333 15.5833 0.25 15.25L3.58333 11.9167C3.91667 11.5833 4.41667 11.5833 4.75 11.9167C4.91667 12.0833 5 12.25 5 12.5V15H16.6667C17.5833 15 18.3333 14.25 18.3333 13.3333V11.6667C18.3333 11.1667 18.6667 10.8333 19.1667 10.8333C19.6667 10.8333 20 11.1667 20 11.6667ZM0.833333 9.16667C1.33333 9.16667 1.66667 8.83333 1.66667 8.33333V6.66667C1.66667 5.75 2.41667 5 3.33333 5H15V7.5C15 8 15.3333 8.33333 15.8333 8.33333C16.0833 8.33333 16.25 8.25 16.4167 8.08333L19.75 4.75C20.0833 4.41667 20.0833 3.91667 19.75 3.58333L16.4167 0.25C16.0833 -0.0833333 15.5833 -0.0833333 15.25 0.25C15.0833 0.416667 15 0.583333 15 0.833333V3.33333H3.33333C1.5 3.33333 4.34617e-08 4.83333 4.34617e-08 6.66667V8.33333C4.34617e-08 8.83333 0.333333 9.16667 0.833333 9.16667Z" fill="#FD5B44"/>
</svg>
