<svg width="23" height="20" viewBox="0 0 23 20" fill="none" xmlns="http://www.w3.org/2000/svg">
<path d="M22.6252 18.3582H19.6445V17.3991H20.3546C21.1446 17.3991 21.7877 16.7564 21.7877 15.966V13.4145C21.7877 12.7219 21.2938 12.1425 20.6398 12.0099V10.8102C20.6398 10.0083 19.9872 9.3557 19.1853 9.3557H10.9314C10.1295 9.3557 9.47691 10.0083 9.47691 10.8102V12.0099C9.26349 12.0531 9.06719 12.1439 8.8994 12.2708V4.78646H9.61856V6.80942C9.61856 6.96675 9.74642 7.09461 9.90375 7.09461C10.0611 7.09461 10.1889 6.96675 10.1889 6.80942V4.78646H10.9433C11.0298 4.78646 11.112 4.74701 11.1662 4.67952C11.2204 4.61202 11.2408 4.52314 11.2218 4.43853L10.2716 0.222449C10.2422 0.0922119 10.1267 0 9.99358 0H7.23483C7.10127 0 6.98576 0.0922119 6.95677 0.222449L6.00661 4.439C5.98759 4.52361 6.00803 4.61202 6.06222 4.67999C6.11641 4.74749 6.19816 4.78694 6.28514 4.78694H8.32949V13.4149V15.9664C8.32949 16.7564 8.97212 17.3995 9.76258 17.3995H10.4727V18.3587H7.66547V13.0104C7.66547 12.8531 7.53761 12.7252 7.38028 12.7252H5.62778L6.50046 10.6063C6.53659 10.5183 6.52661 10.418 6.47385 10.3391C6.42108 10.2602 6.3322 10.2127 6.23666 10.2127H6.17154C6.29703 10.1195 6.41538 10.0159 6.5247 9.89994C7.06799 9.32433 7.32562 8.54291 7.23245 7.75578C7.21629 7.61889 7.10412 7.51289 6.96628 7.50481C6.42108 7.47201 5.8911 7.60368 5.43432 7.87936C5.29078 7.36744 4.99513 6.90543 4.57685 6.5556C4.47085 6.46719 4.31685 6.46719 4.21085 6.5556C3.79257 6.90543 3.49692 7.36744 3.35338 7.87936C2.89612 7.60415 2.36661 7.47201 1.82142 7.50481C1.68358 7.51289 1.5714 7.61889 1.55524 7.75578C1.46208 8.54243 1.7197 9.32433 2.26299 9.89994C2.37232 10.0154 2.49067 10.1195 2.61616 10.2127H2.55104C2.45597 10.2127 2.36709 10.2602 2.31385 10.3391C2.26062 10.418 2.25111 10.5183 2.28724 10.6063L3.15992 12.7252H1.40789C1.25056 12.7252 1.1227 12.8531 1.1227 13.0104V18.3582H0.285191C0.127861 18.3582 0 18.4861 0 18.6434V19.7148C0 19.8721 0.127861 20 0.285191 20H22.6252C22.7825 20 22.9104 19.8721 22.9104 19.7148V18.6434C22.9104 18.4861 22.7825 18.3582 22.6252 18.3582ZM7.46298 0.570858H9.76543L10.5868 4.21656H6.64116L7.46298 0.570858ZM19.0741 18.3582H18.6582L17.958 17.3991H19.0746V18.3582H19.0741ZM17.2517 17.3991L17.9518 18.3582H12.1648L12.865 17.3991H17.2517ZM10.9314 9.92704H19.1858C19.673 9.92704 20.0699 10.3235 20.0699 10.8111V12.0108C19.4158 12.1434 18.922 12.7229 18.922 13.4154V14.5338H11.1952V13.4154C11.1952 12.7229 10.7013 12.1434 10.0473 12.0108V10.8111C10.0473 10.3235 10.4437 9.92704 10.9314 9.92704ZM8.8994 15.9664V13.4149C8.8994 12.9391 9.28631 12.5522 9.7621 12.5522C10.2379 12.5522 10.6248 12.9391 10.6248 13.4149V14.8185C10.6248 14.9759 10.7527 15.1037 10.91 15.1037H19.2072C19.3645 15.1037 19.4924 14.9759 19.4924 14.8185V13.4149C19.4924 12.9391 19.8793 12.5522 20.3551 12.5522C20.8309 12.5522 21.2178 12.9391 21.2178 13.4149V15.9664C21.2178 16.4422 20.8309 16.8291 20.3551 16.8291H9.7621C9.28631 16.8287 8.8994 16.4418 8.8994 15.9664ZM11.0426 17.3991H12.1591L11.459 18.3582H11.0431V17.3991H11.0426ZM6.68061 8.07377C6.68013 8.60518 6.4786 9.11757 6.10975 9.50876C5.82456 9.81106 5.46046 10.0173 5.06547 10.11C5.36778 9.67084 5.53366 9.14656 5.53366 8.6009C5.53366 8.5681 5.53224 8.5353 5.53081 8.50298C5.86401 8.24631 6.26185 8.09801 6.68061 8.07377ZM4.39385 7.16543C4.75794 7.55234 4.96281 8.06284 4.96281 8.6009C4.96281 9.13848 4.75794 9.64945 4.39385 10.0364C4.02975 9.64945 3.82489 9.13896 3.82489 8.6009C3.82489 8.06284 4.02975 7.55234 4.39385 7.16543ZM2.10709 8.07377C2.52585 8.09801 2.92416 8.24631 3.25689 8.50298C3.25546 8.53578 3.25403 8.5681 3.25403 8.6009C3.25403 9.14704 3.41992 9.67084 3.72222 10.11C3.32676 10.0173 2.96314 9.81106 2.67747 9.50828C2.3091 9.11709 2.10756 8.60518 2.10709 8.07377ZM2.9774 10.7831H5.81078L5.01081 12.7257H3.77736L2.9774 10.7831ZM7.09509 13.2956V16.1414H1.69309V13.2956H7.09509ZM1.69309 16.7117H7.09509V18.3582H1.69309V16.7117ZM22.34 19.4296H0.570383V18.9286H22.34V19.4296ZM3.32818 14.7187C3.32818 14.5614 3.45604 14.4335 3.61338 14.4335H5.17432C5.33165 14.4335 5.45951 14.5614 5.45951 14.7187C5.45951 14.8761 5.33165 15.0039 5.17432 15.0039H3.61338C3.45604 15.0039 3.32818 14.8761 3.32818 14.7187Z" fill="#BF9F65"/>
</svg>
