<svg width="56" height="28" viewBox="0 0 56 28" fill="none" xmlns="http://www.w3.org/2000/svg">
<path d="M13.9995 0.466797C13.5046 0.467291 13.0301 0.664119 12.6801 1.01408C12.3301 1.36405 12.1333 1.83856 12.1328 2.33349V21.9337C12.1333 22.4287 12.3301 22.9032 12.6801 23.2531C13.0301 23.6031 13.5046 23.7999 13.9995 23.8004H17.8272C18.0423 24.8544 18.6149 25.8016 19.4481 26.4819C20.2813 27.1622 21.324 27.5338 22.3996 27.5338C23.4753 27.5338 24.5179 27.1622 25.3511 26.4819C26.1843 25.8016 26.7569 24.8544 26.972 23.8004H41.1609C41.376 24.8544 41.9486 25.8016 42.7818 26.4819C43.615 27.1622 44.6576 27.5338 45.7332 27.5338C46.8089 27.5338 47.8515 27.1622 48.6847 26.4819C49.5179 25.8016 50.0905 24.8544 50.3056 23.8004H53.2C53.9424 23.7996 54.6541 23.5044 55.179 22.9794C55.704 22.4545 55.9992 21.7428 56 21.0004V14.1215C55.9976 13.5469 55.8218 12.9863 55.4955 12.5132L49.8522 4.44992C49.5916 4.08539 49.2481 3.78802 48.85 3.58232C48.452 3.37662 48.0107 3.26849 47.5626 3.26683H39.1998V2.33349C39.1993 1.83856 39.0025 1.36405 38.6525 1.01408C38.3026 0.664119 37.8281 0.467291 37.3331 0.466797H13.9995ZM22.3996 25.6671C21.8458 25.6671 21.3045 25.5029 20.844 25.1952C20.3835 24.8876 20.0246 24.4503 19.8127 23.9386C19.6008 23.427 19.5453 22.864 19.6534 22.3208C19.7614 21.7777 20.0281 21.2788 20.4197 20.8872C20.8113 20.4956 21.3102 20.2289 21.8534 20.1209C22.3965 20.0128 22.9595 20.0683 23.4711 20.2802C23.9828 20.4921 24.4201 20.851 24.7278 21.3115C25.0354 21.7719 25.1996 22.3133 25.1996 22.8671C25.1988 23.6095 24.9036 24.3212 24.3786 24.8461C23.8537 25.3711 23.142 25.6663 22.3996 25.6671ZM37.3331 21.9337H26.972C26.7569 20.8798 26.1843 19.9326 25.3511 19.2523C24.5179 18.572 23.4753 18.2004 22.3996 18.2004C21.324 18.2004 20.2813 18.572 19.4481 19.2523C18.6149 19.9326 18.0423 20.8798 17.8272 21.9337H13.9995V2.33349H37.3331V21.9337ZM45.7332 25.6671C45.1794 25.6671 44.6381 25.5029 44.1776 25.1952C43.7172 24.8876 43.3583 24.4503 43.1463 23.9386C42.9344 23.427 42.879 22.864 42.987 22.3208C43.095 21.7777 43.3617 21.2788 43.7533 20.8872C44.1449 20.4956 44.6438 20.2289 45.187 20.1209C45.7301 20.0128 46.2931 20.0683 46.8048 20.2802C47.3164 20.4921 47.7537 20.851 48.0614 21.3115C48.3691 21.7719 48.5333 22.3133 48.5333 22.8671C48.5325 23.6095 48.2372 24.3212 47.7123 24.8461C47.1873 25.3711 46.4756 25.6663 45.7332 25.6671ZM50.0119 7.93356L52.6249 11.6669H43.8666V7.93356H50.0119ZM39.1998 5.13352H47.5626C47.7124 5.13435 47.8599 5.17057 47.993 5.23924C48.1262 5.3079 48.2412 5.40707 48.3287 5.52865L48.7054 6.06687H42.9332C42.6857 6.06687 42.4483 6.1652 42.2732 6.34024C42.0982 6.51528 41.9999 6.75268 41.9999 7.00021V12.6003C41.9999 12.8478 42.0982 13.0852 42.2732 13.2603C42.4483 13.4353 42.6857 13.5336 42.9332 13.5336H53.9314L53.9579 13.5715C54.0702 13.7331 54.1313 13.9247 54.1334 14.1215V21.0004C54.133 21.2478 54.0346 21.485 53.8596 21.66C53.6847 21.835 53.4475 21.9334 53.2 21.9337H50.3056C50.0905 20.8798 49.5179 19.9326 48.6847 19.2523C47.8515 18.572 46.8089 18.2004 45.7332 18.2004C44.6576 18.2004 43.615 18.572 42.7818 19.2523C41.9486 19.9326 41.376 20.8798 41.1609 21.9337H39.1998V5.13352Z" fill="#BF9F65"/>
<path d="M0 6.06641H10.2668V7.9331H0V6.06641Z" fill="#BF9F65"/>
<path d="M1.86719 11.667H10.2673V13.5337H1.86719V11.667Z" fill="#BF9F65"/>
<path d="M3.73242 17.2666H10.2658V19.1333H3.73242V17.2666Z" fill="#BF9F65"/>
</svg>
