<svg width="17" height="20" viewBox="0 0 17 20" fill="none" xmlns="http://www.w3.org/2000/svg">
<path fill-rule="evenodd" clip-rule="evenodd" d="M8.95897 0C6.19755 0 3.95898 2.23858 3.95898 5C3.95898 7.76142 6.19755 10 8.95897 10C11.7204 10 13.959 7.76142 13.959 5C13.959 2.23858 11.7204 0 8.95897 0Z" fill="#101111"/>
<path fill-rule="evenodd" clip-rule="evenodd" d="M5.95988 11C4.29713 11 2.69811 11.7585 1.76103 12.9004C1.28543 13.48 0.951087 14.1971 0.921977 14.9919C0.892247 15.8036 1.18524 16.5958 1.78946 17.2871C3.26202 18.9716 5.61315 20 8.95987 20C12.3066 20 14.6578 18.9716 16.1303 17.2871C16.7346 16.5958 17.0275 15.8036 16.9978 14.9919C16.9687 14.1971 16.6344 13.48 16.1588 12.9004C15.2217 11.7585 13.6227 11 11.9599 11H5.95988Z" fill="#101111"/>
</svg>
