<svg width="20" height="20" viewBox="0 0 20 20" fill="none" xmlns="http://www.w3.org/2000/svg">
<path d="M20 11.2739C20 9.86935 19.319 8.52806 18.1784 7.68613C17.9458 7.51387 17.6574 7.41935 17.3668 7.41935C17.0029 7.41935 16.6619 7.56484 16.4116 7.81226C16.3648 7.77323 16.3223 7.73032 16.2739 7.69323C16.0948 7.55645 15.88 7.47516 15.6594 7.44161L15.8016 5.87742C15.8048 5.84 15.8065 5.80226 15.8065 5.76452C15.8065 5.07613 15.2465 4.51613 14.5581 4.51613H14.4742C13.7858 4.51613 13.2258 5.07613 13.2258 5.76452C13.2258 5.80226 13.2274 5.84 13.231 5.87774L13.3739 7.44871C13.1694 7.48742 12.9716 7.56645 12.8045 7.69097C12.7468 7.73419 12.6955 7.78387 12.64 7.82935C12.6113 7.79968 12.581 7.77194 12.5497 7.74516C12.5681 7.63774 12.5806 7.52903 12.5806 7.41935C12.5806 7.00968 12.4529 6.61774 12.2161 6.29032C12.4529 5.9629 12.5806 5.57129 12.5806 5.16129C12.5806 4.05677 11.6461 3.16161 10.5326 3.22935C10.3255 2.63581 9.84258 2.18839 9.24903 2.01581C8.85613 1.52581 8.26387 1.25387 7.62935 1.29387C7.36226 0.528387 6.63903 0 5.80645 0C5.10806 0 4.47226 0.373548 4.12968 0.96871C3.27548 0.997419 2.5371 1.60032 2.32548 2.42161C1.32677 2.79419 0.645161 3.76097 0.645161 4.83871C0.645161 5.7029 1.07032 6.4929 1.77387 6.97032C1.66774 7.21258 1.6129 7.47452 1.6129 7.74194C1.6129 8.32258 1.87097 8.86226 2.31387 9.22774C2.27677 9.37742 2.25806 9.52806 2.25806 9.67742C2.25806 10.6658 3.00323 11.4839 3.96129 11.599L4.67484 13.5974C4.30935 13.8668 3.99806 14.2039 3.75839 14.591L2.06839 14.2155C2.00419 14.2006 1.93806 14.1935 1.87161 14.1935C1.37323 14.1935 0.967742 14.599 0.967742 15.0974V15.2252C0.967742 15.3155 0.985161 15.4013 1.01 15.4839H0.967742C0.434194 15.4839 0 15.9181 0 16.4516C0 16.9852 0.434194 17.4194 0.967742 17.4194H1.01C0.985161 17.5019 0.967742 17.5877 0.967742 17.6781V17.8058C0.967742 18.3042 1.37323 18.7097 1.87161 18.7097C1.93806 18.7097 2.00419 18.7026 2.06774 18.6881L3.75839 18.3123C4.38452 19.3232 5.50032 20 6.77419 20H6.85C7.02935 20 7.21097 19.9861 7.38935 19.9587L18.451 18.2571C19.3484 18.1187 20 17.3597 20 16.4516C20 15.7255 19.5797 15.1006 18.9539 14.8061C19.6223 14.0077 20 12.9948 20 11.9519V11.2739ZM15.8816 8.20581C16.8445 8.94194 17.4194 10.1145 17.4194 11.3432V12.5281C17.4194 13.1894 17.2545 13.8368 16.9439 14.4145L14.3571 14.0165C14.2506 13.5484 14.1935 13.0703 14.1935 12.5903V11.2806C14.1935 10.9555 14.2261 10.6306 14.2755 10.3087C14.3545 10.3155 14.4332 10.3226 14.5161 10.3226C15.4358 10.3226 16.129 9.90645 16.129 9.35484C16.129 9.05032 15.9184 8.78 15.5535 8.60258L15.601 8.08064C15.7016 8.10097 15.7984 8.14161 15.8816 8.20581ZM14.4742 5.16129H14.5584C14.891 5.16129 15.1616 5.43194 15.1616 5.76452C15.1616 5.7829 15.161 5.80129 15.159 5.81935L14.8661 9.04097L15.1123 9.12C15.3948 9.21032 15.4839 9.32935 15.4839 9.35484C15.4839 9.43516 15.1406 9.67742 14.5161 9.67742C13.8916 9.67742 13.5484 9.43516 13.5484 9.35484C13.5484 9.32935 13.6374 9.21032 13.92 9.11968L14.1661 9.04064L13.8732 5.81935C13.8716 5.80097 13.871 5.78258 13.871 5.76452C13.871 5.43194 14.1416 5.16129 14.4742 5.16129ZM13.4323 8.09129L13.4787 8.60258C13.1139 8.78 12.9032 9.05032 12.9032 9.35484C12.9032 9.71032 13.1932 10.0074 13.6439 10.1752C13.5861 10.5413 13.5484 10.911 13.5484 11.2806V12.5903C13.5484 13.0335 13.591 13.4761 13.6735 13.9113L11.7719 13.6187C11.6684 13.2642 11.6129 12.8987 11.6129 12.5277V11.3429C11.6129 10.1161 12.2026 8.94387 13.1903 8.20774C13.2623 8.15419 13.3452 8.11484 13.4323 8.09129ZM9.94613 13.3377C9.77097 12.8945 9.67742 12.4303 9.67742 11.9519V11.2735C9.67742 10.0729 10.2606 8.92581 11.2371 8.20452C11.3597 8.11419 11.5119 8.06452 11.6655 8.06452C11.8603 8.06452 12.0397 8.1429 12.171 8.27419C11.4103 9.10774 10.9677 10.2026 10.9677 11.3432V12.5281C10.9677 12.8606 11.0074 13.1897 11.0794 13.5123L9.94613 13.3377ZM9.97645 3.64548L10.0352 3.97742L10.3642 3.90419C10.4642 3.88194 10.5561 3.87097 10.6452 3.87097C11.3568 3.87097 11.9355 4.44968 11.9355 5.16129C11.9355 5.50032 11.8039 5.82097 11.5652 6.06419L11.3432 6.29032L11.5652 6.51645C11.8039 6.75968 11.9355 7.08032 11.9355 7.41935C11.9355 7.42903 11.9335 7.43871 11.9335 7.44871C11.8461 7.43129 11.7571 7.41935 11.6655 7.41935C11.3748 7.41935 11.0865 7.51387 10.8539 7.68581C10.2668 8.11903 9.80452 8.68581 9.49097 9.32419C9.36871 8.94355 9.24032 8.57903 9.10806 8.2329C9.40645 6.65677 10.5132 5.74452 10.5245 5.73516L10.3226 5.48387L10.121 5.23194C10.0761 5.26774 9.20355 5.98032 8.71355 7.26581C8.04226 5.72452 7.40871 4.72742 7.36806 4.66419L6.82516 5.01323C6.83387 5.02645 7.32581 5.80032 7.89839 7.03226C6.93355 6.66903 5.8371 6.76935 5.77419 6.77581L5.83839 7.41774C6.32355 7.36903 7.69774 7.39258 8.33968 8.04774C8.56581 8.60355 8.78871 9.2129 8.98548 9.86581C8.00484 9.3629 6.83484 9.35484 6.77419 9.35484V10C6.78935 10 8.22548 10.0097 9.07548 10.6855C9.04903 10.8797 9.03226 11.0758 9.03226 11.2739V11.9523C9.03226 12.3881 9.09935 12.8142 9.22387 13.2271L7.38935 12.9448C7.29258 12.93 7.19484 12.92 7.09677 12.9129C6.38516 12.9129 5.80645 12.3297 5.80645 11.6132C5.80645 11.4629 5.83645 11.3087 5.89516 11.1542L5.98935 10.9074L5.76581 10.7661C5.38742 10.5268 5.16129 10.12 5.16129 9.67742C5.16129 9.42355 5.23581 9.17742 5.37677 8.96516L5.57774 8.66323L5.25452 8.49903C4.6 8.16613 4.19355 7.50548 4.19355 6.77419C4.19355 5.91581 4.77032 5.15129 5.59645 4.91484L5.79677 4.85742L5.82677 4.65129C5.91871 4.02258 6.46484 3.54839 7.09677 3.54839C7.10871 3.54839 7.12032 3.55097 7.13194 3.55258C7.15452 3.55581 7.17742 3.55871 7.20032 3.56032L7.43161 3.57903L7.52258 3.36548C7.72613 2.88871 8.19194 2.58065 8.70968 2.58065C9.33484 2.58065 9.86742 3.02839 9.97645 3.64548ZM4.42097 10.9677H4.19355C3.48194 10.9677 2.90323 10.389 2.90323 9.67742C2.90323 9.52677 2.93323 9.37258 2.99194 9.21871L3.08645 8.97194L2.8629 8.83064C2.48419 8.59129 2.25806 8.18452 2.25806 7.74194C2.25806 7.48806 2.33258 7.24194 2.47355 7.02968L2.67452 6.72774L2.35129 6.56355C1.69677 6.23065 1.29032 5.57 1.29032 4.83871C1.29032 3.98032 1.8671 3.21581 2.6929 2.97935L2.89323 2.92194L2.92323 2.71581C3.01548 2.0871 3.56161 1.6129 4.19355 1.6129C4.20581 1.6129 4.21774 1.61548 4.22968 1.6171C4.25161 1.62 4.27355 1.6229 4.29613 1.62484L4.52839 1.64419L4.61968 1.42968C4.8229 0.953226 5.28871 0.645161 5.80645 0.645161C6.43161 0.645161 6.96419 1.0929 7.07323 1.71L7.13194 2.04194L7.46097 1.96871C7.56097 1.94645 7.6529 1.93548 7.74194 1.93548C7.89032 1.93548 8.03129 1.96806 8.16613 2.01516C7.69194 2.15387 7.28355 2.46871 7.0329 2.90419C6.17871 2.9329 5.44032 3.53581 5.22871 4.3571C4.23 4.72968 3.54839 5.69645 3.54839 6.77419C3.54839 7.63839 3.97355 8.42839 4.6771 8.90581C4.57097 9.14806 4.51613 9.41 4.51613 9.67742C4.51613 10.2581 4.77419 10.7977 5.2171 11.1635C5.18 11.3132 5.16129 11.4635 5.16129 11.6129C5.16129 12.1797 5.40516 12.689 5.79129 13.0445C5.59968 13.1 5.41548 13.1719 5.23871 13.2574L4.42097 10.9677ZM1.6129 15.2252V15.0974C1.6129 14.9355 1.76968 14.8106 1.92806 14.8448L3.46323 15.1861C3.42581 15.2835 3.39226 15.3826 3.36355 15.4839H1.87161C1.72903 15.4839 1.6129 15.3677 1.6129 15.2252ZM0.645161 16.4516C0.645161 16.2739 0.79 16.129 0.967742 16.129H1.87161H3.24194C3.23258 16.2355 3.22581 16.3426 3.22581 16.4516C3.22581 16.5606 3.23258 16.6677 3.24226 16.7742H1.87161H0.967742C0.79 16.7742 0.645161 16.6294 0.645161 16.4516ZM1.92742 18.0584C1.77452 18.0913 1.6129 17.9674 1.6129 17.8058V17.6781C1.6129 17.5355 1.72903 17.4194 1.87161 17.4194H3.36323C3.39194 17.5206 3.42581 17.6197 3.4629 17.7171L1.92742 18.0584ZM19.3548 16.4516C19.3548 17.039 18.9335 17.53 18.3532 17.6194L7.29194 19.321C7.14548 19.3435 6.99677 19.3548 6.85 19.3548H6.77419C5.17355 19.3548 3.87097 18.0523 3.87097 16.4516C3.87097 14.851 5.17355 13.5484 6.77419 13.5484H6.85C6.99677 13.5484 7.14548 13.5597 7.29161 13.5819L18.3529 15.2835C18.9335 15.3732 19.3548 15.8642 19.3548 16.4516ZM19.3548 11.9519C19.3548 12.9442 18.9532 13.9042 18.2545 14.6158L17.6135 14.5171C17.9081 13.8984 18.0645 13.22 18.0645 12.5277V11.3429C18.0645 10.1965 17.6277 9.09613 16.8774 8.26129C17.0077 8.13839 17.1806 8.06452 17.3668 8.06452C17.5206 8.06452 17.6726 8.11419 17.7952 8.20516C18.7716 8.92581 19.3548 10.0732 19.3548 11.2739V11.9519Z" fill="#147D77"/>
<path d="M6.45117 14.8389H7.09633V18.0647H6.45117V14.8389Z" fill="#147D77"/>
<path d="M9.0332 14.8389H9.67836V18.0647H9.0332V14.8389Z" fill="#147D77"/>
<path d="M11.6133 14.8389H12.2584V18.0647H11.6133V14.8389Z" fill="#147D77"/>
<path d="M14.1934 15.4834H14.8385V17.4189H14.1934V15.4834Z" fill="#147D77"/>
<path d="M16.7734 15.8066H17.4186V17.097H16.7734V15.8066Z" fill="#147D77"/>
</svg>
